<svg xmlns="http://www.w3.org/2000/svg" width="770" height="439" viewBox="0 0 770 439">
  <g id="Grupo_17678" data-name="Grupo 17678" transform="translate(-613 -16571)">
    <g id="Trazado_36870" data-name="Trazado 36870" transform="translate(851 16714)" fill="#472ea6">
      <path d="M 110.5 220.5 C 103.0363082885742 220.5 95.57746887207031 219.7481079101562 88.33064270019531 218.2651977539062 C 81.26821899414062 216.8200073242188 74.32141876220703 214.6636047363281 67.68319702148438 211.8558654785156 C 61.16533279418945 209.0990600585938 54.87883377075195 205.6868286132812 48.99830627441406 201.7140350341797 C 43.17350006103516 197.7788543701172 37.69610977172852 193.2596130371094 32.7182502746582 188.2817535400391 C 27.74038887023926 183.3038940429688 23.22113800048828 177.8265075683594 19.28597259521484 172.0016937255859 C 15.31316661834717 166.1211700439453 11.90094470977783 159.8346710205078 9.144139289855957 153.3168029785156 C 6.336389064788818 146.6785888671875 4.179999828338623 139.7317810058594 2.734805583953857 132.6693572998047 C 1.251888871192932 125.4225311279297 0.5 117.9636917114258 0.5 110.5 C 0.5 103.0363082885742 1.251888871192932 95.57746887207031 2.734805583953857 88.33064270019531 C 4.179999828338623 81.26821899414062 6.336389064788818 74.32141876220703 9.144139289855957 67.68319702148438 C 11.90094470977783 61.16533279418945 15.31316661834717 54.87883377075195 19.28597259521484 48.99830627441406 C 23.22113800048828 43.17350006103516 27.74038887023926 37.69610977172852 32.7182502746582 32.7182502746582 C 37.69610977172852 27.74038887023926 43.17350006103516 23.22113800048828 48.99830627441406 19.28597259521484 C 54.87883377075195 15.31316661834717 61.16533279418945 11.90094470977783 67.68319702148438 9.144139289855957 C 74.32141876220703 6.336389064788818 81.26821899414062 4.179999828338623 88.33064270019531 2.734805583953857 C 95.57746887207031 1.251888871192932 103.0363082885742 0.5 110.5 0.5 C 117.9636917114258 0.5 125.4225311279297 1.251888871192932 132.6693572998047 2.734805583953857 C 139.7317810058594 4.179999828338623 146.6785888671875 6.336389064788818 153.3168029785156 9.144139289855957 C 159.8346710205078 11.90094470977783 166.1211700439453 15.31316661834717 172.0016937255859 19.28597259521484 C 177.8265075683594 23.22113800048828 183.3038940429688 27.74038887023926 188.2817535400391 32.7182502746582 C 193.2596130371094 37.69610977172852 197.7788543701172 43.17350006103516 201.7140350341797 48.99830627441406 C 205.6868286132812 54.87883377075195 209.0990600585938 61.16533279418945 211.8558654785156 67.68319702148438 C 214.6636047363281 74.32141876220703 216.8200073242188 81.26821899414062 218.2651977539062 88.33064270019531 C 219.7481079101562 95.57746887207031 220.5 103.0363082885742 220.5 110.5 C 220.5 117.9636917114258 219.7481079101562 125.4225311279297 218.2651977539062 132.6693572998047 C 216.8200073242188 139.7317810058594 214.6636047363281 146.6785888671875 211.8558654785156 153.3168029785156 C 209.0990600585938 159.8346710205078 205.6868286132812 166.1211700439453 201.7140350341797 172.0016937255859 C 197.7788543701172 177.8265075683594 193.2596130371094 183.3038940429688 188.2817535400391 188.2817535400391 C 183.3038940429688 193.2596130371094 177.8265075683594 197.7788543701172 172.0016937255859 201.7140350341797 C 166.1211700439453 205.6868286132812 159.8346710205078 209.0990600585938 153.3168029785156 211.8558654785156 C 146.6785888671875 214.6636047363281 139.7317810058594 216.8200073242188 132.6693572998047 218.2651977539062 C 125.4225311279297 219.7481079101562 117.9636917114258 220.5 110.5 220.5 Z" stroke="none"/>
      <path d="M 110.5 1 C 103.0699157714844 1 95.644775390625 1.74847412109375 88.43086242675781 3.22467041015625 C 81.40080261230469 4.663223266601562 74.48580932617188 6.80975341796875 67.87797546386719 9.604644775390625 C 61.38986206054688 12.34889221191406 55.13200378417969 15.74555969238281 49.2781982421875 19.70027160644531 C 43.47978210449219 23.61764526367188 38.02714538574219 28.11643981933594 33.07180786132812 33.07180786132812 C 28.11643981933594 38.02714538574219 23.61764526367188 43.47978210449219 19.70027160644531 49.2781982421875 C 15.74555969238281 55.13200378417969 12.34889221191406 61.38986206054688 9.604644775390625 67.87797546386719 C 6.80975341796875 74.48580932617188 4.663223266601562 81.40080261230469 3.22467041015625 88.43086242675781 C 1.74847412109375 95.644775390625 1 103.0699157714844 1 110.5 C 1 117.9300842285156 1.74847412109375 125.355224609375 3.22467041015625 132.5691375732422 C 4.663223266601562 139.5991973876953 6.80975341796875 146.5141906738281 9.604644775390625 153.1220245361328 C 12.34889221191406 159.6101379394531 15.74555969238281 165.8679962158203 19.70027160644531 171.7218017578125 C 23.61764526367188 177.5202178955078 28.11643981933594 182.9728698730469 33.07180786132812 187.9281921386719 C 38.02714538574219 192.8835601806641 43.47978210449219 197.3823547363281 49.2781982421875 201.2997283935547 C 55.13200378417969 205.2544403076172 61.38986206054688 208.6511077880859 67.87797546386719 211.3953552246094 C 74.48580932617188 214.1902465820312 81.40080261230469 216.3367767333984 88.43086242675781 217.7753295898438 C 95.644775390625 219.2515258789062 103.0699157714844 220 110.5 220 C 117.9300842285156 220 125.355224609375 219.2515258789062 132.5691375732422 217.7753295898438 C 139.5991973876953 216.3367767333984 146.5141906738281 214.1902465820312 153.1220245361328 211.3953552246094 C 159.6101379394531 208.6511077880859 165.8679962158203 205.2544403076172 171.7218017578125 201.2997283935547 C 177.5202178955078 197.3823547363281 182.9728698730469 192.8835601806641 187.9281921386719 187.9281921386719 C 192.8835601806641 182.9728698730469 197.3823547363281 177.5202178955078 201.2997283935547 171.7218017578125 C 205.2544403076172 165.8679962158203 208.6511077880859 159.6101379394531 211.3953552246094 153.1220245361328 C 214.1902465820312 146.5141906738281 216.3367767333984 139.5991973876953 217.7753295898438 132.5691375732422 C 219.2515258789062 125.355224609375 220 117.9300842285156 220 110.5 C 220 103.0699157714844 219.2515258789062 95.644775390625 217.7753295898438 88.43086242675781 C 216.3367767333984 81.40080261230469 214.1902465820312 74.48580932617188 211.3953552246094 67.87797546386719 C 208.6511077880859 61.38986206054688 205.2544403076172 55.13200378417969 201.2997283935547 49.2781982421875 C 197.3823547363281 43.47978210449219 192.8835601806641 38.02714538574219 187.9281921386719 33.07180786132812 C 182.9728698730469 28.11643981933594 177.5202178955078 23.61764526367188 171.7218017578125 19.70027160644531 C 165.8679962158203 15.74555969238281 159.6101379394531 12.34889221191406 153.1220245361328 9.604644775390625 C 146.5141906738281 6.80975341796875 139.5991973876953 4.663223266601562 132.5691375732422 3.22467041015625 C 125.355224609375 1.74847412109375 117.9300842285156 1 110.5 1 M 110.5 0 C 171.5274658203125 0 221 49.4725341796875 221 110.5 C 221 171.5274658203125 171.5274658203125 221 110.5 221 C 49.4725341796875 221 0 171.5274658203125 0 110.5 C 0 49.4725341796875 49.4725341796875 0 110.5 0 Z" stroke="none" fill="#707070"/>
    </g>
    <path id="Trazado_36876" data-name="Trazado 36876" d="M8.884.215A8.438,8.438,0,0,1,4.807-.757a7.047,7.047,0,0,1-2.831-2.8A8.416,8.416,0,0,1,.945-7.767a8.408,8.408,0,0,1,1.031-4.216,7.021,7.021,0,0,1,2.831-2.788,8.476,8.476,0,0,1,4.077-.967,8.444,8.444,0,0,1,4.071.967,7.03,7.03,0,0,1,2.825,2.788,8.408,8.408,0,0,1,1.031,4.216A8.416,8.416,0,0,1,15.78-3.556a7.047,7.047,0,0,1-2.831,2.8A8.415,8.415,0,0,1,8.884.215ZM5.489-4.093A4.559,4.559,0,0,0,8.884-2.739,4.55,4.55,0,0,0,12.278-4.1,5.014,5.014,0,0,0,13.61-7.767a4.98,4.98,0,0,0-1.332-3.652,4.559,4.559,0,0,0-3.395-1.354,4.559,4.559,0,0,0-3.395,1.354A4.98,4.98,0,0,0,4.157-7.767,5.033,5.033,0,0,0,5.489-4.093Zm20.367-7.165a5.343,5.343,0,0,1,2.052.4A5.12,5.12,0,0,1,29.6-9.738a5.117,5.117,0,0,1,1.144,1.821A6.717,6.717,0,0,1,31.163-5.5a6.717,6.717,0,0,1-.419,2.417A5.117,5.117,0,0,1,29.6-1.262,5.12,5.12,0,0,1,27.908-.14a5.343,5.343,0,0,1-2.052.4,4.769,4.769,0,0,1-2.089-.446,3.088,3.088,0,0,1-1.391-1.251L22.3,0H19.368V-16.5h3.094v6.8a3.083,3.083,0,0,1,1.38-1.149A4.856,4.856,0,0,1,25.856-11.258Zm-.72,8.948a2.783,2.783,0,0,0,2.1-.87,3.216,3.216,0,0,0,.833-2.32,3.231,3.231,0,0,0-.833-2.331,2.783,2.783,0,0,0-2.1-.87,2.751,2.751,0,0,0-2.084.886A3.232,3.232,0,0,0,22.215-5.5a3.225,3.225,0,0,0,.833,2.31A2.754,2.754,0,0,0,25.137-2.31ZM37.383.215A6.171,6.171,0,0,1,34.16-.559a3.269,3.269,0,0,1-1.579-2.3l2.589-.73a2.08,2.08,0,0,0,2.213,1.644A2.285,2.285,0,0,0,38.511-2.2a.879.879,0,0,0,.44-.854.9.9,0,0,0-.183-.569,1.446,1.446,0,0,0-.564-.408,7.026,7.026,0,0,0-.752-.29q-.371-.118-.983-.285T35.449-4.92a6.836,6.836,0,0,1-.972-.414,4.147,4.147,0,0,1-.806-.569,2.3,2.3,0,0,1-.6-.865,3.12,3.12,0,0,1-.209-1.182,2.821,2.821,0,0,1,1.2-2.471,5.352,5.352,0,0,1,3.131-.838,5.487,5.487,0,0,1,2.89.709,3.209,3.209,0,0,1,1.482,2.213l-2.4.537A1.876,1.876,0,0,0,37.2-9.2a2.153,2.153,0,0,0-1.085.247.794.794,0,0,0-.43.73.837.837,0,0,0,.064.333.659.659,0,0,0,.226.269,3.29,3.29,0,0,0,.312.2,2.35,2.35,0,0,0,.44.177q.29.091.483.14l.564.145.575.15q.591.161,1.037.322a6.071,6.071,0,0,1,.951.451,3.412,3.412,0,0,1,.833.65,2.9,2.9,0,0,1,.542.913,3.372,3.372,0,0,1,.215,1.23,3.322,3.322,0,0,1-.371,1.6,2.782,2.782,0,0,1-1.015,1.08,4.941,4.941,0,0,1-1.434.58A7.439,7.439,0,0,1,37.383.215Zm17.155-5.9-.032.741H46.32a2.859,2.859,0,0,0,.881,2.02,2.817,2.817,0,0,0,1.944.7A2.715,2.715,0,0,0,50.6-2.6a2.344,2.344,0,0,0,.929-1.112l2.836.419A4.821,4.821,0,0,1,52.433-.709a5.749,5.749,0,0,1-3.266.924,5.978,5.978,0,0,1-4.3-1.52,5.546,5.546,0,0,1-1.6-4.216,5.579,5.579,0,0,1,1.6-4.216,5.8,5.8,0,0,1,4.2-1.542,5.544,5.544,0,0,1,3.964,1.407A5.52,5.52,0,0,1,54.538-5.683ZM49.092-9.088a2.445,2.445,0,0,0-2.686,2.127h5.07a2.326,2.326,0,0,0-.763-1.579A2.417,2.417,0,0,0,49.092-9.088Zm10.764-.2a3.585,3.585,0,0,1,1.45-1.327,4.425,4.425,0,0,1,2.159-.553v2.761a4.183,4.183,0,0,0-2.643.666,2.908,2.908,0,0,0-.816,2.363V0H56.891V-11.043h2.965Zm12.9-1.751h3.276L71.328,0H68.643L63.991-11.043h3.255L70-3.491ZM86.271-3a10.331,10.331,0,0,0,.269,2.7V0h-2.89L83.4-1.2A3.591,3.591,0,0,1,81.855-.14a5.7,5.7,0,0,1-2,.354,5.254,5.254,0,0,1-1.031-.1A3.506,3.506,0,0,1,77.9-.209a2.82,2.82,0,0,1-.768-.575,2.52,2.52,0,0,1-.516-.875,3.488,3.488,0,0,1-.193-1.2,3.321,3.321,0,0,1,.2-1.2,2.807,2.807,0,0,1,.537-.9,3.258,3.258,0,0,1,.87-.655,6.658,6.658,0,0,1,1.1-.473,13.092,13.092,0,0,1,1.311-.344l1.815-.408a2,2,0,0,0,.822-.349.7.7,0,0,0,.242-.553A1.14,1.14,0,0,0,82.774-8.8a2.533,2.533,0,0,0-1.316-.322A1.894,1.894,0,0,0,79.3-7.434L76.56-7.928a3.708,3.708,0,0,1,1.6-2.519,6.362,6.362,0,0,1,3.47-.811q4.641,0,4.641,3.985ZM80.824-1.88a2.488,2.488,0,0,0,1.912-.8,3.372,3.372,0,0,0,.741-2.369l-2.621.741a3.1,3.1,0,0,0-1.1.451.927.927,0,0,0-.381.795,1.029,1.029,0,0,0,.408.875A1.689,1.689,0,0,0,80.824-1.88ZM94.026.2a5.9,5.9,0,0,1-4.265-1.59,5.491,5.491,0,0,1-1.654-4.146,5.479,5.479,0,0,1,1.649-4.146,5.918,5.918,0,0,1,4.27-1.579A5.884,5.884,0,0,1,97.6-10.194a4.748,4.748,0,0,1,1.848,3l-2.857.312a2.448,2.448,0,0,0-.924-1.45,2.809,2.809,0,0,0-1.676-.483,2.533,2.533,0,0,0-2.02.9A3.538,3.538,0,0,0,91.2-5.532a3.542,3.542,0,0,0,.773,2.379,2.526,2.526,0,0,0,2.02.908,2.785,2.785,0,0,0,1.67-.483,2.505,2.505,0,0,0,.929-1.45l2.857.312a4.761,4.761,0,0,1-1.864,3A5.86,5.86,0,0,1,94.026.2Zm9.206-12.9a1.737,1.737,0,0,1-1.268-.521,1.71,1.71,0,0,1-.526-1.262,1.69,1.69,0,0,1,.532-1.251,1.742,1.742,0,0,1,1.262-.521,1.712,1.712,0,0,1,1.246.521A1.7,1.7,0,0,1,105-14.48a1.71,1.71,0,0,1-.526,1.262A1.712,1.712,0,0,1,103.232-12.7ZM101.653,0V-11.043h3.115V0Zm10.506-12.547,2.814-3.953,1.525,1.074-2.438,2.879ZM113.115.215a6.944,6.944,0,0,1-3.126-.677,5.058,5.058,0,0,1-2.143-1.987,5.922,5.922,0,0,1-.779-3.083,5.4,5.4,0,0,1,1.676-4.189,6.217,6.217,0,0,1,4.372-1.536A6.232,6.232,0,0,1,117.5-9.722a5.4,5.4,0,0,1,1.676,4.189A5.432,5.432,0,0,1,117.5-1.327,6.219,6.219,0,0,1,113.115.215Zm-.032-2.46a2.835,2.835,0,0,0,2.186-.9,3.378,3.378,0,0,0,.833-2.385,3.378,3.378,0,0,0-.833-2.385,2.835,2.835,0,0,0-2.186-.9,2.731,2.731,0,0,0-2.122.908,3.409,3.409,0,0,0-.822,2.379,3.409,3.409,0,0,0,.822,2.379A2.731,2.731,0,0,0,113.083-2.245Zm14.91-9.013a4.3,4.3,0,0,1,3.051.994,3.684,3.684,0,0,1,1.063,2.831V0H129V-6.768a1.923,1.923,0,0,0-.553-1.525,2.084,2.084,0,0,0-1.423-.483,2.908,2.908,0,0,0-.924.14,2.373,2.373,0,0,0-.773.435,1.923,1.923,0,0,0-.553.833,3.85,3.85,0,0,0-.209,1.278V0h-3.094V-11.043h3.094v1.225A4.255,4.255,0,0,1,127.993-11.258Z" transform="translate(895 16832)" fill="#fff"/>
    <path id="Trazado_36867" data-name="Trazado 36867" d="M0,0H168V68H0Z" transform="translate(613 16605)" fill="#ff8f00"/>
    <path id="Trazado_36868" data-name="Trazado 36868" d="M12.536,5.875h1.912V21h-2.03L4.265,8.765V21H2.374V5.875H4.383l8.153,12.182ZM21,21.2a3.593,3.593,0,0,1-2.315-.725,2.6,2.6,0,0,1-.908-2.165,3.076,3.076,0,0,1,.29-1.38,2.433,2.433,0,0,1,.859-.961,5.155,5.155,0,0,1,1.241-.6A11.469,11.469,0,0,1,21.774,15l1.708-.279q.935-.172.935-.978a1.845,1.845,0,0,0-.661-1.574,2.692,2.692,0,0,0-1.67-.5,2.742,2.742,0,0,0-1.654.483,2.023,2.023,0,0,0-.784,1.482l-1.676-.354a3.225,3.225,0,0,1,1.321-2.261,4.937,4.937,0,0,1,2.879-.757,5.839,5.839,0,0,1,1.531.188,4.16,4.16,0,0,1,1.278.591,2.65,2.65,0,0,1,.913,1.139,4.237,4.237,0,0,1,.328,1.735v4.361a1.784,1.784,0,0,0,.242,1.1,1.043,1.043,0,0,0,.833.285h.172V21h-.924a1.762,1.762,0,0,1-2-1.429H24.46A4.035,4.035,0,0,1,21,21.2Zm.43-1.5A2.818,2.818,0,0,0,23.7,18.68a4.2,4.2,0,0,0,.859-2.793l-2.793.537a3.76,3.76,0,0,0-1.638.585,1.362,1.362,0,0,0-.532,1.155,1.346,1.346,0,0,0,.51,1.16A2.181,2.181,0,0,0,21.431,19.7ZM33.4,21a2.776,2.776,0,0,1-2.062-.757,2.865,2.865,0,0,1-.752-2.111V11.923H28.424V10.44h.795a1.526,1.526,0,0,0,1.166-.371,1.824,1.824,0,0,0,.338-1.241V6.917h1.729V10.44H34.88v1.482H32.452v6.016a1.6,1.6,0,0,0,.4,1.166,1.411,1.411,0,0,0,1.058.414h.967V21ZM44.14,10.44H46V21H44.215l-.043-1.4a3.3,3.3,0,0,1-1.311,1.187,4.031,4.031,0,0,1-1.848.414,3.673,3.673,0,0,1-2.659-.956,3.566,3.566,0,0,1-.994-2.7V10.44H39.22v6.692a2.506,2.506,0,0,0,.65,1.891,2.3,2.3,0,0,0,1.66.623,2.527,2.527,0,0,0,1.875-.73,2.975,2.975,0,0,0,.736-2.159ZM51.595,12.3a3.192,3.192,0,0,1,1.311-1.418,3.947,3.947,0,0,1,2.03-.559v1.751a3.479,3.479,0,0,0-2.455.784,3.276,3.276,0,0,0-.843,2.5V21H49.779V10.44h1.815ZM59.426,21.2a3.593,3.593,0,0,1-2.315-.725,2.6,2.6,0,0,1-.908-2.165,3.076,3.076,0,0,1,.29-1.38,2.433,2.433,0,0,1,.859-.961,5.155,5.155,0,0,1,1.241-.6A11.469,11.469,0,0,1,60.2,15l1.708-.279q.935-.172.935-.978a1.845,1.845,0,0,0-.661-1.574,2.692,2.692,0,0,0-1.67-.5,2.742,2.742,0,0,0-1.654.483,2.023,2.023,0,0,0-.784,1.482L56.4,13.276a3.225,3.225,0,0,1,1.321-2.261,4.937,4.937,0,0,1,2.879-.757,5.839,5.839,0,0,1,1.531.188,4.16,4.16,0,0,1,1.278.591,2.65,2.65,0,0,1,.913,1.139,4.237,4.237,0,0,1,.328,1.735v4.361a1.784,1.784,0,0,0,.242,1.1,1.043,1.043,0,0,0,.833.285h.172V21h-.924a1.762,1.762,0,0,1-2-1.429h-.086A4.035,4.035,0,0,1,59.426,21.2Zm.43-1.5a2.818,2.818,0,0,0,2.267-1.021,4.2,4.2,0,0,0,.859-2.793l-2.793.537a3.76,3.76,0,0,0-1.638.585,1.362,1.362,0,0,0-.532,1.155,1.346,1.346,0,0,0,.51,1.16A2.181,2.181,0,0,0,59.855,19.7ZM68.514,21V4.5h1.88V21Zm15.823.2a5.566,5.566,0,0,1-2.707-.655,4.771,4.771,0,0,1-1.907-1.917,5.89,5.89,0,0,1-.7-2.917,5.38,5.38,0,0,1,1.5-3.98,5.622,5.622,0,0,1,7.643,0,5.39,5.39,0,0,1,1.493,3.98,5.394,5.394,0,0,1-1.5,3.991A5.173,5.173,0,0,1,84.337,21.2Zm-.011-1.547a3.243,3.243,0,0,0,2.5-1.085,4.065,4.065,0,0,0,.994-2.857,4.05,4.05,0,0,0-.994-2.847,3.243,3.243,0,0,0-2.5-1.085,3.2,3.2,0,0,0-2.476,1.085,4.077,4.077,0,0,0-.983,2.847,4.092,4.092,0,0,0,.983,2.857A3.2,3.2,0,0,0,84.326,19.657ZM4.329,46.2a3.593,3.593,0,0,1-2.315-.725,2.6,2.6,0,0,1-.908-2.165,3.076,3.076,0,0,1,.29-1.38,2.433,2.433,0,0,1,.859-.961,5.155,5.155,0,0,1,1.241-.6A11.47,11.47,0,0,1,5.1,40l1.708-.279q.935-.172.935-.978a1.845,1.845,0,0,0-.661-1.574,2.692,2.692,0,0,0-1.67-.5,2.742,2.742,0,0,0-1.654.483,2.023,2.023,0,0,0-.784,1.482L1.3,38.276a3.225,3.225,0,0,1,1.321-2.261A4.937,4.937,0,0,1,5.5,35.258a5.839,5.839,0,0,1,1.531.188,4.16,4.16,0,0,1,1.278.591,2.65,2.65,0,0,1,.913,1.139A4.237,4.237,0,0,1,9.55,38.91v4.361a1.784,1.784,0,0,0,.242,1.1,1.043,1.043,0,0,0,.833.285H10.8V46H9.872a1.762,1.762,0,0,1-2-1.429H7.788A4.035,4.035,0,0,1,4.329,46.2Zm.43-1.5A2.818,2.818,0,0,0,7.025,43.68a4.2,4.2,0,0,0,.859-2.793l-2.793.537a3.76,3.76,0,0,0-1.638.585,1.362,1.362,0,0,0-.532,1.155,1.346,1.346,0,0,0,.51,1.16A2.181,2.181,0,0,0,4.759,44.7Zm10.474-7.4a3.192,3.192,0,0,1,1.311-1.418,3.947,3.947,0,0,1,2.03-.559v1.751a3.479,3.479,0,0,0-2.455.784,3.276,3.276,0,0,0-.843,2.5V46H13.417V35.44h1.815ZM24.739,46a2.776,2.776,0,0,1-2.062-.757,2.865,2.865,0,0,1-.752-2.111V36.923H19.766V35.44h.795a1.526,1.526,0,0,0,1.166-.371,1.824,1.824,0,0,0,.338-1.241V31.917h1.729V35.44h2.428v1.482H23.794v6.016a1.6,1.6,0,0,0,.4,1.166,1.411,1.411,0,0,0,1.058.414h.967V46Zm5.113-13.041A1.265,1.265,0,0,1,28.6,31.7a1.192,1.192,0,0,1,.371-.881,1.218,1.218,0,0,1,.886-.365,1.206,1.206,0,0,1,.875.365,1.192,1.192,0,0,1,.371.881,1.209,1.209,0,0,1-.371.886A1.2,1.2,0,0,1,29.853,32.959ZM28.907,46V35.44h1.869V46Zm6.2-12.772A6.073,6.073,0,0,1,35.218,32a3.99,3.99,0,0,1,.3-.929,2.208,2.208,0,0,1,.5-.671,2.939,2.939,0,0,1,.65-.457,3.226,3.226,0,0,1,.8-.269,7.511,7.511,0,0,1,.908-.134q.446-.038,1.026-.038v1.558H39q-.124,0-.387.021a2.479,2.479,0,0,0-.387.054q-.124.032-.333.107a.85.85,0,0,0-.317.183q-.107.107-.247.274a1.123,1.123,0,0,0-.209.387A3.7,3.7,0,0,0,37,32.6a4.112,4.112,0,0,0-.048.661V35.44H39.4v1.482H36.953V46H35.105V36.923H33.064V35.44h2.041Zm7.391-.269A1.265,1.265,0,0,1,41.239,31.7a1.192,1.192,0,0,1,.371-.881,1.218,1.218,0,0,1,.886-.365,1.206,1.206,0,0,1,.875.365,1.192,1.192,0,0,1,.371.881,1.209,1.209,0,0,1-.371.886A1.2,1.2,0,0,1,42.5,32.959ZM41.551,46V35.44H43.42V46Zm10.033.193A5.086,5.086,0,0,1,47.8,44.679a5.4,5.4,0,0,1-1.493-3.964A5.414,5.414,0,0,1,47.8,36.751a5.5,5.5,0,0,1,6.843-.591,4.662,4.662,0,0,1,1.778,2.567l-1.74.279a3.214,3.214,0,0,0-1.192-1.644,3.247,3.247,0,0,0-1.912-.58,3.122,3.122,0,0,0-2.444,1.085,4.687,4.687,0,0,0,0,5.688,3.129,3.129,0,0,0,2.444,1.08,3.247,3.247,0,0,0,1.912-.58,3.214,3.214,0,0,0,1.192-1.644l1.74.29a4.668,4.668,0,0,1-1.789,2.562A5.115,5.115,0,0,1,51.584,46.193ZM60.1,32.959A1.265,1.265,0,0,1,58.846,31.7a1.192,1.192,0,0,1,.371-.881,1.218,1.218,0,0,1,.886-.365,1.206,1.206,0,0,1,.875.365,1.192,1.192,0,0,1,.371.881,1.209,1.209,0,0,1-.371.886A1.2,1.2,0,0,1,60.1,32.959ZM59.157,46V35.44h1.869V46Zm8.089.2a3.593,3.593,0,0,1-2.315-.725,2.6,2.6,0,0,1-.908-2.165,3.076,3.076,0,0,1,.29-1.38,2.434,2.434,0,0,1,.859-.961,5.155,5.155,0,0,1,1.241-.6A11.47,11.47,0,0,1,68.02,40l1.708-.279q.935-.172.935-.978A1.845,1.845,0,0,0,70,37.165a2.692,2.692,0,0,0-1.67-.5,2.742,2.742,0,0,0-1.654.483,2.023,2.023,0,0,0-.784,1.482l-1.676-.354a3.225,3.225,0,0,1,1.321-2.261,4.937,4.937,0,0,1,2.879-.757,5.839,5.839,0,0,1,1.531.188,4.16,4.16,0,0,1,1.278.591,2.65,2.65,0,0,1,.913,1.139,4.237,4.237,0,0,1,.328,1.735v4.361a1.784,1.784,0,0,0,.242,1.1,1.043,1.043,0,0,0,.833.285h.172V46h-.924a1.762,1.762,0,0,1-2-1.429h-.086A4.035,4.035,0,0,1,67.246,46.2Zm.43-1.5a2.818,2.818,0,0,0,2.267-1.021,4.2,4.2,0,0,0,.859-2.793l-2.793.537a3.76,3.76,0,0,0-1.638.585,1.362,1.362,0,0,0-.532,1.155,1.346,1.346,0,0,0,.51,1.16A2.181,2.181,0,0,0,67.676,44.7ZM76.334,46V29.5h1.88V46Z" transform="translate(647 16610)" fill="#00223d"/>
    <path id="Trazado_36260" data-name="Trazado 36260" d="M2043.5,12947v101.273h116.849" transform="translate(-1351 3736.711)" fill="none" stroke="#472ea6" stroke-width="2"/>
    <path id="Trazado_36261" data-name="Trazado 36261" d="M2043.5,13037v-90h116.849" transform="translate(-1351 3898)" fill="none" stroke="#472ea6" stroke-width="2"/>
    <path id="Trazado_36262" data-name="Trazado 36262" d="M2160.349,12947v101.273H2043.5" transform="translate(-926 3736.711)" fill="none" stroke="#472ea6" stroke-width="2"/>
    <path id="Trazado_36263" data-name="Trazado 36263" d="M2160.349,13037v-90H2043.5" transform="translate(-926 3898)" fill="none" stroke="#472ea6" stroke-width="2"/>
    <path id="Trazado_36873" data-name="Trazado 36873" d="M13,0,26,23H0Z" transform="translate(825.5 16771.5) rotate(90)" fill="#472ea6"/>
    <path id="Trazado_36877" data-name="Trazado 36877" d="M13,0,26,23H0Z" transform="translate(825.5 16830.5) rotate(90)" fill="#472ea6"/>
    <path id="Trazado_36874" data-name="Trazado 36874" d="M13,0,26,23H0Z" transform="translate(1107.5 16797.5) rotate(-90)" fill="#472ea6"/>
    <path id="Trazado_36878" data-name="Trazado 36878" d="M13,0,26,23H0Z" transform="translate(1107.5 16856.5) rotate(-90)" fill="#472ea6"/>
    <path id="Trazado_36869" data-name="Trazado 36869" d="M0,0H168V68H0Z" transform="translate(876 16571)" fill="#ff8f00"/>
    <path id="Trazado_36871" data-name="Trazado 36871" d="M8.852,21.2a8.035,8.035,0,0,1-2.976-.542,7.186,7.186,0,0,1-2.39-1.525A6.8,6.8,0,0,1,1.9,16.682a8.877,8.877,0,0,1-.575-3.255,8.732,8.732,0,0,1,.58-3.239,6.791,6.791,0,0,1,3.975-3.98,8.107,8.107,0,0,1,2.976-.537,7.976,7.976,0,0,1,2.954.542A7.127,7.127,0,0,1,14.19,7.739a6.908,6.908,0,0,1,1.59,2.449,8.732,8.732,0,0,1,.58,3.239,8.816,8.816,0,0,1-.58,3.25,6.891,6.891,0,0,1-1.59,2.46,7.127,7.127,0,0,1-2.385,1.525A7.976,7.976,0,0,1,8.852,21.2Zm0-1.815a5.4,5.4,0,0,0,4-1.6,5.924,5.924,0,0,0,1.584-4.367A6.935,6.935,0,0,0,14,10.913,5.178,5.178,0,0,0,12.81,9.044a5.231,5.231,0,0,0-1.772-1.139,5.943,5.943,0,0,0-2.186-.4,6.015,6.015,0,0,0-2.2.4A5.277,5.277,0,0,0,4.866,9.044a5.141,5.141,0,0,0-1.2,1.869,6.935,6.935,0,0,0-.435,2.514,7.053,7.053,0,0,0,.435,2.535,5.126,5.126,0,0,0,1.2,1.88,5.346,5.346,0,0,0,1.783,1.144A5.944,5.944,0,0,0,8.852,19.389Zm15.1,1.8a5.086,5.086,0,0,1-3.781-1.515,5.4,5.4,0,0,1-1.493-3.964,5.414,5.414,0,0,1,1.488-3.964,5.081,5.081,0,0,1,3.787-1.515,5.123,5.123,0,0,1,3.056.924,4.662,4.662,0,0,1,1.778,2.567l-1.74.279a3.214,3.214,0,0,0-1.192-1.644,3.247,3.247,0,0,0-1.912-.58A3.122,3.122,0,0,0,21.5,12.868a4.133,4.133,0,0,0-.961,2.847,4.113,4.113,0,0,0,.961,2.841,3.129,3.129,0,0,0,2.444,1.08,3.247,3.247,0,0,0,1.912-.58,3.214,3.214,0,0,0,1.192-1.644l1.74.29A4.668,4.668,0,0,1,27,20.264,5.115,5.115,0,0,1,23.955,21.193ZM38.1,10.44h1.858V21H38.178l-.043-1.4a3.3,3.3,0,0,1-1.311,1.187,4.031,4.031,0,0,1-1.848.414,3.673,3.673,0,0,1-2.659-.956,3.566,3.566,0,0,1-.994-2.7V10.44h1.858v6.692a2.506,2.506,0,0,0,.65,1.891,2.3,2.3,0,0,0,1.66.623,2.527,2.527,0,0,0,1.875-.73,2.975,2.975,0,0,0,.736-2.159ZM43.742,21V4.5h1.88V21Zm9.034,0a2.776,2.776,0,0,1-2.062-.757,2.865,2.865,0,0,1-.752-2.111V11.923H47.8V10.44H48.6a1.526,1.526,0,0,0,1.166-.371A1.824,1.824,0,0,0,50.1,8.829V6.917h1.729V10.44h2.428v1.482H51.831v6.016a1.6,1.6,0,0,0,.4,1.166,1.411,1.411,0,0,0,1.058.414h.967V21Zm6.478.2a3.593,3.593,0,0,1-2.315-.725,2.6,2.6,0,0,1-.908-2.165,3.076,3.076,0,0,1,.29-1.38,2.433,2.433,0,0,1,.859-.961,5.155,5.155,0,0,1,1.241-.6A11.469,11.469,0,0,1,60.027,15l1.708-.279q.935-.172.935-.978a1.845,1.845,0,0,0-.661-1.574,2.692,2.692,0,0,0-1.67-.5,2.742,2.742,0,0,0-1.654.483,2.023,2.023,0,0,0-.784,1.482l-1.676-.354a3.225,3.225,0,0,1,1.321-2.261,4.937,4.937,0,0,1,2.879-.757,5.839,5.839,0,0,1,1.531.188,4.16,4.16,0,0,1,1.278.591,2.65,2.65,0,0,1,.913,1.139,4.237,4.237,0,0,1,.328,1.735v4.361a1.784,1.784,0,0,0,.242,1.1,1.043,1.043,0,0,0,.833.285h.172V21H64.8a1.762,1.762,0,0,1-2-1.429h-.086A4.035,4.035,0,0,1,59.254,21.2Zm.43-1.5A2.818,2.818,0,0,0,61.95,18.68a4.2,4.2,0,0,0,.859-2.793l-2.793.537a3.76,3.76,0,0,0-1.638.585,1.362,1.362,0,0,0-.532,1.155,1.346,1.346,0,0,0,.51,1.16A2.181,2.181,0,0,0,59.684,19.7ZM78.5,21.2a5.566,5.566,0,0,1-2.707-.655,4.771,4.771,0,0,1-1.907-1.917,5.89,5.89,0,0,1-.7-2.917,5.38,5.38,0,0,1,1.5-3.98,5.622,5.622,0,0,1,7.643,0,5.39,5.39,0,0,1,1.493,3.98,5.394,5.394,0,0,1-1.5,3.991A5.173,5.173,0,0,1,78.5,21.2Zm-.011-1.547a3.243,3.243,0,0,0,2.5-1.085,4.065,4.065,0,0,0,.994-2.857,4.05,4.05,0,0,0-.994-2.847,3.243,3.243,0,0,0-2.5-1.085,3.2,3.2,0,0,0-2.476,1.085,4.077,4.077,0,0,0-.983,2.847,4.092,4.092,0,0,0,.983,2.857A3.2,3.2,0,0,0,78.493,19.657ZM6.875,35.236a3.673,3.673,0,0,1,2.659.956,3.566,3.566,0,0,1,.994,2.7V46H8.669V39.308a2.5,2.5,0,0,0-.645-1.891A2.3,2.3,0,0,0,6.37,36.8a2.555,2.555,0,0,0-1.88.725,2.942,2.942,0,0,0-.741,2.154V46H1.891V35.44H3.749v1.354A3.526,3.526,0,0,1,6.875,35.236ZM18.563,46.2a5.566,5.566,0,0,1-2.707-.655,4.771,4.771,0,0,1-1.907-1.917,5.89,5.89,0,0,1-.7-2.917,5.38,5.38,0,0,1,1.5-3.98,5.173,5.173,0,0,1,3.819-1.5,5.168,5.168,0,0,1,3.824,1.5,5.39,5.39,0,0,1,1.493,3.98,5.394,5.394,0,0,1-1.5,3.991A5.173,5.173,0,0,1,18.563,46.2Zm-.011-1.547a3.243,3.243,0,0,0,2.5-1.085,4.59,4.59,0,0,0,0-5.7,3.243,3.243,0,0,0-2.5-1.085,3.2,3.2,0,0,0-2.476,1.085,4.629,4.629,0,0,0,0,5.7A3.2,3.2,0,0,0,18.552,44.657Zm18.4,1.547a5.566,5.566,0,0,1-2.707-.655,4.771,4.771,0,0,1-1.907-1.917,5.89,5.89,0,0,1-.7-2.917,5.38,5.38,0,0,1,1.5-3.98,5.622,5.622,0,0,1,7.643,0,5.39,5.39,0,0,1,1.493,3.98,5.394,5.394,0,0,1-1.5,3.991A5.173,5.173,0,0,1,36.953,46.2Zm-.011-1.547a3.243,3.243,0,0,0,2.5-1.085,4.59,4.59,0,0,0,0-5.7,3.243,3.243,0,0,0-2.5-1.085,3.2,3.2,0,0,0-2.476,1.085,4.629,4.629,0,0,0,0,5.7A3.2,3.2,0,0,0,36.942,44.657Zm12.622,1.536a5.086,5.086,0,0,1-3.781-1.515,5.4,5.4,0,0,1-1.493-3.964,5.414,5.414,0,0,1,1.488-3.964,5.5,5.5,0,0,1,6.843-.591A4.662,4.662,0,0,1,54.4,38.728l-1.74.279a3.214,3.214,0,0,0-1.192-1.644,3.247,3.247,0,0,0-1.912-.58,3.122,3.122,0,0,0-2.444,1.085,4.687,4.687,0,0,0,0,5.688,3.129,3.129,0,0,0,2.444,1.08,3.247,3.247,0,0,0,1.912-.58,3.214,3.214,0,0,0,1.192-1.644l1.74.29a4.668,4.668,0,0,1-1.789,2.562A5.115,5.115,0,0,1,49.564,46.193ZM63.712,35.44H65.57V46H63.787l-.043-1.4a3.3,3.3,0,0,1-1.311,1.187,4.031,4.031,0,0,1-1.848.414,3.673,3.673,0,0,1-2.659-.956,3.566,3.566,0,0,1-.994-2.7V35.44h1.858v6.692a2.506,2.506,0,0,0,.65,1.891,2.3,2.3,0,0,0,1.66.623,2.527,2.527,0,0,0,1.875-.73,2.975,2.975,0,0,0,.736-2.159ZM69.352,46V29.5h1.88V46Zm9.034,0a2.776,2.776,0,0,1-2.062-.757,2.865,2.865,0,0,1-.752-2.111V36.923H73.412V35.44h.795a1.526,1.526,0,0,0,1.166-.371,1.824,1.824,0,0,0,.338-1.241V31.917H77.44V35.44h2.428v1.482H77.44v6.016a1.6,1.6,0,0,0,.4,1.166,1.411,1.411,0,0,0,1.058.414h.967V46Zm6.478.2a3.593,3.593,0,0,1-2.315-.725,2.6,2.6,0,0,1-.908-2.165,3.076,3.076,0,0,1,.29-1.38,2.434,2.434,0,0,1,.859-.961,5.155,5.155,0,0,1,1.241-.6A11.47,11.47,0,0,1,85.637,40l1.708-.279q.935-.172.935-.978a1.845,1.845,0,0,0-.661-1.574,2.692,2.692,0,0,0-1.67-.5,2.742,2.742,0,0,0-1.654.483,2.023,2.023,0,0,0-.784,1.482l-1.676-.354a3.225,3.225,0,0,1,1.321-2.261,4.937,4.937,0,0,1,2.879-.757,5.839,5.839,0,0,1,1.531.188,4.16,4.16,0,0,1,1.278.591,2.65,2.65,0,0,1,.913,1.139,4.237,4.237,0,0,1,.328,1.735v4.361a1.784,1.784,0,0,0,.242,1.1,1.043,1.043,0,0,0,.833.285h.172V46h-.924a1.762,1.762,0,0,1-2-1.429h-.086A4.035,4.035,0,0,1,84.863,46.2Zm.43-1.5A2.818,2.818,0,0,0,87.56,43.68a4.2,4.2,0,0,0,.859-2.793l-2.793.537a3.76,3.76,0,0,0-1.638.585,1.362,1.362,0,0,0-.532,1.155,1.346,1.346,0,0,0,.51,1.16A2.181,2.181,0,0,0,85.293,44.7Z" transform="translate(910 16576)" fill="#00223d"/>
    <path id="Trazado_36875" data-name="Trazado 36875" d="M0,0H252V68H0Z" transform="translate(1131 16605)" fill="#ff8f00"/>
    <path id="Trazado_36879" data-name="Trazado 36879" d="M10.484,7.626H4.34v4.952H9.754v1.729H4.34v4.941h6.145V21H2.374V5.875h8.11ZM17.026,21.2a5.006,5.006,0,0,1-2.847-.763,3.155,3.155,0,0,1-1.386-2.17l1.622-.462a2.262,2.262,0,0,0,.865,1.466,2.805,2.805,0,0,0,1.735.521,3.462,3.462,0,0,0,1.015-.14,1.627,1.627,0,0,0,.779-.521,1.453,1.453,0,0,0,.226-1.4,1.865,1.865,0,0,0-.172-.349,1.064,1.064,0,0,0-.3-.29,3.966,3.966,0,0,0-.365-.226,3.749,3.749,0,0,0-.478-.2q-.317-.113-.51-.172t-.591-.172q-.4-.113-.612-.177a11.454,11.454,0,0,1-1.1-.387,4.805,4.805,0,0,1-.892-.51,2.053,2.053,0,0,1-.693-.833,2.817,2.817,0,0,1-.231-1.182,2.731,2.731,0,0,1,.516-1.687,2.9,2.9,0,0,1,1.337-.994,5.346,5.346,0,0,1,1.875-.306,4.588,4.588,0,0,1,2.573.688,2.934,2.934,0,0,1,1.284,2.063l-1.525.387a2.022,2.022,0,0,0-.806-1.337,2.565,2.565,0,0,0-1.515-.446,2.614,2.614,0,0,0-1.418.371,1.246,1.246,0,0,0-.591,1.133,1.128,1.128,0,0,0,.156.585,1.859,1.859,0,0,0,.317.414,1.948,1.948,0,0,0,.58.317q.419.167.623.226t.773.2q.107.032.161.043.623.161,1.015.285a6.239,6.239,0,0,1,.913.387,3.036,3.036,0,0,1,.822.575,2.662,2.662,0,0,1,.516.816,2.882,2.882,0,0,1,.215,1.139,3.075,3.075,0,0,1-.317,1.423,2.479,2.479,0,0,1-.865.972,4.182,4.182,0,0,1-1.23.532A5.86,5.86,0,0,1,17.026,21.2ZM27.21,21a2.776,2.776,0,0,1-2.062-.757,2.865,2.865,0,0,1-.752-2.111V11.923H22.236V10.44h.795A1.526,1.526,0,0,0,24.2,10.07a1.824,1.824,0,0,0,.338-1.241V6.917h1.729V10.44h2.428v1.482H26.265v6.016a1.6,1.6,0,0,0,.4,1.166,1.411,1.411,0,0,0,1.058.414h.967V21Zm5.983-8.7A3.192,3.192,0,0,1,34.5,10.881a3.947,3.947,0,0,1,2.03-.559v1.751a3.479,3.479,0,0,0-2.455.784,3.276,3.276,0,0,0-.843,2.5V21H31.378V10.44h1.815Zm12.1-1.858h1.858V21H45.364l-.043-1.4a3.3,3.3,0,0,1-1.311,1.187,4.031,4.031,0,0,1-1.848.414,3.673,3.673,0,0,1-2.659-.956,3.566,3.566,0,0,1-.994-2.7V10.44h1.858v6.692a2.506,2.506,0,0,0,.65,1.891,2.3,2.3,0,0,0,1.66.623,2.527,2.527,0,0,0,1.875-.73,2.975,2.975,0,0,0,.736-2.159ZM55.312,21.193a5.086,5.086,0,0,1-3.781-1.515,5.4,5.4,0,0,1-1.493-3.964,5.414,5.414,0,0,1,1.488-3.964,5.5,5.5,0,0,1,6.843-.591,4.662,4.662,0,0,1,1.778,2.567l-1.74.279a3.214,3.214,0,0,0-1.192-1.644,3.247,3.247,0,0,0-1.912-.58,3.122,3.122,0,0,0-2.444,1.085,4.133,4.133,0,0,0-.961,2.847,4.113,4.113,0,0,0,.961,2.841,3.129,3.129,0,0,0,2.444,1.08,3.247,3.247,0,0,0,1.912-.58,3.214,3.214,0,0,0,1.192-1.644l1.74.29a4.668,4.668,0,0,1-1.789,2.562A5.115,5.115,0,0,1,55.312,21.193ZM66.258,21a2.776,2.776,0,0,1-2.062-.757,2.865,2.865,0,0,1-.752-2.111V11.923H61.284V10.44h.795a1.526,1.526,0,0,0,1.166-.371,1.824,1.824,0,0,0,.338-1.241V6.917h1.729V10.44H67.74v1.482H65.313v6.016a1.6,1.6,0,0,0,.4,1.166,1.411,1.411,0,0,0,1.058.414h.967V21ZM77,10.44h1.858V21H77.075l-.043-1.4a3.3,3.3,0,0,1-1.311,1.187,4.031,4.031,0,0,1-1.848.414,3.673,3.673,0,0,1-2.659-.956,3.566,3.566,0,0,1-.994-2.7V10.44H72.08v6.692a2.506,2.506,0,0,0,.65,1.891,2.3,2.3,0,0,0,1.66.623,2.527,2.527,0,0,0,1.875-.73A2.975,2.975,0,0,0,77,16.757ZM84.455,12.3a3.192,3.192,0,0,1,1.311-1.418,3.947,3.947,0,0,1,2.03-.559v1.751a3.479,3.479,0,0,0-2.455.784,3.276,3.276,0,0,0-.843,2.5V21H82.64V10.44h1.815ZM92.286,21.2a3.593,3.593,0,0,1-2.315-.725,2.6,2.6,0,0,1-.908-2.165,3.076,3.076,0,0,1,.29-1.38,2.434,2.434,0,0,1,.859-.961,5.155,5.155,0,0,1,1.241-.6A11.469,11.469,0,0,1,93.06,15l1.708-.279q.935-.172.935-.978a1.845,1.845,0,0,0-.661-1.574,2.692,2.692,0,0,0-1.67-.5,2.742,2.742,0,0,0-1.654.483,2.023,2.023,0,0,0-.784,1.482l-1.676-.354a3.225,3.225,0,0,1,1.321-2.261,4.937,4.937,0,0,1,2.879-.757,5.839,5.839,0,0,1,1.531.188,4.16,4.16,0,0,1,1.278.591,2.65,2.65,0,0,1,.913,1.139,4.237,4.237,0,0,1,.328,1.735v4.361a1.784,1.784,0,0,0,.242,1.1,1.043,1.043,0,0,0,.833.285h.172V21h-.924a1.762,1.762,0,0,1-2-1.429h-.086A4.035,4.035,0,0,1,92.286,21.2Zm.43-1.5a2.818,2.818,0,0,0,2.267-1.021,4.2,4.2,0,0,0,.859-2.793l-2.793.537a3.76,3.76,0,0,0-1.638.585,1.362,1.362,0,0,0-.532,1.155,1.346,1.346,0,0,0,.51,1.16A2.181,2.181,0,0,0,92.716,19.7ZM108.958,4.5h1.858V21h-1.794l-.043-2.052a3.885,3.885,0,0,1-1.5,1.665,4.191,4.191,0,0,1-2.234.612,4.8,4.8,0,0,1-3.486-1.488,5.085,5.085,0,0,1-1.063-1.746,6.386,6.386,0,0,1-.392-2.267,5.553,5.553,0,0,1,1.434-3.964,4.629,4.629,0,0,1,3.507-1.525,4.209,4.209,0,0,1,2.208.6,3.907,3.907,0,0,1,1.509,1.617Zm-3.33,15.114a3.162,3.162,0,0,0,2.455-1.112,4.013,4.013,0,0,0,.994-2.777,4.005,4.005,0,0,0-1-2.771,3.16,3.16,0,0,0-2.449-1.117,3.232,3.232,0,0,0-2.471,1.08,3.972,3.972,0,0,0-1,2.809,3.972,3.972,0,0,0,1,2.809A3.232,3.232,0,0,0,105.628,19.614Zm11.408,1.59a3.593,3.593,0,0,1-2.315-.725,2.6,2.6,0,0,1-.908-2.165,3.076,3.076,0,0,1,.29-1.38,2.434,2.434,0,0,1,.859-.961,5.155,5.155,0,0,1,1.241-.6A11.469,11.469,0,0,1,117.81,15l1.708-.279q.935-.172.935-.978a1.845,1.845,0,0,0-.661-1.574,2.692,2.692,0,0,0-1.67-.5,2.742,2.742,0,0,0-1.654.483,2.023,2.023,0,0,0-.784,1.482l-1.676-.354a3.225,3.225,0,0,1,1.321-2.261,4.937,4.937,0,0,1,2.879-.757,5.839,5.839,0,0,1,1.531.188,4.16,4.16,0,0,1,1.278.591,2.65,2.65,0,0,1,.913,1.139,4.237,4.237,0,0,1,.328,1.735v4.361a1.784,1.784,0,0,0,.242,1.1,1.043,1.043,0,0,0,.833.285h.172V21h-.924a1.762,1.762,0,0,1-2-1.429H120.5A4.035,4.035,0,0,1,117.036,21.2Zm.43-1.5a2.818,2.818,0,0,0,2.267-1.021,4.2,4.2,0,0,0,.859-2.793l-2.793.537a3.76,3.76,0,0,0-1.638.585,1.362,1.362,0,0,0-.532,1.155,1.346,1.346,0,0,0,.51,1.16A2.181,2.181,0,0,0,117.466,19.7Zm18.82,1.5a5.566,5.566,0,0,1-2.707-.655,4.771,4.771,0,0,1-1.907-1.917,5.89,5.89,0,0,1-.7-2.917,5.38,5.38,0,0,1,1.5-3.98,5.622,5.622,0,0,1,7.643,0,5.39,5.39,0,0,1,1.493,3.98,5.394,5.394,0,0,1-1.5,3.991A5.173,5.173,0,0,1,136.286,21.2Zm-.011-1.547a3.243,3.243,0,0,0,2.5-1.085,4.065,4.065,0,0,0,.994-2.857,4.05,4.05,0,0,0-.994-2.847,3.243,3.243,0,0,0-2.5-1.085,3.2,3.2,0,0,0-2.476,1.085,4.077,4.077,0,0,0-.983,2.847,4.092,4.092,0,0,0,.983,2.857A3.2,3.2,0,0,0,136.275,19.657Zm18.938-9.421a3.673,3.673,0,0,1,2.659.956,3.566,3.566,0,0,1,.994,2.7V21h-1.858V14.308a2.5,2.5,0,0,0-.645-1.891,2.3,2.3,0,0,0-1.654-.612,2.555,2.555,0,0,0-1.88.725,2.942,2.942,0,0,0-.741,2.154V21h-1.858V10.44h1.858v1.354A3.526,3.526,0,0,1,155.214,10.236ZM166.9,21.2a5.566,5.566,0,0,1-2.707-.655,4.771,4.771,0,0,1-1.907-1.917,5.89,5.89,0,0,1-.7-2.917,5.38,5.38,0,0,1,1.5-3.98,5.622,5.622,0,0,1,7.643,0,5.39,5.39,0,0,1,1.493,3.98,5.394,5.394,0,0,1-1.5,3.991A5.173,5.173,0,0,1,166.9,21.2Zm-.011-1.547a3.243,3.243,0,0,0,2.5-1.085,4.065,4.065,0,0,0,.994-2.857,4.05,4.05,0,0,0-.994-2.847,3.243,3.243,0,0,0-2.5-1.085,3.2,3.2,0,0,0-2.476,1.085,4.077,4.077,0,0,0-.983,2.847,4.092,4.092,0,0,0,.983,2.857A3.2,3.2,0,0,0,166.891,19.657ZM11.129,40.511l-.021.5H2.857a3.731,3.731,0,0,0,1.01,2.7,3.315,3.315,0,0,0,2.406.94,3.166,3.166,0,0,0,1.751-.5,3.276,3.276,0,0,0,1.2-1.4l1.676.354a4.763,4.763,0,0,1-1.8,2.267,4.924,4.924,0,0,1-2.8.827,5.1,5.1,0,0,1-3.8-1.472,5.475,5.475,0,0,1-1.45-4.018A5.448,5.448,0,0,1,2.5,36.708a5.038,5.038,0,0,1,3.744-1.472,4.767,4.767,0,0,1,3.55,1.354A5.348,5.348,0,0,1,11.129,40.511ZM6.241,36.665a3.293,3.293,0,0,0-2.2.747,3.42,3.42,0,0,0-1.112,2.175H9.26a3.138,3.138,0,0,0-.924-2.175A2.983,2.983,0,0,0,6.241,36.665ZM17.381,46.2a5.006,5.006,0,0,1-2.847-.763,3.155,3.155,0,0,1-1.386-2.17l1.622-.462a2.262,2.262,0,0,0,.865,1.466,2.805,2.805,0,0,0,1.735.521,3.462,3.462,0,0,0,1.015-.14,1.627,1.627,0,0,0,.779-.521,1.453,1.453,0,0,0,.226-1.4,1.865,1.865,0,0,0-.172-.349,1.064,1.064,0,0,0-.3-.29,3.967,3.967,0,0,0-.365-.226,3.749,3.749,0,0,0-.478-.2q-.317-.113-.51-.172t-.591-.172q-.4-.113-.612-.177a11.454,11.454,0,0,1-1.1-.387,4.805,4.805,0,0,1-.892-.51,2.053,2.053,0,0,1-.693-.833,2.817,2.817,0,0,1-.231-1.182,2.731,2.731,0,0,1,.516-1.687,2.9,2.9,0,0,1,1.337-.994,5.346,5.346,0,0,1,1.875-.306,4.588,4.588,0,0,1,2.573.688,2.934,2.934,0,0,1,1.284,2.063l-1.525.387a2.022,2.022,0,0,0-.806-1.337,2.565,2.565,0,0,0-1.515-.446,2.614,2.614,0,0,0-1.418.371,1.246,1.246,0,0,0-.591,1.133,1.128,1.128,0,0,0,.156.585,1.859,1.859,0,0,0,.317.414,1.948,1.948,0,0,0,.58.317q.419.167.623.226t.773.2q.107.032.161.043.623.161,1.015.285a6.239,6.239,0,0,1,.913.387,3.036,3.036,0,0,1,.822.575,2.662,2.662,0,0,1,.516.816A2.882,2.882,0,0,1,21.27,43.1a3.075,3.075,0,0,1-.317,1.423,2.479,2.479,0,0,1-.865.972,4.182,4.182,0,0,1-1.23.532A5.86,5.86,0,0,1,17.381,46.2ZM27.564,46a2.776,2.776,0,0,1-2.062-.757,2.865,2.865,0,0,1-.752-2.111V36.923H22.591V35.44h.795a1.526,1.526,0,0,0,1.166-.371,1.824,1.824,0,0,0,.338-1.241V31.917h1.729V35.44h2.428v1.482H26.619v6.016a1.6,1.6,0,0,0,.4,1.166,1.411,1.411,0,0,0,1.058.414h.967V46Zm5.983-8.7a3.192,3.192,0,0,1,1.311-1.418,3.947,3.947,0,0,1,2.03-.559v1.751a3.479,3.479,0,0,0-2.455.784,3.276,3.276,0,0,0-.843,2.5V46H31.732V35.44h1.815Zm12.1-1.858H47.5V46H45.719l-.043-1.4a3.3,3.3,0,0,1-1.311,1.187,4.031,4.031,0,0,1-1.848.414,3.673,3.673,0,0,1-2.659-.956,3.566,3.566,0,0,1-.994-2.7V35.44h1.858v6.692a2.506,2.506,0,0,0,.65,1.891,2.3,2.3,0,0,0,1.66.623,2.527,2.527,0,0,0,1.875-.73,2.975,2.975,0,0,0,.736-2.159ZM55.666,46.193a5.086,5.086,0,0,1-3.781-1.515,5.4,5.4,0,0,1-1.493-3.964,5.414,5.414,0,0,1,1.488-3.964,5.5,5.5,0,0,1,6.843-.591A4.662,4.662,0,0,1,60.5,38.728l-1.74.279a3.214,3.214,0,0,0-1.192-1.644,3.247,3.247,0,0,0-1.912-.58,3.122,3.122,0,0,0-2.444,1.085,4.687,4.687,0,0,0,0,5.688,3.129,3.129,0,0,0,2.444,1.08,3.247,3.247,0,0,0,1.912-.58,3.214,3.214,0,0,0,1.192-1.644l1.74.29a4.668,4.668,0,0,1-1.789,2.562A5.115,5.115,0,0,1,55.666,46.193ZM66.612,46a2.776,2.776,0,0,1-2.062-.757,2.865,2.865,0,0,1-.752-2.111V36.923H61.639V35.44h.795A1.526,1.526,0,0,0,63.6,35.07a1.824,1.824,0,0,0,.338-1.241V31.917h1.729V35.44h2.428v1.482H65.667v6.016a1.6,1.6,0,0,0,.4,1.166,1.411,1.411,0,0,0,1.058.414h.967V46ZM77.354,35.44h1.858V46H77.43l-.043-1.4a3.3,3.3,0,0,1-1.311,1.187,4.031,4.031,0,0,1-1.848.414,3.673,3.673,0,0,1-2.659-.956,3.566,3.566,0,0,1-.994-2.7V35.44h1.858v6.692a2.506,2.506,0,0,0,.65,1.891,2.3,2.3,0,0,0,1.66.623,2.527,2.527,0,0,0,1.875-.73,2.975,2.975,0,0,0,.736-2.159ZM84.81,37.3a3.192,3.192,0,0,1,1.311-1.418,3.947,3.947,0,0,1,2.03-.559v1.751a3.479,3.479,0,0,0-2.455.784,3.276,3.276,0,0,0-.843,2.5V46H82.994V35.44H84.81ZM92.641,46.2a3.593,3.593,0,0,1-2.315-.725,2.6,2.6,0,0,1-.908-2.165,3.076,3.076,0,0,1,.29-1.38,2.434,2.434,0,0,1,.859-.961,5.155,5.155,0,0,1,1.241-.6A11.47,11.47,0,0,1,93.414,40l1.708-.279q.935-.172.935-.978a1.845,1.845,0,0,0-.661-1.574,2.692,2.692,0,0,0-1.67-.5,2.742,2.742,0,0,0-1.654.483,2.023,2.023,0,0,0-.784,1.482l-1.676-.354a3.225,3.225,0,0,1,1.321-2.261,4.937,4.937,0,0,1,2.879-.757,5.839,5.839,0,0,1,1.531.188,4.16,4.16,0,0,1,1.278.591,2.65,2.65,0,0,1,.913,1.139,4.237,4.237,0,0,1,.328,1.735v4.361a1.784,1.784,0,0,0,.242,1.1,1.043,1.043,0,0,0,.833.285h.172V46h-.924a1.762,1.762,0,0,1-2-1.429H96.1A4.035,4.035,0,0,1,92.641,46.2Zm.43-1.5a2.818,2.818,0,0,0,2.267-1.021,4.2,4.2,0,0,0,.859-2.793l-2.793.537a3.76,3.76,0,0,0-1.638.585,1.362,1.362,0,0,0-.532,1.155,1.346,1.346,0,0,0,.51,1.16A2.181,2.181,0,0,0,93.07,44.7Zm16.242-15.2h1.858V46h-1.794l-.043-2.052a3.885,3.885,0,0,1-1.5,1.665,4.191,4.191,0,0,1-2.234.612,4.8,4.8,0,0,1-3.486-1.488,5.085,5.085,0,0,1-1.063-1.746,6.386,6.386,0,0,1-.392-2.267,5.553,5.553,0,0,1,1.434-3.964,4.629,4.629,0,0,1,3.507-1.525,4.209,4.209,0,0,1,2.208.6,3.907,3.907,0,0,1,1.509,1.617Zm-3.33,15.114a3.162,3.162,0,0,0,2.455-1.112,4.36,4.36,0,0,0-.005-5.548,3.16,3.16,0,0,0-2.449-1.117,3.232,3.232,0,0,0-2.471,1.08,4.449,4.449,0,0,0,0,5.618A3.232,3.232,0,0,0,105.982,44.614Zm11.408,1.59a3.593,3.593,0,0,1-2.315-.725,2.6,2.6,0,0,1-.908-2.165,3.076,3.076,0,0,1,.29-1.38,2.434,2.434,0,0,1,.859-.961,5.155,5.155,0,0,1,1.241-.6A11.47,11.47,0,0,1,118.164,40l1.708-.279q.935-.172.935-.978a1.845,1.845,0,0,0-.661-1.574,2.692,2.692,0,0,0-1.67-.5,2.742,2.742,0,0,0-1.654.483,2.023,2.023,0,0,0-.784,1.482l-1.676-.354a3.225,3.225,0,0,1,1.321-2.261,4.937,4.937,0,0,1,2.879-.757,5.839,5.839,0,0,1,1.531.188,4.16,4.16,0,0,1,1.278.591,2.65,2.65,0,0,1,.913,1.139,4.237,4.237,0,0,1,.328,1.735v4.361a1.784,1.784,0,0,0,.242,1.1,1.043,1.043,0,0,0,.833.285h.172V46h-.924a1.762,1.762,0,0,1-2-1.429h-.086A4.035,4.035,0,0,1,117.391,46.2Zm.43-1.5a2.818,2.818,0,0,0,2.267-1.021,4.2,4.2,0,0,0,.859-2.793l-2.793.537a3.76,3.76,0,0,0-1.638.585,1.362,1.362,0,0,0-.532,1.155,1.346,1.346,0,0,0,.51,1.16A2.181,2.181,0,0,0,117.82,44.7Z" transform="translate(1165 16610)" fill="#00223d"/>
    <path id="Trazado_36880" data-name="Trazado 36880" d="M0,0H168V68H0Z" transform="translate(613 16942)" fill="#ff8f00"/>
    <path id="Trazado_36881" data-name="Trazado 36881" d="M2.374,21V5.875H7.251a7.232,7.232,0,0,1,3.851.978,5.963,5.963,0,0,1,2.363,2.659,9.34,9.34,0,0,1,.768,3.916,9.906,9.906,0,0,1-.446,3.056,6.923,6.923,0,0,1-1.305,2.39,5.726,5.726,0,0,1-2.2,1.568A7.811,7.811,0,0,1,7.251,21ZM4.3,19.249h2.89A4.606,4.606,0,0,0,10.962,17.7a6.539,6.539,0,0,0,1.273-4.275,6.484,6.484,0,0,0-1.278-4.254A4.609,4.609,0,0,0,7.187,7.626H4.3ZM18.434,7.959A1.265,1.265,0,0,1,17.177,6.7a1.192,1.192,0,0,1,.371-.881,1.218,1.218,0,0,1,.886-.365,1.206,1.206,0,0,1,.875.365,1.192,1.192,0,0,1,.371.881,1.209,1.209,0,0,1-.371.886A1.2,1.2,0,0,1,18.434,7.959ZM17.488,21V10.44h1.869V21Zm7.466-8.7a3.192,3.192,0,0,1,1.311-1.418,3.947,3.947,0,0,1,2.03-.559v1.751a3.479,3.479,0,0,0-2.455.784A3.276,3.276,0,0,0,25,15.36V21H23.139V10.44h1.815Zm14.631,3.212-.021.5h-8.25a3.731,3.731,0,0,0,1.01,2.7,3.315,3.315,0,0,0,2.406.94,3.166,3.166,0,0,0,1.751-.5,3.276,3.276,0,0,0,1.2-1.4l1.676.354a4.763,4.763,0,0,1-1.8,2.267,4.924,4.924,0,0,1-2.8.827,5.1,5.1,0,0,1-3.8-1.472,5.475,5.475,0,0,1-1.45-4.018,5.448,5.448,0,0,1,1.456-4.007A5.038,5.038,0,0,1,34.7,10.236a4.767,4.767,0,0,1,3.55,1.354A5.348,5.348,0,0,1,39.585,15.511ZM34.7,11.665a3.293,3.293,0,0,0-2.2.747,3.42,3.42,0,0,0-1.112,2.175h6.327a3.138,3.138,0,0,0-.924-2.175A2.983,2.983,0,0,0,34.7,11.665Zm12.182,9.528A5.086,5.086,0,0,1,43.1,19.679,5.4,5.4,0,0,1,41.6,15.715a5.414,5.414,0,0,1,1.488-3.964,5.5,5.5,0,0,1,6.843-.591,4.662,4.662,0,0,1,1.778,2.567l-1.74.279a3.214,3.214,0,0,0-1.192-1.644,3.247,3.247,0,0,0-1.912-.58,3.122,3.122,0,0,0-2.444,1.085,4.133,4.133,0,0,0-.961,2.847,4.113,4.113,0,0,0,.961,2.841,3.129,3.129,0,0,0,2.444,1.08,3.247,3.247,0,0,0,1.912-.58,3.214,3.214,0,0,0,1.192-1.644l1.74.29a4.668,4.668,0,0,1-1.789,2.562A5.115,5.115,0,0,1,46.879,21.193ZM57.825,21a2.776,2.776,0,0,1-2.062-.757,2.865,2.865,0,0,1-.752-2.111V11.923H52.852V10.44h.795a1.526,1.526,0,0,0,1.166-.371,1.824,1.824,0,0,0,.338-1.241V6.917H56.88V10.44h2.428v1.482H56.88v6.016a1.6,1.6,0,0,0,.4,1.166,1.411,1.411,0,0,0,1.058.414h.967V21Zm6.478.2a3.593,3.593,0,0,1-2.315-.725,2.6,2.6,0,0,1-.908-2.165,3.076,3.076,0,0,1,.29-1.38,2.433,2.433,0,0,1,.859-.961,5.155,5.155,0,0,1,1.241-.6A11.469,11.469,0,0,1,65.076,15l1.708-.279q.935-.172.935-.978a1.845,1.845,0,0,0-.661-1.574,2.692,2.692,0,0,0-1.67-.5,2.742,2.742,0,0,0-1.654.483,2.023,2.023,0,0,0-.784,1.482l-1.676-.354a3.225,3.225,0,0,1,1.321-2.261,4.937,4.937,0,0,1,2.879-.757A5.839,5.839,0,0,1,67,10.446a4.16,4.16,0,0,1,1.278.591,2.65,2.65,0,0,1,.913,1.139,4.237,4.237,0,0,1,.328,1.735v4.361a1.784,1.784,0,0,0,.242,1.1,1.043,1.043,0,0,0,.833.285h.172V21h-.924a1.762,1.762,0,0,1-2-1.429h-.086A4.035,4.035,0,0,1,64.3,21.2Zm.43-1.5A2.818,2.818,0,0,0,67,18.68a4.2,4.2,0,0,0,.859-2.793l-2.793.537a3.76,3.76,0,0,0-1.638.585,1.362,1.362,0,0,0-.532,1.155,1.346,1.346,0,0,0,.51,1.16A2.181,2.181,0,0,0,64.732,19.7Zm18.82,1.5a5.566,5.566,0,0,1-2.707-.655,4.771,4.771,0,0,1-1.907-1.917,5.89,5.89,0,0,1-.7-2.917,5.38,5.38,0,0,1,1.5-3.98,5.622,5.622,0,0,1,7.643,0,5.39,5.39,0,0,1,1.493,3.98,5.394,5.394,0,0,1-1.5,3.991A5.173,5.173,0,0,1,83.553,21.2Zm-.011-1.547a3.243,3.243,0,0,0,2.5-1.085,4.065,4.065,0,0,0,.994-2.857,4.05,4.05,0,0,0-.994-2.847,3.243,3.243,0,0,0-2.5-1.085,3.2,3.2,0,0,0-2.476,1.085,4.077,4.077,0,0,0-.983,2.847,4.092,4.092,0,0,0,.983,2.857A3.2,3.2,0,0,0,83.542,19.657ZM6.875,35.236a3.673,3.673,0,0,1,2.659.956,3.566,3.566,0,0,1,.994,2.7V46H8.669V39.308a2.5,2.5,0,0,0-.645-1.891A2.3,2.3,0,0,0,6.37,36.8a2.555,2.555,0,0,0-1.88.725,2.942,2.942,0,0,0-.741,2.154V46H1.891V35.44H3.749v1.354A3.526,3.526,0,0,1,6.875,35.236ZM18.563,46.2a5.566,5.566,0,0,1-2.707-.655,4.771,4.771,0,0,1-1.907-1.917,5.89,5.89,0,0,1-.7-2.917,5.38,5.38,0,0,1,1.5-3.98,5.173,5.173,0,0,1,3.819-1.5,5.168,5.168,0,0,1,3.824,1.5,5.39,5.39,0,0,1,1.493,3.98,5.394,5.394,0,0,1-1.5,3.991A5.173,5.173,0,0,1,18.563,46.2Zm-.011-1.547a3.243,3.243,0,0,0,2.5-1.085,4.59,4.59,0,0,0,0-5.7,3.243,3.243,0,0,0-2.5-1.085,3.2,3.2,0,0,0-2.476,1.085,4.629,4.629,0,0,0,0,5.7A3.2,3.2,0,0,0,18.552,44.657ZM40.3,29.5h1.858V46H40.369l-.043-2.052a3.885,3.885,0,0,1-1.5,1.665,4.191,4.191,0,0,1-2.234.612A4.8,4.8,0,0,1,33.1,44.738a5.085,5.085,0,0,1-1.063-1.746,6.386,6.386,0,0,1-.392-2.267,5.553,5.553,0,0,1,1.434-3.964,4.629,4.629,0,0,1,3.507-1.525,4.209,4.209,0,0,1,2.208.6A3.908,3.908,0,0,1,40.3,37.449Zm-3.33,15.114A3.162,3.162,0,0,0,39.429,43.5a4.36,4.36,0,0,0-.005-5.548,3.16,3.16,0,0,0-2.449-1.117,3.232,3.232,0,0,0-2.471,1.08,4.449,4.449,0,0,0,0,5.618A3.232,3.232,0,0,0,36.975,44.614ZM46.89,32.959A1.265,1.265,0,0,1,45.633,31.7,1.192,1.192,0,0,1,46,30.821a1.218,1.218,0,0,1,.886-.365,1.206,1.206,0,0,1,.875.365,1.192,1.192,0,0,1,.371.881,1.209,1.209,0,0,1-.371.886A1.2,1.2,0,0,1,46.89,32.959ZM45.944,46V35.44h1.869V46Zm7.466-8.7a3.192,3.192,0,0,1,1.311-1.418,3.947,3.947,0,0,1,2.03-.559v1.751a3.479,3.479,0,0,0-2.455.784,3.276,3.276,0,0,0-.843,2.5V46H51.595V35.44H53.41Zm14.631,3.212-.021.5H59.77a3.731,3.731,0,0,0,1.01,2.7,3.315,3.315,0,0,0,2.406.94,3.166,3.166,0,0,0,1.751-.5,3.276,3.276,0,0,0,1.2-1.4l1.676.354a4.763,4.763,0,0,1-1.8,2.267,4.924,4.924,0,0,1-2.8.827,5.1,5.1,0,0,1-3.8-1.472,5.475,5.475,0,0,1-1.45-4.018,5.448,5.448,0,0,1,1.456-4.007,5.038,5.038,0,0,1,3.744-1.472A4.767,4.767,0,0,1,66.7,36.59,5.348,5.348,0,0,1,68.041,40.511Zm-4.888-3.846a3.293,3.293,0,0,0-2.2.747,3.42,3.42,0,0,0-1.112,2.175h6.327a3.138,3.138,0,0,0-.924-2.175A2.983,2.983,0,0,0,63.153,36.665Zm12.182,9.528a5.086,5.086,0,0,1-3.781-1.515,5.4,5.4,0,0,1-1.493-3.964,5.414,5.414,0,0,1,1.488-3.964,5.5,5.5,0,0,1,6.843-.591,4.662,4.662,0,0,1,1.778,2.567l-1.74.279a3.214,3.214,0,0,0-1.192-1.644,3.247,3.247,0,0,0-1.912-.58,3.122,3.122,0,0,0-2.444,1.085,4.687,4.687,0,0,0,0,5.688,3.129,3.129,0,0,0,2.444,1.08,3.247,3.247,0,0,0,1.912-.58,3.214,3.214,0,0,0,1.192-1.644l1.74.29a4.668,4.668,0,0,1-1.789,2.562A5.115,5.115,0,0,1,75.335,46.193ZM86.281,46a2.776,2.776,0,0,1-2.062-.757,2.865,2.865,0,0,1-.752-2.111V36.923H81.308V35.44H82.1a1.526,1.526,0,0,0,1.166-.371,1.824,1.824,0,0,0,.338-1.241V31.917h1.729V35.44h2.428v1.482H85.336v6.016a1.6,1.6,0,0,0,.4,1.166,1.411,1.411,0,0,0,1.058.414h.967V46Zm6.478.2a3.593,3.593,0,0,1-2.315-.725,2.6,2.6,0,0,1-.908-2.165,3.076,3.076,0,0,1,.29-1.38,2.434,2.434,0,0,1,.859-.961,5.155,5.155,0,0,1,1.241-.6A11.47,11.47,0,0,1,93.532,40l1.708-.279q.935-.172.935-.978a1.845,1.845,0,0,0-.661-1.574,2.692,2.692,0,0,0-1.67-.5,2.742,2.742,0,0,0-1.654.483,2.023,2.023,0,0,0-.784,1.482l-1.676-.354a3.225,3.225,0,0,1,1.321-2.261,4.937,4.937,0,0,1,2.879-.757,5.839,5.839,0,0,1,1.531.188,4.16,4.16,0,0,1,1.278.591,2.65,2.65,0,0,1,.913,1.139,4.237,4.237,0,0,1,.328,1.735v4.361a1.784,1.784,0,0,0,.242,1.1,1.043,1.043,0,0,0,.833.285h.172V46H98.3a1.762,1.762,0,0,1-2-1.429h-.086A4.035,4.035,0,0,1,92.759,46.2Zm.43-1.5a2.818,2.818,0,0,0,2.267-1.021,4.2,4.2,0,0,0,.859-2.793l-2.793.537a3.76,3.76,0,0,0-1.638.585,1.362,1.362,0,0,0-.532,1.155,1.346,1.346,0,0,0,.51,1.16A2.181,2.181,0,0,0,93.188,44.7Z" transform="translate(647 16947)" fill="#00223d"/>
    <path id="Trazado_36882" data-name="Trazado 36882" d="M0,0H168V68H0Z" transform="translate(1131 16942)" fill="#ff8f00"/>
    <path id="Trazado_36883" data-name="Trazado 36883" d="M11.967,5.875H13.89V21H11.967V14.286H4.308V21H2.374V5.875H4.308v6.682h7.659ZM24.729,10.44h1.858V21H24.8l-.043-1.4a3.3,3.3,0,0,1-1.311,1.187A4.031,4.031,0,0,1,21.6,21.2a3.673,3.673,0,0,1-2.659-.956,3.566,3.566,0,0,1-.994-2.7V10.44h1.858v6.692a2.506,2.506,0,0,0,.65,1.891,2.3,2.3,0,0,0,1.66.623,2.527,2.527,0,0,0,1.875-.73,2.975,2.975,0,0,0,.736-2.159Zm16.436-.2a3.4,3.4,0,0,1,2.46.9,3.327,3.327,0,0,1,.935,2.519V21H42.7V14.136a2.386,2.386,0,0,0-.58-1.74,1.975,1.975,0,0,0-1.472-.591,2.085,2.085,0,0,0-1.611.666,2.864,2.864,0,0,0-.612,2V21H36.534V14.211a2.5,2.5,0,0,0-.585-1.8,1.991,1.991,0,0,0-1.5-.607,2.066,2.066,0,0,0-1.606.682,2.963,2.963,0,0,0-.618,2.046V21H30.368V10.44h1.858V11.8a3.208,3.208,0,0,1,1.208-1.16,3.446,3.446,0,0,1,1.681-.408,3.587,3.587,0,0,1,1.8.446,2.775,2.775,0,0,1,1.171,1.284,3.286,3.286,0,0,1,1.268-1.284A3.626,3.626,0,0,1,41.164,10.236ZM50.6,21.2a3.593,3.593,0,0,1-2.315-.725,2.6,2.6,0,0,1-.908-2.165,3.076,3.076,0,0,1,.29-1.38,2.433,2.433,0,0,1,.859-.961,5.155,5.155,0,0,1,1.241-.6A11.469,11.469,0,0,1,51.369,15l1.708-.279q.935-.172.935-.978a1.845,1.845,0,0,0-.661-1.574,2.692,2.692,0,0,0-1.67-.5,2.742,2.742,0,0,0-1.654.483,2.023,2.023,0,0,0-.784,1.482l-1.676-.354a3.225,3.225,0,0,1,1.321-2.261,4.937,4.937,0,0,1,2.879-.757,5.839,5.839,0,0,1,1.531.188,4.16,4.16,0,0,1,1.278.591,2.65,2.65,0,0,1,.913,1.139,4.237,4.237,0,0,1,.328,1.735v4.361a1.784,1.784,0,0,0,.242,1.1,1.043,1.043,0,0,0,.833.285h.172V21h-.924a1.762,1.762,0,0,1-2-1.429h-.086A4.035,4.035,0,0,1,50.6,21.2Zm.43-1.5a2.818,2.818,0,0,0,2.267-1.021,4.2,4.2,0,0,0,.859-2.793l-2.793.537a3.76,3.76,0,0,0-1.638.585,1.362,1.362,0,0,0-.532,1.155,1.346,1.346,0,0,0,.51,1.16A2.181,2.181,0,0,0,51.025,19.7Zm13.643-9.464a3.673,3.673,0,0,1,2.659.956,3.566,3.566,0,0,1,.994,2.7V21H66.462V14.308a2.5,2.5,0,0,0-.645-1.891,2.3,2.3,0,0,0-1.654-.612,2.555,2.555,0,0,0-1.88.725,2.942,2.942,0,0,0-.741,2.154V21H59.684V10.44h1.858v1.354A3.526,3.526,0,0,1,64.668,10.236ZM74.347,21.2a3.593,3.593,0,0,1-2.315-.725,2.6,2.6,0,0,1-.908-2.165,3.076,3.076,0,0,1,.29-1.38,2.434,2.434,0,0,1,.859-.961,5.155,5.155,0,0,1,1.241-.6A11.469,11.469,0,0,1,75.12,15l1.708-.279q.935-.172.935-.978a1.845,1.845,0,0,0-.661-1.574,2.692,2.692,0,0,0-1.67-.5,2.742,2.742,0,0,0-1.654.483,2.023,2.023,0,0,0-.784,1.482l-1.676-.354a3.225,3.225,0,0,1,1.321-2.261,4.937,4.937,0,0,1,2.879-.757,5.839,5.839,0,0,1,1.531.188,4.16,4.16,0,0,1,1.278.591,2.65,2.65,0,0,1,.913,1.139,4.237,4.237,0,0,1,.328,1.735v4.361a1.784,1.784,0,0,0,.242,1.1,1.043,1.043,0,0,0,.833.285h.172V21H79.89a1.762,1.762,0,0,1-2-1.429h-.086A4.035,4.035,0,0,1,74.347,21.2Zm.43-1.5a2.818,2.818,0,0,0,2.267-1.021,4.2,4.2,0,0,0,.859-2.793l-2.793.537a3.76,3.76,0,0,0-1.638.585,1.362,1.362,0,0,0-.532,1.155,1.346,1.346,0,0,0,.51,1.16A2.181,2.181,0,0,0,74.776,19.7ZM93.6,21.2a5.566,5.566,0,0,1-2.707-.655,4.771,4.771,0,0,1-1.907-1.917,5.89,5.89,0,0,1-.7-2.917,5.38,5.38,0,0,1,1.5-3.98,5.622,5.622,0,0,1,7.643,0,5.39,5.39,0,0,1,1.493,3.98,5.394,5.394,0,0,1-1.5,3.991A5.173,5.173,0,0,1,93.6,21.2Zm-.011-1.547a3.243,3.243,0,0,0,2.5-1.085,4.065,4.065,0,0,0,.994-2.857,4.05,4.05,0,0,0-.994-2.847,3.243,3.243,0,0,0-2.5-1.085,3.2,3.2,0,0,0-2.476,1.085,4.077,4.077,0,0,0-.983,2.847,4.092,4.092,0,0,0,.983,2.857A3.2,3.2,0,0,0,93.586,19.657Zm-80.9,15.579a3.4,3.4,0,0,1,2.46.9,3.327,3.327,0,0,1,.935,2.519V46H14.223V39.136a2.386,2.386,0,0,0-.58-1.74,1.975,1.975,0,0,0-1.472-.591,2.085,2.085,0,0,0-1.611.666,2.864,2.864,0,0,0-.612,2V46H8.057V39.211a2.5,2.5,0,0,0-.585-1.8,1.991,1.991,0,0,0-1.5-.607,2.066,2.066,0,0,0-1.606.682,2.963,2.963,0,0,0-.618,2.046V46H1.891V35.44H3.749V36.8a3.208,3.208,0,0,1,1.208-1.16,3.446,3.446,0,0,1,1.681-.408,3.587,3.587,0,0,1,1.8.446,2.775,2.775,0,0,1,1.171,1.284,3.286,3.286,0,0,1,1.268-1.284A3.626,3.626,0,0,1,12.687,35.236Zm16.231,5.274-.021.5h-8.25a3.731,3.731,0,0,0,1.01,2.7,3.315,3.315,0,0,0,2.406.94,3.166,3.166,0,0,0,1.751-.5,3.276,3.276,0,0,0,1.2-1.4l1.676.354a4.763,4.763,0,0,1-1.8,2.267,4.924,4.924,0,0,1-2.8.827,5.1,5.1,0,0,1-3.8-1.472,5.475,5.475,0,0,1-1.45-4.018,5.448,5.448,0,0,1,1.456-4.007,5.038,5.038,0,0,1,3.744-1.472,4.767,4.767,0,0,1,3.55,1.354A5.348,5.348,0,0,1,28.918,40.511ZM24.03,36.665a3.293,3.293,0,0,0-2.2.747,3.42,3.42,0,0,0-1.112,2.175h6.327a3.138,3.138,0,0,0-.924-2.175A2.983,2.983,0,0,0,24.03,36.665Zm12.182,9.528a5.086,5.086,0,0,1-3.781-1.515,5.4,5.4,0,0,1-1.493-3.964,5.414,5.414,0,0,1,1.488-3.964,5.5,5.5,0,0,1,6.843-.591,4.662,4.662,0,0,1,1.778,2.567l-1.74.279a3.214,3.214,0,0,0-1.192-1.644,3.247,3.247,0,0,0-1.912-.58,3.122,3.122,0,0,0-2.444,1.085,4.687,4.687,0,0,0,0,5.688,3.129,3.129,0,0,0,2.444,1.08,3.247,3.247,0,0,0,1.912-.58,3.214,3.214,0,0,0,1.192-1.644l1.74.29a4.668,4.668,0,0,1-1.789,2.562A5.115,5.115,0,0,1,36.212,46.193ZM46.986,33.614l2.7-3.5.988.72-2.406,2.782ZM46.224,46.2a3.593,3.593,0,0,1-2.315-.725A2.6,2.6,0,0,1,43,43.314a3.076,3.076,0,0,1,.29-1.38,2.433,2.433,0,0,1,.859-.961,5.155,5.155,0,0,1,1.241-.6A11.469,11.469,0,0,1,47,40l1.708-.279q.935-.172.935-.978a1.845,1.845,0,0,0-.661-1.574,2.692,2.692,0,0,0-1.67-.5,2.742,2.742,0,0,0-1.654.483,2.023,2.023,0,0,0-.784,1.482l-1.676-.354a3.225,3.225,0,0,1,1.321-2.261,4.937,4.937,0,0,1,2.879-.757,5.839,5.839,0,0,1,1.531.188,4.16,4.16,0,0,1,1.278.591,2.65,2.65,0,0,1,.913,1.139,4.237,4.237,0,0,1,.328,1.735v4.361a1.784,1.784,0,0,0,.242,1.1,1.043,1.043,0,0,0,.833.285h.172V46h-.924a1.762,1.762,0,0,1-2-1.429h-.086A4.035,4.035,0,0,1,46.224,46.2Zm.43-1.5A2.818,2.818,0,0,0,48.92,43.68a4.2,4.2,0,0,0,.859-2.793l-2.793.537a3.76,3.76,0,0,0-1.638.585,1.362,1.362,0,0,0-.532,1.155,1.346,1.346,0,0,0,.51,1.16A2.181,2.181,0,0,0,46.653,44.7ZM60.3,35.236a3.673,3.673,0,0,1,2.659.956,3.566,3.566,0,0,1,.994,2.7V46H62.09V39.308a2.5,2.5,0,0,0-.645-1.891,2.3,2.3,0,0,0-1.654-.612,2.555,2.555,0,0,0-1.88.725,2.942,2.942,0,0,0-.741,2.154V46H55.312V35.44H57.17v1.354A3.526,3.526,0,0,1,60.3,35.236Zm8.186-2.277A1.265,1.265,0,0,1,67.225,31.7a1.192,1.192,0,0,1,.371-.881,1.218,1.218,0,0,1,.886-.365,1.206,1.206,0,0,1,.875.365,1.192,1.192,0,0,1,.371.881,1.209,1.209,0,0,1-.371.886A1.2,1.2,0,0,1,68.481,32.959ZM67.536,46V35.44h1.869V46Zm10.033.193a5.086,5.086,0,0,1-3.781-1.515,5.4,5.4,0,0,1-1.493-3.964,5.414,5.414,0,0,1,1.488-3.964,5.5,5.5,0,0,1,6.843-.591A4.662,4.662,0,0,1,82.4,38.728l-1.74.279a3.214,3.214,0,0,0-1.192-1.644,3.247,3.247,0,0,0-1.912-.58,3.122,3.122,0,0,0-2.444,1.085,4.687,4.687,0,0,0,0,5.688,3.129,3.129,0,0,0,2.444,1.08,3.247,3.247,0,0,0,1.912-.58,3.214,3.214,0,0,0,1.192-1.644l1.74.29a4.668,4.668,0,0,1-1.789,2.562A5.115,5.115,0,0,1,77.569,46.193Zm10.012.011a3.593,3.593,0,0,1-2.315-.725,2.6,2.6,0,0,1-.908-2.165,3.076,3.076,0,0,1,.29-1.38,2.434,2.434,0,0,1,.859-.961,5.155,5.155,0,0,1,1.241-.6A11.47,11.47,0,0,1,88.354,40l1.708-.279q.935-.172.935-.978a1.845,1.845,0,0,0-.661-1.574,2.692,2.692,0,0,0-1.67-.5,2.742,2.742,0,0,0-1.654.483,2.023,2.023,0,0,0-.784,1.482l-1.676-.354a3.225,3.225,0,0,1,1.321-2.261,4.937,4.937,0,0,1,2.879-.757,5.839,5.839,0,0,1,1.531.188,4.16,4.16,0,0,1,1.278.591,2.65,2.65,0,0,1,.913,1.139A4.237,4.237,0,0,1,92.8,38.91v4.361a1.784,1.784,0,0,0,.242,1.1,1.043,1.043,0,0,0,.833.285h.172V46h-.924a1.762,1.762,0,0,1-2-1.429H91.04A4.035,4.035,0,0,1,87.581,46.2Zm.43-1.5a2.818,2.818,0,0,0,2.267-1.021,4.2,4.2,0,0,0,.859-2.793l-2.793.537a3.76,3.76,0,0,0-1.638.585,1.362,1.362,0,0,0-.532,1.155,1.346,1.346,0,0,0,.51,1.16A2.181,2.181,0,0,0,88.011,44.7Z" transform="translate(1165 16947)" fill="#00223d"/>
    <path id="Trazado_36264" data-name="Trazado 36264" d="M2334,15381.566v56.352" transform="translate(-1374 1263)" fill="none" stroke="#472ea6" stroke-width="2"/>
    <path id="Trazado_36872" data-name="Trazado 36872" d="M13,0,26,23H0Z" transform="translate(973 16710) rotate(180)" fill="#472ea6"/>
  </g>
</svg>
