<svg id="Grupo_17454" data-name="Grupo 17454" xmlns="http://www.w3.org/2000/svg" xmlns:xlink="http://www.w3.org/1999/xlink" width="114.62" height="99.629" viewBox="0 0 114.62 99.629">
  <defs>
    <clipPath id="clip-path">
      <rect id="Rectángulo_4410" data-name="Rectángulo 4410" width="114.62" height="99.629" fill="none"/>
    </clipPath>
  </defs>
  <g id="Grupo_17453" data-name="Grupo 17453" clip-path="url(#clip-path)">
    <path id="Trazado_35981" data-name="Trazado 35981" d="M110.045,400.358c0,1.517-16.429,2.747-36.7,2.747s-36.7-1.23-36.7-2.747,16.429-2.747,36.7-2.747,36.7,1.23,36.7,2.747" transform="translate(-27.977 -303.476)" fill="#7eb9c7"/>
    <path id="Trazado_35982" data-name="Trazado 35982" d="M127.98,135.866a5.084,5.084,0,0,1-5.22,4.935H41.874a5.084,5.084,0,0,1-5.22-4.935V88.993a5.084,5.084,0,0,1,5.22-4.935H122.76a5.084,5.084,0,0,1,5.22,4.935Z" transform="translate(-27.976 -64.157)" fill="#c7ddeb"/>
    <path id="Trazado_35983" data-name="Trazado 35983" d="M89.81,108.892H0V49.4H89.81ZM2.677,106.215H87.133V52.081H2.677Z" transform="translate(0 -37.708)" fill="#3d4451"/>
    <path id="Trazado_35984" data-name="Trazado 35984" d="M211.346,37.5a31.593,31.593,0,1,1,31.592,31.593A31.593,31.593,0,0,1,211.346,37.5" transform="translate(-161.31 -4.509)" fill="#f5fafc"/>
    <path id="Trazado_35985" data-name="Trazado 35985" d="M233.654,54.043c0-15.283,12.631-27.672,28.213-27.672S290.08,38.76,290.08,54.043s-12.631,27.672-28.213,27.672-28.213-12.389-28.213-27.672" transform="translate(-178.337 -20.128)" fill="#7eb9c7"/>
    <path id="Trazado_35986" data-name="Trazado 35986" d="M238.43,65.983a32.991,32.991,0,1,1,32.991-32.991A33.029,33.029,0,0,1,238.43,65.983m0-63.186a30.194,30.194,0,1,0,30.195,30.194A30.229,30.229,0,0,0,238.43,2.8" transform="translate(-156.802)" fill="#3d4451"/>
    <path id="Trazado_35987" data-name="Trazado 35987" d="M351.1,11.038l-9.446,30.309,31.724-2.6s-1.941-21.554-22.278-27.7" transform="translate(-260.768 -8.425)" fill="#f04f4c"/>
    <path id="Trazado_35988" data-name="Trazado 35988" d="M334.675,37.922l10.318-33.1,1.123.34A31.617,31.617,0,0,1,365.6,21.926a37.4,37.4,0,0,1,3.629,11.962l.107,1.188ZM346.548,7.783,337.98,35.275l28.725-2.358A37.188,37.188,0,0,0,363.44,22.9,28.8,28.8,0,0,0,346.548,7.783" transform="translate(-255.441 -3.677)" fill="#3d4451"/>
    <path id="Trazado_35989" data-name="Trazado 35989" d="M340.154,133.034l30.026,12.19a26.656,26.656,0,0,0,2.664-14.834" transform="translate(-259.623 -99.52)" fill="#fdc345"/>
    <path id="Trazado_35990" data-name="Trazado 35990" d="M365.711,142.56l-32.071-13.02.89-2.194,30.107,12.223a26.844,26.844,0,0,0,2.056-13.217l-.107-1.179,2.358-.214.107,1.179a27.665,27.665,0,0,1-2.822,15.54Z" transform="translate(-254.651 -95.374)" fill="#3d4451"/>
    <path id="Trazado_35991" data-name="Trazado 35991" d="M83.539,128.871a10.561,10.561,0,1,0-10-9.992,10.562,10.562,0,0,0,10,9.992" transform="translate(-56.116 -82.25)" fill="#3d4451"/>
    <path id="Trazado_35992" data-name="Trazado 35992" d="M37.722,205.292l-4.483,11.057a4.336,4.336,0,0,1-5.487,2.42,4.57,4.57,0,0,1-2.636-2.536c-.533-1.286,0-2.737.394-4l4.316-13.746c1.218-3.878,2.5-8.327,5.467-11.278a15.066,15.066,0,0,1,10.4-4.738c1.678,0,8.45-.022,12.258.216,0,0,19.976-5.108,21.154-5.3a5.035,5.035,0,0,1,3.463.542,3.1,3.1,0,0,1,1.412,1.906,4.163,4.163,0,0,1-1.029,3.7c-1.775,1.956-4.692,2.721-7.082,3.608L67.363,190.3c-1.717.637-3.432,1.019-4.652,2.465a10.394,10.394,0,0,0-1.982,4.054,28.814,28.814,0,0,0-.721,5.816c-.339,6.113-.843,12.245-.84,18.362,0,2.91.093,5.819.094,8.728a4.46,4.46,0,0,1-3.742,4.439,4.414,4.414,0,0,1-5.064-4.354V214.574H46.409v14.661a4.465,4.465,0,0,1-3.729,4.448A4.414,4.414,0,0,1,37.6,229.33V205.292" transform="translate(-18.998 -135.318)" fill="#3d4451"/>
    <path id="Trazado_35993" data-name="Trazado 35993" d="M110.318,210.316h5.736l-2.065,3.442,1.606,9.867-2.524,3.9-2.753-3.9,1.836-9.867Z" transform="translate(-84.2 -160.524)" fill="#f04f4c"/>
    <path id="Trazado_35994" data-name="Trazado 35994" d="M255.27,135.6l25.8-18.694a1.259,1.259,0,0,0-1.387-2.1l-27.165,16.3" transform="translate(-192.732 -87.486)" fill="#3d4451"/>
  </g>
</svg>
