<svg xmlns="http://www.w3.org/2000/svg" width="695" height="338" viewBox="0 0 695 338">
  <g id="Grupo_17683" data-name="Grupo 17683" transform="translate(-590 -14175)">
    <g id="Elipse_942" data-name="Elipse 942" transform="translate(828 14212)" fill="#472ea6" stroke="#707070" stroke-width="1">
      <circle cx="110.5" cy="110.5" r="110.5" stroke="none"/>
      <circle cx="110.5" cy="110.5" r="110" fill="none"/>
    </g>
    <path id="Trazado_36900" data-name="Trazado 36900" d="M13.385-13.03H5.006v3.362H12.7v2.75H5.006v4.071h8.766V0h-12V-15.834H13.385Zm9.206,1.042a4.52,4.52,0,0,1,2.97.951,3.866,3.866,0,0,1,1.155,3.153V0H23.579V-7.122a3.25,3.25,0,0,0-.247-1.418,1.738,1.738,0,0,0-1.719-.9,2.132,2.132,0,0,0-2.138,1.321,4.538,4.538,0,0,0-.3,1.783V0H16.124V-11.687h2.954v1.708a5.2,5.2,0,0,1,1.117-1.3A3.883,3.883,0,0,1,22.591-11.988ZM36.534-7.509a2.717,2.717,0,0,0-.44-1.182,1.847,1.847,0,0,0-1.6-.709,2.108,2.108,0,0,0-2.116,1.536,6.423,6.423,0,0,0-.3,2.17,5.905,5.905,0,0,0,.3,2.073,2.043,2.043,0,0,0,2.063,1.461,1.819,1.819,0,0,0,1.525-.58,2.887,2.887,0,0,0,.548-1.5h3.126A5.122,5.122,0,0,1,38.629-1.6,4.908,4.908,0,0,1,34.364.408a4.989,4.989,0,0,1-4.157-1.676,6.781,6.781,0,0,1-1.332-4.351,6.881,6.881,0,0,1,1.472-4.694,5.123,5.123,0,0,1,4.061-1.676,6.114,6.114,0,0,1,3.6.988,4.6,4.6,0,0,1,1.66,3.491Zm8.293-4.2v7.058a3.694,3.694,0,0,0,.236,1.5,1.636,1.636,0,0,0,1.644.892,2.148,2.148,0,0,0,2.148-1.268,4.589,4.589,0,0,0,.3-1.815v-6.37h3.1V0H49.285V-1.654q-.043.054-.215.322a2.157,2.157,0,0,1-.408.473,4.263,4.263,0,0,1-1.391.881A4.741,4.741,0,0,1,45.7.258a3.508,3.508,0,0,1-3.5-1.869,7.152,7.152,0,0,1-.5-3.04v-7.058ZM59.834-9.5a2.079,2.079,0,0,0-1.649.666,3.324,3.324,0,0,0-.736,1.8h4.759a2.665,2.665,0,0,0-.736-1.842A2.285,2.285,0,0,0,59.834-9.5Zm0-2.524a6.136,6.136,0,0,1,2.632.548A4.61,4.61,0,0,1,64.4-9.743a5.9,5.9,0,0,1,.892,2.417,15.61,15.61,0,0,1,.1,2.32H57.374A2.91,2.91,0,0,0,58.48-2.535a2.606,2.606,0,0,0,1.525.44,2.2,2.2,0,0,0,1.536-.537,2.551,2.551,0,0,0,.569-.806h3.126a3.884,3.884,0,0,1-1.085,2.116A5.316,5.316,0,0,1,59.941.387,5.938,5.938,0,0,1,56-1.053q-1.708-1.439-1.708-4.684A6.51,6.51,0,0,1,55.833-10.4,5.271,5.271,0,0,1,59.834-12.021Zm10,8.282a2.044,2.044,0,0,0,.419,1.16,2.832,2.832,0,0,0,2.105.612,3.209,3.209,0,0,0,1.434-.269.861.861,0,0,0,.532-.806.869.869,0,0,0-.43-.784,17.48,17.48,0,0,0-3.19-.924,6.645,6.645,0,0,1-2.8-1.235,2.678,2.678,0,0,1-.816-2.105,3.652,3.652,0,0,1,1.273-2.788,5.113,5.113,0,0,1,3.583-1.166,6.573,6.573,0,0,1,3.572.875A3.75,3.75,0,0,1,77.1-8.143H74.035a1.811,1.811,0,0,0-.333-.935A2.1,2.1,0,0,0,71.983-9.7a2.47,2.47,0,0,0-1.423.312.9.9,0,0,0-.424.73.8.8,0,0,0,.451.763,19.531,19.531,0,0,0,3.19.849,5.86,5.86,0,0,1,2.739,1.3,2.951,2.951,0,0,1,.9,2.2A3.558,3.558,0,0,1,76.125-.7a6.081,6.081,0,0,1-4,1.1A6.024,6.024,0,0,1,68.046-.768a3.792,3.792,0,0,1-1.316-2.97Zm8.647-5.683V-11.6h1.633v-3.266h3.029V-11.6h1.9v2.181h-1.9v6.188a1.394,1.394,0,0,0,.183.9,2.011,2.011,0,0,0,1.117.177q.14,0,.3-.005t.306-.016V.107L83.6.161a3.892,3.892,0,0,1-2.965-.752,2.239,2.239,0,0,1-.516-1.622V-9.421ZM93.468-5.693a3.327,3.327,0,0,1-.585.3,4.9,4.9,0,0,1-.811.209l-.687.129A4.439,4.439,0,0,0,90-4.641a1.4,1.4,0,0,0-.709,1.3,1.369,1.369,0,0,0,.435,1.133,1.637,1.637,0,0,0,1.058.349,3.118,3.118,0,0,0,1.821-.58,2.474,2.474,0,0,0,.865-2.116ZM91.609-7.122a4.779,4.779,0,0,0,1.214-.269.92.92,0,0,0,.655-.87,1.032,1.032,0,0,0-.5-.994,3.12,3.12,0,0,0-1.466-.274,1.91,1.91,0,0,0-1.536.537,2.232,2.232,0,0,0-.43,1.074H86.593a4.493,4.493,0,0,1,.859-2.524q1.214-1.547,4.168-1.547a7.405,7.405,0,0,1,3.416.763,2.928,2.928,0,0,1,1.493,2.879v5.371q0,.559.021,1.354a1.7,1.7,0,0,0,.183.816,1.1,1.1,0,0,0,.451.354V0h-3.33a3.41,3.41,0,0,1-.193-.666q-.054-.312-.086-.709A6.29,6.29,0,0,1,92.114-.2,4.394,4.394,0,0,1,89.88.365a3.842,3.842,0,0,1-2.626-.908,3.238,3.238,0,0,1-1.037-2.573,3.339,3.339,0,0,1,1.665-3.126,7.393,7.393,0,0,1,2.686-.752Z" transform="translate(891 14330)" fill="#fff"/>
    <rect id="Rectángulo_4473" data-name="Rectángulo 4473" width="168" height="68" transform="translate(590 14175)" fill="#ff8f00"/>
    <path id="Trazado_36901" data-name="Trazado 36901" d="M10.592-10.8a2.143,2.143,0,0,0-.65-1.762,2.82,2.82,0,0,0-1.821-.526H5.038v4.662H8.121a2.673,2.673,0,0,0,1.821-.569A2.28,2.28,0,0,0,10.592-10.8Zm3.276-.021q0,2.8-1.418,3.964A6.244,6.244,0,0,1,8.4-5.693H5.038V0H1.751V-15.834h6.9a5.617,5.617,0,0,1,3.8,1.225A4.745,4.745,0,0,1,13.868-10.817ZM20.722-9.5a2.079,2.079,0,0,0-1.649.666,3.324,3.324,0,0,0-.736,1.8H23.1a2.665,2.665,0,0,0-.736-1.842A2.285,2.285,0,0,0,20.722-9.5Zm0-2.524a6.136,6.136,0,0,1,2.632.548,4.61,4.61,0,0,1,1.934,1.729,5.9,5.9,0,0,1,.892,2.417,15.609,15.609,0,0,1,.1,2.32H18.262a2.91,2.91,0,0,0,1.106,2.471,2.606,2.606,0,0,0,1.525.44,2.2,2.2,0,0,0,1.536-.537A2.551,2.551,0,0,0,23-3.437h3.126A3.884,3.884,0,0,1,25.04-1.321,5.316,5.316,0,0,1,20.829.387a5.938,5.938,0,0,1-3.942-1.439q-1.708-1.439-1.708-4.684A6.51,6.51,0,0,1,16.72-10.4,5.271,5.271,0,0,1,20.722-12.021Zm13.976.032q.086,0,.145.005t.263.016V-8.83q-.29-.032-.516-.043t-.365-.011a2.539,2.539,0,0,0-2.481,1.2A4.68,4.68,0,0,0,31.389-5.6V0H28.306V-11.709h2.922v2.041a6.473,6.473,0,0,1,1.235-1.6A3.363,3.363,0,0,1,34.7-11.988Zm4.587,8.25a2.044,2.044,0,0,0,.419,1.16,2.832,2.832,0,0,0,2.105.612,3.209,3.209,0,0,0,1.434-.269.861.861,0,0,0,.532-.806.869.869,0,0,0-.43-.784,17.48,17.48,0,0,0-3.19-.924,6.645,6.645,0,0,1-2.8-1.235,2.678,2.678,0,0,1-.816-2.105,3.652,3.652,0,0,1,1.273-2.788,5.113,5.113,0,0,1,3.583-1.166,6.573,6.573,0,0,1,3.572.875,3.75,3.75,0,0,1,1.584,3.024H43.484a1.811,1.811,0,0,0-.333-.935A2.1,2.1,0,0,0,41.433-9.7a2.47,2.47,0,0,0-1.423.312.9.9,0,0,0-.424.73.8.8,0,0,0,.451.763,19.531,19.531,0,0,0,3.19.849,5.86,5.86,0,0,1,2.739,1.3,2.951,2.951,0,0,1,.9,2.2A3.558,3.558,0,0,1,45.574-.7a6.081,6.081,0,0,1-4,1.1A6.024,6.024,0,0,1,37.5-.768a3.792,3.792,0,0,1-1.316-2.97Zm15.1,1.579a2.426,2.426,0,0,0,2.063-.956,4.448,4.448,0,0,0,.72-2.718,4.423,4.423,0,0,0-.72-2.712A2.432,2.432,0,0,0,54.388-9.5a2.446,2.446,0,0,0-2.068.951,4.4,4.4,0,0,0-.725,2.712,4.423,4.423,0,0,0,.725,2.718A2.441,2.441,0,0,0,54.388-2.159Zm5.994-3.674A6.788,6.788,0,0,1,58.9-1.423,5.447,5.447,0,0,1,54.4.408a5.447,5.447,0,0,1-4.5-1.832,6.788,6.788,0,0,1-1.482-4.41A6.833,6.833,0,0,1,49.9-10.227a5.409,5.409,0,0,1,4.5-1.858,5.409,5.409,0,0,1,4.5,1.858A6.833,6.833,0,0,1,60.382-5.833Zm8.68-6.155a4.52,4.52,0,0,1,2.97.951,3.866,3.866,0,0,1,1.155,3.153V0H70.05V-7.122A3.25,3.25,0,0,0,69.8-8.54a1.738,1.738,0,0,0-1.719-.9,2.132,2.132,0,0,0-2.138,1.321,4.538,4.538,0,0,0-.3,1.783V0H62.595V-11.687h2.954v1.708a5.2,5.2,0,0,1,1.117-1.3A3.883,3.883,0,0,1,69.062-11.988ZM82.468-5.693a3.327,3.327,0,0,1-.585.3,4.9,4.9,0,0,1-.811.209l-.687.129A4.439,4.439,0,0,0,79-4.641a1.4,1.4,0,0,0-.709,1.3,1.369,1.369,0,0,0,.435,1.133,1.637,1.637,0,0,0,1.058.349,3.118,3.118,0,0,0,1.821-.58,2.474,2.474,0,0,0,.865-2.116ZM80.609-7.122a4.779,4.779,0,0,0,1.214-.269.92.92,0,0,0,.655-.87,1.032,1.032,0,0,0-.5-.994,3.12,3.12,0,0,0-1.466-.274,1.91,1.91,0,0,0-1.536.537,2.232,2.232,0,0,0-.43,1.074H75.593a4.493,4.493,0,0,1,.859-2.524q1.214-1.547,4.168-1.547a7.405,7.405,0,0,1,3.416.763,2.928,2.928,0,0,1,1.493,2.879v5.371q0,.559.021,1.354a1.7,1.7,0,0,0,.183.816,1.1,1.1,0,0,0,.451.354V0h-3.33a3.41,3.41,0,0,1-.193-.666q-.054-.312-.086-.709A6.29,6.29,0,0,1,81.114-.2,4.394,4.394,0,0,1,78.88.365a3.842,3.842,0,0,1-2.626-.908,3.238,3.238,0,0,1-1.037-2.573,3.339,3.339,0,0,1,1.665-3.126,7.393,7.393,0,0,1,2.686-.752ZM91.373,0H88.312V-15.834h3.062Z" transform="translate(624 14216)" fill="#00223d"/>
    <rect id="Rectángulo_4474" data-name="Rectángulo 4474" width="168" height="68" transform="translate(1117 14175)" fill="#ff8f00"/>
    <path id="Trazado_36904" data-name="Trazado 36904" d="M.988-7.788A8.7,8.7,0,0,1,3.212-14.18a6.626,6.626,0,0,1,4.92-1.955q4,0,5.844,2.621a5.674,5.674,0,0,1,1.1,2.954H11.763a4.469,4.469,0,0,0-.827-1.719A3.364,3.364,0,0,0,8.261-13.31a3.316,3.316,0,0,0-2.847,1.456,7,7,0,0,0-1.042,4.12,6.141,6.141,0,0,0,1.1,3.991,3.479,3.479,0,0,0,2.8,1.327,3.2,3.2,0,0,0,2.653-1.139,4.946,4.946,0,0,0,.838-1.837h3.276a7.107,7.107,0,0,1-2.2,4.211A6.435,6.435,0,0,1,8.314.44,6.83,6.83,0,0,1,2.943-1.751,8.771,8.771,0,0,1,.988-7.788ZM22.569-2.159a2.426,2.426,0,0,0,2.063-.956,4.448,4.448,0,0,0,.72-2.718,4.423,4.423,0,0,0-.72-2.712A2.432,2.432,0,0,0,22.569-9.5a2.446,2.446,0,0,0-2.068.951,4.4,4.4,0,0,0-.725,2.712A4.423,4.423,0,0,0,20.5-3.115,2.441,2.441,0,0,0,22.569-2.159Zm5.994-3.674a6.788,6.788,0,0,1-1.482,4.41A5.447,5.447,0,0,1,22.58.408a5.447,5.447,0,0,1-4.5-1.832A6.788,6.788,0,0,1,16.6-5.833a6.833,6.833,0,0,1,1.482-4.394,5.409,5.409,0,0,1,4.5-1.858,5.409,5.409,0,0,1,4.5,1.858A6.833,6.833,0,0,1,28.563-5.833Zm8.551-6.155q.086,0,.145.005t.263.016V-8.83q-.29-.032-.516-.043t-.365-.011a2.539,2.539,0,0,0-2.481,1.2A4.68,4.68,0,0,0,33.806-5.6V0H30.723V-11.709h2.922v2.041a6.473,6.473,0,0,1,1.235-1.6A3.363,3.363,0,0,1,37.114-11.988Zm8.562,0q.086,0,.145.005t.263.016V-8.83q-.29-.032-.516-.043T45.2-8.884a2.539,2.539,0,0,0-2.481,1.2A4.68,4.68,0,0,0,42.367-5.6V0H39.284V-11.709h2.922v2.041a6.473,6.473,0,0,1,1.235-1.6A3.363,3.363,0,0,1,45.676-11.988ZM52.5-9.5a2.079,2.079,0,0,0-1.649.666,3.324,3.324,0,0,0-.736,1.8h4.759a2.665,2.665,0,0,0-.736-1.842A2.285,2.285,0,0,0,52.5-9.5Zm0-2.524a6.136,6.136,0,0,1,2.632.548,4.61,4.61,0,0,1,1.934,1.729,5.9,5.9,0,0,1,.892,2.417,15.609,15.609,0,0,1,.1,2.32H50.037a2.91,2.91,0,0,0,1.106,2.471,2.606,2.606,0,0,0,1.525.44,2.2,2.2,0,0,0,1.536-.537,2.551,2.551,0,0,0,.569-.806H57.9a3.884,3.884,0,0,1-1.085,2.116A5.316,5.316,0,0,1,52.6.387a5.938,5.938,0,0,1-3.942-1.439q-1.708-1.439-1.708-4.684A6.51,6.51,0,0,1,48.5-10.4,5.271,5.271,0,0,1,52.5-12.021ZM65.366-2.159a2.426,2.426,0,0,0,2.063-.956,4.448,4.448,0,0,0,.72-2.718,4.423,4.423,0,0,0-.72-2.712A2.432,2.432,0,0,0,65.366-9.5a2.446,2.446,0,0,0-2.068.951,4.4,4.4,0,0,0-.725,2.712A4.423,4.423,0,0,0,63.3-3.115,2.441,2.441,0,0,0,65.366-2.159ZM71.36-5.833a6.788,6.788,0,0,1-1.482,4.41,5.447,5.447,0,0,1-4.5,1.832,5.447,5.447,0,0,1-4.5-1.832,6.788,6.788,0,0,1-1.482-4.41,6.833,6.833,0,0,1,1.482-4.394,5.409,5.409,0,0,1,4.5-1.858,5.409,5.409,0,0,1,4.5,1.858A6.833,6.833,0,0,1,71.36-5.833Z" transform="translate(1165 14216)" fill="#00223d"/>
    <rect id="Rectángulo_4475" data-name="Rectángulo 4475" width="168" height="68" transform="translate(590 14445)" fill="#ff8f00"/>
    <path id="Trazado_36902" data-name="Trazado 36902" d="M13.181-15.834v2.8H8.443V0H5.113V-13.03H.354v-2.8ZM17.864-9.5a2.079,2.079,0,0,0-1.649.666,3.324,3.324,0,0,0-.736,1.8h4.759A2.665,2.665,0,0,0,19.5-8.868,2.285,2.285,0,0,0,17.864-9.5Zm0-2.524a6.136,6.136,0,0,1,2.632.548A4.61,4.61,0,0,1,22.43-9.743a5.9,5.9,0,0,1,.892,2.417,15.609,15.609,0,0,1,.1,2.32H15.4a2.91,2.91,0,0,0,1.106,2.471,2.606,2.606,0,0,0,1.525.44,2.2,2.2,0,0,0,1.536-.537,2.551,2.551,0,0,0,.569-.806h3.126a3.884,3.884,0,0,1-1.085,2.116A5.316,5.316,0,0,1,17.972.387a5.938,5.938,0,0,1-3.942-1.439q-1.708-1.439-1.708-4.684A6.51,6.51,0,0,1,13.863-10.4,5.271,5.271,0,0,1,17.864-12.021ZM28.606,0H25.545V-15.834h3.062Zm7.605-9.5a2.079,2.079,0,0,0-1.649.666,3.324,3.324,0,0,0-.736,1.8h4.759a2.665,2.665,0,0,0-.736-1.842A2.285,2.285,0,0,0,36.212-9.5Zm0-2.524a6.136,6.136,0,0,1,2.632.548,4.61,4.61,0,0,1,1.934,1.729,5.9,5.9,0,0,1,.892,2.417,15.609,15.609,0,0,1,.1,2.32H33.752a2.91,2.91,0,0,0,1.106,2.471,2.606,2.606,0,0,0,1.525.44,2.2,2.2,0,0,0,1.536-.537,2.551,2.551,0,0,0,.569-.806h3.126A3.884,3.884,0,0,1,40.53-1.321,5.316,5.316,0,0,1,36.319.387a5.938,5.938,0,0,1-3.942-1.439q-1.708-1.439-1.708-4.684A6.51,6.51,0,0,1,32.21-10.4,5.271,5.271,0,0,1,36.212-12.021ZM40.09-16.5l-3.266,3.212H34.611L36.674-16.5Zm8.057.5q.29,0,.526.016t.645.048v2.492q-.258-.032-.865-.048a1,1,0,0,0-.838.269.974.974,0,0,0-.231.628v.988h2.009v2.159H47.384V0H44.333V-9.442H42.625V-11.6H44.3v-.752a3.956,3.956,0,0,1,.634-2.589Q45.6-16,48.146-16ZM56.407-2.159a2.426,2.426,0,0,0,2.063-.956,4.448,4.448,0,0,0,.72-2.718,4.423,4.423,0,0,0-.72-2.712A2.432,2.432,0,0,0,56.407-9.5a2.446,2.446,0,0,0-2.068.951,4.4,4.4,0,0,0-.725,2.712,4.423,4.423,0,0,0,.725,2.718A2.441,2.441,0,0,0,56.407-2.159ZM62.4-5.833a6.788,6.788,0,0,1-1.482,4.41,5.447,5.447,0,0,1-4.5,1.832,5.447,5.447,0,0,1-4.5-1.832,6.788,6.788,0,0,1-1.482-4.41,6.833,6.833,0,0,1,1.482-4.394,5.409,5.409,0,0,1,4.5-1.858,5.409,5.409,0,0,1,4.5,1.858A6.833,6.833,0,0,1,62.4-5.833Zm8.68-6.155a4.52,4.52,0,0,1,2.97.951,3.866,3.866,0,0,1,1.155,3.153V0H72.069V-7.122a3.25,3.25,0,0,0-.247-1.418,1.738,1.738,0,0,0-1.719-.9,2.132,2.132,0,0,0-2.138,1.321,4.538,4.538,0,0,0-.3,1.783V0H64.614V-11.687h2.954v1.708a5.2,5.2,0,0,1,1.117-1.3A3.883,3.883,0,0,1,71.081-11.988Zm12.2,9.829a2.426,2.426,0,0,0,2.063-.956,4.448,4.448,0,0,0,.72-2.718,4.423,4.423,0,0,0-.72-2.712A2.432,2.432,0,0,0,83.284-9.5a2.446,2.446,0,0,0-2.068.951,4.4,4.4,0,0,0-.725,2.712,4.423,4.423,0,0,0,.725,2.718A2.441,2.441,0,0,0,83.284-2.159Zm5.994-3.674A6.788,6.788,0,0,1,87.8-1.423a5.447,5.447,0,0,1-4.5,1.832,5.447,5.447,0,0,1-4.5-1.832,6.788,6.788,0,0,1-1.482-4.41,6.833,6.833,0,0,1,1.482-4.394,5.409,5.409,0,0,1,4.5-1.858,5.409,5.409,0,0,1,4.5,1.858A6.833,6.833,0,0,1,89.278-5.833Z" transform="translate(629 14486)" fill="#00223d"/>
    <rect id="Rectángulo_4476" data-name="Rectángulo 4476" width="168" height="68" transform="translate(1117 14445)" fill="#ff8f00"/>
    <path id="Trazado_36903" data-name="Trazado 36903" d="M12.171-15.834H16.93V0H13.847V-10.71q0-.462.011-1.294t.011-1.284L10.871,0H7.659L4.684-13.288q0,.451.011,1.284t.011,1.294V0H1.622V-15.834H6.435L9.313-3.384ZM22.9-13.105H19.8v-2.825h3.1Zm-3.1,1.4h3.1V0H19.8ZM24.718,0l4-5.93L24.89-11.687h3.749l1.955,3.395,1.912-3.395h3.642L32.3-5.983,36.3,0H32.484l-2.02-3.513L28.435,0ZM36.9-9.421V-11.6h1.633v-3.266h3.029V-11.6h1.9v2.181h-1.9v6.188a1.394,1.394,0,0,0,.183.9,2.011,2.011,0,0,0,1.117.177q.14,0,.3-.005t.306-.016V.107l-1.45.054a3.892,3.892,0,0,1-2.965-.752,2.239,2.239,0,0,1-.516-1.622V-9.421ZM51.885-5.693a3.327,3.327,0,0,1-.585.3,4.9,4.9,0,0,1-.811.209L49.8-5.06a4.439,4.439,0,0,0-1.386.419,1.4,1.4,0,0,0-.709,1.3,1.369,1.369,0,0,0,.435,1.133,1.637,1.637,0,0,0,1.058.349,3.118,3.118,0,0,0,1.821-.58,2.474,2.474,0,0,0,.865-2.116ZM50.026-7.122a4.779,4.779,0,0,0,1.214-.269.92.92,0,0,0,.655-.87,1.032,1.032,0,0,0-.5-.994,3.12,3.12,0,0,0-1.466-.274,1.91,1.91,0,0,0-1.536.537,2.232,2.232,0,0,0-.43,1.074H45.01a4.493,4.493,0,0,1,.859-2.524q1.214-1.547,4.168-1.547a7.405,7.405,0,0,1,3.416.763,2.928,2.928,0,0,1,1.493,2.879v5.371q0,.559.021,1.354a1.7,1.7,0,0,0,.183.816,1.1,1.1,0,0,0,.451.354V0h-3.33a3.41,3.41,0,0,1-.193-.666q-.054-.312-.086-.709A6.29,6.29,0,0,1,50.531-.2,4.394,4.394,0,0,1,48.3.365,3.842,3.842,0,0,1,45.67-.542a3.238,3.238,0,0,1-1.037-2.573A3.339,3.339,0,0,1,46.3-6.241a7.393,7.393,0,0,1,2.686-.752Z" transform="translate(1171 14486)" fill="#00223d"/>
    <path id="Trazado_36255" data-name="Trazado 36255" d="M2043.5,12947v70.984h116.849" transform="translate(-1374 1296)" fill="none" stroke="#472ea6" stroke-width="2"/>
    <path id="Trazado_36256" data-name="Trazado 36256" d="M2043.5,13017.984V12947h116.849" transform="translate(-1374 1427)" fill="none" stroke="#472ea6" stroke-width="2"/>
    <path id="Trazado_36257" data-name="Trazado 36257" d="M2160.349,12947v70.984H2043.5" transform="translate(-949 1296)" fill="none" stroke="#472ea6" stroke-width="2"/>
    <path id="Trazado_36258" data-name="Trazado 36258" d="M2160.349,13017.984V12947H2043.5" transform="translate(-949 1427)" fill="none" stroke="#472ea6" stroke-width="2"/>
    <path id="Polígono_30" data-name="Polígono 30" d="M13,0,26,23H0Z" transform="translate(802.5 14300.5) rotate(90)" fill="#472ea6"/>
    <path id="Polígono_31" data-name="Polígono 31" d="M13,0,26,23H0Z" transform="translate(802.5 14359.5) rotate(90)" fill="#472ea6"/>
    <path id="Polígono_32" data-name="Polígono 32" d="M13,0,26,23H0Z" transform="translate(1084.5 14326.5) rotate(-90)" fill="#472ea6"/>
    <path id="Polígono_33" data-name="Polígono 33" d="M13,0,26,23H0Z" transform="translate(1084.5 14385.5) rotate(-90)" fill="#472ea6"/>
  </g>
</svg>
