<svg id="Grupo_17452" data-name="Grupo 17452" xmlns="http://www.w3.org/2000/svg" xmlns:xlink="http://www.w3.org/1999/xlink" width="107" height="91.109" viewBox="0 0 107 91.109">
  <defs>
    <clipPath id="clip-path">
      <rect id="Rectángulo_4409" data-name="Rectángulo 4409" width="107" height="91.109" fill="none"/>
    </clipPath>
  </defs>
  <rect id="Rectángulo_4404" data-name="Rectángulo 4404" width="5.301" height="40.135" transform="translate(17.674 38.131)" fill="#c7ddeb"/>
  <rect id="Rectángulo_4405" data-name="Rectángulo 4405" width="5.301" height="52.251" transform="translate(33.576 16.549)" fill="#c7ddeb"/>
  <rect id="Rectángulo_4406" data-name="Rectángulo 4406" width="5.301" height="59.444" transform="translate(54.779 18.821)" fill="#c7ddeb"/>
  <rect id="Rectángulo_4407" data-name="Rectángulo 4407" width="5.301" height="36.348" transform="translate(74.468 23.743)" fill="#c7ddeb"/>
  <rect id="Rectángulo_4408" data-name="Rectángulo 4408" width="5.301" height="49.221" transform="translate(89.234 7.084)" fill="#c7ddeb"/>
  <g id="Grupo_17450" data-name="Grupo 17450">
    <g id="Grupo_17449" data-name="Grupo 17449" clip-path="url(#clip-path)">
      <path id="Trazado_35969" data-name="Trazado 35969" d="M104.946,91.109h0L0,90.973V2.053a2.053,2.053,0,0,1,4.106,0v84.82L104.949,87a2.053,2.053,0,0,1,0,4.106" transform="translate(0.001)" fill="#3d4451"/>
      <path id="Trazado_35970" data-name="Trazado 35970" d="M69.168,149.326l-2.091-2.057,32.1-32.637L111.389,129.8,147.376,92.75l2.1,2.044-38.3,39.434-12.23-15.189Z" transform="translate(-52.152 -72.114)" fill="#3d4451"/>
      <path id="Trazado_35971" data-name="Trazado 35971" d="M390.965,61.59l17.771-2.524-2.272,16.515Z" transform="translate(-303.977 -45.924)" fill="#3d4451"/>
      <path id="Trazado_35972" data-name="Trazado 35972" d="M192.075,185.5a3.85,3.85,0,1,1,3.85,3.85,3.85,3.85,0,0,1-3.85-3.85" transform="translate(-149.339 -141.236)" fill="#3d4451"/>
      <path id="Trazado_35973" data-name="Trazado 35973" d="M249.608,254.466a4.085,4.085,0,1,1,4.085,4.085,4.085,4.085,0,0,1-4.085-4.085" transform="translate(-194.072 -194.673)" fill="#3d4451"/>
      <path id="Trazado_35974" data-name="Trazado 35974" d="M329.111,171.485a3.986,3.986,0,1,1,3.986,3.986,3.986,3.986,0,0,1-3.986-3.986" transform="translate(-255.886 -130.231)" fill="#3d4451"/>
      <path id="Trazado_35975" data-name="Trazado 35975" d="M61.53,306.454a5.936,5.936,0,1,1,5.936,5.936,5.936,5.936,0,0,1-5.936-5.936" transform="translate(-47.84 -233.655)" fill="#fdc345"/>
      <path id="Trazado_35976" data-name="Trazado 35976" d="M63.054,309.24a7.2,7.2,0,1,1,7.2-7.2,7.206,7.206,0,0,1-7.2,7.2m0-11.872a4.673,4.673,0,1,0,4.673,4.673,4.679,4.679,0,0,0-4.673-4.673" transform="translate(-43.428 -229.243)" fill="#3d4451"/>
      <path id="Trazado_35977" data-name="Trazado 35977" d="M116.879,44.2H103.513a6.187,6.187,0,0,0-6.169,6.169v5.141a6.187,6.187,0,0,0,6.169,6.169h7.132l5.594,7.086s.247-4.445.2-7.086h.434a6.187,6.187,0,0,0,6.169-6.169V50.366a6.187,6.187,0,0,0-6.169-6.169" transform="translate(-75.686 -34.363)" fill="#7eb9c7"/>
      <path id="Trazado_35978" data-name="Trazado 35978" d="M113.189,67.837,106.052,58.8H99.479a7.332,7.332,0,0,1-7.324-7.324V46.332a7.332,7.332,0,0,1,7.324-7.324h13.366a7.332,7.332,0,0,1,7.324,7.324v5.141a7.333,7.333,0,0,1-6.6,7.288c-.021,2.6-.2,5.872-.21,6.031ZM99.479,41.317a5.02,5.02,0,0,0-5.014,5.014v5.141a5.02,5.02,0,0,0,5.014,5.014h7.692l4.02,5.091c.047-1.309.083-2.79.065-3.919l-.018-1.173h1.607a5.02,5.02,0,0,0,5.014-5.014V46.332a5.02,5.02,0,0,0-5.014-5.014Z" transform="translate(-71.651 -30.329)" fill="#3d4451"/>
      <path id="Trazado_35979" data-name="Trazado 35979" d="M349.909,268.365h13.366a6.187,6.187,0,0,0,6.169-6.169v-5.141a6.187,6.187,0,0,0-6.169-6.169h-7.133l-5.594-7.086s-.247,4.445-.2,7.086h-.434a6.187,6.187,0,0,0-6.169,6.169V262.2a6.187,6.187,0,0,0,6.169,6.169" transform="translate(-267.26 -189.556)" fill="#f04f4c"/>
      <path id="Trazado_35980" data-name="Trazado 35980" d="M359.241,258.652H345.875a7.332,7.332,0,0,1-7.324-7.324v-5.141a7.334,7.334,0,0,1,6.6-7.288c.021-2.6.2-5.872.21-6.031l.169-3.046,7.138,9.041h6.573a7.332,7.332,0,0,1,7.323,7.323v5.141a7.332,7.332,0,0,1-7.323,7.324m-13.366-17.479a5.02,5.02,0,0,0-5.014,5.014v5.141a5.02,5.02,0,0,0,5.014,5.014h13.366a5.02,5.02,0,0,0,5.014-5.014v-5.141a5.02,5.02,0,0,0-5.014-5.014h-7.692l-4.02-5.091c-.047,1.309-.083,2.789-.065,3.919l.018,1.173Z" transform="translate(-263.225 -178.689)" fill="#3d4451"/>
    </g>
  </g>
</svg>
