<svg xmlns="http://www.w3.org/2000/svg" width="1076" height="933" viewBox="0 0 1076 933">
  <g id="Grupo_17677" data-name="Grupo 17677" transform="translate(-422 -9735)">
    <path id="Trazado_36846" data-name="Trazado 36846" d="M0,0H240V130H0Z" transform="translate(422 9735)" fill="#f7be75"/>
    <path id="Trazado_36847" data-name="Trazado 36847" d="M-56.96,0V-15.125h4.877a7.232,7.232,0,0,1,3.851.978,5.963,5.963,0,0,1,2.363,2.659A9.34,9.34,0,0,1-45.1-7.573a9.906,9.906,0,0,1-.446,3.056,6.923,6.923,0,0,1-1.305,2.39,5.726,5.726,0,0,1-2.2,1.568A7.811,7.811,0,0,1-52.083,0Zm1.923-1.751h2.89A4.606,4.606,0,0,0-48.372-3.3,6.539,6.539,0,0,0-47.1-7.573a6.484,6.484,0,0,0-1.278-4.254,4.609,4.609,0,0,0-3.771-1.547h-2.89ZM-40.9-13.041a1.209,1.209,0,0,1-.886-.371,1.209,1.209,0,0,1-.371-.886,1.192,1.192,0,0,1,.371-.881,1.218,1.218,0,0,1,.886-.365,1.206,1.206,0,0,1,.875.365,1.192,1.192,0,0,1,.371.881,1.209,1.209,0,0,1-.371.886A1.2,1.2,0,0,1-40.9-13.041ZM-41.846,0V-10.56h1.869V0Zm8.089.2a3.593,3.593,0,0,1-2.315-.725,2.6,2.6,0,0,1-.908-2.165,3.076,3.076,0,0,1,.29-1.38,2.433,2.433,0,0,1,.859-.961,5.155,5.155,0,0,1,1.241-.6A11.469,11.469,0,0,1-32.984-6l1.708-.279q.935-.172.935-.978A1.845,1.845,0,0,0-31-8.835a2.692,2.692,0,0,0-1.67-.5,2.742,2.742,0,0,0-1.654.483,2.023,2.023,0,0,0-.784,1.482l-1.676-.354a3.225,3.225,0,0,1,1.321-2.261,4.937,4.937,0,0,1,2.879-.757,5.839,5.839,0,0,1,1.531.188,4.16,4.16,0,0,1,1.278.591,2.65,2.65,0,0,1,.913,1.139,4.237,4.237,0,0,1,.328,1.735v4.361a1.784,1.784,0,0,0,.242,1.1,1.043,1.043,0,0,0,.833.285h.172V0h-.924a1.762,1.762,0,0,1-2-1.429H-30.3A4.035,4.035,0,0,1-33.757.2Zm.43-1.5A2.818,2.818,0,0,0-31.061-2.32,4.2,4.2,0,0,0-30.2-5.113l-2.793.537a3.76,3.76,0,0,0-1.638.585,1.362,1.362,0,0,0-.532,1.155,1.346,1.346,0,0,0,.51,1.16A2.181,2.181,0,0,0-33.328-1.3Zm16.092-9.26h1.8V-.537A5.752,5.752,0,0,1-16.8,3.577a4.959,4.959,0,0,1-3.781,1.439A4.992,4.992,0,0,1-25.7,1.783l1.536-.752A3.491,3.491,0,0,0-20.63,3.47a3.031,3.031,0,0,0,2.476-1.031A4.389,4.389,0,0,0-17.3-.44V-2.4a3.721,3.721,0,0,1-1.5,1.52,4.376,4.376,0,0,1-2.2.575,4.527,4.527,0,0,1-3.416-1.488A5.247,5.247,0,0,1-25.83-5.543a5.2,5.2,0,0,1,1.413-3.744,4.572,4.572,0,0,1,3.432-1.477,4.266,4.266,0,0,1,2.213.591,3.8,3.8,0,0,1,1.493,1.558Zm-3.352,8.68a3.2,3.2,0,0,0,2.433-1.085,3.666,3.666,0,0,0,1-2.578,3.691,3.691,0,0,0-1-2.589,3.189,3.189,0,0,0-2.438-1.085,3.217,3.217,0,0,0-2.433,1.053,3.671,3.671,0,0,0-.994,2.621,3.64,3.64,0,0,0,1,2.6A3.219,3.219,0,0,0-20.587-1.88Zm13.922-8.884a3.673,3.673,0,0,1,2.659.956,3.566,3.566,0,0,1,.994,2.7V0H-4.872V-6.692a2.5,2.5,0,0,0-.645-1.891A2.3,2.3,0,0,0-7.17-9.2a2.555,2.555,0,0,0-1.88.725,2.942,2.942,0,0,0-.741,2.154V0H-11.65V-10.56h1.858v1.354A3.526,3.526,0,0,1-6.666-10.764ZM5.022.2A5.566,5.566,0,0,1,2.315-.451,4.771,4.771,0,0,1,.408-2.369,5.89,5.89,0,0,1-.3-5.285a5.38,5.38,0,0,1,1.5-3.98,5.173,5.173,0,0,1,3.819-1.5,5.168,5.168,0,0,1,3.824,1.5,5.39,5.39,0,0,1,1.493,3.98,5.394,5.394,0,0,1-1.5,3.991A5.173,5.173,0,0,1,5.022.2ZM5.011-1.343a3.243,3.243,0,0,0,2.5-1.085A4.065,4.065,0,0,0,8.5-5.285a4.05,4.05,0,0,0-.994-2.847,3.243,3.243,0,0,0-2.5-1.085A3.2,3.2,0,0,0,2.535-8.132a4.077,4.077,0,0,0-.983,2.847,4.092,4.092,0,0,0,.983,2.857A3.2,3.2,0,0,0,5.011-1.343ZM16.591.2a5.006,5.006,0,0,1-2.847-.763,3.155,3.155,0,0,1-1.386-2.17l1.622-.462a2.262,2.262,0,0,0,.865,1.466,2.805,2.805,0,0,0,1.735.521,3.462,3.462,0,0,0,1.015-.14,1.627,1.627,0,0,0,.779-.521,1.4,1.4,0,0,0,.312-.961A1.4,1.4,0,0,0,18.6-3.26a1.865,1.865,0,0,0-.172-.349,1.064,1.064,0,0,0-.3-.29,3.966,3.966,0,0,0-.365-.226,3.749,3.749,0,0,0-.478-.2q-.317-.113-.51-.172t-.591-.172q-.4-.113-.612-.177a11.454,11.454,0,0,1-1.1-.387,4.805,4.805,0,0,1-.892-.51,2.053,2.053,0,0,1-.693-.833,2.817,2.817,0,0,1-.231-1.182,2.731,2.731,0,0,1,.516-1.687,2.9,2.9,0,0,1,1.337-.994,5.346,5.346,0,0,1,1.875-.306,4.588,4.588,0,0,1,2.573.688,2.934,2.934,0,0,1,1.284,2.063l-1.525.387a2.022,2.022,0,0,0-.806-1.337A2.565,2.565,0,0,0,16.4-9.389a2.614,2.614,0,0,0-1.418.371,1.246,1.246,0,0,0-.591,1.133,1.128,1.128,0,0,0,.156.585,1.859,1.859,0,0,0,.317.414,1.948,1.948,0,0,0,.58.317q.419.167.623.226t.773.2q.107.032.161.043.623.161,1.015.285a6.24,6.24,0,0,1,.913.387,3.036,3.036,0,0,1,.822.575,2.662,2.662,0,0,1,.516.816A2.882,2.882,0,0,1,20.48-2.9a3.075,3.075,0,0,1-.317,1.423A2.479,2.479,0,0,1,19.3-.5a4.182,4.182,0,0,1-1.23.532A5.86,5.86,0,0,1,16.591.2ZM26.775,0a2.776,2.776,0,0,1-2.062-.757,2.865,2.865,0,0,1-.752-2.111V-9.077H21.8V-10.56H22.6a1.526,1.526,0,0,0,1.166-.371,1.824,1.824,0,0,0,.338-1.241v-1.912H25.83v3.523h2.428v1.482H25.83v6.016a1.6,1.6,0,0,0,.4,1.166,1.411,1.411,0,0,0,1.058.414h.967V0Zm5.113-13.041A1.209,1.209,0,0,1,31-13.412a1.209,1.209,0,0,1-.371-.886A1.192,1.192,0,0,1,31-15.179a1.218,1.218,0,0,1,.886-.365,1.206,1.206,0,0,1,.875.365,1.192,1.192,0,0,1,.371.881,1.209,1.209,0,0,1-.371.886A1.2,1.2,0,0,1,31.888-13.041ZM30.943,0V-10.56h1.869V0ZM40.976.193a5.086,5.086,0,0,1-3.781-1.515A5.4,5.4,0,0,1,35.7-5.285a5.414,5.414,0,0,1,1.488-3.964,5.081,5.081,0,0,1,3.787-1.515,5.123,5.123,0,0,1,3.056.924A4.662,4.662,0,0,1,45.81-7.272l-1.74.279a3.214,3.214,0,0,0-1.192-1.644,3.247,3.247,0,0,0-1.912-.58,3.122,3.122,0,0,0-2.444,1.085,4.133,4.133,0,0,0-.961,2.847,4.113,4.113,0,0,0,.961,2.841,3.129,3.129,0,0,0,2.444,1.08,3.247,3.247,0,0,0,1.912-.58A3.214,3.214,0,0,0,44.07-3.588l1.74.29A4.668,4.668,0,0,1,44.021-.736,5.115,5.115,0,0,1,40.976.193ZM53,.2A5.566,5.566,0,0,1,50.29-.451a4.771,4.771,0,0,1-1.907-1.917,5.89,5.89,0,0,1-.7-2.917,5.38,5.38,0,0,1,1.5-3.98A5.173,5.173,0,0,1,53-10.764a5.168,5.168,0,0,1,3.824,1.5,5.39,5.39,0,0,1,1.493,3.98,5.394,5.394,0,0,1-1.5,3.991A5.173,5.173,0,0,1,53,.2Zm-.011-1.547a3.243,3.243,0,0,0,2.5-1.085,4.065,4.065,0,0,0,.994-2.857,4.05,4.05,0,0,0-.994-2.847,3.243,3.243,0,0,0-2.5-1.085A3.2,3.2,0,0,0,50.51-8.132a4.077,4.077,0,0,0-.983,2.847,4.092,4.092,0,0,0,.983,2.857A3.2,3.2,0,0,0,52.986-1.343ZM-19.658,25l-1.3-3.62H-27.8L-29.09,25H-31.1l5.575-15.125h2.3L-17.649,25Zm-7.53-5.317h5.629l-2.814-7.874Zm16.307,5.511a5.086,5.086,0,0,1-3.781-1.515,5.4,5.4,0,0,1-1.493-3.964,5.414,5.414,0,0,1,1.488-3.964,5.081,5.081,0,0,1,3.787-1.515,5.123,5.123,0,0,1,3.056.924,4.662,4.662,0,0,1,1.778,2.567l-1.74.279A3.214,3.214,0,0,0-8.98,16.363a3.247,3.247,0,0,0-1.912-.58,3.122,3.122,0,0,0-2.444,1.085,4.133,4.133,0,0,0-.961,2.847,4.113,4.113,0,0,0,.961,2.841,3.129,3.129,0,0,0,2.444,1.08,3.247,3.247,0,0,0,1.912-.58,3.214,3.214,0,0,0,1.192-1.644l1.74.29a4.668,4.668,0,0,1-1.789,2.562A5.115,5.115,0,0,1-10.882,25.193ZM.064,25A2.776,2.776,0,0,1-2,24.243a2.865,2.865,0,0,1-.752-2.111V15.923H-4.909V14.44h.795a1.526,1.526,0,0,0,1.166-.371,1.824,1.824,0,0,0,.338-1.241V10.917H-.881V14.44H1.547v1.482H-.881v6.016a1.6,1.6,0,0,0,.4,1.166,1.411,1.411,0,0,0,1.058.414h.967V25ZM10.807,14.44h1.858V25H10.882l-.043-1.4a3.3,3.3,0,0,1-1.311,1.187,4.031,4.031,0,0,1-1.848.414,3.673,3.673,0,0,1-2.659-.956,3.566,3.566,0,0,1-.994-2.7V14.44H5.887v6.692a2.506,2.506,0,0,0,.65,1.891,2.3,2.3,0,0,0,1.66.623,2.527,2.527,0,0,0,1.875-.73,2.975,2.975,0,0,0,.736-2.159ZM18.885,25.2a3.593,3.593,0,0,1-2.315-.725,2.6,2.6,0,0,1-.908-2.165,3.076,3.076,0,0,1,.29-1.38,2.433,2.433,0,0,1,.859-.961,5.155,5.155,0,0,1,1.241-.6A11.469,11.469,0,0,1,19.658,19l1.708-.279q.935-.172.935-.978a1.845,1.845,0,0,0-.661-1.574,2.692,2.692,0,0,0-1.67-.5,2.742,2.742,0,0,0-1.654.483,2.023,2.023,0,0,0-.784,1.482l-1.676-.354a3.225,3.225,0,0,1,1.321-2.261,4.937,4.937,0,0,1,2.879-.757,5.839,5.839,0,0,1,1.531.188,4.16,4.16,0,0,1,1.278.591,2.65,2.65,0,0,1,.913,1.139,4.237,4.237,0,0,1,.328,1.735v4.361a1.784,1.784,0,0,0,.242,1.1,1.043,1.043,0,0,0,.833.285h.172V25h-.924a1.762,1.762,0,0,1-2-1.429h-.086A4.035,4.035,0,0,1,18.885,25.2Zm.43-1.5a2.818,2.818,0,0,0,2.267-1.021,4.2,4.2,0,0,0,.859-2.793l-2.793.537a3.76,3.76,0,0,0-1.638.585,1.362,1.362,0,0,0-.532,1.155,1.346,1.346,0,0,0,.51,1.16A2.181,2.181,0,0,0,19.314,23.7ZM27.973,25V8.5h1.88V25Z" transform="translate(542 9795)" fill="#00223d"/>
    <path id="Trazado_36848" data-name="Trazado 36848" d="M0,0H240V130H0Z" transform="translate(840 9735)" fill="#f7be75"/>
    <path id="Trazado_36849" data-name="Trazado 36849" d="M-58.953,0V-15.125h4.877a7.232,7.232,0,0,1,3.851.978,5.963,5.963,0,0,1,2.363,2.659,9.34,9.34,0,0,1,.768,3.916,9.906,9.906,0,0,1-.446,3.056,6.923,6.923,0,0,1-1.305,2.39,5.726,5.726,0,0,1-2.2,1.568A7.811,7.811,0,0,1-54.076,0Zm1.923-1.751h2.89A4.606,4.606,0,0,0-50.365-3.3a6.539,6.539,0,0,0,1.273-4.275,6.484,6.484,0,0,0-1.278-4.254,4.609,4.609,0,0,0-3.771-1.547h-2.89Zm14.137-11.29a1.209,1.209,0,0,1-.886-.371,1.209,1.209,0,0,1-.371-.886,1.192,1.192,0,0,1,.371-.881,1.218,1.218,0,0,1,.886-.365,1.206,1.206,0,0,1,.875.365,1.192,1.192,0,0,1,.371.881,1.209,1.209,0,0,1-.371.886A1.2,1.2,0,0,1-42.894-13.041ZM-43.839,0V-10.56h1.869V0Zm8.991.2a5.006,5.006,0,0,1-2.847-.763,3.155,3.155,0,0,1-1.386-2.17l1.622-.462a2.262,2.262,0,0,0,.865,1.466,2.805,2.805,0,0,0,1.735.521,3.462,3.462,0,0,0,1.015-.14,1.627,1.627,0,0,0,.779-.521,1.4,1.4,0,0,0,.312-.961,1.4,1.4,0,0,0-.086-.435,1.865,1.865,0,0,0-.172-.349,1.064,1.064,0,0,0-.3-.29,3.966,3.966,0,0,0-.365-.226,3.749,3.749,0,0,0-.478-.2q-.317-.113-.51-.172t-.591-.172q-.4-.113-.612-.177a11.454,11.454,0,0,1-1.1-.387,4.805,4.805,0,0,1-.892-.51,2.053,2.053,0,0,1-.693-.833,2.817,2.817,0,0,1-.231-1.182,2.731,2.731,0,0,1,.516-1.687,2.9,2.9,0,0,1,1.337-.994,5.346,5.346,0,0,1,1.875-.306,4.588,4.588,0,0,1,2.573.688A2.934,2.934,0,0,1-31.2-7.992l-1.525.387a2.022,2.022,0,0,0-.806-1.337,2.565,2.565,0,0,0-1.515-.446,2.614,2.614,0,0,0-1.418.371,1.246,1.246,0,0,0-.591,1.133,1.128,1.128,0,0,0,.156.585,1.859,1.859,0,0,0,.317.414,1.948,1.948,0,0,0,.58.317q.419.167.623.226t.773.2q.107.032.161.043.623.161,1.015.285a6.24,6.24,0,0,1,.913.387,3.036,3.036,0,0,1,.822.575,2.662,2.662,0,0,1,.516.816A2.882,2.882,0,0,1-30.959-2.9a3.075,3.075,0,0,1-.317,1.423,2.479,2.479,0,0,1-.865.972,4.182,4.182,0,0,1-1.23.532A5.86,5.86,0,0,1-34.848.2ZM-18.8-5.489l-.021.5h-8.25a3.731,3.731,0,0,0,1.01,2.7,3.315,3.315,0,0,0,2.406.94,3.166,3.166,0,0,0,1.751-.5,3.276,3.276,0,0,0,1.2-1.4l1.676.354a4.763,4.763,0,0,1-1.8,2.267,4.924,4.924,0,0,1-2.8.827,5.1,5.1,0,0,1-3.8-1.472,5.475,5.475,0,0,1-1.45-4.018A5.448,5.448,0,0,1-27.43-9.292a5.038,5.038,0,0,1,3.744-1.472,4.767,4.767,0,0,1,3.55,1.354A5.348,5.348,0,0,1-18.8-5.489Zm-4.888-3.846a3.293,3.293,0,0,0-2.2.747A3.42,3.42,0,0,0-27-6.413h6.327a3.138,3.138,0,0,0-.924-2.175A2.983,2.983,0,0,0-23.687-9.335Zm10.764-4.544a.782.782,0,0,0-.693.4,1.919,1.919,0,0,0-.252,1.042H-14.9a2.834,2.834,0,0,1,.526-1.772,1.693,1.693,0,0,1,1.418-.687,1.947,1.947,0,0,1,1.74,1.053.99.99,0,0,0,.881.526.777.777,0,0,0,.688-.381A1.889,1.889,0,0,0-9.4-14.738h1.042a2.821,2.821,0,0,1-.526,1.756,1.689,1.689,0,0,1-1.418.693,2,2,0,0,1-1.762-1.042A1.037,1.037,0,0,0-12.923-13.879Zm2.02,3.115a3.673,3.673,0,0,1,2.659.956,3.566,3.566,0,0,1,.994,2.7V0H-9.109V-6.692a2.5,2.5,0,0,0-.645-1.891A2.3,2.3,0,0,0-11.408-9.2a2.555,2.555,0,0,0-1.88.725,2.942,2.942,0,0,0-.741,2.154V0h-1.858V-10.56h1.858v1.354A3.526,3.526,0,0,1-10.9-10.764ZM.784.2A5.566,5.566,0,0,1-1.923-.451,4.771,4.771,0,0,1-3.83-2.369a5.89,5.89,0,0,1-.7-2.917,5.38,5.38,0,0,1,1.5-3.98,5.173,5.173,0,0,1,3.819-1.5,5.168,5.168,0,0,1,3.824,1.5A5.39,5.39,0,0,1,6.1-5.285,5.394,5.394,0,0,1,4.6-1.294,5.173,5.173,0,0,1,.784.2ZM.773-1.343a3.243,3.243,0,0,0,2.5-1.085,4.065,4.065,0,0,0,.994-2.857,4.05,4.05,0,0,0-.994-2.847,3.243,3.243,0,0,0-2.5-1.085A3.2,3.2,0,0,0-1.7-8.132a4.077,4.077,0,0,0-.983,2.847A4.092,4.092,0,0,0-1.7-2.428,3.2,3.2,0,0,0,.773-1.343ZM22.526-16.5h1.858V0H22.591l-.043-2.052a3.885,3.885,0,0,1-1.5,1.665A4.191,4.191,0,0,1,18.81.226,4.746,4.746,0,0,1,16.9-.167a4.792,4.792,0,0,1-1.574-1.1A5.085,5.085,0,0,1,14.26-3.008a6.386,6.386,0,0,1-.392-2.267A5.553,5.553,0,0,1,15.3-9.238a4.629,4.629,0,0,1,3.507-1.525,4.209,4.209,0,0,1,2.208.6,3.908,3.908,0,0,1,1.509,1.617ZM19.2-1.386A3.162,3.162,0,0,0,21.651-2.5a4.013,4.013,0,0,0,.994-2.777,4.005,4.005,0,0,0-1-2.771A3.16,3.16,0,0,0,19.2-9.163a3.232,3.232,0,0,0-2.471,1.08,3.972,3.972,0,0,0-1,2.809,3.972,3.972,0,0,0,1,2.809A3.232,3.232,0,0,0,19.2-1.386ZM37.4-5.489l-.021.5h-8.25a3.731,3.731,0,0,0,1.01,2.7,3.315,3.315,0,0,0,2.406.94,3.166,3.166,0,0,0,1.751-.5,3.276,3.276,0,0,0,1.2-1.4l1.676.354a4.763,4.763,0,0,1-1.8,2.267A4.924,4.924,0,0,1,32.57.2a5.1,5.1,0,0,1-3.8-1.472,5.475,5.475,0,0,1-1.45-4.018,5.448,5.448,0,0,1,1.456-4.007,5.038,5.038,0,0,1,3.744-1.472,4.767,4.767,0,0,1,3.55,1.354A5.348,5.348,0,0,1,37.4-5.489ZM32.517-9.335a3.293,3.293,0,0,0-2.2.747,3.42,3.42,0,0,0-1.112,2.175h6.327a3.138,3.138,0,0,0-.924-2.175A2.983,2.983,0,0,0,32.517-9.335ZM46.03,0V-16.5h1.88V0Zm8.1.2a3.593,3.593,0,0,1-2.315-.725,2.6,2.6,0,0,1-.908-2.165,3.076,3.076,0,0,1,.29-1.38,2.433,2.433,0,0,1,.859-.961,5.155,5.155,0,0,1,1.241-.6A11.469,11.469,0,0,1,54.9-6l1.708-.279q.935-.172.935-.978a1.845,1.845,0,0,0-.661-1.574,2.692,2.692,0,0,0-1.67-.5,2.742,2.742,0,0,0-1.654.483,2.023,2.023,0,0,0-.784,1.482L51.1-7.724a3.225,3.225,0,0,1,1.321-2.261,4.937,4.937,0,0,1,2.879-.757,5.839,5.839,0,0,1,1.531.188,4.16,4.16,0,0,1,1.278.591,2.65,2.65,0,0,1,.913,1.139,4.237,4.237,0,0,1,.328,1.735v4.361a1.784,1.784,0,0,0,.242,1.1,1.043,1.043,0,0,0,.833.285H60.6V0h-.924a1.762,1.762,0,0,1-2-1.429h-.086A4.035,4.035,0,0,1,54.13.2Zm.43-1.5A2.818,2.818,0,0,0,56.826-2.32a4.2,4.2,0,0,0,.859-2.793l-2.793.537a3.76,3.76,0,0,0-1.638.585,1.362,1.362,0,0,0-.532,1.155,1.346,1.346,0,0,0,.51,1.16A2.181,2.181,0,0,0,54.56-1.3ZM-63.347,25V9.875h1.923V25Zm11.172-10.764a3.673,3.673,0,0,1,2.659.956,3.566,3.566,0,0,1,.994,2.7V25h-1.858V18.308a2.5,2.5,0,0,0-.645-1.891A2.3,2.3,0,0,0-52.68,15.8a2.555,2.555,0,0,0-1.88.725,2.942,2.942,0,0,0-.741,2.154V25h-1.858V14.44H-55.3v1.354A3.526,3.526,0,0,1-52.175,14.236Zm13.471.2h1.987L-41.014,25h-1.579l-4.275-10.56h1.977l3.094,8.4Zm13.009,5.07-.021.5h-8.25a3.731,3.731,0,0,0,1.01,2.7,3.315,3.315,0,0,0,2.406.94,3.166,3.166,0,0,0,1.751-.5,3.276,3.276,0,0,0,1.2-1.4l1.676.354a4.763,4.763,0,0,1-1.8,2.267,4.924,4.924,0,0,1-2.8.827,5.1,5.1,0,0,1-3.8-1.472,5.475,5.475,0,0,1-1.45-4.018,5.448,5.448,0,0,1,1.456-4.007,5.038,5.038,0,0,1,3.744-1.472,4.767,4.767,0,0,1,3.55,1.354A5.348,5.348,0,0,1-25.7,19.511Zm-4.888-3.846a3.293,3.293,0,0,0-2.2.747,3.42,3.42,0,0,0-1.112,2.175h6.327a3.138,3.138,0,0,0-.924-2.175A2.983,2.983,0,0,0-30.583,15.665Zm11.14,9.539a5.006,5.006,0,0,1-2.847-.763,3.155,3.155,0,0,1-1.386-2.17l1.622-.462a2.262,2.262,0,0,0,.865,1.466,2.805,2.805,0,0,0,1.735.521,3.462,3.462,0,0,0,1.015-.14,1.627,1.627,0,0,0,.779-.521,1.4,1.4,0,0,0,.312-.961,1.4,1.4,0,0,0-.086-.435,1.865,1.865,0,0,0-.172-.349,1.064,1.064,0,0,0-.3-.29,3.966,3.966,0,0,0-.365-.226,3.749,3.749,0,0,0-.478-.2q-.317-.113-.51-.172t-.591-.172q-.4-.113-.612-.177a11.455,11.455,0,0,1-1.1-.387,4.805,4.805,0,0,1-.892-.51,2.053,2.053,0,0,1-.693-.833,2.817,2.817,0,0,1-.231-1.182,2.731,2.731,0,0,1,.516-1.687,2.9,2.9,0,0,1,1.337-.994,5.346,5.346,0,0,1,1.875-.306,4.588,4.588,0,0,1,2.573.688,2.934,2.934,0,0,1,1.284,2.063l-1.525.387a2.022,2.022,0,0,0-.806-1.337,2.565,2.565,0,0,0-1.515-.446,2.614,2.614,0,0,0-1.418.371,1.246,1.246,0,0,0-.591,1.133,1.128,1.128,0,0,0,.156.585,1.859,1.859,0,0,0,.317.414,1.948,1.948,0,0,0,.58.317q.419.167.623.226t.773.2q.107.032.161.043.623.161,1.015.285a6.24,6.24,0,0,1,.913.387,3.036,3.036,0,0,1,.822.575,2.662,2.662,0,0,1,.516.816,2.882,2.882,0,0,1,.215,1.139,3.075,3.075,0,0,1-.317,1.423,2.479,2.479,0,0,1-.865.972,4.182,4.182,0,0,1-1.23.532A5.86,5.86,0,0,1-19.443,25.2ZM-9.26,25a2.776,2.776,0,0,1-2.062-.757,2.865,2.865,0,0,1-.752-2.111V15.923h-2.159V14.44h.795a1.526,1.526,0,0,0,1.166-.371,1.824,1.824,0,0,0,.338-1.241V10.917h1.729V14.44h2.428v1.482h-2.428v6.016A1.6,1.6,0,0,0-9.8,23.1a1.411,1.411,0,0,0,1.058.414h.967V25Zm5.113-13.041a1.209,1.209,0,0,1-.886-.371A1.209,1.209,0,0,1-5.4,10.7a1.192,1.192,0,0,1,.371-.881,1.218,1.218,0,0,1,.886-.365,1.206,1.206,0,0,1,.875.365A1.192,1.192,0,0,1-2.9,10.7a1.209,1.209,0,0,1-.371.886A1.2,1.2,0,0,1-4.146,11.959ZM-5.092,25V14.44h1.869V25Zm13.3-10.56h1.8V24.463a5.752,5.752,0,0,1-1.364,4.114,4.959,4.959,0,0,1-3.781,1.439A4.992,4.992,0,0,1-.258,26.783l1.536-.752A3.491,3.491,0,0,0,4.813,28.47a3.031,3.031,0,0,0,2.476-1.031,4.389,4.389,0,0,0,.854-2.879V22.6a3.721,3.721,0,0,1-1.5,1.52,4.376,4.376,0,0,1-2.2.575,4.527,4.527,0,0,1-3.416-1.488A5.247,5.247,0,0,1-.387,19.457a5.2,5.2,0,0,1,1.413-3.744,4.572,4.572,0,0,1,3.432-1.477,4.266,4.266,0,0,1,2.213.591,3.8,3.8,0,0,1,1.493,1.558ZM4.855,23.12a3.2,3.2,0,0,0,2.433-1.085,3.832,3.832,0,0,0,.005-5.167,3.189,3.189,0,0,0-2.438-1.085,3.217,3.217,0,0,0-2.433,1.053,3.671,3.671,0,0,0-.994,2.621,3.64,3.64,0,0,0,1,2.6A3.219,3.219,0,0,0,4.855,23.12ZM16.231,25.2a3.593,3.593,0,0,1-2.315-.725,2.6,2.6,0,0,1-.908-2.165,3.076,3.076,0,0,1,.29-1.38,2.433,2.433,0,0,1,.859-.961,5.155,5.155,0,0,1,1.241-.6A11.469,11.469,0,0,1,17,19l1.708-.279q.935-.172.935-.978a1.845,1.845,0,0,0-.661-1.574,2.692,2.692,0,0,0-1.67-.5,2.742,2.742,0,0,0-1.654.483,2.023,2.023,0,0,0-.784,1.482L13.2,17.276a3.225,3.225,0,0,1,1.321-2.261,4.937,4.937,0,0,1,2.879-.757,5.839,5.839,0,0,1,1.531.188,4.16,4.16,0,0,1,1.278.591,2.65,2.65,0,0,1,.913,1.139,4.237,4.237,0,0,1,.328,1.735v4.361a1.784,1.784,0,0,0,.242,1.1,1.043,1.043,0,0,0,.833.285H22.7V25h-.924a1.762,1.762,0,0,1-2-1.429H19.69A4.035,4.035,0,0,1,16.231,25.2Zm.43-1.5a2.818,2.818,0,0,0,2.267-1.021,4.2,4.2,0,0,0,.859-2.793l-2.793.537a3.76,3.76,0,0,0-1.638.585,1.362,1.362,0,0,0-.532,1.155,1.346,1.346,0,0,0,.51,1.16A2.181,2.181,0,0,0,16.661,23.7Zm12.826,1.493a5.086,5.086,0,0,1-3.781-1.515,5.4,5.4,0,0,1-1.493-3.964A5.414,5.414,0,0,1,25.7,15.751a5.5,5.5,0,0,1,6.843-.591,4.662,4.662,0,0,1,1.778,2.567l-1.74.279a3.214,3.214,0,0,0-1.192-1.644,3.247,3.247,0,0,0-1.912-.58,3.122,3.122,0,0,0-2.444,1.085,4.133,4.133,0,0,0-.961,2.847,4.113,4.113,0,0,0,.961,2.841,3.129,3.129,0,0,0,2.444,1.08,3.247,3.247,0,0,0,1.912-.58,3.214,3.214,0,0,0,1.192-1.644l1.74.29a4.668,4.668,0,0,1-1.789,2.562A5.115,5.115,0,0,1,29.487,25.193Zm8.519-13.234A1.265,1.265,0,0,1,36.749,10.7a1.192,1.192,0,0,1,.371-.881,1.218,1.218,0,0,1,.886-.365,1.206,1.206,0,0,1,.875.365,1.192,1.192,0,0,1,.371.881,1.209,1.209,0,0,1-.371.886A1.2,1.2,0,0,1,38.006,11.959ZM37.061,25V14.44H38.93V25Zm9.389-12.375,2.7-3.5.988.72-2.406,2.782ZM47.158,25.2a5.566,5.566,0,0,1-2.707-.655,4.771,4.771,0,0,1-1.907-1.917,5.89,5.89,0,0,1-.7-2.917,5.38,5.38,0,0,1,1.5-3.98,5.622,5.622,0,0,1,7.643,0,5.39,5.39,0,0,1,1.493,3.98,5.394,5.394,0,0,1-1.5,3.991A5.173,5.173,0,0,1,47.158,25.2Zm-.011-1.547a3.243,3.243,0,0,0,2.5-1.085,4.065,4.065,0,0,0,.994-2.857,4.05,4.05,0,0,0-.994-2.847,3.243,3.243,0,0,0-2.5-1.085,3.2,3.2,0,0,0-2.476,1.085,4.077,4.077,0,0,0-.983,2.847,4.092,4.092,0,0,0,.983,2.857A3.2,3.2,0,0,0,47.147,23.657Zm13.224-9.421a3.673,3.673,0,0,1,2.659.956,3.566,3.566,0,0,1,.994,2.7V25H62.165V18.308a2.5,2.5,0,0,0-.645-1.891,2.3,2.3,0,0,0-1.654-.612,2.555,2.555,0,0,0-1.88.725,2.942,2.942,0,0,0-.741,2.154V25H55.387V14.44h1.858v1.354A3.526,3.526,0,0,1,60.371,14.236Z" transform="translate(960 9795)" fill="#00223d"/>
    <path id="Trazado_36854" data-name="Trazado 36854" d="M0,0H240V130H0Z" transform="translate(1258 9735)" fill="#f7be75"/>
    <path id="Trazado_36856" data-name="Trazado 36856" d="M13.1,21V5.875h1.923V21ZM24.275,10.236a3.673,3.673,0,0,1,2.659.956,3.566,3.566,0,0,1,.994,2.7V21H26.069V14.308a2.5,2.5,0,0,0-.645-1.891,2.3,2.3,0,0,0-1.654-.612,2.555,2.555,0,0,0-1.88.725,2.942,2.942,0,0,0-.741,2.154V21H19.291V10.44h1.858v1.354A3.526,3.526,0,0,1,24.275,10.236ZM34.856,21.2a5.006,5.006,0,0,1-2.847-.763,3.155,3.155,0,0,1-1.386-2.17l1.622-.462a2.262,2.262,0,0,0,.865,1.466,2.805,2.805,0,0,0,1.735.521,3.462,3.462,0,0,0,1.015-.14,1.627,1.627,0,0,0,.779-.521,1.453,1.453,0,0,0,.226-1.4,1.865,1.865,0,0,0-.172-.349,1.064,1.064,0,0,0-.3-.29,3.966,3.966,0,0,0-.365-.226,3.749,3.749,0,0,0-.478-.2q-.317-.113-.51-.172t-.591-.172q-.4-.113-.612-.177a11.454,11.454,0,0,1-1.1-.387,4.805,4.805,0,0,1-.892-.51,2.053,2.053,0,0,1-.693-.833,2.817,2.817,0,0,1-.231-1.182,2.731,2.731,0,0,1,.516-1.687,2.9,2.9,0,0,1,1.337-.994,5.346,5.346,0,0,1,1.875-.306,4.588,4.588,0,0,1,2.573.688,2.934,2.934,0,0,1,1.284,2.063l-1.525.387a2.022,2.022,0,0,0-.806-1.337,2.565,2.565,0,0,0-1.515-.446,2.614,2.614,0,0,0-1.418.371,1.246,1.246,0,0,0-.591,1.133,1.128,1.128,0,0,0,.156.585,1.859,1.859,0,0,0,.317.414,1.948,1.948,0,0,0,.58.317q.419.167.623.226t.773.2q.107.032.161.043.623.161,1.015.285a6.239,6.239,0,0,1,.913.387,3.036,3.036,0,0,1,.822.575,2.663,2.663,0,0,1,.516.816,2.882,2.882,0,0,1,.215,1.139,3.075,3.075,0,0,1-.317,1.423,2.479,2.479,0,0,1-.865.972,4.182,4.182,0,0,1-1.23.532A5.86,5.86,0,0,1,34.856,21.2ZM45.04,21a2.776,2.776,0,0,1-2.062-.757,2.865,2.865,0,0,1-.752-2.111V11.923H40.066V10.44h.795a1.526,1.526,0,0,0,1.166-.371,1.824,1.824,0,0,0,.338-1.241V6.917h1.729V10.44h2.428v1.482H44.095v6.016a1.6,1.6,0,0,0,.4,1.166,1.411,1.411,0,0,0,1.058.414h.967V21Zm5.983-8.7a3.192,3.192,0,0,1,1.311-1.418,3.947,3.947,0,0,1,2.03-.559v1.751a3.479,3.479,0,0,0-2.455.784,3.276,3.276,0,0,0-.843,2.5V21H49.208V10.44h1.815Zm12.1-1.858h1.858V21H63.194l-.043-1.4a3.3,3.3,0,0,1-1.311,1.187,4.031,4.031,0,0,1-1.848.414,3.673,3.673,0,0,1-2.659-.956,3.566,3.566,0,0,1-.994-2.7V10.44H58.2v6.692a2.506,2.506,0,0,0,.65,1.891,2.3,2.3,0,0,0,1.66.623,2.527,2.527,0,0,0,1.875-.73,2.975,2.975,0,0,0,.736-2.159Zm16.436-.2a3.4,3.4,0,0,1,2.46.9,3.327,3.327,0,0,1,.935,2.519V21H81.091V14.136a2.386,2.386,0,0,0-.58-1.74,1.975,1.975,0,0,0-1.472-.591,2.085,2.085,0,0,0-1.611.666,2.864,2.864,0,0,0-.612,2V21H74.925V14.211a2.5,2.5,0,0,0-.585-1.8,1.991,1.991,0,0,0-1.5-.607,2.066,2.066,0,0,0-1.606.682,2.963,2.963,0,0,0-.618,2.046V21H68.759V10.44h1.858V11.8a3.208,3.208,0,0,1,1.208-1.16,3.446,3.446,0,0,1,1.681-.408,3.587,3.587,0,0,1,1.8.446,2.775,2.775,0,0,1,1.171,1.284,3.286,3.286,0,0,1,1.268-1.284A3.626,3.626,0,0,1,79.555,10.236Zm16.231,5.274-.021.5h-8.25a3.731,3.731,0,0,0,1.01,2.7,3.315,3.315,0,0,0,2.406.94,3.166,3.166,0,0,0,1.751-.5,3.276,3.276,0,0,0,1.2-1.4l1.676.354a4.763,4.763,0,0,1-1.8,2.267,4.924,4.924,0,0,1-2.8.827,5.1,5.1,0,0,1-3.8-1.472,5.475,5.475,0,0,1-1.45-4.018,5.448,5.448,0,0,1,1.456-4.007A5.038,5.038,0,0,1,90.9,10.236a4.767,4.767,0,0,1,3.55,1.354A5.348,5.348,0,0,1,95.786,15.511ZM90.9,11.665a3.293,3.293,0,0,0-2.2.747,3.42,3.42,0,0,0-1.112,2.175h6.327a3.138,3.138,0,0,0-.924-2.175A2.983,2.983,0,0,0,90.9,11.665Zm12.783-1.429a3.673,3.673,0,0,1,2.659.956,3.566,3.566,0,0,1,.994,2.7V21h-1.858V14.308a2.5,2.5,0,0,0-.645-1.891,2.3,2.3,0,0,0-1.654-.612,2.555,2.555,0,0,0-1.88.725,2.942,2.942,0,0,0-.741,2.154V21H98.7V10.44h1.858v1.354A3.526,3.526,0,0,1,103.682,10.236ZM114.295,21a2.776,2.776,0,0,1-2.062-.757,2.865,2.865,0,0,1-.752-2.111V11.923h-2.159V10.44h.795a1.526,1.526,0,0,0,1.166-.371,1.824,1.824,0,0,0,.338-1.241V6.917h1.729V10.44h2.428v1.482H113.35v6.016a1.6,1.6,0,0,0,.4,1.166,1.411,1.411,0,0,0,1.058.414h.967V21Zm8.486.2a5.566,5.566,0,0,1-2.707-.655,4.771,4.771,0,0,1-1.907-1.917,5.89,5.89,0,0,1-.7-2.917,5.38,5.38,0,0,1,1.5-3.98,5.622,5.622,0,0,1,7.643,0,5.39,5.39,0,0,1,1.493,3.98,5.394,5.394,0,0,1-1.5,3.991A5.173,5.173,0,0,1,122.781,21.2Zm-.011-1.547a3.243,3.243,0,0,0,2.5-1.085,4.065,4.065,0,0,0,.994-2.857,4.05,4.05,0,0,0-.994-2.847,3.243,3.243,0,0,0-2.5-1.085,3.2,3.2,0,0,0-2.476,1.085,4.077,4.077,0,0,0-.983,2.847,4.092,4.092,0,0,0,.983,2.857A3.2,3.2,0,0,0,122.771,19.657Zm11.58,1.547a5.006,5.006,0,0,1-2.847-.763,3.155,3.155,0,0,1-1.386-2.17l1.622-.462a2.262,2.262,0,0,0,.865,1.466,2.805,2.805,0,0,0,1.735.521,3.462,3.462,0,0,0,1.015-.14,1.627,1.627,0,0,0,.779-.521,1.453,1.453,0,0,0,.226-1.4,1.865,1.865,0,0,0-.172-.349,1.064,1.064,0,0,0-.3-.29,3.965,3.965,0,0,0-.365-.226,3.749,3.749,0,0,0-.478-.2q-.317-.113-.51-.172t-.591-.172q-.4-.113-.612-.177a11.453,11.453,0,0,1-1.1-.387,4.805,4.805,0,0,1-.892-.51,2.053,2.053,0,0,1-.693-.833,2.817,2.817,0,0,1-.231-1.182,2.731,2.731,0,0,1,.516-1.687,2.9,2.9,0,0,1,1.337-.994,5.346,5.346,0,0,1,1.875-.306,4.588,4.588,0,0,1,2.573.688A2.934,2.934,0,0,1,138,13.008l-1.525.387a2.022,2.022,0,0,0-.806-1.337,2.565,2.565,0,0,0-1.515-.446,2.614,2.614,0,0,0-1.418.371,1.246,1.246,0,0,0-.591,1.133,1.128,1.128,0,0,0,.156.585,1.859,1.859,0,0,0,.317.414,1.948,1.948,0,0,0,.58.317q.419.167.623.226t.773.2q.107.032.161.043.623.161,1.015.285a6.239,6.239,0,0,1,.913.387,3.035,3.035,0,0,1,.822.575,2.663,2.663,0,0,1,.516.816,2.882,2.882,0,0,1,.215,1.139,3.075,3.075,0,0,1-.317,1.423,2.479,2.479,0,0,1-.865.972,4.182,4.182,0,0,1-1.23.532A5.86,5.86,0,0,1,134.351,21.2ZM10.907,29.5h1.858V46H10.971l-.043-2.052a3.885,3.885,0,0,1-1.5,1.665,4.191,4.191,0,0,1-2.234.612A4.8,4.8,0,0,1,3.7,44.738a5.085,5.085,0,0,1-1.063-1.746,6.386,6.386,0,0,1-.392-2.267,5.553,5.553,0,0,1,1.434-3.964A4.629,4.629,0,0,1,7.19,35.236a4.209,4.209,0,0,1,2.208.6,3.908,3.908,0,0,1,1.509,1.617ZM7.577,44.614A3.162,3.162,0,0,0,10.031,43.5a4.36,4.36,0,0,0-.005-5.548,3.16,3.16,0,0,0-2.449-1.117,3.232,3.232,0,0,0-2.471,1.08,4.449,4.449,0,0,0,0,5.618A3.232,3.232,0,0,0,7.577,44.614Zm18.208-4.1-.021.5h-8.25a3.731,3.731,0,0,0,1.01,2.7,3.315,3.315,0,0,0,2.406.94,3.166,3.166,0,0,0,1.751-.5,3.276,3.276,0,0,0,1.2-1.4l1.676.354a4.763,4.763,0,0,1-1.8,2.267,4.924,4.924,0,0,1-2.8.827,5.1,5.1,0,0,1-3.8-1.472,5.475,5.475,0,0,1-1.45-4.018,5.448,5.448,0,0,1,1.456-4.007A5.038,5.038,0,0,1,20.9,35.236a4.767,4.767,0,0,1,3.55,1.354A5.348,5.348,0,0,1,25.785,40.511ZM20.9,36.665a3.293,3.293,0,0,0-2.2.747,3.42,3.42,0,0,0-1.112,2.175h6.327a3.138,3.138,0,0,0-.924-2.175A2.983,2.983,0,0,0,20.9,36.665Zm15.329.634a3.192,3.192,0,0,1,1.311-1.418,3.947,3.947,0,0,1,2.03-.559v1.751a3.479,3.479,0,0,0-2.455.784,3.276,3.276,0,0,0-.843,2.5V46H34.411V35.44h1.815Zm14.631,3.212-.021.5h-8.25a3.731,3.731,0,0,0,1.01,2.7,3.315,3.315,0,0,0,2.406.94,3.166,3.166,0,0,0,1.751-.5,3.276,3.276,0,0,0,1.2-1.4l1.676.354a4.763,4.763,0,0,1-1.8,2.267,4.924,4.924,0,0,1-2.8.827,5.1,5.1,0,0,1-3.8-1.472,5.475,5.475,0,0,1-1.45-4.018,5.448,5.448,0,0,1,1.456-4.007,5.038,5.038,0,0,1,3.744-1.472,4.767,4.767,0,0,1,3.55,1.354A5.348,5.348,0,0,1,50.857,40.511Zm-4.888-3.846a3.293,3.293,0,0,0-2.2.747,3.42,3.42,0,0,0-1.112,2.175h6.327a3.138,3.138,0,0,0-.924-2.175A2.983,2.983,0,0,0,45.969,36.665Zm12.182,9.528a5.086,5.086,0,0,1-3.781-1.515,5.4,5.4,0,0,1-1.493-3.964,5.414,5.414,0,0,1,1.488-3.964,5.5,5.5,0,0,1,6.843-.591,4.662,4.662,0,0,1,1.778,2.567l-1.74.279a3.214,3.214,0,0,0-1.192-1.644,3.247,3.247,0,0,0-1.912-.58A3.122,3.122,0,0,0,55.7,37.868a4.687,4.687,0,0,0,0,5.688,3.129,3.129,0,0,0,2.444,1.08,3.247,3.247,0,0,0,1.912-.58,3.214,3.214,0,0,0,1.192-1.644l1.74.29A4.668,4.668,0,0,1,61.2,45.264,5.115,5.115,0,0,1,58.151,46.193Zm12.021.011a5.566,5.566,0,0,1-2.707-.655,4.771,4.771,0,0,1-1.907-1.917,5.89,5.89,0,0,1-.7-2.917,5.38,5.38,0,0,1,1.5-3.98,5.622,5.622,0,0,1,7.643,0,5.39,5.39,0,0,1,1.493,3.98,5.394,5.394,0,0,1-1.5,3.991A5.173,5.173,0,0,1,70.171,46.2Zm-.011-1.547a3.243,3.243,0,0,0,2.5-1.085,4.59,4.59,0,0,0,0-5.7,3.243,3.243,0,0,0-2.5-1.085,3.2,3.2,0,0,0-2.476,1.085,4.629,4.629,0,0,0,0,5.7A3.2,3.2,0,0,0,70.161,44.657ZM78.4,46V29.5h1.88V46Zm14.9-5.489-.021.5h-8.25a3.731,3.731,0,0,0,1.01,2.7,3.315,3.315,0,0,0,2.406.94,3.166,3.166,0,0,0,1.751-.5,3.276,3.276,0,0,0,1.2-1.4l1.676.354a4.763,4.763,0,0,1-1.8,2.267,4.924,4.924,0,0,1-2.8.827,5.1,5.1,0,0,1-3.8-1.472,5.475,5.475,0,0,1-1.45-4.018,5.448,5.448,0,0,1,1.456-4.007,5.038,5.038,0,0,1,3.744-1.472,4.767,4.767,0,0,1,3.55,1.354A5.348,5.348,0,0,1,93.3,40.511Zm-4.888-3.846a3.293,3.293,0,0,0-2.2.747A3.42,3.42,0,0,0,85.1,39.587H91.43a3.138,3.138,0,0,0-.924-2.175A2.983,2.983,0,0,0,88.412,36.665Zm12.182,9.528a5.086,5.086,0,0,1-3.781-1.515,5.4,5.4,0,0,1-1.493-3.964,5.414,5.414,0,0,1,1.488-3.964,5.5,5.5,0,0,1,6.843-.591,4.662,4.662,0,0,1,1.778,2.567l-1.74.279a3.214,3.214,0,0,0-1.192-1.644,3.247,3.247,0,0,0-1.912-.58,3.122,3.122,0,0,0-2.444,1.085,4.687,4.687,0,0,0,0,5.688,3.129,3.129,0,0,0,2.444,1.08,3.247,3.247,0,0,0,1.912-.58,3.214,3.214,0,0,0,1.192-1.644l1.74.29a4.668,4.668,0,0,1-1.789,2.562A5.115,5.115,0,0,1,100.593,46.193Zm11.956,0a5.086,5.086,0,0,1-3.781-1.515,5.4,5.4,0,0,1-1.493-3.964,5.414,5.414,0,0,1,1.488-3.964,5.5,5.5,0,0,1,6.843-.591,4.662,4.662,0,0,1,1.778,2.567l-1.74.279a3.214,3.214,0,0,0-1.192-1.644,3.247,3.247,0,0,0-1.912-.58,3.122,3.122,0,0,0-2.444,1.085,4.687,4.687,0,0,0,0,5.688,3.129,3.129,0,0,0,2.444,1.08,3.247,3.247,0,0,0,1.912-.58,3.214,3.214,0,0,0,1.192-1.644l1.74.29a4.668,4.668,0,0,1-1.789,2.562A5.115,5.115,0,0,1,112.549,46.193Zm8.519-13.234a1.265,1.265,0,0,1-1.257-1.257,1.192,1.192,0,0,1,.371-.881,1.218,1.218,0,0,1,.886-.365,1.206,1.206,0,0,1,.875.365,1.192,1.192,0,0,1,.371.881,1.209,1.209,0,0,1-.371.886A1.2,1.2,0,0,1,121.068,32.959ZM120.123,46V35.44h1.869V46Zm9.389-12.375,2.7-3.5.988.72-2.406,2.782ZM130.22,46.2a5.566,5.566,0,0,1-2.707-.655,4.771,4.771,0,0,1-1.907-1.917,5.89,5.89,0,0,1-.7-2.917,5.38,5.38,0,0,1,1.5-3.98,5.622,5.622,0,0,1,7.643,0,5.39,5.39,0,0,1,1.493,3.98,5.394,5.394,0,0,1-1.5,3.991A5.173,5.173,0,0,1,130.22,46.2Zm-.011-1.547a3.243,3.243,0,0,0,2.5-1.085,4.59,4.59,0,0,0,0-5.7,3.243,3.243,0,0,0-2.5-1.085,3.2,3.2,0,0,0-2.476,1.085,4.629,4.629,0,0,0,0,5.7A3.2,3.2,0,0,0,130.209,44.657Zm13.224-9.421a3.673,3.673,0,0,1,2.659.956,3.566,3.566,0,0,1,.994,2.7V46h-1.858V39.308a2.5,2.5,0,0,0-.645-1.891,2.3,2.3,0,0,0-1.654-.612,2.555,2.555,0,0,0-1.88.725,2.942,2.942,0,0,0-.741,2.154V46h-1.858V35.44h1.858v1.354A3.526,3.526,0,0,1,143.433,35.236Z" transform="translate(1305 9774)" fill="#00223d"/>
    <path id="Trazado_36850" data-name="Trazado 36850" d="M0,0H240V130H0Z" transform="translate(422 10003)" fill="#f7be75"/>
    <path id="Trazado_36851" data-name="Trazado 36851" d="M-69.287,0l-3.889-6.821H-75.55V0h-1.923V-15.125h5.017a4.517,4.517,0,0,1,3.389,1.2A4.229,4.229,0,0,1-67.9-10.85a3.946,3.946,0,0,1-.886,2.632A3.962,3.962,0,0,1-71.253-6.9L-67.042,0ZM-75.55-13.438v5.1h2.836A3.167,3.167,0,0,0-70.5-9.018a2.394,2.394,0,0,0,.741-1.853,2.437,2.437,0,0,0-.747-1.869,3.123,3.123,0,0,0-2.208-.7Zm19.873,7.949-.021.5h-8.25a3.731,3.731,0,0,0,1.01,2.7,3.315,3.315,0,0,0,2.406.94,3.166,3.166,0,0,0,1.751-.5,3.276,3.276,0,0,0,1.2-1.4l1.676.354a4.763,4.763,0,0,1-1.8,2.267,4.924,4.924,0,0,1-2.8.827,5.1,5.1,0,0,1-3.8-1.472,5.475,5.475,0,0,1-1.45-4.018,5.448,5.448,0,0,1,1.456-4.007,5.038,5.038,0,0,1,3.744-1.472,4.767,4.767,0,0,1,3.55,1.354A5.348,5.348,0,0,1-55.677-5.489Zm-4.888-3.846a3.293,3.293,0,0,0-2.2.747,3.42,3.42,0,0,0-1.112,2.175h6.327a3.138,3.138,0,0,0-.924-2.175A2.983,2.983,0,0,0-60.564-9.335ZM-48.383.193a5.086,5.086,0,0,1-3.781-1.515,5.4,5.4,0,0,1-1.493-3.964,5.414,5.414,0,0,1,1.488-3.964,5.081,5.081,0,0,1,3.787-1.515,5.123,5.123,0,0,1,3.056.924,4.662,4.662,0,0,1,1.778,2.567l-1.74.279a3.214,3.214,0,0,0-1.192-1.644,3.247,3.247,0,0,0-1.912-.58,3.122,3.122,0,0,0-2.444,1.085A4.133,4.133,0,0,0-51.8-5.285a4.113,4.113,0,0,0,.961,2.841,3.129,3.129,0,0,0,2.444,1.08,3.247,3.247,0,0,0,1.912-.58,3.214,3.214,0,0,0,1.192-1.644l1.74.29A4.668,4.668,0,0,1-45.337-.736,5.115,5.115,0,0,1-48.383.193ZM-36.362.2a5.566,5.566,0,0,1-2.707-.655,4.771,4.771,0,0,1-1.907-1.917,5.89,5.89,0,0,1-.7-2.917,5.38,5.38,0,0,1,1.5-3.98,5.173,5.173,0,0,1,3.819-1.5,5.168,5.168,0,0,1,3.824,1.5,5.39,5.39,0,0,1,1.493,3.98,5.394,5.394,0,0,1-1.5,3.991A5.173,5.173,0,0,1-36.362.2Zm-.011-1.547a3.243,3.243,0,0,0,2.5-1.085,4.065,4.065,0,0,0,.994-2.857,4.05,4.05,0,0,0-.994-2.847,3.243,3.243,0,0,0-2.5-1.085,3.2,3.2,0,0,0-2.476,1.085,4.077,4.077,0,0,0-.983,2.847,4.092,4.092,0,0,0,.983,2.857A3.2,3.2,0,0,0-36.373-1.343Zm13.814-9.421a4.8,4.8,0,0,1,1.912.387,4.7,4.7,0,0,1,1.568,1.085,5.071,5.071,0,0,1,1.058,1.74,6.417,6.417,0,0,1,.392,2.277,5.583,5.583,0,0,1-1.423,3.985A4.623,4.623,0,0,1-22.559.226a4.18,4.18,0,0,1-2.208-.6A3.943,3.943,0,0,1-26.275-2V5.317h-1.858V-10.56h1.794l.043,2.052a3.865,3.865,0,0,1,1.5-1.649A4.219,4.219,0,0,1-22.559-10.764Zm-.365,9.378A3.206,3.206,0,0,0-20.48-2.455a3.976,3.976,0,0,0,.994-2.82,3.956,3.956,0,0,0-.994-2.814,3.214,3.214,0,0,0-2.444-1.063,3.222,3.222,0,0,0-2.481,1.112,3.96,3.96,0,0,0-1.01,2.766A3.975,3.975,0,0,0-25.405-2.5,3.222,3.222,0,0,0-22.924-1.386Zm9.174-11.655a1.209,1.209,0,0,1-.886-.371,1.209,1.209,0,0,1-.371-.886,1.192,1.192,0,0,1,.371-.881,1.218,1.218,0,0,1,.886-.365,1.206,1.206,0,0,1,.875.365,1.192,1.192,0,0,1,.371.881,1.209,1.209,0,0,1-.371.886A1.2,1.2,0,0,1-13.75-13.041ZM-14.7,0V-10.56h1.869V0Zm5.65,0V-16.5h1.88V0Zm8.1.2A3.593,3.593,0,0,1-3.26-.521a2.6,2.6,0,0,1-.908-2.165,3.076,3.076,0,0,1,.29-1.38,2.433,2.433,0,0,1,.859-.961,5.155,5.155,0,0,1,1.241-.6A11.469,11.469,0,0,1-.172-6l1.708-.279q.935-.172.935-.978A1.845,1.845,0,0,0,1.81-8.835a2.692,2.692,0,0,0-1.67-.5,2.742,2.742,0,0,0-1.654.483A2.023,2.023,0,0,0-2.3-7.369l-1.676-.354A3.225,3.225,0,0,1-2.653-9.985a4.937,4.937,0,0,1,2.879-.757,5.839,5.839,0,0,1,1.531.188,4.16,4.16,0,0,1,1.278.591,2.65,2.65,0,0,1,.913,1.139A4.237,4.237,0,0,1,4.275-7.09v4.361a1.784,1.784,0,0,0,.242,1.1,1.043,1.043,0,0,0,.833.285h.172V0H4.6a1.762,1.762,0,0,1-2-1.429H2.514A4.035,4.035,0,0,1-.945.2Zm.43-1.5A2.818,2.818,0,0,0,1.751-2.32,4.2,4.2,0,0,0,2.61-5.113l-2.793.537a3.76,3.76,0,0,0-1.638.585,1.362,1.362,0,0,0-.532,1.155,1.346,1.346,0,0,0,.51,1.16A2.181,2.181,0,0,0-.516-1.3ZM12.311.193A5.086,5.086,0,0,1,8.529-1.321,5.4,5.4,0,0,1,7.036-5.285,5.414,5.414,0,0,1,8.524-9.249a5.081,5.081,0,0,1,3.787-1.515,5.123,5.123,0,0,1,3.056.924,4.662,4.662,0,0,1,1.778,2.567l-1.74.279a3.214,3.214,0,0,0-1.192-1.644,3.247,3.247,0,0,0-1.912-.58A3.122,3.122,0,0,0,9.856-8.132a4.133,4.133,0,0,0-.961,2.847,4.113,4.113,0,0,0,.961,2.841A3.129,3.129,0,0,0,12.3-1.364a3.247,3.247,0,0,0,1.912-.58A3.214,3.214,0,0,0,15.4-3.588l1.74.29A4.668,4.668,0,0,1,15.356-.736,5.115,5.115,0,0,1,12.311.193Zm8.519-13.234a1.209,1.209,0,0,1-.886-.371,1.209,1.209,0,0,1-.371-.886,1.192,1.192,0,0,1,.371-.881,1.218,1.218,0,0,1,.886-.365,1.206,1.206,0,0,1,.875.365,1.192,1.192,0,0,1,.371.881,1.209,1.209,0,0,1-.371.886A1.2,1.2,0,0,1,20.829-13.041ZM19.884,0V-10.56h1.869V0Zm9.389-12.375,2.7-3.5.988.72-2.406,2.782ZM29.981.2a5.566,5.566,0,0,1-2.707-.655,4.771,4.771,0,0,1-1.907-1.917,5.89,5.89,0,0,1-.7-2.917,5.38,5.38,0,0,1,1.5-3.98,5.173,5.173,0,0,1,3.819-1.5,5.168,5.168,0,0,1,3.824,1.5A5.39,5.39,0,0,1,35.3-5.285a5.394,5.394,0,0,1-1.5,3.991A5.173,5.173,0,0,1,29.981.2Zm-.011-1.547a3.243,3.243,0,0,0,2.5-1.085,4.065,4.065,0,0,0,.994-2.857,4.05,4.05,0,0,0-.994-2.847,3.243,3.243,0,0,0-2.5-1.085,3.2,3.2,0,0,0-2.476,1.085,4.077,4.077,0,0,0-.983,2.847,4.092,4.092,0,0,0,.983,2.857A3.2,3.2,0,0,0,29.971-1.343Zm13.224-9.421a3.673,3.673,0,0,1,2.659.956,3.566,3.566,0,0,1,.994,2.7V0H44.988V-6.692a2.5,2.5,0,0,0-.645-1.891A2.3,2.3,0,0,0,42.689-9.2a2.555,2.555,0,0,0-1.88.725,2.942,2.942,0,0,0-.741,2.154V0H38.21V-10.56h1.858v1.354A3.526,3.526,0,0,1,43.194-10.764ZM63.948-16.5h1.858V0H64.013L63.97-2.052a3.885,3.885,0,0,1-1.5,1.665,4.191,4.191,0,0,1-2.234.612,4.746,4.746,0,0,1-1.912-.392,4.792,4.792,0,0,1-1.574-1.1,5.085,5.085,0,0,1-1.063-1.746,6.385,6.385,0,0,1-.392-2.267,5.553,5.553,0,0,1,1.434-3.964,4.629,4.629,0,0,1,3.507-1.525,4.209,4.209,0,0,1,2.208.6,3.908,3.908,0,0,1,1.509,1.617ZM60.618-1.386A3.162,3.162,0,0,0,63.073-2.5a4.013,4.013,0,0,0,.994-2.777,4.005,4.005,0,0,0-1-2.771,3.16,3.16,0,0,0-2.449-1.117,3.232,3.232,0,0,0-2.471,1.08,3.972,3.972,0,0,0-1,2.809,3.972,3.972,0,0,0,1,2.809A3.232,3.232,0,0,0,60.618-1.386Zm18.208-4.1-.021.5h-8.25a3.731,3.731,0,0,0,1.01,2.7,3.315,3.315,0,0,0,2.406.94,3.166,3.166,0,0,0,1.751-.5,3.276,3.276,0,0,0,1.2-1.4L78.6-2.89A4.763,4.763,0,0,1,76.8-.623a4.924,4.924,0,0,1-2.8.827,5.1,5.1,0,0,1-3.8-1.472,5.475,5.475,0,0,1-1.45-4.018,5.448,5.448,0,0,1,1.456-4.007,5.038,5.038,0,0,1,3.744-1.472,4.767,4.767,0,0,1,3.55,1.354A5.348,5.348,0,0,1,78.826-5.489ZM73.938-9.335a3.293,3.293,0,0,0-2.2.747A3.42,3.42,0,0,0,70.63-6.413h6.327a3.138,3.138,0,0,0-.924-2.175A2.983,2.983,0,0,0,73.938-9.335ZM-26.275,25V9.875H-21.4a7.232,7.232,0,0,1,3.851.978,5.963,5.963,0,0,1,2.363,2.659,9.34,9.34,0,0,1,.768,3.916,9.906,9.906,0,0,1-.446,3.056,6.923,6.923,0,0,1-1.305,2.39,5.726,5.726,0,0,1-2.2,1.568A7.811,7.811,0,0,1-21.4,25Zm1.923-1.751h2.89A4.606,4.606,0,0,0-17.687,21.7a6.539,6.539,0,0,0,1.273-4.275,6.484,6.484,0,0,0-1.278-4.254,4.609,4.609,0,0,0-3.771-1.547h-2.89ZM-8.723,25.2a3.593,3.593,0,0,1-2.315-.725,2.6,2.6,0,0,1-.908-2.165,3.076,3.076,0,0,1,.29-1.38,2.433,2.433,0,0,1,.859-.961,5.155,5.155,0,0,1,1.241-.6A11.469,11.469,0,0,1-7.949,19l1.708-.279q.935-.172.935-.978a1.845,1.845,0,0,0-.661-1.574,2.692,2.692,0,0,0-1.67-.5,2.742,2.742,0,0,0-1.654.483,2.023,2.023,0,0,0-.784,1.482l-1.676-.354a3.225,3.225,0,0,1,1.321-2.261,4.937,4.937,0,0,1,2.879-.757,5.839,5.839,0,0,1,1.531.188,4.16,4.16,0,0,1,1.278.591,2.65,2.65,0,0,1,.913,1.139A4.237,4.237,0,0,1-3.5,17.91v4.361a1.784,1.784,0,0,0,.242,1.1,1.043,1.043,0,0,0,.833.285h.172V25H-3.18a1.762,1.762,0,0,1-2-1.429h-.086A4.035,4.035,0,0,1-8.723,25.2Zm.43-1.5A2.818,2.818,0,0,0-6.026,22.68a4.2,4.2,0,0,0,.859-2.793l-2.793.537a3.76,3.76,0,0,0-1.638.585,1.362,1.362,0,0,0-.532,1.155,1.346,1.346,0,0,0,.51,1.16A2.181,2.181,0,0,0-8.293,23.7ZM3.674,25a2.776,2.776,0,0,1-2.062-.757,2.865,2.865,0,0,1-.752-2.111V15.923H-1.3V14.44H-.5A1.526,1.526,0,0,0,.661,14.07,1.824,1.824,0,0,0,1,12.829V10.917H2.729V14.44H5.156v1.482H2.729v6.016a1.6,1.6,0,0,0,.4,1.166,1.411,1.411,0,0,0,1.058.414h.967V25Zm8.486.2a5.566,5.566,0,0,1-2.707-.655,4.771,4.771,0,0,1-1.907-1.917,5.89,5.89,0,0,1-.7-2.917,5.38,5.38,0,0,1,1.5-3.98,5.173,5.173,0,0,1,3.819-1.5,5.168,5.168,0,0,1,3.824,1.5,5.39,5.39,0,0,1,1.493,3.98,5.394,5.394,0,0,1-1.5,3.991A5.173,5.173,0,0,1,12.16,25.2Zm-.011-1.547a3.243,3.243,0,0,0,2.5-1.085,4.065,4.065,0,0,0,.994-2.857,4.05,4.05,0,0,0-.994-2.847,3.243,3.243,0,0,0-2.5-1.085,3.2,3.2,0,0,0-2.476,1.085,4.077,4.077,0,0,0-.983,2.847,4.092,4.092,0,0,0,.983,2.857A3.2,3.2,0,0,0,12.149,23.657ZM23.729,25.2a5.006,5.006,0,0,1-2.847-.763,3.155,3.155,0,0,1-1.386-2.17l1.622-.462a2.262,2.262,0,0,0,.865,1.466,2.805,2.805,0,0,0,1.735.521,3.462,3.462,0,0,0,1.015-.14,1.627,1.627,0,0,0,.779-.521,1.453,1.453,0,0,0,.226-1.4,1.865,1.865,0,0,0-.172-.349,1.064,1.064,0,0,0-.3-.29,3.966,3.966,0,0,0-.365-.226,3.749,3.749,0,0,0-.478-.2q-.317-.113-.51-.172t-.591-.172q-.4-.113-.612-.177a11.455,11.455,0,0,1-1.1-.387,4.805,4.805,0,0,1-.892-.51,2.053,2.053,0,0,1-.693-.833,2.817,2.817,0,0,1-.231-1.182,2.731,2.731,0,0,1,.516-1.687,2.9,2.9,0,0,1,1.337-.994,5.346,5.346,0,0,1,1.875-.306,4.588,4.588,0,0,1,2.573.688,2.934,2.934,0,0,1,1.284,2.063l-1.525.387a2.022,2.022,0,0,0-.806-1.337,2.565,2.565,0,0,0-1.515-.446,2.614,2.614,0,0,0-1.418.371,1.246,1.246,0,0,0-.591,1.133,1.128,1.128,0,0,0,.156.585,1.859,1.859,0,0,0,.317.414,1.948,1.948,0,0,0,.58.317q.419.167.623.226t.773.2q.107.032.161.043.623.161,1.015.285a6.24,6.24,0,0,1,.913.387,3.036,3.036,0,0,1,.822.575,2.662,2.662,0,0,1,.516.816,2.882,2.882,0,0,1,.215,1.139,3.075,3.075,0,0,1-.317,1.423,2.479,2.479,0,0,1-.865.972,4.182,4.182,0,0,1-1.23.532A5.86,5.86,0,0,1,23.729,25.2Z" transform="translate(542 10063)" fill="#00223d"/>
    <path id="Trazado_36852" data-name="Trazado 36852" d="M0,0H240V130H0Z" transform="translate(840 10003)" fill="#f7be75"/>
    <path id="Trazado_36853" data-name="Trazado 36853" d="M-58.953-13.374H-65.1v4.952h5.414v1.729H-65.1v4.941h6.145V0h-8.11V-15.125h8.11ZM-52.411.2a5.006,5.006,0,0,1-2.847-.763,3.155,3.155,0,0,1-1.386-2.17l1.622-.462a2.262,2.262,0,0,0,.865,1.466,2.805,2.805,0,0,0,1.735.521,3.462,3.462,0,0,0,1.015-.14,1.627,1.627,0,0,0,.779-.521,1.4,1.4,0,0,0,.312-.961A1.4,1.4,0,0,0-50.4-3.26a1.865,1.865,0,0,0-.172-.349,1.064,1.064,0,0,0-.3-.29,3.966,3.966,0,0,0-.365-.226,3.749,3.749,0,0,0-.478-.2q-.317-.113-.51-.172t-.591-.172q-.4-.113-.612-.177a11.454,11.454,0,0,1-1.1-.387,4.805,4.805,0,0,1-.892-.51,2.053,2.053,0,0,1-.693-.833,2.817,2.817,0,0,1-.231-1.182,2.731,2.731,0,0,1,.516-1.687,2.9,2.9,0,0,1,1.337-.994,5.346,5.346,0,0,1,1.875-.306,4.588,4.588,0,0,1,2.573.688,2.934,2.934,0,0,1,1.284,2.063l-1.525.387a2.022,2.022,0,0,0-.806-1.337A2.565,2.565,0,0,0-52.6-9.389a2.614,2.614,0,0,0-1.418.371,1.246,1.246,0,0,0-.591,1.133,1.128,1.128,0,0,0,.156.585,1.859,1.859,0,0,0,.317.414,1.948,1.948,0,0,0,.58.317q.419.167.623.226t.773.2q.107.032.161.043.623.161,1.015.285a6.24,6.24,0,0,1,.913.387,3.036,3.036,0,0,1,.822.575,2.663,2.663,0,0,1,.516.816A2.882,2.882,0,0,1-48.522-2.9a3.075,3.075,0,0,1-.317,1.423A2.479,2.479,0,0,1-49.7-.5a4.182,4.182,0,0,1-1.23.532A5.86,5.86,0,0,1-52.411.2ZM-42.228,0A2.776,2.776,0,0,1-44.29-.757a2.865,2.865,0,0,1-.752-2.111V-9.077H-47.2V-10.56h.795a1.526,1.526,0,0,0,1.166-.371,1.824,1.824,0,0,0,.338-1.241v-1.912h1.729v3.523h2.428v1.482h-2.428v6.016a1.6,1.6,0,0,0,.4,1.166,1.411,1.411,0,0,0,1.058.414h.967V0Zm6.478.2a3.593,3.593,0,0,1-2.315-.725,2.6,2.6,0,0,1-.908-2.165,3.076,3.076,0,0,1,.29-1.38,2.433,2.433,0,0,1,.859-.961,5.155,5.155,0,0,1,1.241-.6A11.469,11.469,0,0,1-34.977-6l1.708-.279q.935-.172.935-.978a1.845,1.845,0,0,0-.661-1.574,2.692,2.692,0,0,0-1.67-.5,2.742,2.742,0,0,0-1.654.483A2.023,2.023,0,0,0-37.1-7.369l-1.676-.354a3.225,3.225,0,0,1,1.321-2.261,4.937,4.937,0,0,1,2.879-.757,5.839,5.839,0,0,1,1.531.188,4.16,4.16,0,0,1,1.278.591,2.65,2.65,0,0,1,.913,1.139,4.237,4.237,0,0,1,.328,1.735v4.361a1.784,1.784,0,0,0,.242,1.1,1.043,1.043,0,0,0,.833.285h.172V0h-.924a1.762,1.762,0,0,1-2-1.429h-.086A4.035,4.035,0,0,1-35.75.2Zm.43-1.5A2.818,2.818,0,0,0-33.054-2.32a4.2,4.2,0,0,0,.859-2.793l-2.793.537a3.76,3.76,0,0,0-1.638.585,1.362,1.362,0,0,0-.532,1.155,1.346,1.346,0,0,0,.51,1.16A2.181,2.181,0,0,0-35.32-1.3Zm16.242-15.2h1.858V0h-1.794l-.043-2.052a3.885,3.885,0,0,1-1.5,1.665,4.191,4.191,0,0,1-2.234.612,4.746,4.746,0,0,1-1.912-.392,4.792,4.792,0,0,1-1.574-1.1,5.085,5.085,0,0,1-1.063-1.746,6.386,6.386,0,0,1-.392-2.267A5.553,5.553,0,0,1-26.3-9.238a4.629,4.629,0,0,1,3.507-1.525,4.209,4.209,0,0,1,2.208.6,3.908,3.908,0,0,1,1.509,1.617Zm-3.33,15.114A3.162,3.162,0,0,0-19.954-2.5a4.013,4.013,0,0,0,.994-2.777,4.005,4.005,0,0,0-1-2.771,3.16,3.16,0,0,0-2.449-1.117,3.232,3.232,0,0,0-2.471,1.08,3.972,3.972,0,0,0-1,2.809,3.972,3.972,0,0,0,1,2.809A3.232,3.232,0,0,0-22.408-1.386Zm9.206-11,2.7-3.5.988.72-2.406,2.782ZM-13.438,0V-10.56h1.869V0Zm8.991.2A5.006,5.006,0,0,1-7.294-.559,3.155,3.155,0,0,1-8.68-2.729l1.622-.462a2.262,2.262,0,0,0,.865,1.466A2.805,2.805,0,0,0-4.458-1.2a3.462,3.462,0,0,0,1.015-.14,1.627,1.627,0,0,0,.779-.521,1.4,1.4,0,0,0,.312-.961,1.4,1.4,0,0,0-.086-.435,1.865,1.865,0,0,0-.172-.349,1.064,1.064,0,0,0-.3-.29,3.966,3.966,0,0,0-.365-.226,3.749,3.749,0,0,0-.478-.2q-.317-.113-.51-.172t-.591-.172q-.4-.113-.612-.177a11.454,11.454,0,0,1-1.1-.387,4.805,4.805,0,0,1-.892-.51,2.053,2.053,0,0,1-.693-.833,2.817,2.817,0,0,1-.231-1.182,2.731,2.731,0,0,1,.516-1.687,2.9,2.9,0,0,1,1.337-.994,5.346,5.346,0,0,1,1.875-.306,4.588,4.588,0,0,1,2.573.688A2.934,2.934,0,0,1-.795-7.992l-1.525.387a2.022,2.022,0,0,0-.806-1.337,2.565,2.565,0,0,0-1.515-.446,2.614,2.614,0,0,0-1.418.371,1.246,1.246,0,0,0-.591,1.133,1.128,1.128,0,0,0,.156.585,1.859,1.859,0,0,0,.317.414,1.948,1.948,0,0,0,.58.317q.419.167.623.226t.773.2q.107.032.161.043.623.161,1.015.285a6.24,6.24,0,0,1,.913.387,3.036,3.036,0,0,1,.822.575,2.662,2.662,0,0,1,.516.816A2.882,2.882,0,0,1-.559-2.9,3.075,3.075,0,0,1-.875-1.477,2.479,2.479,0,0,1-1.74-.5,4.182,4.182,0,0,1-2.97.027,5.86,5.86,0,0,1-4.447.2ZM5.736,0A2.776,2.776,0,0,1,3.674-.757a2.865,2.865,0,0,1-.752-2.111V-9.077H.763V-10.56h.795a1.526,1.526,0,0,0,1.166-.371,1.824,1.824,0,0,0,.338-1.241v-1.912H4.791v3.523H7.219v1.482H4.791v6.016a1.6,1.6,0,0,0,.4,1.166,1.411,1.411,0,0,0,1.058.414h.967V0ZM10.85-13.041a1.209,1.209,0,0,1-.886-.371,1.209,1.209,0,0,1-.371-.886,1.192,1.192,0,0,1,.371-.881,1.218,1.218,0,0,1,.886-.365,1.206,1.206,0,0,1,.875.365,1.192,1.192,0,0,1,.371.881,1.209,1.209,0,0,1-.371.886A1.2,1.2,0,0,1,10.85-13.041ZM9.9,0V-10.56h1.869V0ZM19.938.193a5.086,5.086,0,0,1-3.781-1.515,5.4,5.4,0,0,1-1.493-3.964,5.414,5.414,0,0,1,1.488-3.964,5.081,5.081,0,0,1,3.787-1.515,5.123,5.123,0,0,1,3.056.924,4.662,4.662,0,0,1,1.778,2.567l-1.74.279a3.214,3.214,0,0,0-1.192-1.644,3.247,3.247,0,0,0-1.912-.58,3.122,3.122,0,0,0-2.444,1.085,4.133,4.133,0,0,0-.961,2.847,4.113,4.113,0,0,0,.961,2.841,3.129,3.129,0,0,0,2.444,1.08,3.247,3.247,0,0,0,1.912-.58,3.214,3.214,0,0,0,1.192-1.644l1.74.29A4.668,4.668,0,0,1,22.983-.736,5.115,5.115,0,0,1,19.938.193ZM29.949.2a3.593,3.593,0,0,1-2.315-.725,2.6,2.6,0,0,1-.908-2.165,3.076,3.076,0,0,1,.29-1.38,2.433,2.433,0,0,1,.859-.961,5.155,5.155,0,0,1,1.241-.6A11.469,11.469,0,0,1,30.723-6l1.708-.279q.935-.172.935-.978A1.845,1.845,0,0,0,32.7-8.835a2.692,2.692,0,0,0-1.67-.5,2.742,2.742,0,0,0-1.654.483A2.023,2.023,0,0,0,28.6-7.369L26.92-7.724a3.225,3.225,0,0,1,1.321-2.261,4.937,4.937,0,0,1,2.879-.757,5.839,5.839,0,0,1,1.531.188,4.16,4.16,0,0,1,1.278.591,2.65,2.65,0,0,1,.913,1.139A4.237,4.237,0,0,1,35.17-7.09v4.361a1.784,1.784,0,0,0,.242,1.1,1.043,1.043,0,0,0,.833.285h.172V0h-.924a1.762,1.762,0,0,1-2-1.429h-.086A4.035,4.035,0,0,1,29.949.2Zm.43-1.5A2.818,2.818,0,0,0,32.646-2.32,4.2,4.2,0,0,0,33.5-5.113l-2.793.537a3.76,3.76,0,0,0-1.638.585,1.362,1.362,0,0,0-.532,1.155,1.346,1.346,0,0,0,.51,1.16A2.181,2.181,0,0,0,30.379-1.3Zm12,1.5a5.006,5.006,0,0,1-2.847-.763,3.155,3.155,0,0,1-1.386-2.17l1.622-.462a2.262,2.262,0,0,0,.865,1.466,2.805,2.805,0,0,0,1.735.521,3.462,3.462,0,0,0,1.015-.14,1.627,1.627,0,0,0,.779-.521,1.4,1.4,0,0,0,.312-.961,1.4,1.4,0,0,0-.086-.435,1.865,1.865,0,0,0-.172-.349,1.064,1.064,0,0,0-.3-.29,3.966,3.966,0,0,0-.365-.226,3.749,3.749,0,0,0-.478-.2q-.317-.113-.51-.172t-.591-.172q-.4-.113-.612-.177a11.454,11.454,0,0,1-1.1-.387,4.805,4.805,0,0,1-.892-.51,2.053,2.053,0,0,1-.693-.833,2.817,2.817,0,0,1-.231-1.182,2.731,2.731,0,0,1,.516-1.687,2.9,2.9,0,0,1,1.337-.994,5.346,5.346,0,0,1,1.875-.306,4.588,4.588,0,0,1,2.573.688A2.934,2.934,0,0,1,46.03-7.992L44.5-7.605A2.022,2.022,0,0,0,43.7-8.943a2.565,2.565,0,0,0-1.515-.446,2.614,2.614,0,0,0-1.418.371,1.246,1.246,0,0,0-.591,1.133,1.128,1.128,0,0,0,.156.585,1.859,1.859,0,0,0,.317.414,1.948,1.948,0,0,0,.58.317q.419.167.623.226t.773.2q.107.032.161.043.623.161,1.015.285a6.24,6.24,0,0,1,.913.387,3.036,3.036,0,0,1,.822.575,2.663,2.663,0,0,1,.516.816A2.882,2.882,0,0,1,46.267-2.9a3.075,3.075,0,0,1-.317,1.423,2.479,2.479,0,0,1-.865.972,4.182,4.182,0,0,1-1.23.532A5.86,5.86,0,0,1,42.378.2ZM61.413-10.56h1.966L57.267,4.974H55.344L57.46-.258l-4.1-10.3h2.063l2.976,8.218ZM-28.762,25h-1.869l-1.01-12.482L-36.475,25h-1.149l-4.8-12.439L-43.447,25h-1.88l1.149-15.125h2.535l4.587,11.795,4.6-11.795H-29.9Zm10.27-10.56h1.858V25h-1.783l-.043-1.4a3.3,3.3,0,0,1-1.311,1.187,4.031,4.031,0,0,1-1.848.414,3.673,3.673,0,0,1-2.659-.956,3.566,3.566,0,0,1-.994-2.7V14.44h1.858v6.692a2.506,2.506,0,0,0,.65,1.891,2.3,2.3,0,0,0,1.66.623,2.527,2.527,0,0,0,1.875-.73,2.975,2.975,0,0,0,.736-2.159Zm14.878,5.07-.021.5h-8.25a3.731,3.731,0,0,0,1.01,2.7,3.315,3.315,0,0,0,2.406.94,3.166,3.166,0,0,0,1.751-.5,3.276,3.276,0,0,0,1.2-1.4l1.676.354a4.763,4.763,0,0,1-1.8,2.267,4.924,4.924,0,0,1-2.8.827,5.1,5.1,0,0,1-3.8-1.472,5.475,5.475,0,0,1-1.45-4.018,5.448,5.448,0,0,1,1.456-4.007A5.038,5.038,0,0,1-8.5,14.236a4.767,4.767,0,0,1,3.55,1.354A5.348,5.348,0,0,1-3.615,19.511ZM-8.5,15.665a3.293,3.293,0,0,0-2.2.747,3.42,3.42,0,0,0-1.112,2.175h6.327a3.138,3.138,0,0,0-.924-2.175A2.983,2.983,0,0,0-8.5,15.665ZM2.637,25.2a5.006,5.006,0,0,1-2.847-.763A3.155,3.155,0,0,1-1.6,22.271L.027,21.81a2.262,2.262,0,0,0,.865,1.466,2.805,2.805,0,0,0,1.735.521,3.462,3.462,0,0,0,1.015-.14,1.627,1.627,0,0,0,.779-.521,1.453,1.453,0,0,0,.226-1.4,1.865,1.865,0,0,0-.172-.349,1.064,1.064,0,0,0-.3-.29,3.966,3.966,0,0,0-.365-.226,3.749,3.749,0,0,0-.478-.2q-.317-.113-.51-.172t-.591-.172q-.4-.113-.612-.177a11.455,11.455,0,0,1-1.1-.387,4.805,4.805,0,0,1-.892-.51,2.053,2.053,0,0,1-.693-.833,2.817,2.817,0,0,1-.231-1.182,2.731,2.731,0,0,1,.516-1.687,2.9,2.9,0,0,1,1.337-.994,5.346,5.346,0,0,1,1.875-.306,4.588,4.588,0,0,1,2.573.688A2.934,2.934,0,0,1,6.29,17.008l-1.525.387a2.022,2.022,0,0,0-.806-1.337,2.565,2.565,0,0,0-1.515-.446,2.614,2.614,0,0,0-1.418.371,1.246,1.246,0,0,0-.591,1.133,1.128,1.128,0,0,0,.156.585,1.859,1.859,0,0,0,.317.414,1.948,1.948,0,0,0,.58.317q.419.167.623.226t.773.2q.107.032.161.043.623.161,1.015.285a6.24,6.24,0,0,1,.913.387,3.036,3.036,0,0,1,.822.575,2.662,2.662,0,0,1,.516.816A2.882,2.882,0,0,1,6.526,22.1a3.075,3.075,0,0,1-.317,1.423,2.479,2.479,0,0,1-.865.972,4.182,4.182,0,0,1-1.23.532A5.86,5.86,0,0,1,2.637,25.2ZM12.821,25a2.776,2.776,0,0,1-2.062-.757,2.865,2.865,0,0,1-.752-2.111V15.923H7.847V14.44h.795a1.526,1.526,0,0,0,1.166-.371,1.824,1.824,0,0,0,.338-1.241V10.917h1.729V14.44H14.3v1.482H11.875v6.016a1.6,1.6,0,0,0,.4,1.166,1.411,1.411,0,0,0,1.058.414H14.3V25ZM18.8,16.3a3.192,3.192,0,0,1,1.311-1.418,3.947,3.947,0,0,1,2.03-.559v1.751a3.479,3.479,0,0,0-2.455.784,3.276,3.276,0,0,0-.843,2.5V25H16.989V14.44H18.8Zm14.631,3.212-.021.5h-8.25a3.731,3.731,0,0,0,1.01,2.7,3.315,3.315,0,0,0,2.406.94,3.166,3.166,0,0,0,1.751-.5,3.276,3.276,0,0,0,1.2-1.4l1.676.354a4.763,4.763,0,0,1-1.8,2.267,4.924,4.924,0,0,1-2.8.827,5.1,5.1,0,0,1-3.8-1.472,5.475,5.475,0,0,1-1.45-4.018A5.448,5.448,0,0,1,24.8,15.708a5.038,5.038,0,0,1,3.744-1.472A4.767,4.767,0,0,1,32.1,15.59,5.348,5.348,0,0,1,33.435,19.511Zm-4.888-3.846a3.293,3.293,0,0,0-2.2.747,3.42,3.42,0,0,0-1.112,2.175h6.327a3.138,3.138,0,0,0-.924-2.175A2.983,2.983,0,0,0,28.547,15.665ZM40.793,25.2a5.566,5.566,0,0,1-2.707-.655,4.771,4.771,0,0,1-1.907-1.917,5.89,5.89,0,0,1-.7-2.917,5.38,5.38,0,0,1,1.5-3.98,5.622,5.622,0,0,1,7.643,0,5.39,5.39,0,0,1,1.493,3.98,5.394,5.394,0,0,1-1.5,3.991A5.173,5.173,0,0,1,40.793,25.2Zm-.011-1.547a3.243,3.243,0,0,0,2.5-1.085,4.065,4.065,0,0,0,.994-2.857,4.05,4.05,0,0,0-.994-2.847,3.243,3.243,0,0,0-2.5-1.085,3.2,3.2,0,0,0-2.476,1.085,4.077,4.077,0,0,0-.983,2.847,4.092,4.092,0,0,0,.983,2.857A3.2,3.2,0,0,0,40.783,23.657Z" transform="translate(960 10063)" fill="#00223d"/>
    <path id="Trazado_36855" data-name="Trazado 36855" d="M0,0H240V130H0Z" transform="translate(1258 10003)" fill="#f7be75"/>
    <path id="Trazado_36857" data-name="Trazado 36857" d="M-44.032-15.125v1.751H-47.91V0h-1.912V-13.374h-3.889v-1.751ZM-41.046-8.7a3.192,3.192,0,0,1,1.311-1.418,3.947,3.947,0,0,1,2.03-.559v1.751a3.479,3.479,0,0,0-2.455.784A3.276,3.276,0,0,0-41-5.64V0h-1.858V-10.56h1.815ZM-33.215.2A3.593,3.593,0,0,1-35.53-.521a2.6,2.6,0,0,1-.908-2.165,3.076,3.076,0,0,1,.29-1.38,2.433,2.433,0,0,1,.859-.961,5.155,5.155,0,0,1,1.241-.6A11.469,11.469,0,0,1-32.441-6l1.708-.279q.935-.172.935-.978a1.845,1.845,0,0,0-.661-1.574,2.692,2.692,0,0,0-1.67-.5,2.742,2.742,0,0,0-1.654.483,2.023,2.023,0,0,0-.784,1.482l-1.676-.354a3.225,3.225,0,0,1,1.321-2.261,4.937,4.937,0,0,1,2.879-.757,5.839,5.839,0,0,1,1.531.188,4.16,4.16,0,0,1,1.278.591,2.65,2.65,0,0,1,.913,1.139,4.237,4.237,0,0,1,.328,1.735v4.361a1.784,1.784,0,0,0,.242,1.1,1.043,1.043,0,0,0,.833.285h.172V0h-.924a1.762,1.762,0,0,1-2-1.429h-.086A4.035,4.035,0,0,1-33.215.2Zm.43-1.5A2.818,2.818,0,0,0-30.519-2.32a4.2,4.2,0,0,0,.859-2.793l-2.793.537a3.76,3.76,0,0,0-1.638.585,1.362,1.362,0,0,0-.532,1.155,1.346,1.346,0,0,0,.51,1.16A2.181,2.181,0,0,0-32.785-1.3Zm14.255-9.464a4.6,4.6,0,0,1,3.491,1.525A5.565,5.565,0,0,1-13.61-5.274,5.6,5.6,0,0,1-15.028-1.3,4.591,4.591,0,0,1-18.53.226a4.238,4.238,0,0,1-2.25-.612A3.875,3.875,0,0,1-22.29-2.052L-22.333,0h-1.794V-16.5h1.848l.011,7.96a3.892,3.892,0,0,1,1.509-1.627A4.248,4.248,0,0,1-18.53-10.764Zm-.408,9.378a3.232,3.232,0,0,0,2.471-1.08,3.972,3.972,0,0,0,1-2.809,3.972,3.972,0,0,0-1-2.809,3.232,3.232,0,0,0-2.471-1.08,3.16,3.16,0,0,0-2.449,1.117,4.005,4.005,0,0,0-1,2.771A4.013,4.013,0,0,0-21.393-2.5,3.162,3.162,0,0,0-18.938-1.386ZM-8.25.2a3.593,3.593,0,0,1-2.315-.725,2.6,2.6,0,0,1-.908-2.165,3.076,3.076,0,0,1,.29-1.38,2.433,2.433,0,0,1,.859-.961,5.155,5.155,0,0,1,1.241-.6A11.469,11.469,0,0,1-7.477-6l1.708-.279q.935-.172.935-.978a1.845,1.845,0,0,0-.661-1.574,2.692,2.692,0,0,0-1.67-.5,2.742,2.742,0,0,0-1.654.483A2.023,2.023,0,0,0-9.6-7.369l-1.676-.354A3.225,3.225,0,0,1-9.958-9.985a4.937,4.937,0,0,1,2.879-.757,5.839,5.839,0,0,1,1.531.188,4.16,4.16,0,0,1,1.278.591,2.65,2.65,0,0,1,.913,1.139A4.237,4.237,0,0,1-3.029-7.09v4.361a1.784,1.784,0,0,0,.242,1.1,1.043,1.043,0,0,0,.833.285h.172V0h-.924a1.762,1.762,0,0,1-2-1.429h-.086A4.035,4.035,0,0,1-8.25.2Zm.43-1.5A2.818,2.818,0,0,0-5.554-2.32a4.2,4.2,0,0,0,.859-2.793l-2.793.537a3.76,3.76,0,0,0-1.638.585,1.362,1.362,0,0,0-.532,1.155,1.346,1.346,0,0,0,.51,1.16A2.181,2.181,0,0,0-7.82-1.3ZM1.794-13.041a1.209,1.209,0,0,1-.886-.371A1.209,1.209,0,0,1,.537-14.3a1.192,1.192,0,0,1,.371-.881,1.218,1.218,0,0,1,.886-.365,1.206,1.206,0,0,1,.875.365,1.192,1.192,0,0,1,.371.881,1.209,1.209,0,0,1-.371.886A1.2,1.2,0,0,1,1.794-13.041ZM-1.59,4.941V3.362a3.022,3.022,0,0,0,1.515-.3A1.647,1.647,0,0,0,.634,2.03,8.684,8.684,0,0,0,.838-.15V-10.56h1.88V-.15A6.141,6.141,0,0,1,1.74,3.792,4.171,4.171,0,0,1-1.59,4.941ZM10.957.2A5.566,5.566,0,0,1,8.25-.451,4.771,4.771,0,0,1,6.343-2.369a5.89,5.89,0,0,1-.7-2.917,5.38,5.38,0,0,1,1.5-3.98,5.173,5.173,0,0,1,3.819-1.5,5.168,5.168,0,0,1,3.824,1.5,5.39,5.39,0,0,1,1.493,3.98,5.394,5.394,0,0,1-1.5,3.991A5.173,5.173,0,0,1,10.957.2Zm-.011-1.547a3.243,3.243,0,0,0,2.5-1.085,4.065,4.065,0,0,0,.994-2.857,4.05,4.05,0,0,0-.994-2.847,3.243,3.243,0,0,0-2.5-1.085A3.2,3.2,0,0,0,8.47-8.132a4.077,4.077,0,0,0-.983,2.847A4.092,4.092,0,0,0,8.47-2.428,3.2,3.2,0,0,0,10.946-1.343ZM32.7-16.5h1.858V0H32.764l-.043-2.052a3.885,3.885,0,0,1-1.5,1.665,4.191,4.191,0,0,1-2.234.612A4.746,4.746,0,0,1,27.07-.167a4.792,4.792,0,0,1-1.574-1.1,5.085,5.085,0,0,1-1.063-1.746,6.386,6.386,0,0,1-.392-2.267,5.553,5.553,0,0,1,1.434-3.964,4.629,4.629,0,0,1,3.507-1.525,4.209,4.209,0,0,1,2.208.6A3.908,3.908,0,0,1,32.7-8.551ZM29.369-1.386A3.162,3.162,0,0,0,31.824-2.5a4.013,4.013,0,0,0,.994-2.777,4.005,4.005,0,0,0-1-2.771,3.16,3.16,0,0,0-2.449-1.117A3.232,3.232,0,0,0,26.9-8.083a3.972,3.972,0,0,0-1,2.809,3.972,3.972,0,0,0,1,2.809A3.232,3.232,0,0,0,29.369-1.386Zm18.208-4.1-.021.5h-8.25a3.731,3.731,0,0,0,1.01,2.7,3.315,3.315,0,0,0,2.406.94,3.166,3.166,0,0,0,1.751-.5,3.276,3.276,0,0,0,1.2-1.4l1.676.354a4.763,4.763,0,0,1-1.8,2.267,4.924,4.924,0,0,1-2.8.827,5.1,5.1,0,0,1-3.8-1.472,5.475,5.475,0,0,1-1.45-4.018,5.448,5.448,0,0,1,1.456-4.007,5.038,5.038,0,0,1,3.744-1.472A4.767,4.767,0,0,1,46.24-9.41,5.348,5.348,0,0,1,47.577-5.489ZM42.689-9.335a3.293,3.293,0,0,0-2.2.747,3.42,3.42,0,0,0-1.112,2.175h6.327a3.138,3.138,0,0,0-.924-2.175A2.983,2.983,0,0,0,42.689-9.335ZM-27.092,25.2a8.035,8.035,0,0,1-2.976-.542,7.186,7.186,0,0,1-2.39-1.525,6.8,6.8,0,0,1-1.59-2.455,8.877,8.877,0,0,1-.575-3.255,8.732,8.732,0,0,1,.58-3.239,6.964,6.964,0,0,1,1.59-2.455,7.017,7.017,0,0,1,2.385-1.525,8.107,8.107,0,0,1,2.976-.537,7.684,7.684,0,0,1,4.023,1.063,6.626,6.626,0,0,1,2.659,2.954l-1.772.73a4.98,4.98,0,0,0-1.982-2.154,5.688,5.688,0,0,0-2.927-.757,6.015,6.015,0,0,0-2.2.4,5.277,5.277,0,0,0-1.783,1.139,5.141,5.141,0,0,0-1.2,1.869,6.935,6.935,0,0,0-.435,2.514,6.978,6.978,0,0,0,.435,2.519,5.133,5.133,0,0,0,1.2,1.875,5.346,5.346,0,0,0,1.783,1.144,5.944,5.944,0,0,0,2.2.4,5.688,5.688,0,0,0,2.927-.757,4.993,4.993,0,0,0,1.982-2.143l1.772.72a6.592,6.592,0,0,1-2.653,2.959A7.706,7.706,0,0,1-27.092,25.2Zm11.935,0a3.593,3.593,0,0,1-2.315-.725,2.6,2.6,0,0,1-.908-2.165,3.076,3.076,0,0,1,.29-1.38,2.433,2.433,0,0,1,.859-.961,5.155,5.155,0,0,1,1.241-.6A11.469,11.469,0,0,1-14.384,19l1.708-.279q.935-.172.935-.978a1.845,1.845,0,0,0-.661-1.574,2.692,2.692,0,0,0-1.67-.5,2.742,2.742,0,0,0-1.654.483,2.023,2.023,0,0,0-.784,1.482l-1.676-.354a3.225,3.225,0,0,1,1.321-2.261,4.937,4.937,0,0,1,2.879-.757,5.839,5.839,0,0,1,1.531.188,4.16,4.16,0,0,1,1.278.591,2.65,2.65,0,0,1,.913,1.139,4.237,4.237,0,0,1,.328,1.735v4.361a1.784,1.784,0,0,0,.242,1.1,1.043,1.043,0,0,0,.833.285h.172V25h-.924a1.762,1.762,0,0,1-2-1.429H-11.7A4.035,4.035,0,0,1-15.157,25.2Zm.43-1.5a2.818,2.818,0,0,0,2.267-1.021,4.2,4.2,0,0,0,.859-2.793l-2.793.537a3.76,3.76,0,0,0-1.638.585,1.362,1.362,0,0,0-.532,1.155,1.346,1.346,0,0,0,.51,1.16A2.181,2.181,0,0,0-14.728,23.7ZM4.727,14.236a3.4,3.4,0,0,1,2.46.9,3.327,3.327,0,0,1,.935,2.519V25H6.263V18.136a2.386,2.386,0,0,0-.58-1.74A1.975,1.975,0,0,0,4.211,15.8a2.085,2.085,0,0,0-1.611.666,2.864,2.864,0,0,0-.612,2V25H.1V18.211a2.5,2.5,0,0,0-.585-1.8,1.991,1.991,0,0,0-1.5-.607,2.066,2.066,0,0,0-1.606.682,2.963,2.963,0,0,0-.618,2.046V25H-6.069V14.44h1.858V15.8A3.208,3.208,0,0,1-3,14.645a3.446,3.446,0,0,1,1.681-.408,3.587,3.587,0,0,1,1.8.446,2.775,2.775,0,0,1,1.171,1.284,3.286,3.286,0,0,1,1.268-1.284A3.626,3.626,0,0,1,4.727,14.236Zm12.568,0a4.8,4.8,0,0,1,1.912.387,4.7,4.7,0,0,1,1.568,1.085,5.071,5.071,0,0,1,1.058,1.74,6.417,6.417,0,0,1,.392,2.277A5.583,5.583,0,0,1,20.8,23.711a4.623,4.623,0,0,1-3.507,1.515,4.18,4.18,0,0,1-2.208-.6A3.943,3.943,0,0,1,13.578,23v7.315H11.72V14.44h1.794l.043,2.052a3.865,3.865,0,0,1,1.5-1.649A4.219,4.219,0,0,1,17.295,14.236Zm-.365,9.378a3.206,3.206,0,0,0,2.444-1.069,3.976,3.976,0,0,0,.994-2.82,3.956,3.956,0,0,0-.994-2.814,3.332,3.332,0,0,0-4.925.048,3.96,3.96,0,0,0-1.01,2.766,3.975,3.975,0,0,0,1.01,2.777A3.222,3.222,0,0,0,16.93,23.614ZM29.605,25.2a5.566,5.566,0,0,1-2.707-.655,4.771,4.771,0,0,1-1.907-1.917,5.89,5.89,0,0,1-.7-2.917,5.38,5.38,0,0,1,1.5-3.98,5.173,5.173,0,0,1,3.819-1.5,5.168,5.168,0,0,1,3.824,1.5,5.39,5.39,0,0,1,1.493,3.98,5.394,5.394,0,0,1-1.5,3.991A5.173,5.173,0,0,1,29.605,25.2Zm-.011-1.547a3.243,3.243,0,0,0,2.5-1.085,4.065,4.065,0,0,0,.994-2.857,4.05,4.05,0,0,0-.994-2.847,3.243,3.243,0,0,0-2.5-1.085,3.2,3.2,0,0,0-2.476,1.085,4.077,4.077,0,0,0-.983,2.847,4.092,4.092,0,0,0,.983,2.857A3.2,3.2,0,0,0,29.595,23.657Z" transform="translate(1378 10063)" fill="#00223d"/>
    <path id="Trazado_36858" data-name="Trazado 36858" d="M0,0H240V130H0Z" transform="translate(422 10271)" fill="#f7be75"/>
    <path id="Trazado_36861" data-name="Trazado 36861" d="M-61.945,0l-1.3-3.62h-6.843L-71.376,0h-2.009l5.575-15.125h2.3L-59.936,0Zm-7.53-5.317h5.629l-2.814-7.874ZM-49.752-16.5h1.858V0h-1.794l-.043-2.052a3.885,3.885,0,0,1-1.5,1.665,4.191,4.191,0,0,1-2.234.612,4.746,4.746,0,0,1-1.912-.392,4.792,4.792,0,0,1-1.574-1.1,5.085,5.085,0,0,1-1.063-1.746,6.385,6.385,0,0,1-.392-2.267,5.553,5.553,0,0,1,1.434-3.964,4.629,4.629,0,0,1,3.507-1.525,4.209,4.209,0,0,1,2.208.6,3.908,3.908,0,0,1,1.509,1.617Zm-3.33,15.114A3.162,3.162,0,0,0-50.628-2.5a4.013,4.013,0,0,0,.994-2.777,4.005,4.005,0,0,0-1-2.771,3.16,3.16,0,0,0-2.449-1.117,3.232,3.232,0,0,0-2.471,1.08,3.972,3.972,0,0,0-1,2.809,3.972,3.972,0,0,0,1,2.809A3.232,3.232,0,0,0-53.083-1.386Zm19.766-9.378a3.4,3.4,0,0,1,2.46.9,3.327,3.327,0,0,1,.935,2.519V0h-1.858V-6.864a2.386,2.386,0,0,0-.58-1.74A1.975,1.975,0,0,0-33.833-9.2a2.085,2.085,0,0,0-1.611.666,2.864,2.864,0,0,0-.612,2V0h-1.891V-6.789a2.5,2.5,0,0,0-.585-1.8,1.991,1.991,0,0,0-1.5-.607,2.066,2.066,0,0,0-1.606.682,2.963,2.963,0,0,0-.618,2.046V0h-1.858V-10.56h1.858V-9.2a3.208,3.208,0,0,1,1.208-1.16,3.446,3.446,0,0,1,1.681-.408,3.587,3.587,0,0,1,1.8.446,2.775,2.775,0,0,1,1.171,1.284,3.286,3.286,0,0,1,1.268-1.284A3.626,3.626,0,0,1-33.317-10.764Zm7.938-2.277a1.209,1.209,0,0,1-.886-.371,1.209,1.209,0,0,1-.371-.886,1.192,1.192,0,0,1,.371-.881,1.218,1.218,0,0,1,.886-.365,1.206,1.206,0,0,1,.875.365,1.192,1.192,0,0,1,.371.881,1.209,1.209,0,0,1-.371.886A1.2,1.2,0,0,1-25.378-13.041ZM-26.324,0V-10.56h1.869V0Zm10.635-10.764a3.673,3.673,0,0,1,2.659.956,3.566,3.566,0,0,1,.994,2.7V0H-13.9V-6.692a2.5,2.5,0,0,0-.645-1.891A2.3,2.3,0,0,0-16.194-9.2a2.555,2.555,0,0,0-1.88.725,2.942,2.942,0,0,0-.741,2.154V0h-1.858V-10.56h1.858v1.354A3.526,3.526,0,0,1-15.689-10.764ZM-7.5-13.041a1.209,1.209,0,0,1-.886-.371A1.209,1.209,0,0,1-8.76-14.3a1.192,1.192,0,0,1,.371-.881,1.218,1.218,0,0,1,.886-.365,1.206,1.206,0,0,1,.875.365,1.192,1.192,0,0,1,.371.881,1.209,1.209,0,0,1-.371.886A1.2,1.2,0,0,1-7.5-13.041ZM-8.449,0V-10.56H-6.58V0ZM.542.2A5.006,5.006,0,0,1-2.3-.559,3.155,3.155,0,0,1-3.69-2.729l1.622-.462A2.262,2.262,0,0,0-1.2-1.724,2.805,2.805,0,0,0,.532-1.2a3.462,3.462,0,0,0,1.015-.14,1.627,1.627,0,0,0,.779-.521,1.4,1.4,0,0,0,.312-.961,1.4,1.4,0,0,0-.086-.435,1.865,1.865,0,0,0-.172-.349,1.064,1.064,0,0,0-.3-.29,3.966,3.966,0,0,0-.365-.226,3.749,3.749,0,0,0-.478-.2Q.918-4.437.725-4.5T.134-4.667q-.4-.113-.612-.177a11.454,11.454,0,0,1-1.1-.387,4.805,4.805,0,0,1-.892-.51,2.053,2.053,0,0,1-.693-.833,2.817,2.817,0,0,1-.231-1.182,2.731,2.731,0,0,1,.516-1.687,2.9,2.9,0,0,1,1.337-.994,5.346,5.346,0,0,1,1.875-.306,4.588,4.588,0,0,1,2.573.688A2.934,2.934,0,0,1,4.195-7.992l-1.525.387a2.022,2.022,0,0,0-.806-1.337A2.565,2.565,0,0,0,.349-9.389a2.614,2.614,0,0,0-1.418.371A1.246,1.246,0,0,0-1.66-7.885,1.128,1.128,0,0,0-1.5-7.3a1.859,1.859,0,0,0,.317.414,1.948,1.948,0,0,0,.58.317q.419.167.623.226t.773.2Q.9-6.112.951-6.1q.623.161,1.015.285a6.24,6.24,0,0,1,.913.387,3.036,3.036,0,0,1,.822.575,2.662,2.662,0,0,1,.516.816A2.882,2.882,0,0,1,4.431-2.9a3.075,3.075,0,0,1-.317,1.423A2.479,2.479,0,0,1,3.25-.5,4.182,4.182,0,0,1,2.02.027,5.86,5.86,0,0,1,.542.2ZM10.726,0A2.776,2.776,0,0,1,8.664-.757a2.865,2.865,0,0,1-.752-2.111V-9.077H5.752V-10.56h.795a1.526,1.526,0,0,0,1.166-.371,1.824,1.824,0,0,0,.338-1.241v-1.912H9.781v3.523h2.428v1.482H9.781v6.016a1.6,1.6,0,0,0,.4,1.166,1.411,1.411,0,0,0,1.058.414h.967V0Zm5.983-8.7a3.192,3.192,0,0,1,1.311-1.418,3.947,3.947,0,0,1,2.03-.559v1.751a3.479,3.479,0,0,0-2.455.784,3.276,3.276,0,0,0-.843,2.5V0H14.894V-10.56h1.815ZM24.541.2a3.593,3.593,0,0,1-2.315-.725,2.6,2.6,0,0,1-.908-2.165,3.076,3.076,0,0,1,.29-1.38,2.433,2.433,0,0,1,.859-.961,5.155,5.155,0,0,1,1.241-.6A11.469,11.469,0,0,1,25.314-6l1.708-.279q.935-.172.935-.978A1.845,1.845,0,0,0,27.3-8.835a2.692,2.692,0,0,0-1.67-.5,2.742,2.742,0,0,0-1.654.483,2.023,2.023,0,0,0-.784,1.482l-1.676-.354a3.225,3.225,0,0,1,1.321-2.261,4.937,4.937,0,0,1,2.879-.757,5.839,5.839,0,0,1,1.531.188,4.16,4.16,0,0,1,1.278.591,2.65,2.65,0,0,1,.913,1.139,4.237,4.237,0,0,1,.328,1.735v4.361A1.784,1.784,0,0,0,30-1.627a1.043,1.043,0,0,0,.833.285h.172V0h-.924a1.762,1.762,0,0,1-2-1.429H28A4.035,4.035,0,0,1,24.541.2Zm.43-1.5A2.818,2.818,0,0,0,27.237-2.32,4.2,4.2,0,0,0,28.1-5.113L25.3-4.576a3.76,3.76,0,0,0-1.638.585,1.362,1.362,0,0,0-.532,1.155,1.346,1.346,0,0,0,.51,1.16A2.181,2.181,0,0,0,24.97-1.3ZM37.8.193a5.086,5.086,0,0,1-3.781-1.515,5.4,5.4,0,0,1-1.493-3.964A5.414,5.414,0,0,1,34.01-9.249,5.081,5.081,0,0,1,37.8-10.764a5.123,5.123,0,0,1,3.056.924A4.662,4.662,0,0,1,42.63-7.272l-1.74.279A3.214,3.214,0,0,0,39.7-8.637a3.247,3.247,0,0,0-1.912-.58,3.122,3.122,0,0,0-2.444,1.085,4.133,4.133,0,0,0-.961,2.847,4.113,4.113,0,0,0,.961,2.841,3.129,3.129,0,0,0,2.444,1.08,3.247,3.247,0,0,0,1.912-.58A3.214,3.214,0,0,0,40.89-3.588l1.74.29A4.668,4.668,0,0,1,40.842-.736,5.115,5.115,0,0,1,37.8.193Zm8.519-13.234a1.209,1.209,0,0,1-.886-.371,1.209,1.209,0,0,1-.371-.886,1.192,1.192,0,0,1,.371-.881,1.218,1.218,0,0,1,.886-.365,1.206,1.206,0,0,1,.875.365,1.192,1.192,0,0,1,.371.881,1.209,1.209,0,0,1-.371.886A1.2,1.2,0,0,1,46.315-13.041ZM45.37,0V-10.56h1.869V0Zm9.389-12.375,2.7-3.5.988.72-2.406,2.782ZM55.467.2A5.566,5.566,0,0,1,52.76-.451a4.771,4.771,0,0,1-1.907-1.917,5.89,5.89,0,0,1-.7-2.917,5.38,5.38,0,0,1,1.5-3.98,5.173,5.173,0,0,1,3.819-1.5,5.168,5.168,0,0,1,3.824,1.5,5.39,5.39,0,0,1,1.493,3.98,5.394,5.394,0,0,1-1.5,3.991A5.173,5.173,0,0,1,55.467.2Zm-.011-1.547a3.243,3.243,0,0,0,2.5-1.085,4.065,4.065,0,0,0,.994-2.857,4.05,4.05,0,0,0-.994-2.847,3.243,3.243,0,0,0-2.5-1.085A3.2,3.2,0,0,0,52.98-8.132,4.077,4.077,0,0,0,52-5.285a4.092,4.092,0,0,0,.983,2.857A3.2,3.2,0,0,0,55.457-1.343ZM68.68-10.764a3.673,3.673,0,0,1,2.659.956,3.566,3.566,0,0,1,.994,2.7V0H70.474V-6.692a2.5,2.5,0,0,0-.645-1.891A2.3,2.3,0,0,0,68.175-9.2a2.555,2.555,0,0,0-1.88.725,2.942,2.942,0,0,0-.741,2.154V0H63.7V-10.56h1.858v1.354A3.526,3.526,0,0,1,68.68-10.764Z" transform="translate(542 10343)" fill="#00223d"/>
    <path id="Trazado_36859" data-name="Trazado 36859" d="M0,0H240V130H0Z" transform="translate(840 10271)" fill="#f7be75"/>
    <path id="Trazado_36862" data-name="Trazado 36862" d="M-37.582,0l-1.3-3.62h-6.843L-47.013,0h-2.009l5.575-15.125h2.3L-35.573,0Zm-7.53-5.317h5.629L-42.3-13.191Zm17.059-5.446a3.673,3.673,0,0,1,2.659.956,3.566,3.566,0,0,1,.994,2.7V0h-1.858V-6.692A2.5,2.5,0,0,0-26.9-8.583,2.3,2.3,0,0,0-28.558-9.2a2.555,2.555,0,0,0-1.88.725,2.942,2.942,0,0,0-.741,2.154V0h-1.858V-10.56h1.858v1.354A3.526,3.526,0,0,1-28.053-10.764Zm10.441-1.622,2.7-3.5.988.72-2.406,2.782ZM-18.375.2a3.593,3.593,0,0,1-2.315-.725A2.6,2.6,0,0,1-21.6-2.686a3.076,3.076,0,0,1,.29-1.38,2.433,2.433,0,0,1,.859-.961,5.155,5.155,0,0,1,1.241-.6A11.469,11.469,0,0,1-17.6-6l1.708-.279q.935-.172.935-.978a1.845,1.845,0,0,0-.661-1.574,2.692,2.692,0,0,0-1.67-.5,2.742,2.742,0,0,0-1.654.483,2.023,2.023,0,0,0-.784,1.482L-21.4-7.724a3.225,3.225,0,0,1,1.321-2.261,4.937,4.937,0,0,1,2.879-.757,5.839,5.839,0,0,1,1.531.188,4.16,4.16,0,0,1,1.278.591,2.65,2.65,0,0,1,.913,1.139,4.237,4.237,0,0,1,.328,1.735v4.361a1.784,1.784,0,0,0,.242,1.1,1.043,1.043,0,0,0,.833.285h.172V0h-.924a1.762,1.762,0,0,1-2-1.429h-.086A4.035,4.035,0,0,1-18.375.2Zm.43-1.5A2.818,2.818,0,0,0-15.678-2.32a4.2,4.2,0,0,0,.859-2.793l-2.793.537a3.76,3.76,0,0,0-1.638.585,1.362,1.362,0,0,0-.532,1.155,1.346,1.346,0,0,0,.51,1.16A2.181,2.181,0,0,0-17.945-1.3ZM-9.287,0V-16.5h1.88V0ZM-2.68-13.041a1.209,1.209,0,0,1-.886-.371,1.209,1.209,0,0,1-.371-.886,1.192,1.192,0,0,1,.371-.881,1.218,1.218,0,0,1,.886-.365,1.206,1.206,0,0,1,.875.365,1.192,1.192,0,0,1,.371.881,1.209,1.209,0,0,1-.371.886A1.2,1.2,0,0,1-2.68-13.041ZM-3.625,0V-10.56h1.869V0ZM5.366.2A5.006,5.006,0,0,1,2.519-.559a3.155,3.155,0,0,1-1.386-2.17L2.755-3.19A2.262,2.262,0,0,0,3.62-1.724,2.805,2.805,0,0,0,5.355-1.2a3.462,3.462,0,0,0,1.015-.14,1.627,1.627,0,0,0,.779-.521,1.4,1.4,0,0,0,.312-.961,1.4,1.4,0,0,0-.086-.435A1.865,1.865,0,0,0,7.2-3.609a1.064,1.064,0,0,0-.3-.29,3.966,3.966,0,0,0-.365-.226,3.749,3.749,0,0,0-.478-.2q-.317-.113-.51-.172t-.591-.172q-.4-.113-.612-.177a11.454,11.454,0,0,1-1.1-.387,4.805,4.805,0,0,1-.892-.51,2.053,2.053,0,0,1-.693-.833,2.817,2.817,0,0,1-.231-1.182A2.731,2.731,0,0,1,1.95-9.442a2.9,2.9,0,0,1,1.337-.994,5.346,5.346,0,0,1,1.875-.306,4.588,4.588,0,0,1,2.573.688A2.934,2.934,0,0,1,9.018-7.992l-1.525.387a2.022,2.022,0,0,0-.806-1.337,2.565,2.565,0,0,0-1.515-.446,2.614,2.614,0,0,0-1.418.371,1.246,1.246,0,0,0-.591,1.133,1.128,1.128,0,0,0,.156.585,1.859,1.859,0,0,0,.317.414,1.948,1.948,0,0,0,.58.317q.419.167.623.226t.773.2q.107.032.161.043.623.161,1.015.285A6.24,6.24,0,0,1,7.7-5.43a3.036,3.036,0,0,1,.822.575,2.662,2.662,0,0,1,.516.816A2.882,2.882,0,0,1,9.254-2.9a3.075,3.075,0,0,1-.317,1.423A2.479,2.479,0,0,1,8.073-.5a4.182,4.182,0,0,1-1.23.532A5.86,5.86,0,0,1,5.366.2Zm7.756-13.245a1.209,1.209,0,0,1-.886-.371,1.209,1.209,0,0,1-.371-.886,1.192,1.192,0,0,1,.371-.881,1.218,1.218,0,0,1,.886-.365,1.206,1.206,0,0,1,.875.365,1.192,1.192,0,0,1,.371.881,1.209,1.209,0,0,1-.371.886A1.2,1.2,0,0,1,13.122-13.041ZM12.176,0V-10.56h1.869V0Zm8.991.2a5.006,5.006,0,0,1-2.847-.763,3.155,3.155,0,0,1-1.386-2.17l1.622-.462a2.262,2.262,0,0,0,.865,1.466,2.805,2.805,0,0,0,1.735.521,3.462,3.462,0,0,0,1.015-.14,1.627,1.627,0,0,0,.779-.521,1.4,1.4,0,0,0,.312-.961,1.4,1.4,0,0,0-.086-.435A1.865,1.865,0,0,0,23-3.609a1.064,1.064,0,0,0-.3-.29,3.966,3.966,0,0,0-.365-.226,3.749,3.749,0,0,0-.478-.2q-.317-.113-.51-.172t-.591-.172q-.4-.113-.612-.177a11.455,11.455,0,0,1-1.1-.387,4.805,4.805,0,0,1-.892-.51,2.053,2.053,0,0,1-.693-.833,2.817,2.817,0,0,1-.231-1.182,2.731,2.731,0,0,1,.516-1.687,2.9,2.9,0,0,1,1.337-.994,5.346,5.346,0,0,1,1.875-.306,4.588,4.588,0,0,1,2.573.688A2.934,2.934,0,0,1,24.82-7.992l-1.525.387a2.022,2.022,0,0,0-.806-1.337,2.565,2.565,0,0,0-1.515-.446,2.614,2.614,0,0,0-1.418.371,1.246,1.246,0,0,0-.591,1.133,1.128,1.128,0,0,0,.156.585,1.859,1.859,0,0,0,.317.414,1.948,1.948,0,0,0,.58.317q.419.167.623.226t.773.2q.107.032.161.043.623.161,1.015.285a6.24,6.24,0,0,1,.913.387,3.036,3.036,0,0,1,.822.575,2.662,2.662,0,0,1,.516.816A2.882,2.882,0,0,1,25.056-2.9a3.075,3.075,0,0,1-.317,1.423,2.479,2.479,0,0,1-.865.972,4.182,4.182,0,0,1-1.23.532A5.86,5.86,0,0,1,21.167.2ZM42.931-5.489l-.021.5H34.66a3.731,3.731,0,0,0,1.01,2.7,3.315,3.315,0,0,0,2.406.94,3.166,3.166,0,0,0,1.751-.5,3.276,3.276,0,0,0,1.2-1.4l1.676.354A4.763,4.763,0,0,1,40.9-.623,4.924,4.924,0,0,1,38.1.2a5.1,5.1,0,0,1-3.8-1.472,5.475,5.475,0,0,1-1.45-4.018A5.448,5.448,0,0,1,34.3-9.292a5.038,5.038,0,0,1,3.744-1.472,4.767,4.767,0,0,1,3.55,1.354A5.348,5.348,0,0,1,42.931-5.489ZM38.043-9.335a3.293,3.293,0,0,0-2.2.747,3.42,3.42,0,0,0-1.112,2.175h6.327a3.138,3.138,0,0,0-.924-2.175A2.983,2.983,0,0,0,38.043-9.335ZM-67.536,25V9.875h1.923V25Zm11.172-10.764a3.673,3.673,0,0,1,2.659.956,3.566,3.566,0,0,1,.994,2.7V25H-54.57V18.308a2.5,2.5,0,0,0-.645-1.891,2.3,2.3,0,0,0-1.654-.612,2.555,2.555,0,0,0-1.88.725,2.942,2.942,0,0,0-.741,2.154V25h-1.858V14.44h1.858v1.354A3.526,3.526,0,0,1-56.364,14.236ZM-45.751,25a2.776,2.776,0,0,1-2.062-.757,2.865,2.865,0,0,1-.752-2.111V15.923h-2.159V14.44h.795a1.526,1.526,0,0,0,1.166-.371,1.824,1.824,0,0,0,.338-1.241V10.917H-46.7V14.44h2.428v1.482H-46.7v6.016a1.6,1.6,0,0,0,.4,1.166,1.411,1.411,0,0,0,1.058.414h.967V25Zm13.277-5.489-.021.5h-8.25a3.731,3.731,0,0,0,1.01,2.7,3.315,3.315,0,0,0,2.406.94,3.166,3.166,0,0,0,1.751-.5,3.276,3.276,0,0,0,1.2-1.4l1.676.354a4.763,4.763,0,0,1-1.8,2.267,4.924,4.924,0,0,1-2.8.827,5.1,5.1,0,0,1-3.8-1.472,5.475,5.475,0,0,1-1.45-4.018A5.448,5.448,0,0,1-41.1,15.708a5.038,5.038,0,0,1,3.744-1.472,4.767,4.767,0,0,1,3.55,1.354A5.348,5.348,0,0,1-32.474,19.511Zm-4.888-3.846a3.293,3.293,0,0,0-2.2.747,3.42,3.42,0,0,0-1.112,2.175h6.327a3.138,3.138,0,0,0-.924-2.175A2.983,2.983,0,0,0-37.361,15.665Zm9.614.634a3.192,3.192,0,0,1,1.311-1.418,3.947,3.947,0,0,1,2.03-.559v1.751a3.479,3.479,0,0,0-2.455.784,3.276,3.276,0,0,0-.843,2.5V25h-1.858V14.44h1.815Zm11.1-2.062a4.8,4.8,0,0,1,1.912.387,4.7,4.7,0,0,1,1.568,1.085,5.071,5.071,0,0,1,1.058,1.74,6.417,6.417,0,0,1,.392,2.277,5.583,5.583,0,0,1-1.423,3.985,4.623,4.623,0,0,1-3.507,1.515,4.18,4.18,0,0,1-2.208-.6A3.943,3.943,0,0,1-20.367,23v7.315h-1.858V14.44h1.794l.043,2.052a3.865,3.865,0,0,1,1.5-1.649A4.219,4.219,0,0,1-16.65,14.236Zm-.365,9.378a3.206,3.206,0,0,0,2.444-1.069,3.976,3.976,0,0,0,.994-2.82,3.956,3.956,0,0,0-.994-2.814,3.214,3.214,0,0,0-2.444-1.063A3.222,3.222,0,0,0-19.5,16.959a3.96,3.96,0,0,0-1.01,2.766A3.975,3.975,0,0,0-19.5,22.5,3.222,3.222,0,0,0-17.016,23.614ZM-6.972,16.3a3.192,3.192,0,0,1,1.311-1.418,3.947,3.947,0,0,1,2.03-.559v1.751a3.479,3.479,0,0,0-2.455.784,3.276,3.276,0,0,0-.843,2.5V25H-8.787V14.44h1.815ZM7.659,19.511l-.021.5H-.612a3.731,3.731,0,0,0,1.01,2.7,3.315,3.315,0,0,0,2.406.94,3.166,3.166,0,0,0,1.751-.5,3.276,3.276,0,0,0,1.2-1.4l1.676.354a4.763,4.763,0,0,1-1.8,2.267,4.924,4.924,0,0,1-2.8.827,5.1,5.1,0,0,1-3.8-1.472,5.475,5.475,0,0,1-1.45-4.018A5.448,5.448,0,0,1-.972,15.708a5.038,5.038,0,0,1,3.744-1.472,4.767,4.767,0,0,1,3.55,1.354A5.348,5.348,0,0,1,7.659,19.511ZM2.771,15.665a3.293,3.293,0,0,0-2.2.747A3.42,3.42,0,0,0-.537,18.587H5.79a3.138,3.138,0,0,0-.924-2.175A2.983,2.983,0,0,0,2.771,15.665ZM13.943,25a2.776,2.776,0,0,1-2.062-.757,2.865,2.865,0,0,1-.752-2.111V15.923H8.97V14.44h.795a1.526,1.526,0,0,0,1.166-.371,1.824,1.824,0,0,0,.338-1.241V10.917H13V14.44h2.428v1.482H13v6.016a1.6,1.6,0,0,0,.4,1.166,1.411,1.411,0,0,0,1.058.414h.967V25Zm6.478.2a3.593,3.593,0,0,1-2.315-.725,2.6,2.6,0,0,1-.908-2.165,3.076,3.076,0,0,1,.29-1.38,2.433,2.433,0,0,1,.859-.961,5.155,5.155,0,0,1,1.241-.6A11.469,11.469,0,0,1,21.194,19l1.708-.279q.935-.172.935-.978a1.845,1.845,0,0,0-.661-1.574,2.692,2.692,0,0,0-1.67-.5,2.742,2.742,0,0,0-1.654.483,2.023,2.023,0,0,0-.784,1.482l-1.676-.354a3.225,3.225,0,0,1,1.321-2.261,4.937,4.937,0,0,1,2.879-.757,5.839,5.839,0,0,1,1.531.188,4.16,4.16,0,0,1,1.278.591,2.65,2.65,0,0,1,.913,1.139,4.237,4.237,0,0,1,.328,1.735v4.361a1.784,1.784,0,0,0,.242,1.1,1.043,1.043,0,0,0,.833.285h.172V25h-.924a1.762,1.762,0,0,1-2-1.429H23.88A4.035,4.035,0,0,1,20.421,25.2Zm.43-1.5a2.818,2.818,0,0,0,2.267-1.021,4.2,4.2,0,0,0,.859-2.793l-2.793.537a3.76,3.76,0,0,0-1.638.585,1.362,1.362,0,0,0-.532,1.155,1.346,1.346,0,0,0,.51,1.16A2.181,2.181,0,0,0,20.851,23.7Zm12.826,1.493A5.086,5.086,0,0,1,29.9,23.679,5.4,5.4,0,0,1,28.4,19.715a5.414,5.414,0,0,1,1.488-3.964,5.5,5.5,0,0,1,6.843-.591,4.662,4.662,0,0,1,1.778,2.567l-1.74.279a3.214,3.214,0,0,0-1.192-1.644,3.247,3.247,0,0,0-1.912-.58,3.122,3.122,0,0,0-2.444,1.085,4.133,4.133,0,0,0-.961,2.847,4.113,4.113,0,0,0,.961,2.841,3.129,3.129,0,0,0,2.444,1.08,3.247,3.247,0,0,0,1.912-.58,3.214,3.214,0,0,0,1.192-1.644l1.74.29a4.668,4.668,0,0,1-1.789,2.562A5.115,5.115,0,0,1,33.677,25.193ZM42.2,11.959A1.265,1.265,0,0,1,40.938,10.7a1.192,1.192,0,0,1,.371-.881,1.218,1.218,0,0,1,.886-.365,1.206,1.206,0,0,1,.875.365,1.192,1.192,0,0,1,.371.881,1.209,1.209,0,0,1-.371.886A1.2,1.2,0,0,1,42.2,11.959ZM41.25,25V14.44h1.869V25Zm9.389-12.375,2.7-3.5.988.72-2.406,2.782ZM51.348,25.2a5.566,5.566,0,0,1-2.707-.655,4.771,4.771,0,0,1-1.907-1.917,5.89,5.89,0,0,1-.7-2.917,5.38,5.38,0,0,1,1.5-3.98,5.622,5.622,0,0,1,7.643,0,5.39,5.39,0,0,1,1.493,3.98,5.394,5.394,0,0,1-1.5,3.991A5.173,5.173,0,0,1,51.348,25.2Zm-.011-1.547a3.243,3.243,0,0,0,2.5-1.085,4.065,4.065,0,0,0,.994-2.857,4.05,4.05,0,0,0-.994-2.847,3.243,3.243,0,0,0-2.5-1.085,3.2,3.2,0,0,0-2.476,1.085,4.077,4.077,0,0,0-.983,2.847,4.092,4.092,0,0,0,.983,2.857A3.2,3.2,0,0,0,51.337,23.657Zm13.224-9.421a3.673,3.673,0,0,1,2.659.956,3.566,3.566,0,0,1,.994,2.7V25H66.354V18.308a2.5,2.5,0,0,0-.645-1.891,2.3,2.3,0,0,0-1.654-.612,2.555,2.555,0,0,0-1.88.725,2.942,2.942,0,0,0-.741,2.154V25H59.576V14.44h1.858v1.354A3.526,3.526,0,0,1,64.561,14.236Z" transform="translate(960 10331)" fill="#00223d"/>
    <path id="Trazado_36860" data-name="Trazado 36860" d="M0,0H240V130H0Z" transform="translate(1258 10271)" fill="#f7be75"/>
    <path id="Trazado_36863" data-name="Trazado 36863" d="M-51.133,0V-15.125h1.923V0Zm11.172-10.764a3.673,3.673,0,0,1,2.659.956,3.566,3.566,0,0,1,.994,2.7V0h-1.858V-6.692a2.5,2.5,0,0,0-.645-1.891A2.3,2.3,0,0,0-40.466-9.2a2.555,2.555,0,0,0-1.88.725,2.942,2.942,0,0,0-.741,2.154V0h-1.858V-10.56h1.858v1.354A3.526,3.526,0,0,1-39.961-10.764Zm12.085-4.179h-.4q-.124,0-.387.021a2.479,2.479,0,0,0-.387.054q-.124.032-.333.107a.85.85,0,0,0-.317.183q-.107.107-.247.274a1.123,1.123,0,0,0-.209.387,3.7,3.7,0,0,0-.118.516,4.112,4.112,0,0,0-.048.661v2.181h2.449v1.482h-2.449V0h-1.848V-9.077h-2.041V-10.56h2.041v-2.213A6.073,6.073,0,0,1-32.06-14a3.989,3.989,0,0,1,.3-.929,2.208,2.208,0,0,1,.5-.671,2.939,2.939,0,0,1,.65-.457,3.226,3.226,0,0,1,.8-.269,7.511,7.511,0,0,1,.908-.134q.446-.038,1.026-.038ZM-21.409.2a5.566,5.566,0,0,1-2.707-.655,4.771,4.771,0,0,1-1.907-1.917,5.89,5.89,0,0,1-.7-2.917,5.38,5.38,0,0,1,1.5-3.98,5.173,5.173,0,0,1,3.819-1.5,5.168,5.168,0,0,1,3.824,1.5,5.39,5.39,0,0,1,1.493,3.98,5.394,5.394,0,0,1-1.5,3.991A5.173,5.173,0,0,1-21.409.2Zm-.011-1.547a3.243,3.243,0,0,0,2.5-1.085,4.065,4.065,0,0,0,.994-2.857,4.05,4.05,0,0,0-.994-2.847,3.243,3.243,0,0,0-2.5-1.085A3.2,3.2,0,0,0-23.9-8.132a4.077,4.077,0,0,0-.983,2.847A4.092,4.092,0,0,0-23.9-2.428,3.2,3.2,0,0,0-21.42-1.343ZM-11.365-8.7a3.192,3.192,0,0,1,1.311-1.418,3.947,3.947,0,0,1,2.03-.559v1.751a3.479,3.479,0,0,0-2.455.784,3.276,3.276,0,0,0-.843,2.5V0h-1.858V-10.56h1.815ZM4.952-10.764a3.4,3.4,0,0,1,2.46.9,3.327,3.327,0,0,1,.935,2.519V0H6.488V-6.864a2.386,2.386,0,0,0-.58-1.74A1.975,1.975,0,0,0,4.437-9.2a2.085,2.085,0,0,0-1.611.666,2.864,2.864,0,0,0-.612,2V0H.322V-6.789a2.5,2.5,0,0,0-.585-1.8,1.991,1.991,0,0,0-1.5-.607,2.066,2.066,0,0,0-1.606.682,2.963,2.963,0,0,0-.618,2.046V0H-5.844V-10.56h1.858V-9.2a3.208,3.208,0,0,1,1.208-1.16A3.446,3.446,0,0,1-1.1-10.764a3.587,3.587,0,0,1,1.8.446A2.775,2.775,0,0,1,1.88-9.034a3.286,3.286,0,0,1,1.268-1.284A3.626,3.626,0,0,1,4.952-10.764ZM21.184-5.489l-.021.5h-8.25a3.731,3.731,0,0,0,1.01,2.7,3.315,3.315,0,0,0,2.406.94,3.166,3.166,0,0,0,1.751-.5,3.276,3.276,0,0,0,1.2-1.4l1.676.354a4.763,4.763,0,0,1-1.8,2.267A4.924,4.924,0,0,1,16.35.2a5.1,5.1,0,0,1-3.8-1.472A5.475,5.475,0,0,1,11.1-5.285a5.448,5.448,0,0,1,1.456-4.007A5.038,5.038,0,0,1,16.3-10.764a4.767,4.767,0,0,1,3.55,1.354A5.348,5.348,0,0,1,21.184-5.489ZM16.3-9.335a3.293,3.293,0,0,0-2.2.747,3.42,3.42,0,0,0-1.112,2.175h6.327a3.138,3.138,0,0,0-.924-2.175A2.983,2.983,0,0,0,16.3-9.335ZM37.608-16.5h1.858V0H37.673L37.63-2.052a3.885,3.885,0,0,1-1.5,1.665,4.191,4.191,0,0,1-2.234.612,4.746,4.746,0,0,1-1.912-.392,4.792,4.792,0,0,1-1.574-1.1,5.085,5.085,0,0,1-1.063-1.746,6.386,6.386,0,0,1-.392-2.267,5.553,5.553,0,0,1,1.434-3.964,4.629,4.629,0,0,1,3.507-1.525,4.209,4.209,0,0,1,2.208.6,3.908,3.908,0,0,1,1.509,1.617ZM34.278-1.386A3.162,3.162,0,0,0,36.733-2.5a4.013,4.013,0,0,0,.994-2.777,4.005,4.005,0,0,0-1-2.771,3.16,3.16,0,0,0-2.449-1.117,3.232,3.232,0,0,0-2.471,1.08,3.972,3.972,0,0,0-1,2.809,3.972,3.972,0,0,0,1,2.809A3.232,3.232,0,0,0,34.278-1.386Zm18.208-4.1-.021.5h-8.25a3.731,3.731,0,0,0,1.01,2.7,3.315,3.315,0,0,0,2.406.94,3.166,3.166,0,0,0,1.751-.5,3.276,3.276,0,0,0,1.2-1.4l1.676.354a4.763,4.763,0,0,1-1.8,2.267,4.924,4.924,0,0,1-2.8.827,5.1,5.1,0,0,1-3.8-1.472A5.475,5.475,0,0,1,42.4-5.285a5.448,5.448,0,0,1,1.456-4.007A5.038,5.038,0,0,1,47.6-10.764a4.767,4.767,0,0,1,3.55,1.354A5.348,5.348,0,0,1,52.486-5.489ZM47.6-9.335a3.293,3.293,0,0,0-2.2.747A3.42,3.42,0,0,0,44.29-6.413h6.327a3.138,3.138,0,0,0-.924-2.175A2.983,2.983,0,0,0,47.6-9.335ZM-63.347,25V9.875h1.923V25Zm11.172-10.764a3.673,3.673,0,0,1,2.659.956,3.566,3.566,0,0,1,.994,2.7V25h-1.858V18.308a2.5,2.5,0,0,0-.645-1.891A2.3,2.3,0,0,0-52.68,15.8a2.555,2.555,0,0,0-1.88.725,2.942,2.942,0,0,0-.741,2.154V25h-1.858V14.44H-55.3v1.354A3.526,3.526,0,0,1-52.175,14.236Zm13.471.2h1.987L-41.014,25h-1.579l-4.275-10.56h1.977l3.094,8.4Zm13.009,5.07-.021.5h-8.25a3.731,3.731,0,0,0,1.01,2.7,3.315,3.315,0,0,0,2.406.94,3.166,3.166,0,0,0,1.751-.5,3.276,3.276,0,0,0,1.2-1.4l1.676.354a4.763,4.763,0,0,1-1.8,2.267,4.924,4.924,0,0,1-2.8.827,5.1,5.1,0,0,1-3.8-1.472,5.475,5.475,0,0,1-1.45-4.018,5.448,5.448,0,0,1,1.456-4.007,5.038,5.038,0,0,1,3.744-1.472,4.767,4.767,0,0,1,3.55,1.354A5.348,5.348,0,0,1-25.7,19.511Zm-4.888-3.846a3.293,3.293,0,0,0-2.2.747,3.42,3.42,0,0,0-1.112,2.175h6.327a3.138,3.138,0,0,0-.924-2.175A2.983,2.983,0,0,0-30.583,15.665Zm11.14,9.539a5.006,5.006,0,0,1-2.847-.763,3.155,3.155,0,0,1-1.386-2.17l1.622-.462a2.262,2.262,0,0,0,.865,1.466,2.805,2.805,0,0,0,1.735.521,3.462,3.462,0,0,0,1.015-.14,1.627,1.627,0,0,0,.779-.521,1.4,1.4,0,0,0,.312-.961,1.4,1.4,0,0,0-.086-.435,1.865,1.865,0,0,0-.172-.349,1.064,1.064,0,0,0-.3-.29,3.966,3.966,0,0,0-.365-.226,3.749,3.749,0,0,0-.478-.2q-.317-.113-.51-.172t-.591-.172q-.4-.113-.612-.177a11.455,11.455,0,0,1-1.1-.387,4.805,4.805,0,0,1-.892-.51,2.053,2.053,0,0,1-.693-.833,2.817,2.817,0,0,1-.231-1.182,2.731,2.731,0,0,1,.516-1.687,2.9,2.9,0,0,1,1.337-.994,5.346,5.346,0,0,1,1.875-.306,4.588,4.588,0,0,1,2.573.688,2.934,2.934,0,0,1,1.284,2.063l-1.525.387a2.022,2.022,0,0,0-.806-1.337,2.565,2.565,0,0,0-1.515-.446,2.614,2.614,0,0,0-1.418.371,1.246,1.246,0,0,0-.591,1.133,1.128,1.128,0,0,0,.156.585,1.859,1.859,0,0,0,.317.414,1.948,1.948,0,0,0,.58.317q.419.167.623.226t.773.2q.107.032.161.043.623.161,1.015.285a6.24,6.24,0,0,1,.913.387,3.036,3.036,0,0,1,.822.575,2.662,2.662,0,0,1,.516.816,2.882,2.882,0,0,1,.215,1.139,3.075,3.075,0,0,1-.317,1.423,2.479,2.479,0,0,1-.865.972,4.182,4.182,0,0,1-1.23.532A5.86,5.86,0,0,1-19.443,25.2ZM-9.26,25a2.776,2.776,0,0,1-2.062-.757,2.865,2.865,0,0,1-.752-2.111V15.923h-2.159V14.44h.795a1.526,1.526,0,0,0,1.166-.371,1.824,1.824,0,0,0,.338-1.241V10.917h1.729V14.44h2.428v1.482h-2.428v6.016A1.6,1.6,0,0,0-9.8,23.1a1.411,1.411,0,0,0,1.058.414h.967V25Zm5.113-13.041a1.209,1.209,0,0,1-.886-.371A1.209,1.209,0,0,1-5.4,10.7a1.192,1.192,0,0,1,.371-.881,1.218,1.218,0,0,1,.886-.365,1.206,1.206,0,0,1,.875.365A1.192,1.192,0,0,1-2.9,10.7a1.209,1.209,0,0,1-.371.886A1.2,1.2,0,0,1-4.146,11.959ZM-5.092,25V14.44h1.869V25Zm13.3-10.56h1.8V24.463a5.752,5.752,0,0,1-1.364,4.114,4.959,4.959,0,0,1-3.781,1.439A4.992,4.992,0,0,1-.258,26.783l1.536-.752A3.491,3.491,0,0,0,4.813,28.47a3.031,3.031,0,0,0,2.476-1.031,4.389,4.389,0,0,0,.854-2.879V22.6a3.721,3.721,0,0,1-1.5,1.52,4.376,4.376,0,0,1-2.2.575,4.527,4.527,0,0,1-3.416-1.488A5.247,5.247,0,0,1-.387,19.457a5.2,5.2,0,0,1,1.413-3.744,4.572,4.572,0,0,1,3.432-1.477,4.266,4.266,0,0,1,2.213.591,3.8,3.8,0,0,1,1.493,1.558ZM4.855,23.12a3.2,3.2,0,0,0,2.433-1.085,3.832,3.832,0,0,0,.005-5.167,3.189,3.189,0,0,0-2.438-1.085,3.217,3.217,0,0,0-2.433,1.053,3.671,3.671,0,0,0-.994,2.621,3.64,3.64,0,0,0,1,2.6A3.219,3.219,0,0,0,4.855,23.12ZM16.231,25.2a3.593,3.593,0,0,1-2.315-.725,2.6,2.6,0,0,1-.908-2.165,3.076,3.076,0,0,1,.29-1.38,2.433,2.433,0,0,1,.859-.961,5.155,5.155,0,0,1,1.241-.6A11.469,11.469,0,0,1,17,19l1.708-.279q.935-.172.935-.978a1.845,1.845,0,0,0-.661-1.574,2.692,2.692,0,0,0-1.67-.5,2.742,2.742,0,0,0-1.654.483,2.023,2.023,0,0,0-.784,1.482L13.2,17.276a3.225,3.225,0,0,1,1.321-2.261,4.937,4.937,0,0,1,2.879-.757,5.839,5.839,0,0,1,1.531.188,4.16,4.16,0,0,1,1.278.591,2.65,2.65,0,0,1,.913,1.139,4.237,4.237,0,0,1,.328,1.735v4.361a1.784,1.784,0,0,0,.242,1.1,1.043,1.043,0,0,0,.833.285H22.7V25h-.924a1.762,1.762,0,0,1-2-1.429H19.69A4.035,4.035,0,0,1,16.231,25.2Zm.43-1.5a2.818,2.818,0,0,0,2.267-1.021,4.2,4.2,0,0,0,.859-2.793l-2.793.537a3.76,3.76,0,0,0-1.638.585,1.362,1.362,0,0,0-.532,1.155,1.346,1.346,0,0,0,.51,1.16A2.181,2.181,0,0,0,16.661,23.7Zm12.826,1.493a5.086,5.086,0,0,1-3.781-1.515,5.4,5.4,0,0,1-1.493-3.964A5.414,5.414,0,0,1,25.7,15.751a5.5,5.5,0,0,1,6.843-.591,4.662,4.662,0,0,1,1.778,2.567l-1.74.279a3.214,3.214,0,0,0-1.192-1.644,3.247,3.247,0,0,0-1.912-.58,3.122,3.122,0,0,0-2.444,1.085,4.133,4.133,0,0,0-.961,2.847,4.113,4.113,0,0,0,.961,2.841,3.129,3.129,0,0,0,2.444,1.08,3.247,3.247,0,0,0,1.912-.58,3.214,3.214,0,0,0,1.192-1.644l1.74.29a4.668,4.668,0,0,1-1.789,2.562A5.115,5.115,0,0,1,29.487,25.193Zm8.519-13.234A1.265,1.265,0,0,1,36.749,10.7a1.192,1.192,0,0,1,.371-.881,1.218,1.218,0,0,1,.886-.365,1.206,1.206,0,0,1,.875.365,1.192,1.192,0,0,1,.371.881,1.209,1.209,0,0,1-.371.886A1.2,1.2,0,0,1,38.006,11.959ZM37.061,25V14.44H38.93V25Zm9.389-12.375,2.7-3.5.988.72-2.406,2.782ZM47.158,25.2a5.566,5.566,0,0,1-2.707-.655,4.771,4.771,0,0,1-1.907-1.917,5.89,5.89,0,0,1-.7-2.917,5.38,5.38,0,0,1,1.5-3.98,5.622,5.622,0,0,1,7.643,0,5.39,5.39,0,0,1,1.493,3.98,5.394,5.394,0,0,1-1.5,3.991A5.173,5.173,0,0,1,47.158,25.2Zm-.011-1.547a3.243,3.243,0,0,0,2.5-1.085,4.065,4.065,0,0,0,.994-2.857,4.05,4.05,0,0,0-.994-2.847,3.243,3.243,0,0,0-2.5-1.085,3.2,3.2,0,0,0-2.476,1.085,4.077,4.077,0,0,0-.983,2.847,4.092,4.092,0,0,0,.983,2.857A3.2,3.2,0,0,0,47.147,23.657Zm13.224-9.421a3.673,3.673,0,0,1,2.659.956,3.566,3.566,0,0,1,.994,2.7V25H62.165V18.308a2.5,2.5,0,0,0-.645-1.891,2.3,2.3,0,0,0-1.654-.612,2.555,2.555,0,0,0-1.88.725,2.942,2.942,0,0,0-.741,2.154V25H55.387V14.44h1.858v1.354A3.526,3.526,0,0,1,60.371,14.236Z" transform="translate(1378 10331)" fill="#00223d"/>
    <path id="Trazado_36865" data-name="Trazado 36865" d="M210.5,0C326.756,0,421,30.668,421,68.5S326.756,137,210.5,137,0,106.331,0,68.5,94.244,0,210.5,0Z" transform="translate(750 10531)" fill="#f7be75"/>
    <path id="Trazado_36866" data-name="Trazado 36866" d="M-111.778-15.125h2.03L-115.291,0h-1.977l-5.543-15.125h2.02l4.512,12.719ZM-99.07-5.489l-.021.5h-8.25a3.731,3.731,0,0,0,1.01,2.7,3.315,3.315,0,0,0,2.406.94,3.166,3.166,0,0,0,1.751-.5,3.276,3.276,0,0,0,1.2-1.4l1.676.354a4.763,4.763,0,0,1-1.8,2.267A4.924,4.924,0,0,1-103.9.2a5.1,5.1,0,0,1-3.8-1.472,5.475,5.475,0,0,1-1.45-4.018A5.448,5.448,0,0,1-107.7-9.292a5.038,5.038,0,0,1,3.744-1.472,4.767,4.767,0,0,1,3.55,1.354A5.348,5.348,0,0,1-99.07-5.489Zm-4.888-3.846a3.293,3.293,0,0,0-2.2.747,3.42,3.42,0,0,0-1.112,2.175h6.327a3.138,3.138,0,0,0-.924-2.175A2.983,2.983,0,0,0-103.958-9.335Zm12.783-1.429a3.673,3.673,0,0,1,2.659.956,3.566,3.566,0,0,1,.994,2.7V0H-89.38V-6.692a2.5,2.5,0,0,0-.645-1.891A2.3,2.3,0,0,0-91.679-9.2a2.555,2.555,0,0,0-1.88.725A2.942,2.942,0,0,0-94.3-6.316V0h-1.858V-10.56H-94.3v1.354A3.526,3.526,0,0,1-91.174-10.764ZM-80.561,0a2.776,2.776,0,0,1-2.062-.757,2.865,2.865,0,0,1-.752-2.111V-9.077h-2.159V-10.56h.795a1.526,1.526,0,0,0,1.166-.371,1.824,1.824,0,0,0,.338-1.241v-1.912h1.729v3.523h2.428v1.482h-2.428v6.016A1.6,1.6,0,0,0-81.1-1.9a1.411,1.411,0,0,0,1.058.414h.967V0Zm6.478.2A3.593,3.593,0,0,1-76.4-.521a2.6,2.6,0,0,1-.908-2.165,3.076,3.076,0,0,1,.29-1.38,2.434,2.434,0,0,1,.859-.961,5.155,5.155,0,0,1,1.241-.6A11.469,11.469,0,0,1-73.31-6l1.708-.279q.935-.172.935-.978a1.845,1.845,0,0,0-.661-1.574,2.692,2.692,0,0,0-1.67-.5,2.742,2.742,0,0,0-1.654.483,2.023,2.023,0,0,0-.784,1.482l-1.676-.354a3.225,3.225,0,0,1,1.321-2.261,4.937,4.937,0,0,1,2.879-.757,5.839,5.839,0,0,1,1.531.188,4.16,4.16,0,0,1,1.278.591,2.65,2.65,0,0,1,.913,1.139,4.237,4.237,0,0,1,.328,1.735v4.361a1.784,1.784,0,0,0,.242,1.1,1.043,1.043,0,0,0,.833.285h.172V0h-.924a1.762,1.762,0,0,1-2-1.429h-.086A4.035,4.035,0,0,1-74.083.2Zm.43-1.5A2.818,2.818,0,0,0-71.387-2.32a4.2,4.2,0,0,0,.859-2.793l-2.793.537a3.76,3.76,0,0,0-1.638.585,1.362,1.362,0,0,0-.532,1.155,1.346,1.346,0,0,0,.51,1.16A2.181,2.181,0,0,0-73.654-1.3Zm22.172-15.2h1.858V0h-1.794l-.043-2.052a3.885,3.885,0,0,1-1.5,1.665A4.191,4.191,0,0,1-55.2.226a4.746,4.746,0,0,1-1.912-.392,4.792,4.792,0,0,1-1.574-1.1,5.085,5.085,0,0,1-1.063-1.746,6.385,6.385,0,0,1-.392-2.267,5.553,5.553,0,0,1,1.434-3.964A4.629,4.629,0,0,1-55.2-10.764a4.209,4.209,0,0,1,2.208.6,3.908,3.908,0,0,1,1.509,1.617Zm-3.33,15.114A3.162,3.162,0,0,0-52.357-2.5a4.013,4.013,0,0,0,.994-2.777,4.005,4.005,0,0,0-1-2.771,3.16,3.16,0,0,0-2.449-1.117,3.232,3.232,0,0,0-2.471,1.08,3.972,3.972,0,0,0-1,2.809,3.972,3.972,0,0,0,1,2.809A3.232,3.232,0,0,0-54.812-1.386Zm18.208-4.1-.021.5h-8.25a3.731,3.731,0,0,0,1.01,2.7,3.315,3.315,0,0,0,2.406.94,3.166,3.166,0,0,0,1.751-.5,3.276,3.276,0,0,0,1.2-1.4l1.676.354a4.763,4.763,0,0,1-1.8,2.267,4.924,4.924,0,0,1-2.8.827,5.1,5.1,0,0,1-3.8-1.472,5.475,5.475,0,0,1-1.45-4.018,5.448,5.448,0,0,1,1.456-4.007,5.038,5.038,0,0,1,3.744-1.472,4.767,4.767,0,0,1,3.55,1.354A5.348,5.348,0,0,1-36.6-5.489Zm-4.888-3.846a3.293,3.293,0,0,0-2.2.747A3.42,3.42,0,0,0-44.8-6.413h6.327A3.138,3.138,0,0,0-39.4-8.588,2.983,2.983,0,0,0-41.492-9.335ZM-27.978,0V-16.5h1.88V0Zm8.1.2a3.593,3.593,0,0,1-2.315-.725A2.6,2.6,0,0,1-23.1-2.686a3.076,3.076,0,0,1,.29-1.38,2.433,2.433,0,0,1,.859-.961,5.155,5.155,0,0,1,1.241-.6A11.469,11.469,0,0,1-19.1-6l1.708-.279q.935-.172.935-.978a1.845,1.845,0,0,0-.661-1.574,2.692,2.692,0,0,0-1.67-.5,2.742,2.742,0,0,0-1.654.483,2.023,2.023,0,0,0-.784,1.482l-1.676-.354a3.225,3.225,0,0,1,1.321-2.261,4.937,4.937,0,0,1,2.879-.757,5.839,5.839,0,0,1,1.531.188,4.16,4.16,0,0,1,1.278.591,2.65,2.65,0,0,1,.913,1.139,4.237,4.237,0,0,1,.328,1.735v4.361a1.784,1.784,0,0,0,.242,1.1,1.043,1.043,0,0,0,.833.285h.172V0h-.924a1.762,1.762,0,0,1-2-1.429h-.086A4.035,4.035,0,0,1-19.878.2Zm.43-1.5A2.818,2.818,0,0,0-17.182-2.32a4.2,4.2,0,0,0,.859-2.793l-2.793.537a3.76,3.76,0,0,0-1.638.585,1.362,1.362,0,0,0-.532,1.155,1.346,1.346,0,0,0,.51,1.16A2.181,2.181,0,0,0-19.449-1.3ZM-4.13-13.041a1.209,1.209,0,0,1-.886-.371,1.209,1.209,0,0,1-.371-.886,1.192,1.192,0,0,1,.371-.881,1.218,1.218,0,0,1,.886-.365,1.206,1.206,0,0,1,.875.365,1.192,1.192,0,0,1,.371.881,1.209,1.209,0,0,1-.371.886A1.2,1.2,0,0,1-4.13-13.041ZM-5.076,0V-10.56h1.869V0ZM5.559-10.764a3.673,3.673,0,0,1,2.659.956,3.566,3.566,0,0,1,.994,2.7V0H7.353V-6.692a2.5,2.5,0,0,0-.645-1.891A2.3,2.3,0,0,0,5.054-9.2a2.555,2.555,0,0,0-1.88.725,2.942,2.942,0,0,0-.741,2.154V0H.575V-10.56H2.433v1.354A3.526,3.526,0,0,1,5.559-10.764Zm13.471.2h1.987L16.72,0H15.141L10.866-10.56h1.977l3.094,8.4Zm13.009,5.07-.021.5h-8.25a3.731,3.731,0,0,0,1.01,2.7,3.315,3.315,0,0,0,2.406.94,3.166,3.166,0,0,0,1.751-.5,3.276,3.276,0,0,0,1.2-1.4l1.676.354a4.763,4.763,0,0,1-1.8,2.267A4.924,4.924,0,0,1,27.2.2a5.1,5.1,0,0,1-3.8-1.472,5.475,5.475,0,0,1-1.45-4.018,5.448,5.448,0,0,1,1.456-4.007,5.038,5.038,0,0,1,3.744-1.472A4.767,4.767,0,0,1,30.7-9.41,5.348,5.348,0,0,1,32.039-5.489ZM27.151-9.335a3.293,3.293,0,0,0-2.2.747,3.42,3.42,0,0,0-1.112,2.175h6.327a3.138,3.138,0,0,0-.924-2.175A2.983,2.983,0,0,0,27.151-9.335ZM38.291.2a5.006,5.006,0,0,1-2.847-.763,3.155,3.155,0,0,1-1.386-2.17L35.68-3.19a2.262,2.262,0,0,0,.865,1.466A2.805,2.805,0,0,0,38.28-1.2a3.462,3.462,0,0,0,1.015-.14,1.627,1.627,0,0,0,.779-.521,1.4,1.4,0,0,0,.312-.961A1.4,1.4,0,0,0,40.3-3.26a1.865,1.865,0,0,0-.172-.349,1.064,1.064,0,0,0-.3-.29,3.966,3.966,0,0,0-.365-.226,3.749,3.749,0,0,0-.478-.2q-.317-.113-.51-.172t-.591-.172q-.4-.113-.612-.177a11.454,11.454,0,0,1-1.1-.387,4.805,4.805,0,0,1-.892-.51,2.053,2.053,0,0,1-.693-.833,2.817,2.817,0,0,1-.231-1.182,2.731,2.731,0,0,1,.516-1.687,2.9,2.9,0,0,1,1.337-.994,5.346,5.346,0,0,1,1.875-.306,4.588,4.588,0,0,1,2.573.688,2.934,2.934,0,0,1,1.284,2.063l-1.525.387a2.022,2.022,0,0,0-.806-1.337A2.565,2.565,0,0,0,38.1-9.389a2.614,2.614,0,0,0-1.418.371,1.246,1.246,0,0,0-.591,1.133,1.128,1.128,0,0,0,.156.585,1.859,1.859,0,0,0,.317.414,1.948,1.948,0,0,0,.58.317q.419.167.623.226t.773.2q.107.032.161.043.623.161,1.015.285a6.24,6.24,0,0,1,.913.387,3.036,3.036,0,0,1,.822.575,2.663,2.663,0,0,1,.516.816A2.882,2.882,0,0,1,42.179-2.9a3.075,3.075,0,0,1-.317,1.423A2.479,2.479,0,0,1,41-.5a4.182,4.182,0,0,1-1.23.532A5.86,5.86,0,0,1,38.291.2ZM48.474,0a2.776,2.776,0,0,1-2.062-.757,2.865,2.865,0,0,1-.752-2.111V-9.077H43.5V-10.56H44.3a1.526,1.526,0,0,0,1.166-.371,1.824,1.824,0,0,0,.338-1.241v-1.912h1.729v3.523h2.428v1.482H47.529v6.016a1.6,1.6,0,0,0,.4,1.166,1.411,1.411,0,0,0,1.058.414h.967V0Zm5.113-13.041a1.209,1.209,0,0,1-.886-.371,1.209,1.209,0,0,1-.371-.886,1.192,1.192,0,0,1,.371-.881,1.218,1.218,0,0,1,.886-.365,1.206,1.206,0,0,1,.875.365,1.192,1.192,0,0,1,.371.881,1.209,1.209,0,0,1-.371.886A1.2,1.2,0,0,1,53.587-13.041ZM52.642,0V-10.56h1.869V0Zm13.3-10.56h1.8V-.537a5.752,5.752,0,0,1-1.364,4.114A4.959,4.959,0,0,1,62.6,5.017a4.992,4.992,0,0,1-5.124-3.233l1.536-.752A3.491,3.491,0,0,0,62.546,3.47a3.031,3.031,0,0,0,2.476-1.031A4.389,4.389,0,0,0,65.876-.44V-2.4a3.721,3.721,0,0,1-1.5,1.52,4.376,4.376,0,0,1-2.2.575,4.527,4.527,0,0,1-3.416-1.488,5.247,5.247,0,0,1-1.407-3.754A5.2,5.2,0,0,1,58.76-9.287a4.572,4.572,0,0,1,3.432-1.477,4.266,4.266,0,0,1,2.213.591A3.8,3.8,0,0,1,65.9-8.615ZM62.589-1.88a3.2,3.2,0,0,0,2.433-1.085,3.666,3.666,0,0,0,1-2.578,3.691,3.691,0,0,0-1-2.589,3.189,3.189,0,0,0-2.438-1.085,3.217,3.217,0,0,0-2.433,1.053,3.671,3.671,0,0,0-.994,2.621,3.64,3.64,0,0,0,1,2.6A3.219,3.219,0,0,0,62.589-1.88ZM73.965.2A3.593,3.593,0,0,1,71.65-.521a2.6,2.6,0,0,1-.908-2.165,3.076,3.076,0,0,1,.29-1.38,2.434,2.434,0,0,1,.859-.961,5.155,5.155,0,0,1,1.241-.6A11.469,11.469,0,0,1,74.739-6l1.708-.279q.935-.172.935-.978a1.845,1.845,0,0,0-.661-1.574,2.692,2.692,0,0,0-1.67-.5,2.742,2.742,0,0,0-1.654.483,2.023,2.023,0,0,0-.784,1.482l-1.676-.354a3.225,3.225,0,0,1,1.321-2.261,4.937,4.937,0,0,1,2.879-.757,5.839,5.839,0,0,1,1.531.188,4.16,4.16,0,0,1,1.278.591,2.65,2.65,0,0,1,.913,1.139,4.237,4.237,0,0,1,.328,1.735v4.361a1.784,1.784,0,0,0,.242,1.1,1.043,1.043,0,0,0,.833.285h.172V0h-.924a1.762,1.762,0,0,1-2-1.429h-.086A4.035,4.035,0,0,1,73.965.2Zm.43-1.5A2.818,2.818,0,0,0,76.662-2.32a4.2,4.2,0,0,0,.859-2.793l-2.793.537a3.76,3.76,0,0,0-1.638.585,1.362,1.362,0,0,0-.532,1.155,1.346,1.346,0,0,0,.51,1.16A2.181,2.181,0,0,0,74.4-1.3ZM87.221.193A5.086,5.086,0,0,1,83.44-1.321a5.4,5.4,0,0,1-1.493-3.964,5.414,5.414,0,0,1,1.488-3.964,5.081,5.081,0,0,1,3.787-1.515,5.123,5.123,0,0,1,3.056.924,4.662,4.662,0,0,1,1.778,2.567l-1.74.279a3.214,3.214,0,0,0-1.192-1.644,3.247,3.247,0,0,0-1.912-.58,3.122,3.122,0,0,0-2.444,1.085,4.133,4.133,0,0,0-.961,2.847,4.113,4.113,0,0,0,.961,2.841,3.129,3.129,0,0,0,2.444,1.08,3.247,3.247,0,0,0,1.912-.58,3.214,3.214,0,0,0,1.192-1.644l1.74.29A4.668,4.668,0,0,1,90.267-.736,5.115,5.115,0,0,1,87.221.193ZM95.74-13.041a1.209,1.209,0,0,1-.886-.371,1.209,1.209,0,0,1-.371-.886,1.192,1.192,0,0,1,.371-.881,1.218,1.218,0,0,1,.886-.365,1.206,1.206,0,0,1,.875.365,1.192,1.192,0,0,1,.371.881,1.209,1.209,0,0,1-.371.886A1.2,1.2,0,0,1,95.74-13.041ZM94.794,0V-10.56h1.869V0Zm9.389-12.375,2.7-3.5.988.72-2.406,2.782ZM104.892.2a5.566,5.566,0,0,1-2.707-.655,4.771,4.771,0,0,1-1.907-1.917,5.89,5.89,0,0,1-.7-2.917,5.38,5.38,0,0,1,1.5-3.98,5.173,5.173,0,0,1,3.819-1.5,5.168,5.168,0,0,1,3.824,1.5,5.39,5.39,0,0,1,1.493,3.98,5.394,5.394,0,0,1-1.5,3.991A5.173,5.173,0,0,1,104.892.2Zm-.011-1.547a3.243,3.243,0,0,0,2.5-1.085,4.065,4.065,0,0,0,.994-2.857,4.05,4.05,0,0,0-.994-2.847,3.243,3.243,0,0,0-2.5-1.085,3.2,3.2,0,0,0-2.476,1.085,4.077,4.077,0,0,0-.983,2.847,4.092,4.092,0,0,0,.983,2.857A3.2,3.2,0,0,0,104.881-1.343ZM118.1-10.764a3.673,3.673,0,0,1,2.659.956,3.566,3.566,0,0,1,.994,2.7V0H119.9V-6.692a2.5,2.5,0,0,0-.645-1.891A2.3,2.3,0,0,0,117.6-9.2a2.555,2.555,0,0,0-1.88.725,2.942,2.942,0,0,0-.741,2.154V0h-1.858V-10.56h1.858v1.354A3.526,3.526,0,0,1,118.1-10.764Z" transform="translate(960 10606)" fill="#00223d"/>
    <g id="Grupo_17455" data-name="Grupo 17455">
      <path id="Trazado_35995" data-name="Trazado 35995" d="M2070.891,4202.7h96.578" transform="translate(-1375 5597)" fill="none" stroke="#000" stroke-width="2"/>
      <path id="Polgono_27" data-name="Polgono 27" d="M11.5,0,23,20H0Z" transform="translate(812.5 9789.5) rotate(90)" fill="#101010"/>
    </g>
    <g id="Grupo_17456" data-name="Grupo 17456" transform="translate(414)">
      <path id="Trazado_35995-2" data-name="Trazado 35995" d="M2070.891,4202.7h96.578" transform="translate(-1375 5597)" fill="none" stroke="#000" stroke-width="2"/>
      <path id="Polgono_27-2" data-name="Polgono 27" d="M11.5,0,23,20H0Z" transform="translate(812.5 9789.5) rotate(90)" fill="#101010"/>
    </g>
    <g id="Grupo_17457" data-name="Grupo 17457" transform="translate(0 267)">
      <path id="Trazado_35995-3" data-name="Trazado 35995" d="M2070.891,4202.7h96.578" transform="translate(-1375 5597)" fill="none" stroke="#000" stroke-width="2"/>
      <path id="Polgono_27-3" data-name="Polgono 27" d="M11.5,0,23,20H0Z" transform="translate(812.5 9789.5) rotate(90)" fill="#101010"/>
    </g>
    <g id="Grupo_17458" data-name="Grupo 17458" transform="translate(414 267)">
      <path id="Trazado_35995-4" data-name="Trazado 35995" d="M2070.891,4202.7h96.578" transform="translate(-1375 5597)" fill="none" stroke="#000" stroke-width="2"/>
      <path id="Polgono_27-4" data-name="Polgono 27" d="M11.5,0,23,20H0Z" transform="translate(812.5 9789.5) rotate(90)" fill="#101010"/>
    </g>
    <g id="Grupo_17459" data-name="Grupo 17459" transform="translate(0 533)">
      <path id="Trazado_35995-5" data-name="Trazado 35995" d="M2070.891,4202.7h96.578" transform="translate(-1375 5597)" fill="none" stroke="#000" stroke-width="2"/>
      <path id="Polgono_27-5" data-name="Polgono 27" d="M11.5,0,23,20H0Z" transform="translate(812.5 9789.5) rotate(90)" fill="#101010"/>
    </g>
    <g id="Grupo_17460" data-name="Grupo 17460" transform="translate(414 533)">
      <path id="Trazado_35995-6" data-name="Trazado 35995" d="M2070.891,4202.7h96.578" transform="translate(-1375 5597)" fill="none" stroke="#000" stroke-width="2"/>
      <path id="Polgono_27-6" data-name="Polgono 27" d="M11.5,0,23,20H0Z" transform="translate(812.5 9789.5) rotate(90)" fill="#101010"/>
    </g>
    <g id="Grupo_17461" data-name="Grupo 17461">
      <path id="Trazado_35996" data-name="Trazado 35996" d="M1903.3,8707l812.224-122.281" transform="translate(-1374 1296)" fill="none" stroke="#ff8f00" stroke-width="2"/>
      <path id="Polgono_28" data-name="Polgono 28" d="M11.5,0,23,20H0Z" transform="translate(1357.943 9864.189) rotate(74)" fill="#ff8f00"/>
    </g>
    <g id="Grupo_17462" data-name="Grupo 17462" transform="translate(0 270)">
      <path id="Trazado_35996-2" data-name="Trazado 35996" d="M1903.3,8707l812.224-122.281" transform="translate(-1374 1296)" fill="none" stroke="#ff8f00" stroke-width="2"/>
      <path id="Polgono_28-2" data-name="Polgono 28" d="M11.5,0,23,20H0Z" transform="translate(1357.943 9864.189) rotate(74)" fill="#ff8f00"/>
    </g>
    <path id="Trazado_35997" data-name="Trazado 35997" d="M2752,9105l-388.328,107.266" transform="translate(-1374 1296)" fill="none" stroke="#ff8f00" stroke-width="2"/>
    <path id="Trazado_36864" data-name="Trazado 36864" d="M11.5,0,23,20H0Z" transform="matrix(-0.259, -0.966, 0.966, -0.259, 982.817, 10521.697)" fill="#ff8f00"/>
  </g>
</svg>
