<svg id="Grupo_17446" data-name="Grupo 17446" xmlns="http://www.w3.org/2000/svg" xmlns:xlink="http://www.w3.org/1999/xlink" width="98.191" height="90.611" viewBox="0 0 98.191 90.611">
  <defs>
    <clipPath id="clip-path">
      <rect id="Rectángulo_4402" data-name="Rectángulo 4402" width="98.191" height="90.611" fill="none"/>
    </clipPath>
  </defs>
  <g id="Grupo_17445" data-name="Grupo 17445" clip-path="url(#clip-path)">
    <path id="Trazado_35933" data-name="Trazado 35933" d="M48.126,104.919a34.03,34.03,0,1,1,34.03,34.006,34.018,34.018,0,0,1-34.03-34.006" transform="translate(-36.547 -53.851)" fill="#c7ddeb"/>
    <path id="Trazado_35934" data-name="Trazado 35934" d="M157.243,172.417a6.15,6.15,0,1,1,6.15,6.15,6.15,6.15,0,0,1-6.15-6.15" transform="translate(-119.409 -126.262)" fill="#f04f4c"/>
    <path id="Trazado_35935" data-name="Trazado 35935" d="M159.927,176.2a7.248,7.248,0,1,1,7.248-7.248,7.256,7.256,0,0,1-7.248,7.248m0-12.3a5.051,5.051,0,1,0,5.052,5.051,5.057,5.057,0,0,0-5.052-5.051" transform="translate(-115.944 -122.796)" fill="#3d4451"/>
    <path id="Trazado_35936" data-name="Trazado 35936" d="M131.529,157.11a16.557,16.557,0,1,1,16.557-16.557,16.576,16.576,0,0,1-16.557,16.557m0-30.275a13.718,13.718,0,1,0,13.718,13.718,13.734,13.734,0,0,0-13.718-13.718" transform="translate(-87.309 -94.163)" fill="#3d4451"/>
    <path id="Trazado_35937" data-name="Trazado 35937" d="M91.964,130.082a29.092,29.092,0,1,1,29.093-29.092,29.125,29.125,0,0,1-29.093,29.092m0-53.454a24.362,24.362,0,1,0,24.362,24.362A24.39,24.39,0,0,0,91.964,76.627" transform="translate(-47.744 -54.598)" fill="#3d4451"/>
    <path id="Trazado_35938" data-name="Trazado 35938" d="M44.22,97.464a44.22,44.22,0,1,1,44.22-44.22,44.27,44.27,0,0,1-44.22,44.22m0-81.364A37.144,37.144,0,1,0,81.364,53.245,37.187,37.187,0,0,0,44.22,16.1" transform="translate(0 -6.854)" fill="#3d4451"/>
    <path id="Trazado_35939" data-name="Trazado 35939" d="M177.577,101.9a1.656,1.656,0,0,1-1.041-2.944l34.3-27.673a1.656,1.656,0,1,1,2.079,2.577l-34.3,27.674a1.65,1.65,0,0,1-1.039.367" transform="translate(-133.593 -53.852)" fill="#3d4451"/>
    <path id="Trazado_35940" data-name="Trazado 35940" d="M280.569,33.729,278.51,21.961l12.649-10.367,1.471,13.449Z" transform="translate(-211.499 -8.804)" fill="#f04f4c"/>
    <path id="Trazado_35941" data-name="Trazado 35941" d="M274.63,27.428l-2.6-14.85L287.378,0l1.85,16.915Zm.519-13.693,1.52,8.687,9.523-6.859L285.1,5.579Z" transform="translate(-206.58)" fill="#3d4451"/>
    <path id="Trazado_35942" data-name="Trazado 35942" d="M289.692,79.46l11.265,5.215,14.021-8.618L301.853,70.9Z" transform="translate(-219.99 -53.843)" fill="#f04f4c"/>
    <path id="Trazado_35943" data-name="Trazado 35943" d="M292.025,81.193,277.8,74.609l14.828-10.433,16.523,6.487Zm-8.5-7.1,8.309,3.846,10.913-6.708-9.727-3.819Z" transform="translate(-210.962 -48.735)" fill="#3d4451"/>
  </g>
</svg>
