<svg id="Grupo_17606" data-name="Grupo 17606" xmlns="http://www.w3.org/2000/svg" xmlns:xlink="http://www.w3.org/1999/xlink" width="310.639" height="298.303" viewBox="0 0 310.639 298.303">
  <defs>
    <clipPath id="clip-path">
      <rect id="Rectángulo_4797" data-name="Rectángulo 4797" width="310.639" height="298.303" fill="none"/>
    </clipPath>
  </defs>
  <rect id="Rectángulo_4730" data-name="Rectángulo 4730" width="2.606" height="20.24" transform="translate(99.025 63.328)" fill="#575756"/>
  <rect id="Rectángulo_4731" data-name="Rectángulo 4731" width="2.606" height="20.24" transform="translate(99.025 94.057)" fill="#575756"/>
  <rect id="Rectángulo_4732" data-name="Rectángulo 4732" width="2.606" height="20.24" transform="translate(99.025 124.784)" fill="#575756"/>
  <rect id="Rectángulo_4733" data-name="Rectángulo 4733" width="2.606" height="20.24" transform="translate(99.025 155.513)" fill="#575756"/>
  <rect id="Rectángulo_4734" data-name="Rectángulo 4734" width="2.606" height="2.173" transform="translate(142.966 205.731)" fill="#575756"/>
  <path id="Trazado_36375" data-name="Trazado 36375" d="M77.218,125.076H74.612V120.37h2.606Zm0-9.412H74.612v-4.706h2.606Z" transform="translate(68.354 101.652)" fill="#575756"/>
  <rect id="Rectángulo_4735" data-name="Rectángulo 4735" width="2.606" height="2.173" transform="translate(142.966 231.432)" fill="#575756"/>
  <g id="Grupo_17605" data-name="Grupo 17605">
    <g id="Grupo_17604" data-name="Grupo 17604" clip-path="url(#clip-path)">
      <path id="Trazado_36376" data-name="Trazado 36376" d="M85.175,128.6a6.686,6.686,0,1,1-6.687-6.687,6.687,6.687,0,0,1,6.687,6.687" transform="translate(65.78 111.69)" fill="#63bcb8"/>
      <path id="Trazado_36377" data-name="Trazado 36377" d="M46.121,131.652a4.226,4.226,0,1,1,4.225-4.227,4.23,4.23,0,0,1-4.225,4.227m0-5.846a1.619,1.619,0,1,0,1.619,1.619,1.622,1.622,0,0,0-1.619-1.619" transform="translate(38.38 112.867)" fill="#575756"/>
      <path id="Trazado_36378" data-name="Trazado 36378" d="M96.088,131.652a4.226,4.226,0,1,1,4.227-4.227,4.23,4.23,0,0,1-4.227,4.227m0-5.846a1.619,1.619,0,1,0,1.621,1.619,1.621,1.621,0,0,0-1.621-1.619" transform="translate(84.158 112.867)" fill="#575756"/>
      <rect id="Rectángulo_4736" data-name="Rectángulo 4736" width="2.173" height="2.606" transform="translate(87.421 238.989)" fill="#575756"/>
      <path id="Trazado_36379" data-name="Trazado 36379" d="M86.415,127.331H82.25v-2.606h4.166Zm-8.329,0H73.92v-2.606h4.166Zm-8.329,0H65.591v-2.606h4.166Zm-8.331,0H57.259v-2.606h4.166Zm-8.327,0H48.932v-2.606H53.1Z" transform="translate(44.828 114.264)" fill="#575756"/>
      <rect id="Rectángulo_4737" data-name="Rectángulo 4737" width="2.173" height="2.606" transform="translate(135.409 238.989)" fill="#575756"/>
      <rect id="Rectángulo_4738" data-name="Rectángulo 4738" width="2.171" height="2.606" transform="translate(150.954 238.989)" fill="#575756"/>
      <path id="Trazado_36380" data-name="Trazado 36380" d="M95.4,127.331h-4.4v-2.606h4.4Zm-8.8,0h-4.4v-2.606h4.4Z" transform="translate(75.315 114.264)" fill="#575756"/>
      <rect id="Rectángulo_4739" data-name="Rectángulo 4739" width="2.171" height="2.606" transform="translate(175.119 238.989)" fill="#575756"/>
      <path id="Trazado_36381" data-name="Trazado 36381" d="M177.741,70.8H116.065V19.764l10.161-10.64h51.515Z" transform="translate(106.33 8.358)" fill="#63bcb8"/>
      <rect id="Rectángulo_4740" data-name="Rectángulo 4740" width="14.712" height="2.607" transform="matrix(0.691, -0.723, 0.723, 0.691, 221.453, 27.222)" fill="#575756"/>
      <path id="Trazado_36382" data-name="Trazado 36382" d="M116.083,21.067l-.025-2.606,8.87-.084V9.124h2.608V20.96Z" transform="translate(106.324 8.358)" fill="#575756"/>
      <rect id="Rectángulo_4741" data-name="Rectángulo 4741" width="36.694" height="2.606" transform="translate(240.658 21.499)" fill="#575756"/>
      <rect id="Rectángulo_4742" data-name="Rectángulo 4742" width="36.694" height="2.606" transform="translate(240.658 28.571)" fill="#575756"/>
      <rect id="Rectángulo_4743" data-name="Rectángulo 4743" width="47.727" height="2.606" transform="translate(229.625 35.642)" fill="#575756"/>
      <rect id="Rectángulo_4744" data-name="Rectángulo 4744" width="47.727" height="2.606" transform="translate(229.625 42.714)" fill="#575756"/>
      <rect id="Rectángulo_4745" data-name="Rectángulo 4745" width="47.727" height="2.606" transform="translate(229.625 49.785)" fill="#575756"/>
      <rect id="Rectángulo_4746" data-name="Rectángulo 4746" width="47.727" height="2.606" transform="translate(229.625 56.855)" fill="#575756"/>
      <rect id="Rectángulo_4747" data-name="Rectángulo 4747" width="47.727" height="2.606" transform="translate(229.625 63.928)" fill="#575756"/>
      <rect id="Rectángulo_4748" data-name="Rectángulo 4748" width="47.727" height="2.606" transform="translate(229.625 70.998)" fill="#575756"/>
      <path id="Trazado_36383" data-name="Trazado 36383" d="M52.087,134.649l-4.982-4.166a2.842,2.842,0,0,0-1.822-.663H37.358a2.84,2.84,0,0,0-2.84,2.842v28.88a2.84,2.84,0,0,0,2.84,2.842H68.4a2.842,2.842,0,0,0,2.842-2.842v-23.39A2.842,2.842,0,0,0,68.4,135.31H53.909a2.844,2.844,0,0,1-1.822-.661" transform="translate(31.623 118.932)" fill="#63bcb8"/>
      <rect id="Rectángulo_4749" data-name="Rectángulo 4749" width="36.721" height="2.606" transform="translate(66.141 274.924)" fill="#575756"/>
      <path id="Trazado_36384" data-name="Trazado 36384" d="M31.909,93.894l-8.147-6.814A4.645,4.645,0,0,0,20.78,86H7.822a4.647,4.647,0,0,0-4.647,4.647v47.233a4.646,4.646,0,0,0,4.647,4.645H58.584a4.646,4.646,0,0,0,4.649-4.645V99.624a4.648,4.648,0,0,0-4.649-4.649H34.891a4.643,4.643,0,0,1-2.981-1.081" transform="translate(2.909 78.785)" fill="#63bcb8"/>
      <rect id="Rectángulo_4750" data-name="Rectángulo 4750" width="60.057" height="2.608" transform="translate(6.084 208.411)" fill="#575756"/>
      <path id="Trazado_36385" data-name="Trazado 36385" d="M61.492,74.642H10.73A10.743,10.743,0,0,1,0,63.91V16.679A10.742,10.742,0,0,1,10.73,5.949H23.691a10.751,10.751,0,0,1,6.881,2.5l7.749,6.48H61.492a10.745,10.745,0,0,1,10.732,10.73V63.91A10.744,10.744,0,0,1,61.492,74.642M10.73,8.555a8.132,8.132,0,0,0-8.122,8.124V63.91a8.131,8.131,0,0,0,8.122,8.124H61.492a8.132,8.132,0,0,0,8.124-8.124V25.656a8.133,8.133,0,0,0-8.124-8.122H37.374L28.9,10.446a8.132,8.132,0,0,0-5.208-1.891Z" transform="translate(0 5.45)" fill="#575756"/>
      <path id="Trazado_36386" data-name="Trazado 36386" d="M31.909,17.019l-8.147-6.814A4.656,4.656,0,0,0,20.78,9.123H7.822a4.648,4.648,0,0,0-4.647,4.649V61a4.647,4.647,0,0,0,4.647,4.647H58.584A4.648,4.648,0,0,0,63.232,61V22.749A4.648,4.648,0,0,0,58.584,18.1H34.891a4.645,4.645,0,0,1-2.981-1.083" transform="translate(2.909 8.358)" fill="#63bcb8"/>
      <rect id="Rectángulo_4751" data-name="Rectángulo 4751" width="60.057" height="2.606" transform="translate(6.084 61.113)" fill="#575756"/>
      <path id="Trazado_36387" data-name="Trazado 36387" d="M105.143,178.9H69.837a7.871,7.871,0,0,1-7.862-7.862V138.19a7.869,7.869,0,0,1,7.862-7.86H78.85a7.886,7.886,0,0,1,5.041,1.828l5.279,4.417h15.973a7.87,7.87,0,0,1,7.862,7.86v26.607a7.872,7.872,0,0,1-7.862,7.862M69.837,132.936a5.26,5.26,0,0,0-5.254,5.254v32.852a5.26,5.26,0,0,0,5.254,5.254h35.307a5.26,5.26,0,0,0,5.254-5.254V144.435a5.26,5.26,0,0,0-5.254-5.254H88.224l-6.005-5.022a5.267,5.267,0,0,0-3.369-1.222Z" transform="translate(56.777 119.399)" fill="#575756"/>
      <path id="Trazado_36388" data-name="Trazado 36388" d="M84.377,138.238,78.711,133.5a3.243,3.243,0,0,0-2.073-.751H67.624a3.233,3.233,0,0,0-3.234,3.231v32.852a3.233,3.233,0,0,0,3.234,3.233h35.307a3.233,3.233,0,0,0,3.233-3.233V142.223a3.233,3.233,0,0,0-3.233-3.232H86.45a3.245,3.245,0,0,1-2.073-.753" transform="translate(58.989 121.612)" fill="#63bcb8"/>
      <rect id="Rectángulo_4752" data-name="Rectángulo 4752" width="41.773" height="2.606" transform="translate(123.381 284.309)" fill="#575756"/>
      <rect id="Rectángulo_4753" data-name="Rectángulo 4753" width="2.696" height="2.696" transform="translate(153.028 177.888)" fill="#63bcb8"/>
      <rect id="Rectángulo_4754" data-name="Rectángulo 4754" width="2.694" height="2.696" transform="translate(133.56 147.509)" fill="#63bcb8"/>
      <rect id="Rectángulo_4755" data-name="Rectángulo 4755" width="2.696" height="2.696" transform="translate(153.028 117.133)" fill="#63bcb8"/>
      <rect id="Rectángulo_4756" data-name="Rectángulo 4756" width="2.606" height="20.24" transform="translate(186.903 63.328)" fill="#575756"/>
      <path id="Trazado_36389" data-name="Trazado 36389" d="M96.922,56.717c-22.239,0-45.242-5.99-45.242-16.013s23-16.009,45.242-16.009,45.242,5.986,45.242,16.009-23,16.013-45.242,16.013m0-29.418c-25.5,0-42.636,6.933-42.636,13.405S71.418,54.109,96.922,54.109s42.636-6.931,42.636-13.405S122.427,27.3,96.922,27.3" transform="translate(47.345 22.624)" fill="#575756"/>
      <rect id="Rectángulo_4757" data-name="Rectángulo 4757" width="2.694" height="2.696" transform="translate(133.56 86.755)" fill="#63bcb8"/>
      <path id="Trazado_36390" data-name="Trazado 36390" d="M86.405,51.819H78.5v-7.9h7.9Zm-5.294-2.608H83.8V46.525H81.111Z" transform="translate(71.921 40.235)" fill="#575756"/>
      <path id="Trazado_36391" data-name="Trazado 36391" d="M76.245,67.672h-7.9v-7.9h7.9Zm-5.294-2.606h2.686V62.38H70.951Z" transform="translate(62.613 54.759)" fill="#575756"/>
      <path id="Trazado_36392" data-name="Trazado 36392" d="M86.405,83.527H78.5v-7.9h7.9Zm-5.294-2.608H83.8V78.233H81.111Z" transform="translate(71.921 69.282)" fill="#575756"/>
      <path id="Trazado_36393" data-name="Trazado 36393" d="M76.245,99.38h-7.9v-7.9h7.9Zm-5.294-2.608h2.686V94.086H70.951Z" transform="translate(62.613 83.806)" fill="#575756"/>
      <path id="Trazado_36394" data-name="Trazado 36394" d="M116.193,36.791c0,4.319-12.39,7.822-27.671,7.822s-27.673-3.5-27.673-7.822,12.39-7.822,27.673-7.822,27.671,3.5,27.671,7.822" transform="translate(55.745 26.539)" fill="#63bcb8"/>
      <rect id="Rectángulo_4758" data-name="Rectángulo 4758" width="6.231" height="6.231" transform="translate(141.152 176.121)" fill="#63bcb8"/>
      <rect id="Rectángulo_4759" data-name="Rectángulo 4759" width="6.231" height="6.231" transform="translate(141.152 145.743)" fill="#63bcb8"/>
      <rect id="Rectángulo_4760" data-name="Rectángulo 4760" width="6.231" height="6.231" transform="translate(141.152 115.366)" fill="#63bcb8"/>
      <rect id="Rectángulo_4761" data-name="Rectángulo 4761" width="6.231" height="6.233" transform="translate(141.152 84.988)" fill="#63bcb8"/>
      <rect id="Rectángulo_4762" data-name="Rectángulo 4762" width="2.606" height="20.24" transform="translate(186.903 94.057)" fill="#575756"/>
      <rect id="Rectángulo_4763" data-name="Rectángulo 4763" width="2.606" height="20.24" transform="translate(186.903 124.784)" fill="#575756"/>
      <rect id="Rectángulo_4764" data-name="Rectángulo 4764" width="2.606" height="20.24" transform="translate(186.903 155.513)" fill="#575756"/>
      <path id="Trazado_36395" data-name="Trazado 36395" d="M96.922,59.624c-22.239,0-45.242-5.99-45.242-16.011h2.606c0,6.473,17.132,13.4,42.636,13.4s42.636-6.931,42.636-13.4h2.606c0,10.021-23,16.011-45.242,16.011" transform="translate(47.345 39.955)" fill="#575756"/>
      <path id="Trazado_36396" data-name="Trazado 36396" d="M96.922,75.633c-22.239,0-45.242-5.99-45.242-16.011h2.606c0,6.473,17.132,13.4,42.636,13.4s42.636-6.931,42.636-13.4h2.606c0,10.021-23,16.011-45.242,16.011" transform="translate(47.345 54.621)" fill="#575756"/>
      <path id="Trazado_36397" data-name="Trazado 36397" d="M96.922,91.642c-22.239,0-45.242-5.988-45.242-16.011h2.606c0,6.473,17.132,13.405,42.636,13.405s42.636-6.933,42.636-13.405h2.606c0,10.023-23,16.011-45.242,16.011" transform="translate(47.345 69.288)" fill="#575756"/>
      <path id="Trazado_36398" data-name="Trazado 36398" d="M96.922,107.652c-22.239,0-45.242-5.99-45.242-16.013h2.606c0,6.475,17.132,13.405,42.636,13.405s42.636-6.931,42.636-13.405h2.606c0,10.023-23,16.013-45.242,16.013" transform="translate(47.345 83.953)" fill="#575756"/>
      <path id="Trazado_36399" data-name="Trazado 36399" d="M96.922,67.8c-22.239,0-45.242-5.99-45.242-16.011,0-2.127,1.044-4.156,3.1-6.034l1.757,1.926a5.769,5.769,0,0,0-2.255,4.108c0,6.473,17.132,13.4,42.636,13.4s42.636-6.931,42.636-13.4a5.766,5.766,0,0,0-2.253-4.106l1.757-1.926c2.058,1.878,3.1,3.907,3.1,6.032,0,10.021-23,16.011-45.242,16.011" transform="translate(47.345 41.917)" fill="#575756"/>
      <path id="Trazado_36400" data-name="Trazado 36400" d="M96.922,84.02c-22.239,0-45.242-5.988-45.242-16.011,0-2.125,1.044-4.154,3.1-6.032L56.541,63.9a5.773,5.773,0,0,0-2.255,4.108c0,6.473,17.132,13.405,42.636,13.405s42.636-6.933,42.636-13.405A5.766,5.766,0,0,0,137.3,63.9l1.757-1.924c2.058,1.878,3.1,3.905,3.1,6.03,0,10.023-23,16.011-45.242,16.011" transform="translate(47.345 56.779)" fill="#575756"/>
      <path id="Trazado_36401" data-name="Trazado 36401" d="M96.922,100.241c-22.239,0-45.242-5.988-45.242-16.011,0-2.125,1.044-4.154,3.1-6.032l1.757,1.926a5.766,5.766,0,0,0-2.255,4.106c0,6.473,17.132,13.405,42.636,13.405S139.557,90.7,139.557,84.23a5.766,5.766,0,0,0-2.253-4.106l1.757-1.924c2.058,1.878,3.1,3.907,3.1,6.03,0,10.023-23,16.011-45.242,16.011" transform="translate(47.345 71.639)" fill="#575756"/>
      <rect id="Rectángulo_4765" data-name="Rectángulo 4765" width="2.606" height="12.286" transform="translate(105.435 78.935)" fill="#575756"/>
      <rect id="Rectángulo_4766" data-name="Rectángulo 4766" width="2.606" height="12.286" transform="translate(105.435 109.311)" fill="#575756"/>
      <rect id="Rectángulo_4767" data-name="Rectángulo 4767" width="2.606" height="12.286" transform="translate(105.435 140.184)" fill="#575756"/>
      <rect id="Rectángulo_4768" data-name="Rectángulo 4768" width="2.606" height="12.286" transform="translate(105.435 170.836)" fill="#575756"/>
      <path id="Trazado_36402" data-name="Trazado 36402" d="M118.83,51.6a1.3,1.3,0,0,1-1.075-.567l-3.719-5.428a19.151,19.151,0,0,1-3.11,0l-3.717,5.428a1.31,1.31,0,0,1-1.4.527,26.548,26.548,0,0,1-3.066-1,1.3,1.3,0,0,1-.824-1.247l.18-6.57a19.769,19.769,0,0,1-2.514-1.83l-6.195,2.205a1.3,1.3,0,0,1-1.443-.4A26.5,26.5,0,0,1,90.054,40.1a1.3,1.3,0,0,1,.063-1.5L94.124,33.4a19.458,19.458,0,0,1-.962-2.958l-6.3-1.855a1.307,1.307,0,0,1-.933-1.173c-.031-.535-.054-1.071-.054-1.613s.023-1.081.054-1.613a1.307,1.307,0,0,1,.933-1.173l6.3-1.855a19.55,19.55,0,0,1,.962-2.96L90.117,13a1.294,1.294,0,0,1-.063-1.495,26.056,26.056,0,0,1,1.891-2.614,1.3,1.3,0,0,1,1.443-.4l6.195,2.2A19.943,19.943,0,0,1,102.1,8.864l-.18-6.57a1.3,1.3,0,0,1,.824-1.249,26.787,26.787,0,0,1,3.066-1,1.3,1.3,0,0,1,1.4.525L110.928,6a19.1,19.1,0,0,1,3.106,0L117.756.567a1.306,1.306,0,0,1,1.4-.525,26.217,26.217,0,0,1,3.068,1,1.3,1.3,0,0,1,.822,1.249l-.178,6.57a20.082,20.082,0,0,1,2.514,1.828l6.195-2.2a1.3,1.3,0,0,1,1.441.4,26.7,26.7,0,0,1,1.9,2.614A1.3,1.3,0,0,1,134.847,13L130.841,18.2a19.552,19.552,0,0,1,.962,2.96l6.3,1.855a1.3,1.3,0,0,1,.931,1.173c.033.533.054,1.071.054,1.613s-.021,1.079-.054,1.613a1.3,1.3,0,0,1-.931,1.173l-6.3,1.855a19.552,19.552,0,0,1-.962,2.96l4.007,5.2a1.307,1.307,0,0,1,.065,1.5,27.17,27.17,0,0,1-1.9,2.614,1.3,1.3,0,0,1-1.441.4l-6.195-2.205a19.905,19.905,0,0,1-2.514,1.83l.178,6.57a1.3,1.3,0,0,1-.822,1.247,26.344,26.344,0,0,1-3.068,1,1.354,1.354,0,0,1-.326.04m-14.283-3.15c.351.123.694.238,1.039.339l3.627-5.294a1.3,1.3,0,0,1,1.226-.558,16.925,16.925,0,0,0,4.083,0,1.307,1.307,0,0,1,1.228.558l3.627,5.294c.343-.1.69-.217,1.037-.339l-.174-6.409a1.306,1.306,0,0,1,.663-1.175,17.344,17.344,0,0,0,3.3-2.4,1.293,1.293,0,0,1,1.32-.27l6.043,2.15q.325-.431.642-.889l-3.907-5.076a1.309,1.309,0,0,1-.153-1.343,17.12,17.12,0,0,0,1.265-3.88,1.3,1.3,0,0,1,.908-1l6.147-1.809c.006-.184.01-.366.01-.548s0-.366-.01-.548l-6.147-1.811a1.3,1.3,0,0,1-.908-1,17.166,17.166,0,0,0-1.265-3.882,1.309,1.309,0,0,1,.153-1.343l3.907-5.074c-.211-.307-.425-.6-.642-.889l-6.043,2.15a1.3,1.3,0,0,1-1.322-.272,17.316,17.316,0,0,0-3.3-2.4,1.306,1.306,0,0,1-.663-1.175l.174-6.408c-.347-.123-.694-.238-1.037-.341l-3.627,5.294a1.305,1.305,0,0,1-1.228.558,16.732,16.732,0,0,0-4.083,0,1.3,1.3,0,0,1-1.226-.558l-3.627-5.294c-.345.1-.69.218-1.039.341l.176,6.408a1.3,1.3,0,0,1-.665,1.175,17.243,17.243,0,0,0-3.3,2.4,1.307,1.307,0,0,1-1.324.272l-6.042-2.15c-.217.287-.433.583-.642.889l3.907,5.074a1.309,1.309,0,0,1,.151,1.343,17.16,17.16,0,0,0-1.263,3.882,1.306,1.306,0,0,1-.91,1l-6.147,1.811c-.006.182-.008.364-.008.548s0,.364.008.548l6.147,1.809a1.306,1.306,0,0,1,.91,1,17.176,17.176,0,0,0,1.263,3.88,1.309,1.309,0,0,1-.151,1.343l-3.907,5.076c.209.3.425.6.642.889l6.042-2.15a1.3,1.3,0,0,1,1.322.27,17.271,17.271,0,0,0,3.3,2.4,1.3,1.3,0,0,1,.665,1.175ZM131.3,29.232h0Z" transform="translate(78.672 0)" fill="#575756"/>
      <path id="Trazado_36403" data-name="Trazado 36403" d="M105.068,29.873a11.1,11.1,0,1,1,11.1-11.1,11.1,11.1,0,0,1-11.1,11.1" transform="translate(86.087 7.029)" fill="#63bcb8"/>
      <path id="Trazado_36404" data-name="Trazado 36404" d="M64.078,139.773A1.3,1.3,0,0,1,63,139.208l-2.926-4.273a15.7,15.7,0,0,1-2.267,0l-2.924,4.271a1.3,1.3,0,0,1-1.4.523,21,21,0,0,1-2.508-.82,1.305,1.305,0,0,1-.826-1.247l.144-5.17a16.662,16.662,0,0,1-1.832-1.332L43.589,132.9a1.308,1.308,0,0,1-1.443-.4,21.886,21.886,0,0,1-1.548-2.138,1.3,1.3,0,0,1,.065-1.5l3.152-4.095a15.836,15.836,0,0,1-.7-2.158l-4.955-1.458a1.306,1.306,0,0,1-.935-1.173c-.025-.437-.042-.876-.042-1.32s.017-.883.042-1.32a1.306,1.306,0,0,1,.935-1.171l4.955-1.46a15.923,15.923,0,0,1,.7-2.158l-3.152-4.095a1.3,1.3,0,0,1-.065-1.5,21.853,21.853,0,0,1,1.548-2.136,1.3,1.3,0,0,1,1.443-.4l4.875,1.732a16.922,16.922,0,0,1,1.832-1.332l-.144-5.17a1.305,1.305,0,0,1,.826-1.247,21.345,21.345,0,0,1,2.508-.82,1.3,1.3,0,0,1,1.4.525l2.926,4.271a15.4,15.4,0,0,1,2.265,0L63,98.112a1.3,1.3,0,0,1,1.4-.525,21.58,21.58,0,0,1,2.508.82,1.3,1.3,0,0,1,.824,1.247l-.142,5.172a16.834,16.834,0,0,1,1.832,1.33l4.875-1.732a1.3,1.3,0,0,1,1.443.4,22.016,22.016,0,0,1,1.546,2.136,1.3,1.3,0,0,1-.065,1.5l-3.15,4.095a16.478,16.478,0,0,1,.7,2.158l4.955,1.46a1.3,1.3,0,0,1,.933,1.171c.027.437.044.876.044,1.32s-.017.883-.044,1.32a1.3,1.3,0,0,1-.933,1.173l-4.955,1.458a16.478,16.478,0,0,1-.7,2.158l3.15,4.095a1.3,1.3,0,0,1,.065,1.5,22.018,22.018,0,0,1-1.546,2.136,1.306,1.306,0,0,1-1.443.4l-4.875-1.734a16.846,16.846,0,0,1-1.832,1.332l.142,5.17a1.3,1.3,0,0,1-.824,1.249,21.563,21.563,0,0,1-2.508.818,1.281,1.281,0,0,1-.328.042m-3.359-7.511a1.3,1.3,0,0,1,1.077.567l2.828,4.129c.159-.05.32-.1.483-.159l-.138-5a1.308,1.308,0,0,1,.665-1.175,13.661,13.661,0,0,0,2.623-1.907,1.293,1.293,0,0,1,1.32-.27l4.714,1.677c.1-.136.2-.274.3-.416l-3.049-3.959a1.309,1.309,0,0,1-.149-1.343,13.569,13.569,0,0,0,1-3.081,1.306,1.306,0,0,1,.91-1l.489-.144,4.307-1.268c0-.084,0-.171,0-.255s0-.171,0-.255l-4.8-1.412a1.306,1.306,0,0,1-.91-1,13.554,13.554,0,0,0-1-3.083,1.3,1.3,0,0,1,.149-1.341l3.049-3.961c-.1-.14-.2-.28-.3-.416l-4.714,1.677a1.293,1.293,0,0,1-1.32-.27,13.719,13.719,0,0,0-2.623-1.907,1.308,1.308,0,0,1-.665-1.175l.138-5c-.163-.056-.324-.109-.483-.159L61.8,104.489a1.315,1.315,0,0,1-1.23.56,13.284,13.284,0,0,0-3.24,0,1.315,1.315,0,0,1-1.228-.558l-2.832-4.131c-.161.05-.32.1-.483.159l.14,5a1.31,1.31,0,0,1-.667,1.173,13.767,13.767,0,0,0-2.621,1.907,1.3,1.3,0,0,1-1.324.27L43.6,107.193c-.1.136-.2.274-.3.416l3.049,3.963a1.3,1.3,0,0,1,.149,1.339,13.675,13.675,0,0,0-1,3.083,1.312,1.312,0,0,1-.912,1l-4.8,1.412c0,.084,0,.169,0,.255s0,.171,0,.255l4.8,1.414a1.306,1.306,0,0,1,.912,1,13.612,13.612,0,0,0,1,3.083,1.3,1.3,0,0,1-.149,1.343L43.3,129.709c.1.142.2.28.3.416l4.714-1.677a1.3,1.3,0,0,1,1.324.27,13.708,13.708,0,0,0,2.621,1.907,1.306,1.306,0,0,1,.667,1.173l-.14,5c.161.056.322.109.483.159l2.832-4.131a1.293,1.293,0,0,1,1.226-.556,13.314,13.314,0,0,0,3.244,0,1,1,0,0,1,.151-.01" transform="translate(34.063 89.363)" fill="#575756"/>
      <path id="Trazado_36405" data-name="Trazado 36405" d="M52.831,121.831a8.976,8.976,0,1,1,8.977-8.975,8.977,8.977,0,0,1-8.977,8.975" transform="translate(40.176 95.166)" fill="#63bcb8"/>
      <path id="Trazado_36406" data-name="Trazado 36406" d="M162.506,121.146a20.892,20.892,0,1,1,0-.862Z" transform="translate(110.599 91.451)" fill="#63bcb8"/>
      <path id="Trazado_36407" data-name="Trazado 36407" d="M164.825,149.845h-44.2l7.086-19.234h30.028Z" transform="translate(110.508 119.657)" fill="#63bcb8"/>
      <path id="Trazado_36408" data-name="Trazado 36408" d="M208.967,168.972H110.246a8.054,8.054,0,0,1-8.046-8.044V98.206a8.055,8.055,0,0,1,8.046-8.046h98.721a8.055,8.055,0,0,1,8.046,8.046v62.722a8.054,8.054,0,0,1-8.046,8.044M110.246,92.766a5.445,5.445,0,0,0-5.438,5.44v62.722a5.444,5.444,0,0,0,5.438,5.438h98.721a5.444,5.444,0,0,0,5.438-5.438V98.206a5.445,5.445,0,0,0-5.438-5.44Z" transform="translate(93.628 82.598)" fill="#575756"/>
      <path id="Trazado_36409" data-name="Trazado 36409" d="M208.418,160.556H105.233V93.133H208.418Zm-100.578-2.608h97.972V95.739H107.841Z" transform="translate(96.407 85.322)" fill="#575756"/>
      <rect id="Rectángulo_4769" data-name="Rectángulo 4769" width="57.836" height="2.608" transform="translate(224.722 268.198)" fill="#575756"/>
      <path id="Trazado_36410" data-name="Trazado 36410" d="M145.765,154.429a29.567,29.567,0,1,1,29.568-29.568,29.6,29.6,0,0,1-29.568,29.568m0-56.526a26.959,26.959,0,1,0,26.96,26.958A26.989,26.989,0,0,0,145.765,97.9" transform="translate(106.453 87.302)" fill="#575756"/>
      <path id="Trazado_36411" data-name="Trazado 36411" d="M143.548,147.806h-.1V145.2h.1c.65,0,1.311-.029,1.962-.084.7-.061,1.4-.153,2.081-.278l.462,2.566c-.761.136-1.541.241-2.317.308-.728.063-1.464.1-2.188.1m-4.706-.446a25.086,25.086,0,0,1-4.445-1.29l.956-2.426a22.291,22.291,0,0,0,3.98,1.155Zm13.67-1.194-.929-2.437A22.262,22.262,0,0,0,155.3,141.9l1.362,2.223a24.935,24.935,0,0,1-4.154,2.043m-22.246-2.182a25.243,25.243,0,0,1-3.677-2.807l1.765-1.918a22.825,22.825,0,0,0,3.3,2.516Zm30.1-2.631-1.747-1.935a22.668,22.668,0,0,0,2.813-3.049l2.069,1.583a25.212,25.212,0,0,1-3.135,3.4m-36.884-3.606a24.9,24.9,0,0,1-2.42-3.943l2.338-1.154a22.535,22.535,0,0,0,2.167,3.533Zm42.481-3.713-2.326-1.176A22.433,22.433,0,0,0,165.164,129l2.5.728a25.246,25.246,0,0,1-1.7,4.3m-46.554-4.555a25.307,25.307,0,0,1-.824-4.549l2.6-.23a22.519,22.519,0,0,0,.742,4.079Zm49.129-4.294-2.594-.251c.071-.726.105-1.462.105-2.184,0-.651-.029-1.313-.084-1.964l-.01-.1,2.6-.217.008.09c.061.724.092,1.462.092,2.186,0,.807-.038,1.627-.117,2.435M121.2,120.551l-2.6-.247a25.037,25.037,0,0,1,.87-4.547l2.5.724a22.209,22.209,0,0,0-.774,4.07m44.015-3.932a22.237,22.237,0,0,0-1.485-3.869l2.336-1.157a25.2,25.2,0,0,1,1.659,4.321Zm-41.724-4-2.33-1.173a25.2,25.2,0,0,1,2.456-3.922l2.073,1.579a22.506,22.506,0,0,0-2.2,3.516m38.062-3.4a22.632,22.632,0,0,0-2.788-3.07l1.761-1.922a25,25,0,0,1,3.11,3.426ZM128.5,106.052l-1.751-1.931a25.32,25.32,0,0,1,3.7-2.778l1.366,2.221a22.493,22.493,0,0,0-3.315,2.489m26.966-2.41a22.56,22.56,0,0,0-3.7-1.862l.95-2.426a25.143,25.143,0,0,1,4.135,2.077Zm-19.935-1.914-.931-2.435a25.008,25.008,0,0,1,4.457-1.245l.466,2.564a22.6,22.6,0,0,0-3.991,1.117m12.252-1.094a22.56,22.56,0,0,0-4.127-.393l.006-2.606a25.226,25.226,0,0,1,4.606.437Z" transform="translate(108.643 89.445)" fill="#575756"/>
      <path id="Trazado_36412" data-name="Trazado 36412" d="M139.581,120.568l-17.278-.061.006-1.3a17.864,17.864,0,0,1,35.709-.751l-2.6.119a15.257,15.257,0,0,0-30.438-.663l14.614.054Z" transform="translate(112.045 92.898)" fill="#575756"/>
      <path id="Trazado_36413" data-name="Trazado 36413" d="M131.856,115.68l-.418-.651a4.987,4.987,0,0,1,0-5.4l.418-.65,27.422,2.05v2.6Zm1.477-3.978a2.4,2.4,0,0,0,0,1.253l8.373-.627Z" transform="translate(119.686 99.837)" fill="#575756"/>
      <path id="Trazado_36414" data-name="Trazado 36414" d="M135.512,122.734a8.123,8.123,0,1,1,7.929-9.9l-2.543.569a5.518,5.518,0,1,0,0,2.422l2.543.569a8.176,8.176,0,0,1-7.929,6.344" transform="translate(116.705 97.556)" fill="#575756"/>
      <path id="Trazado_36415" data-name="Trazado 36415" d="M47.175,35.215A4.226,4.226,0,1,1,51.4,30.988a4.231,4.231,0,0,1-4.227,4.227m0-5.846A1.619,1.619,0,1,0,48.8,30.988a1.621,1.621,0,0,0-1.621-1.619" transform="translate(39.346 24.518)" fill="#575756"/>
      <path id="Trazado_36416" data-name="Trazado 36416" d="M48.176,69.94A6.321,6.321,0,1,1,54.5,63.618a6.329,6.329,0,0,1-6.321,6.321m0-10.035a3.714,3.714,0,1,0,3.713,3.713A3.718,3.718,0,0,0,48.176,59.9" transform="translate(38.345 52.491)" fill="#575756"/>
      <path id="Trazado_36417" data-name="Trazado 36417" d="M20.866,52.961a4.226,4.226,0,1,1,4.227-4.227,4.23,4.23,0,0,1-4.227,4.227m0-5.846a1.619,1.619,0,1,0,1.621,1.619,1.621,1.621,0,0,0-1.621-1.619" transform="translate(15.245 40.776)" fill="#575756"/>
      <path id="Trazado_36418" data-name="Trazado 36418" d="M20.866,84.153a4.226,4.226,0,1,1,4.227-4.227,4.23,4.23,0,0,1-4.227,4.227m0-5.846a1.619,1.619,0,1,0,1.621,1.619,1.621,1.621,0,0,0-1.621-1.619" transform="translate(15.245 69.352)" fill="#575756"/>
      <rect id="Rectángulo_4770" data-name="Rectángulo 4770" width="2.606" height="2.173" transform="translate(34.808 92.434)" fill="#575756"/>
      <path id="Trazado_36419" data-name="Trazado 36419" d="M20.772,92.289H18.166V87.783h2.606Zm0-9.013H18.166V78.769h2.606Zm0-9.013H18.166V69.756h2.606Zm0-9.015H18.166V60.738h2.606Zm0-9.013H18.166V51.725h2.606Z" transform="translate(16.642 47.387)" fill="#575756"/>
      <rect id="Rectángulo_4771" data-name="Rectángulo 4771" width="2.606" height="2.173" transform="translate(34.808 144.183)" fill="#575756"/>
      <rect id="Rectángulo_4772" data-name="Rectángulo 4772" width="2.173" height="2.606" transform="translate(36.111 114.809)" fill="#575756"/>
      <path id="Trazado_36420" data-name="Trazado 36420" d="M54.287,62.523H49.725V59.917h4.562Zm-9.123,0H40.6V59.917h4.56Zm-9.123,0h-4.56V59.917h4.56Zm-9.121,0H22.359V59.917h4.562Z" transform="translate(20.484 54.892)" fill="#575756"/>
      <rect id="Rectángulo_4773" data-name="Rectángulo 4773" width="2.173" height="2.606" transform="translate(79.33 114.809)" fill="#575756"/>
      <path id="Trazado_36421" data-name="Trazado 36421" d="M47.08,117.84H44.474v-2.489H47.08Zm0-6.833H44.474v-4.346H47.08Zm0-8.69H44.474V97.972H47.08Zm0-8.69H44.474V89.282H47.08Zm0-8.69H44.474V80.594H47.08Zm0-8.69H44.474V71.9H47.08Zm0-8.69H44.474V63.215H47.08Z" transform="translate(40.744 57.913)" fill="#575756"/>
      <rect id="Rectángulo_4774" data-name="Rectángulo 4774" width="2.606" height="4.346" transform="translate(85.218 106.747)" fill="#575756"/>
      <rect id="Rectángulo_4775" data-name="Rectángulo 4775" width="2.606" height="4.346" transform="translate(85.218 98.058)" fill="#575756"/>
      <rect id="Rectángulo_4776" data-name="Rectángulo 4776" width="2.606" height="4.346" transform="translate(85.218 89.368)" fill="#575756"/>
      <rect id="Rectángulo_4777" data-name="Rectángulo 4777" width="2.606" height="4.344" transform="translate(85.218 80.68)" fill="#575756"/>
      <rect id="Rectángulo_4778" data-name="Rectángulo 4778" width="2.606" height="4.346" transform="translate(85.218 71.989)" fill="#575756"/>
      <rect id="Rectángulo_4779" data-name="Rectángulo 4779" width="2.606" height="4.344" transform="translate(85.218 63.301)" fill="#575756"/>
      <path id="Trazado_36422" data-name="Trazado 36422" d="M134.345,52.961a4.226,4.226,0,1,1,4.227-4.227,4.23,4.23,0,0,1-4.227,4.227m0-5.846a1.619,1.619,0,1,0,1.619,1.619,1.621,1.621,0,0,0-1.619-1.619" transform="translate(119.207 40.776)" fill="#575756"/>
      <path id="Trazado_36423" data-name="Trazado 36423" d="M134.345,84.153a4.226,4.226,0,1,1,4.227-4.227,4.23,4.23,0,0,1-4.227,4.227m0-5.846a1.619,1.619,0,1,0,1.619,1.619,1.621,1.621,0,0,0-1.619-1.619" transform="translate(119.207 69.352)" fill="#575756"/>
      <path id="Trazado_36424" data-name="Trazado 36424" d="M107.987,88.511a4.226,4.226,0,1,1,4.227-4.227,4.23,4.23,0,0,1-4.227,4.227m0-5.846a1.619,1.619,0,1,0,1.619,1.619,1.621,1.621,0,0,0-1.619-1.619" transform="translate(95.059 73.344)" fill="#575756"/>
      <rect id="Rectángulo_4780" data-name="Rectángulo 4780" width="2.606" height="2.173" transform="translate(252.251 92.434)" fill="#575756"/>
      <path id="Trazado_36425" data-name="Trazado 36425" d="M134.252,92.289h-2.606V87.783h2.606Zm0-9.013h-2.606V78.769h2.606Zm0-9.013h-2.606V69.756h2.606Zm0-9.015h-2.606V60.738h2.606Zm0-9.013h-2.606V51.725h2.606Z" transform="translate(120.605 47.387)" fill="#575756"/>
      <rect id="Rectángulo_4781" data-name="Rectángulo 4781" width="2.606" height="2.173" transform="translate(252.251 144.183)" fill="#575756"/>
      <rect id="Rectángulo_4782" data-name="Rectángulo 4782" width="2.173" height="2.606" transform="translate(208.17 114.809)" fill="#575756"/>
      <path id="Trazado_36426" data-name="Trazado 36426" d="M144.081,62.523h-4.56V59.917h4.56Zm-9.121,0H130.4V59.917h4.562Zm-9.123,0h-4.562V59.917h4.562Zm-9.123,0h-4.56V59.917h4.56Z" transform="translate(102.747 54.892)" fill="#575756"/>
      <rect id="Rectángulo_4783" data-name="Rectángulo 4783" width="2.173" height="2.606" transform="translate(251.388 114.809)" fill="#575756"/>
      <path id="Trazado_36427" data-name="Trazado 36427" d="M108.989,69.94a6.321,6.321,0,1,1,6.321-6.321,6.33,6.33,0,0,1-6.321,6.321m0-10.035a3.714,3.714,0,1,0,3.713,3.713,3.718,3.718,0,0,0-3.713-3.713" transform="translate(94.057 52.491)" fill="#575756"/>
      <rect id="Rectángulo_4784" data-name="Rectángulo 4784" width="2.606" height="4.346" transform="translate(201.745 147.195)" fill="#575756"/>
      <rect id="Rectángulo_4785" data-name="Rectángulo 4785" width="2.606" height="4.344" transform="translate(201.745 138.507)" fill="#575756"/>
      <rect id="Rectángulo_4786" data-name="Rectángulo 4786" width="2.606" height="4.346" transform="translate(201.745 129.816)" fill="#575756"/>
      <rect id="Rectángulo_4787" data-name="Rectángulo 4787" width="2.606" height="4.344" transform="translate(201.745 121.128)" fill="#575756"/>
      <path id="Trazado_36428" data-name="Trazado 36428" d="M107.894,84.095h-2.606V79.749h2.606Zm0-8.69h-2.606V71.06h2.606Zm0-8.69h-2.606V62.37h2.606Zm0-8.69h-2.606V53.682h2.606Zm0-8.69h-2.606V44.991h2.606Zm0-8.69h-2.606V36.3h2.606Zm0-8.69h-2.606V29.47h2.606Z" transform="translate(96.457 26.998)" fill="#575756"/>
      <rect id="Rectángulo_4788" data-name="Rectángulo 4788" width="29.332" height="40.848" transform="translate(46.117 124.786)" fill="#ededed"/>
      <rect id="Rectángulo_4789" data-name="Rectángulo 4789" width="29.332" height="40.848" transform="translate(213.633 124.661)" fill="#ededed"/>
      <rect id="Rectángulo_4790" data-name="Rectángulo 4790" width="31.087" height="23.95" transform="translate(155.722 203.884)" fill="#ededed"/>
      <rect id="Rectángulo_4791" data-name="Rectángulo 4791" width="10.74" height="31.909" transform="translate(123.381 199.045)" fill="#ededed"/>
      <rect id="Rectángulo_4792" data-name="Rectángulo 4792" width="21.526" height="56.29" transform="translate(4.055 91.221)" fill="#ededed"/>
      <rect id="Rectángulo_4793" data-name="Rectángulo 4793" width="29.683" height="20.527" transform="translate(47.735 86.756)" fill="#ededed"/>
      <rect id="Rectángulo_4794" data-name="Rectángulo 4794" width="29.332" height="18.676" transform="translate(213.633 86.588)" fill="#ededed"/>
      <rect id="Rectángulo_4795" data-name="Rectángulo 4795" width="17.308" height="78.029" transform="translate(266.763 86.755)" fill="#ededed"/>
      <rect id="Rectángulo_4796" data-name="Rectángulo 4796" width="13.208" height="37.144" transform="translate(143.813 2.142)" fill="#ededed"/>
      <path id="Trazado_36429" data-name="Trazado 36429" d="M65.009,33.864A21.914,21.914,0,0,1,45.547,22.085l2.307-1.211A19.359,19.359,0,0,0,84.366,11.9h2.606A21.988,21.988,0,0,1,65.009,33.864" transform="translate(41.727 10.903)" fill="#575756"/>
      <path id="Trazado_36430" data-name="Trazado 36430" d="M75.948,20.43l-5.8-5.8-5.806,5.8-1.843-1.843,7.649-7.649,7.647,7.649Z" transform="translate(57.253 10.02)" fill="#575756"/>
      <path id="Trazado_36431" data-name="Trazado 36431" d="M46.849,22.4H44.243A21.966,21.966,0,0,1,85.672,12.22l-2.309,1.209A19.36,19.36,0,0,0,46.849,22.4" transform="translate(40.532 0.401)" fill="#575756"/>
      <path id="Trazado_36432" data-name="Trazado 36432" d="M48.578,17.4,40.931,9.752l1.843-1.843,5.8,5.8,5.8-5.8,1.843,1.843Z" transform="translate(37.498 7.246)" fill="#575756"/>
      <path id="Trazado_36433" data-name="Trazado 36433" d="M70.875,16.842A10.264,10.264,0,1,1,60.613,6.579,10.263,10.263,0,0,1,70.875,16.842" transform="translate(46.125 6.027)" fill="#ededed"/>
      <path id="Trazado_36434" data-name="Trazado 36434" d="M128.035,148.054l-34.6,15.689V134.6h34.6Z" transform="translate(85.599 123.313)" fill="#ededed"/>
      <path id="Trazado_36435" data-name="Trazado 36435" d="M48.777,155.611,11.016,120.532H48.777Z" transform="translate(10.092 110.423)" fill="#ededed"/>
    </g>
  </g>
</svg>
