<svg xmlns="http://www.w3.org/2000/svg" xmlns:xlink="http://www.w3.org/1999/xlink" width="815.312" height="541.018" viewBox="0 0 815.312 541.018">
  <defs>
    <clipPath id="clip-path">
      <rect id="Rectángulo_4728" data-name="Rectángulo 4728" width="51.682" height="23.53" fill="none"/>
    </clipPath>
  </defs>
  <g id="Grupo_17679" data-name="Grupo 17679" transform="translate(-552 -1292.197)">
    <g id="Grupo_17593" data-name="Grupo 17593" transform="translate(57 400)">
      <path id="Trazado_36334" data-name="Trazado 36334" d="M351.742,184.586l-20.076,11.555L311.59,184.586v-23.11l20.076-11.555,20.076,11.555Z" transform="translate(597.31 758.652)" fill="#c7ddeb"/>
      <path id="Trazado_36335" data-name="Trazado 36335" d="M352.67,283.233,332.928,294.6l-19.742-11.362V260.509l19.742-11.362,19.742,11.362Z" transform="translate(596.472 706.525)" fill="#c7ddeb"/>
      <path id="Trazado_36336" data-name="Trazado 36336" d="M351.03,378.552l-19.7,10.868-18.85-12.562.424-20.042,18.426-10.868,19.7,10.868Z" transform="translate(596.841 655.672)" fill="#c7ddeb"/>
      <rect id="Rectángulo_4701" data-name="Rectángulo 4701" width="27.542" height="4.236" transform="translate(872.417 931.147)" fill="#3d4451"/>
      <rect id="Rectángulo_4702" data-name="Rectángulo 4702" width="27.542" height="4.236" transform="translate(869.957 1010.48)" fill="#3d4451"/>
      <rect id="Rectángulo_4703" data-name="Rectángulo 4703" width="27.542" height="4.236" transform="translate(872.417 971.364)" fill="#3d4451"/>
      <path id="Trazado_36345" data-name="Trazado 36345" d="M319.593,186.767l-30.985-17.834v-35.68l30.985-17.834,30.985,17.834v35.68ZM293.526,166.09l26.067,15,26.067-15V136.1l-26.067-15-26.067,15Z" transform="translate(609.383 776.777)" fill="#3d4451"/>
      <rect id="Rectángulo_4704" data-name="Rectángulo 4704" width="3.63" height="33.936" transform="translate(927.161 926.872)" fill="#3d4451"/>
      <rect id="Rectángulo_4705" data-name="Rectángulo 4705" width="32.651" height="3.63" transform="matrix(0.878, -0.478, 0.478, 0.878, 928.353, 925.459)" fill="#3d4451"/>
      <rect id="Rectángulo_4706" data-name="Rectángulo 4706" width="3.631" height="32.413" transform="translate(899.937 913.044) rotate(-61.225)" fill="#3d4451"/>
      <path id="Trazado_36346" data-name="Trazado 36346" d="M319.592,294.2l-30.985-17.833V240.676l11.456-6.534,2.436,4.272-8.974,5.119v29.985l26.067,15,26.067-15v-30l-9.464-5.5,2.472-4.253,11.91,6.922v35.674Z" transform="translate(609.384 714.605)" fill="#3d4451"/>
      <rect id="Rectángulo_4707" data-name="Rectángulo 4707" width="3.63" height="33.936" transform="translate(927.161 972.119)" fill="#3d4451"/>
      <rect id="Rectángulo_4708" data-name="Rectángulo 4708" width="32.651" height="3.63" transform="matrix(0.878, -0.478, 0.478, 0.878, 928.353, 970.716)" fill="#3d4451"/>
      <rect id="Rectángulo_4709" data-name="Rectángulo 4709" width="3.631" height="32.413" transform="matrix(0.481, -0.877, 0.877, 0.481, 899.937, 958.301)" fill="#3d4451"/>
      <path id="Trazado_36347" data-name="Trazado 36347" d="M318.556,388.588l-30.985-17.834V335.066l11.5-6.533,2.429,4.276-9.014,5.12v29.983l26.067,15,26.067-15v-30l-9.384-5.5,2.487-4.243,11.815,6.923v35.667Z" transform="translate(609.928 665.014)" fill="#3d4451"/>
      <rect id="Rectángulo_4710" data-name="Rectángulo 4710" width="3.63" height="33.936" transform="translate(926.669 1016.876)" fill="#3d4451"/>
      <rect id="Rectángulo_4711" data-name="Rectángulo 4711" width="32.651" height="3.63" transform="matrix(0.878, -0.478, 0.478, 0.878, 928.035, 1015.518)" fill="#3d4451"/>
      <rect id="Rectángulo_4712" data-name="Rectángulo 4712" width="3.631" height="32.413" transform="matrix(0.481, -0.877, 0.877, 0.481, 899.619, 1003.103)" fill="#3d4451"/>
      <path id="Trazado_36348" data-name="Trazado 36348" d="M338.546,207.1a2.733,2.733,0,0,1-1.858-.823l-9.125-9.057a2.041,2.041,0,0,1,.2-3.119,2.731,2.731,0,0,1,3.513.166l7.145,7.051,14.848-16.7a2.719,2.719,0,0,1,3.494-.376,2.022,2.022,0,0,1,.424,3.077L340.5,206.172a2.617,2.617,0,0,1-1.88.931Z" transform="translate(589.25 740.864)" fill="#fdc345"/>
      <path id="Trazado_36349" data-name="Trazado 36349" d="M337.453,206.985h-.079a3.769,3.769,0,0,1-2.6-1.129l-9.127-9.06a3.122,3.122,0,0,1-.939-2.391,3.184,3.184,0,0,1,1.232-2.312,3.775,3.775,0,0,1,4.911.244l6.351,6.268,14.107-15.862a3.762,3.762,0,0,1,4.887-.544,3.216,3.216,0,0,1,1.389,2.242,3.044,3.044,0,0,1-.776,2.41L340.126,205.7a3.675,3.675,0,0,1-2.673,1.288m-9.192-13.562a1.646,1.646,0,0,0-1.014.336,1.053,1.053,0,0,0-.426.765,1,1,0,0,0,.315.767l9.126,9.06a1.694,1.694,0,0,0,1.112.515h.079a1.565,1.565,0,0,0,1.087-.574l16.684-18.847a.944.944,0,0,0,.257-.753,1.091,1.091,0,0,0-.491-.752,1.658,1.658,0,0,0-2.1.209L337.3,201.68l-7.939-7.835a1.568,1.568,0,0,0-1.1-.422" transform="translate(590.422 742.041)" fill="#3d4451"/>
      <path id="Trazado_36350" data-name="Trazado 36350" d="M338.546,305.713a2.733,2.733,0,0,1-1.858-.823l-9.125-9.058a2.04,2.04,0,0,1,.2-3.119,2.73,2.73,0,0,1,3.513.166l7.145,7.051,14.848-16.7a2.719,2.719,0,0,1,3.494-.376,2.022,2.022,0,0,1,.424,3.077L340.5,304.782a2.617,2.617,0,0,1-1.88.931Z" transform="translate(589.25 689.061)" fill="#fdc345"/>
      <path id="Trazado_36351" data-name="Trazado 36351" d="M337.453,305.595h-.079a3.769,3.769,0,0,1-2.6-1.129l-9.127-9.06a3.12,3.12,0,0,1-.939-2.392,3.182,3.182,0,0,1,1.232-2.311,3.774,3.774,0,0,1,4.911.244l6.351,6.268,14.107-15.863a3.763,3.763,0,0,1,4.887-.544,3.218,3.218,0,0,1,1.389,2.243,3.044,3.044,0,0,1-.776,2.409l-16.682,18.845a3.675,3.675,0,0,1-2.673,1.288m-9.192-13.562a1.644,1.644,0,0,0-1.014.336,1.052,1.052,0,0,0-.427.765,1,1,0,0,0,.315.768l9.126,9.06a1.694,1.694,0,0,0,1.112.516h.079a1.565,1.565,0,0,0,1.087-.574l16.684-18.847a.943.943,0,0,0,.257-.752,1.089,1.089,0,0,0-.491-.752,1.658,1.658,0,0,0-2.1.209L337.3,300.29l-7.939-7.834a1.569,1.569,0,0,0-1.1-.423" transform="translate(590.422 690.238)" fill="#3d4451"/>
      <path id="Trazado_36352" data-name="Trazado 36352" d="M338.546,399.86a2.733,2.733,0,0,1-1.858-.823l-9.125-9.057a2.04,2.04,0,0,1,.2-3.119,2.731,2.731,0,0,1,3.513.166l7.145,7.051,14.848-16.7a2.719,2.719,0,0,1,3.494-.376,2.022,2.022,0,0,1,.424,3.077L340.5,398.929a2.617,2.617,0,0,1-1.88.931Z" transform="translate(589.25 639.602)" fill="#fdc345"/>
      <path id="Trazado_36353" data-name="Trazado 36353" d="M337.453,399.741h-.079a3.769,3.769,0,0,1-2.6-1.129l-9.127-9.06a3.124,3.124,0,0,1-.939-2.393,3.183,3.183,0,0,1,1.232-2.31,3.775,3.775,0,0,1,4.911.244l6.351,6.268L351.308,375.5a3.762,3.762,0,0,1,4.887-.544,3.217,3.217,0,0,1,1.389,2.243,3.046,3.046,0,0,1-.776,2.41l-16.682,18.845a3.675,3.675,0,0,1-2.673,1.288m-9.192-13.562a1.643,1.643,0,0,0-1.014.336,1.052,1.052,0,0,0-.427.765,1,1,0,0,0,.315.768l9.126,9.059a1.694,1.694,0,0,0,1.112.516h.079a1.565,1.565,0,0,0,1.087-.574L355.224,378.2a.946.946,0,0,0,.257-.753,1.09,1.09,0,0,0-.491-.752,1.658,1.658,0,0,0-2.1.209L337.3,394.437l-7.939-7.834a1.57,1.57,0,0,0-1.1-.423" transform="translate(590.422 640.779)" fill="#3d4451"/>
    </g>
    <g id="Grupo_17592" data-name="Grupo 17592" transform="translate(62 432)">
      <rect id="Rectángulo_4700" data-name="Rectángulo 4700" width="60.003" height="12.957" transform="translate(885.854 1122.932)" fill="#7eb9c7"/>
      <path id="Trazado_36344" data-name="Trazado 36344" d="M112.147,163.414H48.036V146.348h64.111Zm-60-4.109h55.894v-8.849H52.144Z" transform="translate(835.765 974.529)" fill="#3d4451"/>
      <g id="Grupo_17591" data-name="Grupo 17591">
        <path id="Trazado_36337" data-name="Trazado 36337" d="M141.451,282.986c0,9.625-5.787,18.009-13.238,18.009h-78.8c-7.452,0-13.755-8.383-13.755-18.009V155.811c0-9.625,6.3-16.981,13.755-16.981h78.8c7.451,0,13.238,7.355,13.238,16.981Z" transform="translate(842.268 978.479)" fill="#c7ddeb"/>
        <path id="Trazado_36338" data-name="Trazado 36338" d="M95.664,273.367H16.535C7.572,273.367,0,263.942,0,252.785V126.659C0,115.872,7.418,107.1,16.535,107.1H95.664c8.981,0,16.015,8.594,16.015,19.564V252.785c0,11.35-7.184,20.583-16.015,20.583M16.535,112.541c-6.115,0-11.09,6.333-11.09,14.118V252.785c0,8.064,5.182,15.137,11.09,15.137H95.664c5.729,0,10.57-6.932,10.57-15.137V126.659c0-7.917-4.643-14.118-10.57-14.118Z" transform="translate(861 995.15)" fill="#3d4451"/>
        <path id="Trazado_36339" data-name="Trazado 36339" d="M114.76,391.462c0,4.854-4.361,8.79-9.743,8.79s-9.744-3.935-9.744-8.79,4.363-8.788,9.744-8.788,9.743,3.935,9.743,8.788" transform="translate(810.95 850.378)" fill="#f04f4c"/>
        <path id="Trazado_36340" data-name="Trazado 36340" d="M102.339,399.994c-6.707,0-12.165-5.029-12.165-11.21s5.457-11.209,12.165-11.209S114.5,382.6,114.5,388.784s-5.457,11.21-12.164,11.21m0-17.578c-4.038,0-7.324,2.857-7.324,6.368s3.285,6.369,7.324,6.369,7.323-2.857,7.323-6.369-3.285-6.368-7.323-6.368" transform="translate(813.628 853.057)" fill="#3d4451"/>
        <rect id="Rectángulo_4695" data-name="Rectángulo 4695" width="5.446" height="160.827" transform="translate(882.148 1104.969)" fill="#3d4451"/>
        <rect id="Rectángulo_4696" data-name="Rectángulo 4696" width="5.446" height="160.827" transform="translate(943.135 1104.969)" fill="#3d4451"/>
        <rect id="Rectángulo_4697" data-name="Rectángulo 4697" width="60.003" height="12.957" transform="translate(885.854 1204.84)" fill="#7eb9c7"/>
        <path id="Trazado_36341" data-name="Trazado 36341" d="M112.147,335.976H48.036V318.91h64.111Zm-60-4.109h55.894v-8.849H52.144Z" transform="translate(835.765 883.876)" fill="#3d4451"/>
        <rect id="Rectángulo_4698" data-name="Rectángulo 4698" width="60.003" height="12.957" transform="translate(885.854 1178)" fill="#7eb9c7"/>
        <path id="Trazado_36342" data-name="Trazado 36342" d="M112.147,279.43H48.036V262.364h64.111Zm-60-4.109h55.894v-8.849H52.144Z" transform="translate(835.765 913.582)" fill="#3d4451"/>
        <rect id="Rectángulo_4699" data-name="Rectángulo 4699" width="60.003" height="12.957" transform="translate(885.854 1149.309)" fill="#7eb9c7"/>
        <path id="Trazado_36343" data-name="Trazado 36343" d="M112.147,218.986H48.036V201.92h64.111Zm-60-4.109h55.894v-8.849H52.144Z" transform="translate(835.765 945.335)" fill="#3d4451"/>
        <path id="Trazado_36355" data-name="Trazado 36355" d="M220.575,45.612a6.17,6.17,0,0,0-6.1-6.026,5.958,5.958,0,0,0-2.6.594,13.236,13.236,0,0,0-25.963,3.644,14.2,14.2,0,0,0,.1,1.659h-.1c-5.481,0-9.925,3.994-9.925,8.895s4.443,8.895,9.925,8.895H218.8c5.481,0,9.925-4,9.925-8.9,0-4.36-3.517-8.012-8.152-8.759" transform="translate(629.738 1110.429)" fill="#c7ddeb"/>
        <path id="Trazado_36356" data-name="Trazado 36356" d="M185.739,42.067H145.718c-7.29,0-13.22-5.369-13.22-11.967,0-6.258,5.334-11.409,12.1-11.924-.017-.311-.025-.611-.025-.921a17.251,17.251,0,0,1,33.45-5.935,8.355,8.355,0,0,1,2.451-.363,8.588,8.588,0,0,1,8.483,7.519c5.846,1.316,10,6.078,10,11.617,0,6.6-5.93,11.973-13.22,11.973M145.718,20.415c-6.032,0-10.939,4.345-10.939,9.685s4.907,9.685,10.939,9.685h40.021c6.032,0,10.939-4.348,10.939-9.692,0-4.688-3.77-8.7-8.963-9.535l-.926-.149-.032-.938a6.343,6.343,0,0,0-6.281-6.233,6.088,6.088,0,0,0-2.666.609l-1.221.589-.372-1.3a14.97,14.97,0,0,0-29.362,4.122,16.109,16.109,0,0,0,.118,1.891l.143,1.269Z" transform="translate(662.383 1133.382)" fill="#3d4451"/>
        <path id="Trazado_36358" data-name="Trazado 36358" d="M232.191,86.427h-4.749a1.723,1.723,0,0,1-1.72-1.72v-6.1H221.26l4.576-5.272,3.981-4.741,3.99,4.751,4.566,5.262h-4.462v6.1a1.722,1.722,0,0,1-1.72,1.72m-4.723-1.746h4.7V76.86h2.381l-2.067-2.382-2.662-3.17-2.653,3.159-2.076,2.392h2.38Z" transform="translate(595.765 1081.901)" fill="#3d4451"/>
      </g>
    </g>
    <g id="Grupo_17590" data-name="Grupo 17590" transform="translate(5 442)">
      <path id="Trazado_36359" data-name="Trazado 36359" d="M116.655,159.877H21.868V97.463h94.788Z" transform="translate(531.83 868.513)" fill="#c7ddeb"/>
      <rect id="Rectángulo_4714" data-name="Rectángulo 4714" width="86.17" height="16.657" transform="translate(561.491 1043.286)" fill="#c7ddeb"/>
      <path id="Trazado_36360" data-name="Trazado 36360" d="M118.657,354.55H29.284V334.689h89.373Zm-86.17-3.2h82.967V337.892H32.487Z" transform="translate(526.685 703.946)" fill="#3d4451"/>
      <path id="Trazado_36361" data-name="Trazado 36361" d="M3.2,71.2H104.109v65.348H3.2ZM0,139.749H107.312V67.994H0Z" transform="translate(547 888.956)" fill="#3d4451"/>
      <path id="Trazado_36362" data-name="Trazado 36362" d="M3.2,311.746H104.109v28.51H3.2ZM0,343.46H107.312V308.543H0Z" transform="translate(547 722.083)" fill="#3d4451"/>
      <rect id="Rectángulo_4715" data-name="Rectángulo 4715" width="89.693" height="49.331" transform="translate(554.688 967.2)" fill="#7eb9c7"/>
      <path id="Trazado_36363" data-name="Trazado 36363" d="M113.67,149.669H22.2V98.56H113.67Zm-89.694-1.777h87.917V100.337H23.976Z" transform="translate(531.6 867.752)" fill="#3d4451"/>
      <rect id="Rectángulo_4716" data-name="Rectángulo 4716" width="78.162" height="3.203" transform="translate(557.251 1046.643)" fill="#3d4451"/>
      <rect id="Rectángulo_4717" data-name="Rectángulo 4717" width="3.203" height="17.618" transform="translate(566.22 1040.236)" fill="#3d4451"/>
      <rect id="Rectángulo_4718" data-name="Rectángulo 4718" width="3.203" height="17.618" transform="translate(577.112 1040.236)" fill="#3d4451"/>
      <rect id="Rectángulo_4719" data-name="Rectángulo 4719" width="2.242" height="9.29" transform="translate(588.323 1040.236)" fill="#3d4451"/>
      <rect id="Rectángulo_4720" data-name="Rectángulo 4720" width="2.242" height="9.29" transform="translate(599.215 1040.236)" fill="#3d4451"/>
      <rect id="Rectángulo_4721" data-name="Rectángulo 4721" width="3.203" height="17.618" transform="translate(610.106 1040.236)" fill="#3d4451"/>
      <rect id="Rectángulo_4722" data-name="Rectángulo 4722" width="3.203" height="17.618" transform="translate(620.997 1040.236)" fill="#3d4451"/>
      <rect id="Rectángulo_4723" data-name="Rectángulo 4723" width="3.203" height="8.649" transform="translate(631.888 1040.236)" fill="#3d4451"/>
      <rect id="Rectángulo_4724" data-name="Rectángulo 4724" width="10.892" height="2.563" transform="translate(632.85 1019.415)" fill="#3d4451"/>
    </g>
    <g id="Grupo_17594" data-name="Grupo 17594" transform="translate(5 728)">
      <path id="Trazado_36359-2" data-name="Trazado 36359" d="M116.655,159.877H21.868V97.463h94.788Z" transform="translate(531.83 868.513)" fill="#c7ddeb"/>
      <rect id="Rectángulo_4714-2" data-name="Rectángulo 4714" width="86.17" height="16.657" transform="translate(561.491 1043.286)" fill="#c7ddeb"/>
      <path id="Trazado_36360-2" data-name="Trazado 36360" d="M118.657,354.55H29.284V334.689h89.373Zm-86.17-3.2h82.967V337.892H32.487Z" transform="translate(526.685 703.946)" fill="#3d4451"/>
      <path id="Trazado_36361-2" data-name="Trazado 36361" d="M3.2,71.2H104.109v65.348H3.2ZM0,139.749H107.312V67.994H0Z" transform="translate(547 888.956)" fill="#3d4451"/>
      <path id="Trazado_36362-2" data-name="Trazado 36362" d="M3.2,311.746H104.109v28.51H3.2ZM0,343.46H107.312V308.543H0Z" transform="translate(547 722.083)" fill="#3d4451"/>
      <rect id="Rectángulo_4715-2" data-name="Rectángulo 4715" width="89.693" height="49.331" transform="translate(554.688 967.2)" fill="#7eb9c7"/>
      <path id="Trazado_36363-2" data-name="Trazado 36363" d="M113.67,149.669H22.2V98.56H113.67Zm-89.694-1.777h87.917V100.337H23.976Z" transform="translate(531.6 867.752)" fill="#3d4451"/>
      <rect id="Rectángulo_4716-2" data-name="Rectángulo 4716" width="78.162" height="3.203" transform="translate(557.251 1046.643)" fill="#3d4451"/>
      <rect id="Rectángulo_4717-2" data-name="Rectángulo 4717" width="3.203" height="17.618" transform="translate(566.22 1040.236)" fill="#3d4451"/>
      <rect id="Rectángulo_4718-2" data-name="Rectángulo 4718" width="3.203" height="17.618" transform="translate(577.112 1040.236)" fill="#3d4451"/>
      <rect id="Rectángulo_4719-2" data-name="Rectángulo 4719" width="2.242" height="9.29" transform="translate(588.323 1040.236)" fill="#3d4451"/>
      <rect id="Rectángulo_4720-2" data-name="Rectángulo 4720" width="2.242" height="9.29" transform="translate(599.215 1040.236)" fill="#3d4451"/>
      <rect id="Rectángulo_4721-2" data-name="Rectángulo 4721" width="3.203" height="17.618" transform="translate(610.106 1040.236)" fill="#3d4451"/>
      <rect id="Rectángulo_4722-2" data-name="Rectángulo 4722" width="3.203" height="17.618" transform="translate(620.997 1040.236)" fill="#3d4451"/>
      <rect id="Rectángulo_4723-2" data-name="Rectángulo 4723" width="3.203" height="8.649" transform="translate(631.888 1040.236)" fill="#3d4451"/>
      <rect id="Rectángulo_4724-2" data-name="Rectángulo 4724" width="10.892" height="2.563" transform="translate(632.85 1019.415)" fill="#3d4451"/>
    </g>
    <g id="Grupo_17595" data-name="Grupo 17595" transform="translate(713 442)">
      <path id="Trazado_36359-3" data-name="Trazado 36359" d="M116.655,159.877H21.868V97.463h94.788Z" transform="translate(531.83 868.513)" fill="#c7ddeb"/>
      <rect id="Rectángulo_4714-3" data-name="Rectángulo 4714" width="86.17" height="16.657" transform="translate(561.491 1043.286)" fill="#c7ddeb"/>
      <path id="Trazado_36360-3" data-name="Trazado 36360" d="M118.657,354.55H29.284V334.689h89.373Zm-86.17-3.2h82.967V337.892H32.487Z" transform="translate(526.685 703.946)" fill="#3d4451"/>
      <path id="Trazado_36361-3" data-name="Trazado 36361" d="M3.2,71.2H104.109v65.348H3.2ZM0,139.749H107.312V67.994H0Z" transform="translate(547 888.956)" fill="#3d4451"/>
      <path id="Trazado_36362-3" data-name="Trazado 36362" d="M3.2,311.746H104.109v28.51H3.2ZM0,343.46H107.312V308.543H0Z" transform="translate(547 722.083)" fill="#3d4451"/>
      <rect id="Rectángulo_4715-3" data-name="Rectángulo 4715" width="89.693" height="49.331" transform="translate(554.688 967.2)" fill="#7eb9c7"/>
      <path id="Trazado_36363-3" data-name="Trazado 36363" d="M113.67,149.669H22.2V98.56H113.67Zm-89.694-1.777h87.917V100.337H23.976Z" transform="translate(531.6 867.752)" fill="#3d4451"/>
      <rect id="Rectángulo_4716-3" data-name="Rectángulo 4716" width="78.162" height="3.203" transform="translate(557.251 1046.643)" fill="#3d4451"/>
      <rect id="Rectángulo_4717-3" data-name="Rectángulo 4717" width="3.203" height="17.618" transform="translate(566.22 1040.236)" fill="#3d4451"/>
      <rect id="Rectángulo_4718-3" data-name="Rectángulo 4718" width="3.203" height="17.618" transform="translate(577.112 1040.236)" fill="#3d4451"/>
      <rect id="Rectángulo_4719-3" data-name="Rectángulo 4719" width="2.242" height="9.29" transform="translate(588.323 1040.236)" fill="#3d4451"/>
      <rect id="Rectángulo_4720-3" data-name="Rectángulo 4720" width="2.242" height="9.29" transform="translate(599.215 1040.236)" fill="#3d4451"/>
      <rect id="Rectángulo_4721-3" data-name="Rectángulo 4721" width="3.203" height="17.618" transform="translate(610.106 1040.236)" fill="#3d4451"/>
      <rect id="Rectángulo_4722-3" data-name="Rectángulo 4722" width="3.203" height="17.618" transform="translate(620.997 1040.236)" fill="#3d4451"/>
      <rect id="Rectángulo_4723-3" data-name="Rectángulo 4723" width="3.203" height="8.649" transform="translate(631.888 1040.236)" fill="#3d4451"/>
      <rect id="Rectángulo_4724-3" data-name="Rectángulo 4724" width="10.892" height="2.563" transform="translate(632.85 1019.415)" fill="#3d4451"/>
    </g>
    <g id="Grupo_17596" data-name="Grupo 17596" transform="translate(713 728)">
      <path id="Trazado_36359-4" data-name="Trazado 36359" d="M116.655,159.877H21.868V97.463h94.788Z" transform="translate(531.83 868.513)" fill="#c7ddeb"/>
      <rect id="Rectángulo_4714-4" data-name="Rectángulo 4714" width="86.17" height="16.657" transform="translate(561.491 1043.286)" fill="#c7ddeb"/>
      <path id="Trazado_36360-4" data-name="Trazado 36360" d="M118.657,354.55H29.284V334.689h89.373Zm-86.17-3.2h82.967V337.892H32.487Z" transform="translate(526.685 703.946)" fill="#3d4451"/>
      <path id="Trazado_36361-4" data-name="Trazado 36361" d="M3.2,71.2H104.109v65.348H3.2ZM0,139.749H107.312V67.994H0Z" transform="translate(547 888.956)" fill="#3d4451"/>
      <path id="Trazado_36362-4" data-name="Trazado 36362" d="M3.2,311.746H104.109v28.51H3.2ZM0,343.46H107.312V308.543H0Z" transform="translate(547 722.083)" fill="#3d4451"/>
      <rect id="Rectángulo_4715-4" data-name="Rectángulo 4715" width="89.693" height="49.331" transform="translate(554.688 967.2)" fill="#7eb9c7"/>
      <path id="Trazado_36363-4" data-name="Trazado 36363" d="M113.67,149.669H22.2V98.56H113.67Zm-89.694-1.777h87.917V100.337H23.976Z" transform="translate(531.6 867.752)" fill="#3d4451"/>
      <rect id="Rectángulo_4716-4" data-name="Rectángulo 4716" width="78.162" height="3.203" transform="translate(557.251 1046.643)" fill="#3d4451"/>
      <rect id="Rectángulo_4717-4" data-name="Rectángulo 4717" width="3.203" height="17.618" transform="translate(566.22 1040.236)" fill="#3d4451"/>
      <rect id="Rectángulo_4718-4" data-name="Rectángulo 4718" width="3.203" height="17.618" transform="translate(577.112 1040.236)" fill="#3d4451"/>
      <rect id="Rectángulo_4719-4" data-name="Rectángulo 4719" width="2.242" height="9.29" transform="translate(588.323 1040.236)" fill="#3d4451"/>
      <rect id="Rectángulo_4720-4" data-name="Rectángulo 4720" width="2.242" height="9.29" transform="translate(599.215 1040.236)" fill="#3d4451"/>
      <rect id="Rectángulo_4721-4" data-name="Rectángulo 4721" width="3.203" height="17.618" transform="translate(610.106 1040.236)" fill="#3d4451"/>
      <rect id="Rectángulo_4722-4" data-name="Rectángulo 4722" width="3.203" height="17.618" transform="translate(620.997 1040.236)" fill="#3d4451"/>
      <rect id="Rectángulo_4723-4" data-name="Rectángulo 4723" width="3.203" height="8.649" transform="translate(631.888 1040.236)" fill="#3d4451"/>
      <rect id="Rectángulo_4724-4" data-name="Rectángulo 4724" width="10.892" height="2.563" transform="translate(632.85 1019.415)" fill="#3d4451"/>
    </g>
    <path id="Trazado_36884" data-name="Trazado 36884" d="M8.884.215A8.664,8.664,0,0,1,5.72-.354,7.439,7.439,0,0,1,3.2-1.944,7.167,7.167,0,0,1,1.547-4.469a8.8,8.8,0,0,1-.6-3.3,8.408,8.408,0,0,1,1.031-4.216,7.021,7.021,0,0,1,2.831-2.788,8.476,8.476,0,0,1,4.077-.967,8.237,8.237,0,0,1,4.555,1.257,6.88,6.88,0,0,1,2.782,3.459l-3.008,1.1a4.252,4.252,0,0,0-1.665-2.095,4.756,4.756,0,0,0-2.664-.752,4.559,4.559,0,0,0-3.395,1.354A4.98,4.98,0,0,0,4.157-7.767,4.988,4.988,0,0,0,5.495-4.109,4.554,4.554,0,0,0,8.884-2.75a4.738,4.738,0,0,0,2.659-.757,4.271,4.271,0,0,0,1.67-2.1l3.008,1.1a6.908,6.908,0,0,1-2.782,3.464A8.211,8.211,0,0,1,8.884.215ZM18.455,0V-16.5h3.126V0Zm7.906-12.7a1.737,1.737,0,0,1-1.268-.521,1.71,1.71,0,0,1-.526-1.262,1.69,1.69,0,0,1,.532-1.251,1.742,1.742,0,0,1,1.262-.521,1.712,1.712,0,0,1,1.246.521,1.7,1.7,0,0,1,.526,1.251,1.71,1.71,0,0,1-.526,1.262A1.712,1.712,0,0,1,26.361-12.7ZM24.782,0V-11.043H27.9V0Zm16.7-5.683-.032.741H33.269a2.859,2.859,0,0,0,.881,2.02,2.817,2.817,0,0,0,1.944.7A2.715,2.715,0,0,0,37.549-2.6a2.344,2.344,0,0,0,.929-1.112l2.836.419A4.821,4.821,0,0,1,39.381-.709a5.749,5.749,0,0,1-3.266.924,5.978,5.978,0,0,1-4.3-1.52,5.546,5.546,0,0,1-1.6-4.216,5.579,5.579,0,0,1,1.6-4.216,5.8,5.8,0,0,1,4.2-1.542,5.544,5.544,0,0,1,3.964,1.407A5.52,5.52,0,0,1,41.486-5.683ZM36.04-9.088a2.445,2.445,0,0,0-2.686,2.127h5.07a2.326,2.326,0,0,0-.763-1.579A2.417,2.417,0,0,0,36.04-9.088Zm14.319-2.17a4.3,4.3,0,0,1,3.051.994,3.684,3.684,0,0,1,1.063,2.831V0h-3.1V-6.768a1.923,1.923,0,0,0-.553-1.525,2.084,2.084,0,0,0-1.423-.483,2.908,2.908,0,0,0-.924.14A2.373,2.373,0,0,0,47.7-8.2a1.923,1.923,0,0,0-.553.833,3.85,3.85,0,0,0-.209,1.278V0H43.839V-11.043h3.094v1.225A4.255,4.255,0,0,1,50.359-11.258ZM61.585,0a3.335,3.335,0,0,1-2.492-.9,3.489,3.489,0,0,1-.881-2.551V-8.669h-2.17v-2.374h.7a1.822,1.822,0,0,0,1.375-.462,2.378,2.378,0,0,0,.44-1.644v-1.461h2.793v3.566h2.277v2.374H61.349v4.888q0,1.429,1.278,1.429h1V0ZM76.366-5.683l-.032.741H68.148a2.859,2.859,0,0,0,.881,2.02,2.817,2.817,0,0,0,1.944.7A2.715,2.715,0,0,0,72.429-2.6a2.344,2.344,0,0,0,.929-1.112l2.836.419A4.821,4.821,0,0,1,74.261-.709,5.749,5.749,0,0,1,71,.215a5.978,5.978,0,0,1-4.3-1.52,5.546,5.546,0,0,1-1.6-4.216,5.579,5.579,0,0,1,1.6-4.216,5.8,5.8,0,0,1,4.2-1.542,5.544,5.544,0,0,1,3.964,1.407A5.52,5.52,0,0,1,76.366-5.683ZM70.92-9.088a2.445,2.445,0,0,0-2.686,2.127H73.3a2.326,2.326,0,0,0-.763-1.579A2.417,2.417,0,0,0,70.92-9.088Zm18.058-6.435h2.943V0H88.838V-12.343L85.271-9.023V-12.2Z" transform="translate(558 1565)" fill="#00223d"/>
    <path id="Trazado_36887" data-name="Trazado 36887" d="M8.884.215A8.664,8.664,0,0,1,5.72-.354,7.439,7.439,0,0,1,3.2-1.944,7.167,7.167,0,0,1,1.547-4.469a8.8,8.8,0,0,1-.6-3.3,8.408,8.408,0,0,1,1.031-4.216,7.021,7.021,0,0,1,2.831-2.788,8.476,8.476,0,0,1,4.077-.967,8.237,8.237,0,0,1,4.555,1.257,6.88,6.88,0,0,1,2.782,3.459l-3.008,1.1a4.252,4.252,0,0,0-1.665-2.095,4.756,4.756,0,0,0-2.664-.752,4.559,4.559,0,0,0-3.395,1.354A4.98,4.98,0,0,0,4.157-7.767,4.988,4.988,0,0,0,5.495-4.109,4.554,4.554,0,0,0,8.884-2.75a4.738,4.738,0,0,0,2.659-.757,4.271,4.271,0,0,0,1.67-2.1l3.008,1.1a6.908,6.908,0,0,1-2.782,3.464A8.211,8.211,0,0,1,8.884.215ZM18.455,0V-16.5h3.126V0Zm7.906-12.7a1.737,1.737,0,0,1-1.268-.521,1.71,1.71,0,0,1-.526-1.262,1.69,1.69,0,0,1,.532-1.251,1.742,1.742,0,0,1,1.262-.521,1.712,1.712,0,0,1,1.246.521,1.7,1.7,0,0,1,.526,1.251,1.71,1.71,0,0,1-.526,1.262A1.712,1.712,0,0,1,26.361-12.7ZM24.782,0V-11.043H27.9V0Zm16.7-5.683-.032.741H33.269a2.859,2.859,0,0,0,.881,2.02,2.817,2.817,0,0,0,1.944.7A2.715,2.715,0,0,0,37.549-2.6a2.344,2.344,0,0,0,.929-1.112l2.836.419A4.821,4.821,0,0,1,39.381-.709a5.749,5.749,0,0,1-3.266.924,5.978,5.978,0,0,1-4.3-1.52,5.546,5.546,0,0,1-1.6-4.216,5.579,5.579,0,0,1,1.6-4.216,5.8,5.8,0,0,1,4.2-1.542,5.544,5.544,0,0,1,3.964,1.407A5.52,5.52,0,0,1,41.486-5.683ZM36.04-9.088a2.445,2.445,0,0,0-2.686,2.127h5.07a2.326,2.326,0,0,0-.763-1.579A2.417,2.417,0,0,0,36.04-9.088Zm14.319-2.17a4.3,4.3,0,0,1,3.051.994,3.684,3.684,0,0,1,1.063,2.831V0h-3.1V-6.768a1.923,1.923,0,0,0-.553-1.525,2.084,2.084,0,0,0-1.423-.483,2.908,2.908,0,0,0-.924.14A2.373,2.373,0,0,0,47.7-8.2a1.923,1.923,0,0,0-.553.833,3.85,3.85,0,0,0-.209,1.278V0H43.839V-11.043h3.094v1.225A4.255,4.255,0,0,1,50.359-11.258ZM61.585,0a3.335,3.335,0,0,1-2.492-.9,3.489,3.489,0,0,1-.881-2.551V-8.669h-2.17v-2.374h.7a1.822,1.822,0,0,0,1.375-.462,2.378,2.378,0,0,0,.44-1.644v-1.461h2.793v3.566h2.277v2.374H61.349v4.888q0,1.429,1.278,1.429h1V0ZM76.366-5.683l-.032.741H68.148a2.859,2.859,0,0,0,.881,2.02,2.817,2.817,0,0,0,1.944.7A2.715,2.715,0,0,0,72.429-2.6a2.344,2.344,0,0,0,.929-1.112l2.836.419A4.821,4.821,0,0,1,74.261-.709,5.749,5.749,0,0,1,71,.215a5.978,5.978,0,0,1-4.3-1.52,5.546,5.546,0,0,1-1.6-4.216,5.579,5.579,0,0,1,1.6-4.216,5.8,5.8,0,0,1,4.2-1.542,5.544,5.544,0,0,1,3.964,1.407A5.52,5.52,0,0,1,76.366-5.683ZM70.92-9.088a2.445,2.445,0,0,0-2.686,2.127H73.3a2.326,2.326,0,0,0-.763-1.579A2.417,2.417,0,0,0,70.92-9.088ZM88.236-2.761h6.617V0H83.907V-2.331l6.177-6.306a3.887,3.887,0,0,0,1.343-2.675,1.892,1.892,0,0,0-.553-1.439,2.178,2.178,0,0,0-1.563-.526q-2.2,0-2.2,2.5v1.149l-3.083-.312v-.773a4.841,4.841,0,0,1,1.418-3.733,5.431,5.431,0,0,1,3.846-1.316,5.689,5.689,0,0,1,3.744,1.192,4.019,4.019,0,0,1,1.445,3.276,4.646,4.646,0,0,1-.489,2.127A8.89,8.89,0,0,1,92.437-7.09Z" transform="translate(558 1833)" fill="#00223d"/>
    <path id="Trazado_36888" data-name="Trazado 36888" d="M8.884.215A8.664,8.664,0,0,1,5.72-.354,7.439,7.439,0,0,1,3.2-1.944,7.167,7.167,0,0,1,1.547-4.469a8.8,8.8,0,0,1-.6-3.3,8.408,8.408,0,0,1,1.031-4.216,7.021,7.021,0,0,1,2.831-2.788,8.476,8.476,0,0,1,4.077-.967,8.237,8.237,0,0,1,4.555,1.257,6.88,6.88,0,0,1,2.782,3.459l-3.008,1.1a4.252,4.252,0,0,0-1.665-2.095,4.756,4.756,0,0,0-2.664-.752,4.559,4.559,0,0,0-3.395,1.354A4.98,4.98,0,0,0,4.157-7.767,4.988,4.988,0,0,0,5.495-4.109,4.554,4.554,0,0,0,8.884-2.75a4.738,4.738,0,0,0,2.659-.757,4.271,4.271,0,0,0,1.67-2.1l3.008,1.1a6.908,6.908,0,0,1-2.782,3.464A8.211,8.211,0,0,1,8.884.215ZM18.455,0V-16.5h3.126V0Zm7.906-12.7a1.737,1.737,0,0,1-1.268-.521,1.71,1.71,0,0,1-.526-1.262,1.69,1.69,0,0,1,.532-1.251,1.742,1.742,0,0,1,1.262-.521,1.712,1.712,0,0,1,1.246.521,1.7,1.7,0,0,1,.526,1.251,1.71,1.71,0,0,1-.526,1.262A1.712,1.712,0,0,1,26.361-12.7ZM24.782,0V-11.043H27.9V0Zm16.7-5.683-.032.741H33.269a2.859,2.859,0,0,0,.881,2.02,2.817,2.817,0,0,0,1.944.7A2.715,2.715,0,0,0,37.549-2.6a2.344,2.344,0,0,0,.929-1.112l2.836.419A4.821,4.821,0,0,1,39.381-.709a5.749,5.749,0,0,1-3.266.924,5.978,5.978,0,0,1-4.3-1.52,5.546,5.546,0,0,1-1.6-4.216,5.579,5.579,0,0,1,1.6-4.216,5.8,5.8,0,0,1,4.2-1.542,5.544,5.544,0,0,1,3.964,1.407A5.52,5.52,0,0,1,41.486-5.683ZM36.04-9.088a2.445,2.445,0,0,0-2.686,2.127h5.07a2.326,2.326,0,0,0-.763-1.579A2.417,2.417,0,0,0,36.04-9.088Zm14.319-2.17a4.3,4.3,0,0,1,3.051.994,3.684,3.684,0,0,1,1.063,2.831V0h-3.1V-6.768a1.923,1.923,0,0,0-.553-1.525,2.084,2.084,0,0,0-1.423-.483,2.908,2.908,0,0,0-.924.14A2.373,2.373,0,0,0,47.7-8.2a1.923,1.923,0,0,0-.553.833,3.85,3.85,0,0,0-.209,1.278V0H43.839V-11.043h3.094v1.225A4.255,4.255,0,0,1,50.359-11.258ZM61.585,0a3.335,3.335,0,0,1-2.492-.9,3.489,3.489,0,0,1-.881-2.551V-8.669h-2.17v-2.374h.7a1.822,1.822,0,0,0,1.375-.462,2.378,2.378,0,0,0,.44-1.644v-1.461h2.793v3.566h2.277v2.374H61.349v4.888q0,1.429,1.278,1.429h1V0ZM76.366-5.683l-.032.741H68.148a2.859,2.859,0,0,0,.881,2.02,2.817,2.817,0,0,0,1.944.7A2.715,2.715,0,0,0,72.429-2.6a2.344,2.344,0,0,0,.929-1.112l2.836.419A4.821,4.821,0,0,1,74.261-.709,5.749,5.749,0,0,1,71,.215a5.978,5.978,0,0,1-4.3-1.52,5.546,5.546,0,0,1-1.6-4.216,5.579,5.579,0,0,1,1.6-4.216,5.8,5.8,0,0,1,4.2-1.542,5.544,5.544,0,0,1,3.964,1.407A5.52,5.52,0,0,1,76.366-5.683ZM70.92-9.088a2.445,2.445,0,0,0-2.686,2.127H73.3a2.326,2.326,0,0,0-.763-1.579A2.417,2.417,0,0,0,70.92-9.088ZM95.412-5.7v2.761H93.543V0H90.449V-2.943H83.306V-5.715l5.5-9.808h4.737V-5.7Zm-9.238,0h4.275v-7.96Z" transform="translate(1266 1833)" fill="#00223d"/>
    <path id="Trazado_36889" data-name="Trazado 36889" d="M8.884.215A8.664,8.664,0,0,1,5.72-.354,7.439,7.439,0,0,1,3.2-1.944,7.167,7.167,0,0,1,1.547-4.469a8.8,8.8,0,0,1-.6-3.3,8.408,8.408,0,0,1,1.031-4.216,7.021,7.021,0,0,1,2.831-2.788,8.476,8.476,0,0,1,4.077-.967,8.237,8.237,0,0,1,4.555,1.257,6.88,6.88,0,0,1,2.782,3.459l-3.008,1.1a4.252,4.252,0,0,0-1.665-2.095,4.756,4.756,0,0,0-2.664-.752,4.559,4.559,0,0,0-3.395,1.354A4.98,4.98,0,0,0,4.157-7.767,4.988,4.988,0,0,0,5.495-4.109,4.554,4.554,0,0,0,8.884-2.75a4.738,4.738,0,0,0,2.659-.757,4.271,4.271,0,0,0,1.67-2.1l3.008,1.1a6.908,6.908,0,0,1-2.782,3.464A8.211,8.211,0,0,1,8.884.215ZM18.455,0V-16.5h3.126V0Zm7.906-12.7a1.737,1.737,0,0,1-1.268-.521,1.71,1.71,0,0,1-.526-1.262,1.69,1.69,0,0,1,.532-1.251,1.742,1.742,0,0,1,1.262-.521,1.712,1.712,0,0,1,1.246.521,1.7,1.7,0,0,1,.526,1.251,1.71,1.71,0,0,1-.526,1.262A1.712,1.712,0,0,1,26.361-12.7ZM24.782,0V-11.043H27.9V0Zm16.7-5.683-.032.741H33.269a2.859,2.859,0,0,0,.881,2.02,2.817,2.817,0,0,0,1.944.7A2.715,2.715,0,0,0,37.549-2.6a2.344,2.344,0,0,0,.929-1.112l2.836.419A4.821,4.821,0,0,1,39.381-.709a5.749,5.749,0,0,1-3.266.924,5.978,5.978,0,0,1-4.3-1.52,5.546,5.546,0,0,1-1.6-4.216,5.579,5.579,0,0,1,1.6-4.216,5.8,5.8,0,0,1,4.2-1.542,5.544,5.544,0,0,1,3.964,1.407A5.52,5.52,0,0,1,41.486-5.683ZM36.04-9.088a2.445,2.445,0,0,0-2.686,2.127h5.07a2.326,2.326,0,0,0-.763-1.579A2.417,2.417,0,0,0,36.04-9.088Zm14.319-2.17a4.3,4.3,0,0,1,3.051.994,3.684,3.684,0,0,1,1.063,2.831V0h-3.1V-6.768a1.923,1.923,0,0,0-.553-1.525,2.084,2.084,0,0,0-1.423-.483,2.908,2.908,0,0,0-.924.14A2.373,2.373,0,0,0,47.7-8.2a1.923,1.923,0,0,0-.553.833,3.85,3.85,0,0,0-.209,1.278V0H43.839V-11.043h3.094v1.225A4.255,4.255,0,0,1,50.359-11.258ZM61.585,0a3.335,3.335,0,0,1-2.492-.9,3.489,3.489,0,0,1-.881-2.551V-8.669h-2.17v-2.374h.7a1.822,1.822,0,0,0,1.375-.462,2.378,2.378,0,0,0,.44-1.644v-1.461h2.793v3.566h2.277v2.374H61.349v4.888q0,1.429,1.278,1.429h1V0ZM76.366-5.683l-.032.741H68.148a2.859,2.859,0,0,0,.881,2.02,2.817,2.817,0,0,0,1.944.7A2.715,2.715,0,0,0,72.429-2.6a2.344,2.344,0,0,0,.929-1.112l2.836.419A4.821,4.821,0,0,1,74.261-.709,5.749,5.749,0,0,1,71,.215a5.978,5.978,0,0,1-4.3-1.52,5.546,5.546,0,0,1-1.6-4.216,5.579,5.579,0,0,1,1.6-4.216,5.8,5.8,0,0,1,4.2-1.542,5.544,5.544,0,0,1,3.964,1.407A5.52,5.52,0,0,1,76.366-5.683ZM70.92-9.088a2.445,2.445,0,0,0-2.686,2.127H73.3a2.326,2.326,0,0,0-.763-1.579A2.417,2.417,0,0,0,70.92-9.088ZM89.375.215A5.57,5.57,0,0,1,85.143-1.2a6.149,6.149,0,0,1-1.332-4.34l3.169-.14a11.222,11.222,0,0,0,.048,1.139,3.936,3.936,0,0,0,.193.881A1.576,1.576,0,0,0,87.629-3a1.855,1.855,0,0,0,.7.381,3.45,3.45,0,0,0,1.047.14A2.517,2.517,0,0,0,91.207-3.1a2.178,2.178,0,0,0,.639-1.633,2.2,2.2,0,0,0-.612-1.681,2.3,2.3,0,0,0-1.644-.575h-.6V-9.4h.559a1.68,1.68,0,0,0,1.284-.548,1.953,1.953,0,0,0,.51-1.386,1.561,1.561,0,0,0-.559-1.289,2.271,2.271,0,0,0-1.472-.451,2.206,2.206,0,0,0-.838.145,1.563,1.563,0,0,0-.564.371,1.639,1.639,0,0,0-.333.569,2.992,2.992,0,0,0-.161.677,6.758,6.758,0,0,0-.038.752l-3.126-.15a4.969,4.969,0,0,1,1.332-3.733,5.079,5.079,0,0,1,3.7-1.294,5.283,5.283,0,0,1,3.545,1.187,3.717,3.717,0,0,1,1.4,2.949,3.356,3.356,0,0,1-.6,2,3.413,3.413,0,0,1-1.359,1.182,3.825,3.825,0,0,1,.988.44,4.051,4.051,0,0,1,.865.741,3.308,3.308,0,0,1,.639,1.128,4.538,4.538,0,0,1,.236,1.5A4.387,4.387,0,0,1,93.457-1.1,6.059,6.059,0,0,1,89.375.215Z" transform="translate(1266 1541)" fill="#00223d"/>
    <path id="Trazado_36885" data-name="Trazado 36885" d="M10.345-8.2a3.631,3.631,0,0,1,2.922,3.846,4.168,4.168,0,0,1-1.235,3.185A5.1,5.1,0,0,1,8.4,0H2.009V-15.522H7.036a5.7,5.7,0,0,1,3.8,1.123,3.894,3.894,0,0,1,1.316,3.131,3.652,3.652,0,0,1-.457,1.842A3.007,3.007,0,0,1,10.345-8.2ZM7.068-12.848H5.113V-9.2H7.208A1.962,1.962,0,0,0,8.69-9.711a1.875,1.875,0,0,0,.494-1.354,1.666,1.666,0,0,0-.537-1.294A2.273,2.273,0,0,0,7.068-12.848ZM7.8-2.761a2.475,2.475,0,0,0,1.778-.548,1.863,1.863,0,0,0,.564-1.4,1.951,1.951,0,0,0-.569-1.439,2.519,2.519,0,0,0-1.837-.569H5.113v3.953ZM24.782-3a10.331,10.331,0,0,0,.269,2.7V0h-2.89l-.247-1.2A3.591,3.591,0,0,1,20.367-.14a5.7,5.7,0,0,1-2,.354,5.254,5.254,0,0,1-1.031-.1,3.506,3.506,0,0,1-.929-.328,2.82,2.82,0,0,1-.768-.575,2.52,2.52,0,0,1-.516-.875,3.488,3.488,0,0,1-.193-1.2,3.322,3.322,0,0,1,.2-1.2,2.807,2.807,0,0,1,.537-.9,3.258,3.258,0,0,1,.87-.655,6.658,6.658,0,0,1,1.1-.473,13.092,13.092,0,0,1,1.311-.344l1.815-.408a2,2,0,0,0,.822-.349.7.7,0,0,0,.242-.553A1.14,1.14,0,0,0,21.286-8.8,2.533,2.533,0,0,0,19.97-9.12a1.894,1.894,0,0,0-2.159,1.687l-2.739-.494a3.708,3.708,0,0,1,1.6-2.519,6.362,6.362,0,0,1,3.47-.811q4.641,0,4.641,3.985ZM19.336-1.88a2.488,2.488,0,0,0,1.912-.8,3.372,3.372,0,0,0,.741-2.369l-2.621.741a3.1,3.1,0,0,0-1.1.451.927.927,0,0,0-.381.795,1.029,1.029,0,0,0,.408.875A1.689,1.689,0,0,0,19.336-1.88ZM31.679.215a6.171,6.171,0,0,1-3.223-.773,3.269,3.269,0,0,1-1.579-2.3l2.589-.73a2.08,2.08,0,0,0,2.213,1.644A2.285,2.285,0,0,0,32.807-2.2a.879.879,0,0,0,.44-.854.9.9,0,0,0-.183-.569,1.446,1.446,0,0,0-.564-.408,7.026,7.026,0,0,0-.752-.29q-.371-.118-.983-.285T29.745-4.92a6.836,6.836,0,0,1-.972-.414,4.147,4.147,0,0,1-.806-.569,2.3,2.3,0,0,1-.6-.865,3.12,3.12,0,0,1-.209-1.182,2.821,2.821,0,0,1,1.2-2.471,5.352,5.352,0,0,1,3.131-.838,5.487,5.487,0,0,1,2.89.709,3.209,3.209,0,0,1,1.482,2.213l-2.4.537A1.876,1.876,0,0,0,31.5-9.2a2.153,2.153,0,0,0-1.085.247.794.794,0,0,0-.43.73.837.837,0,0,0,.064.333.659.659,0,0,0,.226.269,3.29,3.29,0,0,0,.312.2,2.35,2.35,0,0,0,.44.177q.29.091.483.14l.564.145.575.15q.591.161,1.037.322a6.071,6.071,0,0,1,.951.451,3.412,3.412,0,0,1,.833.65,2.9,2.9,0,0,1,.542.913,3.372,3.372,0,0,1,.215,1.23,3.322,3.322,0,0,1-.371,1.6,2.782,2.782,0,0,1-1.015,1.08A4.941,4.941,0,0,1,33.4.027,7.439,7.439,0,0,1,31.679.215Zm17.155-5.9-.032.741H40.616a2.859,2.859,0,0,0,.881,2.02,2.817,2.817,0,0,0,1.944.7A2.715,2.715,0,0,0,44.9-2.6a2.344,2.344,0,0,0,.929-1.112l2.836.419A4.821,4.821,0,0,1,46.729-.709a5.749,5.749,0,0,1-3.266.924,5.978,5.978,0,0,1-4.3-1.52,5.546,5.546,0,0,1-1.6-4.216,5.579,5.579,0,0,1,1.6-4.216,5.8,5.8,0,0,1,4.2-1.542A5.544,5.544,0,0,1,47.33-9.872,5.52,5.52,0,0,1,48.834-5.683ZM43.388-9.088A2.445,2.445,0,0,0,40.7-6.961h5.07A2.326,2.326,0,0,0,45.01-8.54,2.417,2.417,0,0,0,43.388-9.088ZM64.732-16.5h3.094V0H64.894l-.075-1.439a3.154,3.154,0,0,1-1.4,1.251,4.719,4.719,0,0,1-2.068.446,5.371,5.371,0,0,1-2.062-.4,5.12,5.12,0,0,1-1.692-1.123A5.117,5.117,0,0,1,56.45-3.083,6.717,6.717,0,0,1,56.031-5.5a6.278,6.278,0,0,1,.73-3.078,5.005,5.005,0,0,1,1.928-2,5.31,5.31,0,0,1,2.659-.677,4.837,4.837,0,0,1,2,.4,3.128,3.128,0,0,1,1.38,1.144ZM62.058-2.31a2.754,2.754,0,0,0,2.089-.881,3.225,3.225,0,0,0,.833-2.31,3.232,3.232,0,0,0-.838-2.315A2.751,2.751,0,0,0,62.058-8.7a2.783,2.783,0,0,0-2.1.87A3.231,3.231,0,0,0,59.125-5.5a3.216,3.216,0,0,0,.833,2.32A2.783,2.783,0,0,0,62.058-2.31ZM81.415-5.683l-.032.741H73.2a2.859,2.859,0,0,0,.881,2.02,2.817,2.817,0,0,0,1.944.7A2.715,2.715,0,0,0,77.478-2.6a2.344,2.344,0,0,0,.929-1.112l2.836.419A4.821,4.821,0,0,1,79.31-.709a5.749,5.749,0,0,1-3.266.924,5.978,5.978,0,0,1-4.3-1.52,5.546,5.546,0,0,1-1.6-4.216,5.579,5.579,0,0,1,1.6-4.216,5.8,5.8,0,0,1,4.2-1.542,5.544,5.544,0,0,1,3.964,1.407A5.52,5.52,0,0,1,81.415-5.683ZM75.969-9.088a2.445,2.445,0,0,0-2.686,2.127h5.07a2.326,2.326,0,0,0-.763-1.579A2.417,2.417,0,0,0,75.969-9.088ZM97.313-16.5h3.094V0H97.475L97.4-1.439A3.154,3.154,0,0,1,96-.188,4.719,4.719,0,0,1,93.93.258a5.371,5.371,0,0,1-2.062-.4,5.12,5.12,0,0,1-1.692-1.123,5.117,5.117,0,0,1-1.144-1.821A6.717,6.717,0,0,1,88.612-5.5a6.278,6.278,0,0,1,.73-3.078,5.005,5.005,0,0,1,1.928-2,5.31,5.31,0,0,1,2.659-.677,4.837,4.837,0,0,1,2,.4,3.128,3.128,0,0,1,1.38,1.144ZM94.639-2.31a2.754,2.754,0,0,0,2.089-.881,3.225,3.225,0,0,0,.833-2.31,3.232,3.232,0,0,0-.838-2.315A2.751,2.751,0,0,0,94.639-8.7a2.783,2.783,0,0,0-2.1.87A3.231,3.231,0,0,0,91.706-5.5a3.216,3.216,0,0,0,.833,2.32A2.783,2.783,0,0,0,94.639-2.31ZM112.664-3a10.331,10.331,0,0,0,.269,2.7V0h-2.89L109.8-1.2A3.591,3.591,0,0,1,108.249-.14a5.7,5.7,0,0,1-2,.354,5.254,5.254,0,0,1-1.031-.1,3.506,3.506,0,0,1-.929-.328,2.82,2.82,0,0,1-.768-.575,2.52,2.52,0,0,1-.516-.875,3.488,3.488,0,0,1-.193-1.2,3.321,3.321,0,0,1,.2-1.2,2.807,2.807,0,0,1,.537-.9,3.258,3.258,0,0,1,.87-.655,6.658,6.658,0,0,1,1.1-.473,13.092,13.092,0,0,1,1.311-.344l1.815-.408a2,2,0,0,0,.822-.349.7.7,0,0,0,.242-.553,1.14,1.14,0,0,0-.542-1.063,2.533,2.533,0,0,0-1.316-.322,1.894,1.894,0,0,0-2.159,1.687l-2.739-.494a3.708,3.708,0,0,1,1.6-2.519,6.362,6.362,0,0,1,3.47-.811q4.641,0,4.641,3.985ZM107.218-1.88a2.488,2.488,0,0,0,1.912-.8,3.372,3.372,0,0,0,.741-2.369l-2.621.741a3.1,3.1,0,0,0-1.1.451.927.927,0,0,0-.381.795,1.029,1.029,0,0,0,.408.875A1.689,1.689,0,0,0,107.218-1.88ZM119.636,0a3.335,3.335,0,0,1-2.492-.9,3.489,3.489,0,0,1-.881-2.551V-8.669h-2.17v-2.374h.7a1.822,1.822,0,0,0,1.375-.462,2.378,2.378,0,0,0,.44-1.644v-1.461H119.4v3.566h2.277v2.374H119.4v4.888q0,1.429,1.278,1.429h1V0Zm9.539.215a6.944,6.944,0,0,1-3.126-.677,5.058,5.058,0,0,1-2.143-1.987,5.922,5.922,0,0,1-.779-3.083A5.4,5.4,0,0,1,124.8-9.722a6.217,6.217,0,0,1,4.372-1.536,6.232,6.232,0,0,1,4.383,1.536,5.4,5.4,0,0,1,1.676,4.189,5.432,5.432,0,0,1-1.676,4.206A6.219,6.219,0,0,1,129.175.215Zm-.032-2.46a2.835,2.835,0,0,0,2.186-.9,3.378,3.378,0,0,0,.833-2.385,3.378,3.378,0,0,0-.833-2.385,2.835,2.835,0,0,0-2.186-.9,2.731,2.731,0,0,0-2.122.908,3.409,3.409,0,0,0-.822,2.379,3.409,3.409,0,0,0,.822,2.379A2.731,2.731,0,0,0,129.143-2.245ZM141.421.215A6.171,6.171,0,0,1,138.2-.559a3.269,3.269,0,0,1-1.579-2.3l2.589-.73a2.08,2.08,0,0,0,2.213,1.644,2.285,2.285,0,0,0,1.128-.252.879.879,0,0,0,.44-.854.9.9,0,0,0-.183-.569,1.446,1.446,0,0,0-.564-.408,7.026,7.026,0,0,0-.752-.29q-.371-.118-.983-.285t-1.021-.317a6.836,6.836,0,0,1-.972-.414,4.147,4.147,0,0,1-.806-.569,2.3,2.3,0,0,1-.6-.865,3.12,3.12,0,0,1-.209-1.182,2.821,2.821,0,0,1,1.2-2.471,5.352,5.352,0,0,1,3.131-.838,5.487,5.487,0,0,1,2.89.709A3.209,3.209,0,0,1,145.6-8.336l-2.4.537a1.876,1.876,0,0,0-1.966-1.4,2.153,2.153,0,0,0-1.085.247.794.794,0,0,0-.43.73.837.837,0,0,0,.064.333.659.659,0,0,0,.226.269,3.289,3.289,0,0,0,.312.2,2.35,2.35,0,0,0,.44.177q.29.091.483.14l.564.145.575.15q.591.161,1.037.322a6.072,6.072,0,0,1,.951.451,3.412,3.412,0,0,1,.833.65,2.9,2.9,0,0,1,.542.913,3.372,3.372,0,0,1,.215,1.23,3.322,3.322,0,0,1-.371,1.6,2.782,2.782,0,0,1-1.015,1.08,4.941,4.941,0,0,1-1.434.58A7.439,7.439,0,0,1,141.421.215Z" transform="translate(892 1501)" fill="#00223d"/>
    <path id="Trazado_36886" data-name="Trazado 36886" d="M7.165.215A7.5,7.5,0,0,1,2.857-.972,4.761,4.761,0,0,1,.763-4.3l3.33-.763A2.828,2.828,0,0,0,5.119-3.1a3.4,3.4,0,0,0,2.175.682,2.81,2.81,0,0,0,1.7-.478,1.612,1.612,0,0,0,.645-1.413,1.506,1.506,0,0,0-.548-1.149A3.58,3.58,0,0,0,8-6.161q-.542-.209-1.746-.575-.161-.054-.236-.075Q5.4-7,5.027-7.133T4.1-7.493a6.188,6.188,0,0,1-.9-.451A6.607,6.607,0,0,1,2.449-8.5a2.926,2.926,0,0,1-.623-.714,3.8,3.8,0,0,1-.376-.892,3.935,3.935,0,0,1-.15-1.106,4.155,4.155,0,0,1,.725-2.444A4.441,4.441,0,0,1,3.98-15.216a7.116,7.116,0,0,1,2.8-.521,8.84,8.84,0,0,1,2.025.226,7.093,7.093,0,0,1,1.81.693,4.434,4.434,0,0,1,1.445,1.278,4.807,4.807,0,0,1,.822,1.885l-3.115.773a2.524,2.524,0,0,0-2.793-2.224,3.058,3.058,0,0,0-1.729.451,1.529,1.529,0,0,0-.677,1.364q0,.849,1.128,1.375a16.808,16.808,0,0,0,2.159.741q.634.193,1.031.322t1,.376A6.942,6.942,0,0,1,10.86-8a7.234,7.234,0,0,1,.816.6,3.211,3.211,0,0,1,.693.773,4.182,4.182,0,0,1,.424.961,4.018,4.018,0,0,1,.172,1.2,4.706,4.706,0,0,1-.312,1.751A3.811,3.811,0,0,1,11.8-1.4a4.959,4.959,0,0,1-1.284.908A6.228,6.228,0,0,1,8.938.048,9.082,9.082,0,0,1,7.165.215Zm18.756-5.9-.032.741H17.7a2.859,2.859,0,0,0,.881,2.02,2.817,2.817,0,0,0,1.944.7A2.715,2.715,0,0,0,21.984-2.6a2.344,2.344,0,0,0,.929-1.112l2.836.419A4.821,4.821,0,0,1,23.815-.709,5.749,5.749,0,0,1,20.55.215a5.978,5.978,0,0,1-4.3-1.52,5.546,5.546,0,0,1-1.6-4.216,5.579,5.579,0,0,1,1.6-4.216,5.8,5.8,0,0,1,4.2-1.542,5.544,5.544,0,0,1,3.964,1.407A5.52,5.52,0,0,1,25.921-5.683ZM20.475-9.088a2.445,2.445,0,0,0-2.686,2.127h5.07A2.326,2.326,0,0,0,22.1-8.54,2.417,2.417,0,0,0,20.475-9.088Zm10.764-.2a3.585,3.585,0,0,1,1.45-1.327,4.425,4.425,0,0,1,2.159-.553v2.761a4.183,4.183,0,0,0-2.643.666,2.908,2.908,0,0,0-.816,2.363V0H28.273V-11.043h2.965Zm12.9-1.751h3.276L42.711,0H40.025L35.374-11.043h3.255l2.75,7.552ZM50.617-12.7a1.737,1.737,0,0,1-1.268-.521,1.71,1.71,0,0,1-.526-1.262,1.69,1.69,0,0,1,.532-1.251,1.742,1.742,0,0,1,1.262-.521,1.712,1.712,0,0,1,1.246.521,1.7,1.7,0,0,1,.526,1.251,1.71,1.71,0,0,1-.526,1.262A1.712,1.712,0,0,1,50.617-12.7ZM49.038,0V-11.043h3.115V0ZM63.186-16.5h3.094V0H63.347l-.075-1.439a3.154,3.154,0,0,1-1.4,1.251A4.719,4.719,0,0,1,59.8.258a5.371,5.371,0,0,1-2.062-.4,5.12,5.12,0,0,1-1.692-1.123A5.117,5.117,0,0,1,54.9-3.083,6.717,6.717,0,0,1,54.484-5.5a6.278,6.278,0,0,1,.73-3.078,5.005,5.005,0,0,1,1.928-2,5.31,5.31,0,0,1,2.659-.677,4.837,4.837,0,0,1,2,.4,3.128,3.128,0,0,1,1.38,1.144ZM60.511-2.31A2.754,2.754,0,0,0,62.6-3.19a3.225,3.225,0,0,0,.833-2.31,3.232,3.232,0,0,0-.838-2.315A2.751,2.751,0,0,0,60.511-8.7a2.783,2.783,0,0,0-2.1.87A3.231,3.231,0,0,0,57.578-5.5a3.216,3.216,0,0,0,.833,2.32A2.783,2.783,0,0,0,60.511-2.31ZM74.626.215A6.944,6.944,0,0,1,71.5-.462a5.058,5.058,0,0,1-2.143-1.987,5.922,5.922,0,0,1-.779-3.083,5.4,5.4,0,0,1,1.676-4.189,6.217,6.217,0,0,1,4.372-1.536,6.232,6.232,0,0,1,4.383,1.536,5.4,5.4,0,0,1,1.676,4.189,5.432,5.432,0,0,1-1.676,4.206A6.219,6.219,0,0,1,74.626.215Zm-.032-2.46a2.835,2.835,0,0,0,2.186-.9,3.378,3.378,0,0,0,.833-2.385,3.378,3.378,0,0,0-.833-2.385,2.835,2.835,0,0,0-2.186-.9,2.731,2.731,0,0,0-2.122.908,3.409,3.409,0,0,0-.822,2.379,3.409,3.409,0,0,0,.822,2.379A2.731,2.731,0,0,0,74.594-2.245ZM85.948-9.292a3.585,3.585,0,0,1,1.45-1.327,4.425,4.425,0,0,1,2.159-.553v2.761a4.183,4.183,0,0,0-2.643.666A2.908,2.908,0,0,0,86.1-5.382V0H82.983V-11.043h2.965Z" transform="translate(920 1759)" fill="#00223d"/>
    <g id="Grupo_17598" data-name="Grupo 17598" transform="translate(580 1421)">
      <g id="Grupo_17597" data-name="Grupo 17597" clip-path="url(#clip-path)">
        <path id="Trazado_36364" data-name="Trazado 36364" d="M122.073,57.962a2.311,2.311,0,1,1,2.311,2.311,2.311,2.311,0,0,1-2.311-2.311" transform="translate(-93.501 -42.625)" fill="#f04f4c"/>
        <path id="Trazado_36365" data-name="Trazado 36365" d="M122.664,59.079a2.836,2.836,0,1,1,2.836-2.836,2.84,2.84,0,0,1-2.836,2.836m0-4.622a1.786,1.786,0,1,0,1.786,1.786,1.788,1.788,0,0,0-1.786-1.786" transform="translate(-91.781 -40.907)" fill="#3d4451"/>
        <path id="Trazado_36366" data-name="Trazado 36366" d="M61.485,21.762a3.361,3.361,0,1,1,3.361,3.361,3.361,3.361,0,0,1-3.361-3.361" transform="translate(-47.094 -14.093)" fill="#f04f4c"/>
        <path id="Trazado_36367" data-name="Trazado 36367" d="M62.441,23.453a4.1,4.1,0,1,1,4.1-4.1,4.1,4.1,0,0,1-4.1,4.1m0-6.723a2.626,2.626,0,1,0,2.626,2.626,2.629,2.629,0,0,0-2.626-2.626" transform="translate(-44.688 -11.687)" fill="#3d4451"/>
        <path id="Trazado_36368" data-name="Trazado 36368" d="M188.943,6.5A3.361,3.361,0,1,1,192.3,9.865,3.361,3.361,0,0,1,188.943,6.5" transform="translate(-144.719 -2.407)" fill="#f04f4c"/>
        <path id="Trazado_36369" data-name="Trazado 36369" d="M189.9,8.193A4.1,4.1,0,1,1,194,4.1a4.1,4.1,0,0,1-4.1,4.1m0-6.723A2.626,2.626,0,1,0,192.525,4.1,2.629,2.629,0,0,0,189.9,1.471" transform="translate(-142.313)" fill="#3d4451"/>
        <line id="Línea_1" data-name="Línea 1" y1="7.974" x2="9.382" transform="translate(5.672 9.673)" fill="#7eb9c7"/>
        <rect id="Rectángulo_4725" data-name="Rectángulo 4725" width="12.313" height="1.471" transform="translate(5.196 17.088) rotate(-40.365)" fill="#3d4451"/>
        <line id="Línea_2" data-name="Línea 2" x2="7.729" y2="5.236" transform="translate(21.009 9.244)" fill="#7eb9c7"/>
        <rect id="Rectángulo_4726" data-name="Rectángulo 4726" width="1.47" height="9.336" transform="matrix(0.561, -0.828, 0.828, 0.561, 20.597, 9.853)" fill="#3d4451"/>
        <line id="Línea_3" data-name="Línea 3" y1="8.168" x2="11.859" transform="translate(32.818 6.102)" fill="#7eb9c7"/>
        <rect id="Rectángulo_4727" data-name="Rectángulo 4727" width="14.4" height="1.681" transform="translate(32.341 13.578) rotate(-34.555)" fill="#3d4451"/>
        <path id="Trazado_36370" data-name="Trazado 36370" d="M3.142,72.027A3.361,3.361,0,1,1,6.5,75.389a3.361,3.361,0,0,1-3.361-3.361" transform="translate(-2.407 -52.594)" fill="#f04f4c"/>
        <path id="Trazado_36371" data-name="Trazado 36371" d="M4.1,73.717a4.1,4.1,0,1,1,4.1-4.1,4.1,4.1,0,0,1-4.1,4.1m0-6.723a2.626,2.626,0,1,0,2.626,2.626A2.629,2.629,0,0,0,4.1,66.995" transform="translate(0 -50.187)" fill="#3d4451"/>
      </g>
    </g>
    <g id="Grupo_17599" data-name="Grupo 17599" transform="translate(580 1707)">
      <g id="Grupo_17597-2" data-name="Grupo 17597" clip-path="url(#clip-path)">
        <path id="Trazado_36364-2" data-name="Trazado 36364" d="M122.073,57.962a2.311,2.311,0,1,1,2.311,2.311,2.311,2.311,0,0,1-2.311-2.311" transform="translate(-93.501 -42.625)" fill="#f04f4c"/>
        <path id="Trazado_36365-2" data-name="Trazado 36365" d="M122.664,59.079a2.836,2.836,0,1,1,2.836-2.836,2.84,2.84,0,0,1-2.836,2.836m0-4.622a1.786,1.786,0,1,0,1.786,1.786,1.788,1.788,0,0,0-1.786-1.786" transform="translate(-91.781 -40.907)" fill="#3d4451"/>
        <path id="Trazado_36366-2" data-name="Trazado 36366" d="M61.485,21.762a3.361,3.361,0,1,1,3.361,3.361,3.361,3.361,0,0,1-3.361-3.361" transform="translate(-47.094 -14.093)" fill="#f04f4c"/>
        <path id="Trazado_36367-2" data-name="Trazado 36367" d="M62.441,23.453a4.1,4.1,0,1,1,4.1-4.1,4.1,4.1,0,0,1-4.1,4.1m0-6.723a2.626,2.626,0,1,0,2.626,2.626,2.629,2.629,0,0,0-2.626-2.626" transform="translate(-44.688 -11.687)" fill="#3d4451"/>
        <path id="Trazado_36368-2" data-name="Trazado 36368" d="M188.943,6.5A3.361,3.361,0,1,1,192.3,9.865,3.361,3.361,0,0,1,188.943,6.5" transform="translate(-144.719 -2.407)" fill="#f04f4c"/>
        <path id="Trazado_36369-2" data-name="Trazado 36369" d="M189.9,8.193A4.1,4.1,0,1,1,194,4.1a4.1,4.1,0,0,1-4.1,4.1m0-6.723A2.626,2.626,0,1,0,192.525,4.1,2.629,2.629,0,0,0,189.9,1.471" transform="translate(-142.313)" fill="#3d4451"/>
        <line id="Línea_1-2" data-name="Línea 1" y1="7.974" x2="9.382" transform="translate(5.672 9.673)" fill="#7eb9c7"/>
        <rect id="Rectángulo_4725-2" data-name="Rectángulo 4725" width="12.313" height="1.471" transform="translate(5.196 17.088) rotate(-40.365)" fill="#3d4451"/>
        <line id="Línea_2-2" data-name="Línea 2" x2="7.729" y2="5.236" transform="translate(21.009 9.244)" fill="#7eb9c7"/>
        <rect id="Rectángulo_4726-2" data-name="Rectángulo 4726" width="1.47" height="9.336" transform="matrix(0.561, -0.828, 0.828, 0.561, 20.597, 9.853)" fill="#3d4451"/>
        <line id="Línea_3-2" data-name="Línea 3" y1="8.168" x2="11.859" transform="translate(32.818 6.102)" fill="#7eb9c7"/>
        <rect id="Rectángulo_4727-2" data-name="Rectángulo 4727" width="14.4" height="1.681" transform="translate(32.341 13.578) rotate(-34.555)" fill="#3d4451"/>
        <path id="Trazado_36370-2" data-name="Trazado 36370" d="M3.142,72.027A3.361,3.361,0,1,1,6.5,75.389a3.361,3.361,0,0,1-3.361-3.361" transform="translate(-2.407 -52.594)" fill="#f04f4c"/>
        <path id="Trazado_36371-2" data-name="Trazado 36371" d="M4.1,73.717a4.1,4.1,0,1,1,4.1-4.1,4.1,4.1,0,0,1-4.1,4.1m0-6.723a2.626,2.626,0,1,0,2.626,2.626A2.629,2.629,0,0,0,4.1,66.995" transform="translate(0 -50.187)" fill="#3d4451"/>
      </g>
    </g>
    <g id="Grupo_17600" data-name="Grupo 17600" transform="translate(1288 1707)">
      <g id="Grupo_17597-3" data-name="Grupo 17597" clip-path="url(#clip-path)">
        <path id="Trazado_36364-3" data-name="Trazado 36364" d="M122.073,57.962a2.311,2.311,0,1,1,2.311,2.311,2.311,2.311,0,0,1-2.311-2.311" transform="translate(-93.501 -42.625)" fill="#f04f4c"/>
        <path id="Trazado_36365-3" data-name="Trazado 36365" d="M122.664,59.079a2.836,2.836,0,1,1,2.836-2.836,2.84,2.84,0,0,1-2.836,2.836m0-4.622a1.786,1.786,0,1,0,1.786,1.786,1.788,1.788,0,0,0-1.786-1.786" transform="translate(-91.781 -40.907)" fill="#3d4451"/>
        <path id="Trazado_36366-3" data-name="Trazado 36366" d="M61.485,21.762a3.361,3.361,0,1,1,3.361,3.361,3.361,3.361,0,0,1-3.361-3.361" transform="translate(-47.094 -14.093)" fill="#f04f4c"/>
        <path id="Trazado_36367-3" data-name="Trazado 36367" d="M62.441,23.453a4.1,4.1,0,1,1,4.1-4.1,4.1,4.1,0,0,1-4.1,4.1m0-6.723a2.626,2.626,0,1,0,2.626,2.626,2.629,2.629,0,0,0-2.626-2.626" transform="translate(-44.688 -11.687)" fill="#3d4451"/>
        <path id="Trazado_36368-3" data-name="Trazado 36368" d="M188.943,6.5A3.361,3.361,0,1,1,192.3,9.865,3.361,3.361,0,0,1,188.943,6.5" transform="translate(-144.719 -2.407)" fill="#f04f4c"/>
        <path id="Trazado_36369-3" data-name="Trazado 36369" d="M189.9,8.193A4.1,4.1,0,1,1,194,4.1a4.1,4.1,0,0,1-4.1,4.1m0-6.723A2.626,2.626,0,1,0,192.525,4.1,2.629,2.629,0,0,0,189.9,1.471" transform="translate(-142.313)" fill="#3d4451"/>
        <line id="Línea_1-3" data-name="Línea 1" y1="7.974" x2="9.382" transform="translate(5.672 9.673)" fill="#7eb9c7"/>
        <rect id="Rectángulo_4725-3" data-name="Rectángulo 4725" width="12.313" height="1.471" transform="translate(5.196 17.088) rotate(-40.365)" fill="#3d4451"/>
        <line id="Línea_2-3" data-name="Línea 2" x2="7.729" y2="5.236" transform="translate(21.009 9.244)" fill="#7eb9c7"/>
        <rect id="Rectángulo_4726-3" data-name="Rectángulo 4726" width="1.47" height="9.336" transform="matrix(0.561, -0.828, 0.828, 0.561, 20.597, 9.853)" fill="#3d4451"/>
        <line id="Línea_3-3" data-name="Línea 3" y1="8.168" x2="11.859" transform="translate(32.818 6.102)" fill="#7eb9c7"/>
        <rect id="Rectángulo_4727-3" data-name="Rectángulo 4727" width="14.4" height="1.681" transform="translate(32.341 13.578) rotate(-34.555)" fill="#3d4451"/>
        <path id="Trazado_36370-3" data-name="Trazado 36370" d="M3.142,72.027A3.361,3.361,0,1,1,6.5,75.389a3.361,3.361,0,0,1-3.361-3.361" transform="translate(-2.407 -52.594)" fill="#f04f4c"/>
        <path id="Trazado_36371-3" data-name="Trazado 36371" d="M4.1,73.717a4.1,4.1,0,1,1,4.1-4.1,4.1,4.1,0,0,1-4.1,4.1m0-6.723a2.626,2.626,0,1,0,2.626,2.626A2.629,2.629,0,0,0,4.1,66.995" transform="translate(0 -50.187)" fill="#3d4451"/>
      </g>
    </g>
    <g id="Grupo_17601" data-name="Grupo 17601" transform="translate(1288 1421)">
      <g id="Grupo_17597-4" data-name="Grupo 17597" clip-path="url(#clip-path)">
        <path id="Trazado_36364-4" data-name="Trazado 36364" d="M122.073,57.962a2.311,2.311,0,1,1,2.311,2.311,2.311,2.311,0,0,1-2.311-2.311" transform="translate(-93.501 -42.625)" fill="#f04f4c"/>
        <path id="Trazado_36365-4" data-name="Trazado 36365" d="M122.664,59.079a2.836,2.836,0,1,1,2.836-2.836,2.84,2.84,0,0,1-2.836,2.836m0-4.622a1.786,1.786,0,1,0,1.786,1.786,1.788,1.788,0,0,0-1.786-1.786" transform="translate(-91.781 -40.907)" fill="#3d4451"/>
        <path id="Trazado_36366-4" data-name="Trazado 36366" d="M61.485,21.762a3.361,3.361,0,1,1,3.361,3.361,3.361,3.361,0,0,1-3.361-3.361" transform="translate(-47.094 -14.093)" fill="#f04f4c"/>
        <path id="Trazado_36367-4" data-name="Trazado 36367" d="M62.441,23.453a4.1,4.1,0,1,1,4.1-4.1,4.1,4.1,0,0,1-4.1,4.1m0-6.723a2.626,2.626,0,1,0,2.626,2.626,2.629,2.629,0,0,0-2.626-2.626" transform="translate(-44.688 -11.687)" fill="#3d4451"/>
        <path id="Trazado_36368-4" data-name="Trazado 36368" d="M188.943,6.5A3.361,3.361,0,1,1,192.3,9.865,3.361,3.361,0,0,1,188.943,6.5" transform="translate(-144.719 -2.407)" fill="#f04f4c"/>
        <path id="Trazado_36369-4" data-name="Trazado 36369" d="M189.9,8.193A4.1,4.1,0,1,1,194,4.1a4.1,4.1,0,0,1-4.1,4.1m0-6.723A2.626,2.626,0,1,0,192.525,4.1,2.629,2.629,0,0,0,189.9,1.471" transform="translate(-142.313)" fill="#3d4451"/>
        <line id="Línea_1-4" data-name="Línea 1" y1="7.974" x2="9.382" transform="translate(5.672 9.673)" fill="#7eb9c7"/>
        <rect id="Rectángulo_4725-4" data-name="Rectángulo 4725" width="12.313" height="1.471" transform="translate(5.196 17.088) rotate(-40.365)" fill="#3d4451"/>
        <line id="Línea_2-4" data-name="Línea 2" x2="7.729" y2="5.236" transform="translate(21.009 9.244)" fill="#7eb9c7"/>
        <rect id="Rectángulo_4726-4" data-name="Rectángulo 4726" width="1.47" height="9.336" transform="matrix(0.561, -0.828, 0.828, 0.561, 20.597, 9.853)" fill="#3d4451"/>
        <line id="Línea_3-4" data-name="Línea 3" y1="8.168" x2="11.859" transform="translate(32.818 6.102)" fill="#7eb9c7"/>
        <rect id="Rectángulo_4727-4" data-name="Rectángulo 4727" width="14.4" height="1.681" transform="translate(32.341 13.578) rotate(-34.555)" fill="#3d4451"/>
        <path id="Trazado_36370-4" data-name="Trazado 36370" d="M3.142,72.027A3.361,3.361,0,1,1,6.5,75.389a3.361,3.361,0,0,1-3.361-3.361" transform="translate(-2.407 -52.594)" fill="#f04f4c"/>
        <path id="Trazado_36371-4" data-name="Trazado 36371" d="M4.1,73.717a4.1,4.1,0,1,1,4.1-4.1,4.1,4.1,0,0,1-4.1,4.1m0-6.723a2.626,2.626,0,1,0,2.626,2.626A2.629,2.629,0,0,0,4.1,66.995" transform="translate(0 -50.187)" fill="#3d4451"/>
      </g>
    </g>
  </g>
</svg>
