<svg xmlns="http://www.w3.org/2000/svg" width="915.273" height="852.211" viewBox="0 0 915.273 852.211">
  <g id="Grupo_17674" data-name="Grupo 17674" transform="translate(-422 -4942)">
    <path id="Trazado_36786" data-name="Trazado 36786" d="M0,0H240V93H0Z" transform="translate(422 5041)" fill="#472ea6"/>
    <path id="Trazado_36787" data-name="Trazado 36787" d="M2.374,0V-15.125H4.3V0ZM13.546-10.764a3.673,3.673,0,0,1,2.659.956,3.566,3.566,0,0,1,.994,2.7V0H15.34V-6.692A2.5,2.5,0,0,0,14.7-8.583,2.3,2.3,0,0,0,13.041-9.2a2.555,2.555,0,0,0-1.88.725,2.942,2.942,0,0,0-.741,2.154V0H8.562V-10.56H10.42v1.354A3.526,3.526,0,0,1,13.546-10.764Zm13.471.2H29L24.707,0H23.128L18.853-10.56h1.977l3.094,8.4Zm13.009,5.07-.021.5h-8.25a3.731,3.731,0,0,0,1.01,2.7,3.315,3.315,0,0,0,2.406.94,3.166,3.166,0,0,0,1.751-.5,3.276,3.276,0,0,0,1.2-1.4L39.8-2.89A4.763,4.763,0,0,1,38-.623a4.924,4.924,0,0,1-2.8.827,5.1,5.1,0,0,1-3.8-1.472,5.475,5.475,0,0,1-1.45-4.018,5.448,5.448,0,0,1,1.456-4.007,5.038,5.038,0,0,1,3.744-1.472,4.767,4.767,0,0,1,3.55,1.354A5.348,5.348,0,0,1,40.025-5.489ZM35.138-9.335a3.293,3.293,0,0,0-2.2.747,3.42,3.42,0,0,0-1.112,2.175h6.327a3.138,3.138,0,0,0-.924-2.175A2.983,2.983,0,0,0,35.138-9.335ZM46.277.2a5.006,5.006,0,0,1-2.847-.763,3.155,3.155,0,0,1-1.386-2.17l1.622-.462a2.262,2.262,0,0,0,.865,1.466,2.805,2.805,0,0,0,1.735.521,3.462,3.462,0,0,0,1.015-.14,1.627,1.627,0,0,0,.779-.521,1.4,1.4,0,0,0,.312-.961,1.4,1.4,0,0,0-.086-.435,1.865,1.865,0,0,0-.172-.349,1.064,1.064,0,0,0-.3-.29,3.966,3.966,0,0,0-.365-.226,3.749,3.749,0,0,0-.478-.2q-.317-.113-.51-.172t-.591-.172q-.4-.113-.612-.177a11.454,11.454,0,0,1-1.1-.387,4.805,4.805,0,0,1-.892-.51,2.053,2.053,0,0,1-.693-.833,2.817,2.817,0,0,1-.231-1.182,2.731,2.731,0,0,1,.516-1.687,2.9,2.9,0,0,1,1.337-.994,5.346,5.346,0,0,1,1.875-.306,4.588,4.588,0,0,1,2.573.688A2.934,2.934,0,0,1,49.93-7.992L48.4-7.605A2.022,2.022,0,0,0,47.6-8.943a2.565,2.565,0,0,0-1.515-.446,2.614,2.614,0,0,0-1.418.371,1.246,1.246,0,0,0-.591,1.133,1.128,1.128,0,0,0,.156.585,1.859,1.859,0,0,0,.317.414,1.948,1.948,0,0,0,.58.317q.419.167.623.226t.773.2q.107.032.161.043.623.161,1.015.285a6.24,6.24,0,0,1,.913.387,3.036,3.036,0,0,1,.822.575,2.663,2.663,0,0,1,.516.816A2.882,2.882,0,0,1,50.166-2.9a3.075,3.075,0,0,1-.317,1.423,2.479,2.479,0,0,1-.865.972,4.182,4.182,0,0,1-1.23.532A5.86,5.86,0,0,1,46.277.2ZM56.461,0A2.776,2.776,0,0,1,54.4-.757a2.865,2.865,0,0,1-.752-2.111V-9.077H51.487V-10.56h.795a1.526,1.526,0,0,0,1.166-.371,1.824,1.824,0,0,0,.338-1.241v-1.912h1.729v3.523h2.428v1.482H55.516v6.016a1.6,1.6,0,0,0,.4,1.166,1.411,1.411,0,0,0,1.058.414h.967V0Zm5.113-13.041a1.209,1.209,0,0,1-.886-.371,1.209,1.209,0,0,1-.371-.886,1.192,1.192,0,0,1,.371-.881,1.218,1.218,0,0,1,.886-.365,1.206,1.206,0,0,1,.875.365,1.192,1.192,0,0,1,.371.881,1.209,1.209,0,0,1-.371.886A1.2,1.2,0,0,1,61.574-13.041ZM60.629,0V-10.56H62.5V0Zm13.3-10.56h1.8V-.537a5.752,5.752,0,0,1-1.364,4.114,4.959,4.959,0,0,1-3.781,1.439,4.992,4.992,0,0,1-5.124-3.233L67,1.031A3.491,3.491,0,0,0,70.533,3.47a3.031,3.031,0,0,0,2.476-1.031A4.389,4.389,0,0,0,73.863-.44V-2.4a3.721,3.721,0,0,1-1.5,1.52,4.376,4.376,0,0,1-2.2.575,4.527,4.527,0,0,1-3.416-1.488,5.247,5.247,0,0,1-1.407-3.754,5.2,5.2,0,0,1,1.413-3.744,4.572,4.572,0,0,1,3.432-1.477,4.266,4.266,0,0,1,2.213.591,3.8,3.8,0,0,1,1.493,1.558ZM70.576-1.88a3.2,3.2,0,0,0,2.433-1.085,3.666,3.666,0,0,0,1-2.578,3.691,3.691,0,0,0-1-2.589,3.189,3.189,0,0,0-2.438-1.085,3.217,3.217,0,0,0-2.433,1.053,3.671,3.671,0,0,0-.994,2.621,3.64,3.64,0,0,0,1,2.6A3.219,3.219,0,0,0,70.576-1.88ZM81.952.2a3.593,3.593,0,0,1-2.315-.725,2.6,2.6,0,0,1-.908-2.165,3.076,3.076,0,0,1,.29-1.38,2.434,2.434,0,0,1,.859-.961,5.155,5.155,0,0,1,1.241-.6A11.469,11.469,0,0,1,82.726-6l1.708-.279q.935-.172.935-.978a1.845,1.845,0,0,0-.661-1.574,2.692,2.692,0,0,0-1.67-.5,2.742,2.742,0,0,0-1.654.483A2.023,2.023,0,0,0,80.6-7.369l-1.676-.354a3.225,3.225,0,0,1,1.321-2.261,4.937,4.937,0,0,1,2.879-.757,5.839,5.839,0,0,1,1.531.188,4.16,4.16,0,0,1,1.278.591,2.65,2.65,0,0,1,.913,1.139,4.237,4.237,0,0,1,.328,1.735v4.361a1.784,1.784,0,0,0,.242,1.1,1.043,1.043,0,0,0,.833.285h.172V0H87.5a1.762,1.762,0,0,1-2-1.429h-.086A4.035,4.035,0,0,1,81.952.2Zm.43-1.5A2.818,2.818,0,0,0,84.648-2.32a4.2,4.2,0,0,0,.859-2.793l-2.793.537a3.76,3.76,0,0,0-1.638.585,1.362,1.362,0,0,0-.532,1.155,1.346,1.346,0,0,0,.51,1.16A2.181,2.181,0,0,0,82.382-1.3ZM95.208.193a5.086,5.086,0,0,1-3.781-1.515,5.4,5.4,0,0,1-1.493-3.964,5.414,5.414,0,0,1,1.488-3.964,5.081,5.081,0,0,1,3.787-1.515,5.123,5.123,0,0,1,3.056.924,4.662,4.662,0,0,1,1.778,2.567l-1.74.279a3.214,3.214,0,0,0-1.192-1.644,3.247,3.247,0,0,0-1.912-.58,3.122,3.122,0,0,0-2.444,1.085,4.133,4.133,0,0,0-.961,2.847,4.113,4.113,0,0,0,.961,2.841A3.129,3.129,0,0,0,95.2-1.364a3.247,3.247,0,0,0,1.912-.58A3.214,3.214,0,0,0,98.3-3.588l1.74.29A4.668,4.668,0,0,1,98.253-.736,5.115,5.115,0,0,1,95.208.193Zm8.519-13.234a1.209,1.209,0,0,1-.886-.371,1.209,1.209,0,0,1-.371-.886,1.192,1.192,0,0,1,.371-.881,1.218,1.218,0,0,1,.886-.365,1.206,1.206,0,0,1,.875.365,1.192,1.192,0,0,1,.371.881,1.209,1.209,0,0,1-.371.886A1.2,1.2,0,0,1,103.727-13.041ZM102.781,0V-10.56h1.869V0Zm9.389-12.375,2.7-3.5.988.72-2.406,2.782ZM112.879.2a5.566,5.566,0,0,1-2.707-.655,4.771,4.771,0,0,1-1.907-1.917,5.89,5.89,0,0,1-.7-2.917,5.38,5.38,0,0,1,1.5-3.98,5.173,5.173,0,0,1,3.819-1.5,5.168,5.168,0,0,1,3.824,1.5,5.39,5.39,0,0,1,1.493,3.98,5.394,5.394,0,0,1-1.5,3.991A5.173,5.173,0,0,1,112.879.2Zm-.011-1.547a3.243,3.243,0,0,0,2.5-1.085,4.065,4.065,0,0,0,.994-2.857,4.05,4.05,0,0,0-.994-2.847,3.243,3.243,0,0,0-2.5-1.085,3.2,3.2,0,0,0-2.476,1.085,4.077,4.077,0,0,0-.983,2.847,4.092,4.092,0,0,0,.983,2.857A3.2,3.2,0,0,0,112.868-1.343Zm13.224-9.421a3.673,3.673,0,0,1,2.659.956,3.566,3.566,0,0,1,.994,2.7V0h-1.858V-6.692a2.5,2.5,0,0,0-.645-1.891,2.3,2.3,0,0,0-1.654-.612,2.555,2.555,0,0,0-1.88.725,2.942,2.942,0,0,0-.741,2.154V0h-1.858V-10.56h1.858v1.354A3.526,3.526,0,0,1,126.092-10.764ZM10.484,11.626H4.34v4.952H9.754v1.729H4.34v4.941h6.145V25H2.374V9.875h8.11ZM12.192,25l4.061-5.285L12.192,14.44H14.48L17.4,18.479l2.922-4.039H22.58l-4.071,5.274L22.58,25H20.313l-2.9-4.018L14.48,25ZM30.443,14.236a4.8,4.8,0,0,1,1.912.387,4.7,4.7,0,0,1,1.568,1.085,5.071,5.071,0,0,1,1.058,1.74,6.417,6.417,0,0,1,.392,2.277,5.583,5.583,0,0,1-1.423,3.985,4.623,4.623,0,0,1-3.507,1.515,4.18,4.18,0,0,1-2.208-.6A3.943,3.943,0,0,1,26.727,23v7.315H24.868V14.44h1.794l.043,2.052a3.865,3.865,0,0,1,1.5-1.649A4.219,4.219,0,0,1,30.443,14.236Zm-.365,9.378a3.206,3.206,0,0,0,2.444-1.069,3.976,3.976,0,0,0,.994-2.82,3.956,3.956,0,0,0-.994-2.814,3.332,3.332,0,0,0-4.925.048,3.96,3.96,0,0,0-1.01,2.766A3.975,3.975,0,0,0,27.6,22.5,3.222,3.222,0,0,0,30.078,23.614ZM38.307,25V8.5h1.88V25Zm10.108.2a5.566,5.566,0,0,1-2.707-.655A4.771,4.771,0,0,1,43.8,22.631a5.89,5.89,0,0,1-.7-2.917,5.38,5.38,0,0,1,1.5-3.98,5.622,5.622,0,0,1,7.643,0,5.39,5.39,0,0,1,1.493,3.98,5.394,5.394,0,0,1-1.5,3.991A5.173,5.173,0,0,1,48.415,25.2ZM48.4,23.657a3.243,3.243,0,0,0,2.5-1.085,4.065,4.065,0,0,0,.994-2.857,4.05,4.05,0,0,0-.994-2.847,3.243,3.243,0,0,0-2.5-1.085,3.2,3.2,0,0,0-2.476,1.085,4.077,4.077,0,0,0-.983,2.847,4.092,4.092,0,0,0,.983,2.857A3.2,3.2,0,0,0,48.4,23.657ZM58.459,16.3a3.192,3.192,0,0,1,1.311-1.418,3.947,3.947,0,0,1,2.03-.559v1.751a3.479,3.479,0,0,0-2.455.784,3.276,3.276,0,0,0-.843,2.5V25H56.644V14.44h1.815ZM66.29,25.2a3.593,3.593,0,0,1-2.315-.725,2.6,2.6,0,0,1-.908-2.165,3.076,3.076,0,0,1,.29-1.38,2.433,2.433,0,0,1,.859-.961,5.155,5.155,0,0,1,1.241-.6A11.469,11.469,0,0,1,67.063,19l1.708-.279q.935-.172.935-.978a1.845,1.845,0,0,0-.661-1.574,2.692,2.692,0,0,0-1.67-.5,2.742,2.742,0,0,0-1.654.483,2.023,2.023,0,0,0-.784,1.482l-1.676-.354a3.225,3.225,0,0,1,1.321-2.261,4.937,4.937,0,0,1,2.879-.757,5.839,5.839,0,0,1,1.531.188,4.16,4.16,0,0,1,1.278.591,2.65,2.65,0,0,1,.913,1.139,4.237,4.237,0,0,1,.328,1.735v4.361a1.784,1.784,0,0,0,.242,1.1,1.043,1.043,0,0,0,.833.285h.172V25h-.924a1.762,1.762,0,0,1-2-1.429h-.086A4.035,4.035,0,0,1,66.29,25.2Zm.43-1.5a2.818,2.818,0,0,0,2.267-1.021,4.2,4.2,0,0,0,.859-2.793l-2.793.537a3.76,3.76,0,0,0-1.638.585,1.362,1.362,0,0,0-.532,1.155,1.346,1.346,0,0,0,.51,1.16A2.181,2.181,0,0,0,66.72,23.7ZM78.687,25a2.776,2.776,0,0,1-2.062-.757,2.865,2.865,0,0,1-.752-2.111V15.923H73.713V14.44h.795a1.526,1.526,0,0,0,1.166-.371,1.824,1.824,0,0,0,.338-1.241V10.917h1.729V14.44h2.428v1.482H77.741v6.016a1.6,1.6,0,0,0,.4,1.166,1.411,1.411,0,0,0,1.058.414h.967V25Zm8.486.2a5.566,5.566,0,0,1-2.707-.655,4.771,4.771,0,0,1-1.907-1.917,5.89,5.89,0,0,1-.7-2.917,5.38,5.38,0,0,1,1.5-3.98,5.622,5.622,0,0,1,7.643,0,5.39,5.39,0,0,1,1.493,3.98,5.394,5.394,0,0,1-1.5,3.991A5.173,5.173,0,0,1,87.173,25.2Zm-.011-1.547a3.243,3.243,0,0,0,2.5-1.085,4.065,4.065,0,0,0,.994-2.857,4.05,4.05,0,0,0-.994-2.847,3.243,3.243,0,0,0-2.5-1.085,3.2,3.2,0,0,0-2.476,1.085,4.077,4.077,0,0,0-.983,2.847,4.092,4.092,0,0,0,.983,2.857A3.2,3.2,0,0,0,87.162,23.657ZM97.217,16.3a3.192,3.192,0,0,1,1.311-1.418,3.947,3.947,0,0,1,2.03-.559v1.751a3.479,3.479,0,0,0-2.455.784,3.276,3.276,0,0,0-.843,2.5V25H95.4V14.44h1.815Zm6.467-4.34a1.265,1.265,0,0,1-1.257-1.257,1.192,1.192,0,0,1,.371-.881,1.218,1.218,0,0,1,.886-.365,1.206,1.206,0,0,1,.875.365,1.192,1.192,0,0,1,.371.881,1.209,1.209,0,0,1-.371.886A1.2,1.2,0,0,1,103.684,11.959ZM102.738,25V14.44h1.869V25Zm8.089.2a3.593,3.593,0,0,1-2.315-.725,2.6,2.6,0,0,1-.908-2.165,3.076,3.076,0,0,1,.29-1.38,2.434,2.434,0,0,1,.859-.961,5.155,5.155,0,0,1,1.241-.6A11.469,11.469,0,0,1,111.6,19l1.708-.279q.935-.172.935-.978a1.845,1.845,0,0,0-.661-1.574,2.692,2.692,0,0,0-1.67-.5,2.742,2.742,0,0,0-1.654.483,2.023,2.023,0,0,0-.784,1.482l-1.676-.354a3.225,3.225,0,0,1,1.321-2.261A4.937,4.937,0,0,1,112,14.258a5.839,5.839,0,0,1,1.531.188,4.16,4.16,0,0,1,1.278.591,2.65,2.65,0,0,1,.913,1.139,4.237,4.237,0,0,1,.328,1.735v4.361a1.784,1.784,0,0,0,.242,1.1,1.043,1.043,0,0,0,.833.285h.172V25h-.924a1.762,1.762,0,0,1-2-1.429h-.086A4.035,4.035,0,0,1,110.827,25.2Zm.43-1.5a2.818,2.818,0,0,0,2.267-1.021,4.2,4.2,0,0,0,.859-2.793l-2.793.537a3.76,3.76,0,0,0-1.638.585,1.362,1.362,0,0,0-.532,1.155,1.346,1.346,0,0,0,.51,1.16A2.181,2.181,0,0,0,111.257,23.7Z" transform="translate(452 5082)" fill="#fff"/>
    <path id="Trazado_36791" data-name="Trazado 36791" d="M0,0H240V93H0Z" transform="translate(422 5454)" fill="#472ea6"/>
    <path id="Trazado_36805" data-name="Trazado 36805" d="M2.374,0V-15.125H4.3V0ZM13.546-10.764a3.673,3.673,0,0,1,2.659.956,3.566,3.566,0,0,1,.994,2.7V0H15.34V-6.692A2.5,2.5,0,0,0,14.7-8.583,2.3,2.3,0,0,0,13.041-9.2a2.555,2.555,0,0,0-1.88.725,2.942,2.942,0,0,0-.741,2.154V0H8.562V-10.56H10.42v1.354A3.526,3.526,0,0,1,13.546-10.764Zm13.471.2H29L24.707,0H23.128L18.853-10.56h1.977l3.094,8.4Zm13.009,5.07-.021.5h-8.25a3.731,3.731,0,0,0,1.01,2.7,3.315,3.315,0,0,0,2.406.94,3.166,3.166,0,0,0,1.751-.5,3.276,3.276,0,0,0,1.2-1.4L39.8-2.89A4.763,4.763,0,0,1,38-.623a4.924,4.924,0,0,1-2.8.827,5.1,5.1,0,0,1-3.8-1.472,5.475,5.475,0,0,1-1.45-4.018,5.448,5.448,0,0,1,1.456-4.007,5.038,5.038,0,0,1,3.744-1.472,4.767,4.767,0,0,1,3.55,1.354A5.348,5.348,0,0,1,40.025-5.489ZM35.138-9.335a3.293,3.293,0,0,0-2.2.747,3.42,3.42,0,0,0-1.112,2.175h6.327a3.138,3.138,0,0,0-.924-2.175A2.983,2.983,0,0,0,35.138-9.335ZM46.277.2a5.006,5.006,0,0,1-2.847-.763,3.155,3.155,0,0,1-1.386-2.17l1.622-.462a2.262,2.262,0,0,0,.865,1.466,2.805,2.805,0,0,0,1.735.521,3.462,3.462,0,0,0,1.015-.14,1.627,1.627,0,0,0,.779-.521,1.4,1.4,0,0,0,.312-.961,1.4,1.4,0,0,0-.086-.435,1.865,1.865,0,0,0-.172-.349,1.064,1.064,0,0,0-.3-.29,3.966,3.966,0,0,0-.365-.226,3.749,3.749,0,0,0-.478-.2q-.317-.113-.51-.172t-.591-.172q-.4-.113-.612-.177a11.454,11.454,0,0,1-1.1-.387,4.805,4.805,0,0,1-.892-.51,2.053,2.053,0,0,1-.693-.833,2.817,2.817,0,0,1-.231-1.182,2.731,2.731,0,0,1,.516-1.687,2.9,2.9,0,0,1,1.337-.994,5.346,5.346,0,0,1,1.875-.306,4.588,4.588,0,0,1,2.573.688A2.934,2.934,0,0,1,49.93-7.992L48.4-7.605A2.022,2.022,0,0,0,47.6-8.943a2.565,2.565,0,0,0-1.515-.446,2.614,2.614,0,0,0-1.418.371,1.246,1.246,0,0,0-.591,1.133,1.128,1.128,0,0,0,.156.585,1.859,1.859,0,0,0,.317.414,1.948,1.948,0,0,0,.58.317q.419.167.623.226t.773.2q.107.032.161.043.623.161,1.015.285a6.24,6.24,0,0,1,.913.387,3.036,3.036,0,0,1,.822.575,2.663,2.663,0,0,1,.516.816A2.882,2.882,0,0,1,50.166-2.9a3.075,3.075,0,0,1-.317,1.423,2.479,2.479,0,0,1-.865.972,4.182,4.182,0,0,1-1.23.532A5.86,5.86,0,0,1,46.277.2ZM56.461,0A2.776,2.776,0,0,1,54.4-.757a2.865,2.865,0,0,1-.752-2.111V-9.077H51.487V-10.56h.795a1.526,1.526,0,0,0,1.166-.371,1.824,1.824,0,0,0,.338-1.241v-1.912h1.729v3.523h2.428v1.482H55.516v6.016a1.6,1.6,0,0,0,.4,1.166,1.411,1.411,0,0,0,1.058.414h.967V0Zm5.113-13.041a1.209,1.209,0,0,1-.886-.371,1.209,1.209,0,0,1-.371-.886,1.192,1.192,0,0,1,.371-.881,1.218,1.218,0,0,1,.886-.365,1.206,1.206,0,0,1,.875.365,1.192,1.192,0,0,1,.371.881,1.209,1.209,0,0,1-.371.886A1.2,1.2,0,0,1,61.574-13.041ZM60.629,0V-10.56H62.5V0Zm13.3-10.56h1.8V-.537a5.752,5.752,0,0,1-1.364,4.114,4.959,4.959,0,0,1-3.781,1.439,4.992,4.992,0,0,1-5.124-3.233L67,1.031A3.491,3.491,0,0,0,70.533,3.47a3.031,3.031,0,0,0,2.476-1.031A4.389,4.389,0,0,0,73.863-.44V-2.4a3.721,3.721,0,0,1-1.5,1.52,4.376,4.376,0,0,1-2.2.575,4.527,4.527,0,0,1-3.416-1.488,5.247,5.247,0,0,1-1.407-3.754,5.2,5.2,0,0,1,1.413-3.744,4.572,4.572,0,0,1,3.432-1.477,4.266,4.266,0,0,1,2.213.591,3.8,3.8,0,0,1,1.493,1.558ZM70.576-1.88a3.2,3.2,0,0,0,2.433-1.085,3.666,3.666,0,0,0,1-2.578,3.691,3.691,0,0,0-1-2.589,3.189,3.189,0,0,0-2.438-1.085,3.217,3.217,0,0,0-2.433,1.053,3.671,3.671,0,0,0-.994,2.621,3.64,3.64,0,0,0,1,2.6A3.219,3.219,0,0,0,70.576-1.88ZM81.952.2a3.593,3.593,0,0,1-2.315-.725,2.6,2.6,0,0,1-.908-2.165,3.076,3.076,0,0,1,.29-1.38,2.434,2.434,0,0,1,.859-.961,5.155,5.155,0,0,1,1.241-.6A11.469,11.469,0,0,1,82.726-6l1.708-.279q.935-.172.935-.978a1.845,1.845,0,0,0-.661-1.574,2.692,2.692,0,0,0-1.67-.5,2.742,2.742,0,0,0-1.654.483A2.023,2.023,0,0,0,80.6-7.369l-1.676-.354a3.225,3.225,0,0,1,1.321-2.261,4.937,4.937,0,0,1,2.879-.757,5.839,5.839,0,0,1,1.531.188,4.16,4.16,0,0,1,1.278.591,2.65,2.65,0,0,1,.913,1.139,4.237,4.237,0,0,1,.328,1.735v4.361a1.784,1.784,0,0,0,.242,1.1,1.043,1.043,0,0,0,.833.285h.172V0H87.5a1.762,1.762,0,0,1-2-1.429h-.086A4.035,4.035,0,0,1,81.952.2Zm.43-1.5A2.818,2.818,0,0,0,84.648-2.32a4.2,4.2,0,0,0,.859-2.793l-2.793.537a3.76,3.76,0,0,0-1.638.585,1.362,1.362,0,0,0-.532,1.155,1.346,1.346,0,0,0,.51,1.16A2.181,2.181,0,0,0,82.382-1.3ZM95.208.193a5.086,5.086,0,0,1-3.781-1.515,5.4,5.4,0,0,1-1.493-3.964,5.414,5.414,0,0,1,1.488-3.964,5.081,5.081,0,0,1,3.787-1.515,5.123,5.123,0,0,1,3.056.924,4.662,4.662,0,0,1,1.778,2.567l-1.74.279a3.214,3.214,0,0,0-1.192-1.644,3.247,3.247,0,0,0-1.912-.58,3.122,3.122,0,0,0-2.444,1.085,4.133,4.133,0,0,0-.961,2.847,4.113,4.113,0,0,0,.961,2.841A3.129,3.129,0,0,0,95.2-1.364a3.247,3.247,0,0,0,1.912-.58A3.214,3.214,0,0,0,98.3-3.588l1.74.29A4.668,4.668,0,0,1,98.253-.736,5.115,5.115,0,0,1,95.208.193Zm8.519-13.234a1.209,1.209,0,0,1-.886-.371,1.209,1.209,0,0,1-.371-.886,1.192,1.192,0,0,1,.371-.881,1.218,1.218,0,0,1,.886-.365,1.206,1.206,0,0,1,.875.365,1.192,1.192,0,0,1,.371.881,1.209,1.209,0,0,1-.371.886A1.2,1.2,0,0,1,103.727-13.041ZM102.781,0V-10.56h1.869V0Zm9.389-12.375,2.7-3.5.988.72-2.406,2.782ZM112.879.2a5.566,5.566,0,0,1-2.707-.655,4.771,4.771,0,0,1-1.907-1.917,5.89,5.89,0,0,1-.7-2.917,5.38,5.38,0,0,1,1.5-3.98,5.173,5.173,0,0,1,3.819-1.5,5.168,5.168,0,0,1,3.824,1.5,5.39,5.39,0,0,1,1.493,3.98,5.394,5.394,0,0,1-1.5,3.991A5.173,5.173,0,0,1,112.879.2Zm-.011-1.547a3.243,3.243,0,0,0,2.5-1.085,4.065,4.065,0,0,0,.994-2.857,4.05,4.05,0,0,0-.994-2.847,3.243,3.243,0,0,0-2.5-1.085,3.2,3.2,0,0,0-2.476,1.085,4.077,4.077,0,0,0-.983,2.847,4.092,4.092,0,0,0,.983,2.857A3.2,3.2,0,0,0,112.868-1.343Zm13.224-9.421a3.673,3.673,0,0,1,2.659.956,3.566,3.566,0,0,1,.994,2.7V0h-1.858V-6.692a2.5,2.5,0,0,0-.645-1.891,2.3,2.3,0,0,0-1.654-.612,2.555,2.555,0,0,0-1.88.725,2.942,2.942,0,0,0-.741,2.154V0h-1.858V-10.56h1.858v1.354A3.526,3.526,0,0,1,126.092-10.764ZM8.852,25.2a8.035,8.035,0,0,1-2.976-.542,7.186,7.186,0,0,1-2.39-1.525A6.8,6.8,0,0,1,1.9,20.682a8.877,8.877,0,0,1-.575-3.255,8.732,8.732,0,0,1,.58-3.239,6.791,6.791,0,0,1,3.975-3.98,8.107,8.107,0,0,1,2.976-.537,7.684,7.684,0,0,1,4.023,1.063,6.626,6.626,0,0,1,2.659,2.954l-1.772.73a4.98,4.98,0,0,0-1.982-2.154,5.688,5.688,0,0,0-2.927-.757,6.015,6.015,0,0,0-2.2.4,5.277,5.277,0,0,0-1.783,1.139,5.141,5.141,0,0,0-1.2,1.869,6.935,6.935,0,0,0-.435,2.514,6.978,6.978,0,0,0,.435,2.519,5.133,5.133,0,0,0,1.2,1.875,5.346,5.346,0,0,0,1.783,1.144,5.944,5.944,0,0,0,2.2.4,5.688,5.688,0,0,0,2.927-.757,4.993,4.993,0,0,0,1.982-2.143l1.772.72a6.592,6.592,0,0,1-2.653,2.959A7.706,7.706,0,0,1,8.852,25.2Zm13.943,0a5.566,5.566,0,0,1-2.707-.655,4.771,4.771,0,0,1-1.907-1.917,5.89,5.89,0,0,1-.7-2.917,5.38,5.38,0,0,1,1.5-3.98,5.173,5.173,0,0,1,3.819-1.5,5.168,5.168,0,0,1,3.824,1.5,5.39,5.39,0,0,1,1.493,3.98,5.394,5.394,0,0,1-1.5,3.991A5.173,5.173,0,0,1,22.795,25.2Zm-.011-1.547a3.243,3.243,0,0,0,2.5-1.085,4.065,4.065,0,0,0,.994-2.857,4.05,4.05,0,0,0-.994-2.847,3.243,3.243,0,0,0-2.5-1.085,3.2,3.2,0,0,0-2.476,1.085,4.077,4.077,0,0,0-.983,2.847,4.092,4.092,0,0,0,.983,2.857A3.2,3.2,0,0,0,22.784,23.657Zm13.224-9.421a3.673,3.673,0,0,1,2.659.956,3.566,3.566,0,0,1,.994,2.7V25H37.8V18.308a2.5,2.5,0,0,0-.645-1.891A2.3,2.3,0,0,0,35.5,15.8a2.555,2.555,0,0,0-1.88.725,2.942,2.942,0,0,0-.741,2.154V25H31.023V14.44h1.858v1.354A3.526,3.526,0,0,1,36.008,14.236ZM47.631,25.193a5.086,5.086,0,0,1-3.781-1.515,5.4,5.4,0,0,1-1.493-3.964,5.414,5.414,0,0,1,1.488-3.964,5.5,5.5,0,0,1,6.843-.591,4.662,4.662,0,0,1,1.778,2.567l-1.74.279a3.214,3.214,0,0,0-1.192-1.644,3.247,3.247,0,0,0-1.912-.58,3.122,3.122,0,0,0-2.444,1.085,4.133,4.133,0,0,0-.961,2.847,4.113,4.113,0,0,0,.961,2.841,3.129,3.129,0,0,0,2.444,1.08,3.247,3.247,0,0,0,1.912-.58,3.214,3.214,0,0,0,1.192-1.644l1.74.29a4.668,4.668,0,0,1-1.789,2.562A5.115,5.115,0,0,1,47.631,25.193ZM55.2,25V8.5h1.88V25ZM67.439,14.44H69.3V25H67.515l-.043-1.4a3.3,3.3,0,0,1-1.311,1.187,4.031,4.031,0,0,1-1.848.414,3.673,3.673,0,0,1-2.659-.956,3.566,3.566,0,0,1-.994-2.7V14.44H62.52v6.692a2.506,2.506,0,0,0,.65,1.891,2.3,2.3,0,0,0,1.66.623,2.527,2.527,0,0,0,1.875-.73,2.975,2.975,0,0,0,.736-2.159Zm12.149,0h1.966L75.442,29.974H73.52l2.116-5.231-4.1-10.3h2.063l2.976,8.218Zm13.02,5.07-.021.5h-8.25a3.731,3.731,0,0,0,1.01,2.7,3.315,3.315,0,0,0,2.406.94,3.166,3.166,0,0,0,1.751-.5,3.276,3.276,0,0,0,1.2-1.4l1.676.354a4.763,4.763,0,0,1-1.8,2.267,4.924,4.924,0,0,1-2.8.827,5.1,5.1,0,0,1-3.8-1.472,5.475,5.475,0,0,1-1.45-4.018,5.448,5.448,0,0,1,1.456-4.007,5.038,5.038,0,0,1,3.744-1.472,4.767,4.767,0,0,1,3.55,1.354A5.348,5.348,0,0,1,92.608,19.511Zm-4.888-3.846a3.293,3.293,0,0,0-2.2.747,3.42,3.42,0,0,0-1.112,2.175h6.327a3.138,3.138,0,0,0-.924-2.175A2.983,2.983,0,0,0,87.721,15.665ZM100.5,14.236a3.673,3.673,0,0,1,2.659.956,3.566,3.566,0,0,1,.994,2.7V25H102.3V18.308a2.5,2.5,0,0,0-.645-1.891A2.3,2.3,0,0,0,100,15.8a2.555,2.555,0,0,0-1.88.725,2.942,2.942,0,0,0-.741,2.154V25H95.52V14.44h1.858v1.354A3.526,3.526,0,0,1,100.5,14.236ZM111.117,25a2.776,2.776,0,0,1-2.062-.757,2.865,2.865,0,0,1-.752-2.111V15.923h-2.159V14.44h.795a1.526,1.526,0,0,0,1.166-.371,1.824,1.824,0,0,0,.338-1.241V10.917h1.729V14.44H112.6v1.482h-2.428v6.016a1.6,1.6,0,0,0,.4,1.166,1.411,1.411,0,0,0,1.058.414h.967V25Zm13.277-5.489-.021.5h-8.25a3.731,3.731,0,0,0,1.01,2.7,3.315,3.315,0,0,0,2.406.94,3.166,3.166,0,0,0,1.751-.5,3.276,3.276,0,0,0,1.2-1.4l1.676.354a4.763,4.763,0,0,1-1.8,2.267,4.924,4.924,0,0,1-2.8.827,5.1,5.1,0,0,1-3.8-1.472,5.475,5.475,0,0,1-1.45-4.018,5.448,5.448,0,0,1,1.456-4.007,5.038,5.038,0,0,1,3.744-1.472,4.767,4.767,0,0,1,3.55,1.354A5.348,5.348,0,0,1,124.395,19.511Zm-4.888-3.846a3.293,3.293,0,0,0-2.2.747,3.42,3.42,0,0,0-1.112,2.175h6.327a3.138,3.138,0,0,0-.924-2.175A2.983,2.983,0,0,0,119.507,15.665Z" transform="translate(452 5495)" fill="#fff"/>
    <path id="Trazado_36792" data-name="Trazado 36792" d="M-32.937-12.375v1.433H-36.11V0h-1.564V-10.942h-3.182v-1.433ZM-30.5,0V-12.375h1.573V0ZM-20.36-12.375a3.664,3.664,0,0,1,1.938.514,3.473,3.473,0,0,1,1.3,1.375,4.036,4.036,0,0,1,.453,1.907,3.755,3.755,0,0,1-1.024,2.694A3.514,3.514,0,0,1-20.36-4.808h-3.111V0h-1.573V-12.375Zm-.229,6.2a2.25,2.25,0,0,0,1.723-.664A2.455,2.455,0,0,0-18.242-8.6a2.463,2.463,0,0,0-.624-1.745,2.234,2.234,0,0,0-1.723-.672h-2.883v4.834ZM-8.609.167a6.574,6.574,0,0,1-2.435-.444A5.879,5.879,0,0,1-13-1.525a5.567,5.567,0,0,1-1.3-2.008A7.263,7.263,0,0,1-14.77-6.2a7.144,7.144,0,0,1,.475-2.65,5.7,5.7,0,0,1,1.3-2.008A5.741,5.741,0,0,1-11.043-12.1a6.633,6.633,0,0,1,2.435-.439,6.526,6.526,0,0,1,2.417.444A5.831,5.831,0,0,1-4.241-10.85a5.652,5.652,0,0,1,1.3,2A7.144,7.144,0,0,1-2.465-6.2,7.213,7.213,0,0,1-2.94-3.538a5.638,5.638,0,0,1-1.3,2.013A5.831,5.831,0,0,1-6.192-.277,6.526,6.526,0,0,1-8.609.167Zm0-1.485A4.422,4.422,0,0,0-5.335-2.624,4.847,4.847,0,0,0-4.039-6.2a5.674,5.674,0,0,0-.356-2.057A4.236,4.236,0,0,0-5.37-9.782a4.28,4.28,0,0,0-1.45-.932,4.862,4.862,0,0,0-1.789-.325,4.921,4.921,0,0,0-1.8.325,4.317,4.317,0,0,0-1.459.932,4.206,4.206,0,0,0-.98,1.529A5.674,5.674,0,0,0-13.206-6.2a5.771,5.771,0,0,0,.356,2.074,4.194,4.194,0,0,0,.98,1.538,4.374,4.374,0,0,0,1.459.936A4.863,4.863,0,0,0-8.609-1.318ZM4.179.167A5.648,5.648,0,0,1,.949-.708a3.7,3.7,0,0,1-1.613-2.4L.927-3.489A2.609,2.609,0,0,0,2.043-1.8a3.775,3.775,0,0,0,2.188.615,4.566,4.566,0,0,0,.817-.07,3.127,3.127,0,0,0,.743-.233,2.274,2.274,0,0,0,.611-.4,1.669,1.669,0,0,0,.4-.606,2.076,2.076,0,0,0,.141-.826,1.786,1.786,0,0,0-.11-.584,1.855,1.855,0,0,0-.246-.461,1.657,1.657,0,0,0-.417-.374,5.594,5.594,0,0,0-.5-.3,4.529,4.529,0,0,0-.62-.25Q4.663-5.423,4.4-5.5l-.712-.2Q3.6-5.722,3.555-5.73q-.51-.132-.831-.229t-.769-.268a5.06,5.06,0,0,1-.734-.338,4.968,4.968,0,0,1-.6-.422,2.161,2.161,0,0,1-.5-.549,2.9,2.9,0,0,1-.3-.7,3.11,3.11,0,0,1-.119-.879,3.138,3.138,0,0,1,.576-1.9,3.368,3.368,0,0,1,1.485-1.16,5.392,5.392,0,0,1,2.043-.369,5.6,5.6,0,0,1,2.975.76A3.388,3.388,0,0,1,8.363-9.536l-1.529.387A2.328,2.328,0,0,0,5.805-10.67a3.523,3.523,0,0,0-1.934-.51,3.83,3.83,0,0,0-.949.114,2.82,2.82,0,0,0-.822.352,1.706,1.706,0,0,0-.593.646,1.965,1.965,0,0,0-.22.945,1.519,1.519,0,0,0,.088.523,1.605,1.605,0,0,0,.22.417,1.564,1.564,0,0,0,.378.343,3.839,3.839,0,0,0,.461.272,4.676,4.676,0,0,0,.576.224q.36.119.615.193t.677.18a14.318,14.318,0,0,1,2.382.791A3.014,3.014,0,0,1,8.521-3.9a3.924,3.924,0,0,1,.035.536,3.458,3.458,0,0,1-.356,1.6A2.885,2.885,0,0,1,7.225-.659a4.664,4.664,0,0,1-1.389.62A6.368,6.368,0,0,1,4.179.167ZM16.2,0V-12.375h3.99a5.917,5.917,0,0,1,3.151.8A4.879,4.879,0,0,1,25.277-9.4a7.642,7.642,0,0,1,.628,3.2,8.1,8.1,0,0,1-.365,2.5A5.664,5.664,0,0,1,24.473-1.74a4.685,4.685,0,0,1-1.8,1.283A6.391,6.391,0,0,1,20.193,0Zm1.573-1.433H20.14A3.769,3.769,0,0,0,23.229-2.7a5.35,5.35,0,0,0,1.042-3.5,5.305,5.305,0,0,0-1.046-3.48,3.771,3.771,0,0,0-3.085-1.266H17.776ZM35.6-10.942H30.573v4.052H35v1.415h-4.43v4.043H35.6V0H28.964V-12.375H35.6ZM-67.522,30V17.625h1.573V30ZM-53.75,17.625h1.564V30h-1.661l-6.671-10.011V30h-1.547V17.625h1.644l6.671,9.967Zm13.061,0h1.661L-43.563,30H-45.18l-4.535-12.375h1.652l3.691,10.406Zm10.767,1.433H-34.95v4.052h4.43v1.415h-4.43v4.043h5.027V30h-6.636V17.625h6.636Zm6.838,11.109a5.648,5.648,0,0,1-3.23-.875,3.7,3.7,0,0,1-1.613-2.4l1.591-.378A2.609,2.609,0,0,0-25.22,28.2a3.775,3.775,0,0,0,2.188.615,4.566,4.566,0,0,0,.817-.07,3.127,3.127,0,0,0,.743-.233,2.274,2.274,0,0,0,.611-.4,1.669,1.669,0,0,0,.4-.606,2.076,2.076,0,0,0,.141-.826,1.786,1.786,0,0,0-.11-.584,1.855,1.855,0,0,0-.246-.461,1.657,1.657,0,0,0-.417-.374,5.594,5.594,0,0,0-.5-.3,4.529,4.529,0,0,0-.62-.25q-.391-.132-.655-.207l-.712-.2q-.088-.026-.132-.035-.51-.132-.831-.229t-.769-.268a5.06,5.06,0,0,1-.734-.338,4.968,4.968,0,0,1-.6-.422,2.161,2.161,0,0,1-.5-.549,2.9,2.9,0,0,1-.3-.7,3.11,3.11,0,0,1-.119-.879,3.138,3.138,0,0,1,.576-1.9,3.368,3.368,0,0,1,1.485-1.16,5.392,5.392,0,0,1,2.043-.369,5.6,5.6,0,0,1,2.975.76A3.388,3.388,0,0,1-18.9,20.464l-1.529.387a2.328,2.328,0,0,0-1.028-1.521,3.523,3.523,0,0,0-1.934-.51,3.83,3.83,0,0,0-.949.114,2.82,2.82,0,0,0-.822.352,1.706,1.706,0,0,0-.593.646,1.965,1.965,0,0,0-.22.945,1.519,1.519,0,0,0,.088.523,1.605,1.605,0,0,0,.22.417,1.564,1.564,0,0,0,.378.343,3.839,3.839,0,0,0,.461.272,4.676,4.676,0,0,0,.576.224q.36.119.615.193t.677.18a14.318,14.318,0,0,1,2.382.791A3.014,3.014,0,0,1-18.743,26.1a3.924,3.924,0,0,1,.035.536,3.458,3.458,0,0,1-.356,1.6,2.885,2.885,0,0,1-.976,1.107,4.664,4.664,0,0,1-1.389.62A6.368,6.368,0,0,1-23.084,30.167ZM-9.391,17.625v1.433h-3.173V30h-1.564V19.058H-17.31V17.625ZM-6.957,30V17.625h1.573V30Zm10.714.167a6.608,6.608,0,0,1-2.413-.435A5.75,5.75,0,0,1-.6,28.5a5.546,5.546,0,0,1-1.292-2,7.229,7.229,0,0,1-.47-2.659,6.912,6.912,0,0,1,.817-3.419A5.491,5.491,0,0,1,.664,18.209,6.486,6.486,0,0,1,3.8,17.458a6.435,6.435,0,0,1,3.085.738,5.348,5.348,0,0,1,2.171,2.145l-1.389.747a3.956,3.956,0,0,0-1.6-1.63A4.671,4.671,0,0,0,3.8,18.908a4.921,4.921,0,0,0-1.8.325A4.082,4.082,0,0,0-.426,21.721a6.437,6.437,0,0,0,0,4.184,4.261,4.261,0,0,0,.967,1.551A4.2,4.2,0,0,0,2,28.4a5.04,5.04,0,0,0,1.841.33,4.217,4.217,0,0,0,2.834-.962,4.043,4.043,0,0,0,1.332-2.747H3.836V23.689H9.549V30H8.257V27.68a4.332,4.332,0,0,1-1.771,1.841A5.505,5.505,0,0,1,3.757,30.167ZM20.773,30l-1.063-2.962h-5.6L13.056,30H11.413l4.562-12.375h1.881L22.417,30Zm-6.161-4.351h4.605l-2.3-6.442Zm14.941,4.518a6.574,6.574,0,0,1-2.435-.444,5.879,5.879,0,0,1-1.956-1.248,5.567,5.567,0,0,1-1.3-2.008,7.263,7.263,0,0,1-.47-2.663,7.144,7.144,0,0,1,.475-2.65A5.556,5.556,0,0,1,27.119,17.9a6.633,6.633,0,0,1,2.435-.439,6.287,6.287,0,0,1,3.292.87,5.421,5.421,0,0,1,2.175,2.417l-1.45.6a4.075,4.075,0,0,0-1.622-1.762,4.654,4.654,0,0,0-2.4-.62,4.921,4.921,0,0,0-1.8.325,4.317,4.317,0,0,0-1.459.932,4.206,4.206,0,0,0-.98,1.529,6.132,6.132,0,0,0,0,4.118,4.2,4.2,0,0,0,.98,1.534,4.374,4.374,0,0,0,1.459.936,4.863,4.863,0,0,0,1.8.33,4.654,4.654,0,0,0,2.4-.62,4.085,4.085,0,0,0,1.622-1.753l1.45.589A5.394,5.394,0,0,1,32.849,29.3,6.305,6.305,0,0,1,29.553,30.167ZM37.718,30V17.625h1.573V30ZM47.9,16.342,50.1,13.477l.809.589-1.969,2.276Zm.58,13.825a6.574,6.574,0,0,1-2.435-.444,5.879,5.879,0,0,1-1.956-1.248,5.567,5.567,0,0,1-1.3-2.008,7.263,7.263,0,0,1-.47-2.663,7.144,7.144,0,0,1,.475-2.65A5.556,5.556,0,0,1,46.042,17.9a6.633,6.633,0,0,1,2.435-.439,6.526,6.526,0,0,1,2.417.444,5.831,5.831,0,0,1,1.951,1.248,5.652,5.652,0,0,1,1.3,2,7.659,7.659,0,0,1,0,5.309,5.638,5.638,0,0,1-1.3,2.013,5.831,5.831,0,0,1-1.951,1.248A6.526,6.526,0,0,1,48.476,30.167Zm0-1.485a4.422,4.422,0,0,0,3.274-1.305,4.847,4.847,0,0,0,1.3-3.573,5.674,5.674,0,0,0-.356-2.057,4.236,4.236,0,0,0-.976-1.529,4.28,4.28,0,0,0-1.45-.932,4.862,4.862,0,0,0-1.789-.325,4.921,4.921,0,0,0-1.8.325,4.317,4.317,0,0,0-1.459.932,4.206,4.206,0,0,0-.98,1.529,5.674,5.674,0,0,0-.356,2.057,5.771,5.771,0,0,0,.356,2.074,4.194,4.194,0,0,0,.98,1.538,4.374,4.374,0,0,0,1.459.936A4.863,4.863,0,0,0,48.476,28.682ZM65.958,17.625h1.564V30H65.861L59.19,19.989V30H57.643V17.625h1.644l6.671,9.967Z" transform="translate(542 5270)" fill="#00223d"/>
    <path id="Trazado_35885" data-name="Trazado 35885" d="M1910.036,3933.021v-64.245" transform="translate(-1374 1296)" fill="none" stroke="#2c2c2c" stroke-width="2"/>
    <path id="Trazado_35886" data-name="Trazado 35886" d="M1910.036,3933.021v-64.245" transform="translate(-1374 1474)" fill="none" stroke="#2c2c2c" stroke-width="2"/>
    <path id="Trazado_36793" data-name="Trazado 36793" d="M12,0,24,21H0Z" transform="translate(548 5428) rotate(180)" fill="#212020"/>
    <path id="Trazado_36788" data-name="Trazado 36788" d="M12,0,24,21H0Z" transform="translate(524 5154)" fill="#212020"/>
    <path id="Trazado_35887" data-name="Trazado 35887" d="M2174.315,3682.279,2070.891,3785.7l103.425,103.425" transform="translate(-1374 1296)" fill="none" stroke="#212121" stroke-width="2"/>
    <path id="Trazado_36789" data-name="Trazado 36789" d="M12,0,24,21H0Z" transform="translate(800.939 4962.59) rotate(45)" fill="#212020"/>
    <path id="Trazado_36790" data-name="Trazado 36790" d="M12,0,24,21H0Z" transform="translate(817.91 5186.439) rotate(135)" fill="#212020"/>
    <path id="Trazado_36794" data-name="Trazado 36794" d="M0,0H316V93H0Z" transform="translate(857 4942)" fill="#ff8f00"/>
    <path id="Trazado_36795" data-name="Trazado 36795" d="M10.56,21,6.671,14.179H4.3V21H2.374V5.875H7.391a4.517,4.517,0,0,1,3.389,1.2,4.229,4.229,0,0,1,1.166,3.078,3.946,3.946,0,0,1-.886,2.632A3.962,3.962,0,0,1,8.594,14.1L12.8,21ZM4.3,7.562v5.1H7.133a3.167,3.167,0,0,0,2.213-.682,2.394,2.394,0,0,0,.741-1.853A2.437,2.437,0,0,0,9.34,8.26a3.123,3.123,0,0,0-2.208-.7ZM24.17,15.511l-.021.5H15.9a3.731,3.731,0,0,0,1.01,2.7,3.315,3.315,0,0,0,2.406.94,3.166,3.166,0,0,0,1.751-.5,3.276,3.276,0,0,0,1.2-1.4l1.676.354a4.763,4.763,0,0,1-1.8,2.267,4.924,4.924,0,0,1-2.8.827,5.1,5.1,0,0,1-3.8-1.472,5.475,5.475,0,0,1-1.45-4.018,5.448,5.448,0,0,1,1.456-4.007,5.038,5.038,0,0,1,3.744-1.472,4.767,4.767,0,0,1,3.55,1.354A5.348,5.348,0,0,1,24.17,15.511Zm-4.888-3.846a3.293,3.293,0,0,0-2.2.747,3.42,3.42,0,0,0-1.112,2.175H22.3a3.138,3.138,0,0,0-.924-2.175A2.983,2.983,0,0,0,19.282,11.665Zm12.182,9.528a5.086,5.086,0,0,1-3.781-1.515,5.4,5.4,0,0,1-1.493-3.964,5.414,5.414,0,0,1,1.488-3.964,5.5,5.5,0,0,1,6.843-.591A4.662,4.662,0,0,1,36.3,13.728l-1.74.279a3.214,3.214,0,0,0-1.192-1.644,3.247,3.247,0,0,0-1.912-.58,3.122,3.122,0,0,0-2.444,1.085,4.133,4.133,0,0,0-.961,2.847,4.113,4.113,0,0,0,.961,2.841,3.129,3.129,0,0,0,2.444,1.08,3.247,3.247,0,0,0,1.912-.58,3.214,3.214,0,0,0,1.192-1.644l1.74.29a4.668,4.668,0,0,1-1.789,2.562A5.115,5.115,0,0,1,31.464,21.193Zm12.021.011a5.566,5.566,0,0,1-2.707-.655,4.771,4.771,0,0,1-1.907-1.917,5.89,5.89,0,0,1-.7-2.917,5.38,5.38,0,0,1,1.5-3.98,5.622,5.622,0,0,1,7.643,0,5.39,5.39,0,0,1,1.493,3.98,5.394,5.394,0,0,1-1.5,3.991A5.173,5.173,0,0,1,43.484,21.2Zm-.011-1.547a3.243,3.243,0,0,0,2.5-1.085,4.065,4.065,0,0,0,.994-2.857,4.05,4.05,0,0,0-.994-2.847,3.243,3.243,0,0,0-2.5-1.085A3.2,3.2,0,0,0,41,12.868a4.077,4.077,0,0,0-.983,2.847A4.092,4.092,0,0,0,41,18.572,3.2,3.2,0,0,0,43.474,19.657ZM56.7,10.236a3.673,3.673,0,0,1,2.659.956,3.566,3.566,0,0,1,.994,2.7V21H58.491V14.308a2.5,2.5,0,0,0-.645-1.891,2.3,2.3,0,0,0-1.654-.612,2.555,2.555,0,0,0-1.88.725,2.942,2.942,0,0,0-.741,2.154V21H51.713V10.44h1.858v1.354A3.526,3.526,0,0,1,56.7,10.236ZM68.385,21.2a5.566,5.566,0,0,1-2.707-.655,4.771,4.771,0,0,1-1.907-1.917,5.89,5.89,0,0,1-.7-2.917,5.38,5.38,0,0,1,1.5-3.98,5.622,5.622,0,0,1,7.643,0,5.39,5.39,0,0,1,1.493,3.98,5.394,5.394,0,0,1-1.5,3.991A5.173,5.173,0,0,1,68.385,21.2Zm-.011-1.547a3.243,3.243,0,0,0,2.5-1.085,4.065,4.065,0,0,0,.994-2.857,4.05,4.05,0,0,0-.994-2.847,3.243,3.243,0,0,0-2.5-1.085A3.2,3.2,0,0,0,65.9,12.868a4.077,4.077,0,0,0-.983,2.847,4.092,4.092,0,0,0,.983,2.857A3.2,3.2,0,0,0,68.374,19.657ZM81,21.193a5.086,5.086,0,0,1-3.781-1.515,5.4,5.4,0,0,1-1.493-3.964,5.414,5.414,0,0,1,1.488-3.964,5.5,5.5,0,0,1,6.843-.591,4.662,4.662,0,0,1,1.778,2.567l-1.74.279A3.214,3.214,0,0,0,82.9,12.363a3.247,3.247,0,0,0-1.912-.58,3.122,3.122,0,0,0-2.444,1.085,4.133,4.133,0,0,0-.961,2.847,4.113,4.113,0,0,0,.961,2.841,3.129,3.129,0,0,0,2.444,1.08,3.247,3.247,0,0,0,1.912-.58,3.214,3.214,0,0,0,1.192-1.644l1.74.29a4.668,4.668,0,0,1-1.789,2.562A5.115,5.115,0,0,1,81,21.193Zm16.812-5.683-.021.5h-8.25a3.731,3.731,0,0,0,1.01,2.7,3.315,3.315,0,0,0,2.406.94,3.166,3.166,0,0,0,1.751-.5,3.276,3.276,0,0,0,1.2-1.4l1.676.354a4.763,4.763,0,0,1-1.8,2.267,4.924,4.924,0,0,1-2.8.827,5.1,5.1,0,0,1-3.8-1.472,5.475,5.475,0,0,1-1.45-4.018,5.448,5.448,0,0,1,1.456-4.007,5.038,5.038,0,0,1,3.744-1.472,4.767,4.767,0,0,1,3.55,1.354A5.348,5.348,0,0,1,97.808,15.511ZM92.92,11.665a3.293,3.293,0,0,0-2.2.747,3.42,3.42,0,0,0-1.112,2.175h6.327a3.138,3.138,0,0,0-.924-2.175A2.983,2.983,0,0,0,92.92,11.665Zm9.614.634a3.192,3.192,0,0,1,1.311-1.418,3.947,3.947,0,0,1,2.03-.559v1.751a3.479,3.479,0,0,0-2.455.784,3.276,3.276,0,0,0-.843,2.5V21h-1.858V10.44h1.815ZM120.28,10.44h1.966l-6.112,15.533h-1.923l2.116-5.231-4.1-10.3h2.063l2.976,8.218ZM137.994,4.5h1.858V21h-1.794l-.043-2.052a3.885,3.885,0,0,1-1.5,1.665,4.191,4.191,0,0,1-2.234.612,4.8,4.8,0,0,1-3.486-1.488,5.085,5.085,0,0,1-1.063-1.746,6.385,6.385,0,0,1-.392-2.267,5.553,5.553,0,0,1,1.434-3.964,4.629,4.629,0,0,1,3.507-1.525,4.209,4.209,0,0,1,2.208.6,3.908,3.908,0,0,1,1.509,1.617Zm-3.33,15.114a3.162,3.162,0,0,0,2.455-1.112,4.013,4.013,0,0,0,.994-2.777,4.005,4.005,0,0,0-1-2.771,3.16,3.16,0,0,0-2.449-1.117,3.232,3.232,0,0,0-2.471,1.08,3.972,3.972,0,0,0-1,2.809,3.972,3.972,0,0,0,1,2.809A3.232,3.232,0,0,0,134.664,19.614Zm18.208-4.1-.021.5H144.6a3.731,3.731,0,0,0,1.01,2.7,3.315,3.315,0,0,0,2.406.94,3.166,3.166,0,0,0,1.751-.5,3.276,3.276,0,0,0,1.2-1.4l1.676.354a4.763,4.763,0,0,1-1.8,2.267,4.924,4.924,0,0,1-2.8.827,5.1,5.1,0,0,1-3.8-1.472,5.475,5.475,0,0,1-1.45-4.018,5.448,5.448,0,0,1,1.456-4.007,5.038,5.038,0,0,1,3.744-1.472,4.767,4.767,0,0,1,3.55,1.354A5.348,5.348,0,0,1,152.872,15.511Zm-4.888-3.846a3.293,3.293,0,0,0-2.2.747,3.42,3.42,0,0,0-1.112,2.175H151a3.138,3.138,0,0,0-.924-2.175A2.983,2.983,0,0,0,147.984,11.665Zm8.347-3.437A6.073,6.073,0,0,1,156.444,7a3.99,3.99,0,0,1,.3-.929,2.208,2.208,0,0,1,.5-.671,2.939,2.939,0,0,1,.65-.457,3.226,3.226,0,0,1,.8-.269,7.511,7.511,0,0,1,.908-.134q.446-.038,1.026-.038V6.058h-.4q-.124,0-.387.021a2.479,2.479,0,0,0-.387.054q-.124.032-.333.107a.85.85,0,0,0-.317.183q-.107.107-.247.274a1.123,1.123,0,0,0-.209.387,3.7,3.7,0,0,0-.118.516,4.112,4.112,0,0,0-.048.661V10.44h2.449v1.482h-2.449V21h-1.848V11.923H154.29V10.44h2.041Zm7.391-.269A1.265,1.265,0,0,1,162.465,6.7a1.192,1.192,0,0,1,.371-.881,1.218,1.218,0,0,1,.886-.365,1.206,1.206,0,0,1,.875.365,1.192,1.192,0,0,1,.371.881,1.209,1.209,0,0,1-.371.886A1.2,1.2,0,0,1,163.722,7.959ZM162.776,21V10.44h1.869V21Zm10.635-10.764a3.673,3.673,0,0,1,2.659.956,3.566,3.566,0,0,1,.994,2.7V21h-1.858V14.308a2.5,2.5,0,0,0-.645-1.891,2.3,2.3,0,0,0-1.654-.612,2.555,2.555,0,0,0-1.88.725,2.942,2.942,0,0,0-.741,2.154V21h-1.858V10.44h1.858v1.354A3.526,3.526,0,0,1,173.411,10.236ZM181.6,7.959A1.265,1.265,0,0,1,180.34,6.7a1.192,1.192,0,0,1,.371-.881,1.218,1.218,0,0,1,.886-.365,1.206,1.206,0,0,1,.875.365,1.192,1.192,0,0,1,.371.881,1.209,1.209,0,0,1-.371.886A1.2,1.2,0,0,1,181.6,7.959ZM180.651,21V10.44h1.869V21Zm7.466-8.7a3.192,3.192,0,0,1,1.311-1.418,3.947,3.947,0,0,1,2.03-.559v1.751a3.479,3.479,0,0,0-2.455.784,3.275,3.275,0,0,0-.843,2.5V21H186.3V10.44h1.815Zm20.475,3.212-.021.5h-8.25a3.731,3.731,0,0,0,1.01,2.7,3.315,3.315,0,0,0,2.406.94,3.166,3.166,0,0,0,1.751-.5,3.276,3.276,0,0,0,1.2-1.4l1.676.354a4.763,4.763,0,0,1-1.8,2.267,4.924,4.924,0,0,1-2.8.827,5.1,5.1,0,0,1-3.8-1.472,5.475,5.475,0,0,1-1.45-4.018,5.448,5.448,0,0,1,1.456-4.007,5.038,5.038,0,0,1,3.744-1.472,4.767,4.767,0,0,1,3.55,1.354A5.348,5.348,0,0,1,208.592,15.511ZM203.7,11.665a3.293,3.293,0,0,0-2.2.747,3.42,3.42,0,0,0-1.112,2.175h6.327a3.138,3.138,0,0,0-.924-2.175A2.983,2.983,0,0,0,203.7,11.665ZM211.5,21V4.5h1.88V21ZM7.466,35.236a4.8,4.8,0,0,1,1.912.387,4.7,4.7,0,0,1,1.568,1.085A5.071,5.071,0,0,1,12,38.448a6.417,6.417,0,0,1,.392,2.277,5.583,5.583,0,0,1-1.423,3.985,4.623,4.623,0,0,1-3.507,1.515,4.18,4.18,0,0,1-2.208-.6A3.943,3.943,0,0,1,3.749,44v7.315H1.891V35.44H3.685l.043,2.052a3.865,3.865,0,0,1,1.5-1.649A4.219,4.219,0,0,1,7.466,35.236ZM7.1,44.614a3.206,3.206,0,0,0,2.444-1.069,4.49,4.49,0,0,0,0-5.634A3.214,3.214,0,0,0,7.1,36.848a3.222,3.222,0,0,0-2.481,1.112,4.308,4.308,0,0,0,0,5.543A3.222,3.222,0,0,0,7.1,44.614ZM17.145,37.3a3.192,3.192,0,0,1,1.311-1.418,3.947,3.947,0,0,1,2.03-.559v1.751a3.479,3.479,0,0,0-2.455.784,3.276,3.276,0,0,0-.843,2.5V46H15.329V35.44h1.815Zm9.84,8.905a5.566,5.566,0,0,1-2.707-.655,4.771,4.771,0,0,1-1.907-1.917,5.89,5.89,0,0,1-.7-2.917,5.38,5.38,0,0,1,1.5-3.98,5.173,5.173,0,0,1,3.819-1.5,5.168,5.168,0,0,1,3.824,1.5,5.39,5.39,0,0,1,1.493,3.98,5.394,5.394,0,0,1-1.5,3.991A5.173,5.173,0,0,1,26.984,46.2Zm-.011-1.547a3.243,3.243,0,0,0,2.5-1.085,4.59,4.59,0,0,0,0-5.7,3.243,3.243,0,0,0-2.5-1.085A3.2,3.2,0,0,0,24.5,37.868a4.629,4.629,0,0,0,0,5.7A3.2,3.2,0,0,0,26.974,44.657ZM40.81,35.236A4.6,4.6,0,0,1,44.3,36.762a5.565,5.565,0,0,1,1.429,3.964A5.6,5.6,0,0,1,44.312,44.7a4.591,4.591,0,0,1-3.5,1.525,4.238,4.238,0,0,1-2.25-.612,3.875,3.875,0,0,1-1.509-1.665L37.007,46H35.213V29.5h1.848l.011,7.96a3.892,3.892,0,0,1,1.509-1.627A4.248,4.248,0,0,1,40.81,35.236ZM40.4,44.614a3.232,3.232,0,0,0,2.471-1.08,4.449,4.449,0,0,0,0-5.618,3.232,3.232,0,0,0-2.471-1.08,3.16,3.16,0,0,0-2.449,1.117,4.36,4.36,0,0,0-.005,5.548A3.162,3.162,0,0,0,40.4,44.614ZM48.651,46V29.5h1.88V46Zm14.9-5.489-.021.5h-8.25a3.731,3.731,0,0,0,1.01,2.7,3.315,3.315,0,0,0,2.406.94,3.166,3.166,0,0,0,1.751-.5,3.276,3.276,0,0,0,1.2-1.4l1.676.354a4.763,4.763,0,0,1-1.8,2.267,4.924,4.924,0,0,1-2.8.827,5.1,5.1,0,0,1-3.8-1.472,5.475,5.475,0,0,1-1.45-4.018,5.448,5.448,0,0,1,1.456-4.007,5.038,5.038,0,0,1,3.744-1.472,4.767,4.767,0,0,1,3.55,1.354A5.348,5.348,0,0,1,63.551,40.511Zm-4.888-3.846a3.293,3.293,0,0,0-2.2.747,3.42,3.42,0,0,0-1.112,2.175h6.327a3.138,3.138,0,0,0-.924-2.175A2.983,2.983,0,0,0,58.663,36.665Zm18.595-1.429a3.4,3.4,0,0,1,2.46.9,3.327,3.327,0,0,1,.935,2.519V46H78.794V39.136a2.386,2.386,0,0,0-.58-1.74,1.975,1.975,0,0,0-1.472-.591,2.085,2.085,0,0,0-1.611.666,2.864,2.864,0,0,0-.612,2V46H72.628V39.211a2.5,2.5,0,0,0-.585-1.8,1.991,1.991,0,0,0-1.5-.607,2.066,2.066,0,0,0-1.606.682,2.963,2.963,0,0,0-.618,2.046V46H66.462V35.44H68.32V36.8a3.208,3.208,0,0,1,1.208-1.16,3.446,3.446,0,0,1,1.681-.408,3.588,3.588,0,0,1,1.8.446,2.775,2.775,0,0,1,1.171,1.284,3.286,3.286,0,0,1,1.268-1.284A3.626,3.626,0,0,1,77.258,35.236ZM86.689,46.2a3.593,3.593,0,0,1-2.315-.725,2.6,2.6,0,0,1-.908-2.165,3.076,3.076,0,0,1,.29-1.38,2.434,2.434,0,0,1,.859-.961,5.155,5.155,0,0,1,1.241-.6A11.47,11.47,0,0,1,87.463,40l1.708-.279q.935-.172.935-.978a1.845,1.845,0,0,0-.661-1.574,2.692,2.692,0,0,0-1.67-.5,2.742,2.742,0,0,0-1.654.483,2.023,2.023,0,0,0-.784,1.482l-1.676-.354a3.225,3.225,0,0,1,1.321-2.261,4.937,4.937,0,0,1,2.879-.757,5.839,5.839,0,0,1,1.531.188,4.16,4.16,0,0,1,1.278.591,2.65,2.65,0,0,1,.913,1.139,4.237,4.237,0,0,1,.328,1.735v4.361a1.784,1.784,0,0,0,.242,1.1,1.043,1.043,0,0,0,.833.285h.172V46h-.924a1.762,1.762,0,0,1-2-1.429h-.086A4.035,4.035,0,0,1,86.689,46.2Zm.43-1.5a2.818,2.818,0,0,0,2.267-1.021,4.2,4.2,0,0,0,.859-2.793l-2.793.537a3.76,3.76,0,0,0-1.638.585,1.362,1.362,0,0,0-.532,1.155,1.346,1.346,0,0,0,.51,1.16A2.181,2.181,0,0,0,87.119,44.7Zm22.172-15.2h1.858V46h-1.794l-.043-2.052a3.885,3.885,0,0,1-1.5,1.665,4.191,4.191,0,0,1-2.234.612,4.8,4.8,0,0,1-3.486-1.488,5.085,5.085,0,0,1-1.063-1.746,6.386,6.386,0,0,1-.392-2.267,5.553,5.553,0,0,1,1.434-3.964,4.629,4.629,0,0,1,3.507-1.525,4.209,4.209,0,0,1,2.208.6,3.907,3.907,0,0,1,1.509,1.617Zm-3.33,15.114a3.162,3.162,0,0,0,2.455-1.112,4.36,4.36,0,0,0-.005-5.548,3.16,3.16,0,0,0-2.449-1.117,3.232,3.232,0,0,0-2.471,1.08,4.449,4.449,0,0,0,0,5.618A3.232,3.232,0,0,0,105.961,44.614Zm18.208-4.1-.021.5H115.9a3.731,3.731,0,0,0,1.01,2.7,3.315,3.315,0,0,0,2.406.94,3.166,3.166,0,0,0,1.751-.5,3.276,3.276,0,0,0,1.2-1.4l1.676.354a4.763,4.763,0,0,1-1.8,2.267,4.924,4.924,0,0,1-2.8.827,5.1,5.1,0,0,1-3.8-1.472,5.475,5.475,0,0,1-1.45-4.018,5.448,5.448,0,0,1,1.456-4.007,5.038,5.038,0,0,1,3.744-1.472,4.767,4.767,0,0,1,3.55,1.354A5.348,5.348,0,0,1,124.169,40.511Zm-4.888-3.846a3.293,3.293,0,0,0-2.2.747,3.42,3.42,0,0,0-1.112,2.175H122.3a3.138,3.138,0,0,0-.924-2.175A2.983,2.983,0,0,0,119.281,36.665ZM140.594,29.5h1.858V46h-1.794l-.043-2.052a3.885,3.885,0,0,1-1.5,1.665,4.191,4.191,0,0,1-2.234.612,4.8,4.8,0,0,1-3.486-1.488,5.085,5.085,0,0,1-1.063-1.746,6.385,6.385,0,0,1-.392-2.267,5.553,5.553,0,0,1,1.434-3.964,4.629,4.629,0,0,1,3.507-1.525,4.209,4.209,0,0,1,2.208.6,3.908,3.908,0,0,1,1.509,1.617Zm-3.33,15.114a3.162,3.162,0,0,0,2.455-1.112,4.36,4.36,0,0,0-.005-5.548,3.16,3.16,0,0,0-2.449-1.117,3.232,3.232,0,0,0-2.471,1.08,4.449,4.449,0,0,0,0,5.618A3.232,3.232,0,0,0,137.264,44.614Zm18.208-4.1-.021.5H147.2a3.731,3.731,0,0,0,1.01,2.7,3.315,3.315,0,0,0,2.406.94,3.166,3.166,0,0,0,1.751-.5,3.276,3.276,0,0,0,1.2-1.4l1.676.354a4.763,4.763,0,0,1-1.8,2.267,4.924,4.924,0,0,1-2.8.827,5.1,5.1,0,0,1-3.8-1.472,5.475,5.475,0,0,1-1.45-4.018,5.448,5.448,0,0,1,1.456-4.007,5.038,5.038,0,0,1,3.744-1.472,4.767,4.767,0,0,1,3.55,1.354A5.348,5.348,0,0,1,155.472,40.511Zm-4.888-3.846a3.293,3.293,0,0,0-2.2.747,3.42,3.42,0,0,0-1.112,2.175H153.6a3.138,3.138,0,0,0-.924-2.175A2.983,2.983,0,0,0,150.584,36.665Zm12.182,9.528a5.086,5.086,0,0,1-3.781-1.515,5.4,5.4,0,0,1-1.493-3.964,5.414,5.414,0,0,1,1.488-3.964,5.5,5.5,0,0,1,6.843-.591,4.662,4.662,0,0,1,1.778,2.567l-1.74.279a3.214,3.214,0,0,0-1.192-1.644,3.247,3.247,0,0,0-1.912-.58,3.122,3.122,0,0,0-2.444,1.085,4.687,4.687,0,0,0,0,5.688,3.129,3.129,0,0,0,2.444,1.08,3.247,3.247,0,0,0,1.912-.58,3.214,3.214,0,0,0,1.192-1.644l1.74.29a4.668,4.668,0,0,1-1.789,2.562A5.115,5.115,0,0,1,162.766,46.193Zm8.519-13.234a1.265,1.265,0,0,1-1.257-1.257,1.192,1.192,0,0,1,.371-.881,1.218,1.218,0,0,1,.886-.365,1.206,1.206,0,0,1,.875.365,1.192,1.192,0,0,1,.371.881,1.209,1.209,0,0,1-.371.886A1.2,1.2,0,0,1,171.284,32.959ZM170.339,46V35.44h1.869V46Zm8.991.2a5.006,5.006,0,0,1-2.847-.763,3.155,3.155,0,0,1-1.386-2.17l1.622-.462a2.262,2.262,0,0,0,.865,1.466,2.805,2.805,0,0,0,1.735.521,3.462,3.462,0,0,0,1.015-.14,1.627,1.627,0,0,0,.779-.521,1.453,1.453,0,0,0,.226-1.4,1.865,1.865,0,0,0-.172-.349,1.064,1.064,0,0,0-.3-.29,3.966,3.966,0,0,0-.365-.226,3.749,3.749,0,0,0-.478-.2q-.317-.113-.51-.172t-.591-.172q-.4-.113-.612-.177a11.453,11.453,0,0,1-1.1-.387,4.805,4.805,0,0,1-.892-.51,2.053,2.053,0,0,1-.693-.833,2.817,2.817,0,0,1-.231-1.182,2.731,2.731,0,0,1,.516-1.687,2.9,2.9,0,0,1,1.337-.994,5.346,5.346,0,0,1,1.875-.306,4.588,4.588,0,0,1,2.573.688,2.934,2.934,0,0,1,1.284,2.063l-1.525.387a2.022,2.022,0,0,0-.806-1.337,2.565,2.565,0,0,0-1.515-.446,2.614,2.614,0,0,0-1.418.371,1.246,1.246,0,0,0-.591,1.133,1.128,1.128,0,0,0,.156.585,1.859,1.859,0,0,0,.317.414,1.948,1.948,0,0,0,.58.317q.419.167.623.226t.773.2q.107.032.161.043.623.161,1.015.285a6.239,6.239,0,0,1,.913.387,3.035,3.035,0,0,1,.822.575,2.663,2.663,0,0,1,.516.816,2.882,2.882,0,0,1,.215,1.139,3.075,3.075,0,0,1-.317,1.423,2.479,2.479,0,0,1-.865.972,4.182,4.182,0,0,1-1.23.532A5.86,5.86,0,0,1,179.33,46.2Zm7.756-13.245a1.265,1.265,0,0,1-1.257-1.257,1.192,1.192,0,0,1,.371-.881,1.218,1.218,0,0,1,.886-.365,1.206,1.206,0,0,1,.875.365,1.192,1.192,0,0,1,.371.881,1.209,1.209,0,0,1-.371.886A1.2,1.2,0,0,1,187.086,32.959ZM186.141,46V35.44h1.869V46Zm9.389-12.375,2.7-3.5.988.72-2.406,2.782Zm.709,12.579a5.566,5.566,0,0,1-2.707-.655,4.771,4.771,0,0,1-1.907-1.917,5.89,5.89,0,0,1-.7-2.917,5.38,5.38,0,0,1,1.5-3.98,5.622,5.622,0,0,1,7.643,0,5.39,5.39,0,0,1,1.493,3.98,5.394,5.394,0,0,1-1.5,3.991A5.173,5.173,0,0,1,196.238,46.2Zm-.011-1.547a3.243,3.243,0,0,0,2.5-1.085,4.59,4.59,0,0,0,0-5.7,3.243,3.243,0,0,0-2.5-1.085,3.2,3.2,0,0,0-2.476,1.085,4.629,4.629,0,0,0,0,5.7A3.2,3.2,0,0,0,196.228,44.657Zm13.224-9.421a3.673,3.673,0,0,1,2.659.956,3.566,3.566,0,0,1,.994,2.7V46h-1.858V39.308a2.5,2.5,0,0,0-.645-1.891,2.3,2.3,0,0,0-1.654-.612,2.555,2.555,0,0,0-1.88.725,2.942,2.942,0,0,0-.741,2.154V46h-1.858V35.44h1.858v1.354A3.526,3.526,0,0,1,209.451,35.236Z" transform="translate(887 4962)" fill="#fff"/>
    <path id="Trazado_36796" data-name="Trazado 36796" d="M0,0H316V93H0Z" transform="translate(857 5118)" fill="#ff8f00"/>
    <path id="Trazado_36797" data-name="Trazado 36797" d="M2.374,21V5.875H4.3V21ZM16.21,4.5h1.858V21H16.274l-.043-2.052a3.885,3.885,0,0,1-1.5,1.665,4.191,4.191,0,0,1-2.234.612,4.8,4.8,0,0,1-3.486-1.488,5.085,5.085,0,0,1-1.063-1.746,6.386,6.386,0,0,1-.392-2.267,5.553,5.553,0,0,1,1.434-3.964,4.629,4.629,0,0,1,3.507-1.525,4.209,4.209,0,0,1,2.208.6,3.908,3.908,0,0,1,1.509,1.617ZM12.88,19.614A3.162,3.162,0,0,0,15.334,18.5a4.013,4.013,0,0,0,.994-2.777,4.005,4.005,0,0,0-1-2.771,3.16,3.16,0,0,0-2.449-1.117,3.232,3.232,0,0,0-2.471,1.08,3.972,3.972,0,0,0-1,2.809,3.972,3.972,0,0,0,1,2.809A3.232,3.232,0,0,0,12.88,19.614Zm18.208-4.1-.021.5h-8.25a3.731,3.731,0,0,0,1.01,2.7,3.315,3.315,0,0,0,2.406.94,3.166,3.166,0,0,0,1.751-.5,3.276,3.276,0,0,0,1.2-1.4l1.676.354a4.763,4.763,0,0,1-1.8,2.267,4.924,4.924,0,0,1-2.8.827,5.1,5.1,0,0,1-3.8-1.472A5.475,5.475,0,0,1,21,15.715a5.448,5.448,0,0,1,1.456-4.007A5.038,5.038,0,0,1,26.2,10.236a4.767,4.767,0,0,1,3.55,1.354A5.348,5.348,0,0,1,31.088,15.511ZM26.2,11.665a3.293,3.293,0,0,0-2.2.747,3.42,3.42,0,0,0-1.112,2.175h6.327a3.138,3.138,0,0,0-.924-2.175A2.983,2.983,0,0,0,26.2,11.665Zm12.783-1.429a3.673,3.673,0,0,1,2.659.956,3.566,3.566,0,0,1,.994,2.7V21H40.777V14.308a2.5,2.5,0,0,0-.645-1.891,2.3,2.3,0,0,0-1.654-.612,2.555,2.555,0,0,0-1.88.725,2.942,2.942,0,0,0-.741,2.154V21H34V10.44h1.858v1.354A3.526,3.526,0,0,1,38.983,10.236ZM49.6,21a2.776,2.776,0,0,1-2.062-.757,2.865,2.865,0,0,1-.752-2.111V11.923H44.623V10.44h.795a1.526,1.526,0,0,0,1.166-.371,1.824,1.824,0,0,0,.338-1.241V6.917h1.729V10.44h2.428v1.482H48.651v6.016a1.6,1.6,0,0,0,.4,1.166,1.411,1.411,0,0,0,1.058.414h.967V21ZM54.71,7.959A1.265,1.265,0,0,1,53.453,6.7a1.192,1.192,0,0,1,.371-.881,1.218,1.218,0,0,1,.886-.365,1.206,1.206,0,0,1,.875.365,1.192,1.192,0,0,1,.371.881,1.209,1.209,0,0,1-.371.886A1.2,1.2,0,0,1,54.71,7.959ZM53.765,21V10.44h1.869V21Zm6.2-12.772A6.073,6.073,0,0,1,60.076,7a3.99,3.99,0,0,1,.3-.929,2.208,2.208,0,0,1,.5-.671,2.939,2.939,0,0,1,.65-.457,3.226,3.226,0,0,1,.8-.269,7.511,7.511,0,0,1,.908-.134Q63.68,4.5,64.26,4.5V6.058h-.4q-.124,0-.387.021a2.479,2.479,0,0,0-.387.054q-.124.032-.333.107a.85.85,0,0,0-.317.183q-.107.107-.247.274a1.123,1.123,0,0,0-.209.387,3.7,3.7,0,0,0-.118.516,4.112,4.112,0,0,0-.048.661V10.44H64.26v1.482H61.811V21H59.963V11.923H57.922V10.44h2.041Zm7.391-.269A1.265,1.265,0,0,1,66.1,6.7a1.192,1.192,0,0,1,.371-.881,1.218,1.218,0,0,1,.886-.365,1.206,1.206,0,0,1,.875.365A1.192,1.192,0,0,1,68.6,6.7a1.209,1.209,0,0,1-.371.886A1.2,1.2,0,0,1,67.354,7.959ZM66.408,21V10.44h1.869V21Zm10.033.193a5.086,5.086,0,0,1-3.781-1.515,5.4,5.4,0,0,1-1.493-3.964,5.414,5.414,0,0,1,1.488-3.964A5.5,5.5,0,0,1,79.5,11.16a4.662,4.662,0,0,1,1.778,2.567l-1.74.279a3.214,3.214,0,0,0-1.192-1.644,3.247,3.247,0,0,0-1.912-.58,3.122,3.122,0,0,0-2.444,1.085,4.133,4.133,0,0,0-.961,2.847,4.113,4.113,0,0,0,.961,2.841,3.129,3.129,0,0,0,2.444,1.08,3.247,3.247,0,0,0,1.912-.58,3.214,3.214,0,0,0,1.192-1.644l1.74.29a4.668,4.668,0,0,1-1.789,2.562A5.115,5.115,0,0,1,76.441,21.193Zm10.012.011a3.593,3.593,0,0,1-2.315-.725,2.6,2.6,0,0,1-.908-2.165,3.076,3.076,0,0,1,.29-1.38,2.434,2.434,0,0,1,.859-.961,5.155,5.155,0,0,1,1.241-.6A11.469,11.469,0,0,1,87.227,15l1.708-.279q.935-.172.935-.978a1.845,1.845,0,0,0-.661-1.574,2.692,2.692,0,0,0-1.67-.5,2.742,2.742,0,0,0-1.654.483,2.023,2.023,0,0,0-.784,1.482l-1.676-.354a3.225,3.225,0,0,1,1.321-2.261,4.937,4.937,0,0,1,2.879-.757,5.839,5.839,0,0,1,1.531.188,4.16,4.16,0,0,1,1.278.591,2.65,2.65,0,0,1,.913,1.139,4.237,4.237,0,0,1,.328,1.735v4.361a1.784,1.784,0,0,0,.242,1.1,1.043,1.043,0,0,0,.833.285h.172V21H92a1.762,1.762,0,0,1-2-1.429h-.086A4.035,4.035,0,0,1,86.453,21.2Zm.43-1.5a2.818,2.818,0,0,0,2.267-1.021,4.2,4.2,0,0,0,.859-2.793l-2.793.537a3.76,3.76,0,0,0-1.638.585,1.362,1.362,0,0,0-.532,1.155,1.346,1.346,0,0,0,.51,1.16A2.181,2.181,0,0,0,86.883,19.7Zm10.474-7.4a3.192,3.192,0,0,1,1.311-1.418,3.947,3.947,0,0,1,2.03-.559v1.751a3.479,3.479,0,0,0-2.455.784,3.276,3.276,0,0,0-.843,2.5V21H95.541V10.44h1.815Zm15.619,8.895a5.086,5.086,0,0,1-3.781-1.515,5.4,5.4,0,0,1-1.493-3.964,5.414,5.414,0,0,1,1.488-3.964,5.5,5.5,0,0,1,6.843-.591,4.662,4.662,0,0,1,1.778,2.567l-1.74.279a3.214,3.214,0,0,0-1.192-1.644,3.247,3.247,0,0,0-1.912-.58,3.122,3.122,0,0,0-2.444,1.085,4.133,4.133,0,0,0-.961,2.847,4.113,4.113,0,0,0,.961,2.841,3.129,3.129,0,0,0,2.444,1.08,3.247,3.247,0,0,0,1.912-.58,3.214,3.214,0,0,0,1.192-1.644l1.74.29a4.668,4.668,0,0,1-1.789,2.562A5.115,5.115,0,0,1,112.976,21.193ZM127.123,10.44h1.858V21H127.2l-.043-1.4a3.3,3.3,0,0,1-1.311,1.187A4.031,4.031,0,0,1,124,21.2a3.673,3.673,0,0,1-2.659-.956,3.566,3.566,0,0,1-.994-2.7V10.44H122.2v6.692a2.506,2.506,0,0,0,.65,1.891,2.3,2.3,0,0,0,1.66.623,2.527,2.527,0,0,0,1.875-.73,2.975,2.975,0,0,0,.736-2.159Zm7.455,1.858a3.192,3.192,0,0,1,1.311-1.418,3.947,3.947,0,0,1,2.03-.559v1.751a3.479,3.479,0,0,0-2.455.784,3.275,3.275,0,0,0-.843,2.5V21h-1.858V10.44h1.815ZM143.44,21.2a5.006,5.006,0,0,1-2.847-.763,3.155,3.155,0,0,1-1.386-2.17l1.622-.462a2.262,2.262,0,0,0,.865,1.466,2.805,2.805,0,0,0,1.735.521,3.462,3.462,0,0,0,1.015-.14,1.627,1.627,0,0,0,.779-.521,1.453,1.453,0,0,0,.226-1.4,1.865,1.865,0,0,0-.172-.349,1.064,1.064,0,0,0-.3-.29,3.965,3.965,0,0,0-.365-.226,3.749,3.749,0,0,0-.478-.2q-.317-.113-.51-.172t-.591-.172q-.4-.113-.612-.177a11.453,11.453,0,0,1-1.1-.387,4.805,4.805,0,0,1-.892-.51,2.053,2.053,0,0,1-.693-.833,2.817,2.817,0,0,1-.231-1.182,2.731,2.731,0,0,1,.516-1.687,2.9,2.9,0,0,1,1.337-.994,5.346,5.346,0,0,1,1.875-.306,4.588,4.588,0,0,1,2.573.688,2.934,2.934,0,0,1,1.284,2.063l-1.525.387a2.022,2.022,0,0,0-.806-1.337,2.565,2.565,0,0,0-1.515-.446,2.614,2.614,0,0,0-1.418.371,1.246,1.246,0,0,0-.591,1.133,1.128,1.128,0,0,0,.156.585,1.859,1.859,0,0,0,.317.414,1.948,1.948,0,0,0,.58.317q.419.167.623.226t.773.2q.107.032.161.043.623.161,1.015.285a6.239,6.239,0,0,1,.913.387,3.035,3.035,0,0,1,.822.575,2.663,2.663,0,0,1,.516.816,2.882,2.882,0,0,1,.215,1.139,3.075,3.075,0,0,1-.317,1.423,2.479,2.479,0,0,1-.865.972,4.182,4.182,0,0,1-1.23.532A5.86,5.86,0,0,1,143.44,21.2Zm11.258,0a5.566,5.566,0,0,1-2.707-.655,4.771,4.771,0,0,1-1.907-1.917,5.89,5.89,0,0,1-.7-2.917,5.38,5.38,0,0,1,1.5-3.98,5.622,5.622,0,0,1,7.643,0,5.39,5.39,0,0,1,1.493,3.98,5.394,5.394,0,0,1-1.5,3.991A5.173,5.173,0,0,1,154.7,21.2Zm-.011-1.547a3.243,3.243,0,0,0,2.5-1.085,4.065,4.065,0,0,0,.994-2.857,4.05,4.05,0,0,0-.994-2.847,3.243,3.243,0,0,0-2.5-1.085,3.2,3.2,0,0,0-2.476,1.085,4.077,4.077,0,0,0-.983,2.847,4.092,4.092,0,0,0,.983,2.857A3.2,3.2,0,0,0,154.688,19.657Zm11.58,1.547a5.006,5.006,0,0,1-2.847-.763,3.155,3.155,0,0,1-1.386-2.17l1.622-.462a2.262,2.262,0,0,0,.865,1.466,2.805,2.805,0,0,0,1.735.521,3.462,3.462,0,0,0,1.015-.14,1.627,1.627,0,0,0,.779-.521,1.453,1.453,0,0,0,.226-1.4,1.865,1.865,0,0,0-.172-.349,1.064,1.064,0,0,0-.3-.29,3.965,3.965,0,0,0-.365-.226,3.749,3.749,0,0,0-.478-.2q-.317-.113-.51-.172t-.591-.172q-.4-.113-.612-.177a11.453,11.453,0,0,1-1.1-.387,4.805,4.805,0,0,1-.892-.51,2.053,2.053,0,0,1-.693-.833,2.817,2.817,0,0,1-.231-1.182,2.731,2.731,0,0,1,.516-1.687,2.9,2.9,0,0,1,1.337-.994,5.346,5.346,0,0,1,1.875-.306,4.588,4.588,0,0,1,2.573.688,2.934,2.934,0,0,1,1.284,2.063l-1.525.387a2.022,2.022,0,0,0-.806-1.337,2.565,2.565,0,0,0-1.515-.446,2.614,2.614,0,0,0-1.418.371,1.246,1.246,0,0,0-.591,1.133,1.128,1.128,0,0,0,.156.585,1.859,1.859,0,0,0,.317.414,1.948,1.948,0,0,0,.58.317q.419.167.623.226t.773.2q.107.032.161.043.623.161,1.015.285a6.239,6.239,0,0,1,.913.387,3.035,3.035,0,0,1,.822.575,2.663,2.663,0,0,1,.516.816,2.882,2.882,0,0,1,.215,1.139,3.075,3.075,0,0,1-.317,1.423,2.479,2.479,0,0,1-.865.972,4.182,4.182,0,0,1-1.23.532A5.86,5.86,0,0,1,166.268,21.2ZM186.592,4.5h1.858V21h-1.794l-.043-2.052a3.885,3.885,0,0,1-1.5,1.665,4.191,4.191,0,0,1-2.234.612,4.8,4.8,0,0,1-3.486-1.488,5.085,5.085,0,0,1-1.063-1.746,6.385,6.385,0,0,1-.392-2.267,5.553,5.553,0,0,1,1.434-3.964,4.629,4.629,0,0,1,3.507-1.525,4.209,4.209,0,0,1,2.208.6,3.908,3.908,0,0,1,1.509,1.617Zm-3.33,15.114a3.162,3.162,0,0,0,2.455-1.112,4.013,4.013,0,0,0,.994-2.777,4.005,4.005,0,0,0-1-2.771,3.16,3.16,0,0,0-2.449-1.117,3.232,3.232,0,0,0-2.471,1.08,3.972,3.972,0,0,0-1,2.809,3.972,3.972,0,0,0,1,2.809A3.232,3.232,0,0,0,183.262,19.614Zm18.208-4.1-.021.5H193.2a3.731,3.731,0,0,0,1.01,2.7,3.315,3.315,0,0,0,2.406.94,3.166,3.166,0,0,0,1.751-.5,3.276,3.276,0,0,0,1.2-1.4l1.676.354a4.763,4.763,0,0,1-1.8,2.267,4.924,4.924,0,0,1-2.8.827,5.1,5.1,0,0,1-3.8-1.472,5.475,5.475,0,0,1-1.45-4.018,5.448,5.448,0,0,1,1.456-4.007,5.038,5.038,0,0,1,3.744-1.472,4.767,4.767,0,0,1,3.55,1.354A5.348,5.348,0,0,1,201.47,15.511Zm-4.888-3.846a3.293,3.293,0,0,0-2.2.747,3.42,3.42,0,0,0-1.112,2.175H199.6a3.138,3.138,0,0,0-.924-2.175A2.983,2.983,0,0,0,196.582,11.665ZM4.329,46.2a3.593,3.593,0,0,1-2.315-.725,2.6,2.6,0,0,1-.908-2.165,3.076,3.076,0,0,1,.29-1.38,2.433,2.433,0,0,1,.859-.961,5.155,5.155,0,0,1,1.241-.6A11.47,11.47,0,0,1,5.1,40l1.708-.279q.935-.172.935-.978a1.845,1.845,0,0,0-.661-1.574,2.692,2.692,0,0,0-1.67-.5,2.742,2.742,0,0,0-1.654.483,2.023,2.023,0,0,0-.784,1.482L1.3,38.276a3.225,3.225,0,0,1,1.321-2.261A4.937,4.937,0,0,1,5.5,35.258a5.839,5.839,0,0,1,1.531.188,4.16,4.16,0,0,1,1.278.591,2.65,2.65,0,0,1,.913,1.139A4.237,4.237,0,0,1,9.55,38.91v4.361a1.784,1.784,0,0,0,.242,1.1,1.043,1.043,0,0,0,.833.285H10.8V46H9.872a1.762,1.762,0,0,1-2-1.429H7.788A4.035,4.035,0,0,1,4.329,46.2Zm.43-1.5A2.818,2.818,0,0,0,7.025,43.68a4.2,4.2,0,0,0,.859-2.793l-2.793.537a3.76,3.76,0,0,0-1.638.585,1.362,1.362,0,0,0-.532,1.155,1.346,1.346,0,0,0,.51,1.16A2.181,2.181,0,0,0,4.759,44.7Zm12.826,1.493A5.086,5.086,0,0,1,13.8,44.679a5.4,5.4,0,0,1-1.493-3.964A5.414,5.414,0,0,1,13.8,36.751a5.081,5.081,0,0,1,3.787-1.515,5.123,5.123,0,0,1,3.056.924,4.662,4.662,0,0,1,1.778,2.567l-1.74.279a3.214,3.214,0,0,0-1.192-1.644,3.247,3.247,0,0,0-1.912-.58,3.122,3.122,0,0,0-2.444,1.085,4.687,4.687,0,0,0,0,5.688,3.129,3.129,0,0,0,2.444,1.08,3.247,3.247,0,0,0,1.912-.58,3.214,3.214,0,0,0,1.192-1.644l1.74.29a4.668,4.668,0,0,1-1.789,2.562A5.115,5.115,0,0,1,17.585,46.193Zm11.956,0a5.086,5.086,0,0,1-3.781-1.515,5.4,5.4,0,0,1-1.493-3.964,5.414,5.414,0,0,1,1.488-3.964A5.5,5.5,0,0,1,32.6,36.16a4.662,4.662,0,0,1,1.778,2.567l-1.74.279a3.214,3.214,0,0,0-1.192-1.644,3.247,3.247,0,0,0-1.912-.58,3.122,3.122,0,0,0-2.444,1.085,4.687,4.687,0,0,0,0,5.688,3.129,3.129,0,0,0,2.444,1.08,3.247,3.247,0,0,0,1.912-.58,3.214,3.214,0,0,0,1.192-1.644l1.74.29a4.668,4.668,0,0,1-1.789,2.562A5.115,5.115,0,0,1,29.541,46.193ZM38.06,32.959A1.265,1.265,0,0,1,36.8,31.7a1.192,1.192,0,0,1,.371-.881,1.218,1.218,0,0,1,.886-.365,1.206,1.206,0,0,1,.875.365,1.192,1.192,0,0,1,.371.881,1.209,1.209,0,0,1-.371.886A1.2,1.2,0,0,1,38.06,32.959ZM37.114,46V35.44h1.869V46ZM46.5,33.625l2.7-3.5.988.72-2.406,2.782ZM47.212,46.2a5.566,5.566,0,0,1-2.707-.655A4.771,4.771,0,0,1,42.6,43.631a5.89,5.89,0,0,1-.7-2.917,5.38,5.38,0,0,1,1.5-3.98,5.622,5.622,0,0,1,7.643,0,5.39,5.39,0,0,1,1.493,3.98,5.394,5.394,0,0,1-1.5,3.991A5.173,5.173,0,0,1,47.212,46.2ZM47.2,44.657a3.243,3.243,0,0,0,2.5-1.085,4.59,4.59,0,0,0,0-5.7,3.243,3.243,0,0,0-2.5-1.085,3.2,3.2,0,0,0-2.476,1.085,4.629,4.629,0,0,0,0,5.7A3.2,3.2,0,0,0,47.2,44.657Zm13.224-9.421a3.673,3.673,0,0,1,2.659.956,3.566,3.566,0,0,1,.994,2.7V46H62.219V39.308a2.5,2.5,0,0,0-.645-1.891A2.3,2.3,0,0,0,59.92,36.8a2.555,2.555,0,0,0-1.88.725,2.942,2.942,0,0,0-.741,2.154V46H55.44V35.44H57.3v1.354A3.526,3.526,0,0,1,60.425,35.236Z" transform="translate(887 5138)" fill="#fff"/>
    <path id="Trazado_35888" data-name="Trazado 35888" d="M2174.315,3682.279,2070.891,3785.7l103.425,103.425" transform="translate(-1374 1713)" fill="none" stroke="#212121" stroke-width="2"/>
    <path id="Trazado_36798" data-name="Trazado 36798" d="M12,0,24,21H0Z" transform="translate(800.939 5379.59) rotate(45)" fill="#212020"/>
    <path id="Trazado_36811" data-name="Trazado 36811" d="M12,0,24,21H0Z" transform="translate(817.91 5603.439) rotate(135)" fill="#212020"/>
    <path id="Trazado_36799" data-name="Trazado 36799" d="M0,0H316V93H0Z" transform="translate(857 5302)" fill="#ff8f00"/>
    <path id="Trazado_36800" data-name="Trazado 36800" d="M10.484,7.626H4.34v4.952H9.754v1.729H4.34v4.941h6.145V21H2.374V5.875h8.11Zm9.786,2.814h1.987L17.961,21H16.382L12.106,10.44h1.977l3.094,8.4ZM26.479,21.2a3.593,3.593,0,0,1-2.315-.725,2.6,2.6,0,0,1-.908-2.165,3.076,3.076,0,0,1,.29-1.38,2.433,2.433,0,0,1,.859-.961,5.155,5.155,0,0,1,1.241-.6A11.469,11.469,0,0,1,27.253,15l1.708-.279q.935-.172.935-.978a1.845,1.845,0,0,0-.661-1.574,2.692,2.692,0,0,0-1.67-.5,2.742,2.742,0,0,0-1.654.483,2.023,2.023,0,0,0-.784,1.482l-1.676-.354a3.225,3.225,0,0,1,1.321-2.261,4.937,4.937,0,0,1,2.879-.757,5.839,5.839,0,0,1,1.531.188,4.16,4.16,0,0,1,1.278.591,2.65,2.65,0,0,1,.913,1.139A4.237,4.237,0,0,1,31.7,13.91v4.361a1.784,1.784,0,0,0,.242,1.1,1.043,1.043,0,0,0,.833.285h.172V21h-.924a1.762,1.762,0,0,1-2-1.429h-.086A4.035,4.035,0,0,1,26.479,21.2Zm.43-1.5a2.818,2.818,0,0,0,2.267-1.021,4.2,4.2,0,0,0,.859-2.793l-2.793.537a3.76,3.76,0,0,0-1.638.585,1.362,1.362,0,0,0-.532,1.155,1.346,1.346,0,0,0,.51,1.16A2.181,2.181,0,0,0,26.909,19.7ZM35.567,21V4.5h1.88V21ZM47.8,10.44h1.858V21H47.878l-.043-1.4a3.3,3.3,0,0,1-1.311,1.187,4.031,4.031,0,0,1-1.848.414,3.673,3.673,0,0,1-2.659-.956,3.566,3.566,0,0,1-.994-2.7V10.44h1.858v6.692a2.506,2.506,0,0,0,.65,1.891,2.3,2.3,0,0,0,1.66.623,2.527,2.527,0,0,0,1.875-.73,2.975,2.975,0,0,0,.736-2.159ZM55.881,21.2a3.593,3.593,0,0,1-2.315-.725,2.6,2.6,0,0,1-.908-2.165,3.076,3.076,0,0,1,.29-1.38,2.433,2.433,0,0,1,.859-.961,5.155,5.155,0,0,1,1.241-.6A11.469,11.469,0,0,1,56.654,15l1.708-.279q.935-.172.935-.978a1.845,1.845,0,0,0-.661-1.574,2.692,2.692,0,0,0-1.67-.5,2.742,2.742,0,0,0-1.654.483,2.023,2.023,0,0,0-.784,1.482l-1.676-.354a3.225,3.225,0,0,1,1.321-2.261,4.937,4.937,0,0,1,2.879-.757,5.839,5.839,0,0,1,1.531.188,4.16,4.16,0,0,1,1.278.591,2.65,2.65,0,0,1,.913,1.139A4.237,4.237,0,0,1,61.1,13.91v4.361a1.784,1.784,0,0,0,.242,1.1,1.043,1.043,0,0,0,.833.285h.172V21h-.924a1.762,1.762,0,0,1-2-1.429H59.34A4.035,4.035,0,0,1,55.881,21.2Zm.43-1.5a2.818,2.818,0,0,0,2.267-1.021,4.2,4.2,0,0,0,.859-2.793l-2.793.537a3.76,3.76,0,0,0-1.638.585,1.362,1.362,0,0,0-.532,1.155,1.346,1.346,0,0,0,.51,1.16A2.181,2.181,0,0,0,56.311,19.7Zm10.474-7.4a3.192,3.192,0,0,1,1.311-1.418,3.947,3.947,0,0,1,2.03-.559v1.751a3.479,3.479,0,0,0-2.455.784,3.276,3.276,0,0,0-.843,2.5V21H64.969V10.44h1.815ZM82.4,21.193a5.086,5.086,0,0,1-3.781-1.515,5.4,5.4,0,0,1-1.493-3.964,5.414,5.414,0,0,1,1.488-3.964,5.5,5.5,0,0,1,6.843-.591,4.662,4.662,0,0,1,1.778,2.567l-1.74.279A3.214,3.214,0,0,0,84.3,12.363a3.247,3.247,0,0,0-1.912-.58,3.122,3.122,0,0,0-2.444,1.085,4.133,4.133,0,0,0-.961,2.847,4.113,4.113,0,0,0,.961,2.841,3.129,3.129,0,0,0,2.444,1.08,3.247,3.247,0,0,0,1.912-.58A3.214,3.214,0,0,0,85.5,17.412l1.74.29a4.668,4.668,0,0,1-1.789,2.562A5.115,5.115,0,0,1,82.4,21.193ZM96.551,10.44h1.858V21H96.626l-.043-1.4a3.3,3.3,0,0,1-1.311,1.187,4.031,4.031,0,0,1-1.848.414,3.673,3.673,0,0,1-2.659-.956,3.566,3.566,0,0,1-.994-2.7V10.44h1.858v6.692a2.506,2.506,0,0,0,.65,1.891,2.3,2.3,0,0,0,1.66.623,2.527,2.527,0,0,0,1.875-.73,2.975,2.975,0,0,0,.736-2.159Zm7.455,1.858a3.192,3.192,0,0,1,1.311-1.418,3.947,3.947,0,0,1,2.03-.559v1.751a3.479,3.479,0,0,0-2.455.784,3.276,3.276,0,0,0-.843,2.5V21H102.19V10.44h1.815Zm8.862,8.905a5.006,5.006,0,0,1-2.847-.763,3.155,3.155,0,0,1-1.386-2.17l1.622-.462a2.262,2.262,0,0,0,.865,1.466,2.805,2.805,0,0,0,1.735.521,3.462,3.462,0,0,0,1.015-.14,1.627,1.627,0,0,0,.779-.521,1.453,1.453,0,0,0,.226-1.4,1.865,1.865,0,0,0-.172-.349,1.064,1.064,0,0,0-.3-.29,3.966,3.966,0,0,0-.365-.226,3.749,3.749,0,0,0-.478-.2q-.317-.113-.51-.172t-.591-.172q-.4-.113-.612-.177a11.455,11.455,0,0,1-1.1-.387,4.805,4.805,0,0,1-.892-.51,2.053,2.053,0,0,1-.693-.833,2.817,2.817,0,0,1-.231-1.182,2.731,2.731,0,0,1,.516-1.687,2.9,2.9,0,0,1,1.337-.994,5.346,5.346,0,0,1,1.875-.306,4.588,4.588,0,0,1,2.573.688,2.934,2.934,0,0,1,1.284,2.063L115,13.395a2.022,2.022,0,0,0-.806-1.337,2.565,2.565,0,0,0-1.515-.446,2.614,2.614,0,0,0-1.418.371,1.246,1.246,0,0,0-.591,1.133,1.128,1.128,0,0,0,.156.585,1.859,1.859,0,0,0,.317.414,1.948,1.948,0,0,0,.58.317q.419.167.623.226t.773.2q.107.032.161.043.623.161,1.015.285a6.239,6.239,0,0,1,.913.387,3.036,3.036,0,0,1,.822.575,2.662,2.662,0,0,1,.516.816,2.882,2.882,0,0,1,.215,1.139,3.075,3.075,0,0,1-.317,1.423,2.479,2.479,0,0,1-.865.972,4.182,4.182,0,0,1-1.23.532A5.86,5.86,0,0,1,112.868,21.2Zm11.258,0a5.566,5.566,0,0,1-2.707-.655,4.771,4.771,0,0,1-1.907-1.917,5.89,5.89,0,0,1-.7-2.917,5.38,5.38,0,0,1,1.5-3.98,5.622,5.622,0,0,1,7.643,0,5.39,5.39,0,0,1,1.493,3.98,5.394,5.394,0,0,1-1.5,3.991A5.173,5.173,0,0,1,124.126,21.2Zm-.011-1.547a3.243,3.243,0,0,0,2.5-1.085,4.065,4.065,0,0,0,.994-2.857,4.05,4.05,0,0,0-.994-2.847,3.243,3.243,0,0,0-2.5-1.085,3.2,3.2,0,0,0-2.476,1.085,4.077,4.077,0,0,0-.983,2.847,4.092,4.092,0,0,0,.983,2.857A3.2,3.2,0,0,0,124.115,19.657ZM135.7,21.2a5.006,5.006,0,0,1-2.847-.763,3.155,3.155,0,0,1-1.386-2.17l1.622-.462a2.262,2.262,0,0,0,.865,1.466,2.805,2.805,0,0,0,1.735.521,3.462,3.462,0,0,0,1.015-.14,1.627,1.627,0,0,0,.779-.521,1.453,1.453,0,0,0,.226-1.4,1.865,1.865,0,0,0-.172-.349,1.064,1.064,0,0,0-.3-.29,3.965,3.965,0,0,0-.365-.226,3.749,3.749,0,0,0-.478-.2q-.317-.113-.51-.172t-.591-.172q-.4-.113-.612-.177a11.453,11.453,0,0,1-1.1-.387,4.805,4.805,0,0,1-.892-.51,2.053,2.053,0,0,1-.693-.833,2.817,2.817,0,0,1-.231-1.182,2.731,2.731,0,0,1,.516-1.687,2.9,2.9,0,0,1,1.337-.994,5.346,5.346,0,0,1,1.875-.306,4.588,4.588,0,0,1,2.573.688,2.934,2.934,0,0,1,1.284,2.063l-1.525.387a2.022,2.022,0,0,0-.806-1.337,2.565,2.565,0,0,0-1.515-.446,2.614,2.614,0,0,0-1.418.371,1.246,1.246,0,0,0-.591,1.133,1.128,1.128,0,0,0,.156.585,1.859,1.859,0,0,0,.317.414,1.948,1.948,0,0,0,.58.317q.419.167.623.226t.773.2q.107.032.161.043.623.161,1.015.285a6.239,6.239,0,0,1,.913.387,3.035,3.035,0,0,1,.822.575,2.663,2.663,0,0,1,.516.816,2.882,2.882,0,0,1,.215,1.139,3.075,3.075,0,0,1-.317,1.423,2.479,2.479,0,0,1-.865.972,4.182,4.182,0,0,1-1.23.532A5.86,5.86,0,0,1,135.7,21.2ZM156.02,4.5h1.858V21h-1.794l-.043-2.052a3.885,3.885,0,0,1-1.5,1.665,4.191,4.191,0,0,1-2.234.612,4.8,4.8,0,0,1-3.486-1.488,5.085,5.085,0,0,1-1.063-1.746,6.385,6.385,0,0,1-.392-2.267,5.553,5.553,0,0,1,1.434-3.964,4.629,4.629,0,0,1,3.507-1.525,4.209,4.209,0,0,1,2.208.6,3.908,3.908,0,0,1,1.509,1.617Zm-3.33,15.114a3.162,3.162,0,0,0,2.455-1.112,4.013,4.013,0,0,0,.994-2.777,4.005,4.005,0,0,0-1-2.771,3.16,3.16,0,0,0-2.449-1.117,3.232,3.232,0,0,0-2.471,1.08,3.972,3.972,0,0,0-1,2.809,3.972,3.972,0,0,0,1,2.809A3.232,3.232,0,0,0,152.689,19.614Zm18.208-4.1-.021.5h-8.25a3.731,3.731,0,0,0,1.01,2.7,3.315,3.315,0,0,0,2.406.94,3.166,3.166,0,0,0,1.751-.5,3.276,3.276,0,0,0,1.2-1.4l1.676.354a4.763,4.763,0,0,1-1.8,2.267,4.924,4.924,0,0,1-2.8.827,5.1,5.1,0,0,1-3.8-1.472,5.475,5.475,0,0,1-1.45-4.018,5.448,5.448,0,0,1,1.456-4.007,5.038,5.038,0,0,1,3.744-1.472,4.767,4.767,0,0,1,3.55,1.354A5.348,5.348,0,0,1,170.9,15.511Zm-4.888-3.846a3.293,3.293,0,0,0-2.2.747,3.42,3.42,0,0,0-1.112,2.175h6.327a3.138,3.138,0,0,0-.924-2.175A2.983,2.983,0,0,0,166.01,11.665ZM4.329,46.2a3.593,3.593,0,0,1-2.315-.725,2.6,2.6,0,0,1-.908-2.165,3.076,3.076,0,0,1,.29-1.38,2.433,2.433,0,0,1,.859-.961,5.155,5.155,0,0,1,1.241-.6A11.47,11.47,0,0,1,5.1,40l1.708-.279q.935-.172.935-.978a1.845,1.845,0,0,0-.661-1.574,2.692,2.692,0,0,0-1.67-.5,2.742,2.742,0,0,0-1.654.483,2.023,2.023,0,0,0-.784,1.482L1.3,38.276a3.225,3.225,0,0,1,1.321-2.261A4.937,4.937,0,0,1,5.5,35.258a5.839,5.839,0,0,1,1.531.188,4.16,4.16,0,0,1,1.278.591,2.65,2.65,0,0,1,.913,1.139A4.237,4.237,0,0,1,9.55,38.91v4.361a1.784,1.784,0,0,0,.242,1.1,1.043,1.043,0,0,0,.833.285H10.8V46H9.872a1.762,1.762,0,0,1-2-1.429H7.788A4.035,4.035,0,0,1,4.329,46.2Zm.43-1.5A2.818,2.818,0,0,0,7.025,43.68a4.2,4.2,0,0,0,.859-2.793l-2.793.537a3.76,3.76,0,0,0-1.638.585,1.362,1.362,0,0,0-.532,1.155,1.346,1.346,0,0,0,.51,1.16A2.181,2.181,0,0,0,4.759,44.7Zm12.826,1.493A5.086,5.086,0,0,1,13.8,44.679a5.4,5.4,0,0,1-1.493-3.964A5.414,5.414,0,0,1,13.8,36.751a5.081,5.081,0,0,1,3.787-1.515,5.123,5.123,0,0,1,3.056.924,4.662,4.662,0,0,1,1.778,2.567l-1.74.279a3.214,3.214,0,0,0-1.192-1.644,3.247,3.247,0,0,0-1.912-.58,3.122,3.122,0,0,0-2.444,1.085,4.687,4.687,0,0,0,0,5.688,3.129,3.129,0,0,0,2.444,1.08,3.247,3.247,0,0,0,1.912-.58,3.214,3.214,0,0,0,1.192-1.644l1.74.29a4.668,4.668,0,0,1-1.789,2.562A5.115,5.115,0,0,1,17.585,46.193Zm11.956,0a5.086,5.086,0,0,1-3.781-1.515,5.4,5.4,0,0,1-1.493-3.964,5.414,5.414,0,0,1,1.488-3.964A5.5,5.5,0,0,1,32.6,36.16a4.662,4.662,0,0,1,1.778,2.567l-1.74.279a3.214,3.214,0,0,0-1.192-1.644,3.247,3.247,0,0,0-1.912-.58,3.122,3.122,0,0,0-2.444,1.085,4.687,4.687,0,0,0,0,5.688,3.129,3.129,0,0,0,2.444,1.08,3.247,3.247,0,0,0,1.912-.58,3.214,3.214,0,0,0,1.192-1.644l1.74.29a4.668,4.668,0,0,1-1.789,2.562A5.115,5.115,0,0,1,29.541,46.193ZM38.06,32.959A1.265,1.265,0,0,1,36.8,31.7a1.192,1.192,0,0,1,.371-.881,1.218,1.218,0,0,1,.886-.365,1.206,1.206,0,0,1,.875.365,1.192,1.192,0,0,1,.371.881,1.209,1.209,0,0,1-.371.886A1.2,1.2,0,0,1,38.06,32.959ZM37.114,46V35.44h1.869V46ZM46.5,33.625l2.7-3.5.988.72-2.406,2.782ZM47.212,46.2a5.566,5.566,0,0,1-2.707-.655A4.771,4.771,0,0,1,42.6,43.631a5.89,5.89,0,0,1-.7-2.917,5.38,5.38,0,0,1,1.5-3.98,5.622,5.622,0,0,1,7.643,0,5.39,5.39,0,0,1,1.493,3.98,5.394,5.394,0,0,1-1.5,3.991A5.173,5.173,0,0,1,47.212,46.2ZM47.2,44.657a3.243,3.243,0,0,0,2.5-1.085,4.59,4.59,0,0,0,0-5.7,3.243,3.243,0,0,0-2.5-1.085,3.2,3.2,0,0,0-2.476,1.085,4.629,4.629,0,0,0,0,5.7A3.2,3.2,0,0,0,47.2,44.657Zm13.224-9.421a3.673,3.673,0,0,1,2.659.956,3.566,3.566,0,0,1,.994,2.7V46H62.219V39.308a2.5,2.5,0,0,0-.645-1.891A2.3,2.3,0,0,0,59.92,36.8a2.555,2.555,0,0,0-1.88.725,2.942,2.942,0,0,0-.741,2.154V46H55.44V35.44H57.3v1.354A3.526,3.526,0,0,1,60.425,35.236Z" transform="translate(887 5322)" fill="#fff"/>
    <path id="Trazado_36801" data-name="Trazado 36801" d="M0,0H316V93H0Z" transform="translate(857 5446)" fill="#ff8f00"/>
    <path id="Trazado_36806" data-name="Trazado 36806" d="M7.047,21.2A6.9,6.9,0,0,1,3.1,20.135,4.525,4.525,0,0,1,1.128,17.2l1.944-.462A3.188,3.188,0,0,0,4.437,18.8a4.613,4.613,0,0,0,2.675.752,5.58,5.58,0,0,0,1-.086,3.821,3.821,0,0,0,.908-.285,2.779,2.779,0,0,0,.747-.489,2.04,2.04,0,0,0,.494-.741,2.537,2.537,0,0,0,.172-1.01,2.183,2.183,0,0,0-.134-.714,2.268,2.268,0,0,0-.3-.564,2.026,2.026,0,0,0-.51-.457,6.838,6.838,0,0,0-.612-.365,5.535,5.535,0,0,0-.757-.306q-.478-.161-.8-.252t-.87-.242q-.107-.032-.161-.043-.623-.161-1.015-.279t-.94-.328a6.184,6.184,0,0,1-.9-.414A6.072,6.072,0,0,1,2.7,12.46a2.642,2.642,0,0,1-.607-.671,3.544,3.544,0,0,1-.365-.854A3.8,3.8,0,0,1,1.579,9.86a3.836,3.836,0,0,1,.7-2.32A4.117,4.117,0,0,1,4.1,6.122a6.59,6.59,0,0,1,2.5-.451,6.838,6.838,0,0,1,3.636.929A4.141,4.141,0,0,1,12.16,9.345l-1.869.473A2.845,2.845,0,0,0,9.034,7.959a4.306,4.306,0,0,0-2.363-.623,4.681,4.681,0,0,0-1.16.14,3.447,3.447,0,0,0-1,.43,2.086,2.086,0,0,0-.725.79A2.4,2.4,0,0,0,3.513,9.85a1.857,1.857,0,0,0,.107.639,1.962,1.962,0,0,0,.269.51,1.912,1.912,0,0,0,.462.419,4.692,4.692,0,0,0,.564.333,5.716,5.716,0,0,0,.7.274q.44.145.752.236t.827.22a17.5,17.5,0,0,1,2.911.967,3.684,3.684,0,0,1,2.245,2.782,4.8,4.8,0,0,1,.043.655,4.227,4.227,0,0,1-.435,1.955,3.527,3.527,0,0,1-1.192,1.354,5.7,5.7,0,0,1-1.7.757A7.783,7.783,0,0,1,7.047,21.2Zm17.735-5.693-.021.5h-8.25a3.731,3.731,0,0,0,1.01,2.7,3.315,3.315,0,0,0,2.406.94,3.166,3.166,0,0,0,1.751-.5,3.276,3.276,0,0,0,1.2-1.4l1.676.354a4.763,4.763,0,0,1-1.8,2.267,4.924,4.924,0,0,1-2.8.827,5.1,5.1,0,0,1-3.8-1.472,5.475,5.475,0,0,1-1.45-4.018,5.448,5.448,0,0,1,1.456-4.007,5.038,5.038,0,0,1,3.744-1.472,4.767,4.767,0,0,1,3.55,1.354A5.348,5.348,0,0,1,24.782,15.511Zm-4.888-3.846a3.293,3.293,0,0,0-2.2.747,3.42,3.42,0,0,0-1.112,2.175h6.327a3.138,3.138,0,0,0-.924-2.175A2.983,2.983,0,0,0,19.895,11.665ZM27.693,21V4.5h1.88V21Zm14.9-5.489-.021.5h-8.25a3.731,3.731,0,0,0,1.01,2.7,3.315,3.315,0,0,0,2.406.94,3.166,3.166,0,0,0,1.751-.5,3.276,3.276,0,0,0,1.2-1.4l1.676.354a4.763,4.763,0,0,1-1.8,2.267,4.924,4.924,0,0,1-2.8.827,5.1,5.1,0,0,1-3.8-1.472,5.475,5.475,0,0,1-1.45-4.018,5.448,5.448,0,0,1,1.456-4.007,5.038,5.038,0,0,1,3.744-1.472,4.767,4.767,0,0,1,3.55,1.354A5.348,5.348,0,0,1,42.593,15.511Zm-4.888-3.846a3.293,3.293,0,0,0-2.2.747A3.42,3.42,0,0,0,34.4,14.587h6.327a3.138,3.138,0,0,0-.924-2.175A2.983,2.983,0,0,0,37.705,11.665Zm12.182,9.528a5.086,5.086,0,0,1-3.781-1.515,5.4,5.4,0,0,1-1.493-3.964A5.414,5.414,0,0,1,46.1,11.751a5.5,5.5,0,0,1,6.843-.591,4.662,4.662,0,0,1,1.778,2.567l-1.74.279a3.214,3.214,0,0,0-1.192-1.644,3.247,3.247,0,0,0-1.912-.58,3.122,3.122,0,0,0-2.444,1.085,4.133,4.133,0,0,0-.961,2.847,4.113,4.113,0,0,0,.961,2.841,3.129,3.129,0,0,0,2.444,1.08,3.247,3.247,0,0,0,1.912-.58,3.214,3.214,0,0,0,1.192-1.644l1.74.29a4.668,4.668,0,0,1-1.789,2.562A5.115,5.115,0,0,1,49.887,21.193Zm11.956,0a5.086,5.086,0,0,1-3.781-1.515,5.4,5.4,0,0,1-1.493-3.964,5.414,5.414,0,0,1,1.488-3.964A5.5,5.5,0,0,1,64.9,11.16a4.662,4.662,0,0,1,1.778,2.567l-1.74.279a3.214,3.214,0,0,0-1.192-1.644,3.247,3.247,0,0,0-1.912-.58,3.122,3.122,0,0,0-2.444,1.085,4.133,4.133,0,0,0-.961,2.847,4.113,4.113,0,0,0,.961,2.841,3.129,3.129,0,0,0,2.444,1.08,3.247,3.247,0,0,0,1.912-.58,3.214,3.214,0,0,0,1.192-1.644l1.74.29a4.668,4.668,0,0,1-1.789,2.562A5.115,5.115,0,0,1,61.843,21.193ZM70.361,7.959A1.265,1.265,0,0,1,69.1,6.7a1.192,1.192,0,0,1,.371-.881,1.218,1.218,0,0,1,.886-.365,1.206,1.206,0,0,1,.875.365,1.192,1.192,0,0,1,.371.881,1.209,1.209,0,0,1-.371.886A1.2,1.2,0,0,1,70.361,7.959ZM69.416,21V10.44h1.869V21Zm10.1.2a5.566,5.566,0,0,1-2.707-.655A4.771,4.771,0,0,1,74.9,18.631a5.89,5.89,0,0,1-.7-2.917,5.38,5.38,0,0,1,1.5-3.98,5.622,5.622,0,0,1,7.643,0,5.39,5.39,0,0,1,1.493,3.98,5.394,5.394,0,0,1-1.5,3.991A5.173,5.173,0,0,1,79.514,21.2ZM79.5,19.657A3.243,3.243,0,0,0,82,18.572a4.065,4.065,0,0,0,.994-2.857A4.05,4.05,0,0,0,82,12.868a3.243,3.243,0,0,0-2.5-1.085,3.2,3.2,0,0,0-2.476,1.085,4.077,4.077,0,0,0-.983,2.847,4.092,4.092,0,0,0,.983,2.857A3.2,3.2,0,0,0,79.5,19.657Zm13.224-9.421a3.673,3.673,0,0,1,2.659.956,3.566,3.566,0,0,1,.994,2.7V21H94.521V14.308a2.5,2.5,0,0,0-.645-1.891,2.3,2.3,0,0,0-1.654-.612,2.555,2.555,0,0,0-1.88.725,2.942,2.942,0,0,0-.741,2.154V21H87.742V10.44H89.6v1.354A3.526,3.526,0,0,1,92.727,10.236ZM102.405,21.2a3.593,3.593,0,0,1-2.315-.725,2.6,2.6,0,0,1-.908-2.165,3.076,3.076,0,0,1,.29-1.38,2.434,2.434,0,0,1,.859-.961,5.155,5.155,0,0,1,1.241-.6A11.469,11.469,0,0,1,103.179,15l1.708-.279q.935-.172.935-.978a1.845,1.845,0,0,0-.661-1.574,2.692,2.692,0,0,0-1.67-.5,2.742,2.742,0,0,0-1.654.483,2.023,2.023,0,0,0-.784,1.482l-1.676-.354a3.225,3.225,0,0,1,1.321-2.261,4.937,4.937,0,0,1,2.879-.757,5.839,5.839,0,0,1,1.531.188,4.16,4.16,0,0,1,1.278.591,2.65,2.65,0,0,1,.913,1.139,4.237,4.237,0,0,1,.328,1.735v4.361a1.784,1.784,0,0,0,.242,1.1,1.043,1.043,0,0,0,.833.285h.172V21h-.924a1.762,1.762,0,0,1-2-1.429h-.086A4.035,4.035,0,0,1,102.405,21.2Zm.43-1.5A2.818,2.818,0,0,0,105.1,18.68a4.2,4.2,0,0,0,.859-2.793l-2.793.537a3.76,3.76,0,0,0-1.638.585A1.362,1.362,0,0,0,101,18.164a1.346,1.346,0,0,0,.51,1.16A2.181,2.181,0,0,0,102.835,19.7Zm10.474-7.4a3.192,3.192,0,0,1,1.311-1.418,3.947,3.947,0,0,1,2.03-.559v1.751a3.479,3.479,0,0,0-2.455.784,3.276,3.276,0,0,0-.843,2.5V21h-1.858V10.44h1.815Zm17.811-1.858h1.858V21h-1.783l-.043-1.4a3.3,3.3,0,0,1-1.311,1.187,4.031,4.031,0,0,1-1.848.414,3.673,3.673,0,0,1-2.659-.956,3.566,3.566,0,0,1-.994-2.7V10.44H126.2v6.692a2.506,2.506,0,0,0,.65,1.891,2.3,2.3,0,0,0,1.66.623,2.527,2.527,0,0,0,1.875-.73,2.975,2.975,0,0,0,.736-2.159Zm10.624-.2a3.673,3.673,0,0,1,2.659.956,3.566,3.566,0,0,1,.994,2.7V21h-1.858V14.308a2.5,2.5,0,0,0-.645-1.891,2.3,2.3,0,0,0-1.654-.612,2.555,2.555,0,0,0-1.88.725,2.942,2.942,0,0,0-.741,2.154V21h-1.858V10.44h1.858v1.354A3.526,3.526,0,0,1,141.743,10.236Zm17.338,10.957a5.086,5.086,0,0,1-3.781-1.515,5.4,5.4,0,0,1-1.493-3.964,5.414,5.414,0,0,1,1.488-3.964,5.5,5.5,0,0,1,6.843-.591,4.662,4.662,0,0,1,1.778,2.567l-1.74.279a3.214,3.214,0,0,0-1.192-1.644,3.247,3.247,0,0,0-1.912-.58,3.122,3.122,0,0,0-2.444,1.085,4.133,4.133,0,0,0-.961,2.847,4.113,4.113,0,0,0,.961,2.841,3.129,3.129,0,0,0,2.444,1.08,3.247,3.247,0,0,0,1.912-.58,3.214,3.214,0,0,0,1.192-1.644l1.74.29a4.668,4.668,0,0,1-1.789,2.562A5.115,5.115,0,0,1,159.081,21.193ZM173.229,10.44h1.858V21H173.3l-.043-1.4a3.3,3.3,0,0,1-1.311,1.187,4.031,4.031,0,0,1-1.848.414,3.673,3.673,0,0,1-2.659-.956,3.566,3.566,0,0,1-.994-2.7V10.44h1.858v6.692a2.506,2.506,0,0,0,.65,1.891,2.3,2.3,0,0,0,1.66.623,2.527,2.527,0,0,0,1.875-.73,2.975,2.975,0,0,0,.736-2.159Zm7.455,1.858a3.192,3.192,0,0,1,1.311-1.418,3.947,3.947,0,0,1,2.03-.559v1.751a3.479,3.479,0,0,0-2.455.784,3.275,3.275,0,0,0-.843,2.5V21h-1.858V10.44h1.815Zm8.862,8.905a5.006,5.006,0,0,1-2.847-.763,3.155,3.155,0,0,1-1.386-2.17l1.622-.462a2.262,2.262,0,0,0,.865,1.466,2.805,2.805,0,0,0,1.735.521,3.462,3.462,0,0,0,1.015-.14,1.627,1.627,0,0,0,.779-.521,1.453,1.453,0,0,0,.226-1.4,1.865,1.865,0,0,0-.172-.349,1.064,1.064,0,0,0-.3-.29,3.965,3.965,0,0,0-.365-.226,3.749,3.749,0,0,0-.478-.2q-.317-.113-.51-.172t-.591-.172q-.4-.113-.612-.177a11.453,11.453,0,0,1-1.1-.387,4.805,4.805,0,0,1-.892-.51,2.053,2.053,0,0,1-.693-.833,2.817,2.817,0,0,1-.231-1.182,2.731,2.731,0,0,1,.516-1.687,2.9,2.9,0,0,1,1.337-.994,5.346,5.346,0,0,1,1.875-.306,4.588,4.588,0,0,1,2.573.688,2.934,2.934,0,0,1,1.284,2.063l-1.525.387a2.022,2.022,0,0,0-.806-1.337,2.565,2.565,0,0,0-1.515-.446,2.614,2.614,0,0,0-1.418.371,1.246,1.246,0,0,0-.591,1.133,1.128,1.128,0,0,0,.156.585,1.859,1.859,0,0,0,.317.414,1.948,1.948,0,0,0,.58.317q.419.167.623.226t.773.2q.107.032.161.043.623.161,1.015.285a6.239,6.239,0,0,1,.913.387,3.035,3.035,0,0,1,.822.575,2.663,2.663,0,0,1,.516.816,2.882,2.882,0,0,1,.215,1.139,3.075,3.075,0,0,1-.317,1.423,2.479,2.479,0,0,1-.865.972,4.182,4.182,0,0,1-1.23.532A5.86,5.86,0,0,1,189.546,21.2Zm11.258,0a5.566,5.566,0,0,1-2.707-.655,4.771,4.771,0,0,1-1.907-1.917,5.89,5.89,0,0,1-.7-2.917,5.38,5.38,0,0,1,1.5-3.98,5.622,5.622,0,0,1,7.643,0,5.39,5.39,0,0,1,1.493,3.98,5.394,5.394,0,0,1-1.5,3.991A5.173,5.173,0,0,1,200.8,21.2Zm-.011-1.547a3.243,3.243,0,0,0,2.5-1.085,4.065,4.065,0,0,0,.994-2.857,4.05,4.05,0,0,0-.994-2.847,3.243,3.243,0,0,0-2.5-1.085,3.2,3.2,0,0,0-2.476,1.085,4.077,4.077,0,0,0-.983,2.847,4.092,4.092,0,0,0,.983,2.857A3.2,3.2,0,0,0,200.793,19.657ZM9.689,29.5h1.858V46H9.754l-.043-2.052a3.885,3.885,0,0,1-1.5,1.665,4.191,4.191,0,0,1-2.234.612,4.8,4.8,0,0,1-3.486-1.488,5.085,5.085,0,0,1-1.063-1.746,6.386,6.386,0,0,1-.392-2.267,5.553,5.553,0,0,1,1.434-3.964,4.629,4.629,0,0,1,3.507-1.525,4.209,4.209,0,0,1,2.208.6,3.908,3.908,0,0,1,1.509,1.617ZM6.359,44.614A3.162,3.162,0,0,0,8.814,43.5a4.36,4.36,0,0,0-.005-5.548,3.16,3.16,0,0,0-2.449-1.117,3.232,3.232,0,0,0-2.471,1.08,4.449,4.449,0,0,0,0,5.618A3.232,3.232,0,0,0,6.359,44.614Zm18.208-4.1-.021.5H16.3a3.731,3.731,0,0,0,1.01,2.7,3.315,3.315,0,0,0,2.406.94,3.166,3.166,0,0,0,1.751-.5,3.276,3.276,0,0,0,1.2-1.4l1.676.354a4.763,4.763,0,0,1-1.8,2.267,4.924,4.924,0,0,1-2.8.827,5.1,5.1,0,0,1-3.8-1.472,5.475,5.475,0,0,1-1.45-4.018,5.448,5.448,0,0,1,1.456-4.007,5.038,5.038,0,0,1,3.744-1.472,4.767,4.767,0,0,1,3.55,1.354A5.348,5.348,0,0,1,24.567,40.511ZM19.68,36.665a3.293,3.293,0,0,0-2.2.747,3.42,3.42,0,0,0-1.112,2.175H22.7a3.138,3.138,0,0,0-.924-2.175A2.983,2.983,0,0,0,19.68,36.665ZM35.632,46.2a3.593,3.593,0,0,1-2.315-.725,2.6,2.6,0,0,1-.908-2.165,3.076,3.076,0,0,1,.29-1.38,2.433,2.433,0,0,1,.859-.961,5.155,5.155,0,0,1,1.241-.6A11.469,11.469,0,0,1,36.405,40l1.708-.279q.935-.172.935-.978a1.845,1.845,0,0,0-.661-1.574,2.692,2.692,0,0,0-1.67-.5,2.742,2.742,0,0,0-1.654.483,2.023,2.023,0,0,0-.784,1.482L32.6,38.276a3.225,3.225,0,0,1,1.321-2.261,4.937,4.937,0,0,1,2.879-.757,5.839,5.839,0,0,1,1.531.188,4.16,4.16,0,0,1,1.278.591,2.65,2.65,0,0,1,.913,1.139,4.237,4.237,0,0,1,.328,1.735v4.361a1.784,1.784,0,0,0,.242,1.1,1.043,1.043,0,0,0,.833.285H42.1V46h-.924a1.762,1.762,0,0,1-2-1.429h-.086A4.035,4.035,0,0,1,35.632,46.2Zm.43-1.5a2.818,2.818,0,0,0,2.267-1.021,4.2,4.2,0,0,0,.859-2.793l-2.793.537a3.76,3.76,0,0,0-1.638.585,1.362,1.362,0,0,0-.532,1.155,1.346,1.346,0,0,0,.51,1.16A2.181,2.181,0,0,0,36.062,44.7Zm12.826,1.493a5.086,5.086,0,0,1-3.781-1.515,5.4,5.4,0,0,1-1.493-3.964A5.414,5.414,0,0,1,45.1,36.751a5.5,5.5,0,0,1,6.843-.591,4.662,4.662,0,0,1,1.778,2.567l-1.74.279a3.214,3.214,0,0,0-1.192-1.644,3.247,3.247,0,0,0-1.912-.58,3.122,3.122,0,0,0-2.444,1.085,4.687,4.687,0,0,0,0,5.688,3.129,3.129,0,0,0,2.444,1.08,3.247,3.247,0,0,0,1.912-.58,3.214,3.214,0,0,0,1.192-1.644l1.74.29a4.668,4.668,0,0,1-1.789,2.562A5.115,5.115,0,0,1,48.888,46.193Zm11.956,0a5.086,5.086,0,0,1-3.781-1.515,5.4,5.4,0,0,1-1.493-3.964,5.414,5.414,0,0,1,1.488-3.964A5.5,5.5,0,0,1,63.9,36.16a4.662,4.662,0,0,1,1.778,2.567l-1.74.279a3.214,3.214,0,0,0-1.192-1.644,3.247,3.247,0,0,0-1.912-.58,3.122,3.122,0,0,0-2.444,1.085,4.687,4.687,0,0,0,0,5.688,3.129,3.129,0,0,0,2.444,1.08,3.247,3.247,0,0,0,1.912-.58,3.214,3.214,0,0,0,1.192-1.644l1.74.29a4.668,4.668,0,0,1-1.789,2.562A5.115,5.115,0,0,1,60.844,46.193Zm8.519-13.234A1.265,1.265,0,0,1,68.105,31.7a1.192,1.192,0,0,1,.371-.881,1.218,1.218,0,0,1,.886-.365,1.206,1.206,0,0,1,.875.365,1.192,1.192,0,0,1,.371.881,1.209,1.209,0,0,1-.371.886A1.2,1.2,0,0,1,69.362,32.959ZM68.417,46V35.44h1.869V46Zm9.389-12.375,2.7-3.5.988.72-2.406,2.782ZM78.515,46.2a5.566,5.566,0,0,1-2.707-.655A4.771,4.771,0,0,1,73.9,43.631a5.89,5.89,0,0,1-.7-2.917,5.38,5.38,0,0,1,1.5-3.98,5.622,5.622,0,0,1,7.643,0,5.39,5.39,0,0,1,1.493,3.98,5.394,5.394,0,0,1-1.5,3.991A5.173,5.173,0,0,1,78.515,46.2ZM78.5,44.657A3.243,3.243,0,0,0,81,43.572a4.59,4.59,0,0,0,0-5.7,3.243,3.243,0,0,0-2.5-1.085,3.2,3.2,0,0,0-2.476,1.085,4.629,4.629,0,0,0,0,5.7A3.2,3.2,0,0,0,78.5,44.657Zm13.224-9.421a3.673,3.673,0,0,1,2.659.956,3.566,3.566,0,0,1,.994,2.7V46H93.521V39.308a2.5,2.5,0,0,0-.645-1.891,2.3,2.3,0,0,0-1.654-.612,2.555,2.555,0,0,0-1.88.725,2.942,2.942,0,0,0-.741,2.154V46H86.743V35.44H88.6v1.354A3.526,3.526,0,0,1,91.728,35.236Z" transform="translate(887 5466)" fill="#fff"/>
    <path id="Trazado_36812" data-name="Trazado 36812" d="M0,0H316V93H0Z" transform="translate(857 5602)" fill="#ff8f00"/>
    <path id="Trazado_36813" data-name="Trazado 36813" d="M18.369,21H16.5L15.49,8.518,10.656,21H9.507L4.705,8.561,3.685,21H1.8L2.954,5.875H5.489L10.076,17.67l4.6-11.795H17.23Zm12.783-5.489-.021.5h-8.25a3.731,3.731,0,0,0,1.01,2.7,3.315,3.315,0,0,0,2.406.94,3.166,3.166,0,0,0,1.751-.5,3.276,3.276,0,0,0,1.2-1.4l1.676.354a4.763,4.763,0,0,1-1.8,2.267,4.924,4.924,0,0,1-2.8.827,5.1,5.1,0,0,1-3.8-1.472,5.475,5.475,0,0,1-1.45-4.018,5.448,5.448,0,0,1,1.456-4.007,5.038,5.038,0,0,1,3.744-1.472,4.767,4.767,0,0,1,3.55,1.354A5.348,5.348,0,0,1,31.152,15.511Zm-4.888-3.846a3.293,3.293,0,0,0-2.2.747,3.42,3.42,0,0,0-1.112,2.175h6.327a3.138,3.138,0,0,0-.924-2.175A2.983,2.983,0,0,0,26.265,11.665ZM41.862,4.5h1.858V21H41.927l-.043-2.052a3.885,3.885,0,0,1-1.5,1.665,4.191,4.191,0,0,1-2.234.612,4.8,4.8,0,0,1-3.486-1.488A5.085,5.085,0,0,1,33.6,17.992a6.385,6.385,0,0,1-.392-2.267,5.553,5.553,0,0,1,1.434-3.964,4.629,4.629,0,0,1,3.507-1.525,4.209,4.209,0,0,1,2.208.6,3.908,3.908,0,0,1,1.509,1.617Zm-3.33,15.114A3.162,3.162,0,0,0,40.987,18.5a4.013,4.013,0,0,0,.994-2.777,4.005,4.005,0,0,0-1-2.771,3.16,3.16,0,0,0-2.449-1.117,3.232,3.232,0,0,0-2.471,1.08,3.972,3.972,0,0,0-1,2.809,3.972,3.972,0,0,0,1,2.809A3.232,3.232,0,0,0,38.532,19.614ZM48.447,7.959A1.265,1.265,0,0,1,47.19,6.7a1.192,1.192,0,0,1,.371-.881,1.218,1.218,0,0,1,.886-.365,1.206,1.206,0,0,1,.875.365,1.192,1.192,0,0,1,.371.881,1.209,1.209,0,0,1-.371.886A1.2,1.2,0,0,1,48.447,7.959ZM47.5,21V10.44h1.869V21Zm7.466-8.7a3.192,3.192,0,0,1,1.311-1.418,3.947,3.947,0,0,1,2.03-.559v1.751a3.479,3.479,0,0,0-2.455.784,3.276,3.276,0,0,0-.843,2.5V21H53.152V10.44h1.815Zm20.475,3.212-.021.5h-8.25a3.731,3.731,0,0,0,1.01,2.7,3.315,3.315,0,0,0,2.406.94,3.166,3.166,0,0,0,1.751-.5,3.276,3.276,0,0,0,1.2-1.4l1.676.354a4.763,4.763,0,0,1-1.8,2.267,4.924,4.924,0,0,1-2.8.827,5.1,5.1,0,0,1-3.8-1.472,5.475,5.475,0,0,1-1.45-4.018,5.448,5.448,0,0,1,1.456-4.007,5.038,5.038,0,0,1,3.744-1.472A4.767,4.767,0,0,1,74.1,11.59,5.348,5.348,0,0,1,75.442,15.511Zm-4.888-3.846a3.293,3.293,0,0,0-2.2.747,3.42,3.42,0,0,0-1.112,2.175h6.327a3.138,3.138,0,0,0-.924-2.175A2.983,2.983,0,0,0,70.555,11.665ZM78.354,21V4.5h1.88V21ZM97.528,4.5h1.858V21H97.593l-.043-2.052a3.885,3.885,0,0,1-1.5,1.665,4.191,4.191,0,0,1-2.234.612,4.8,4.8,0,0,1-3.486-1.488,5.085,5.085,0,0,1-1.063-1.746,6.386,6.386,0,0,1-.392-2.267A5.553,5.553,0,0,1,90.3,11.762a4.629,4.629,0,0,1,3.507-1.525,4.209,4.209,0,0,1,2.208.6,3.907,3.907,0,0,1,1.509,1.617ZM94.2,19.614A3.162,3.162,0,0,0,96.653,18.5a4.013,4.013,0,0,0,.994-2.777,4.005,4.005,0,0,0-1-2.771A3.16,3.16,0,0,0,94.2,11.837a3.232,3.232,0,0,0-2.471,1.08,3.972,3.972,0,0,0-1,2.809,3.972,3.972,0,0,0,1,2.809A3.232,3.232,0,0,0,94.2,19.614Zm18.208-4.1-.021.5h-8.25a3.731,3.731,0,0,0,1.01,2.7,3.315,3.315,0,0,0,2.406.94,3.166,3.166,0,0,0,1.751-.5,3.276,3.276,0,0,0,1.2-1.4l1.676.354a4.763,4.763,0,0,1-1.8,2.267,4.924,4.924,0,0,1-2.8.827,5.1,5.1,0,0,1-3.8-1.472,5.475,5.475,0,0,1-1.45-4.018,5.448,5.448,0,0,1,1.456-4.007,5.038,5.038,0,0,1,3.744-1.472,4.767,4.767,0,0,1,3.55,1.354A5.348,5.348,0,0,1,112.406,15.511Zm-4.888-3.846a3.293,3.293,0,0,0-2.2.747,3.42,3.42,0,0,0-1.112,2.175h6.327a3.138,3.138,0,0,0-.924-2.175A2.983,2.983,0,0,0,107.519,11.665Zm11.14,9.539a5.006,5.006,0,0,1-2.847-.763,3.155,3.155,0,0,1-1.386-2.17l1.622-.462a2.262,2.262,0,0,0,.865,1.466,2.805,2.805,0,0,0,1.735.521,3.462,3.462,0,0,0,1.015-.14,1.627,1.627,0,0,0,.779-.521,1.453,1.453,0,0,0,.226-1.4,1.865,1.865,0,0,0-.172-.349,1.064,1.064,0,0,0-.3-.29,3.966,3.966,0,0,0-.365-.226,3.749,3.749,0,0,0-.478-.2q-.317-.113-.51-.172t-.591-.172q-.4-.113-.612-.177a11.455,11.455,0,0,1-1.1-.387,4.805,4.805,0,0,1-.892-.51,2.053,2.053,0,0,1-.693-.833,2.817,2.817,0,0,1-.231-1.182,2.731,2.731,0,0,1,.516-1.687,2.9,2.9,0,0,1,1.337-.994,5.346,5.346,0,0,1,1.875-.306,4.588,4.588,0,0,1,2.573.688,2.934,2.934,0,0,1,1.284,2.063l-1.525.387a2.022,2.022,0,0,0-.806-1.337,2.565,2.565,0,0,0-1.515-.446,2.614,2.614,0,0,0-1.418.371,1.246,1.246,0,0,0-.591,1.133,1.128,1.128,0,0,0,.156.585,1.859,1.859,0,0,0,.317.414,1.948,1.948,0,0,0,.58.317q.419.167.623.226t.773.2q.107.032.161.043.623.161,1.015.285a6.239,6.239,0,0,1,.913.387,3.036,3.036,0,0,1,.822.575,2.662,2.662,0,0,1,.516.816,2.882,2.882,0,0,1,.215,1.139,3.075,3.075,0,0,1-.317,1.423,2.479,2.479,0,0,1-.865.972,4.182,4.182,0,0,1-1.23.532A5.86,5.86,0,0,1,118.658,21.2Zm16.049-5.693-.021.5h-8.25a3.731,3.731,0,0,0,1.01,2.7,3.315,3.315,0,0,0,2.406.94,3.166,3.166,0,0,0,1.751-.5,3.276,3.276,0,0,0,1.2-1.4l1.676.354a4.763,4.763,0,0,1-1.8,2.267,4.924,4.924,0,0,1-2.8.827,5.1,5.1,0,0,1-3.8-1.472,5.475,5.475,0,0,1-1.45-4.018,5.448,5.448,0,0,1,1.456-4.007,5.038,5.038,0,0,1,3.744-1.472,4.767,4.767,0,0,1,3.55,1.354A5.348,5.348,0,0,1,134.707,15.511Zm-4.888-3.846a3.293,3.293,0,0,0-2.2.747,3.42,3.42,0,0,0-1.112,2.175h6.327a3.138,3.138,0,0,0-.924-2.175A2.983,2.983,0,0,0,129.819,11.665Zm18.595-1.429a3.4,3.4,0,0,1,2.46.9,3.327,3.327,0,0,1,.935,2.519V21H149.95V14.136a2.386,2.386,0,0,0-.58-1.74A1.975,1.975,0,0,0,147.9,11.8a2.085,2.085,0,0,0-1.611.666,2.864,2.864,0,0,0-.612,2V21h-1.891V14.211a2.5,2.5,0,0,0-.585-1.8,1.991,1.991,0,0,0-1.5-.607,2.066,2.066,0,0,0-1.606.682,2.963,2.963,0,0,0-.618,2.046V21h-1.858V10.44h1.858V11.8a3.208,3.208,0,0,1,1.208-1.16,3.446,3.446,0,0,1,1.681-.408,3.587,3.587,0,0,1,1.8.446,2.775,2.775,0,0,1,1.171,1.284,3.286,3.286,0,0,1,1.268-1.284A3.626,3.626,0,0,1,148.414,10.236Zm12.568,0a4.8,4.8,0,0,1,1.912.387,4.7,4.7,0,0,1,1.568,1.085,5.071,5.071,0,0,1,1.058,1.74,6.417,6.417,0,0,1,.392,2.277,5.583,5.583,0,0,1-1.423,3.985,4.623,4.623,0,0,1-3.507,1.515,4.18,4.18,0,0,1-2.208-.6A3.943,3.943,0,0,1,157.266,19v7.315h-1.858V10.44H157.2l.043,2.052a3.865,3.865,0,0,1,1.5-1.649A4.219,4.219,0,0,1,160.982,10.236Zm-.365,9.378a3.206,3.206,0,0,0,2.444-1.069,3.976,3.976,0,0,0,.994-2.82,3.956,3.956,0,0,0-.994-2.814,3.332,3.332,0,0,0-4.925.048,3.96,3.96,0,0,0-1.01,2.766,3.975,3.975,0,0,0,1.01,2.777A3.222,3.222,0,0,0,160.617,19.614Zm17.467-4.1-.021.5h-8.25a3.731,3.731,0,0,0,1.01,2.7,3.315,3.315,0,0,0,2.406.94,3.166,3.166,0,0,0,1.751-.5,3.276,3.276,0,0,0,1.2-1.4l1.676.354a4.763,4.763,0,0,1-1.8,2.267,4.924,4.924,0,0,1-2.8.827,5.1,5.1,0,0,1-3.8-1.472A5.475,5.475,0,0,1,168,15.715a5.448,5.448,0,0,1,1.456-4.007,5.038,5.038,0,0,1,3.744-1.472,4.767,4.767,0,0,1,3.55,1.354A5.348,5.348,0,0,1,178.084,15.511ZM173.2,11.665a3.293,3.293,0,0,0-2.2.747,3.42,3.42,0,0,0-1.112,2.175h6.327a3.138,3.138,0,0,0-.924-2.175A2.983,2.983,0,0,0,173.2,11.665ZM183.96,7.121a.782.782,0,0,0-.693.4,1.919,1.919,0,0,0-.252,1.042h-1.031a2.834,2.834,0,0,1,.526-1.772,1.693,1.693,0,0,1,1.418-.687,1.947,1.947,0,0,1,1.74,1.053.99.99,0,0,0,.881.526.777.777,0,0,0,.688-.381,1.889,1.889,0,0,0,.247-1.037h1.042A2.821,2.821,0,0,1,188,8.018a1.689,1.689,0,0,1-1.418.693,2,2,0,0,1-1.762-1.042A1.037,1.037,0,0,0,183.96,7.121Zm2.02,3.115a3.673,3.673,0,0,1,2.659.956,3.566,3.566,0,0,1,.994,2.7V21h-1.858V14.308a2.5,2.5,0,0,0-.645-1.891,2.3,2.3,0,0,0-1.654-.612,2.555,2.555,0,0,0-1.88.725,2.942,2.942,0,0,0-.741,2.154V21H181V10.44h1.858v1.354A3.526,3.526,0,0,1,185.979,10.236ZM197.667,21.2a5.566,5.566,0,0,1-2.707-.655,4.771,4.771,0,0,1-1.907-1.917,5.89,5.89,0,0,1-.7-2.917,5.38,5.38,0,0,1,1.5-3.98,5.622,5.622,0,0,1,7.643,0,5.39,5.39,0,0,1,1.493,3.98,5.394,5.394,0,0,1-1.5,3.991A5.173,5.173,0,0,1,197.667,21.2Zm-.011-1.547a3.243,3.243,0,0,0,2.5-1.085,4.065,4.065,0,0,0,.994-2.857,4.05,4.05,0,0,0-.994-2.847,3.243,3.243,0,0,0-2.5-1.085,3.2,3.2,0,0,0-2.476,1.085,4.077,4.077,0,0,0-.983,2.847,4.092,4.092,0,0,0,.983,2.857A3.2,3.2,0,0,0,197.656,19.657Z" transform="translate(887 5632)" fill="#fff"/>
    <path id="Trazado_35889" data-name="Trazado 35889" d="M2070.891,4202.7h96.578" transform="translate(-1374 1296)" fill="none" stroke="#000" stroke-width="2"/>
    <path id="Trazado_36807" data-name="Trazado 36807" d="M12,0,24,21H0Z" transform="translate(782.358 5492.407) rotate(-30)" fill="#212020"/>
    <path id="Trazado_35890" data-name="Trazado 35890" d="M1910.036,3933.021v-64.245" transform="translate(2919 8969.021) rotate(180)" fill="none" stroke="#2c2c2c" stroke-width="2"/>
    <path id="Trazado_36802" data-name="Trazado 36802" d="M12,0,24,21H0Z" transform="translate(1021 5111.021) rotate(180)" fill="#212020"/>
    <path id="Trazado_35891" data-name="Trazado 35891" d="M1910.036,3933.021v-64.245" transform="translate(2919 9145.021) rotate(180)" fill="none" stroke="#2c2c2c" stroke-width="2"/>
    <path id="Trazado_36803" data-name="Trazado 36803" d="M12,0,24,21H0Z" transform="translate(1021 5287.021) rotate(180)" fill="#212020"/>
    <path id="Trazado_35892" data-name="Trazado 35892" d="M1910.036,3900.776v-32" transform="translate(2919 9296.776) rotate(180)" fill="none" stroke="#2c2c2c" stroke-width="2"/>
    <path id="Trazado_36804" data-name="Trazado 36804" d="M12,0,24,21H0Z" transform="translate(1021 5446.021) rotate(180)" fill="#212020"/>
    <path id="Trazado_35893" data-name="Trazado 35893" d="M1910.036,3900.776v-32" transform="translate(2919 9439.776) rotate(180)" fill="none" stroke="#2c2c2c" stroke-width="2"/>
    <path id="Trazado_36810" data-name="Trazado 36810" d="M12,0,24,21H0Z" transform="translate(1021 5589.021) rotate(180)" fill="#212020"/>
    <path id="Trazado_35894" data-name="Trazado 35894" d="M2382.963,4399v61.57h264.419V3687.945h-72.828" transform="translate(-1374 1296)" fill="none" stroke="#050505" stroke-width="2"/>
    <path id="Trazado_36808" data-name="Trazado 36808" d="M12,0,24,21H0Z" transform="translate(1183.5 4995.5) rotate(-90)" fill="#212020"/>
    <path id="Trazado_35895" data-name="Trazado 35895" d="M2036,4496.211h667.383" transform="translate(-1374 1296)" fill="none" stroke="#0b0b0b" stroke-width="2" stroke-dasharray="6"/>
    <path id="Trazado_35896" data-name="Trazado 35896" d="M2717.273,4496.211V3988.922" transform="translate(-1381 1298)" fill="none" stroke="#000" stroke-width="2"/>
    <path id="Trazado_35897" data-name="Trazado 35897" d="M2036,4496.211h667.383" transform="translate(-1374 791)" fill="none" stroke="#0b0b0b" stroke-width="2" stroke-dasharray="6"/>
    <path id="Trazado_35898" data-name="Trazado 35898" d="M2070.891,4202.7h79.492" transform="translate(-877 1149)" fill="none" stroke="#000" stroke-width="2"/>
    <path id="Trazado_36809" data-name="Trazado 36809" d="M12,0,24,21H0Z" transform="translate(1209.643 5357.594) rotate(150)" fill="#212020"/>
  </g>
</svg>
