<svg xmlns="http://www.w3.org/2000/svg" width="1007" height="666" viewBox="0 0 1007 666">
  <g id="Grupo_17676" data-name="Grupo 17676" transform="translate(-422 -7929)">
    <path id="Trazado_36838" data-name="Trazado 36838" d="M0,0H240V180H0Z" transform="translate(422 8186)" fill="#472ea6"/>
    <path id="Trazado_36840" data-name="Trazado 36840" d="M2.374,0V-15.125H4.3V0ZM13.546-10.764a3.673,3.673,0,0,1,2.659.956,3.566,3.566,0,0,1,.994,2.7V0H15.34V-6.692A2.5,2.5,0,0,0,14.7-8.583,2.3,2.3,0,0,0,13.041-9.2a2.555,2.555,0,0,0-1.88.725,2.942,2.942,0,0,0-.741,2.154V0H8.562V-10.56H10.42v1.354A3.526,3.526,0,0,1,13.546-10.764Zm13.471.2H29L24.707,0H23.128L18.853-10.56h1.977l3.094,8.4Zm13.009,5.07-.021.5h-8.25a3.731,3.731,0,0,0,1.01,2.7,3.315,3.315,0,0,0,2.406.94,3.166,3.166,0,0,0,1.751-.5,3.276,3.276,0,0,0,1.2-1.4L39.8-2.89A4.763,4.763,0,0,1,38-.623a4.924,4.924,0,0,1-2.8.827,5.1,5.1,0,0,1-3.8-1.472,5.475,5.475,0,0,1-1.45-4.018,5.448,5.448,0,0,1,1.456-4.007,5.038,5.038,0,0,1,3.744-1.472,4.767,4.767,0,0,1,3.55,1.354A5.348,5.348,0,0,1,40.025-5.489ZM35.138-9.335a3.293,3.293,0,0,0-2.2.747,3.42,3.42,0,0,0-1.112,2.175h6.327a3.138,3.138,0,0,0-.924-2.175A2.983,2.983,0,0,0,35.138-9.335ZM46.277.2a5.006,5.006,0,0,1-2.847-.763,3.155,3.155,0,0,1-1.386-2.17l1.622-.462a2.262,2.262,0,0,0,.865,1.466,2.805,2.805,0,0,0,1.735.521,3.462,3.462,0,0,0,1.015-.14,1.627,1.627,0,0,0,.779-.521,1.4,1.4,0,0,0,.312-.961,1.4,1.4,0,0,0-.086-.435,1.865,1.865,0,0,0-.172-.349,1.064,1.064,0,0,0-.3-.29,3.966,3.966,0,0,0-.365-.226,3.749,3.749,0,0,0-.478-.2q-.317-.113-.51-.172t-.591-.172q-.4-.113-.612-.177a11.454,11.454,0,0,1-1.1-.387,4.805,4.805,0,0,1-.892-.51,2.053,2.053,0,0,1-.693-.833,2.817,2.817,0,0,1-.231-1.182,2.731,2.731,0,0,1,.516-1.687,2.9,2.9,0,0,1,1.337-.994,5.346,5.346,0,0,1,1.875-.306,4.588,4.588,0,0,1,2.573.688A2.934,2.934,0,0,1,49.93-7.992L48.4-7.605A2.022,2.022,0,0,0,47.6-8.943a2.565,2.565,0,0,0-1.515-.446,2.614,2.614,0,0,0-1.418.371,1.246,1.246,0,0,0-.591,1.133,1.128,1.128,0,0,0,.156.585,1.859,1.859,0,0,0,.317.414,1.948,1.948,0,0,0,.58.317q.419.167.623.226t.773.2q.107.032.161.043.623.161,1.015.285a6.24,6.24,0,0,1,.913.387,3.036,3.036,0,0,1,.822.575,2.663,2.663,0,0,1,.516.816A2.882,2.882,0,0,1,50.166-2.9a3.075,3.075,0,0,1-.317,1.423,2.479,2.479,0,0,1-.865.972,4.182,4.182,0,0,1-1.23.532A5.86,5.86,0,0,1,46.277.2ZM56.461,0A2.776,2.776,0,0,1,54.4-.757a2.865,2.865,0,0,1-.752-2.111V-9.077H51.487V-10.56h.795a1.526,1.526,0,0,0,1.166-.371,1.824,1.824,0,0,0,.338-1.241v-1.912h1.729v3.523h2.428v1.482H55.516v6.016a1.6,1.6,0,0,0,.4,1.166,1.411,1.411,0,0,0,1.058.414h.967V0Zm5.113-13.041a1.209,1.209,0,0,1-.886-.371,1.209,1.209,0,0,1-.371-.886,1.192,1.192,0,0,1,.371-.881,1.218,1.218,0,0,1,.886-.365,1.206,1.206,0,0,1,.875.365,1.192,1.192,0,0,1,.371.881,1.209,1.209,0,0,1-.371.886A1.2,1.2,0,0,1,61.574-13.041ZM60.629,0V-10.56H62.5V0Zm13.3-10.56h1.8V-.537a5.752,5.752,0,0,1-1.364,4.114,4.959,4.959,0,0,1-3.781,1.439,4.992,4.992,0,0,1-5.124-3.233L67,1.031A3.491,3.491,0,0,0,70.533,3.47a3.031,3.031,0,0,0,2.476-1.031A4.389,4.389,0,0,0,73.863-.44V-2.4a3.721,3.721,0,0,1-1.5,1.52,4.376,4.376,0,0,1-2.2.575,4.527,4.527,0,0,1-3.416-1.488,5.247,5.247,0,0,1-1.407-3.754,5.2,5.2,0,0,1,1.413-3.744,4.572,4.572,0,0,1,3.432-1.477,4.266,4.266,0,0,1,2.213.591,3.8,3.8,0,0,1,1.493,1.558ZM70.576-1.88a3.2,3.2,0,0,0,2.433-1.085,3.666,3.666,0,0,0,1-2.578,3.691,3.691,0,0,0-1-2.589,3.189,3.189,0,0,0-2.438-1.085,3.217,3.217,0,0,0-2.433,1.053,3.671,3.671,0,0,0-.994,2.621,3.64,3.64,0,0,0,1,2.6A3.219,3.219,0,0,0,70.576-1.88ZM81.952.2a3.593,3.593,0,0,1-2.315-.725,2.6,2.6,0,0,1-.908-2.165,3.076,3.076,0,0,1,.29-1.38,2.434,2.434,0,0,1,.859-.961,5.155,5.155,0,0,1,1.241-.6A11.469,11.469,0,0,1,82.726-6l1.708-.279q.935-.172.935-.978a1.845,1.845,0,0,0-.661-1.574,2.692,2.692,0,0,0-1.67-.5,2.742,2.742,0,0,0-1.654.483A2.023,2.023,0,0,0,80.6-7.369l-1.676-.354a3.225,3.225,0,0,1,1.321-2.261,4.937,4.937,0,0,1,2.879-.757,5.839,5.839,0,0,1,1.531.188,4.16,4.16,0,0,1,1.278.591,2.65,2.65,0,0,1,.913,1.139,4.237,4.237,0,0,1,.328,1.735v4.361a1.784,1.784,0,0,0,.242,1.1,1.043,1.043,0,0,0,.833.285h.172V0H87.5a1.762,1.762,0,0,1-2-1.429h-.086A4.035,4.035,0,0,1,81.952.2Zm.43-1.5A2.818,2.818,0,0,0,84.648-2.32a4.2,4.2,0,0,0,.859-2.793l-2.793.537a3.76,3.76,0,0,0-1.638.585,1.362,1.362,0,0,0-.532,1.155,1.346,1.346,0,0,0,.51,1.16A2.181,2.181,0,0,0,82.382-1.3ZM95.208.193a5.086,5.086,0,0,1-3.781-1.515,5.4,5.4,0,0,1-1.493-3.964,5.414,5.414,0,0,1,1.488-3.964,5.081,5.081,0,0,1,3.787-1.515,5.123,5.123,0,0,1,3.056.924,4.662,4.662,0,0,1,1.778,2.567l-1.74.279a3.214,3.214,0,0,0-1.192-1.644,3.247,3.247,0,0,0-1.912-.58,3.122,3.122,0,0,0-2.444,1.085,4.133,4.133,0,0,0-.961,2.847,4.113,4.113,0,0,0,.961,2.841A3.129,3.129,0,0,0,95.2-1.364a3.247,3.247,0,0,0,1.912-.58A3.214,3.214,0,0,0,98.3-3.588l1.74.29A4.668,4.668,0,0,1,98.253-.736,5.115,5.115,0,0,1,95.208.193Zm8.519-13.234a1.209,1.209,0,0,1-.886-.371,1.209,1.209,0,0,1-.371-.886,1.192,1.192,0,0,1,.371-.881,1.218,1.218,0,0,1,.886-.365,1.206,1.206,0,0,1,.875.365,1.192,1.192,0,0,1,.371.881,1.209,1.209,0,0,1-.371.886A1.2,1.2,0,0,1,103.727-13.041ZM102.781,0V-10.56h1.869V0Zm9.389-12.375,2.7-3.5.988.72-2.406,2.782ZM112.879.2a5.566,5.566,0,0,1-2.707-.655,4.771,4.771,0,0,1-1.907-1.917,5.89,5.89,0,0,1-.7-2.917,5.38,5.38,0,0,1,1.5-3.98,5.173,5.173,0,0,1,3.819-1.5,5.168,5.168,0,0,1,3.824,1.5,5.39,5.39,0,0,1,1.493,3.98,5.394,5.394,0,0,1-1.5,3.991A5.173,5.173,0,0,1,112.879.2Zm-.011-1.547a3.243,3.243,0,0,0,2.5-1.085,4.065,4.065,0,0,0,.994-2.857,4.05,4.05,0,0,0-.994-2.847,3.243,3.243,0,0,0-2.5-1.085,3.2,3.2,0,0,0-2.476,1.085,4.077,4.077,0,0,0-.983,2.847,4.092,4.092,0,0,0,.983,2.857A3.2,3.2,0,0,0,112.868-1.343Zm13.224-9.421a3.673,3.673,0,0,1,2.659.956,3.566,3.566,0,0,1,.994,2.7V0h-1.858V-6.692a2.5,2.5,0,0,0-.645-1.891,2.3,2.3,0,0,0-1.654-.612,2.555,2.555,0,0,0-1.88.725,2.942,2.942,0,0,0-.741,2.154V0h-1.858V-10.56h1.858v1.354A3.526,3.526,0,0,1,126.092-10.764ZM8.852,25.2a8.035,8.035,0,0,1-2.976-.542,7.186,7.186,0,0,1-2.39-1.525A6.8,6.8,0,0,1,1.9,20.682a8.877,8.877,0,0,1-.575-3.255,8.732,8.732,0,0,1,.58-3.239,6.791,6.791,0,0,1,3.975-3.98,8.107,8.107,0,0,1,2.976-.537,7.684,7.684,0,0,1,4.023,1.063,6.626,6.626,0,0,1,2.659,2.954l-1.772.73a4.98,4.98,0,0,0-1.982-2.154,5.688,5.688,0,0,0-2.927-.757,6.015,6.015,0,0,0-2.2.4,5.277,5.277,0,0,0-1.783,1.139,5.141,5.141,0,0,0-1.2,1.869,6.935,6.935,0,0,0-.435,2.514,6.978,6.978,0,0,0,.435,2.519,5.133,5.133,0,0,0,1.2,1.875,5.346,5.346,0,0,0,1.783,1.144,5.944,5.944,0,0,0,2.2.4,5.688,5.688,0,0,0,2.927-.757,4.993,4.993,0,0,0,1.982-2.143l1.772.72a6.592,6.592,0,0,1-2.653,2.959A7.706,7.706,0,0,1,8.852,25.2Zm13.943,0a5.566,5.566,0,0,1-2.707-.655,4.771,4.771,0,0,1-1.907-1.917,5.89,5.89,0,0,1-.7-2.917,5.38,5.38,0,0,1,1.5-3.98,5.173,5.173,0,0,1,3.819-1.5,5.168,5.168,0,0,1,3.824,1.5,5.39,5.39,0,0,1,1.493,3.98,5.394,5.394,0,0,1-1.5,3.991A5.173,5.173,0,0,1,22.795,25.2Zm-.011-1.547a3.243,3.243,0,0,0,2.5-1.085,4.065,4.065,0,0,0,.994-2.857,4.05,4.05,0,0,0-.994-2.847,3.243,3.243,0,0,0-2.5-1.085,3.2,3.2,0,0,0-2.476,1.085,4.077,4.077,0,0,0-.983,2.847,4.092,4.092,0,0,0,.983,2.857A3.2,3.2,0,0,0,22.784,23.657Zm13.224-9.421a3.673,3.673,0,0,1,2.659.956,3.566,3.566,0,0,1,.994,2.7V25H37.8V18.308a2.5,2.5,0,0,0-.645-1.891A2.3,2.3,0,0,0,35.5,15.8a2.555,2.555,0,0,0-1.88.725,2.942,2.942,0,0,0-.741,2.154V25H31.023V14.44h1.858v1.354A3.526,3.526,0,0,1,36.008,14.236ZM47.631,25.193a5.086,5.086,0,0,1-3.781-1.515,5.4,5.4,0,0,1-1.493-3.964,5.414,5.414,0,0,1,1.488-3.964,5.5,5.5,0,0,1,6.843-.591,4.662,4.662,0,0,1,1.778,2.567l-1.74.279a3.214,3.214,0,0,0-1.192-1.644,3.247,3.247,0,0,0-1.912-.58,3.122,3.122,0,0,0-2.444,1.085,4.133,4.133,0,0,0-.961,2.847,4.113,4.113,0,0,0,.961,2.841,3.129,3.129,0,0,0,2.444,1.08,3.247,3.247,0,0,0,1.912-.58,3.214,3.214,0,0,0,1.192-1.644l1.74.29a4.668,4.668,0,0,1-1.789,2.562A5.115,5.115,0,0,1,47.631,25.193ZM55.2,25V8.5h1.88V25ZM67.439,14.44H69.3V25H67.515l-.043-1.4a3.3,3.3,0,0,1-1.311,1.187,4.031,4.031,0,0,1-1.848.414,3.673,3.673,0,0,1-2.659-.956,3.566,3.566,0,0,1-.994-2.7V14.44H62.52v6.692a2.506,2.506,0,0,0,.65,1.891,2.3,2.3,0,0,0,1.66.623,2.527,2.527,0,0,0,1.875-.73,2.975,2.975,0,0,0,.736-2.159Zm12.149,0h1.966L75.442,29.974H73.52l2.116-5.231-4.1-10.3h2.063l2.976,8.218Zm13.02,5.07-.021.5h-8.25a3.731,3.731,0,0,0,1.01,2.7,3.315,3.315,0,0,0,2.406.94,3.166,3.166,0,0,0,1.751-.5,3.276,3.276,0,0,0,1.2-1.4l1.676.354a4.763,4.763,0,0,1-1.8,2.267,4.924,4.924,0,0,1-2.8.827,5.1,5.1,0,0,1-3.8-1.472,5.475,5.475,0,0,1-1.45-4.018,5.448,5.448,0,0,1,1.456-4.007,5.038,5.038,0,0,1,3.744-1.472,4.767,4.767,0,0,1,3.55,1.354A5.348,5.348,0,0,1,92.608,19.511Zm-4.888-3.846a3.293,3.293,0,0,0-2.2.747,3.42,3.42,0,0,0-1.112,2.175h6.327a3.138,3.138,0,0,0-.924-2.175A2.983,2.983,0,0,0,87.721,15.665ZM100.5,14.236a3.673,3.673,0,0,1,2.659.956,3.566,3.566,0,0,1,.994,2.7V25H102.3V18.308a2.5,2.5,0,0,0-.645-1.891A2.3,2.3,0,0,0,100,15.8a2.555,2.555,0,0,0-1.88.725,2.942,2.942,0,0,0-.741,2.154V25H95.52V14.44h1.858v1.354A3.526,3.526,0,0,1,100.5,14.236ZM111.117,25a2.776,2.776,0,0,1-2.062-.757,2.865,2.865,0,0,1-.752-2.111V15.923h-2.159V14.44h.795a1.526,1.526,0,0,0,1.166-.371,1.824,1.824,0,0,0,.338-1.241V10.917h1.729V14.44H112.6v1.482h-2.428v6.016a1.6,1.6,0,0,0,.4,1.166,1.411,1.411,0,0,0,1.058.414h.967V25Zm13.277-5.489-.021.5h-8.25a3.731,3.731,0,0,0,1.01,2.7,3.315,3.315,0,0,0,2.406.94,3.166,3.166,0,0,0,1.751-.5,3.276,3.276,0,0,0,1.2-1.4l1.676.354a4.763,4.763,0,0,1-1.8,2.267,4.924,4.924,0,0,1-2.8.827,5.1,5.1,0,0,1-3.8-1.472,5.475,5.475,0,0,1-1.45-4.018,5.448,5.448,0,0,1,1.456-4.007,5.038,5.038,0,0,1,3.744-1.472,4.767,4.767,0,0,1,3.55,1.354A5.348,5.348,0,0,1,124.395,19.511Zm-4.888-3.846a3.293,3.293,0,0,0-2.2.747,3.42,3.42,0,0,0-1.112,2.175h6.327a3.138,3.138,0,0,0-.924-2.175A2.983,2.983,0,0,0,119.507,15.665Z" transform="translate(452 8260)" fill="#fff"/>
    <path id="Trazado_35912" data-name="Trazado 35912" d="M2036,6948.854l235.193-235.66" transform="translate(-1374 1316.646)" fill="none" stroke="#ff8f00" stroke-width="2"/>
    <path id="Trazado_35913" data-name="Trazado 35913" d="M2036,6713.193,2276,6950.5" transform="translate(-1374 1552)" fill="none" stroke="#ff8f00" stroke-width="2"/>
    <path id="Trazado_36841" data-name="Trazado 36841" d="M0,0H511V271H0Z" transform="translate(918 7929)" fill="#ff8f00"/>
    <path id="Trazado_36842" data-name="Trazado 36842" d="M2.374,0V-15.125H4.3V0ZM13.546-10.764a3.673,3.673,0,0,1,2.659.956,3.566,3.566,0,0,1,.994,2.7V0H15.34V-6.692A2.5,2.5,0,0,0,14.7-8.583,2.3,2.3,0,0,0,13.041-9.2a2.555,2.555,0,0,0-1.88.725,2.942,2.942,0,0,0-.741,2.154V0H8.562V-10.56H10.42v1.354A3.526,3.526,0,0,1,13.546-10.764Zm13.471.2H29L24.707,0H23.128L18.853-10.56h1.977l3.094,8.4Zm13.009,5.07-.021.5h-8.25a3.731,3.731,0,0,0,1.01,2.7,3.315,3.315,0,0,0,2.406.94,3.166,3.166,0,0,0,1.751-.5,3.276,3.276,0,0,0,1.2-1.4L39.8-2.89A4.763,4.763,0,0,1,38-.623a4.924,4.924,0,0,1-2.8.827,5.1,5.1,0,0,1-3.8-1.472,5.475,5.475,0,0,1-1.45-4.018,5.448,5.448,0,0,1,1.456-4.007,5.038,5.038,0,0,1,3.744-1.472,4.767,4.767,0,0,1,3.55,1.354A5.348,5.348,0,0,1,40.025-5.489ZM35.138-9.335a3.293,3.293,0,0,0-2.2.747,3.42,3.42,0,0,0-1.112,2.175h6.327a3.138,3.138,0,0,0-.924-2.175A2.983,2.983,0,0,0,35.138-9.335ZM46.277.2a5.006,5.006,0,0,1-2.847-.763,3.155,3.155,0,0,1-1.386-2.17l1.622-.462a2.262,2.262,0,0,0,.865,1.466,2.805,2.805,0,0,0,1.735.521,3.462,3.462,0,0,0,1.015-.14,1.627,1.627,0,0,0,.779-.521,1.4,1.4,0,0,0,.312-.961,1.4,1.4,0,0,0-.086-.435,1.865,1.865,0,0,0-.172-.349,1.064,1.064,0,0,0-.3-.29,3.966,3.966,0,0,0-.365-.226,3.749,3.749,0,0,0-.478-.2q-.317-.113-.51-.172t-.591-.172q-.4-.113-.612-.177a11.454,11.454,0,0,1-1.1-.387,4.805,4.805,0,0,1-.892-.51,2.053,2.053,0,0,1-.693-.833,2.817,2.817,0,0,1-.231-1.182,2.731,2.731,0,0,1,.516-1.687,2.9,2.9,0,0,1,1.337-.994,5.346,5.346,0,0,1,1.875-.306,4.588,4.588,0,0,1,2.573.688A2.934,2.934,0,0,1,49.93-7.992L48.4-7.605A2.022,2.022,0,0,0,47.6-8.943a2.565,2.565,0,0,0-1.515-.446,2.614,2.614,0,0,0-1.418.371,1.246,1.246,0,0,0-.591,1.133,1.128,1.128,0,0,0,.156.585,1.859,1.859,0,0,0,.317.414,1.948,1.948,0,0,0,.58.317q.419.167.623.226t.773.2q.107.032.161.043.623.161,1.015.285a6.24,6.24,0,0,1,.913.387,3.036,3.036,0,0,1,.822.575,2.663,2.663,0,0,1,.516.816A2.882,2.882,0,0,1,50.166-2.9a3.075,3.075,0,0,1-.317,1.423,2.479,2.479,0,0,1-.865.972,4.182,4.182,0,0,1-1.23.532A5.86,5.86,0,0,1,46.277.2ZM56.461,0A2.776,2.776,0,0,1,54.4-.757a2.865,2.865,0,0,1-.752-2.111V-9.077H51.487V-10.56h.795a1.526,1.526,0,0,0,1.166-.371,1.824,1.824,0,0,0,.338-1.241v-1.912h1.729v3.523h2.428v1.482H55.516v6.016a1.6,1.6,0,0,0,.4,1.166,1.411,1.411,0,0,0,1.058.414h.967V0Zm5.113-13.041a1.209,1.209,0,0,1-.886-.371,1.209,1.209,0,0,1-.371-.886,1.192,1.192,0,0,1,.371-.881,1.218,1.218,0,0,1,.886-.365,1.206,1.206,0,0,1,.875.365,1.192,1.192,0,0,1,.371.881,1.209,1.209,0,0,1-.371.886A1.2,1.2,0,0,1,61.574-13.041ZM60.629,0V-10.56H62.5V0Zm13.3-10.56h1.8V-.537a5.752,5.752,0,0,1-1.364,4.114,4.959,4.959,0,0,1-3.781,1.439,4.992,4.992,0,0,1-5.124-3.233L67,1.031A3.491,3.491,0,0,0,70.533,3.47a3.031,3.031,0,0,0,2.476-1.031A4.389,4.389,0,0,0,73.863-.44V-2.4a3.721,3.721,0,0,1-1.5,1.52,4.376,4.376,0,0,1-2.2.575,4.527,4.527,0,0,1-3.416-1.488,5.247,5.247,0,0,1-1.407-3.754,5.2,5.2,0,0,1,1.413-3.744,4.572,4.572,0,0,1,3.432-1.477,4.266,4.266,0,0,1,2.213.591,3.8,3.8,0,0,1,1.493,1.558ZM70.576-1.88a3.2,3.2,0,0,0,2.433-1.085,3.666,3.666,0,0,0,1-2.578,3.691,3.691,0,0,0-1-2.589,3.189,3.189,0,0,0-2.438-1.085,3.217,3.217,0,0,0-2.433,1.053,3.671,3.671,0,0,0-.994,2.621,3.64,3.64,0,0,0,1,2.6A3.219,3.219,0,0,0,70.576-1.88ZM81.952.2a3.593,3.593,0,0,1-2.315-.725,2.6,2.6,0,0,1-.908-2.165,3.076,3.076,0,0,1,.29-1.38,2.434,2.434,0,0,1,.859-.961,5.155,5.155,0,0,1,1.241-.6A11.469,11.469,0,0,1,82.726-6l1.708-.279q.935-.172.935-.978a1.845,1.845,0,0,0-.661-1.574,2.692,2.692,0,0,0-1.67-.5,2.742,2.742,0,0,0-1.654.483A2.023,2.023,0,0,0,80.6-7.369l-1.676-.354a3.225,3.225,0,0,1,1.321-2.261,4.937,4.937,0,0,1,2.879-.757,5.839,5.839,0,0,1,1.531.188,4.16,4.16,0,0,1,1.278.591,2.65,2.65,0,0,1,.913,1.139,4.237,4.237,0,0,1,.328,1.735v4.361a1.784,1.784,0,0,0,.242,1.1,1.043,1.043,0,0,0,.833.285h.172V0H87.5a1.762,1.762,0,0,1-2-1.429h-.086A4.035,4.035,0,0,1,81.952.2Zm.43-1.5A2.818,2.818,0,0,0,84.648-2.32a4.2,4.2,0,0,0,.859-2.793l-2.793.537a3.76,3.76,0,0,0-1.638.585,1.362,1.362,0,0,0-.532,1.155,1.346,1.346,0,0,0,.51,1.16A2.181,2.181,0,0,0,82.382-1.3ZM95.208.193a5.086,5.086,0,0,1-3.781-1.515,5.4,5.4,0,0,1-1.493-3.964,5.414,5.414,0,0,1,1.488-3.964,5.081,5.081,0,0,1,3.787-1.515,5.123,5.123,0,0,1,3.056.924,4.662,4.662,0,0,1,1.778,2.567l-1.74.279a3.214,3.214,0,0,0-1.192-1.644,3.247,3.247,0,0,0-1.912-.58,3.122,3.122,0,0,0-2.444,1.085,4.133,4.133,0,0,0-.961,2.847,4.113,4.113,0,0,0,.961,2.841A3.129,3.129,0,0,0,95.2-1.364a3.247,3.247,0,0,0,1.912-.58A3.214,3.214,0,0,0,98.3-3.588l1.74.29A4.668,4.668,0,0,1,98.253-.736,5.115,5.115,0,0,1,95.208.193Zm8.519-13.234a1.209,1.209,0,0,1-.886-.371,1.209,1.209,0,0,1-.371-.886,1.192,1.192,0,0,1,.371-.881,1.218,1.218,0,0,1,.886-.365,1.206,1.206,0,0,1,.875.365,1.192,1.192,0,0,1,.371.881,1.209,1.209,0,0,1-.371.886A1.2,1.2,0,0,1,103.727-13.041ZM102.781,0V-10.56h1.869V0Zm9.389-12.375,2.7-3.5.988.72-2.406,2.782ZM112.879.2a5.566,5.566,0,0,1-2.707-.655,4.771,4.771,0,0,1-1.907-1.917,5.89,5.89,0,0,1-.7-2.917,5.38,5.38,0,0,1,1.5-3.98,5.173,5.173,0,0,1,3.819-1.5,5.168,5.168,0,0,1,3.824,1.5,5.39,5.39,0,0,1,1.493,3.98,5.394,5.394,0,0,1-1.5,3.991A5.173,5.173,0,0,1,112.879.2Zm-.011-1.547a3.243,3.243,0,0,0,2.5-1.085,4.065,4.065,0,0,0,.994-2.857,4.05,4.05,0,0,0-.994-2.847,3.243,3.243,0,0,0-2.5-1.085,3.2,3.2,0,0,0-2.476,1.085,4.077,4.077,0,0,0-.983,2.847,4.092,4.092,0,0,0,.983,2.857A3.2,3.2,0,0,0,112.868-1.343Zm13.224-9.421a3.673,3.673,0,0,1,2.659.956,3.566,3.566,0,0,1,.994,2.7V0h-1.858V-6.692a2.5,2.5,0,0,0-.645-1.891,2.3,2.3,0,0,0-1.654-.612,2.555,2.555,0,0,0-1.88.725,2.942,2.942,0,0,0-.741,2.154V0h-1.858V-10.56h1.858v1.354A3.526,3.526,0,0,1,126.092-10.764ZM146.846-16.5H148.7V0H146.91l-.043-2.052a3.885,3.885,0,0,1-1.5,1.665,4.191,4.191,0,0,1-2.234.612,4.746,4.746,0,0,1-1.912-.392,4.792,4.792,0,0,1-1.574-1.1,5.085,5.085,0,0,1-1.063-1.746,6.385,6.385,0,0,1-.392-2.267,5.553,5.553,0,0,1,1.434-3.964,4.629,4.629,0,0,1,3.507-1.525,4.209,4.209,0,0,1,2.208.6,3.908,3.908,0,0,1,1.509,1.617Zm-3.33,15.114A3.162,3.162,0,0,0,145.97-2.5a4.013,4.013,0,0,0,.994-2.777,4.005,4.005,0,0,0-1-2.771,3.16,3.16,0,0,0-2.449-1.117,3.232,3.232,0,0,0-2.471,1.08,3.972,3.972,0,0,0-1,2.809,3.972,3.972,0,0,0,1,2.809A3.232,3.232,0,0,0,143.516-1.386Zm18.208-4.1-.021.5h-8.25a3.731,3.731,0,0,0,1.01,2.7,3.315,3.315,0,0,0,2.406.94,3.166,3.166,0,0,0,1.751-.5,3.276,3.276,0,0,0,1.2-1.4l1.676.354a4.763,4.763,0,0,1-1.8,2.267,4.924,4.924,0,0,1-2.8.827,5.1,5.1,0,0,1-3.8-1.472,5.475,5.475,0,0,1-1.45-4.018,5.448,5.448,0,0,1,1.456-4.007,5.038,5.038,0,0,1,3.744-1.472,4.767,4.767,0,0,1,3.55,1.354A5.348,5.348,0,0,1,161.724-5.489Zm-4.888-3.846a3.293,3.293,0,0,0-2.2.747,3.42,3.42,0,0,0-1.112,2.175h6.327a3.138,3.138,0,0,0-.924-2.175A2.983,2.983,0,0,0,156.836-9.335ZM167.976.2a5.006,5.006,0,0,1-2.847-.763,3.155,3.155,0,0,1-1.386-2.17l1.622-.462a2.262,2.262,0,0,0,.865,1.466,2.805,2.805,0,0,0,1.735.521,3.462,3.462,0,0,0,1.015-.14,1.627,1.627,0,0,0,.779-.521,1.4,1.4,0,0,0,.312-.961,1.4,1.4,0,0,0-.086-.435,1.865,1.865,0,0,0-.172-.349,1.064,1.064,0,0,0-.3-.29,3.965,3.965,0,0,0-.365-.226,3.749,3.749,0,0,0-.478-.2q-.317-.113-.51-.172t-.591-.172q-.4-.113-.612-.177a11.453,11.453,0,0,1-1.1-.387,4.805,4.805,0,0,1-.892-.51,2.053,2.053,0,0,1-.693-.833,2.817,2.817,0,0,1-.231-1.182,2.731,2.731,0,0,1,.516-1.687,2.9,2.9,0,0,1,1.337-.994,5.346,5.346,0,0,1,1.875-.306,4.588,4.588,0,0,1,2.573.688,2.934,2.934,0,0,1,1.284,2.063l-1.525.387a2.022,2.022,0,0,0-.806-1.337,2.565,2.565,0,0,0-1.515-.446,2.614,2.614,0,0,0-1.418.371,1.246,1.246,0,0,0-.591,1.133,1.128,1.128,0,0,0,.156.585,1.859,1.859,0,0,0,.317.414,1.948,1.948,0,0,0,.58.317q.419.167.623.226t.773.2q.107.032.161.043.623.161,1.015.285a6.24,6.24,0,0,1,.913.387,3.035,3.035,0,0,1,.822.575,2.663,2.663,0,0,1,.516.816,2.882,2.882,0,0,1,.215,1.139,3.075,3.075,0,0,1-.317,1.423,2.479,2.479,0,0,1-.865.972,4.182,4.182,0,0,1-1.23.532A5.86,5.86,0,0,1,167.976.2ZM179.169.193a5.086,5.086,0,0,1-3.781-1.515,5.4,5.4,0,0,1-1.493-3.964,5.414,5.414,0,0,1,1.488-3.964,5.081,5.081,0,0,1,3.787-1.515,5.123,5.123,0,0,1,3.056.924A4.662,4.662,0,0,1,184-7.272l-1.74.279a3.214,3.214,0,0,0-1.192-1.644,3.247,3.247,0,0,0-1.912-.58,3.122,3.122,0,0,0-2.444,1.085,4.133,4.133,0,0,0-.961,2.847,4.113,4.113,0,0,0,.961,2.841,3.129,3.129,0,0,0,2.444,1.08,3.247,3.247,0,0,0,1.912-.58,3.214,3.214,0,0,0,1.192-1.644L184-3.3a4.668,4.668,0,0,1-1.789,2.562A5.115,5.115,0,0,1,179.169.193ZM188.558-8.7a3.192,3.192,0,0,1,1.311-1.418,3.947,3.947,0,0,1,2.03-.559v1.751a3.479,3.479,0,0,0-2.455.784,3.275,3.275,0,0,0-.843,2.5V0h-1.858V-10.56h1.815Zm6.467-4.34a1.209,1.209,0,0,1-.886-.371,1.209,1.209,0,0,1-.371-.886,1.192,1.192,0,0,1,.371-.881,1.218,1.218,0,0,1,.886-.365,1.206,1.206,0,0,1,.875.365,1.192,1.192,0,0,1,.371.881,1.209,1.209,0,0,1-.371.886A1.2,1.2,0,0,1,195.024-13.041ZM194.079,0V-10.56h1.869V0ZM205.3-10.764a4.8,4.8,0,0,1,1.912.387,4.7,4.7,0,0,1,1.568,1.085,5.071,5.071,0,0,1,1.058,1.74,6.417,6.417,0,0,1,.392,2.277,5.583,5.583,0,0,1-1.423,3.985A4.623,4.623,0,0,1,205.3.226a4.18,4.18,0,0,1-2.208-.6A3.943,3.943,0,0,1,201.588-2V5.317h-1.858V-10.56h1.794l.043,2.052a3.865,3.865,0,0,1,1.5-1.649A4.219,4.219,0,0,1,205.3-10.764Zm-.365,9.378a3.206,3.206,0,0,0,2.444-1.069,3.976,3.976,0,0,0,.994-2.82,3.956,3.956,0,0,0-.994-2.814,3.214,3.214,0,0,0-2.444-1.063,3.222,3.222,0,0,0-2.481,1.112,3.96,3.96,0,0,0-1.01,2.766,3.975,3.975,0,0,0,1.01,2.777A3.222,3.222,0,0,0,204.939-1.386ZM216.541,0a2.776,2.776,0,0,1-2.062-.757,2.865,2.865,0,0,1-.752-2.111V-9.077h-2.159V-10.56h.795a1.526,1.526,0,0,0,1.166-.371,1.824,1.824,0,0,0,.338-1.241v-1.912H215.6v3.523h2.428v1.482H215.6v6.016A1.6,1.6,0,0,0,216-1.9a1.411,1.411,0,0,0,1.058.414h.967V0Zm5.113-13.041a1.209,1.209,0,0,1-.886-.371,1.209,1.209,0,0,1-.371-.886,1.192,1.192,0,0,1,.371-.881,1.218,1.218,0,0,1,.886-.365,1.206,1.206,0,0,1,.875.365,1.192,1.192,0,0,1,.371.881,1.209,1.209,0,0,1-.371.886A1.2,1.2,0,0,1,221.654-13.041ZM220.709,0V-10.56h1.869V0Zm12.235-10.56h1.987L230.635,0h-1.579L224.78-10.56h1.977l3.094,8.4ZM239.153.2a3.593,3.593,0,0,1-2.315-.725,2.6,2.6,0,0,1-.908-2.165,3.076,3.076,0,0,1,.29-1.38,2.433,2.433,0,0,1,.859-.961,5.155,5.155,0,0,1,1.241-.6A11.469,11.469,0,0,1,239.927-6l1.708-.279q.935-.172.935-.978a1.845,1.845,0,0,0-.661-1.574,2.692,2.692,0,0,0-1.67-.5,2.742,2.742,0,0,0-1.654.483,2.023,2.023,0,0,0-.784,1.482l-1.676-.354a3.225,3.225,0,0,1,1.321-2.261,4.937,4.937,0,0,1,2.879-.757,5.839,5.839,0,0,1,1.531.188,4.16,4.16,0,0,1,1.278.591,2.65,2.65,0,0,1,.913,1.139,4.237,4.237,0,0,1,.328,1.735v4.361a1.784,1.784,0,0,0,.242,1.1,1.043,1.043,0,0,0,.833.285h.172V0H244.7a1.762,1.762,0,0,1-2-1.429h-.086A4.035,4.035,0,0,1,239.153.2Zm.43-1.5A2.818,2.818,0,0,0,241.85-2.32a4.2,4.2,0,0,0,.859-2.793l-2.793.537a3.76,3.76,0,0,0-1.638.585,1.362,1.362,0,0,0-.532,1.155,1.346,1.346,0,0,0,.51,1.16A2.181,2.181,0,0,0,239.583-1.3ZM2.374,60V44.875H7.251a7.232,7.232,0,0,1,3.851.978,5.963,5.963,0,0,1,2.363,2.659,9.34,9.34,0,0,1,.768,3.916,9.906,9.906,0,0,1-.446,3.056,6.923,6.923,0,0,1-1.305,2.39,5.726,5.726,0,0,1-2.2,1.568A7.811,7.811,0,0,1,7.251,60ZM4.3,58.249h2.89A4.606,4.606,0,0,0,10.962,56.7a6.539,6.539,0,0,0,1.273-4.275,6.484,6.484,0,0,0-1.278-4.254,4.609,4.609,0,0,0-3.771-1.547H4.3Zm14.137-11.29A1.265,1.265,0,0,1,17.177,45.7a1.192,1.192,0,0,1,.371-.881,1.218,1.218,0,0,1,.886-.365,1.206,1.206,0,0,1,.875.365,1.192,1.192,0,0,1,.371.881,1.209,1.209,0,0,1-.371.886A1.2,1.2,0,0,1,18.434,46.959ZM17.488,60V49.44h1.869V60Zm8.991.2a5.006,5.006,0,0,1-2.847-.763,3.155,3.155,0,0,1-1.386-2.17l1.622-.462a2.262,2.262,0,0,0,.865,1.466,2.805,2.805,0,0,0,1.735.521,3.462,3.462,0,0,0,1.015-.14,1.627,1.627,0,0,0,.779-.521,1.453,1.453,0,0,0,.226-1.4,1.865,1.865,0,0,0-.172-.349,1.064,1.064,0,0,0-.3-.29,3.967,3.967,0,0,0-.365-.226,3.749,3.749,0,0,0-.478-.2q-.317-.113-.51-.172t-.591-.172q-.4-.113-.612-.177a11.454,11.454,0,0,1-1.1-.387,4.805,4.805,0,0,1-.892-.51,2.053,2.053,0,0,1-.693-.833,2.817,2.817,0,0,1-.231-1.182,2.731,2.731,0,0,1,.516-1.687,2.9,2.9,0,0,1,1.337-.994,5.346,5.346,0,0,1,1.875-.306,4.588,4.588,0,0,1,2.573.688,2.934,2.934,0,0,1,1.284,2.063l-1.525.387a2.022,2.022,0,0,0-.806-1.337,2.565,2.565,0,0,0-1.515-.446,2.614,2.614,0,0,0-1.418.371,1.246,1.246,0,0,0-.591,1.133,1.128,1.128,0,0,0,.156.585,1.859,1.859,0,0,0,.317.414,1.948,1.948,0,0,0,.58.317q.419.167.623.226t.773.2q.107.032.161.043.623.161,1.015.285a6.239,6.239,0,0,1,.913.387,3.036,3.036,0,0,1,.822.575,2.662,2.662,0,0,1,.516.816,2.882,2.882,0,0,1,.215,1.139,3.075,3.075,0,0,1-.317,1.423,2.479,2.479,0,0,1-.865.972,4.182,4.182,0,0,1-1.23.532A5.86,5.86,0,0,1,26.479,60.2Zm16.049-5.693-.021.5h-8.25a3.731,3.731,0,0,0,1.01,2.7,3.315,3.315,0,0,0,2.406.94,3.166,3.166,0,0,0,1.751-.5,3.276,3.276,0,0,0,1.2-1.4l1.676.354a4.763,4.763,0,0,1-1.8,2.267,4.924,4.924,0,0,1-2.8.827,5.1,5.1,0,0,1-3.8-1.472,5.475,5.475,0,0,1-1.45-4.018A5.448,5.448,0,0,1,33.9,50.708a5.038,5.038,0,0,1,3.744-1.472,4.767,4.767,0,0,1,3.55,1.354A5.348,5.348,0,0,1,42.528,54.511Zm-4.888-3.846a3.293,3.293,0,0,0-2.2.747,3.42,3.42,0,0,0-1.112,2.175h6.327a3.138,3.138,0,0,0-.924-2.175A2.983,2.983,0,0,0,37.641,50.665ZM48.4,46.121a.782.782,0,0,0-.693.4,1.919,1.919,0,0,0-.252,1.042H46.428a2.834,2.834,0,0,1,.526-1.772,1.693,1.693,0,0,1,1.418-.687,1.947,1.947,0,0,1,1.74,1.053.99.99,0,0,0,.881.526.777.777,0,0,0,.688-.381,1.889,1.889,0,0,0,.247-1.037H52.97a2.821,2.821,0,0,1-.526,1.756,1.689,1.689,0,0,1-1.418.693,2,2,0,0,1-1.762-1.042A1.037,1.037,0,0,0,48.4,46.121Zm2.02,3.115a3.673,3.673,0,0,1,2.659.956,3.566,3.566,0,0,1,.994,2.7V60H52.218V53.308a2.5,2.5,0,0,0-.645-1.891,2.3,2.3,0,0,0-1.654-.612,2.555,2.555,0,0,0-1.88.725,2.942,2.942,0,0,0-.741,2.154V60H45.439V49.44H47.3v1.354A3.526,3.526,0,0,1,50.424,49.236ZM62.111,60.2a5.566,5.566,0,0,1-2.707-.655A4.771,4.771,0,0,1,57.5,57.631a5.89,5.89,0,0,1-.7-2.917,5.38,5.38,0,0,1,1.5-3.98,5.622,5.622,0,0,1,7.643,0,6.057,6.057,0,0,1-.005,7.971A5.173,5.173,0,0,1,62.111,60.2ZM62.1,58.657a3.243,3.243,0,0,0,2.5-1.085,4.59,4.59,0,0,0,0-5.7,3.243,3.243,0,0,0-2.5-1.085,3.2,3.2,0,0,0-2.476,1.085,4.629,4.629,0,0,0,0,5.7A3.2,3.2,0,0,0,62.1,58.657ZM83.854,43.5h1.858V60H83.918l-.043-2.052a3.885,3.885,0,0,1-1.5,1.665,4.191,4.191,0,0,1-2.234.612,4.8,4.8,0,0,1-3.486-1.488,5.085,5.085,0,0,1-1.063-1.746,6.386,6.386,0,0,1-.392-2.267,5.553,5.553,0,0,1,1.434-3.964,4.629,4.629,0,0,1,3.507-1.525,4.209,4.209,0,0,1,2.208.6,3.907,3.907,0,0,1,1.509,1.617Zm-3.33,15.114A3.162,3.162,0,0,0,82.978,57.5a4.36,4.36,0,0,0-.005-5.548,3.16,3.16,0,0,0-2.449-1.117,3.232,3.232,0,0,0-2.471,1.08,4.449,4.449,0,0,0,0,5.618A3.232,3.232,0,0,0,80.523,58.614Zm18.208-4.1-.021.5H90.46a3.731,3.731,0,0,0,1.01,2.7,3.315,3.315,0,0,0,2.406.94,3.166,3.166,0,0,0,1.751-.5,3.276,3.276,0,0,0,1.2-1.4l1.676.354a4.763,4.763,0,0,1-1.8,2.267,4.924,4.924,0,0,1-2.8.827,5.1,5.1,0,0,1-3.8-1.472,5.475,5.475,0,0,1-1.45-4.018A5.448,5.448,0,0,1,90.1,50.708a5.038,5.038,0,0,1,3.744-1.472,4.767,4.767,0,0,1,3.55,1.354A5.348,5.348,0,0,1,98.731,54.511Zm-4.888-3.846a3.293,3.293,0,0,0-2.2.747,3.42,3.42,0,0,0-1.112,2.175h6.327a3.138,3.138,0,0,0-.924-2.175A2.983,2.983,0,0,0,93.844,50.665ZM110.7,60.2a5.006,5.006,0,0,1-2.847-.763,3.155,3.155,0,0,1-1.386-2.17l1.622-.462a2.262,2.262,0,0,0,.865,1.466,2.805,2.805,0,0,0,1.735.521,3.462,3.462,0,0,0,1.015-.14,1.627,1.627,0,0,0,.779-.521,1.453,1.453,0,0,0,.226-1.4,1.865,1.865,0,0,0-.172-.349,1.064,1.064,0,0,0-.3-.29,3.967,3.967,0,0,0-.365-.226,3.748,3.748,0,0,0-.478-.2q-.317-.113-.51-.172t-.591-.172q-.4-.113-.612-.177a11.454,11.454,0,0,1-1.1-.387,4.805,4.805,0,0,1-.892-.51,2.053,2.053,0,0,1-.693-.833,2.817,2.817,0,0,1-.231-1.182,2.731,2.731,0,0,1,.516-1.687,2.9,2.9,0,0,1,1.337-.994,5.346,5.346,0,0,1,1.875-.306,4.588,4.588,0,0,1,2.573.688,2.934,2.934,0,0,1,1.284,2.063l-1.525.387a2.022,2.022,0,0,0-.806-1.337,2.565,2.565,0,0,0-1.515-.446,2.614,2.614,0,0,0-1.418.371,1.246,1.246,0,0,0-.591,1.133,1.128,1.128,0,0,0,.156.585,1.859,1.859,0,0,0,.317.414,1.948,1.948,0,0,0,.58.317q.419.167.623.226t.773.2q.107.032.161.043.623.161,1.015.285a6.239,6.239,0,0,1,.913.387,3.036,3.036,0,0,1,.822.575,2.662,2.662,0,0,1,.516.816,2.882,2.882,0,0,1,.215,1.139,3.075,3.075,0,0,1-.317,1.423,2.479,2.479,0,0,1-.865.972,4.182,4.182,0,0,1-1.23.532A5.86,5.86,0,0,1,110.7,60.2Zm16.049-5.693-.021.5h-8.25a3.731,3.731,0,0,0,1.01,2.7,3.315,3.315,0,0,0,2.406.94,3.166,3.166,0,0,0,1.751-.5,3.276,3.276,0,0,0,1.2-1.4l1.676.354a4.763,4.763,0,0,1-1.8,2.267,4.924,4.924,0,0,1-2.8.827,5.1,5.1,0,0,1-3.8-1.472,5.475,5.475,0,0,1-1.45-4.018,5.448,5.448,0,0,1,1.456-4.007,5.038,5.038,0,0,1,3.744-1.472,4.767,4.767,0,0,1,3.55,1.354A5.348,5.348,0,0,1,126.747,54.511Zm-4.888-3.846a3.293,3.293,0,0,0-2.2.747,3.42,3.42,0,0,0-1.112,2.175h6.327a3.138,3.138,0,0,0-.924-2.175A2.983,2.983,0,0,0,121.859,50.665Zm12.182,9.528a5.086,5.086,0,0,1-3.781-1.515,6.016,6.016,0,0,1-.005-7.928,5.5,5.5,0,0,1,6.843-.591,4.662,4.662,0,0,1,1.778,2.567l-1.74.279a3.214,3.214,0,0,0-1.192-1.644,3.247,3.247,0,0,0-1.912-.58,3.122,3.122,0,0,0-2.444,1.085,4.687,4.687,0,0,0,0,5.688,3.129,3.129,0,0,0,2.444,1.08,3.247,3.247,0,0,0,1.912-.58,3.214,3.214,0,0,0,1.192-1.644l1.74.29a4.668,4.668,0,0,1-1.789,2.562A5.115,5.115,0,0,1,134.041,60.193Zm11.956,0a5.086,5.086,0,0,1-3.781-1.515,6.016,6.016,0,0,1-.005-7.928,5.5,5.5,0,0,1,6.843-.591,4.662,4.662,0,0,1,1.778,2.567l-1.74.279a3.214,3.214,0,0,0-1.192-1.644,3.247,3.247,0,0,0-1.912-.58,3.122,3.122,0,0,0-2.444,1.085,4.687,4.687,0,0,0,0,5.688,3.129,3.129,0,0,0,2.444,1.08,3.247,3.247,0,0,0,1.912-.58,3.214,3.214,0,0,0,1.192-1.644l1.74.29a4.668,4.668,0,0,1-1.789,2.562A5.115,5.115,0,0,1,146,60.193Zm8.519-13.234a1.265,1.265,0,0,1-1.257-1.257,1.192,1.192,0,0,1,.371-.881,1.218,1.218,0,0,1,.886-.365,1.206,1.206,0,0,1,.875.365,1.192,1.192,0,0,1,.371.881,1.209,1.209,0,0,1-.371.886A1.2,1.2,0,0,1,154.516,46.959ZM153.57,60V49.44h1.869V60Zm9.389-12.375,2.7-3.5.988.72-2.406,2.782Zm.709,12.579a5.566,5.566,0,0,1-2.707-.655,4.771,4.771,0,0,1-1.907-1.917,5.89,5.89,0,0,1-.7-2.917,5.38,5.38,0,0,1,1.5-3.98,5.622,5.622,0,0,1,7.643,0,6.057,6.057,0,0,1-.005,7.971A5.173,5.173,0,0,1,163.668,60.2Zm-.011-1.547a3.243,3.243,0,0,0,2.5-1.085,4.59,4.59,0,0,0,0-5.7,3.243,3.243,0,0,0-2.5-1.085,3.2,3.2,0,0,0-2.476,1.085,4.629,4.629,0,0,0,0,5.7A3.2,3.2,0,0,0,163.657,58.657Zm13.224-9.421a3.673,3.673,0,0,1,2.659.956,3.566,3.566,0,0,1,.994,2.7V60h-1.858V53.308a2.5,2.5,0,0,0-.645-1.891,2.3,2.3,0,0,0-1.654-.612,2.555,2.555,0,0,0-1.88.725,2.942,2.942,0,0,0-.741,2.154V60H171.9V49.44h1.858v1.354A3.526,3.526,0,0,1,176.881,49.236ZM193.209,60a2.776,2.776,0,0,1-2.062-.757,2.865,2.865,0,0,1-.752-2.111V50.923h-2.159V49.44h.795a1.526,1.526,0,0,0,1.166-.371,1.824,1.824,0,0,0,.338-1.241V45.917h1.729V49.44h2.428v1.482h-2.428v6.016a1.6,1.6,0,0,0,.4,1.166,1.411,1.411,0,0,0,1.058.414h.967V60Zm5.983-8.7a3.192,3.192,0,0,1,1.311-1.418,3.947,3.947,0,0,1,2.03-.559v1.751a3.479,3.479,0,0,0-2.455.784,3.275,3.275,0,0,0-.843,2.5V60h-1.858V49.44h1.815Zm7.831,8.905a3.593,3.593,0,0,1-2.315-.725,2.6,2.6,0,0,1-.908-2.165,3.076,3.076,0,0,1,.29-1.38,2.433,2.433,0,0,1,.859-.961,5.155,5.155,0,0,1,1.241-.6A11.469,11.469,0,0,1,207.8,54l1.708-.279q.935-.172.935-.978a1.845,1.845,0,0,0-.661-1.574,2.692,2.692,0,0,0-1.67-.5,2.742,2.742,0,0,0-1.654.483,2.023,2.023,0,0,0-.784,1.482l-1.676-.354a3.225,3.225,0,0,1,1.321-2.261,4.937,4.937,0,0,1,2.879-.757,5.839,5.839,0,0,1,1.531.188,4.16,4.16,0,0,1,1.278.591,2.65,2.65,0,0,1,.913,1.139,4.237,4.237,0,0,1,.328,1.735v4.361a1.784,1.784,0,0,0,.242,1.1,1.043,1.043,0,0,0,.833.285h.172V60h-.924a1.762,1.762,0,0,1-2-1.429h-.086A4.035,4.035,0,0,1,207.023,60.2Zm.43-1.5a2.818,2.818,0,0,0,2.267-1.021,4.2,4.2,0,0,0,.859-2.793l-2.793.537a3.76,3.76,0,0,0-1.638.585,1.362,1.362,0,0,0-.532,1.155,1.346,1.346,0,0,0,.51,1.16A2.181,2.181,0,0,0,207.453,58.7ZM221.1,49.236a3.673,3.673,0,0,1,2.659.956,3.566,3.566,0,0,1,.994,2.7V60H222.89V53.308a2.5,2.5,0,0,0-.645-1.891,2.3,2.3,0,0,0-1.654-.612,2.555,2.555,0,0,0-1.88.725,2.942,2.942,0,0,0-.741,2.154V60h-1.858V49.44h1.858v1.354A3.526,3.526,0,0,1,221.1,49.236ZM231.677,60.2a5.006,5.006,0,0,1-2.847-.763,3.155,3.155,0,0,1-1.386-2.17l1.622-.462a2.262,2.262,0,0,0,.865,1.466,2.805,2.805,0,0,0,1.735.521,3.462,3.462,0,0,0,1.015-.14,1.627,1.627,0,0,0,.779-.521,1.453,1.453,0,0,0,.226-1.4,1.865,1.865,0,0,0-.172-.349,1.064,1.064,0,0,0-.3-.29,3.966,3.966,0,0,0-.365-.226,3.749,3.749,0,0,0-.478-.2q-.317-.113-.51-.172t-.591-.172q-.4-.113-.612-.177a11.453,11.453,0,0,1-1.1-.387,4.805,4.805,0,0,1-.892-.51,2.053,2.053,0,0,1-.693-.833,2.817,2.817,0,0,1-.231-1.182,2.731,2.731,0,0,1,.516-1.687,2.9,2.9,0,0,1,1.337-.994,5.346,5.346,0,0,1,1.875-.306,4.588,4.588,0,0,1,2.573.688,2.934,2.934,0,0,1,1.284,2.063l-1.525.387A2.022,2.022,0,0,0,233,51.057a2.565,2.565,0,0,0-1.515-.446,2.614,2.614,0,0,0-1.418.371,1.246,1.246,0,0,0-.591,1.133,1.128,1.128,0,0,0,.156.585,1.859,1.859,0,0,0,.317.414,1.948,1.948,0,0,0,.58.317q.419.167.623.226t.773.2q.107.032.161.043.623.161,1.015.285a6.239,6.239,0,0,1,.913.387,3.035,3.035,0,0,1,.822.575,2.663,2.663,0,0,1,.516.816,2.882,2.882,0,0,1,.215,1.139,3.075,3.075,0,0,1-.317,1.423,2.479,2.479,0,0,1-.865.972,4.182,4.182,0,0,1-1.23.532A5.86,5.86,0,0,1,231.677,60.2Zm13.4-10.764h1.987L242.763,60h-1.579l-4.275-10.56h1.977l3.094,8.4Zm13.009,5.07-.021.5h-8.25a3.731,3.731,0,0,0,1.01,2.7,3.315,3.315,0,0,0,2.406.94,3.166,3.166,0,0,0,1.751-.5,3.276,3.276,0,0,0,1.2-1.4l1.676.354a4.763,4.763,0,0,1-1.8,2.267,4.924,4.924,0,0,1-2.8.827,5.1,5.1,0,0,1-3.8-1.472,5.475,5.475,0,0,1-1.45-4.018,5.448,5.448,0,0,1,1.456-4.007,5.038,5.038,0,0,1,3.744-1.472,4.767,4.767,0,0,1,3.55,1.354A5.348,5.348,0,0,1,258.081,54.511Zm-4.888-3.846a3.293,3.293,0,0,0-2.2.747,3.42,3.42,0,0,0-1.112,2.175h6.327a3.138,3.138,0,0,0-.924-2.175A2.983,2.983,0,0,0,253.193,50.665Zm9.614.634a3.192,3.192,0,0,1,1.311-1.418,3.947,3.947,0,0,1,2.03-.559v1.751a3.479,3.479,0,0,0-2.455.784,3.276,3.276,0,0,0-.843,2.5V60h-1.858V49.44h1.815ZM271.67,60.2a5.006,5.006,0,0,1-2.847-.763,3.154,3.154,0,0,1-1.386-2.17l1.622-.462a2.262,2.262,0,0,0,.865,1.466,2.805,2.805,0,0,0,1.735.521,3.462,3.462,0,0,0,1.015-.14,1.627,1.627,0,0,0,.779-.521,1.453,1.453,0,0,0,.226-1.4,1.866,1.866,0,0,0-.172-.349,1.064,1.064,0,0,0-.3-.29,3.968,3.968,0,0,0-.365-.226,3.748,3.748,0,0,0-.478-.2q-.317-.113-.51-.172t-.591-.172q-.4-.113-.612-.177a11.456,11.456,0,0,1-1.1-.387,4.805,4.805,0,0,1-.892-.51,2.053,2.053,0,0,1-.693-.833,2.817,2.817,0,0,1-.231-1.182,2.731,2.731,0,0,1,.516-1.687,2.9,2.9,0,0,1,1.337-.994,5.346,5.346,0,0,1,1.875-.306,4.588,4.588,0,0,1,2.573.688,2.934,2.934,0,0,1,1.284,2.063l-1.525.387a2.022,2.022,0,0,0-.806-1.337,2.565,2.565,0,0,0-1.515-.446,2.615,2.615,0,0,0-1.418.371,1.245,1.245,0,0,0-.591,1.133,1.128,1.128,0,0,0,.156.585,1.86,1.86,0,0,0,.317.414,1.948,1.948,0,0,0,.58.317q.419.167.623.226t.773.2q.107.032.161.043.623.161,1.015.285a6.239,6.239,0,0,1,.913.387,3.036,3.036,0,0,1,.822.575,2.662,2.662,0,0,1,.516.816,2.882,2.882,0,0,1,.215,1.139,3.075,3.075,0,0,1-.317,1.423,2.479,2.479,0,0,1-.865.972,4.182,4.182,0,0,1-1.23.532A5.86,5.86,0,0,1,271.67,60.2Zm9.249,0a3.593,3.593,0,0,1-2.315-.725,2.6,2.6,0,0,1-.908-2.165,3.076,3.076,0,0,1,.29-1.38,2.434,2.434,0,0,1,.859-.961,5.155,5.155,0,0,1,1.241-.6A11.47,11.47,0,0,1,281.692,54l1.708-.279q.935-.172.935-.978a1.845,1.845,0,0,0-.661-1.574,2.692,2.692,0,0,0-1.67-.5,2.742,2.742,0,0,0-1.654.483,2.023,2.023,0,0,0-.784,1.482l-1.676-.354a3.225,3.225,0,0,1,1.321-2.261,4.937,4.937,0,0,1,2.879-.757,5.839,5.839,0,0,1,1.531.188,4.16,4.16,0,0,1,1.278.591,2.65,2.65,0,0,1,.913,1.139,4.237,4.237,0,0,1,.328,1.735v4.361a1.784,1.784,0,0,0,.242,1.1,1.043,1.043,0,0,0,.833.285h.172V60h-.924a1.762,1.762,0,0,1-2-1.429h-.086A4.035,4.035,0,0,1,280.919,60.2Zm.43-1.5a2.818,2.818,0,0,0,2.267-1.021,4.2,4.2,0,0,0,.859-2.793l-2.793.537a3.759,3.759,0,0,0-1.638.585,1.362,1.362,0,0,0-.532,1.155,1.346,1.346,0,0,0,.51,1.16A2.181,2.181,0,0,0,281.349,58.7Zm8.658,1.3V43.5h1.88V60ZM2.374,90V74.875H7.251a7.232,7.232,0,0,1,3.851.978,5.963,5.963,0,0,1,2.363,2.659,9.34,9.34,0,0,1,.768,3.916,9.906,9.906,0,0,1-.446,3.056,6.923,6.923,0,0,1-1.305,2.39,5.726,5.726,0,0,1-2.2,1.568A7.811,7.811,0,0,1,7.251,90ZM4.3,88.249h2.89A4.606,4.606,0,0,0,10.962,86.7a7.766,7.766,0,0,0-.005-8.529,4.609,4.609,0,0,0-3.771-1.547H4.3Zm14.137-11.29A1.265,1.265,0,0,1,17.177,75.7a1.192,1.192,0,0,1,.371-.881,1.218,1.218,0,0,1,.886-.365,1.206,1.206,0,0,1,.875.365,1.192,1.192,0,0,1,.371.881,1.209,1.209,0,0,1-.371.886A1.2,1.2,0,0,1,18.434,76.959ZM17.488,90V79.44h1.869V90Zm8.991.2a5.006,5.006,0,0,1-2.847-.763,3.155,3.155,0,0,1-1.386-2.17l1.622-.462a2.262,2.262,0,0,0,.865,1.466,2.805,2.805,0,0,0,1.735.521,3.462,3.462,0,0,0,1.015-.14,1.627,1.627,0,0,0,.779-.521,1.453,1.453,0,0,0,.226-1.4,1.865,1.865,0,0,0-.172-.349,1.064,1.064,0,0,0-.3-.29,3.965,3.965,0,0,0-.365-.226,3.749,3.749,0,0,0-.478-.2q-.317-.113-.51-.172t-.591-.172q-.4-.113-.612-.177a11.456,11.456,0,0,1-1.1-.387,4.805,4.805,0,0,1-.892-.51,2.053,2.053,0,0,1-.693-.833,2.817,2.817,0,0,1-.231-1.182,2.731,2.731,0,0,1,.516-1.687,2.9,2.9,0,0,1,1.337-.994,5.346,5.346,0,0,1,1.875-.306,4.588,4.588,0,0,1,2.573.688,2.934,2.934,0,0,1,1.284,2.063l-1.525.387a2.022,2.022,0,0,0-.806-1.337,2.565,2.565,0,0,0-1.515-.446,2.614,2.614,0,0,0-1.418.371,1.246,1.246,0,0,0-.591,1.133,1.128,1.128,0,0,0,.156.585,1.859,1.859,0,0,0,.317.414,1.948,1.948,0,0,0,.58.317q.419.167.623.226t.773.2q.107.032.161.043.623.161,1.015.285a6.24,6.24,0,0,1,.913.387,3.036,3.036,0,0,1,.822.575,2.662,2.662,0,0,1,.516.816,2.882,2.882,0,0,1,.215,1.139,3.075,3.075,0,0,1-.317,1.423,2.479,2.479,0,0,1-.865.972,4.182,4.182,0,0,1-1.23.532A5.86,5.86,0,0,1,26.479,90.2Zm16.049-5.693-.021.5h-8.25a3.731,3.731,0,0,0,1.01,2.7,3.315,3.315,0,0,0,2.406.94,3.166,3.166,0,0,0,1.751-.5,3.276,3.276,0,0,0,1.2-1.4l1.676.354a4.763,4.763,0,0,1-1.8,2.267,4.924,4.924,0,0,1-2.8.827,5.1,5.1,0,0,1-3.8-1.472,6.266,6.266,0,0,1,.005-8.024,5.038,5.038,0,0,1,3.744-1.472,4.767,4.767,0,0,1,3.55,1.354A5.348,5.348,0,0,1,42.528,84.511Zm-4.888-3.846a3.293,3.293,0,0,0-2.2.747,3.42,3.42,0,0,0-1.112,2.175h6.327a3.137,3.137,0,0,0-.924-2.175A2.983,2.983,0,0,0,37.641,80.665ZM48.4,76.121a.782.782,0,0,0-.693.4,1.919,1.919,0,0,0-.252,1.042H46.428a2.834,2.834,0,0,1,.526-1.772,1.693,1.693,0,0,1,1.418-.687,1.947,1.947,0,0,1,1.74,1.053.99.99,0,0,0,.881.526.777.777,0,0,0,.688-.381,1.889,1.889,0,0,0,.247-1.037H52.97a2.821,2.821,0,0,1-.526,1.756,1.689,1.689,0,0,1-1.418.693,2,2,0,0,1-1.762-1.042A1.037,1.037,0,0,0,48.4,76.121Zm2.02,3.115a3.673,3.673,0,0,1,2.659.956,3.566,3.566,0,0,1,.994,2.7V90H52.218V83.308a2.5,2.5,0,0,0-.645-1.891,2.3,2.3,0,0,0-1.654-.612,2.555,2.555,0,0,0-1.88.725,2.942,2.942,0,0,0-.741,2.154V90H45.439V79.44H47.3v1.354A3.526,3.526,0,0,1,50.424,79.236ZM62.111,90.2a5.566,5.566,0,0,1-2.707-.655A4.771,4.771,0,0,1,57.5,87.631a5.89,5.89,0,0,1-.7-2.917,5.38,5.38,0,0,1,1.5-3.98,5.622,5.622,0,0,1,7.643,0,6.057,6.057,0,0,1-.005,7.971A5.173,5.173,0,0,1,62.111,90.2ZM62.1,88.657a3.243,3.243,0,0,0,2.5-1.085,4.59,4.59,0,0,0,0-5.7,3.243,3.243,0,0,0-2.5-1.085,3.2,3.2,0,0,0-2.476,1.085,4.629,4.629,0,0,0,0,5.7A3.2,3.2,0,0,0,62.1,88.657ZM76.055,90V73.5h1.88V90Zm10.108.2a5.566,5.566,0,0,1-2.707-.655,4.771,4.771,0,0,1-1.907-1.917,5.89,5.89,0,0,1-.7-2.917,5.38,5.38,0,0,1,1.5-3.98,5.622,5.622,0,0,1,7.643,0,6.057,6.057,0,0,1-.005,7.971A5.173,5.173,0,0,1,86.163,90.2Zm-.011-1.547a3.243,3.243,0,0,0,2.5-1.085,4.59,4.59,0,0,0,0-5.7,3.243,3.243,0,0,0-2.5-1.085,3.2,3.2,0,0,0-2.476,1.085,4.629,4.629,0,0,0,0,5.7A3.2,3.2,0,0,0,86.152,88.657Zm13.224-9.421a3.673,3.673,0,0,1,2.659.956,3.566,3.566,0,0,1,.994,2.7V90H101.17V83.308a2.5,2.5,0,0,0-.645-1.891,2.3,2.3,0,0,0-1.654-.612,2.555,2.555,0,0,0-1.88.725,2.942,2.942,0,0,0-.741,2.154V90H94.392V79.44H96.25v1.354A3.526,3.526,0,0,1,99.376,79.236Zm14.889.2h1.8V89.463a5.752,5.752,0,0,1-1.364,4.114,5.68,5.68,0,0,1-8.905-1.794l1.536-.752a3.491,3.491,0,0,0,3.534,2.438,3.031,3.031,0,0,0,2.476-1.031,4.389,4.389,0,0,0,.854-2.879V87.6a3.721,3.721,0,0,1-1.5,1.52,4.376,4.376,0,0,1-2.2.575,4.527,4.527,0,0,1-3.416-1.488,5.689,5.689,0,0,1,.005-7.5,4.572,4.572,0,0,1,3.432-1.477,4.266,4.266,0,0,1,2.213.591,3.8,3.8,0,0,1,1.493,1.558Zm-3.352,8.68a3.2,3.2,0,0,0,2.433-1.085,3.832,3.832,0,0,0,.005-5.167,3.31,3.31,0,0,0-4.872-.032,3.917,3.917,0,0,0,.011,5.226A3.219,3.219,0,0,0,110.913,88.12ZM120.8,76.959a1.265,1.265,0,0,1-1.257-1.257,1.192,1.192,0,0,1,.371-.881,1.218,1.218,0,0,1,.886-.365,1.206,1.206,0,0,1,.875.365,1.192,1.192,0,0,1,.371.881,1.209,1.209,0,0,1-.371.886A1.2,1.2,0,0,1,120.8,76.959ZM119.851,90V79.44h1.869V90Zm9.023,0a2.776,2.776,0,0,1-2.062-.757,2.865,2.865,0,0,1-.752-2.111V80.923H123.9V79.44h.795a1.526,1.526,0,0,0,1.166-.371,1.824,1.824,0,0,0,.338-1.241V75.917h1.729V79.44h2.428v1.482h-2.428v6.016a1.6,1.6,0,0,0,.4,1.166,1.411,1.411,0,0,0,1.058.414h.967V90Zm10.742-10.56h1.858V90h-1.783l-.043-1.4a3.3,3.3,0,0,1-1.311,1.187,4.031,4.031,0,0,1-1.848.414,3.673,3.673,0,0,1-2.659-.956,3.566,3.566,0,0,1-.994-2.7V79.44H134.7v6.692a2.506,2.506,0,0,0,.65,1.891,2.3,2.3,0,0,0,1.66.623,2.527,2.527,0,0,0,1.875-.73,2.975,2.975,0,0,0,.736-2.159Zm13.438-5.94h1.858V90h-1.794l-.043-2.052a3.885,3.885,0,0,1-1.5,1.665,4.191,4.191,0,0,1-2.234.612,4.8,4.8,0,0,1-3.486-1.488,5.085,5.085,0,0,1-1.063-1.746,6.385,6.385,0,0,1-.392-2.267,5.553,5.553,0,0,1,1.434-3.964,4.629,4.629,0,0,1,3.507-1.525,4.209,4.209,0,0,1,2.208.6,3.908,3.908,0,0,1,1.509,1.617Zm-3.33,15.114a3.162,3.162,0,0,0,2.455-1.112,4.36,4.36,0,0,0-.005-5.548,3.16,3.16,0,0,0-2.449-1.117,3.232,3.232,0,0,0-2.471,1.08,4.449,4.449,0,0,0,0,5.618A3.232,3.232,0,0,0,149.725,88.614Zm9.915-11.655a1.265,1.265,0,0,1-1.257-1.257,1.192,1.192,0,0,1,.371-.881,1.218,1.218,0,0,1,.886-.365,1.206,1.206,0,0,1,.875.365,1.192,1.192,0,0,1,.371.881,1.209,1.209,0,0,1-.371.886A1.2,1.2,0,0,1,159.64,76.959ZM158.694,90V79.44h1.869V90Zm10.635-10.764a3.673,3.673,0,0,1,2.659.956,3.566,3.566,0,0,1,.994,2.7V90h-1.858V83.308a2.5,2.5,0,0,0-.645-1.891,2.3,2.3,0,0,0-1.654-.612,2.555,2.555,0,0,0-1.88.725,2.942,2.942,0,0,0-.741,2.154V90h-1.858V79.44H166.2v1.354A3.526,3.526,0,0,1,169.329,79.236ZM179.008,90.2a3.593,3.593,0,0,1-2.315-.725,2.6,2.6,0,0,1-.908-2.165,3.076,3.076,0,0,1,.29-1.38,2.433,2.433,0,0,1,.859-.961,5.155,5.155,0,0,1,1.241-.6A11.469,11.469,0,0,1,179.781,84l1.708-.279q.935-.172.935-.978a1.845,1.845,0,0,0-.661-1.574,2.692,2.692,0,0,0-1.67-.5,2.742,2.742,0,0,0-1.654.483,2.023,2.023,0,0,0-.784,1.482l-1.676-.354a3.225,3.225,0,0,1,1.321-2.261,4.937,4.937,0,0,1,2.879-.757,5.839,5.839,0,0,1,1.531.188,4.16,4.16,0,0,1,1.278.591,2.65,2.65,0,0,1,.913,1.139,4.237,4.237,0,0,1,.328,1.735v4.361a1.784,1.784,0,0,0,.242,1.1,1.043,1.043,0,0,0,.833.285h.172V90h-.924a1.762,1.762,0,0,1-2-1.429h-.086A4.035,4.035,0,0,1,179.008,90.2Zm.43-1.5A2.818,2.818,0,0,0,181.7,87.68a4.2,4.2,0,0,0,.859-2.793l-2.793.537a3.76,3.76,0,0,0-1.638.585,1.362,1.362,0,0,0-.532,1.155,1.346,1.346,0,0,0,.51,1.16A2.181,2.181,0,0,0,179.438,88.7ZM188.1,90V73.5h1.88V90ZM5.79,155.36a8.919,8.919,0,0,1-3.314-4.367,21.228,21.228,0,0,1,0-14.121A8.917,8.917,0,0,1,5.79,132.49l.988,1.225a7.536,7.536,0,0,0-2.825,3.83,20.14,20.14,0,0,0-.005,12.772,7.482,7.482,0,0,0,2.831,3.808ZM9.614,150V134.875h1.923V150Zm11.172-10.764a3.673,3.673,0,0,1,2.659.956,3.566,3.566,0,0,1,.994,2.7V150H22.58v-6.692a2.5,2.5,0,0,0-.645-1.891,2.3,2.3,0,0,0-1.654-.612,2.555,2.555,0,0,0-1.88.725,2.942,2.942,0,0,0-.741,2.154V150H15.8V139.44H17.66v1.354A3.526,3.526,0,0,1,20.786,139.236Zm13.471.2h1.987L31.947,150H30.368l-4.275-10.56h1.977l3.094,8.4Zm13.009,5.07-.021.5h-8.25a3.731,3.731,0,0,0,1.01,2.7,3.315,3.315,0,0,0,2.406.94,3.166,3.166,0,0,0,1.751-.5,3.276,3.276,0,0,0,1.2-1.4l1.676.354a4.763,4.763,0,0,1-1.8,2.267,4.924,4.924,0,0,1-2.8.827,5.1,5.1,0,0,1-3.8-1.472,6.266,6.266,0,0,1,.005-8.024,5.038,5.038,0,0,1,3.744-1.472,4.767,4.767,0,0,1,3.55,1.354A5.348,5.348,0,0,1,47.266,144.511Zm-4.888-3.846a3.293,3.293,0,0,0-2.2.747,3.42,3.42,0,0,0-1.112,2.175H45.4a3.138,3.138,0,0,0-.924-2.175A2.983,2.983,0,0,0,42.378,140.665Zm11.14,9.539a5.006,5.006,0,0,1-2.847-.763,3.155,3.155,0,0,1-1.386-2.17l1.622-.462a2.262,2.262,0,0,0,.865,1.466,2.805,2.805,0,0,0,1.735.521,3.462,3.462,0,0,0,1.015-.14,1.627,1.627,0,0,0,.779-.521,1.453,1.453,0,0,0,.226-1.4,1.865,1.865,0,0,0-.172-.349,1.064,1.064,0,0,0-.3-.29,3.968,3.968,0,0,0-.365-.226,3.748,3.748,0,0,0-.478-.2q-.317-.113-.51-.172t-.591-.172q-.4-.113-.612-.177a11.451,11.451,0,0,1-1.1-.387,4.805,4.805,0,0,1-.892-.51,2.053,2.053,0,0,1-.693-.833,2.817,2.817,0,0,1-.231-1.182,2.731,2.731,0,0,1,.516-1.687,2.9,2.9,0,0,1,1.337-.994,5.346,5.346,0,0,1,1.875-.306,4.588,4.588,0,0,1,2.573.688,2.934,2.934,0,0,1,1.284,2.063l-1.525.387a2.022,2.022,0,0,0-.806-1.337,2.565,2.565,0,0,0-1.515-.446,2.614,2.614,0,0,0-1.418.371,1.246,1.246,0,0,0-.591,1.133,1.128,1.128,0,0,0,.156.585,1.859,1.859,0,0,0,.317.414,1.948,1.948,0,0,0,.58.317q.419.167.623.226t.773.2q.107.032.161.043.623.161,1.015.285a6.238,6.238,0,0,1,.913.387,3.036,3.036,0,0,1,.822.575,2.663,2.663,0,0,1,.516.816,2.882,2.882,0,0,1,.215,1.139,3.075,3.075,0,0,1-.317,1.423,2.479,2.479,0,0,1-.865.972,4.182,4.182,0,0,1-1.23.532A5.86,5.86,0,0,1,53.518,150.2ZM63.7,150a2.776,2.776,0,0,1-2.062-.757,2.865,2.865,0,0,1-.752-2.111v-6.209H58.728V139.44h.795a1.526,1.526,0,0,0,1.166-.371,1.824,1.824,0,0,0,.338-1.241v-1.912h1.729v3.523h2.428v1.482H62.756v6.016a1.6,1.6,0,0,0,.4,1.166,1.411,1.411,0,0,0,1.058.414h.967V150Zm5.113-13.041a1.265,1.265,0,0,1-1.257-1.257,1.192,1.192,0,0,1,.371-.881,1.218,1.218,0,0,1,.886-.365,1.206,1.206,0,0,1,.875.365,1.192,1.192,0,0,1,.371.881,1.209,1.209,0,0,1-.371.886A1.2,1.2,0,0,1,68.814,136.959ZM67.869,150V139.44h1.869V150Zm13.3-10.56h1.8v10.022a5.752,5.752,0,0,1-1.364,4.114,5.68,5.68,0,0,1-8.905-1.794l1.536-.752a3.491,3.491,0,0,0,3.534,2.438,3.031,3.031,0,0,0,2.476-1.031,4.389,4.389,0,0,0,.854-2.879V147.6a3.721,3.721,0,0,1-1.5,1.52,4.376,4.376,0,0,1-2.2.575,4.527,4.527,0,0,1-3.416-1.488,5.689,5.689,0,0,1,.005-7.5,4.572,4.572,0,0,1,3.432-1.477,4.266,4.266,0,0,1,2.213.591,3.8,3.8,0,0,1,1.493,1.558Zm-3.352,8.68a3.194,3.194,0,0,0,2.433-1.085,3.832,3.832,0,0,0,.005-5.167,3.31,3.31,0,0,0-4.872-.032,3.917,3.917,0,0,0,.011,5.226A3.219,3.219,0,0,0,77.816,148.12ZM89.192,150.2a3.593,3.593,0,0,1-2.315-.725,2.6,2.6,0,0,1-.908-2.165,3.076,3.076,0,0,1,.29-1.38,2.434,2.434,0,0,1,.859-.961,5.155,5.155,0,0,1,1.241-.6A11.47,11.47,0,0,1,89.966,144l1.708-.279q.935-.172.935-.978a1.845,1.845,0,0,0-.661-1.574,2.692,2.692,0,0,0-1.67-.5,2.742,2.742,0,0,0-1.654.483,2.023,2.023,0,0,0-.784,1.482l-1.676-.354a3.225,3.225,0,0,1,1.321-2.261,4.937,4.937,0,0,1,2.879-.757,5.839,5.839,0,0,1,1.531.188,4.16,4.16,0,0,1,1.278.591,2.65,2.65,0,0,1,.913,1.139,4.237,4.237,0,0,1,.328,1.735v4.361a1.784,1.784,0,0,0,.242,1.1,1.043,1.043,0,0,0,.833.285h.172V150h-.924a1.762,1.762,0,0,1-2-1.429h-.086A4.035,4.035,0,0,1,89.192,150.2Zm.43-1.5a2.818,2.818,0,0,0,2.267-1.021,4.2,4.2,0,0,0,.859-2.793l-2.793.537a3.76,3.76,0,0,0-1.638.585,1.362,1.362,0,0,0-.532,1.155,1.346,1.346,0,0,0,.51,1.16A2.181,2.181,0,0,0,89.622,148.7Zm12.826,1.493a5.086,5.086,0,0,1-3.781-1.515,6.016,6.016,0,0,1-.005-7.928,5.5,5.5,0,0,1,6.843-.591,4.662,4.662,0,0,1,1.778,2.567l-1.74.279a3.214,3.214,0,0,0-1.192-1.644,3.247,3.247,0,0,0-1.912-.58,3.122,3.122,0,0,0-2.444,1.085,4.687,4.687,0,0,0,0,5.688,3.129,3.129,0,0,0,2.444,1.08,3.247,3.247,0,0,0,1.912-.58,3.214,3.214,0,0,0,1.192-1.644l1.74.29a4.667,4.667,0,0,1-1.789,2.562A5.115,5.115,0,0,1,102.448,150.193Zm8.519-13.234a1.265,1.265,0,0,1-1.257-1.257,1.192,1.192,0,0,1,.371-.881,1.218,1.218,0,0,1,.886-.365,1.206,1.206,0,0,1,.875.365,1.192,1.192,0,0,1,.371.881,1.209,1.209,0,0,1-.371.886A1.2,1.2,0,0,1,110.967,136.959ZM110.021,150V139.44h1.869V150Zm9.389-12.375,2.7-3.5.988.72-2.406,2.782Zm.709,12.579a5.566,5.566,0,0,1-2.707-.655,4.771,4.771,0,0,1-1.907-1.917,5.89,5.89,0,0,1-.7-2.917,5.38,5.38,0,0,1,1.5-3.98,5.622,5.622,0,0,1,7.643,0,6.057,6.057,0,0,1-.005,7.971A5.173,5.173,0,0,1,120.119,150.2Zm-.011-1.547a3.243,3.243,0,0,0,2.5-1.085,4.59,4.59,0,0,0,0-5.7,3.243,3.243,0,0,0-2.5-1.085,3.2,3.2,0,0,0-2.476,1.085,4.629,4.629,0,0,0,0,5.7A3.2,3.2,0,0,0,120.108,148.657Zm13.224-9.421a3.673,3.673,0,0,1,2.659.956,3.566,3.566,0,0,1,.994,2.7V150h-1.858v-6.692a2.5,2.5,0,0,0-.645-1.891,2.3,2.3,0,0,0-1.654-.612,2.555,2.555,0,0,0-1.88.725,2.942,2.942,0,0,0-.741,2.154V150h-1.858V139.44h1.858v1.354A3.526,3.526,0,0,1,133.332,139.236Zm20.754-5.736h1.858V150H154.15l-.043-2.052a3.885,3.885,0,0,1-1.5,1.665,4.191,4.191,0,0,1-2.234.612,4.8,4.8,0,0,1-3.486-1.488,5.085,5.085,0,0,1-1.063-1.746,6.385,6.385,0,0,1-.392-2.267,5.553,5.553,0,0,1,1.434-3.964,4.629,4.629,0,0,1,3.507-1.525,4.209,4.209,0,0,1,2.208.6,3.908,3.908,0,0,1,1.509,1.617Zm-3.33,15.114a3.162,3.162,0,0,0,2.455-1.112,4.36,4.36,0,0,0-.005-5.548,3.16,3.16,0,0,0-2.449-1.117,3.232,3.232,0,0,0-2.471,1.08,4.449,4.449,0,0,0,0,5.618A3.232,3.232,0,0,0,150.756,148.614Zm18.208-4.1-.021.5h-8.25a3.731,3.731,0,0,0,1.01,2.7,3.315,3.315,0,0,0,2.406.94,3.166,3.166,0,0,0,1.751-.5,3.276,3.276,0,0,0,1.2-1.4l1.676.354a4.763,4.763,0,0,1-1.8,2.267,4.924,4.924,0,0,1-2.8.827,5.1,5.1,0,0,1-3.8-1.472,6.266,6.266,0,0,1,.005-8.024,5.038,5.038,0,0,1,3.744-1.472,4.767,4.767,0,0,1,3.55,1.354A5.348,5.348,0,0,1,168.964,144.511Zm-4.888-3.846a3.293,3.293,0,0,0-2.2.747,3.42,3.42,0,0,0-1.112,2.175h6.327a3.138,3.138,0,0,0-.924-2.175A2.983,2.983,0,0,0,164.076,140.665Zm24.31-1.429a3.4,3.4,0,0,1,2.46.9,3.327,3.327,0,0,1,.935,2.519V150h-1.858v-6.864a2.386,2.386,0,0,0-.58-1.74,1.975,1.975,0,0,0-1.472-.591,2.085,2.085,0,0,0-1.611.666,2.864,2.864,0,0,0-.612,2V150h-1.891v-6.789a2.5,2.5,0,0,0-.585-1.8,1.991,1.991,0,0,0-1.5-.607,2.066,2.066,0,0,0-1.606.682,2.963,2.963,0,0,0-.618,2.046V150H177.59V139.44h1.858V140.8a3.208,3.208,0,0,1,1.208-1.16,3.446,3.446,0,0,1,1.681-.408,3.588,3.588,0,0,1,1.8.446,2.775,2.775,0,0,1,1.171,1.284,3.286,3.286,0,0,1,1.268-1.284A3.626,3.626,0,0,1,188.386,139.236Zm11.44,10.968a5.566,5.566,0,0,1-2.707-.655,4.771,4.771,0,0,1-1.907-1.917,5.89,5.89,0,0,1-.7-2.917,5.38,5.38,0,0,1,1.5-3.98,5.622,5.622,0,0,1,7.643,0,6.057,6.057,0,0,1-.005,7.971A5.173,5.173,0,0,1,199.826,150.2Zm-.011-1.547a3.243,3.243,0,0,0,2.5-1.085,4.59,4.59,0,0,0,0-5.7,3.243,3.243,0,0,0-2.5-1.085,3.2,3.2,0,0,0-2.476,1.085,4.629,4.629,0,0,0,0,5.7A3.2,3.2,0,0,0,199.815,148.657Zm13.224-9.421a3.673,3.673,0,0,1,2.659.956,3.566,3.566,0,0,1,.994,2.7V150h-1.858v-6.692a2.5,2.5,0,0,0-.645-1.891,2.3,2.3,0,0,0-1.654-.612,2.555,2.555,0,0,0-1.88.725,2.942,2.942,0,0,0-.741,2.154V150h-1.858V139.44h1.858v1.354A3.526,3.526,0,0,1,213.039,139.236Zm8.186-2.277a1.265,1.265,0,0,1-1.257-1.257,1.192,1.192,0,0,1,.371-.881,1.218,1.218,0,0,1,.886-.365,1.206,1.206,0,0,1,.875.365,1.192,1.192,0,0,1,.371.881,1.209,1.209,0,0,1-.371.886A1.2,1.2,0,0,1,221.225,136.959ZM220.279,150V139.44h1.869V150Zm9.023,0a2.776,2.776,0,0,1-2.062-.757,2.865,2.865,0,0,1-.752-2.111v-6.209h-2.159V139.44h.795a1.526,1.526,0,0,0,1.166-.371,1.824,1.824,0,0,0,.338-1.241v-1.912h1.729v3.523h2.428v1.482h-2.428v6.016a1.6,1.6,0,0,0,.4,1.166,1.411,1.411,0,0,0,1.058.414h.967V150Zm8.486.2a5.566,5.566,0,0,1-2.707-.655,4.771,4.771,0,0,1-1.907-1.917,5.89,5.89,0,0,1-.7-2.917,5.38,5.38,0,0,1,1.5-3.98,5.622,5.622,0,0,1,7.643,0,6.057,6.057,0,0,1-.005,7.971A5.173,5.173,0,0,1,237.789,150.2Zm-.011-1.547a3.243,3.243,0,0,0,2.5-1.085,4.59,4.59,0,0,0,0-5.7,3.243,3.243,0,0,0-2.5-1.085,3.2,3.2,0,0,0-2.476,1.085,4.629,4.629,0,0,0,0,5.7A3.2,3.2,0,0,0,237.778,148.657Zm10.055-7.358a3.192,3.192,0,0,1,1.311-1.418,3.947,3.947,0,0,1,2.03-.559v1.751a3.479,3.479,0,0,0-2.455.784,3.275,3.275,0,0,0-.843,2.5V150h-1.858V139.44h1.815Zm6.467-4.34a1.265,1.265,0,0,1-1.257-1.257,1.192,1.192,0,0,1,.371-.881,1.218,1.218,0,0,1,.886-.365,1.206,1.206,0,0,1,.875.365,1.192,1.192,0,0,1,.371.881,1.209,1.209,0,0,1-.371.886A1.2,1.2,0,0,1,254.3,136.959ZM253.354,150V139.44h1.869V150Zm8.089.2a3.593,3.593,0,0,1-2.315-.725,2.6,2.6,0,0,1-.908-2.165,3.076,3.076,0,0,1,.29-1.38,2.434,2.434,0,0,1,.859-.961,5.154,5.154,0,0,1,1.241-.6,11.47,11.47,0,0,1,1.606-.381l1.708-.279q.935-.172.935-.978a1.845,1.845,0,0,0-.661-1.574,2.692,2.692,0,0,0-1.67-.5,2.742,2.742,0,0,0-1.654.483,2.023,2.023,0,0,0-.784,1.482l-1.676-.354a3.225,3.225,0,0,1,1.321-2.261,4.937,4.937,0,0,1,2.879-.757,5.839,5.839,0,0,1,1.531.188,4.16,4.16,0,0,1,1.278.591,2.65,2.65,0,0,1,.913,1.139,4.237,4.237,0,0,1,.328,1.735v4.361a1.784,1.784,0,0,0,.242,1.1,1.043,1.043,0,0,0,.833.285h.172V150h-.924a1.762,1.762,0,0,1-2-1.429H264.9A4.035,4.035,0,0,1,261.443,150.2Zm.43-1.5a2.818,2.818,0,0,0,2.267-1.021,4.2,4.2,0,0,0,.859-2.793l-2.793.537a3.76,3.76,0,0,0-1.638.585,1.362,1.362,0,0,0-.532,1.155,1.346,1.346,0,0,0,.51,1.16A2.181,2.181,0,0,0,261.873,148.7Zm22.172-15.2H285.9V150h-1.794l-.043-2.052a3.885,3.885,0,0,1-1.5,1.665,4.191,4.191,0,0,1-2.234.612,4.8,4.8,0,0,1-3.486-1.488,5.085,5.085,0,0,1-1.063-1.746,6.386,6.386,0,0,1-.392-2.267,5.553,5.553,0,0,1,1.434-3.964,4.629,4.629,0,0,1,3.507-1.525,4.209,4.209,0,0,1,2.208.6,3.907,3.907,0,0,1,1.509,1.617Zm-3.33,15.114a3.162,3.162,0,0,0,2.455-1.112,4.36,4.36,0,0,0-.005-5.548,3.16,3.16,0,0,0-2.449-1.117,3.232,3.232,0,0,0-2.471,1.08,4.449,4.449,0,0,0,0,5.618A3.232,3.232,0,0,0,280.715,148.614Zm18.208-4.1-.021.5h-8.25a3.731,3.731,0,0,0,1.01,2.7,3.315,3.315,0,0,0,2.406.94,3.166,3.166,0,0,0,1.751-.5,3.276,3.276,0,0,0,1.2-1.4l1.676.354a4.763,4.763,0,0,1-1.8,2.267,4.924,4.924,0,0,1-2.8.827,5.1,5.1,0,0,1-3.8-1.472,6.266,6.266,0,0,1,.005-8.024,5.038,5.038,0,0,1,3.744-1.472,4.767,4.767,0,0,1,3.55,1.354A5.348,5.348,0,0,1,298.923,144.511Zm-4.888-3.846a3.293,3.293,0,0,0-2.2.747,3.42,3.42,0,0,0-1.112,2.175h6.327a3.138,3.138,0,0,0-.924-2.175A2.983,2.983,0,0,0,294.035,140.665Zm7.8,9.335V133.5h1.88V150Zm19.175-16.5h1.858V150h-1.794l-.043-2.052a3.885,3.885,0,0,1-1.5,1.665,4.191,4.191,0,0,1-2.234.612,4.8,4.8,0,0,1-3.486-1.488,5.085,5.085,0,0,1-1.063-1.746,6.386,6.386,0,0,1-.392-2.267,5.553,5.553,0,0,1,1.434-3.964,4.629,4.629,0,0,1,3.507-1.525,4.209,4.209,0,0,1,2.208.6,3.907,3.907,0,0,1,1.509,1.617Zm-3.33,15.114a3.162,3.162,0,0,0,2.455-1.112,4.36,4.36,0,0,0-.005-5.548,3.16,3.16,0,0,0-2.449-1.117,3.232,3.232,0,0,0-2.471,1.08,4.449,4.449,0,0,0,0,5.618A3.232,3.232,0,0,0,317.679,148.614Zm18.208-4.1-.021.5h-8.25a3.731,3.731,0,0,0,1.01,2.7,3.315,3.315,0,0,0,2.406.94,3.166,3.166,0,0,0,1.751-.5,3.276,3.276,0,0,0,1.2-1.4l1.676.354a4.763,4.763,0,0,1-1.8,2.267,4.924,4.924,0,0,1-2.8.827,5.1,5.1,0,0,1-3.8-1.472,6.266,6.266,0,0,1,.005-8.024A5.038,5.038,0,0,1,331,139.236a4.767,4.767,0,0,1,3.55,1.354A5.348,5.348,0,0,1,335.887,144.511ZM331,140.665a3.293,3.293,0,0,0-2.2.747,3.42,3.42,0,0,0-1.112,2.175h6.327a3.138,3.138,0,0,0-.924-2.175A2.983,2.983,0,0,0,331,140.665Zm11.14,9.539a5.006,5.006,0,0,1-2.847-.763,3.154,3.154,0,0,1-1.386-2.17l1.622-.462a2.262,2.262,0,0,0,.865,1.466,2.805,2.805,0,0,0,1.735.521,3.462,3.462,0,0,0,1.015-.14,1.627,1.627,0,0,0,.779-.521,1.453,1.453,0,0,0,.226-1.4,1.866,1.866,0,0,0-.172-.349,1.063,1.063,0,0,0-.3-.29,3.97,3.97,0,0,0-.365-.226,3.747,3.747,0,0,0-.478-.2q-.317-.113-.51-.172t-.591-.172q-.4-.113-.612-.177a11.454,11.454,0,0,1-1.1-.387,4.805,4.805,0,0,1-.892-.51,2.053,2.053,0,0,1-.693-.833,2.817,2.817,0,0,1-.231-1.182,2.731,2.731,0,0,1,.516-1.687,2.9,2.9,0,0,1,1.337-.994,5.346,5.346,0,0,1,1.875-.306,4.588,4.588,0,0,1,2.573.688,2.934,2.934,0,0,1,1.284,2.063l-1.525.387a2.022,2.022,0,0,0-.806-1.337,2.565,2.565,0,0,0-1.515-.446,2.615,2.615,0,0,0-1.418.371,1.245,1.245,0,0,0-.591,1.133,1.128,1.128,0,0,0,.156.585,1.86,1.86,0,0,0,.317.414,1.948,1.948,0,0,0,.58.317q.419.167.623.226t.773.2q.107.032.161.043.623.161,1.015.285a6.238,6.238,0,0,1,.913.387,3.036,3.036,0,0,1,.822.575,2.662,2.662,0,0,1,.516.816,2.882,2.882,0,0,1,.215,1.139,3.075,3.075,0,0,1-.317,1.423,2.479,2.479,0,0,1-.865.972,4.182,4.182,0,0,1-1.23.532A5.86,5.86,0,0,1,342.139,150.2Zm16.049-5.693-.021.5h-8.25a3.731,3.731,0,0,0,1.01,2.7,3.315,3.315,0,0,0,2.406.94,3.166,3.166,0,0,0,1.751-.5,3.276,3.276,0,0,0,1.2-1.4l1.676.354a4.763,4.763,0,0,1-1.8,2.267,4.924,4.924,0,0,1-2.8.827,5.1,5.1,0,0,1-3.8-1.472,6.266,6.266,0,0,1,.005-8.024,5.038,5.038,0,0,1,3.744-1.472,4.767,4.767,0,0,1,3.55,1.354A5.348,5.348,0,0,1,358.188,144.511Zm-4.888-3.846a3.293,3.293,0,0,0-2.2.747,3.42,3.42,0,0,0-1.112,2.175h6.327a3.138,3.138,0,0,0-.924-2.175A2.983,2.983,0,0,0,353.3,140.665Zm18.595-1.429a3.4,3.4,0,0,1,2.46.9,3.327,3.327,0,0,1,.935,2.519V150h-1.858v-6.864a2.386,2.386,0,0,0-.58-1.74,1.975,1.975,0,0,0-1.472-.591,2.085,2.085,0,0,0-1.611.666,2.864,2.864,0,0,0-.612,2V150h-1.891v-6.789a2.5,2.5,0,0,0-.585-1.8,1.991,1.991,0,0,0-1.5-.607,2.066,2.066,0,0,0-1.606.682,2.963,2.963,0,0,0-.618,2.046V150H361.1V139.44h1.858V140.8a3.208,3.208,0,0,1,1.208-1.16,3.446,3.446,0,0,1,1.681-.408,3.588,3.588,0,0,1,1.8.446,2.775,2.775,0,0,1,1.171,1.284,3.286,3.286,0,0,1,1.268-1.284A3.626,3.626,0,0,1,371.895,139.236Zm12.568,0a4.8,4.8,0,0,1,1.912.387,4.7,4.7,0,0,1,1.568,1.085,5.071,5.071,0,0,1,1.058,1.74,6.417,6.417,0,0,1,.392,2.277,5.583,5.583,0,0,1-1.423,3.985,4.623,4.623,0,0,1-3.507,1.515,4.18,4.18,0,0,1-2.208-.6A3.943,3.943,0,0,1,380.746,148v7.315h-1.858V139.44h1.794l.043,2.052a3.865,3.865,0,0,1,1.5-1.649A4.219,4.219,0,0,1,384.463,139.236Zm-.365,9.378a3.206,3.206,0,0,0,2.444-1.069,4.49,4.49,0,0,0,0-5.634,3.332,3.332,0,0,0-4.925.048,4.308,4.308,0,0,0,0,5.543A3.222,3.222,0,0,0,384.1,148.614Zm17.467-4.1-.021.5h-8.25a3.731,3.731,0,0,0,1.01,2.7,3.315,3.315,0,0,0,2.406.94,3.166,3.166,0,0,0,1.751-.5,3.276,3.276,0,0,0,1.2-1.4l1.676.354a4.763,4.763,0,0,1-1.8,2.267,4.924,4.924,0,0,1-2.8.827,5.1,5.1,0,0,1-3.8-1.472,6.266,6.266,0,0,1,.005-8.024,5.038,5.038,0,0,1,3.744-1.472,4.767,4.767,0,0,1,3.55,1.354A5.348,5.348,0,0,1,401.564,144.511Zm-4.888-3.846a3.293,3.293,0,0,0-2.2.747,3.42,3.42,0,0,0-1.112,2.175H399.7a3.138,3.138,0,0,0-.924-2.175A2.983,2.983,0,0,0,396.677,140.665Zm10.764-4.544a.782.782,0,0,0-.693.4,1.919,1.919,0,0,0-.252,1.042h-1.031a2.834,2.834,0,0,1,.526-1.772,1.693,1.693,0,0,1,1.418-.687,1.947,1.947,0,0,1,1.74,1.053.99.99,0,0,0,.881.526.777.777,0,0,0,.688-.381,1.89,1.89,0,0,0,.247-1.037h1.042a2.821,2.821,0,0,1-.526,1.756,1.689,1.689,0,0,1-1.418.693,2,2,0,0,1-1.762-1.042A1.037,1.037,0,0,0,407.44,136.121Zm2.02,3.115a3.673,3.673,0,0,1,2.659.956,3.566,3.566,0,0,1,.994,2.7V150h-1.858v-6.692a2.5,2.5,0,0,0-.645-1.891,2.3,2.3,0,0,0-1.654-.612,2.555,2.555,0,0,0-1.88.725,2.942,2.942,0,0,0-.741,2.154V150h-1.858V139.44h1.858v1.354A3.526,3.526,0,0,1,409.46,139.236ZM421.147,150.2a5.566,5.566,0,0,1-2.707-.655,4.771,4.771,0,0,1-1.907-1.917,5.89,5.89,0,0,1-.7-2.917,5.38,5.38,0,0,1,1.5-3.98,5.622,5.622,0,0,1,7.643,0,6.057,6.057,0,0,1-.005,7.971A5.173,5.173,0,0,1,421.147,150.2Zm-.011-1.547a3.243,3.243,0,0,0,2.5-1.085,4.59,4.59,0,0,0,0-5.7,3.243,3.243,0,0,0-2.5-1.085,3.2,3.2,0,0,0-2.476,1.085,4.629,4.629,0,0,0,0,5.7A3.2,3.2,0,0,0,421.137,148.657Zm7.8,6.7-.988-1.235a7.482,7.482,0,0,0,2.831-3.808,20.14,20.14,0,0,0-.005-12.772,7.536,7.536,0,0,0-2.825-3.83l.988-1.225a8.917,8.917,0,0,1,3.314,4.383,21.228,21.228,0,0,1,0,14.121A8.919,8.919,0,0,1,428.936,155.36Z" transform="translate(960 7987)" fill="#00223d"/>
    <path id="Trazado_36843" data-name="Trazado 36843" d="M0,0H316V180H0Z" transform="translate(918 8415)" fill="#ff8f00"/>
    <path id="Trazado_36844" data-name="Trazado 36844" d="M2.374,0V-15.125H4.3V0ZM13.546-10.764a3.673,3.673,0,0,1,2.659.956,3.566,3.566,0,0,1,.994,2.7V0H15.34V-6.692A2.5,2.5,0,0,0,14.7-8.583,2.3,2.3,0,0,0,13.041-9.2a2.555,2.555,0,0,0-1.88.725,2.942,2.942,0,0,0-.741,2.154V0H8.562V-10.56H10.42v1.354A3.526,3.526,0,0,1,13.546-10.764Zm13.471.2H29L24.707,0H23.128L18.853-10.56h1.977l3.094,8.4Zm13.009,5.07-.021.5h-8.25a3.731,3.731,0,0,0,1.01,2.7,3.315,3.315,0,0,0,2.406.94,3.166,3.166,0,0,0,1.751-.5,3.276,3.276,0,0,0,1.2-1.4L39.8-2.89A4.763,4.763,0,0,1,38-.623a4.924,4.924,0,0,1-2.8.827,5.1,5.1,0,0,1-3.8-1.472,5.475,5.475,0,0,1-1.45-4.018,5.448,5.448,0,0,1,1.456-4.007,5.038,5.038,0,0,1,3.744-1.472,4.767,4.767,0,0,1,3.55,1.354A5.348,5.348,0,0,1,40.025-5.489ZM35.138-9.335a3.293,3.293,0,0,0-2.2.747,3.42,3.42,0,0,0-1.112,2.175h6.327a3.138,3.138,0,0,0-.924-2.175A2.983,2.983,0,0,0,35.138-9.335ZM46.277.2a5.006,5.006,0,0,1-2.847-.763,3.155,3.155,0,0,1-1.386-2.17l1.622-.462a2.262,2.262,0,0,0,.865,1.466,2.805,2.805,0,0,0,1.735.521,3.462,3.462,0,0,0,1.015-.14,1.627,1.627,0,0,0,.779-.521,1.4,1.4,0,0,0,.312-.961,1.4,1.4,0,0,0-.086-.435,1.865,1.865,0,0,0-.172-.349,1.064,1.064,0,0,0-.3-.29,3.966,3.966,0,0,0-.365-.226,3.749,3.749,0,0,0-.478-.2q-.317-.113-.51-.172t-.591-.172q-.4-.113-.612-.177a11.454,11.454,0,0,1-1.1-.387,4.805,4.805,0,0,1-.892-.51,2.053,2.053,0,0,1-.693-.833,2.817,2.817,0,0,1-.231-1.182,2.731,2.731,0,0,1,.516-1.687,2.9,2.9,0,0,1,1.337-.994,5.346,5.346,0,0,1,1.875-.306,4.588,4.588,0,0,1,2.573.688A2.934,2.934,0,0,1,49.93-7.992L48.4-7.605A2.022,2.022,0,0,0,47.6-8.943a2.565,2.565,0,0,0-1.515-.446,2.614,2.614,0,0,0-1.418.371,1.246,1.246,0,0,0-.591,1.133,1.128,1.128,0,0,0,.156.585,1.859,1.859,0,0,0,.317.414,1.948,1.948,0,0,0,.58.317q.419.167.623.226t.773.2q.107.032.161.043.623.161,1.015.285a6.24,6.24,0,0,1,.913.387,3.036,3.036,0,0,1,.822.575,2.663,2.663,0,0,1,.516.816A2.882,2.882,0,0,1,50.166-2.9a3.075,3.075,0,0,1-.317,1.423,2.479,2.479,0,0,1-.865.972,4.182,4.182,0,0,1-1.23.532A5.86,5.86,0,0,1,46.277.2ZM56.461,0A2.776,2.776,0,0,1,54.4-.757a2.865,2.865,0,0,1-.752-2.111V-9.077H51.487V-10.56h.795a1.526,1.526,0,0,0,1.166-.371,1.824,1.824,0,0,0,.338-1.241v-1.912h1.729v3.523h2.428v1.482H55.516v6.016a1.6,1.6,0,0,0,.4,1.166,1.411,1.411,0,0,0,1.058.414h.967V0Zm5.113-13.041a1.209,1.209,0,0,1-.886-.371,1.209,1.209,0,0,1-.371-.886,1.192,1.192,0,0,1,.371-.881,1.218,1.218,0,0,1,.886-.365,1.206,1.206,0,0,1,.875.365,1.192,1.192,0,0,1,.371.881,1.209,1.209,0,0,1-.371.886A1.2,1.2,0,0,1,61.574-13.041ZM60.629,0V-10.56H62.5V0Zm13.3-10.56h1.8V-.537a5.752,5.752,0,0,1-1.364,4.114,4.959,4.959,0,0,1-3.781,1.439,4.992,4.992,0,0,1-5.124-3.233L67,1.031A3.491,3.491,0,0,0,70.533,3.47a3.031,3.031,0,0,0,2.476-1.031A4.389,4.389,0,0,0,73.863-.44V-2.4a3.721,3.721,0,0,1-1.5,1.52,4.376,4.376,0,0,1-2.2.575,4.527,4.527,0,0,1-3.416-1.488,5.247,5.247,0,0,1-1.407-3.754,5.2,5.2,0,0,1,1.413-3.744,4.572,4.572,0,0,1,3.432-1.477,4.266,4.266,0,0,1,2.213.591,3.8,3.8,0,0,1,1.493,1.558ZM70.576-1.88a3.2,3.2,0,0,0,2.433-1.085,3.666,3.666,0,0,0,1-2.578,3.691,3.691,0,0,0-1-2.589,3.189,3.189,0,0,0-2.438-1.085,3.217,3.217,0,0,0-2.433,1.053,3.671,3.671,0,0,0-.994,2.621,3.64,3.64,0,0,0,1,2.6A3.219,3.219,0,0,0,70.576-1.88ZM81.952.2a3.593,3.593,0,0,1-2.315-.725,2.6,2.6,0,0,1-.908-2.165,3.076,3.076,0,0,1,.29-1.38,2.434,2.434,0,0,1,.859-.961,5.155,5.155,0,0,1,1.241-.6A11.469,11.469,0,0,1,82.726-6l1.708-.279q.935-.172.935-.978a1.845,1.845,0,0,0-.661-1.574,2.692,2.692,0,0,0-1.67-.5,2.742,2.742,0,0,0-1.654.483A2.023,2.023,0,0,0,80.6-7.369l-1.676-.354a3.225,3.225,0,0,1,1.321-2.261,4.937,4.937,0,0,1,2.879-.757,5.839,5.839,0,0,1,1.531.188,4.16,4.16,0,0,1,1.278.591,2.65,2.65,0,0,1,.913,1.139,4.237,4.237,0,0,1,.328,1.735v4.361a1.784,1.784,0,0,0,.242,1.1,1.043,1.043,0,0,0,.833.285h.172V0H87.5a1.762,1.762,0,0,1-2-1.429h-.086A4.035,4.035,0,0,1,81.952.2Zm.43-1.5A2.818,2.818,0,0,0,84.648-2.32a4.2,4.2,0,0,0,.859-2.793l-2.793.537a3.76,3.76,0,0,0-1.638.585,1.362,1.362,0,0,0-.532,1.155,1.346,1.346,0,0,0,.51,1.16A2.181,2.181,0,0,0,82.382-1.3ZM95.208.193a5.086,5.086,0,0,1-3.781-1.515,5.4,5.4,0,0,1-1.493-3.964,5.414,5.414,0,0,1,1.488-3.964,5.081,5.081,0,0,1,3.787-1.515,5.123,5.123,0,0,1,3.056.924,4.662,4.662,0,0,1,1.778,2.567l-1.74.279a3.214,3.214,0,0,0-1.192-1.644,3.247,3.247,0,0,0-1.912-.58,3.122,3.122,0,0,0-2.444,1.085,4.133,4.133,0,0,0-.961,2.847,4.113,4.113,0,0,0,.961,2.841A3.129,3.129,0,0,0,95.2-1.364a3.247,3.247,0,0,0,1.912-.58A3.214,3.214,0,0,0,98.3-3.588l1.74.29A4.668,4.668,0,0,1,98.253-.736,5.115,5.115,0,0,1,95.208.193Zm8.519-13.234a1.209,1.209,0,0,1-.886-.371,1.209,1.209,0,0,1-.371-.886,1.192,1.192,0,0,1,.371-.881,1.218,1.218,0,0,1,.886-.365,1.206,1.206,0,0,1,.875.365,1.192,1.192,0,0,1,.371.881,1.209,1.209,0,0,1-.371.886A1.2,1.2,0,0,1,103.727-13.041ZM102.781,0V-10.56h1.869V0Zm9.389-12.375,2.7-3.5.988.72-2.406,2.782ZM112.879.2a5.566,5.566,0,0,1-2.707-.655,4.771,4.771,0,0,1-1.907-1.917,5.89,5.89,0,0,1-.7-2.917,5.38,5.38,0,0,1,1.5-3.98,5.173,5.173,0,0,1,3.819-1.5,5.168,5.168,0,0,1,3.824,1.5,5.39,5.39,0,0,1,1.493,3.98,5.394,5.394,0,0,1-1.5,3.991A5.173,5.173,0,0,1,112.879.2Zm-.011-1.547a3.243,3.243,0,0,0,2.5-1.085,4.065,4.065,0,0,0,.994-2.857,4.05,4.05,0,0,0-.994-2.847,3.243,3.243,0,0,0-2.5-1.085,3.2,3.2,0,0,0-2.476,1.085,4.077,4.077,0,0,0-.983,2.847,4.092,4.092,0,0,0,.983,2.857A3.2,3.2,0,0,0,112.868-1.343Zm13.224-9.421a3.673,3.673,0,0,1,2.659.956,3.566,3.566,0,0,1,.994,2.7V0h-1.858V-6.692a2.5,2.5,0,0,0-.645-1.891,2.3,2.3,0,0,0-1.654-.612,2.555,2.555,0,0,0-1.88.725,2.942,2.942,0,0,0-.741,2.154V0h-1.858V-10.56h1.858v1.354A3.526,3.526,0,0,1,126.092-10.764ZM146.008.2a8.035,8.035,0,0,1-2.976-.542,7.186,7.186,0,0,1-2.39-1.525,6.8,6.8,0,0,1-1.59-2.455,8.878,8.878,0,0,1-.575-3.255,8.732,8.732,0,0,1,.58-3.239,6.964,6.964,0,0,1,1.59-2.455,7.017,7.017,0,0,1,2.385-1.525,8.107,8.107,0,0,1,2.976-.537,7.684,7.684,0,0,1,4.023,1.063,6.626,6.626,0,0,1,2.659,2.954l-1.772.73a4.98,4.98,0,0,0-1.982-2.154,5.688,5.688,0,0,0-2.927-.757,6.015,6.015,0,0,0-2.2.4,5.277,5.277,0,0,0-1.783,1.139,5.141,5.141,0,0,0-1.2,1.869,6.935,6.935,0,0,0-.435,2.514,6.978,6.978,0,0,0,.435,2.519,5.133,5.133,0,0,0,1.2,1.875,5.346,5.346,0,0,0,1.783,1.144,5.944,5.944,0,0,0,2.2.4,5.688,5.688,0,0,0,2.927-.757,4.993,4.993,0,0,0,1.982-2.143l1.772.72a6.592,6.592,0,0,1-2.653,2.959A7.706,7.706,0,0,1,146.008.2Zm11.935,0a3.593,3.593,0,0,1-2.315-.725,2.6,2.6,0,0,1-.908-2.165,3.076,3.076,0,0,1,.29-1.38,2.433,2.433,0,0,1,.859-.961,5.155,5.155,0,0,1,1.241-.6A11.469,11.469,0,0,1,158.716-6l1.708-.279q.935-.172.935-.978a1.845,1.845,0,0,0-.661-1.574,2.692,2.692,0,0,0-1.67-.5,2.742,2.742,0,0,0-1.654.483,2.023,2.023,0,0,0-.784,1.482l-1.676-.354a3.225,3.225,0,0,1,1.321-2.261,4.937,4.937,0,0,1,2.879-.757,5.839,5.839,0,0,1,1.531.188,4.16,4.16,0,0,1,1.278.591,2.65,2.65,0,0,1,.913,1.139,4.237,4.237,0,0,1,.328,1.735v4.361a1.784,1.784,0,0,0,.242,1.1,1.043,1.043,0,0,0,.833.285h.172V0h-.924a1.762,1.762,0,0,1-2-1.429H161.4A4.035,4.035,0,0,1,157.942.2Zm.43-1.5a2.818,2.818,0,0,0,2.267-1.021,4.2,4.2,0,0,0,.859-2.793l-2.793.537a3.76,3.76,0,0,0-1.638.585,1.362,1.362,0,0,0-.532,1.155,1.346,1.346,0,0,0,.51,1.16A2.181,2.181,0,0,0,158.372-1.3ZM173.6-10.56h1.858V0H173.68l-.043-1.4a3.3,3.3,0,0,1-1.311,1.187A4.031,4.031,0,0,1,170.479.2a3.673,3.673,0,0,1-2.659-.956,3.566,3.566,0,0,1-.994-2.7V-10.56h1.858v6.692a2.506,2.506,0,0,0,.65,1.891,2.3,2.3,0,0,0,1.66.623,2.527,2.527,0,0,0,1.875-.73,2.975,2.975,0,0,0,.736-2.159ZM182.585.2a5.006,5.006,0,0,1-2.847-.763,3.155,3.155,0,0,1-1.386-2.17l1.622-.462a2.262,2.262,0,0,0,.865,1.466,2.805,2.805,0,0,0,1.735.521,3.462,3.462,0,0,0,1.015-.14,1.627,1.627,0,0,0,.779-.521,1.4,1.4,0,0,0,.312-.961,1.4,1.4,0,0,0-.086-.435,1.865,1.865,0,0,0-.172-.349,1.064,1.064,0,0,0-.3-.29,3.965,3.965,0,0,0-.365-.226,3.749,3.749,0,0,0-.478-.2q-.317-.113-.51-.172t-.591-.172q-.4-.113-.612-.177a11.453,11.453,0,0,1-1.1-.387,4.805,4.805,0,0,1-.892-.51,2.053,2.053,0,0,1-.693-.833,2.817,2.817,0,0,1-.231-1.182,2.731,2.731,0,0,1,.516-1.687,2.9,2.9,0,0,1,1.337-.994,5.346,5.346,0,0,1,1.875-.306,4.588,4.588,0,0,1,2.573.688,2.934,2.934,0,0,1,1.284,2.063l-1.525.387a2.022,2.022,0,0,0-.806-1.337,2.565,2.565,0,0,0-1.515-.446,2.614,2.614,0,0,0-1.418.371,1.246,1.246,0,0,0-.591,1.133,1.128,1.128,0,0,0,.156.585,1.859,1.859,0,0,0,.317.414,1.948,1.948,0,0,0,.58.317q.419.167.623.226t.773.2q.107.032.161.043.623.161,1.015.285a6.24,6.24,0,0,1,.913.387,3.035,3.035,0,0,1,.822.575,2.663,2.663,0,0,1,.516.816,2.882,2.882,0,0,1,.215,1.139,3.075,3.075,0,0,1-.317,1.423,2.479,2.479,0,0,1-.865.972,4.182,4.182,0,0,1-1.23.532A5.86,5.86,0,0,1,182.585.2Zm9.249,0a3.593,3.593,0,0,1-2.315-.725,2.6,2.6,0,0,1-.908-2.165,3.076,3.076,0,0,1,.29-1.38,2.433,2.433,0,0,1,.859-.961,5.155,5.155,0,0,1,1.241-.6A11.469,11.469,0,0,1,192.607-6l1.708-.279q.935-.172.935-.978a1.845,1.845,0,0,0-.661-1.574,2.692,2.692,0,0,0-1.67-.5,2.742,2.742,0,0,0-1.654.483,2.023,2.023,0,0,0-.784,1.482L188.8-7.724a3.225,3.225,0,0,1,1.321-2.261A4.937,4.937,0,0,1,193-10.742a5.839,5.839,0,0,1,1.531.188,4.16,4.16,0,0,1,1.278.591,2.65,2.65,0,0,1,.913,1.139,4.237,4.237,0,0,1,.328,1.735v4.361a1.784,1.784,0,0,0,.242,1.1,1.043,1.043,0,0,0,.833.285h.172V0h-.924a1.762,1.762,0,0,1-2-1.429h-.086A4.035,4.035,0,0,1,191.834.2Zm.43-1.5A2.818,2.818,0,0,0,194.53-2.32a4.2,4.2,0,0,0,.859-2.793l-2.793.537a3.76,3.76,0,0,0-1.638.585,1.362,1.362,0,0,0-.532,1.155,1.346,1.346,0,0,0,.51,1.16A2.181,2.181,0,0,0,192.264-1.3ZM200.922,0V-16.5h1.88V0Z" transform="translate(960 8509)" fill="#00223d"/>
    <path id="Trazado_36839" data-name="Trazado 36839" d="M12,0,24,21H0Z" transform="translate(900.939 8009.59) rotate(45)" fill="#ff8f00"/>
    <path id="Trazado_36845" data-name="Trazado 36845" d="M12,0,24,21H0Z" transform="translate(917.91 8501.439) rotate(135)" fill="#ff8f00"/>
  </g>
</svg>
