<svg id="Grupo_17444" data-name="Grupo 17444" xmlns="http://www.w3.org/2000/svg" xmlns:xlink="http://www.w3.org/1999/xlink" width="103.173" height="95" viewBox="0 0 103.173 95">
  <defs>
    <clipPath id="clip-path">
      <rect id="Rectángulo_4401" data-name="Rectángulo 4401" width="103.173" height="95" fill="none"/>
    </clipPath>
  </defs>
  <path id="Trazado_35915" data-name="Trazado 35915" d="M43.689,136.018l-2.1-1.166,10.4-18.715,5.294,5.534,9.255-16.317L72,112.963,82.863,91.73l5.431,8.393,6.667-9.792,1.985,1.351-8.7,12.782-5.136-7.937L72.351,117.56l-5.578-7.76-9,15.863L52.5,120.151Z" transform="translate(-32.88 -71.414)" fill="#3d4451"/>
  <g id="Grupo_17443" data-name="Grupo 17443">
    <g id="Grupo_17442" data-name="Grupo 17442" clip-path="url(#clip-path)">
      <path id="Trazado_35916" data-name="Trazado 35916" d="M65.474,407.014c0,2.113-14.657,3.826-32.737,3.826S0,409.127,0,407.014s14.657-3.826,32.737-3.826,32.737,1.713,32.737,3.826" transform="translate(0 -318.755)" fill="#7eb9c7"/>
      <rect id="Rectángulo_4397" data-name="Rectángulo 4397" width="11.287" height="49.231" transform="translate(49.144 36.643)" fill="#fdc345"/>
      <path id="Trazado_35917" data-name="Trazado 35917" d="M243.055,221.3H229.674V169.979h13.381Zm-11.287-2.094h9.193V172.073h-9.193Z" transform="translate(-181.577 -134.383)" fill="#3d4451"/>
      <rect id="Rectángulo_4398" data-name="Rectángulo 4398" width="10.16" height="36.743" transform="translate(34.127 49.131)" fill="#f04f4c"/>
      <path id="Trazado_35918" data-name="Trazado 35918" d="M170.216,268.448H157.962V229.611h12.254Zm-10.16-2.094h8.065V231.705h-8.065Z" transform="translate(-124.882 -181.527)" fill="#3d4451"/>
      <rect id="Rectángulo_4399" data-name="Rectángulo 4399" width="8.253" height="15.13" transform="translate(7.358 70.745)" fill="#c7ddeb"/>
      <path id="Trazado_35919" data-name="Trazado 35919" d="M41.063,350.626H31.134v-16.8h9.929Zm-8.253-1.675h6.578V335.5H32.809Z" transform="translate(-24.614 -263.914)" fill="#3d4451"/>
      <rect id="Rectángulo_4400" data-name="Rectángulo 4400" width="9.255" height="26.666" transform="translate(20.448 59.208)" fill="#7eb9c7"/>
      <path id="Trazado_35920" data-name="Trazado 35920" d="M104.573,307.074H93.642V278.733h10.931ZM95.317,305.4h7.58v-24.99h-7.58Z" transform="translate(-74.032 -220.362)" fill="#3d4451"/>
      <path id="Trazado_35921" data-name="Trazado 35921" d="M110.564,16.112a36.147,36.147,0,1,0,0,51.12,36.146,36.146,0,0,0,0-51.12m-4.193,46.927a30.218,30.218,0,1,1,0-42.734,30.218,30.218,0,0,1,0,42.734" transform="translate(-38.626 -4.368)" fill="#c7ddeb"/>
      <path id="Trazado_35922" data-name="Trazado 35922" d="M396.511,359.455a3.484,3.484,0,0,1,.358,4.842l-3.284,3.284a3.485,3.485,0,0,1-4.842-.358l-12.492-12.492a3.4,3.4,0,0,1-.293-4.775l3.284-3.284a3.4,3.4,0,0,1,4.776.292Z" transform="translate(-296.556 -273.402)" fill="#c7ddeb"/>
      <path id="Trazado_35923" data-name="Trazado 35923" d="M77.855,74.625a37.291,37.291,0,1,1,26.39-10.913,37.205,37.205,0,0,1-26.39,10.913m0-72.276a34.972,34.972,0,1,0,24.729,10.243A34.744,34.744,0,0,0,77.855,2.349" transform="translate(-32.046)" fill="#3d4451"/>
      <path id="Trazado_35924" data-name="Trazado 35924" d="M101.174,91.784a31.144,31.144,0,1,1,22.033-9.112,31.061,31.061,0,0,1-22.033,9.112m0-60.516a29.372,29.372,0,1,0,20.779,8.593,29.292,29.292,0,0,0-20.779-8.593" transform="translate(-55.365 -23.32)" fill="#3d4451"/>
      <path id="Trazado_35925" data-name="Trazado 35925" d="M340.584,294.66,330.45,284.526l6.5-6.5,10.134,10.134Zm-8.12-10.134,8.12,8.12,4.485-4.485-8.12-8.12Z" transform="translate(-261.249 -219.804)" fill="#3d4451"/>
      <path id="Trazado_35926" data-name="Trazado 35926" d="M391.269,347.2q-.094,0-.189,0a4.416,4.416,0,0,1-2.936-1.3l-12.492-12.491a4.268,4.268,0,0,1-1.267-2.914,3.9,3.9,0,0,1,1.139-2.892l3.526-3.526a3.927,3.927,0,0,1,2.893-1.139,4.266,4.266,0,0,1,2.914,1.266l12.492,12.491a4.417,4.417,0,0,1,1.3,2.937,3.855,3.855,0,0,1-1.106,2.936l-3.526,3.526a3.835,3.835,0,0,1-2.748,1.109m-9.432-23.043a2.685,2.685,0,0,0-1.92.782l-3.527,3.526a2.691,2.691,0,0,0-.78,2,3.046,3.046,0,0,0,.908,2.079l12.492,12.492a3.239,3.239,0,0,0,2.123.941,2.653,2.653,0,0,0,2.018-.748l3.526-3.526a2.646,2.646,0,0,0,.748-2.018,3.24,3.24,0,0,0-.941-2.124l-12.492-12.492a3.047,3.047,0,0,0-2.079-.908h-.076" transform="translate(-295.983 -255.308)" fill="#3d4451"/>
      <path id="Trazado_35927" data-name="Trazado 35927" d="M389.368,345.8c-.07,0-.141,0-.211,0a4.917,4.917,0,0,1-3.27-1.446l-12.492-12.492a4.769,4.769,0,0,1-1.414-3.257,4.4,4.4,0,0,1,1.286-3.262l3.526-3.526a4.424,4.424,0,0,1,3.262-1.286,4.767,4.767,0,0,1,3.257,1.413L395.8,334.436a4.919,4.919,0,0,1,1.446,3.271A4.354,4.354,0,0,1,396,341.021l-3.525,3.526a4.332,4.332,0,0,1-3.1,1.257m-9.432-23.043a2.186,2.186,0,0,0-1.564.634l-3.527,3.526a2.192,2.192,0,0,0-.633,1.626,2.547,2.547,0,0,0,.761,1.736l12.492,12.492a2.728,2.728,0,0,0,1.789.794,2.148,2.148,0,0,0,1.64-.6l3.526-3.526a2.148,2.148,0,0,0,.6-1.64,2.731,2.731,0,0,0-.794-1.789l-12.492-12.492a2.544,2.544,0,0,0-1.736-.76h-.062" transform="translate(-294.082 -253.406)" fill="#3d4451"/>
      <path id="Trazado_35928" data-name="Trazado 35928" d="M405.307,371.388a.611.611,0,0,1-.433-.179l-11.717-11.717a.612.612,0,0,1,.866-.866l11.717,11.717a.612.612,0,0,1-.433,1.045" transform="translate(-310.683 -283.383)" fill="#3d4451"/>
      <path id="Trazado_35929" data-name="Trazado 35929" d="M289.268,92.759a2.642,2.642,0,1,1-2.642-2.642,2.642,2.642,0,0,1,2.642,2.642" transform="translate(-224.514 -71.245)" fill="#f04f4c"/>
      <path id="Trazado_35930" data-name="Trazado 35930" d="M282.546,92.4a3.722,3.722,0,1,1,3.722-3.722,3.726,3.726,0,0,1-3.722,3.722m0-5.283a1.561,1.561,0,1,0,1.561,1.561,1.563,1.563,0,0,0-1.561-1.561" transform="translate(-220.434 -67.166)" fill="#3d4451"/>
      <path id="Trazado_35931" data-name="Trazado 35931" d="M42.137,295.165a2.642,2.642,0,1,1-2.642-2.642,2.641,2.641,0,0,1,2.642,2.642" transform="translate(-29.136 -231.264)" fill="#f04f4c"/>
      <path id="Trazado_35932" data-name="Trazado 35932" d="M35.415,294.807a3.722,3.722,0,1,1,3.722-3.722,3.726,3.726,0,0,1-3.722,3.722m0-5.283a1.561,1.561,0,1,0,1.561,1.561,1.563,1.563,0,0,0-1.561-1.561" transform="translate(-25.056 -227.185)" fill="#3d4451"/>
    </g>
  </g>
</svg>
