<svg id="Grupo_17448" data-name="Grupo 17448" xmlns="http://www.w3.org/2000/svg" xmlns:xlink="http://www.w3.org/1999/xlink" width="116.634" height="90.365" viewBox="0 0 116.634 90.365">
  <defs>
    <clipPath id="clip-path">
      <rect id="Rectángulo_4403" data-name="Rectángulo 4403" width="116.634" height="90.365" fill="none"/>
    </clipPath>
  </defs>
  <g id="Grupo_17447" data-name="Grupo 17447" clip-path="url(#clip-path)">
    <path id="Trazado_35944" data-name="Trazado 35944" d="M23.411,318.462c1.751-8.5,8.878-16.1,17.395-16.09,7.667.008,14.19,5.614,16.682,13.048l1.336-.122c.694-2.21,1.388-3.857,2.083-6.066l1.629-5.185a18.655,18.655,0,0,1,2.208-5.471c1.138-1.585,3.785-3.078,5.646-1.647,2.1,1.612.138,4.478-1.63,5.462L64.084,322.3s-8.475-.008-8.475-.01a3.382,3.382,0,0,1-.686.071l-28.278-.031a3.251,3.251,0,0,1-3.235-3.872" transform="translate(-18.35 -232.945)" fill="#7eb9c7"/>
    <path id="Trazado_35945" data-name="Trazado 35945" d="M46.563,299.286l-2.855-.392,2.972-21.658.988-.211a3.9,3.9,0,0,0,.735-.327c.231-.119.493-.255.77-.368,2.464-1.011,4.717-3.4,4.01-5.223a2.211,2.211,0,0,0-1.278-1.2,6.9,6.9,0,0,0-5.062.277c-2.464,1.011-4.717,3.4-4.01,5.223a1.807,1.807,0,0,0,.386.59l.65.687-4.65,10.859-1.458-2.365c-3.77-6.116-9.689-9.771-15.835-9.778h-.015a17.728,17.728,0,0,0-12.361,5.568,24.475,24.475,0,0,0-6.666,17.806L0,298.824A27.33,27.33,0,0,1,7.5,278.95a20.619,20.619,0,0,1,14.413-6.426h.018c6.359.007,12.467,3.3,16.764,8.932l1.824-4.26a4.468,4.468,0,0,1-.37-.74c-1.247-3.208,1.214-7.132,5.6-8.932a9.7,9.7,0,0,1,7.292-.26,5.047,5.047,0,0,1,2.827,2.8c1.247,3.209-1.214,7.132-5.6,8.933-.161.066-.346.162-.543.263-.142.073-.29.15-.445.223Z" transform="translate(0 -209.614)" fill="#3d4451"/>
    <path id="Trazado_35946" data-name="Trazado 35946" d="M55.1,214.7a11.917,11.917,0,1,0-11.273-11.287A11.917,11.917,0,0,0,55.1,214.7" transform="translate(-34.434 -150.042)" fill="#fff"/>
    <path id="Trazado_35947" data-name="Trazado 35947" d="M51.442,211.614q-.335,0-.671-.017a13.12,13.12,0,1,1,.671.017m.032-23.832a10.736,10.736,0,1,0,.557.014c-.186-.01-.372-.014-.557-.014" transform="translate(-30.168 -145.779)" fill="#3d4451"/>
    <path id="Trazado_35948" data-name="Trazado 35948" d="M67.166,232.631a8.681,8.681,0,1,0-8.229-8.227,8.693,8.693,0,0,0,8.229,8.227" transform="translate(-46.318 -169.221)" fill="#7eb9c7"/>
    <path id="Trazado_35949" data-name="Trazado 35949" d="M39.967,376.641a1.045,1.045,0,0,1-1.045-1.045V365.244a1.045,1.045,0,0,1,2.09,0V375.6a1.045,1.045,0,0,1-1.045,1.045" transform="translate(-30.594 -286.276)" fill="#3d4451"/>
    <path id="Trazado_35950" data-name="Trazado 35950" d="M387.682,212.995a12.621,12.621,0,1,0-11.939-11.954,12.621,12.621,0,0,0,11.939,11.954" transform="translate(-295.336 -147.596)" fill="#fff"/>
    <path id="Trazado_35951" data-name="Trazado 35951" d="M384.065,209.91c-.236,0-.471-.006-.707-.018a13.819,13.819,0,1,1,.707.018m-.588-2.338a11.459,11.459,0,1,0-10.839-10.853A11.488,11.488,0,0,0,383.477,207.572Z" transform="translate(-291.072 -143.333)" fill="#3d4451"/>
    <path id="Trazado_35952" data-name="Trazado 35952" d="M333.108,334.992c1.411-10.666,11.723-22.46,22.416-22.448s20.2,10.63,21.8,21.92" transform="translate(-261.837 -245.673)" fill="#fff"/>
    <path id="Trazado_35953" data-name="Trazado 35953" d="M330.03,330.878l-2.3-.3a29.382,29.382,0,0,1,8.039-15.878c4.672-4.888,10.18-7.579,15.513-7.579h.017c5.377.006,10.756,2.523,15.147,7.087a29.3,29.3,0,0,1,7.8,15.833l-2.3.325c-1.6-11.33-11.055-20.911-20.648-20.921h-.014c-4.625,0-9.666,2.5-13.835,6.861a27.405,27.405,0,0,0-7.415,14.578" transform="translate(-257.607 -241.406)" fill="#3d4451"/>
    <path id="Trazado_35954" data-name="Trazado 35954" d="M398.164,231.143a9.62,9.62,0,1,0-9.241-9.111,9.695,9.695,0,0,0,9.241,9.111" transform="translate(-305.7 -166.577)" fill="#7eb9c7"/>
    <path id="Trazado_35955" data-name="Trazado 35955" d="M438.856,344.468c-1.769-8.2-9.028-15.54-17.724-15.55a15.593,15.593,0,0,0-4.047.534v18.721l18.46.02a3.193,3.193,0,0,0,3.311-3.726" transform="translate(-327.846 -258.543)" fill="#7eb9c7"/>
    <path id="Trazado_35956" data-name="Trazado 35956" d="M231.251,36.16H193.6a5.465,5.465,0,0,0-5.676,5.19V54.67a5.465,5.465,0,0,0,5.676,5.19h4.446l-.683,10.453,8.926-10.453h24.961a5.465,5.465,0,0,0,5.676-5.19V41.35a5.465,5.465,0,0,0-5.676-5.19" transform="translate(-147.717 -28.423)" fill="#c7ddeb"/>
    <path id="Trazado_35957" data-name="Trazado 35957" d="M158.932,46.151l.907-15.139h-3.705a7.463,7.463,0,0,1-7.466-7.443V7.444A7.463,7.463,0,0,1,156.134,0h41.818a7.463,7.463,0,0,1,7.466,7.443V23.568a7.463,7.463,0,0,1-7.466,7.443H170.793Zm-2.8-43.828a5.138,5.138,0,0,0-5.143,5.121V23.568a5.138,5.138,0,0,0,5.143,5.121h6.171L161.7,38.858l7.967-10.168h28.289a5.138,5.138,0,0,0,5.143-5.121V7.444a5.138,5.138,0,0,0-5.143-5.121Z" transform="translate(-116.859 -0.001)" fill="#3d4451"/>
    <path id="Trazado_35958" data-name="Trazado 35958" d="M340.731,359.505v-15.6c0-.486-.261-.879-.583-.879H319.969c-.322,0-.583.394-.583.879v15.6Z" transform="translate(-251.051 -269.637)" fill="#c7ddeb"/>
    <path id="Trazado_35959" data-name="Trazado 35959" d="M297.828,345.725h-2.323V327.459a1.92,1.92,0,0,1,1.873-1.959h23.938a1.92,1.92,0,0,1,1.873,1.959V344.8h-2.323V327.823h-23.04Z" transform="translate(-232.279 -255.857)" fill="#3d4451"/>
    <path id="Trazado_35960" data-name="Trazado 35960" d="M336.145,310.241h-4.17a2.639,2.639,0,0,0,.018-.3,2.84,2.84,0,0,0-5.676,0,2.631,2.631,0,0,0,.018.3H322.69a1.6,1.6,0,0,0-1.629,1.568v2.326a1.6,1.6,0,0,0,1.63,1.567h13.455a1.6,1.6,0,0,0,1.629-1.568v-2.326a1.6,1.6,0,0,0-1.63-1.567" transform="translate(-252.368 -241.478)" fill="#fdc345"/>
    <path id="Trazado_35961" data-name="Trazado 35961" d="M319.7,313.53a2.415,2.415,0,0,1-2.443-2.38v-2.326a2.415,2.415,0,0,1,2.442-2.381h2.851a3.479,3.479,0,0,1,1.043-2.008,3.686,3.686,0,0,1,2.57-1.027h0a3.623,3.623,0,0,1,3.613,3.034h3.377a2.415,2.415,0,0,1,2.442,2.38v2.326a2.334,2.334,0,0,1-.726,1.694,2.46,2.46,0,0,1-1.716.687Zm6.464-8.5h0a2.068,2.068,0,0,0-1.443.573,1.856,1.856,0,0,0-.582,1.345,1.83,1.83,0,0,0,.012.21l.1.906H319.7a.788.788,0,0,0-.816.755v2.326a.789.789,0,0,0,.817.754h13.455a.841.841,0,0,0,.588-.232.723.723,0,0,0,.228-.523v-2.326a.789.789,0,0,0-.817-.754h-5.082l.1-.906a1.835,1.835,0,0,0,.012-.21,1.976,1.976,0,0,0-2.025-1.918" transform="translate(-249.381 -238.491)" fill="#3d4451"/>
    <path id="Trazado_35962" data-name="Trazado 35962" d="M378.005,390.977a7.552,7.552,0,1,1,15.1,0" transform="translate(-297.128 -301.208)" fill="#7eb9c7"/>
    <path id="Trazado_35963" data-name="Trazado 35963" d="M390.617,387.564h-1.858a6.623,6.623,0,1,0-13.239,0h-1.858a8.481,8.481,0,1,1,16.955,0" transform="translate(-293.714 -297.795)" fill="#3d4451"/>
    <path id="Trazado_35964" data-name="Trazado 35964" d="M214.165,45.978H189.314a1.277,1.277,0,1,1,0-2.555h24.852a1.277,1.277,0,1,1,0,2.555" transform="translate(-147.804 -34.132)" fill="#3d4451"/>
    <path id="Trazado_35965" data-name="Trazado 35965" d="M341.805,46.167h-5.849a1.372,1.372,0,0,1,0-2.745h5.849a1.372,1.372,0,1,1,0,2.745" transform="translate(-262.997 -34.132)" fill="#3d4451"/>
    <path id="Trazado_35966" data-name="Trazado 35966" d="M198.514,84.359h-5.849a1.372,1.372,0,0,1,0-2.745h5.849a1.372,1.372,0,1,1,0,2.745" transform="translate(-150.364 -64.152)" fill="#3d4451"/>
    <path id="Trazado_35967" data-name="Trazado 35967" d="M257.355,84.359H244.771a1.372,1.372,0,1,1,0-2.745h12.584a1.372,1.372,0,1,1,0,2.745" transform="translate(-191.321 -64.152)" fill="#3d4451"/>
    <path id="Trazado_35968" data-name="Trazado 35968" d="M334.594,84.359h-5.152a1.372,1.372,0,1,1,0-2.745h5.152a1.372,1.372,0,1,1,0,2.745" transform="translate(-257.877 -64.152)" fill="#3d4451"/>
  </g>
</svg>
