<svg xmlns="http://www.w3.org/2000/svg" xmlns:xlink="http://www.w3.org/1999/xlink" width="1316" height="1014" viewBox="0 0 1316 1014">
  <defs>
    <linearGradient id="linear-gradient" x1="0.5" x2="0.5" y2="1" gradientUnits="objectBoundingBox">
      <stop offset="0" stop-color="#953bbf"/>
      <stop offset="1" stop-color="#4b1e60"/>
    </linearGradient>
    <linearGradient id="linear-gradient-2" x1="0.5" x2="0.5" y2="1" gradientUnits="objectBoundingBox">
      <stop offset="0" stop-color="#6b3bbf"/>
      <stop offset="1" stop-color="#361e60"/>
    </linearGradient>
    <linearGradient id="linear-gradient-3" x1="0.5" x2="0.5" y2="1" gradientUnits="objectBoundingBox">
      <stop offset="0" stop-color="#5aa1da"/>
      <stop offset="1" stop-color="#2d516d"/>
    </linearGradient>
    <linearGradient id="linear-gradient-4" x1="0.5" x2="0.5" y2="1" gradientUnits="objectBoundingBox">
      <stop offset="0" stop-color="#ff8f00"/>
      <stop offset="1" stop-color="#804800"/>
    </linearGradient>
    <linearGradient id="linear-gradient-5" x1="0.5" x2="0.5" y2="1" gradientUnits="objectBoundingBox">
      <stop offset="0" stop-color="#00ffe2"/>
      <stop offset="1" stop-color="#008071"/>
    </linearGradient>
  </defs>
  <g id="Grupo_17684" data-name="Grupo 17684" transform="translate(-422 -15194)">
    <g id="Sustracción_1" data-name="Sustracción 1" transform="translate(1588 13895)" fill="none">
      <path d="M-998,2101.36h0V1390.64a362.808,362.808,0,0,1,58.875,18.657,364.406,364.406,0,0,1,54.079,27.9,366.786,366.786,0,0,1,48.342,36.2,367.6,367.6,0,0,1,41.663,43.562A366.066,366.066,0,0,1-761,1566.941a363.452,363.452,0,0,1,25.482,55.461A363.074,363.074,0,0,1-714,1746a363.076,363.076,0,0,1-21.515,123.6A363.463,363.463,0,0,1-761,1925.059a366.08,366.08,0,0,1-34.043,49.982A367.6,367.6,0,0,1-836.7,2018.6a366.775,366.775,0,0,1-48.342,36.2,364.363,364.363,0,0,1-54.079,27.9A362.778,362.778,0,0,1-998,2101.36Z" stroke="none"/>
      <path d="M -996.9999389648438 2100.107666015625 C -977.4081420898438 2095.625 -958.07177734375 2089.4609375 -939.5068969726562 2081.778564453125 C -920.858154296875 2074.061767578125 -902.71337890625 2064.700927734375 -885.5763549804688 2053.9560546875 C -868.6036987304688 2043.314575195312 -852.3836669921875 2031.168090820312 -837.3666381835938 2017.854125976562 C -822.3887939453125 2004.574829101562 -808.4095458984375 1989.958618164062 -795.8171997070312 1974.411865234375 C -783.1660766601562 1958.792236328125 -771.74365234375 1942.022094726562 -761.8672485351562 1924.567016601562 C -751.8763427734375 1906.90966796875 -743.3265380859375 1888.30126953125 -736.4554443359375 1869.2587890625 C -722.2184448242188 1829.803100585938 -714.999755859375 1788.332763671875 -714.999755859375 1745.999877929688 C -714.999755859375 1703.666870117188 -722.2184448242188 1662.196655273438 -736.4554443359375 1622.741088867188 C -743.3262939453125 1603.69921875 -751.8760986328125 1585.0908203125 -761.8672485351562 1567.432983398438 C -771.7427978515625 1549.979125976562 -783.1651611328125 1533.208984375 -795.8171997070312 1517.588256835938 C -808.4100952148438 1502.040649414062 -822.3893432617188 1487.424438476562 -837.3666381835938 1474.145629882812 C -852.3829345703125 1460.832275390625 -868.60302734375 1448.685791015625 -885.5763549804688 1438.043823242188 C -902.71484375 1427.29833984375 -920.859619140625 1417.9375 -939.5068969726562 1410.221069335938 C -958.0719604492188 1402.5390625 -977.4083251953125 1396.374877929688 -996.9999389648438 1391.892211914062 L -996.9999389648438 2100.107666015625 M -998.0006103515625 2101.360107421875 L -997.9999389648438 2101.35986328125 L -997.9999389648438 1390.639892578125 C -977.9331665039062 1395.1572265625 -958.1251831054688 1401.434692382812 -939.1245727539062 1409.297119140625 C -920.426025390625 1417.03466796875 -902.2310180664062 1426.42138671875 -885.045166015625 1437.196533203125 C -868.0250854492188 1447.867919921875 -851.7604370117188 1460.047729492188 -836.7032470703125 1473.397338867188 C -821.685302734375 1486.712280273438 -807.6676635742188 1501.368530273438 -795.0401000976562 1516.958862304688 C -782.3540649414062 1532.62158203125 -770.9000854492188 1549.437866210938 -760.9968872070312 1566.940551757812 C -750.9782104492188 1584.647094726562 -742.4048461914062 1603.306762695312 -735.5148315429688 1622.401733398438 C -721.2383422851562 1661.966674804688 -713.999755859375 1703.551147460938 -713.999755859375 1745.999877929688 C -713.999755859375 1788.448608398438 -721.2383422851562 1830.033081054688 -735.5148315429688 1869.598266601562 C -742.4048461914062 1888.692993164062 -750.9782104492188 1907.352905273438 -760.9968872070312 1925.059448242188 C -770.9005737304688 1942.562622070312 -782.354248046875 1959.378784179688 -795.0401000976562 1975.041137695312 C -807.6676635742188 1990.631469726562 -821.685302734375 2005.287475585938 -836.7032470703125 2018.602416992188 C -851.7604370117188 2031.952026367188 -868.0250854492188 2044.131958007812 -885.045166015625 2054.80322265625 C -902.22998046875 2065.578125 -920.4251098632812 2074.96484375 -939.1245727539062 2082.70263671875 C -958.1279907226562 2090.56640625 -977.9367065429688 2096.843505859375 -997.9999389648438 2101.35986328125 L -998.0006103515625 2101.360107421875 Z" stroke="none" fill="#472ea6"/>
    </g>
    <g id="Elipse_943" data-name="Elipse 943" transform="translate(422 15473)" fill="#efefef" stroke="#472ea6" stroke-width="1">
      <circle cx="168" cy="168" r="168" stroke="none"/>
      <circle cx="168" cy="168" r="167.5" fill="none"/>
    </g>
    <text id="Tipos_de_observación:_" data-name="Tipos de 
observación: " transform="translate(587 15616)" fill="#00223d" font-size="22" font-family="Helvetica-Bold, Helvetica" font-weight="700"><tspan x="-48.087" y="0">Tipos de </tspan><tspan x="-71.521" y="30">observación: </tspan></text>
    <rect id="Rectángulo_4607" data-name="Rectángulo 4607" width="685" height="177" rx="15" transform="translate(985 15194)" fill="url(#linear-gradient)"/>
    <text id="Observación_natural_o_artificial._La_primera_es_la_observación_del_comportamiento_en_su_expresión_real_y_tal_como_se_presenta_en_el_entorno_la_segunda_es_la_observación_desde_un_ambiente_simulado_o_creado_para_tal_fin._" data-name="Observación natural o artificial. 
La primera es la observación del comportamiento en su expresión real y tal como se presenta en el entorno; la segunda es la observación desde un ambiente simulado o creado para tal fin.
" transform="translate(1055 15223)" fill="#fff" font-size="18" font-family="Helvetica-Bold, Helvetica" font-weight="700"><tspan x="0" y="14">Observación natural o artificial.</tspan><tspan y="14" font-family="Helvetica" font-weight="400"> </tspan><tspan font-family="Helvetica" font-weight="400"><tspan x="0" y="44">La primera es la observación del comportamiento en su expresión real y </tspan><tspan x="0" y="74">tal como se presenta en el entorno; la segunda es la observación desde </tspan><tspan x="0" y="104">un ambiente simulado o creado para tal fin.</tspan></tspan><tspan font-family="CerebriSans-Regular, Cerebri Sans" font-weight="400"><tspan x="0" y="134"></tspan></tspan></text>
    <circle id="Elipse_945" data-name="Elipse 945" cx="51.5" cy="51.5" r="51.5" transform="translate(539 15239)" fill="#00ffe2"/>
    <text id="_1" data-name="1" transform="translate(581 15298)" fill="#00223d" font-size="25" font-family="Helvetica-Bold, Helvetica" font-weight="700"><tspan x="0" y="0">1</tspan></text>
    <rect id="Rectángulo_4608" data-name="Rectángulo 4608" width="685" height="177" rx="11" transform="translate(985 15389)" fill="url(#linear-gradient-2)"/>
    <text id="Observación_oculta_o_no_oculta._Se_diferencia_en_que_los_encuestados_están_conscientes_o_no_de_la_observación._" data-name="Observación oculta o no oculta.
Se diferencia en que los encuestados están conscientes o no de la observación.
" transform="translate(1055 15433)" fill="#fff" font-size="18" font-family="Helvetica-Bold, Helvetica" font-weight="700"><tspan x="0" y="14">Observación oculta o no oculta.</tspan><tspan font-family="Helvetica" font-weight="400"><tspan x="0" y="44">Se diferencia en que los encuestados están conscientes o no de la </tspan><tspan x="0" y="74">observación.</tspan></tspan><tspan font-family="CerebriSans-Regular, Cerebri Sans" font-weight="400"><tspan x="0" y="104"></tspan></tspan></text>
    <circle id="Elipse_946" data-name="Elipse 946" cx="51.5" cy="51.5" r="51.5" transform="translate(749 15352)" fill="#00ffe2"/>
    <text id="_2" data-name="2" transform="translate(791 15411)" fill="#00223d" font-size="25" font-family="Helvetica-Bold, Helvetica" font-weight="700"><tspan x="0" y="0">2</tspan></text>
    <rect id="Rectángulo_4609" data-name="Rectángulo 4609" width="685" height="177" rx="11" transform="translate(985 15587)" fill="url(#linear-gradient-3)"/>
    <text id="Observación_estructurada_o_no_estructurada._En_la_primera_se_tiene_claro_la_necesidad_de_la_información_y_los_objetivos_de_la_investigación_en_la_segunda_aún_están_por_definirse_estos_aspectos._" data-name="Observación estructurada o no estructurada.
En la primera se tiene claro la necesidad de la información y los objetivos de la investigación; en la segunda, aún están por definirse estos aspectos.
" transform="translate(1055 15616)" fill="#fff" font-size="18" font-family="Helvetica-Bold, Helvetica" font-weight="700"><tspan x="0" y="14">Observación estructurada o no estructurada.</tspan><tspan font-family="Helvetica" font-weight="400"><tspan x="0" y="44">En la primera se tiene claro la necesidad de la información y los objetivos </tspan><tspan x="0" y="74">de la investigación; en la segunda, aún están por definirse estos </tspan><tspan x="0" y="104">aspectos.</tspan></tspan><tspan font-family="CerebriSans-Regular, Cerebri Sans" font-weight="400"><tspan x="0" y="134"></tspan></tspan></text>
    <circle id="Elipse_947" data-name="Elipse 947" cx="51.5" cy="51.5" r="51.5" transform="translate(815 15571)" fill="#00ffe2"/>
    <text id="_3" data-name="3" transform="translate(857 15630)" fill="#00223d" font-size="25" font-family="Helvetica-Bold, Helvetica" font-weight="700"><tspan x="0" y="0">3</tspan></text>
    <rect id="Rectángulo_4610" data-name="Rectángulo 4610" width="753" height="177" rx="15" transform="translate(985 15784)" fill="url(#linear-gradient-4)"/>
    <text id="Observación_directa_o_indirecta._La_primera_es_aquella_que_se_hace_de_primera_mano_y_la_segunda_es_la_observación_de_registros_de_comportamientos_anteriores._" data-name="Observación directa o indirecta.
La primera es aquella que se hace de primera mano y la segunda es la observación de registros de comportamientos anteriores.
" transform="translate(1055 15818)" fill="#fff" font-size="18" font-family="Helvetica-Bold, Helvetica" font-weight="700"><tspan x="0" y="14">Observación directa o indirecta.</tspan><tspan font-family="Helvetica" font-weight="400"><tspan x="0" y="44">La primera es aquella que se hace de primera mano y la segunda es la </tspan><tspan x="0" y="74">observación de registros de comportamientos anteriores.</tspan></tspan><tspan font-family="CerebriSans-Regular, Cerebri Sans" font-weight="400"><tspan x="0" y="104"></tspan></tspan></text>
    <circle id="Elipse_948" data-name="Elipse 948" cx="51.5" cy="51.5" r="51.5" transform="translate(539 15931)" fill="#2cffe2"/>
    <text id="_5" data-name="5" transform="translate(581 15990)" fill="#00223d" font-size="25" font-family="Helvetica-Bold, Helvetica" font-weight="700"><tspan x="0" y="0">5</tspan></text>
    <circle id="Elipse_949" data-name="Elipse 949" cx="51.5" cy="51.5" r="51.5" transform="translate(749 15809)" fill="#00ffe2"/>
    <text id="_4" data-name="4" transform="translate(793 15868)" fill="#00223d" font-size="25" font-family="Helvetica-Bold, Helvetica" font-weight="700"><tspan x="0" y="0">4</tspan></text>
    <rect id="Rectángulo_4611" data-name="Rectángulo 4611" width="753" height="225" rx="15" transform="translate(985 15983)" fill="url(#linear-gradient-5)"/>
    <text id="Observación_humana_o_mecánica._La_primera_la_hace_la_persona_como_tal_y_en_la_segunda_se_utilizan_aparatos_como_audiómetros_oídos_Psicogalvanómetros_transpiración_videocámaras_pupilómetros_dilatación_del_diámetro_del_ojo_cámara_de_ojo_movimiento" data-name="Observación humana o mecánica.
La primera la hace la persona como tal y en la segunda se utilizan aparatos como audiómetros (oídos), Psicogalvanómetros (transpiración), videocámaras, pupilómetros (dilatación del diámetro del ojo), cámara de ojo (movimiento" transform="translate(1055 16017)" fill="#fff" font-size="18" font-family="Helvetica-Bold, Helvetica" font-weight="700"><tspan x="0" y="14">Observación humana o mecánica.</tspan><tspan font-family="Helvetica" font-weight="400"><tspan x="0" y="44">La primera la hace la persona como tal y en la segunda se utilizan aparatos </tspan><tspan x="0" y="74">como audiómetros (oídos), Psicogalvanómetros (transpiración), videocámaras, </tspan><tspan x="0" y="104">pupilómetros (dilatación del diámetro del ojo), cámara de ojo (movimiento del </tspan><tspan x="0" y="134">ojo).</tspan></tspan><tspan font-family="CerebriSans-Regular, Cerebri Sans" font-weight="400"><tspan x="0" y="164"></tspan></tspan></text>
  </g>
</svg>
