<svg xmlns="http://www.w3.org/2000/svg" width="451" height="424" viewBox="0 0 451 424">
  <g id="Grupo_17685" data-name="Grupo 17685" transform="translate(-735 -6538)">
    <g id="Grupo_17680" data-name="Grupo 17680">
      <g id="Trazado_36890" data-name="Trazado 36890" transform="translate(735 6538)" fill="#fff">
        <path d="M 442 58.5 L 9 58.5 C 4.313111305236816 58.5 0.5 54.6868896484375 0.5 50 L 0.5 9 C 0.5 4.313111305236816 4.313111305236816 0.5 9 0.5 L 442 0.5 C 446.6868896484375 0.5 450.5 4.313111305236816 450.5 9 L 450.5 50 C 450.5 54.6868896484375 446.6868896484375 58.5 442 58.5 Z" stroke="none"/>
        <path d="M 9 1 C 4.588775634765625 1 1 4.588779449462891 1 9 L 1 50 C 1 54.41122436523438 4.588775634765625 58 9 58 L 442 58 C 446.4112243652344 58 450 54.41122436523438 450 50 L 450 9 C 450 4.588779449462891 446.4112243652344 1 442 1 L 9 1 M 9 0 L 442 0 C 446.9705505371094 0 451 4.029445648193359 451 9 L 451 50 C 451 54.97055435180664 446.9705505371094 59 442 59 L 9 59 C 4.029449462890625 59 0 54.97055435180664 0 50 L 0 9 C 0 4.029445648193359 4.029449462890625 0 9 0 Z" stroke="none" fill="#3b87d3"/>
      </g>
      <path id="Trazado_36891" data-name="Trazado 36891" d="M19.089,0H16.543l-1.01-12.1L11.14,0H9.528L5.156-12.074,4.136,0H1.579L2.8-15.318H6.381L10.323-4.49,14.3-15.318h3.577Zm13.03-5.586-.032.623H23.869A3.26,3.26,0,0,0,24.814-2.6,3.087,3.087,0,0,0,27-1.783a2.963,2.963,0,0,0,1.606-.44A2.776,2.776,0,0,0,29.67-3.48l2.256.387A4.749,4.749,0,0,1,30.057-.666a5.368,5.368,0,0,1-3.04.87,5.54,5.54,0,0,1-4.05-1.493A5.493,5.493,0,0,1,21.441-5.4a5.515,5.515,0,0,1,1.525-4.114,5.418,5.418,0,0,1,3.975-1.5,5.145,5.145,0,0,1,3.749,1.38A5.442,5.442,0,0,1,32.119-5.586Zm-5.167-3.6A3.153,3.153,0,0,0,25-8.6a2.851,2.851,0,0,0-1.026,1.789h5.661a2.6,2.6,0,0,0-.859-1.772A2.751,2.751,0,0,0,26.952-9.185Zm9.077-3.685a1.476,1.476,0,0,1-1.074-.446,1.449,1.449,0,0,1-.451-1.069,1.458,1.458,0,0,1,.446-1.069,1.47,1.47,0,0,1,1.08-.446,1.463,1.463,0,0,1,1.063.446,1.449,1.449,0,0,1,.451,1.069,1.449,1.449,0,0,1-.451,1.069A1.463,1.463,0,0,1,36.029-12.869ZM32.409,5.06v-2a2.136,2.136,0,0,0,1.885-.682,5.232,5.232,0,0,0,.457-2.648V-10.807h2.5V-.269a6.045,6.045,0,0,1-1.117,4.087A4.814,4.814,0,0,1,32.409,5.06ZM45.547.2a5.679,5.679,0,0,1-4.093-1.52,5.4,5.4,0,0,1-1.59-4.1,5.376,5.376,0,0,1,1.59-4.077,5.679,5.679,0,0,1,4.093-1.52A5.705,5.705,0,0,1,49.65-9.5a5.372,5.372,0,0,1,1.59,4.082,5.4,5.4,0,0,1-1.59,4.1A5.694,5.694,0,0,1,45.547.2Zm-.021-2a3.03,3.03,0,0,0,2.342-1,3.734,3.734,0,0,0,.913-2.621,3.714,3.714,0,0,0-.913-2.616,3.038,3.038,0,0,0-2.342-.994,2.968,2.968,0,0,0-2.3.994,3.741,3.741,0,0,0-.9,2.616,3.775,3.775,0,0,0,.9,2.621A2.956,2.956,0,0,0,45.525-1.794Zm10.71-7.2a3.263,3.263,0,0,1,1.37-1.375,4.272,4.272,0,0,1,2.111-.559v2.256a3.807,3.807,0,0,0-2.551.725,3.083,3.083,0,0,0-.833,2.433V0H53.851V-10.807h2.385ZM71.414-5.586l-.032.623H63.164A3.26,3.26,0,0,0,64.109-2.6a3.087,3.087,0,0,0,2.181.816,2.963,2.963,0,0,0,1.606-.44A2.776,2.776,0,0,0,68.965-3.48l2.256.387A4.749,4.749,0,0,1,69.352-.666a5.368,5.368,0,0,1-3.04.87,5.54,5.54,0,0,1-4.05-1.493A5.493,5.493,0,0,1,60.736-5.4a5.515,5.515,0,0,1,1.525-4.114,5.418,5.418,0,0,1,3.975-1.5,5.145,5.145,0,0,1,3.749,1.38A5.442,5.442,0,0,1,71.414-5.586Zm-5.167-3.6A3.153,3.153,0,0,0,64.3-8.6a2.851,2.851,0,0,0-1.026,1.789h5.661a2.6,2.6,0,0,0-.859-1.772A2.751,2.751,0,0,0,66.247-9.185ZM77.655.2a5.563,5.563,0,0,1-3.029-.768,3.206,3.206,0,0,1-1.482-2.229l2.095-.591a2.239,2.239,0,0,0,.849,1.359,2.613,2.613,0,0,0,1.568.457,2.5,2.5,0,0,0,1.311-.322,1.1,1.1,0,0,0,.526-1.042,1.007,1.007,0,0,0-.14-.532,1.461,1.461,0,0,0-.333-.387,2.324,2.324,0,0,0-.553-.306,6.242,6.242,0,0,0-.655-.236l-.8-.236q-.5-.15-.838-.258a7.637,7.637,0,0,1-1.031-.4,4.894,4.894,0,0,1-.849-.537,2.1,2.1,0,0,1-.65-.843,2.975,2.975,0,0,1-.22-1.187,2.841,2.841,0,0,1,.548-1.772,3.116,3.116,0,0,1,1.439-1.047A5.9,5.9,0,0,1,77.451-11a5.044,5.044,0,0,1,2.734.7,3.051,3.051,0,0,1,1.38,2.138L79.61-7.7a1.948,1.948,0,0,0-.779-1.2,2.4,2.4,0,0,0-1.37-.387,2.392,2.392,0,0,0-1.251.306,1.012,1.012,0,0,0-.51.929,1.261,1.261,0,0,0,.038.317.618.618,0,0,0,.145.263q.107.118.193.209a1.009,1.009,0,0,0,.279.188q.193.1.312.15a3.381,3.381,0,0,0,.387.134l.4.118q.129.038.446.118l.446.113q.6.161,1.026.3a5.92,5.92,0,0,1,.935.414,3.257,3.257,0,0,1,.827.607,2.713,2.713,0,0,1,.532.865,3.143,3.143,0,0,1,.215,1.187,3.205,3.205,0,0,1-.344,1.52,2.614,2.614,0,0,1-.94,1.021,4.605,4.605,0,0,1-1.332.553A6.66,6.66,0,0,1,77.655.2Zm14.9-9.2a3.263,3.263,0,0,1,1.37-1.375,4.272,4.272,0,0,1,2.111-.559v2.256a3.807,3.807,0,0,0-2.551.725,3.083,3.083,0,0,0-.833,2.433V0H90.17V-10.807h2.385Zm15.179,3.405-.032.623H99.483a3.26,3.26,0,0,0,.945,2.363,3.087,3.087,0,0,0,2.181.816,2.963,2.963,0,0,0,1.606-.44,2.776,2.776,0,0,0,1.069-1.257l2.256.387a4.749,4.749,0,0,1-1.869,2.428,5.368,5.368,0,0,1-3.04.87,5.54,5.54,0,0,1-4.05-1.493A5.493,5.493,0,0,1,97.056-5.4a5.515,5.515,0,0,1,1.525-4.114,5.418,5.418,0,0,1,3.975-1.5,5.145,5.145,0,0,1,3.749,1.38A5.442,5.442,0,0,1,107.733-5.586Zm-5.167-3.6a3.153,3.153,0,0,0-1.95.585,2.851,2.851,0,0,0-1.026,1.789h5.661a2.6,2.6,0,0,0-.859-1.772A2.751,2.751,0,0,0,102.566-9.185ZM113.975.2a5.563,5.563,0,0,1-3.029-.768,3.206,3.206,0,0,1-1.482-2.229l2.095-.591a2.239,2.239,0,0,0,.849,1.359,2.613,2.613,0,0,0,1.568.457,2.5,2.5,0,0,0,1.311-.322,1.1,1.1,0,0,0,.526-1.042,1.007,1.007,0,0,0-.14-.532,1.461,1.461,0,0,0-.333-.387,2.324,2.324,0,0,0-.553-.306,6.242,6.242,0,0,0-.655-.236l-.8-.236q-.5-.15-.838-.258a7.637,7.637,0,0,1-1.031-.4,4.894,4.894,0,0,1-.849-.537,2.1,2.1,0,0,1-.65-.843,2.975,2.975,0,0,1-.22-1.187,2.841,2.841,0,0,1,.548-1.772,3.116,3.116,0,0,1,1.439-1.047A5.9,5.9,0,0,1,113.771-11a5.044,5.044,0,0,1,2.734.7,3.051,3.051,0,0,1,1.38,2.138L115.93-7.7a1.948,1.948,0,0,0-.779-1.2,2.4,2.4,0,0,0-1.37-.387,2.392,2.392,0,0,0-1.251.306,1.012,1.012,0,0,0-.51.929,1.261,1.261,0,0,0,.038.317.618.618,0,0,0,.145.263q.107.118.193.209a1.009,1.009,0,0,0,.279.188q.193.1.312.15a3.381,3.381,0,0,0,.387.134l.4.118q.129.038.446.118l.446.113q.6.161,1.026.3a5.92,5.92,0,0,1,.935.414,3.257,3.257,0,0,1,.827.607,2.713,2.713,0,0,1,.532.865,3.143,3.143,0,0,1,.215,1.187,3.205,3.205,0,0,1-.344,1.52,2.614,2.614,0,0,1-.94,1.021,4.605,4.605,0,0,1-1.332.553A6.66,6.66,0,0,1,113.975.2Zm13.739-11.011h2.471V0h-2.353l-.064-1.354A3.866,3.866,0,0,1,124.438.2a4,4,0,0,1-2.857-.972,3.618,3.618,0,0,1-1.031-2.766v-7.272h2.492v6.735a2.217,2.217,0,0,0,.6,1.7,2.176,2.176,0,0,0,1.542.553A2.506,2.506,0,0,0,127-2.5a2.838,2.838,0,0,0,.714-2.1ZM133.687,0V-16.5h2.492V0Zm9.732,0a3.055,3.055,0,0,1-2.277-.827,3.176,3.176,0,0,1-.816-2.331V-8.873h-2.159v-1.934h.741a1.69,1.69,0,0,0,1.273-.414,2.089,2.089,0,0,0,.392-1.445v-1.676h2.256v3.534h2.353v1.934h-2.353v5.457a1.549,1.549,0,0,0,.371,1.123,1.336,1.336,0,0,0,1,.381h.978V0Zm6.768.2a4.485,4.485,0,0,1-1.649-.285,2.621,2.621,0,0,1-1.2-.967,2.876,2.876,0,0,1-.478-1.692,3.134,3.134,0,0,1,.22-1.208,2.646,2.646,0,0,1,.58-.886,3.409,3.409,0,0,1,.913-.623,6.548,6.548,0,0,1,1.117-.424q.564-.156,1.305-.3l1.633-.3q1-.193,1-.978a1.535,1.535,0,0,0-.6-1.348,2.565,2.565,0,0,0-1.515-.424,2.536,2.536,0,0,0-1.558.457,2,2,0,0,0-.73,1.445L147-7.734Q147.544-11,151.658-11a7.615,7.615,0,0,1,1.284.1,4.584,4.584,0,0,1,1.171.371,3.369,3.369,0,0,1,.983.682,2.976,2.976,0,0,1,.655,1.1A4.575,4.575,0,0,1,156-7.187V-3a1.711,1.711,0,0,0,.226,1.031.972.972,0,0,0,.795.279h.172V0H156.02q-1.837,0-2.191-1.429h-.118a3.513,3.513,0,0,1-1.531,1.235A5.064,5.064,0,0,1,150.187.2Zm.58-1.944a2.873,2.873,0,0,0,2.159-.892,3.233,3.233,0,0,0,.859-2.342l-2.761.612a3.31,3.31,0,0,0-1.332.5,1.079,1.079,0,0,0-.44.918,1.038,1.038,0,0,0,.419.9A1.837,1.837,0,0,0,150.767-1.74ZM167.148-16.5h2.471V0h-2.363l-.064-1.719a3.478,3.478,0,0,1-1.445,1.439,4.41,4.41,0,0,1-2.154.526,4.986,4.986,0,0,1-1.982-.4,5,5,0,0,1-1.627-1.112,5.129,5.129,0,0,1-1.106-1.783,6.528,6.528,0,0,1-.408-2.347,6.453,6.453,0,0,1,.408-2.331A5.138,5.138,0,0,1,159.983-9.5a4.989,4.989,0,0,1,1.633-1.112,5,5,0,0,1,1.977-.4,4.468,4.468,0,0,1,2.111.5,3.471,3.471,0,0,1,1.445,1.37Zm-5.3,13.675a3.022,3.022,0,0,0,2.288.978,2.958,2.958,0,0,0,2.277-1,3.628,3.628,0,0,0,.913-2.546,3.6,3.6,0,0,0-.918-2.535,2.963,2.963,0,0,0-2.272-1,3.013,3.013,0,0,0-2.283.972,3.578,3.578,0,0,0-.918,2.562A3.61,3.61,0,0,0,161.853-2.825ZM177.912.2a5.679,5.679,0,0,1-4.093-1.52,5.4,5.4,0,0,1-1.59-4.1,5.376,5.376,0,0,1,1.59-4.077,5.679,5.679,0,0,1,4.093-1.52,5.705,5.705,0,0,1,4.1,1.515,5.372,5.372,0,0,1,1.59,4.082,5.4,5.4,0,0,1-1.59,4.1A5.694,5.694,0,0,1,177.912.2Zm-.021-2a3.03,3.03,0,0,0,2.342-1,3.734,3.734,0,0,0,.913-2.621,3.714,3.714,0,0,0-.913-2.616,3.038,3.038,0,0,0-2.342-.994,2.968,2.968,0,0,0-2.3.994,3.741,3.741,0,0,0-.9,2.616,3.775,3.775,0,0,0,.9,2.621A2.956,2.956,0,0,0,177.891-1.794Zm11.935,2A5.563,5.563,0,0,1,186.8-.564a3.206,3.206,0,0,1-1.482-2.229l2.095-.591a2.239,2.239,0,0,0,.849,1.359,2.613,2.613,0,0,0,1.568.457,2.5,2.5,0,0,0,1.311-.322,1.1,1.1,0,0,0,.526-1.042,1.007,1.007,0,0,0-.14-.532,1.461,1.461,0,0,0-.333-.387,2.324,2.324,0,0,0-.553-.306,6.242,6.242,0,0,0-.655-.236l-.8-.236q-.5-.15-.838-.258a7.637,7.637,0,0,1-1.031-.4,4.893,4.893,0,0,1-.849-.537,2.1,2.1,0,0,1-.65-.843,2.975,2.975,0,0,1-.22-1.187,2.841,2.841,0,0,1,.548-1.772,3.116,3.116,0,0,1,1.439-1.047A5.9,5.9,0,0,1,189.621-11a5.044,5.044,0,0,1,2.734.7,3.051,3.051,0,0,1,1.38,2.138L191.78-7.7a1.948,1.948,0,0,0-.779-1.2,2.4,2.4,0,0,0-1.37-.387,2.392,2.392,0,0,0-1.251.306,1.012,1.012,0,0,0-.51.929,1.261,1.261,0,0,0,.038.317.618.618,0,0,0,.145.263q.107.118.193.209a1.009,1.009,0,0,0,.279.188q.193.1.312.15a3.382,3.382,0,0,0,.387.134l.4.118q.129.038.446.118l.446.113q.6.161,1.026.3a5.919,5.919,0,0,1,.935.414,3.257,3.257,0,0,1,.827.607,2.713,2.713,0,0,1,.532.865,3.143,3.143,0,0,1,.215,1.187,3.205,3.205,0,0,1-.344,1.52,2.614,2.614,0,0,1-.94,1.021,4.605,4.605,0,0,1-1.332.553A6.66,6.66,0,0,1,189.825.2Zm22.322-5.79-.032.623H203.9a3.26,3.26,0,0,0,.945,2.363,3.087,3.087,0,0,0,2.181.816,2.963,2.963,0,0,0,1.606-.44A2.776,2.776,0,0,0,209.7-3.48l2.256.387a4.749,4.749,0,0,1-1.869,2.428,5.368,5.368,0,0,1-3.04.87A5.54,5.54,0,0,1,203-1.289,5.493,5.493,0,0,1,201.47-5.4,5.515,5.515,0,0,1,203-9.518a5.418,5.418,0,0,1,3.975-1.5,5.145,5.145,0,0,1,3.749,1.38A5.442,5.442,0,0,1,212.147-5.586Zm-5.167-3.6a3.153,3.153,0,0,0-1.95.585A2.851,2.851,0,0,0,204-6.811h5.661a2.6,2.6,0,0,0-.859-1.772A2.751,2.751,0,0,0,206.98-9.185ZM219.463.193a5.484,5.484,0,0,1-4.028-1.552,5.454,5.454,0,0,1-1.568-4.055,5.426,5.426,0,0,1,1.574-4.05,5.5,5.5,0,0,1,4.023-1.547,5.491,5.491,0,0,1,3.314.994,4.691,4.691,0,0,1,1.81,2.777l-2.3.3a2.88,2.88,0,0,0-1.058-1.547,2.981,2.981,0,0,0-1.789-.537,2.835,2.835,0,0,0-2.234.994,3.827,3.827,0,0,0-.87,2.616,3.827,3.827,0,0,0,.87,2.616,2.835,2.835,0,0,0,2.234.994,3,3,0,0,0,1.789-.532,2.852,2.852,0,0,0,1.058-1.542l2.3.29a4.7,4.7,0,0,1-1.821,2.782A5.482,5.482,0,0,1,219.463.193Zm12.4.011a5.679,5.679,0,0,1-4.093-1.52,5.4,5.4,0,0,1-1.59-4.1,5.376,5.376,0,0,1,1.59-4.077,5.679,5.679,0,0,1,4.093-1.52,5.705,5.705,0,0,1,4.1,1.515,5.372,5.372,0,0,1,1.59,4.082,5.4,5.4,0,0,1-1.59,4.1A5.694,5.694,0,0,1,231.859.2Zm-.021-2a3.03,3.03,0,0,0,2.342-1,3.734,3.734,0,0,0,.913-2.621,3.714,3.714,0,0,0-.913-2.616,3.038,3.038,0,0,0-2.342-.994,2.968,2.968,0,0,0-2.3.994,3.741,3.741,0,0,0-.9,2.616,3.775,3.775,0,0,0,.9,2.621A2.956,2.956,0,0,0,231.838-1.794Zm14.072-9.217a4,4,0,0,1,2.857.972A3.618,3.618,0,0,1,249.8-7.272V0h-2.492V-6.735a2.217,2.217,0,0,0-.6-1.7,2.161,2.161,0,0,0-1.531-.553,2.525,2.525,0,0,0-1.826.682,2.825,2.825,0,0,0-.72,2.1V0h-2.471V-10.807h2.471v1.278a3.651,3.651,0,0,1,1.391-1.1A4.471,4.471,0,0,1,245.91-11.011Zm11.129-1.45L259.8-16.2l1.257.9-2.417,2.836ZM257.877.2a5.679,5.679,0,0,1-4.093-1.52,5.4,5.4,0,0,1-1.59-4.1,5.376,5.376,0,0,1,1.59-4.077,5.679,5.679,0,0,1,4.093-1.52,5.705,5.705,0,0,1,4.1,1.515,5.372,5.372,0,0,1,1.59,4.082,5.4,5.4,0,0,1-1.59,4.1A5.694,5.694,0,0,1,257.877.2Zm-.021-2a3.03,3.03,0,0,0,2.342-1,3.734,3.734,0,0,0,.913-2.621A3.714,3.714,0,0,0,260.2-8.03a3.038,3.038,0,0,0-2.342-.994,2.968,2.968,0,0,0-2.3.994,3.741,3.741,0,0,0-.9,2.616,3.775,3.775,0,0,0,.9,2.621A2.956,2.956,0,0,0,257.855-1.794Zm20.26-9.217a3.8,3.8,0,0,1,2.653.9,3.256,3.256,0,0,1,.988,2.541V0h-2.481V-6.886a2.122,2.122,0,0,0-.537-1.574,1.845,1.845,0,0,0-1.354-.532,2.025,2.025,0,0,0-1.552.639,2.81,2.81,0,0,0-.6,1.971V0h-2.514V-6.832a2.2,2.2,0,0,0-.542-1.611,1.86,1.86,0,0,0-1.38-.548,2.01,2.01,0,0,0-1.558.661,2.985,2.985,0,0,0-.6,2.057V0h-2.46V-10.807h2.46v1.332a3.486,3.486,0,0,1,3.051-1.536,4.1,4.1,0,0,1,1.934.435,2.863,2.863,0,0,1,1.246,1.251A3.587,3.587,0,0,1,278.115-11.011Zm8.218-1.858a1.476,1.476,0,0,1-1.074-.446,1.449,1.449,0,0,1-.451-1.069,1.458,1.458,0,0,1,.446-1.069,1.47,1.47,0,0,1,1.08-.446,1.463,1.463,0,0,1,1.063.446,1.449,1.449,0,0,1,.451,1.069,1.449,1.449,0,0,1-.451,1.069A1.463,1.463,0,0,1,286.333-12.869ZM285.065,0V-10.807h2.481V0Zm10.667.193A5.484,5.484,0,0,1,291.7-1.359a5.454,5.454,0,0,1-1.568-4.055,5.426,5.426,0,0,1,1.574-4.05,5.5,5.5,0,0,1,4.023-1.547,5.491,5.491,0,0,1,3.314.994,4.691,4.691,0,0,1,1.81,2.777l-2.3.3A2.88,2.88,0,0,0,297.5-8.486a2.981,2.981,0,0,0-1.789-.537,2.835,2.835,0,0,0-2.234.994,3.827,3.827,0,0,0-.87,2.616,3.827,3.827,0,0,0,.87,2.616,2.835,2.835,0,0,0,2.234.994,3,3,0,0,0,1.789-.532,2.852,2.852,0,0,0,1.058-1.542l2.3.29a4.7,4.7,0,0,1-1.821,2.782A5.482,5.482,0,0,1,295.732.193Zm12.4.011a5.679,5.679,0,0,1-4.093-1.52,5.4,5.4,0,0,1-1.59-4.1,5.376,5.376,0,0,1,1.59-4.077,5.679,5.679,0,0,1,4.093-1.52,5.705,5.705,0,0,1,4.1,1.515,5.372,5.372,0,0,1,1.59,4.082,5.4,5.4,0,0,1-1.59,4.1A5.694,5.694,0,0,1,308.129.2Zm-.021-2a3.03,3.03,0,0,0,2.342-1,3.734,3.734,0,0,0,.913-2.621,3.714,3.714,0,0,0-.913-2.616,3.038,3.038,0,0,0-2.342-.994,2.968,2.968,0,0,0-2.3.994,3.741,3.741,0,0,0-.9,2.616,3.775,3.775,0,0,0,.9,2.621A2.956,2.956,0,0,0,308.107-1.794Zm11.935,2a5.563,5.563,0,0,1-3.029-.768,3.206,3.206,0,0,1-1.482-2.229l2.095-.591a2.239,2.239,0,0,0,.849,1.359,2.613,2.613,0,0,0,1.568.457,2.5,2.5,0,0,0,1.311-.322,1.1,1.1,0,0,0,.526-1.042,1.007,1.007,0,0,0-.14-.532,1.461,1.461,0,0,0-.333-.387,2.324,2.324,0,0,0-.553-.306,6.242,6.242,0,0,0-.655-.236l-.8-.236q-.5-.15-.838-.258a7.637,7.637,0,0,1-1.031-.4,4.894,4.894,0,0,1-.849-.537,2.1,2.1,0,0,1-.65-.843,2.975,2.975,0,0,1-.22-1.187,2.841,2.841,0,0,1,.548-1.772,3.116,3.116,0,0,1,1.439-1.047A5.9,5.9,0,0,1,319.838-11a5.044,5.044,0,0,1,2.734.7,3.052,3.052,0,0,1,1.38,2.138L322-7.7a1.948,1.948,0,0,0-.779-1.2,2.4,2.4,0,0,0-1.37-.387,2.392,2.392,0,0,0-1.251.306,1.012,1.012,0,0,0-.51.929,1.261,1.261,0,0,0,.038.317.618.618,0,0,0,.145.263q.107.118.193.209a1.009,1.009,0,0,0,.279.188q.193.1.312.15a3.38,3.38,0,0,0,.387.134l.4.118q.129.038.446.118l.446.113q.6.161,1.026.3a5.92,5.92,0,0,1,.935.414,3.257,3.257,0,0,1,.827.607,2.712,2.712,0,0,1,.532.865,3.143,3.143,0,0,1,.215,1.187,3.205,3.205,0,0,1-.344,1.52,2.614,2.614,0,0,1-.94,1.021,4.605,4.605,0,0,1-1.332.553A6.66,6.66,0,0,1,320.042.2Z" transform="translate(792 6574)" fill="#326dcc"/>
      <g id="Trazado_36892" data-name="Trazado 36892" transform="translate(735 6664)" fill="#fff">
        <path d="M 442 58.5 L 9 58.5 C 4.313111305236816 58.5 0.5 54.6868896484375 0.5 50 L 0.5 9 C 0.5 4.313111305236816 4.313111305236816 0.5 9 0.5 L 442 0.5 C 446.6868896484375 0.5 450.5 4.313111305236816 450.5 9 L 450.5 50 C 450.5 54.6868896484375 446.6868896484375 58.5 442 58.5 Z" stroke="none"/>
        <path d="M 9 1 C 4.588775634765625 1 1 4.588779449462891 1 9 L 1 50 C 1 54.41122436523438 4.588775634765625 58 9 58 L 442 58 C 446.4112243652344 58 450 54.41122436523438 450 50 L 450 9 C 450 4.588779449462891 446.4112243652344 1 442 1 L 9 1 M 9 0 L 442 0 C 446.9705505371094 0 451 4.029445648193359 451 9 L 451 50 C 451 54.97055435180664 446.9705505371094 59 442 59 L 9 59 C 4.029449462890625 59 0 54.97055435180664 0 50 L 0 9 C 0 4.029445648193359 4.029449462890625 0 9 0 Z" stroke="none" fill="#3b87d3"/>
      </g>
      <path id="Trazado_36893" data-name="Trazado 36893" d="M8.862.2A8.392,8.392,0,0,1,5.8-.349,7.264,7.264,0,0,1,3.341-1.9,7.005,7.005,0,0,1,1.719-4.388,8.817,8.817,0,0,1,1.128-7.67a8.349,8.349,0,0,1,1.015-4.173,6.891,6.891,0,0,1,2.766-2.745,8.187,8.187,0,0,1,3.953-.945,7.959,7.959,0,0,1,4.286,1.16,6.762,6.762,0,0,1,2.729,3.212l-2.4.913a4.58,4.58,0,0,0-1.821-2.127,5.2,5.2,0,0,0-2.8-.763,5.443,5.443,0,0,0-2.03.376A4.891,4.891,0,0,0,5.188-11.7a4.78,4.78,0,0,0-1.1,1.724,6.39,6.39,0,0,0-.4,2.3,6.477,6.477,0,0,0,.4,2.315,4.765,4.765,0,0,0,1.1,1.735A4.823,4.823,0,0,0,6.832-2.562a5.513,5.513,0,0,0,2.03.371,5.221,5.221,0,0,0,2.8-.757A4.559,4.559,0,0,0,13.481-5.07l2.4.913A6.741,6.741,0,0,1,13.154-.951,7.979,7.979,0,0,1,8.862.2ZM18.4,0V-16.5h2.492V0Zm7.262-12.869a1.476,1.476,0,0,1-1.074-.446,1.449,1.449,0,0,1-.451-1.069,1.458,1.458,0,0,1,.446-1.069,1.47,1.47,0,0,1,1.08-.446,1.463,1.463,0,0,1,1.063.446,1.449,1.449,0,0,1,.451,1.069,1.449,1.449,0,0,1-.451,1.069A1.463,1.463,0,0,1,25.663-12.869ZM24.4,0V-10.807h2.481V0ZM40.187-5.586l-.032.623H31.937A3.26,3.26,0,0,0,32.882-2.6a3.087,3.087,0,0,0,2.181.816,2.963,2.963,0,0,0,1.606-.44A2.776,2.776,0,0,0,37.737-3.48l2.256.387A4.749,4.749,0,0,1,38.124-.666a5.368,5.368,0,0,1-3.04.87,5.54,5.54,0,0,1-4.05-1.493A5.493,5.493,0,0,1,29.509-5.4a5.515,5.515,0,0,1,1.525-4.114,5.418,5.418,0,0,1,3.975-1.5,5.145,5.145,0,0,1,3.749,1.38A5.442,5.442,0,0,1,40.187-5.586Zm-5.167-3.6a3.153,3.153,0,0,0-1.95.585,2.851,2.851,0,0,0-1.026,1.789h5.661a2.6,2.6,0,0,0-.859-1.772A2.751,2.751,0,0,0,35.02-9.185Zm13.546-1.826a4,4,0,0,1,2.857.972,3.618,3.618,0,0,1,1.031,2.766V0H49.962V-6.735a2.217,2.217,0,0,0-.6-1.7,2.161,2.161,0,0,0-1.531-.553,2.525,2.525,0,0,0-1.826.682,2.825,2.825,0,0,0-.72,2.1V0H42.818V-10.807h2.471v1.278a3.651,3.651,0,0,1,1.391-1.1A4.471,4.471,0,0,1,48.565-11.011ZM59.479,0A3.055,3.055,0,0,1,57.2-.827a3.176,3.176,0,0,1-.816-2.331V-8.873H54.227v-1.934h.741a1.69,1.69,0,0,0,1.273-.414,2.089,2.089,0,0,0,.392-1.445v-1.676h2.256v3.534h2.353v1.934H58.889v5.457a1.549,1.549,0,0,0,.371,1.123,1.336,1.336,0,0,0,1,.381h.978V0ZM73.509-5.586l-.032.623H65.259A3.26,3.26,0,0,0,66.2-2.6a3.087,3.087,0,0,0,2.181.816,2.963,2.963,0,0,0,1.606-.44A2.776,2.776,0,0,0,71.06-3.48l2.256.387A4.749,4.749,0,0,1,71.446-.666a5.368,5.368,0,0,1-3.04.87,5.54,5.54,0,0,1-4.05-1.493A5.493,5.493,0,0,1,62.831-5.4a5.515,5.515,0,0,1,1.525-4.114,5.418,5.418,0,0,1,3.975-1.5,5.145,5.145,0,0,1,3.749,1.38A5.442,5.442,0,0,1,73.509-5.586Zm-5.167-3.6a3.153,3.153,0,0,0-1.95.585,2.851,2.851,0,0,0-1.026,1.789h5.661a2.6,2.6,0,0,0-.859-1.772A2.751,2.751,0,0,0,68.342-9.185ZM79.75.2a5.563,5.563,0,0,1-3.029-.768,3.206,3.206,0,0,1-1.482-2.229l2.095-.591a2.239,2.239,0,0,0,.849,1.359,2.613,2.613,0,0,0,1.568.457,2.5,2.5,0,0,0,1.311-.322,1.1,1.1,0,0,0,.526-1.042,1.007,1.007,0,0,0-.14-.532,1.461,1.461,0,0,0-.333-.387,2.324,2.324,0,0,0-.553-.306,6.242,6.242,0,0,0-.655-.236l-.8-.236q-.5-.15-.838-.258a7.637,7.637,0,0,1-1.031-.4,4.894,4.894,0,0,1-.849-.537,2.1,2.1,0,0,1-.65-.843,2.975,2.975,0,0,1-.22-1.187,2.841,2.841,0,0,1,.548-1.772A3.116,3.116,0,0,1,77.5-10.672,5.9,5.9,0,0,1,79.546-11a5.044,5.044,0,0,1,2.734.7,3.051,3.051,0,0,1,1.38,2.138L81.705-7.7a1.948,1.948,0,0,0-.779-1.2,2.4,2.4,0,0,0-1.37-.387,2.392,2.392,0,0,0-1.251.306,1.012,1.012,0,0,0-.51.929,1.261,1.261,0,0,0,.038.317.618.618,0,0,0,.145.263q.107.118.193.209a1.009,1.009,0,0,0,.279.188q.193.1.312.15a3.381,3.381,0,0,0,.387.134l.4.118q.129.038.446.118l.446.113q.6.161,1.026.3a5.92,5.92,0,0,1,.935.414,3.257,3.257,0,0,1,.827.607,2.713,2.713,0,0,1,.532.865,3.143,3.143,0,0,1,.215,1.187,3.205,3.205,0,0,1-.344,1.52,2.614,2.614,0,0,1-.94,1.021,4.605,4.605,0,0,1-1.332.553A6.66,6.66,0,0,1,79.75.2ZM104.2-11.011a3.8,3.8,0,0,1,2.653.9,3.256,3.256,0,0,1,.988,2.541V0h-2.481V-6.886a2.122,2.122,0,0,0-.537-1.574,1.845,1.845,0,0,0-1.354-.532,2.025,2.025,0,0,0-1.552.639,2.81,2.81,0,0,0-.6,1.971V0H98.807V-6.832a2.2,2.2,0,0,0-.542-1.611,1.86,1.86,0,0,0-1.38-.548,2.01,2.01,0,0,0-1.558.661,2.985,2.985,0,0,0-.6,2.057V0h-2.46V-10.807h2.46v1.332a3.486,3.486,0,0,1,3.051-1.536,4.1,4.1,0,0,1,1.934.435,2.863,2.863,0,0,1,1.246,1.251A3.587,3.587,0,0,1,104.2-11.011Zm10.366-1.461,2.761-3.738,1.257.9-2.417,2.836ZM113.7.2a4.485,4.485,0,0,1-1.649-.285,2.621,2.621,0,0,1-1.2-.967,2.876,2.876,0,0,1-.478-1.692,3.134,3.134,0,0,1,.22-1.208,2.646,2.646,0,0,1,.58-.886,3.409,3.409,0,0,1,.913-.623,6.548,6.548,0,0,1,1.117-.424q.564-.156,1.305-.3l1.633-.3q1-.193,1-.978a1.535,1.535,0,0,0-.6-1.348,2.565,2.565,0,0,0-1.515-.424,2.535,2.535,0,0,0-1.558.457,2,2,0,0,0-.73,1.445L110.5-7.734Q111.053-11,115.167-11a7.615,7.615,0,0,1,1.284.1,4.585,4.585,0,0,1,1.171.371,3.368,3.368,0,0,1,.983.682,2.976,2.976,0,0,1,.655,1.1,4.575,4.575,0,0,1,.247,1.563V-3a1.711,1.711,0,0,0,.226,1.031.972.972,0,0,0,.795.279h.172V0h-1.171q-1.837,0-2.191-1.429h-.118a3.513,3.513,0,0,1-1.531,1.235A5.064,5.064,0,0,1,113.7.2Zm.58-1.944a2.873,2.873,0,0,0,2.159-.892,3.233,3.233,0,0,0,.859-2.342l-2.761.612a3.31,3.31,0,0,0-1.332.5,1.079,1.079,0,0,0-.44.918,1.038,1.038,0,0,0,.419.9A1.837,1.837,0,0,0,114.275-1.74ZM126.7.2a5.563,5.563,0,0,1-3.029-.768,3.206,3.206,0,0,1-1.482-2.229l2.095-.591a2.239,2.239,0,0,0,.849,1.359,2.613,2.613,0,0,0,1.568.457,2.5,2.5,0,0,0,1.311-.322,1.1,1.1,0,0,0,.526-1.042,1.007,1.007,0,0,0-.14-.532,1.461,1.461,0,0,0-.333-.387,2.324,2.324,0,0,0-.553-.306,6.242,6.242,0,0,0-.655-.236l-.8-.236q-.5-.15-.838-.258a7.637,7.637,0,0,1-1.031-.4,4.894,4.894,0,0,1-.849-.537,2.1,2.1,0,0,1-.65-.843,2.975,2.975,0,0,1-.22-1.187,2.841,2.841,0,0,1,.548-1.772,3.116,3.116,0,0,1,1.439-1.047A5.9,5.9,0,0,1,126.5-11a5.044,5.044,0,0,1,2.734.7,3.051,3.051,0,0,1,1.38,2.138l-1.955.462a1.948,1.948,0,0,0-.779-1.2,2.4,2.4,0,0,0-1.37-.387,2.392,2.392,0,0,0-1.251.306,1.012,1.012,0,0,0-.51.929,1.261,1.261,0,0,0,.038.317.618.618,0,0,0,.145.263q.107.118.193.209a1.009,1.009,0,0,0,.279.188q.193.1.312.15a3.381,3.381,0,0,0,.387.134l.4.118q.129.038.446.118l.446.113q.6.161,1.026.3a5.919,5.919,0,0,1,.935.414,3.257,3.257,0,0,1,.827.607,2.713,2.713,0,0,1,.532.865,3.143,3.143,0,0,1,.215,1.187,3.205,3.205,0,0,1-.344,1.52,2.614,2.614,0,0,1-.94,1.021,4.605,4.605,0,0,1-1.332.553A6.66,6.66,0,0,1,126.7.2Zm16.124,0A5.563,5.563,0,0,1,139.8-.564a3.206,3.206,0,0,1-1.482-2.229l2.095-.591a2.239,2.239,0,0,0,.849,1.359,2.613,2.613,0,0,0,1.568.457,2.5,2.5,0,0,0,1.311-.322,1.1,1.1,0,0,0,.526-1.042,1.007,1.007,0,0,0-.14-.532,1.461,1.461,0,0,0-.333-.387,2.324,2.324,0,0,0-.553-.306,6.242,6.242,0,0,0-.655-.236l-.8-.236q-.5-.15-.838-.258a7.637,7.637,0,0,1-1.031-.4,4.893,4.893,0,0,1-.849-.537,2.1,2.1,0,0,1-.65-.843,2.975,2.975,0,0,1-.22-1.187,2.841,2.841,0,0,1,.548-1.772,3.116,3.116,0,0,1,1.439-1.047A5.9,5.9,0,0,1,142.624-11a5.044,5.044,0,0,1,2.734.7,3.051,3.051,0,0,1,1.38,2.138l-1.955.462a1.948,1.948,0,0,0-.779-1.2,2.4,2.4,0,0,0-1.37-.387,2.392,2.392,0,0,0-1.251.306,1.012,1.012,0,0,0-.51.929,1.261,1.261,0,0,0,.038.317.618.618,0,0,0,.145.263q.107.118.193.209a1.009,1.009,0,0,0,.279.188q.193.1.312.15a3.382,3.382,0,0,0,.387.134l.4.118q.129.038.446.118l.446.113q.6.161,1.026.3a5.919,5.919,0,0,1,.935.414,3.257,3.257,0,0,1,.827.607,2.713,2.713,0,0,1,.532.865,3.143,3.143,0,0,1,.215,1.187,3.205,3.205,0,0,1-.344,1.52,2.614,2.614,0,0,1-.94,1.021,4.605,4.605,0,0,1-1.332.553A6.66,6.66,0,0,1,142.828.2Zm9.346,0a4.485,4.485,0,0,1-1.649-.285,2.621,2.621,0,0,1-1.2-.967,2.876,2.876,0,0,1-.478-1.692,3.134,3.134,0,0,1,.22-1.208,2.646,2.646,0,0,1,.58-.886,3.409,3.409,0,0,1,.913-.623,6.548,6.548,0,0,1,1.117-.424q.564-.156,1.305-.3l1.633-.3q1-.193,1-.978a1.535,1.535,0,0,0-.6-1.348,2.565,2.565,0,0,0-1.515-.424,2.536,2.536,0,0,0-1.558.457,2,2,0,0,0-.73,1.445l-2.224-.408Q149.531-11,153.646-11a7.615,7.615,0,0,1,1.284.1,4.584,4.584,0,0,1,1.171.371,3.369,3.369,0,0,1,.983.682,2.976,2.976,0,0,1,.655,1.1,4.575,4.575,0,0,1,.247,1.563V-3a1.711,1.711,0,0,0,.226,1.031.972.972,0,0,0,.795.279h.172V0h-1.171q-1.837,0-2.191-1.429H155.7a3.513,3.513,0,0,1-1.531,1.235A5.064,5.064,0,0,1,152.174.2Zm.58-1.944a2.873,2.873,0,0,0,2.159-.892,3.233,3.233,0,0,0,.859-2.342l-2.761.612a3.31,3.31,0,0,0-1.332.5,1.079,1.079,0,0,0-.44.918,1.038,1.038,0,0,0,.419.9A1.837,1.837,0,0,0,152.754-1.74ZM165.2,0a3.055,3.055,0,0,1-2.277-.827,3.176,3.176,0,0,1-.816-2.331V-8.873h-2.159v-1.934h.741a1.69,1.69,0,0,0,1.273-.414,2.089,2.089,0,0,0,.392-1.445v-1.676h2.256v3.534h2.353v1.934h-2.353v5.457a1.549,1.549,0,0,0,.371,1.123,1.336,1.336,0,0,0,1,.381h.978V0Zm5.575-12.869a1.476,1.476,0,0,1-1.074-.446,1.449,1.449,0,0,1-.451-1.069,1.458,1.458,0,0,1,.446-1.069,1.47,1.47,0,0,1,1.08-.446,1.463,1.463,0,0,1,1.063.446,1.449,1.449,0,0,1,.451,1.069,1.449,1.449,0,0,1-.451,1.069A1.463,1.463,0,0,1,170.779-12.869ZM169.512,0V-10.807h2.481V0ZM179.1.2a5.563,5.563,0,0,1-3.029-.768,3.206,3.206,0,0,1-1.482-2.229l2.095-.591a2.239,2.239,0,0,0,.849,1.359,2.613,2.613,0,0,0,1.568.457,2.5,2.5,0,0,0,1.311-.322,1.1,1.1,0,0,0,.526-1.042,1.007,1.007,0,0,0-.14-.532,1.461,1.461,0,0,0-.333-.387,2.324,2.324,0,0,0-.553-.306,6.242,6.242,0,0,0-.655-.236l-.8-.236q-.5-.15-.838-.258a7.637,7.637,0,0,1-1.031-.4,4.893,4.893,0,0,1-.849-.537,2.1,2.1,0,0,1-.65-.843,2.975,2.975,0,0,1-.22-1.187,2.841,2.841,0,0,1,.548-1.772,3.116,3.116,0,0,1,1.439-1.047A5.9,5.9,0,0,1,178.9-11a5.044,5.044,0,0,1,2.734.7,3.051,3.051,0,0,1,1.38,2.138L181.06-7.7a1.948,1.948,0,0,0-.779-1.2,2.4,2.4,0,0,0-1.37-.387,2.392,2.392,0,0,0-1.251.306,1.012,1.012,0,0,0-.51.929,1.261,1.261,0,0,0,.038.317.618.618,0,0,0,.145.263q.107.118.193.209a1.009,1.009,0,0,0,.279.188q.193.1.312.15a3.382,3.382,0,0,0,.387.134l.4.118q.129.038.446.118l.446.113q.6.161,1.026.3a5.919,5.919,0,0,1,.935.414,3.257,3.257,0,0,1,.827.607,2.713,2.713,0,0,1,.532.865,3.143,3.143,0,0,1,.215,1.187,3.205,3.205,0,0,1-.344,1.52,2.614,2.614,0,0,1-.94,1.021,4.605,4.605,0,0,1-1.332.553A6.66,6.66,0,0,1,179.1.2Zm12.332-14.7h-.387q-.107,0-.365.016a2.062,2.062,0,0,0-.376.048q-.118.032-.333.1a.838.838,0,0,0-.317.167q-.1.1-.247.247a.894.894,0,0,0-.209.349,4.124,4.124,0,0,0-.118.473,3.162,3.162,0,0,0-.054.607v1.676h2.406v1.934H189.03V0H186.56V-8.873h-2.095v-1.934h2.095v-1.7a6.4,6.4,0,0,1,.124-1.316,3.88,3.88,0,0,1,.344-1,2.478,2.478,0,0,1,.564-.72,3.153,3.153,0,0,1,.73-.483,4.029,4.029,0,0,1,.913-.29,8.193,8.193,0,0,1,1.037-.145q.51-.038,1.166-.038Zm11.677,8.905-.032.623h-8.218a3.26,3.26,0,0,0,.945,2.363,3.087,3.087,0,0,0,2.181.816,2.963,2.963,0,0,0,1.606-.44,2.776,2.776,0,0,0,1.069-1.257l2.256.387a4.749,4.749,0,0,1-1.869,2.428,5.368,5.368,0,0,1-3.04.87,5.54,5.54,0,0,1-4.05-1.493A5.493,5.493,0,0,1,192.436-5.4a5.515,5.515,0,0,1,1.525-4.114,5.418,5.418,0,0,1,3.975-1.5,5.145,5.145,0,0,1,3.749,1.38A5.442,5.442,0,0,1,203.113-5.586Zm-5.167-3.6A3.153,3.153,0,0,0,196-8.6a2.851,2.851,0,0,0-1.026,1.789h5.661a2.6,2.6,0,0,0-.859-1.772A2.751,2.751,0,0,0,197.946-9.185ZM210.429.193A5.484,5.484,0,0,1,206.4-1.359a5.454,5.454,0,0,1-1.568-4.055,5.426,5.426,0,0,1,1.574-4.05,5.5,5.5,0,0,1,4.023-1.547,5.491,5.491,0,0,1,3.314.994,4.691,4.691,0,0,1,1.81,2.777l-2.3.3A2.88,2.88,0,0,0,212.2-8.486a2.981,2.981,0,0,0-1.789-.537,2.835,2.835,0,0,0-2.234.994,3.827,3.827,0,0,0-.87,2.616,3.827,3.827,0,0,0,.87,2.616,2.835,2.835,0,0,0,2.234.994,3,3,0,0,0,1.789-.532,2.852,2.852,0,0,0,1.058-1.542l2.3.29a4.7,4.7,0,0,1-1.821,2.782A5.482,5.482,0,0,1,210.429.193Zm13.471-11.2A3.715,3.715,0,0,1,226.666-10a4.02,4.02,0,0,1,1,2.949V0h-2.492V-6.617a2.4,2.4,0,0,0-.6-1.8,2.155,2.155,0,0,0-1.552-.569,2.529,2.529,0,0,0-1.794.671,2.793,2.793,0,0,0-.73,2.111V0h-2.471V-16.5H220.5v7.047a3.754,3.754,0,0,1,1.429-1.149A4.574,4.574,0,0,1,223.9-11.011ZM235.737.2a5.679,5.679,0,0,1-4.093-1.52,5.4,5.4,0,0,1-1.59-4.1,5.376,5.376,0,0,1,1.59-4.077,5.679,5.679,0,0,1,4.093-1.52,5.705,5.705,0,0,1,4.1,1.515,5.372,5.372,0,0,1,1.59,4.082,5.4,5.4,0,0,1-1.59,4.1A5.694,5.694,0,0,1,235.737.2Zm-.021-2a3.03,3.03,0,0,0,2.342-1,3.734,3.734,0,0,0,.913-2.621,3.714,3.714,0,0,0-.913-2.616,3.038,3.038,0,0,0-2.342-.994,2.968,2.968,0,0,0-2.3.994,3.741,3.741,0,0,0-.9,2.616,3.775,3.775,0,0,0,.9,2.621A2.956,2.956,0,0,0,235.716-1.794ZM247.65.2a5.563,5.563,0,0,1-3.029-.768,3.206,3.206,0,0,1-1.482-2.229l2.095-.591a2.239,2.239,0,0,0,.849,1.359,2.613,2.613,0,0,0,1.568.457,2.5,2.5,0,0,0,1.311-.322,1.1,1.1,0,0,0,.526-1.042,1.007,1.007,0,0,0-.14-.532,1.461,1.461,0,0,0-.333-.387,2.324,2.324,0,0,0-.553-.306,6.242,6.242,0,0,0-.655-.236l-.8-.236q-.5-.15-.838-.258a7.637,7.637,0,0,1-1.031-.4,4.893,4.893,0,0,1-.849-.537,2.1,2.1,0,0,1-.65-.843,2.975,2.975,0,0,1-.22-1.187,2.841,2.841,0,0,1,.548-1.772,3.116,3.116,0,0,1,1.439-1.047A5.9,5.9,0,0,1,247.446-11a5.044,5.044,0,0,1,2.734.7,3.051,3.051,0,0,1,1.38,2.138l-1.955.462a1.948,1.948,0,0,0-.779-1.2,2.4,2.4,0,0,0-1.37-.387,2.392,2.392,0,0,0-1.251.306,1.012,1.012,0,0,0-.51.929,1.261,1.261,0,0,0,.038.317.618.618,0,0,0,.145.263q.107.118.193.209a1.009,1.009,0,0,0,.279.188q.193.1.312.15a3.382,3.382,0,0,0,.387.134l.4.118q.129.038.446.118l.446.113q.6.161,1.026.3a5.919,5.919,0,0,1,.935.414,3.257,3.257,0,0,1,.827.607,2.713,2.713,0,0,1,.532.865,3.143,3.143,0,0,1,.215,1.187,3.205,3.205,0,0,1-.344,1.52,2.614,2.614,0,0,1-.94,1.021,4.605,4.605,0,0,1-1.332.553A6.66,6.66,0,0,1,247.65.2Z" transform="translate(834 6700)" fill="#326dcc"/>
      <g id="Trazado_36894" data-name="Trazado 36894" transform="translate(735 6784)" fill="#fff">
        <path d="M 442 58.5 L 9 58.5 C 4.313111305236816 58.5 0.5 54.6868896484375 0.5 50 L 0.5 9 C 0.5 4.313111305236816 4.313111305236816 0.5 9 0.5 L 442 0.5 C 446.6868896484375 0.5 450.5 4.313111305236816 450.5 9 L 450.5 50 C 450.5 54.6868896484375 446.6868896484375 58.5 442 58.5 Z" stroke="none"/>
        <path d="M 9 1 C 4.588775634765625 1 1 4.588779449462891 1 9 L 1 50 C 1 54.41122436523438 4.588775634765625 58 9 58 L 442 58 C 446.4112243652344 58 450 54.41122436523438 450 50 L 450 9 C 450 4.588779449462891 446.4112243652344 1 442 1 L 9 1 M 9 0 L 442 0 C 446.9705505371094 0 451 4.029445648193359 451 9 L 451 50 C 451 54.97055435180664 446.9705505371094 59 442 59 L 9 59 C 4.029449462890625 59 0 54.97055435180664 0 50 L 0 9 C 0 4.029445648193359 4.029449462890625 0 9 0 Z" stroke="none" fill="#3b87d3"/>
      </g>
      <path id="Trazado_36895" data-name="Trazado 36895" d="M19.089,0H16.543l-1.01-12.1L11.14,0H9.528L5.156-12.074,4.136,0H1.579L2.8-15.318H6.381L10.323-4.49,14.3-15.318h3.577Zm13.03-5.586-.032.623H23.869A3.26,3.26,0,0,0,24.814-2.6,3.087,3.087,0,0,0,27-1.783a2.963,2.963,0,0,0,1.606-.44A2.776,2.776,0,0,0,29.67-3.48l2.256.387A4.749,4.749,0,0,1,30.057-.666a5.368,5.368,0,0,1-3.04.87,5.54,5.54,0,0,1-4.05-1.493A5.493,5.493,0,0,1,21.441-5.4a5.515,5.515,0,0,1,1.525-4.114,5.418,5.418,0,0,1,3.975-1.5,5.145,5.145,0,0,1,3.749,1.38A5.442,5.442,0,0,1,32.119-5.586Zm-5.167-3.6A3.153,3.153,0,0,0,25-8.6a2.851,2.851,0,0,0-1.026,1.789h5.661a2.6,2.6,0,0,0-.859-1.772A2.751,2.751,0,0,0,26.952-9.185Zm9.077-3.685a1.476,1.476,0,0,1-1.074-.446,1.449,1.449,0,0,1-.451-1.069,1.458,1.458,0,0,1,.446-1.069,1.47,1.47,0,0,1,1.08-.446,1.463,1.463,0,0,1,1.063.446,1.449,1.449,0,0,1,.451,1.069,1.449,1.449,0,0,1-.451,1.069A1.463,1.463,0,0,1,36.029-12.869ZM32.409,5.06v-2a2.136,2.136,0,0,0,1.885-.682,5.232,5.232,0,0,0,.457-2.648V-10.807h2.5V-.269a6.045,6.045,0,0,1-1.117,4.087A4.814,4.814,0,0,1,32.409,5.06ZM45.547.2a5.679,5.679,0,0,1-4.093-1.52,5.4,5.4,0,0,1-1.59-4.1,5.376,5.376,0,0,1,1.59-4.077,5.679,5.679,0,0,1,4.093-1.52A5.705,5.705,0,0,1,49.65-9.5a5.372,5.372,0,0,1,1.59,4.082,5.4,5.4,0,0,1-1.59,4.1A5.694,5.694,0,0,1,45.547.2Zm-.021-2a3.03,3.03,0,0,0,2.342-1,3.734,3.734,0,0,0,.913-2.621,3.714,3.714,0,0,0-.913-2.616,3.038,3.038,0,0,0-2.342-.994,2.968,2.968,0,0,0-2.3.994,3.741,3.741,0,0,0-.9,2.616,3.775,3.775,0,0,0,.9,2.621A2.956,2.956,0,0,0,45.525-1.794Zm10.71-7.2a3.263,3.263,0,0,1,1.37-1.375,4.272,4.272,0,0,1,2.111-.559v2.256a3.807,3.807,0,0,0-2.551.725,3.083,3.083,0,0,0-.833,2.433V0H53.851V-10.807h2.385ZM64.152.2A4.485,4.485,0,0,1,62.5-.081a2.621,2.621,0,0,1-1.2-.967,2.876,2.876,0,0,1-.478-1.692,3.134,3.134,0,0,1,.22-1.208,2.646,2.646,0,0,1,.58-.886,3.409,3.409,0,0,1,.913-.623,6.548,6.548,0,0,1,1.117-.424q.564-.156,1.305-.3l1.633-.3q1-.193,1-.978a1.535,1.535,0,0,0-.6-1.348,2.565,2.565,0,0,0-1.515-.424,2.535,2.535,0,0,0-1.558.457,2,2,0,0,0-.73,1.445l-2.224-.408Q61.51-11,65.624-11a7.615,7.615,0,0,1,1.284.1,4.585,4.585,0,0,1,1.171.371,3.368,3.368,0,0,1,.983.682,2.976,2.976,0,0,1,.655,1.1,4.575,4.575,0,0,1,.247,1.563V-3a1.711,1.711,0,0,0,.226,1.031.972.972,0,0,0,.795.279h.172V0H69.985q-1.837,0-2.191-1.429h-.118A3.513,3.513,0,0,1,66.145-.193,5.064,5.064,0,0,1,64.152.2Zm.58-1.944a2.873,2.873,0,0,0,2.159-.892,3.233,3.233,0,0,0,.859-2.342l-2.761.612a3.31,3.31,0,0,0-1.332.5,1.079,1.079,0,0,0-.44.918,1.038,1.038,0,0,0,.419.9A1.837,1.837,0,0,0,64.732-1.74ZM87.076-16.5h2.471V0H87.184l-.064-1.719A3.478,3.478,0,0,1,85.674-.279a4.41,4.41,0,0,1-2.154.526,4.986,4.986,0,0,1-1.982-.4,5,5,0,0,1-1.627-1.112A5.129,5.129,0,0,1,78.8-3.045,6.528,6.528,0,0,1,78.4-5.393,6.453,6.453,0,0,1,78.8-7.724,5.138,5.138,0,0,1,79.911-9.5a4.989,4.989,0,0,1,1.633-1.112,5,5,0,0,1,1.977-.4,4.468,4.468,0,0,1,2.111.5,3.471,3.471,0,0,1,1.445,1.37ZM81.78-2.825a3.022,3.022,0,0,0,2.288.978,2.958,2.958,0,0,0,2.277-1,3.628,3.628,0,0,0,.913-2.546,3.6,3.6,0,0,0-.918-2.535,2.963,2.963,0,0,0-2.272-1,3.013,3.013,0,0,0-2.283.972,3.578,3.578,0,0,0-.918,2.562A3.61,3.61,0,0,0,81.78-2.825Zm21.076-2.761-.032.623H94.606A3.26,3.26,0,0,0,95.552-2.6a3.087,3.087,0,0,0,2.181.816,2.963,2.963,0,0,0,1.606-.44,2.776,2.776,0,0,0,1.069-1.257l2.256.387a4.749,4.749,0,0,1-1.869,2.428,5.368,5.368,0,0,1-3.04.87A5.54,5.54,0,0,1,93.7-1.289,5.493,5.493,0,0,1,92.179-5.4,5.515,5.515,0,0,1,93.7-9.518a5.418,5.418,0,0,1,3.975-1.5,5.145,5.145,0,0,1,3.749,1.38A5.442,5.442,0,0,1,102.856-5.586Zm-5.167-3.6a3.153,3.153,0,0,0-1.95.585,2.851,2.851,0,0,0-1.026,1.789h5.661a2.6,2.6,0,0,0-.859-1.772A2.751,2.751,0,0,0,97.689-9.185Zm19.54-1.826a5.036,5.036,0,0,1,2.562.666,4.858,4.858,0,0,1,1.853,1.96,6.2,6.2,0,0,1,.7,2.992,6.638,6.638,0,0,1-.4,2.358,5.067,5.067,0,0,1-1.1,1.783,4.935,4.935,0,0,1-1.627,1.106,5.045,5.045,0,0,1-1.982.392,4.429,4.429,0,0,1-2.111-.5,3.484,3.484,0,0,1-1.445-1.386V5.35H111.2V-10.807h2.363l.064,1.762a3.429,3.429,0,0,1,1.445-1.445A4.447,4.447,0,0,1,117.229-11.011Zm-.537,9.163a2.991,2.991,0,0,0,2.267-.967,3.6,3.6,0,0,0,.913-2.578,3.563,3.563,0,0,0-.913-2.567,3.007,3.007,0,0,0-2.267-.956,3,3,0,0,0-2.288.994,3.569,3.569,0,0,0-.924,2.53,3.6,3.6,0,0,0,.924,2.546A2.991,2.991,0,0,0,116.692-1.848ZM127.37-8.991a3.263,3.263,0,0,1,1.37-1.375,4.272,4.272,0,0,1,2.111-.559v2.256a3.807,3.807,0,0,0-2.551.725,3.083,3.083,0,0,0-.833,2.433V0h-2.481V-10.807h2.385ZM137.532.2a5.679,5.679,0,0,1-4.093-1.52,5.4,5.4,0,0,1-1.59-4.1,5.376,5.376,0,0,1,1.59-4.077,5.679,5.679,0,0,1,4.093-1.52,5.705,5.705,0,0,1,4.1,1.515,5.372,5.372,0,0,1,1.59,4.082,5.4,5.4,0,0,1-1.59,4.1A5.694,5.694,0,0,1,137.532.2Zm-.021-2a3.03,3.03,0,0,0,2.342-1,3.734,3.734,0,0,0,.913-2.621,3.714,3.714,0,0,0-.913-2.616,3.038,3.038,0,0,0-2.342-.994,2.968,2.968,0,0,0-2.3.994,3.741,3.741,0,0,0-.9,2.616,3.775,3.775,0,0,0,.9,2.621A2.956,2.956,0,0,0,137.511-1.794ZM150.52.193a5.484,5.484,0,0,1-4.028-1.552,5.454,5.454,0,0,1-1.568-4.055,5.426,5.426,0,0,1,1.574-4.05,5.5,5.5,0,0,1,4.023-1.547,5.491,5.491,0,0,1,3.314.994,4.691,4.691,0,0,1,1.81,2.777l-2.3.3a2.88,2.88,0,0,0-1.058-1.547,2.981,2.981,0,0,0-1.789-.537,2.835,2.835,0,0,0-2.234.994,3.827,3.827,0,0,0-.87,2.616,3.827,3.827,0,0,0,.87,2.616A2.835,2.835,0,0,0,150.5-1.8a3,3,0,0,0,1.789-.532,2.852,2.852,0,0,0,1.058-1.542l2.3.29a4.7,4.7,0,0,1-1.821,2.782A5.482,5.482,0,0,1,150.52.193Zm17.413-5.779-.032.623h-8.218a3.26,3.26,0,0,0,.945,2.363,3.087,3.087,0,0,0,2.181.816,2.963,2.963,0,0,0,1.606-.44,2.776,2.776,0,0,0,1.069-1.257l2.256.387A4.749,4.749,0,0,1,165.87-.666a5.368,5.368,0,0,1-3.04.87,5.54,5.54,0,0,1-4.05-1.493A5.493,5.493,0,0,1,157.255-5.4a5.515,5.515,0,0,1,1.525-4.114,5.418,5.418,0,0,1,3.975-1.5,5.145,5.145,0,0,1,3.749,1.38A5.442,5.442,0,0,1,167.933-5.586Zm-5.167-3.6a3.153,3.153,0,0,0-1.95.585,2.851,2.851,0,0,0-1.026,1.789h5.661a2.6,2.6,0,0,0-.859-1.772A2.751,2.751,0,0,0,162.766-9.185ZM174.174.2a5.563,5.563,0,0,1-3.029-.768,3.206,3.206,0,0,1-1.482-2.229l2.095-.591a2.239,2.239,0,0,0,.849,1.359,2.613,2.613,0,0,0,1.568.457,2.5,2.5,0,0,0,1.311-.322,1.1,1.1,0,0,0,.526-1.042,1.007,1.007,0,0,0-.14-.532,1.461,1.461,0,0,0-.333-.387,2.324,2.324,0,0,0-.553-.306,6.242,6.242,0,0,0-.655-.236l-.8-.236q-.5-.15-.838-.258a7.637,7.637,0,0,1-1.031-.4,4.893,4.893,0,0,1-.849-.537,2.1,2.1,0,0,1-.65-.843,2.975,2.975,0,0,1-.22-1.187,2.841,2.841,0,0,1,.548-1.772,3.116,3.116,0,0,1,1.439-1.047A5.9,5.9,0,0,1,173.97-11a5.044,5.044,0,0,1,2.734.7,3.051,3.051,0,0,1,1.38,2.138l-1.955.462a1.948,1.948,0,0,0-.779-1.2,2.4,2.4,0,0,0-1.37-.387,2.392,2.392,0,0,0-1.251.306,1.012,1.012,0,0,0-.51.929,1.261,1.261,0,0,0,.038.317.618.618,0,0,0,.145.263q.107.118.193.209a1.009,1.009,0,0,0,.279.188q.193.1.312.15a3.382,3.382,0,0,0,.387.134l.4.118q.129.038.446.118l.446.113q.6.161,1.026.3a5.919,5.919,0,0,1,.935.414,3.257,3.257,0,0,1,.827.607,2.713,2.713,0,0,1,.532.865,3.143,3.143,0,0,1,.215,1.187,3.205,3.205,0,0,1-.344,1.52,2.614,2.614,0,0,1-.94,1.021,4.605,4.605,0,0,1-1.332.553A6.66,6.66,0,0,1,174.174.2Zm11.591,0a5.679,5.679,0,0,1-4.093-1.52,5.4,5.4,0,0,1-1.59-4.1,5.376,5.376,0,0,1,1.59-4.077,5.679,5.679,0,0,1,4.093-1.52,5.705,5.705,0,0,1,4.1,1.515,5.372,5.372,0,0,1,1.59,4.082,5.4,5.4,0,0,1-1.59,4.1A5.694,5.694,0,0,1,185.765.2Zm-.021-2a3.03,3.03,0,0,0,2.342-1A3.734,3.734,0,0,0,189-5.414a3.714,3.714,0,0,0-.913-2.616,3.038,3.038,0,0,0-2.342-.994,2.968,2.968,0,0,0-2.3.994,3.741,3.741,0,0,0-.9,2.616,3.775,3.775,0,0,0,.9,2.621A2.956,2.956,0,0,0,185.743-1.794Zm11.935,2a5.563,5.563,0,0,1-3.029-.768,3.206,3.206,0,0,1-1.482-2.229l2.095-.591a2.239,2.239,0,0,0,.849,1.359,2.613,2.613,0,0,0,1.568.457,2.5,2.5,0,0,0,1.311-.322,1.1,1.1,0,0,0,.526-1.042,1.007,1.007,0,0,0-.14-.532,1.461,1.461,0,0,0-.333-.387,2.324,2.324,0,0,0-.553-.306,6.242,6.242,0,0,0-.655-.236l-.8-.236q-.5-.15-.838-.258a7.637,7.637,0,0,1-1.031-.4,4.893,4.893,0,0,1-.849-.537,2.1,2.1,0,0,1-.65-.843,2.975,2.975,0,0,1-.22-1.187,2.841,2.841,0,0,1,.548-1.772,3.116,3.116,0,0,1,1.439-1.047A5.9,5.9,0,0,1,197.474-11a5.044,5.044,0,0,1,2.734.7,3.051,3.051,0,0,1,1.38,2.138l-1.955.462a1.948,1.948,0,0,0-.779-1.2,2.4,2.4,0,0,0-1.37-.387,2.392,2.392,0,0,0-1.251.306,1.012,1.012,0,0,0-.51.929,1.261,1.261,0,0,0,.038.317.618.618,0,0,0,.145.263q.107.118.193.209a1.009,1.009,0,0,0,.279.188q.193.1.312.15a3.382,3.382,0,0,0,.387.134l.4.118q.129.038.446.118l.446.113q.6.161,1.026.3a5.919,5.919,0,0,1,.935.414,3.257,3.257,0,0,1,.827.607,2.713,2.713,0,0,1,.532.865,3.143,3.143,0,0,1,.215,1.187,3.205,3.205,0,0,1-.344,1.52,2.614,2.614,0,0,1-.94,1.021,4.605,4.605,0,0,1-1.332.553A6.66,6.66,0,0,1,197.678.2Z" transform="translate(859 6820)" fill="#326dcc"/>
      <g id="Trazado_36896" data-name="Trazado 36896" transform="translate(735 6903)" fill="#fff">
        <path d="M 442 58.5 L 9 58.5 C 4.313111305236816 58.5 0.5 54.6868896484375 0.5 50 L 0.5 9 C 0.5 4.313111305236816 4.313111305236816 0.5 9 0.5 L 442 0.5 C 446.6868896484375 0.5 450.5 4.313111305236816 450.5 9 L 450.5 50 C 450.5 54.6868896484375 446.6868896484375 58.5 442 58.5 Z" stroke="none"/>
        <path d="M 9 1 C 4.588775634765625 1 1 4.588779449462891 1 9 L 1 50 C 1 54.41122436523438 4.588775634765625 58 9 58 L 442 58 C 446.4112243652344 58 450 54.41122436523438 450 50 L 450 9 C 450 4.588779449462891 446.4112243652344 1 442 1 L 9 1 M 9 0 L 442 0 C 446.9705505371094 0 451 4.029445648193359 451 9 L 451 50 C 451 54.97055435180664 446.9705505371094 59 442 59 L 9 59 C 4.029449462890625 59 0 54.97055435180664 0 50 L 0 9 C 0 4.029445648193359 4.029449462890625 0 9 0 Z" stroke="none" fill="#3b87d3"/>
      </g>
      <path id="Trazado_36897" data-name="Trazado 36897" d="M19.089,0H16.543l-1.01-12.1L11.14,0H9.528L5.156-12.074,4.136,0H1.579L2.8-15.318H6.381L10.323-4.49,14.3-15.318h3.577Zm13.03-5.586-.032.623H23.869A3.26,3.26,0,0,0,24.814-2.6,3.087,3.087,0,0,0,27-1.783a2.963,2.963,0,0,0,1.606-.44A2.776,2.776,0,0,0,29.67-3.48l2.256.387A4.749,4.749,0,0,1,30.057-.666a5.368,5.368,0,0,1-3.04.87,5.54,5.54,0,0,1-4.05-1.493A5.493,5.493,0,0,1,21.441-5.4a5.515,5.515,0,0,1,1.525-4.114,5.418,5.418,0,0,1,3.975-1.5,5.145,5.145,0,0,1,3.749,1.38A5.442,5.442,0,0,1,32.119-5.586Zm-5.167-3.6A3.153,3.153,0,0,0,25-8.6a2.851,2.851,0,0,0-1.026,1.789h5.661a2.6,2.6,0,0,0-.859-1.772A2.751,2.751,0,0,0,26.952-9.185Zm9.077-3.685a1.476,1.476,0,0,1-1.074-.446,1.449,1.449,0,0,1-.451-1.069,1.458,1.458,0,0,1,.446-1.069,1.47,1.47,0,0,1,1.08-.446,1.463,1.463,0,0,1,1.063.446,1.449,1.449,0,0,1,.451,1.069,1.449,1.449,0,0,1-.451,1.069A1.463,1.463,0,0,1,36.029-12.869ZM32.409,5.06v-2a2.136,2.136,0,0,0,1.885-.682,5.232,5.232,0,0,0,.457-2.648V-10.807h2.5V-.269a6.045,6.045,0,0,1-1.117,4.087A4.814,4.814,0,0,1,32.409,5.06ZM45.547.2a5.679,5.679,0,0,1-4.093-1.52,5.4,5.4,0,0,1-1.59-4.1,5.376,5.376,0,0,1,1.59-4.077,5.679,5.679,0,0,1,4.093-1.52A5.705,5.705,0,0,1,49.65-9.5a5.372,5.372,0,0,1,1.59,4.082,5.4,5.4,0,0,1-1.59,4.1A5.694,5.694,0,0,1,45.547.2Zm-.021-2a3.03,3.03,0,0,0,2.342-1,3.734,3.734,0,0,0,.913-2.621,3.714,3.714,0,0,0-.913-2.616,3.038,3.038,0,0,0-2.342-.994,2.968,2.968,0,0,0-2.3.994,3.741,3.741,0,0,0-.9,2.616,3.775,3.775,0,0,0,.9,2.621A2.956,2.956,0,0,0,45.525-1.794Zm10.71-7.2a3.263,3.263,0,0,1,1.37-1.375,4.272,4.272,0,0,1,2.111-.559v2.256a3.807,3.807,0,0,0-2.551.725,3.083,3.083,0,0,0-.833,2.433V0H53.851V-10.807h2.385ZM64.152.2A4.485,4.485,0,0,1,62.5-.081a2.621,2.621,0,0,1-1.2-.967,2.876,2.876,0,0,1-.478-1.692,3.134,3.134,0,0,1,.22-1.208,2.646,2.646,0,0,1,.58-.886,3.409,3.409,0,0,1,.913-.623,6.548,6.548,0,0,1,1.117-.424q.564-.156,1.305-.3l1.633-.3q1-.193,1-.978a1.535,1.535,0,0,0-.6-1.348,2.565,2.565,0,0,0-1.515-.424,2.535,2.535,0,0,0-1.558.457,2,2,0,0,0-.73,1.445l-2.224-.408Q61.51-11,65.624-11a7.615,7.615,0,0,1,1.284.1,4.585,4.585,0,0,1,1.171.371,3.368,3.368,0,0,1,.983.682,2.976,2.976,0,0,1,.655,1.1,4.575,4.575,0,0,1,.247,1.563V-3a1.711,1.711,0,0,0,.226,1.031.972.972,0,0,0,.795.279h.172V0H69.985q-1.837,0-2.191-1.429h-.118A3.513,3.513,0,0,1,66.145-.193,5.064,5.064,0,0,1,64.152.2Zm.58-1.944a2.873,2.873,0,0,0,2.159-.892,3.233,3.233,0,0,0,.859-2.342l-2.761.612a3.31,3.31,0,0,0-1.332.5,1.079,1.079,0,0,0-.44.918,1.038,1.038,0,0,0,.419.9A1.837,1.837,0,0,0,64.732-1.74ZM89.074-5.586l-.032.623H80.824A3.26,3.26,0,0,0,81.77-2.6a3.087,3.087,0,0,0,2.181.816,2.963,2.963,0,0,0,1.606-.44A2.776,2.776,0,0,0,86.625-3.48l2.256.387A4.749,4.749,0,0,1,87.012-.666a5.368,5.368,0,0,1-3.04.87,5.54,5.54,0,0,1-4.05-1.493A5.493,5.493,0,0,1,78.4-5.4a5.515,5.515,0,0,1,1.525-4.114,5.418,5.418,0,0,1,3.975-1.5,5.145,5.145,0,0,1,3.749,1.38A5.442,5.442,0,0,1,89.074-5.586Zm-5.167-3.6a3.153,3.153,0,0,0-1.95.585,2.851,2.851,0,0,0-1.026,1.789h5.661a2.6,2.6,0,0,0-.859-1.772A2.751,2.751,0,0,0,83.907-9.185Zm13.546-1.826a4,4,0,0,1,2.857.972,3.618,3.618,0,0,1,1.031,2.766V0H98.85V-6.735a2.217,2.217,0,0,0-.6-1.7,2.161,2.161,0,0,0-1.531-.553,2.525,2.525,0,0,0-1.826.682,2.825,2.825,0,0,0-.72,2.1V0H91.706V-10.807h2.471v1.278a3.651,3.651,0,0,1,1.391-1.1A4.471,4.471,0,0,1,97.453-11.011ZM110.344,0V-16.5h2.492V0Zm8.54.2a4.485,4.485,0,0,1-1.649-.285,2.621,2.621,0,0,1-1.2-.967,2.876,2.876,0,0,1-.478-1.692,3.134,3.134,0,0,1,.22-1.208,2.646,2.646,0,0,1,.58-.886,3.409,3.409,0,0,1,.913-.623,6.548,6.548,0,0,1,1.117-.424q.564-.156,1.305-.3l1.633-.3q1-.193,1-.978a1.535,1.535,0,0,0-.6-1.348,2.565,2.565,0,0,0-1.515-.424,2.535,2.535,0,0,0-1.558.457,2,2,0,0,0-.73,1.445l-2.224-.408Q116.241-11,120.355-11a7.615,7.615,0,0,1,1.284.1,4.585,4.585,0,0,1,1.171.371,3.368,3.368,0,0,1,.983.682,2.976,2.976,0,0,1,.655,1.1,4.575,4.575,0,0,1,.247,1.563V-3a1.711,1.711,0,0,0,.226,1.031.972.972,0,0,0,.795.279h.172V0h-1.171q-1.837,0-2.191-1.429h-.118a3.513,3.513,0,0,1-1.531,1.235A5.064,5.064,0,0,1,118.884.2Zm.58-1.944a2.873,2.873,0,0,0,2.159-.892,3.233,3.233,0,0,0,.859-2.342l-2.761.612a3.31,3.31,0,0,0-1.332.5,1.079,1.079,0,0,0-.44.918,1.038,1.038,0,0,0,.419.9A1.837,1.837,0,0,0,119.464-1.74ZM136.544.2A4.485,4.485,0,0,1,134.9-.081a2.621,2.621,0,0,1-1.2-.967,2.876,2.876,0,0,1-.478-1.692,3.134,3.134,0,0,1,.22-1.208,2.646,2.646,0,0,1,.58-.886,3.409,3.409,0,0,1,.913-.623,6.548,6.548,0,0,1,1.117-.424q.564-.156,1.305-.3l1.633-.3q1-.193,1-.978a1.535,1.535,0,0,0-.6-1.348,2.565,2.565,0,0,0-1.515-.424,2.536,2.536,0,0,0-1.558.457,2,2,0,0,0-.73,1.445l-2.224-.408Q133.9-11,138.016-11a7.615,7.615,0,0,1,1.284.1,4.584,4.584,0,0,1,1.171.371,3.369,3.369,0,0,1,.983.682,2.976,2.976,0,0,1,.655,1.1,4.575,4.575,0,0,1,.247,1.563V-3a1.711,1.711,0,0,0,.226,1.031.972.972,0,0,0,.795.279h.172V0h-1.171q-1.837,0-2.191-1.429h-.118a3.513,3.513,0,0,1-1.531,1.235A5.064,5.064,0,0,1,136.544.2Zm.58-1.944a2.873,2.873,0,0,0,2.159-.892,3.233,3.233,0,0,0,.859-2.342l-2.761.612a3.31,3.31,0,0,0-1.332.5,1.079,1.079,0,0,0-.44.918,1.038,1.038,0,0,0,.419.9A1.837,1.837,0,0,0,137.124-1.74ZM150.38.193a5.484,5.484,0,0,1-4.028-1.552,5.454,5.454,0,0,1-1.568-4.055,5.426,5.426,0,0,1,1.574-4.05,5.5,5.5,0,0,1,4.023-1.547,5.491,5.491,0,0,1,3.314.994A4.691,4.691,0,0,1,155.5-7.24l-2.3.3a2.88,2.88,0,0,0-1.058-1.547,2.981,2.981,0,0,0-1.789-.537,2.835,2.835,0,0,0-2.234.994,3.827,3.827,0,0,0-.87,2.616,3.827,3.827,0,0,0,.87,2.616,2.835,2.835,0,0,0,2.234.994,3,3,0,0,0,1.789-.532,2.852,2.852,0,0,0,1.058-1.542l2.3.29a4.7,4.7,0,0,1-1.821,2.782A5.482,5.482,0,0,1,150.38.193ZM161.724,0a3.055,3.055,0,0,1-2.277-.827,3.176,3.176,0,0,1-.816-2.331V-8.873h-2.159v-1.934h.741a1.69,1.69,0,0,0,1.273-.414,2.089,2.089,0,0,0,.392-1.445v-1.676h2.256v3.534h2.353v1.934h-2.353v5.457a1.549,1.549,0,0,0,.371,1.123,1.336,1.336,0,0,0,1,.381h.978V0Zm11.247-10.807h2.471V0h-2.353l-.064-1.354A3.866,3.866,0,0,1,169.694.2a4,4,0,0,1-2.857-.972,3.618,3.618,0,0,1-1.031-2.766v-7.272H168.3v6.735a2.217,2.217,0,0,0,.6,1.7,2.176,2.176,0,0,0,1.542.553,2.506,2.506,0,0,0,1.821-.682,2.838,2.838,0,0,0,.714-2.1ZM181.489.2a4.485,4.485,0,0,1-1.649-.285,2.621,2.621,0,0,1-1.2-.967,2.876,2.876,0,0,1-.478-1.692,3.134,3.134,0,0,1,.22-1.208,2.646,2.646,0,0,1,.58-.886,3.409,3.409,0,0,1,.913-.623,6.548,6.548,0,0,1,1.117-.424q.564-.156,1.305-.3l1.633-.3q1-.193,1-.978a1.535,1.535,0,0,0-.6-1.348,2.565,2.565,0,0,0-1.515-.424,2.536,2.536,0,0,0-1.558.457,2,2,0,0,0-.73,1.445L178.3-7.734Q178.847-11,182.961-11a7.615,7.615,0,0,1,1.284.1,4.584,4.584,0,0,1,1.171.371,3.369,3.369,0,0,1,.983.682,2.976,2.976,0,0,1,.655,1.1,4.575,4.575,0,0,1,.247,1.563V-3a1.711,1.711,0,0,0,.226,1.031.972.972,0,0,0,.795.279h.172V0h-1.171q-1.837,0-2.191-1.429h-.118a3.513,3.513,0,0,1-1.531,1.235A5.064,5.064,0,0,1,181.489.2Zm.58-1.944a2.873,2.873,0,0,0,2.159-.892,3.233,3.233,0,0,0,.859-2.342l-2.761.612a3.31,3.31,0,0,0-1.332.5,1.079,1.079,0,0,0-.44.918,1.038,1.038,0,0,0,.419.9A1.837,1.837,0,0,0,182.069-1.74ZM195.325.193A5.484,5.484,0,0,1,191.3-1.359a5.454,5.454,0,0,1-1.568-4.055,5.426,5.426,0,0,1,1.574-4.05,5.5,5.5,0,0,1,4.023-1.547,5.491,5.491,0,0,1,3.314.994,4.691,4.691,0,0,1,1.81,2.777l-2.3.3a2.88,2.88,0,0,0-1.058-1.547,2.981,2.981,0,0,0-1.789-.537,2.835,2.835,0,0,0-2.234.994,3.827,3.827,0,0,0-.87,2.616,3.827,3.827,0,0,0,.87,2.616A2.835,2.835,0,0,0,195.3-1.8a3,3,0,0,0,1.789-.532,2.852,2.852,0,0,0,1.058-1.542l2.3.29a4.7,4.7,0,0,1-1.821,2.782A5.482,5.482,0,0,1,195.325.193ZM204.2-12.869a1.476,1.476,0,0,1-1.074-.446,1.449,1.449,0,0,1-.451-1.069,1.458,1.458,0,0,1,.446-1.069,1.47,1.47,0,0,1,1.08-.446,1.463,1.463,0,0,1,1.063.446,1.449,1.449,0,0,1,.451,1.069,1.449,1.449,0,0,1-.451,1.069A1.463,1.463,0,0,1,204.2-12.869ZM202.931,0V-10.807h2.481V0Zm9.937-12.461,2.761-3.738,1.257.9-2.417,2.836ZM213.705.2a5.679,5.679,0,0,1-4.093-1.52,5.4,5.4,0,0,1-1.59-4.1,5.376,5.376,0,0,1,1.59-4.077,5.679,5.679,0,0,1,4.093-1.52,5.705,5.705,0,0,1,4.1,1.515,5.372,5.372,0,0,1,1.59,4.082,5.4,5.4,0,0,1-1.59,4.1A5.694,5.694,0,0,1,213.705.2Zm-.021-2a3.03,3.03,0,0,0,2.342-1,3.734,3.734,0,0,0,.913-2.621,3.714,3.714,0,0,0-.913-2.616,3.038,3.038,0,0,0-2.342-.994,2.968,2.968,0,0,0-2.3.994,3.741,3.741,0,0,0-.9,2.616,3.775,3.775,0,0,0,.9,2.621A2.956,2.956,0,0,0,213.684-1.794Zm14.072-9.217a4,4,0,0,1,2.857.972,3.618,3.618,0,0,1,1.031,2.766V0h-2.492V-6.735a2.217,2.217,0,0,0-.6-1.7,2.161,2.161,0,0,0-1.531-.553,2.525,2.525,0,0,0-1.826.682,2.825,2.825,0,0,0-.72,2.1V0h-2.471V-10.807h2.471v1.278a3.651,3.651,0,0,1,1.391-1.1A4.471,4.471,0,0,1,227.756-11.011Zm20.7-5.489h2.471V0h-2.363L248.5-1.719a3.478,3.478,0,0,1-1.445,1.439A4.41,4.41,0,0,1,244.9.247a4.986,4.986,0,0,1-1.982-.4,5,5,0,0,1-1.627-1.112,5.129,5.129,0,0,1-1.106-1.783,6.528,6.528,0,0,1-.408-2.347,6.453,6.453,0,0,1,.408-2.331A5.138,5.138,0,0,1,241.291-9.5a4.989,4.989,0,0,1,1.633-1.112,5,5,0,0,1,1.977-.4,4.468,4.468,0,0,1,2.111.5,3.471,3.471,0,0,1,1.445,1.37Zm-5.3,13.675a3.022,3.022,0,0,0,2.288.978,2.958,2.958,0,0,0,2.277-1,3.628,3.628,0,0,0,.913-2.546,3.6,3.6,0,0,0-.918-2.535,2.963,2.963,0,0,0-2.272-1,3.013,3.013,0,0,0-2.283.972,3.578,3.578,0,0,0-.918,2.562A3.61,3.61,0,0,0,243.16-2.825Zm21.076-2.761-.032.623h-8.218a3.26,3.26,0,0,0,.945,2.363,3.087,3.087,0,0,0,2.181.816,2.963,2.963,0,0,0,1.606-.44,2.776,2.776,0,0,0,1.069-1.257l2.256.387a4.75,4.75,0,0,1-1.869,2.428,5.368,5.368,0,0,1-3.04.87,5.54,5.54,0,0,1-4.05-1.493A5.493,5.493,0,0,1,253.559-5.4a5.515,5.515,0,0,1,1.525-4.114,5.418,5.418,0,0,1,3.975-1.5,5.145,5.145,0,0,1,3.749,1.38A5.442,5.442,0,0,1,264.236-5.586Zm-5.167-3.6a3.153,3.153,0,0,0-1.95.585,2.851,2.851,0,0,0-1.026,1.789h5.661a2.6,2.6,0,0,0-.859-1.772A2.751,2.751,0,0,0,259.069-9.185ZM272.583,0V-16.5h2.492V0Zm10.785.2a5.679,5.679,0,0,1-4.093-1.52,5.4,5.4,0,0,1-1.59-4.1,5.376,5.376,0,0,1,1.59-4.077,5.679,5.679,0,0,1,4.093-1.52,5.705,5.705,0,0,1,4.1,1.515,5.372,5.372,0,0,1,1.59,4.082,5.4,5.4,0,0,1-1.59,4.1A5.694,5.694,0,0,1,283.368.2Zm-.021-2a3.03,3.03,0,0,0,2.342-1,3.734,3.734,0,0,0,.913-2.621,3.714,3.714,0,0,0-.913-2.616,3.038,3.038,0,0,0-2.342-.994,2.968,2.968,0,0,0-2.3.994,3.741,3.741,0,0,0-.9,2.616,3.775,3.775,0,0,0,.9,2.621A2.956,2.956,0,0,0,283.347-1.794Zm11.935,2a5.563,5.563,0,0,1-3.029-.768,3.206,3.206,0,0,1-1.482-2.229l2.095-.591a2.239,2.239,0,0,0,.849,1.359,2.613,2.613,0,0,0,1.568.457,2.5,2.5,0,0,0,1.311-.322,1.1,1.1,0,0,0,.526-1.042,1.007,1.007,0,0,0-.14-.532,1.461,1.461,0,0,0-.333-.387,2.324,2.324,0,0,0-.553-.306,6.242,6.242,0,0,0-.655-.236l-.8-.236q-.5-.15-.838-.258a7.637,7.637,0,0,1-1.031-.4,4.894,4.894,0,0,1-.849-.537,2.1,2.1,0,0,1-.65-.843,2.975,2.975,0,0,1-.22-1.187,2.841,2.841,0,0,1,.548-1.772,3.116,3.116,0,0,1,1.439-1.047A5.9,5.9,0,0,1,295.077-11a5.044,5.044,0,0,1,2.734.7,3.052,3.052,0,0,1,1.38,2.138l-1.955.462a1.948,1.948,0,0,0-.779-1.2,2.4,2.4,0,0,0-1.37-.387,2.392,2.392,0,0,0-1.251.306,1.012,1.012,0,0,0-.51.929,1.261,1.261,0,0,0,.038.317.618.618,0,0,0,.145.263q.107.118.193.209a1.009,1.009,0,0,0,.279.188q.193.1.312.15a3.38,3.38,0,0,0,.387.134l.4.118q.129.038.446.118l.446.113q.6.161,1.026.3a5.92,5.92,0,0,1,.935.414,3.257,3.257,0,0,1,.827.607,2.712,2.712,0,0,1,.532.865,3.143,3.143,0,0,1,.215,1.187,3.205,3.205,0,0,1-.344,1.52,2.614,2.614,0,0,1-.94,1.021,4.605,4.605,0,0,1-1.332.553A6.66,6.66,0,0,1,295.281.2ZM317.6-5.586l-.032.623h-8.218A3.26,3.26,0,0,0,310.3-2.6a3.087,3.087,0,0,0,2.181.816,2.963,2.963,0,0,0,1.606-.44,2.776,2.776,0,0,0,1.069-1.257l2.256.387a4.75,4.75,0,0,1-1.869,2.428A5.368,5.368,0,0,1,312.5.2a5.54,5.54,0,0,1-4.05-1.493A5.493,5.493,0,0,1,306.926-5.4a5.515,5.515,0,0,1,1.525-4.114,5.418,5.418,0,0,1,3.975-1.5,5.145,5.145,0,0,1,3.749,1.38A5.442,5.442,0,0,1,317.6-5.586Zm-5.167-3.6a3.153,3.153,0,0,0-1.95.585,2.851,2.851,0,0,0-1.026,1.789h5.661a2.6,2.6,0,0,0-.859-1.772A2.751,2.751,0,0,0,312.437-9.185Zm19.733-1.826a3.8,3.8,0,0,1,2.653.9,3.256,3.256,0,0,1,.988,2.541V0H333.33V-6.886a2.122,2.122,0,0,0-.537-1.574,1.845,1.845,0,0,0-1.354-.532,2.025,2.025,0,0,0-1.552.639,2.81,2.81,0,0,0-.6,1.971V0h-2.514V-6.832a2.2,2.2,0,0,0-.542-1.611,1.86,1.86,0,0,0-1.38-.548,2.01,2.01,0,0,0-1.558.661,2.985,2.985,0,0,0-.6,2.057V0h-2.46V-10.807h2.46v1.332a3.486,3.486,0,0,1,3.051-1.536,4.1,4.1,0,0,1,1.934.435,2.863,2.863,0,0,1,1.246,1.251A3.587,3.587,0,0,1,332.17-11.011Zm12.977,0a5.036,5.036,0,0,1,2.562.666,4.858,4.858,0,0,1,1.853,1.96,6.2,6.2,0,0,1,.7,2.992,6.638,6.638,0,0,1-.4,2.358,5.067,5.067,0,0,1-1.1,1.783,4.935,4.935,0,0,1-1.627,1.106,5.045,5.045,0,0,1-1.982.392,4.429,4.429,0,0,1-2.111-.5,3.484,3.484,0,0,1-1.445-1.386V5.35H339.12V-10.807h2.363l.064,1.762a3.429,3.429,0,0,1,1.445-1.445A4.447,4.447,0,0,1,345.146-11.011Zm-.537,9.163a2.991,2.991,0,0,0,2.267-.967,3.6,3.6,0,0,0,.913-2.578,3.563,3.563,0,0,0-.913-2.567,3.007,3.007,0,0,0-2.267-.956,3,3,0,0,0-2.288.994,3.569,3.569,0,0,0-.924,2.53,3.6,3.6,0,0,0,.924,2.546A2.991,2.991,0,0,0,344.609-1.848ZM352.9,0V-16.5h2.492V0Zm15.8-5.586-.032.623h-8.218A3.26,3.26,0,0,0,361.4-2.6a3.087,3.087,0,0,0,2.181.816,2.963,2.963,0,0,0,1.606-.44,2.776,2.776,0,0,0,1.069-1.257l2.256.387a4.75,4.75,0,0,1-1.869,2.428A5.368,5.368,0,0,1,363.6.2a5.54,5.54,0,0,1-4.05-1.493A5.493,5.493,0,0,1,358.026-5.4a5.515,5.515,0,0,1,1.525-4.114,5.418,5.418,0,0,1,3.975-1.5,5.145,5.145,0,0,1,3.749,1.38A5.442,5.442,0,0,1,368.7-5.586Zm-5.167-3.6a3.153,3.153,0,0,0-1.95.585,2.851,2.851,0,0,0-1.026,1.789h5.661a2.6,2.6,0,0,0-.859-1.772A2.751,2.751,0,0,0,363.537-9.185ZM373.882.2a4.485,4.485,0,0,1-1.649-.285,2.621,2.621,0,0,1-1.2-.967,2.876,2.876,0,0,1-.478-1.692,3.134,3.134,0,0,1,.22-1.208,2.646,2.646,0,0,1,.58-.886,3.409,3.409,0,0,1,.913-.623,6.548,6.548,0,0,1,1.117-.424q.564-.156,1.305-.3l1.633-.3q1-.193,1-.978a1.535,1.535,0,0,0-.6-1.348,2.564,2.564,0,0,0-1.515-.424,2.535,2.535,0,0,0-1.558.457,2,2,0,0,0-.73,1.445l-2.224-.408Q371.239-11,375.354-11a7.615,7.615,0,0,1,1.284.1,4.585,4.585,0,0,1,1.171.371,3.368,3.368,0,0,1,.983.682,2.976,2.976,0,0,1,.655,1.1,4.575,4.575,0,0,1,.247,1.563V-3a1.711,1.711,0,0,0,.226,1.031.972.972,0,0,0,.795.279h.172V0h-1.171q-1.837,0-2.191-1.429h-.118a3.513,3.513,0,0,1-1.531,1.235A5.064,5.064,0,0,1,373.882.2Zm.58-1.944a2.873,2.873,0,0,0,2.159-.892,3.233,3.233,0,0,0,.859-2.342l-2.761.612a3.31,3.31,0,0,0-1.332.5,1.079,1.079,0,0,0-.44.918,1.038,1.038,0,0,0,.419.9A1.837,1.837,0,0,0,374.462-1.74ZM390.844-16.5h2.471V0h-2.363l-.064-1.719a3.477,3.477,0,0,1-1.445,1.439,4.41,4.41,0,0,1-2.154.526,4.986,4.986,0,0,1-1.982-.4,5,5,0,0,1-1.627-1.112,5.129,5.129,0,0,1-1.106-1.783,6.528,6.528,0,0,1-.408-2.347,6.454,6.454,0,0,1,.408-2.331A5.138,5.138,0,0,1,383.679-9.5a4.989,4.989,0,0,1,1.633-1.112,5,5,0,0,1,1.977-.4,4.468,4.468,0,0,1,2.111.5,3.471,3.471,0,0,1,1.445,1.37Zm-5.3,13.675a3.022,3.022,0,0,0,2.288.978,2.958,2.958,0,0,0,2.277-1,3.628,3.628,0,0,0,.913-2.546,3.6,3.6,0,0,0-.918-2.535,2.963,2.963,0,0,0-2.272-1,3.013,3.013,0,0,0-2.283.972,3.578,3.578,0,0,0-.918,2.562A3.61,3.61,0,0,0,385.548-2.825ZM401.607.2a5.679,5.679,0,0,1-4.093-1.52,5.4,5.4,0,0,1-1.59-4.1,5.376,5.376,0,0,1,1.59-4.077,5.679,5.679,0,0,1,4.093-1.52,5.705,5.705,0,0,1,4.1,1.515,5.372,5.372,0,0,1,1.59,4.082,5.4,5.4,0,0,1-1.59,4.1A5.694,5.694,0,0,1,401.607.2Zm-.021-2a3.03,3.03,0,0,0,2.342-1,3.734,3.734,0,0,0,.913-2.621,3.714,3.714,0,0,0-.913-2.616,3.038,3.038,0,0,0-2.342-.994,2.968,2.968,0,0,0-2.3.994,3.741,3.741,0,0,0-.9,2.616,3.775,3.775,0,0,0,.9,2.621A2.956,2.956,0,0,0,401.586-1.794Zm11.935,2a5.563,5.563,0,0,1-3.029-.768,3.206,3.206,0,0,1-1.482-2.229l2.095-.591a2.239,2.239,0,0,0,.849,1.359,2.613,2.613,0,0,0,1.568.457,2.5,2.5,0,0,0,1.311-.322,1.1,1.1,0,0,0,.526-1.042,1.007,1.007,0,0,0-.14-.532,1.461,1.461,0,0,0-.333-.387,2.324,2.324,0,0,0-.553-.306,6.242,6.242,0,0,0-.655-.236l-.8-.236q-.5-.15-.838-.258a7.637,7.637,0,0,1-1.031-.4,4.894,4.894,0,0,1-.849-.537,2.1,2.1,0,0,1-.65-.843,2.975,2.975,0,0,1-.22-1.187,2.841,2.841,0,0,1,.548-1.772,3.116,3.116,0,0,1,1.439-1.047A5.9,5.9,0,0,1,413.316-11a5.044,5.044,0,0,1,2.734.7,3.052,3.052,0,0,1,1.38,2.138l-1.955.462a1.948,1.948,0,0,0-.779-1.2,2.4,2.4,0,0,0-1.37-.387,2.392,2.392,0,0,0-1.251.306,1.012,1.012,0,0,0-.51.929,1.261,1.261,0,0,0,.038.317.618.618,0,0,0,.145.263q.107.118.193.209a1.009,1.009,0,0,0,.279.188q.193.1.312.15a3.38,3.38,0,0,0,.387.134l.4.118q.129.038.446.118l.446.113q.6.161,1.026.3a5.92,5.92,0,0,1,.935.414,3.257,3.257,0,0,1,.827.607,2.712,2.712,0,0,1,.532.865,3.143,3.143,0,0,1,.215,1.187,3.205,3.205,0,0,1-.344,1.52,2.614,2.614,0,0,1-.94,1.021,4.605,4.605,0,0,1-1.332.553A6.66,6.66,0,0,1,413.521.2Z" transform="translate(751 6939)" fill="#326dcc"/>
      <g id="Grupo_17667" data-name="Grupo 17667">
        <path id="Trazado_36748" data-name="Trazado 36748" d="M4318.5,5301v42.145" transform="translate(-3364 1296)" fill="none" stroke="#4e4e4e" stroke-width="1"/>
        <path id="Polgono_39" data-name="Polgono 39" d="M7.5,0,15,13H0Z" transform="translate(962 6646) rotate(180)" fill="#222"/>
      </g>
      <g id="Grupo_17668" data-name="Grupo 17668" transform="translate(0 126)">
        <path id="Trazado_36748-2" data-name="Trazado 36748" d="M4318.5,5301v42.145" transform="translate(-3364 1296)" fill="none" stroke="#4e4e4e" stroke-width="1"/>
        <path id="Polgono_39-2" data-name="Polgono 39" d="M7.5,0,15,13H0Z" transform="translate(962 6646) rotate(180)" fill="#222"/>
      </g>
      <g id="Grupo_17669" data-name="Grupo 17669" transform="translate(0 246)">
        <path id="Trazado_36748-3" data-name="Trazado 36748" d="M4318.5,5301v42.145" transform="translate(-3364 1296)" fill="none" stroke="#4e4e4e" stroke-width="1"/>
        <path id="Polgono_39-3" data-name="Polgono 39" d="M7.5,0,15,13H0Z" transform="translate(962 6646) rotate(180)" fill="#222"/>
      </g>
    </g>
  </g>
</svg>
