<svg xmlns="http://www.w3.org/2000/svg" width="483.772" height="320.73" viewBox="0 0 483.772 320.73">
  <g id="Grupo_17682" data-name="Grupo 17682" transform="translate(-422 -19572)">
    <g id="Grupo_17586" data-name="Grupo 17586" transform="translate(422 19572)">
      <path id="Trazado_36278" data-name="Trazado 36278" d="M429.226,379.185c-19.867-16.947-43.818-119.149-125.867-65.919-42.391,27.5-113.871-23.61-173.035-5.956-54.335,16.213-59.573,69.629-54.316,87.035,10.62,35.159-22.428,40.392-53.086,55.5C-25.168,473.539,10.471,557.7,55.9,558.1s320.306,0,320.306,0,66.077-1.51,93.522-37.935c29.534-39.2,10.812-97.2-40.5-140.977" transform="translate(0 -237.543)" fill="#ebf2f9"/>
      <path id="Trazado_36279" data-name="Trazado 36279" d="M783.615,1520.793s.575,9.281,2.371,9.414c.239.017,9.107.017,9.107.017l11.32-.066a3.673,3.673,0,0,0-3.383-3.3c-3.309-.576-8.848-2.9-10.852-7.275-2.109-4.6-8.563,1.214-8.563,1.214" transform="translate(-624.53 -1209.671)" fill="#163560"/>
      <path id="Trazado_36280" data-name="Trazado 36280" d="M753.674,999.023s4.932,1.267,8.067.322,8.531.607,9.4,1.75.55,1.6-1,1.992-7.044,2.738-10.654,1.381a28.777,28.777,0,0,0-8.319-1.406Z" transform="translate(-598.668 -796.207)" fill="#e49963"/>
      <path id="Trazado_36281" data-name="Trazado 36281" d="M553.57,766.421s5.54,39.376,14.714,42.9c4.526,1.74,24.531,5.685,30.449,6.081,0,0,1.45-1.176,1.1-5.963,0,0-20.959-7.695-23.937-11.879-4.431-6.228,2.751-25.443-2.81-31.292s-14.926-8.363-19.513.15" transform="translate(-441.187 -606.446)" fill="#4a75cb"/>
      <path id="Trazado_36282" data-name="Trazado 36282" d="M479.278,1289.373v-8.585H465.762a.665.665,0,0,1-.663-.663v-1.375a.665.665,0,0,1,.663-.663h13.516v-48.871a2.5,2.5,0,0,1,2.493-2.493h2.675a2.5,2.5,0,0,1,2.493,2.493v48.871h13.516a.666.666,0,0,1,.663.663v1.375a.665.665,0,0,1-.663.663H486.939v8.585c9.779.739,17.615,4.26,19.813,8.809H459.465c2.2-4.549,10.033-8.07,19.813-8.809" transform="translate(-366.187 -977.68)" fill="#a6c7f9"/>
      <path id="Trazado_36283" data-name="Trazado 36283" d="M535,1105.863a69.051,69.051,0,0,0,5.412,7.743c5.955,7.517,12.436,13.714,13.566,19.573a26.458,26.458,0,0,0,1.047,3.75c.471,1.342,1.054,2.753,1.727,4.212a129.7,129.7,0,0,0,10.078,17.229c6.522,9.664,12.654,17.728,12.654,17.728l11.247-.479c-.451-1.127-5.356-14.471-11.918-30.777-2.665-6.62-5.5-13.661-8.232-20.452q-.546-1.36-1.089-2.7c-.836-2.078-1.659-4.124-2.461-6.116-6.162-15.312-11.069-27.5-11.069-27.5s-24.627-9.329-27.184-3.284c-2.109,4.984-.391,9.867,6.223,21.082" transform="translate(-420.749 -862.931)" fill="#e58638"/>
      <path id="Trazado_36284" data-name="Trazado 36284" d="M627.4,1401.915s-7.823,5.027-7.064,6.659c.1.217,4.424,7.96,4.424,7.96l5.576,9.852a3.673,3.673,0,0,0,1.236-4.565c-1.11-3.17-1.779-9.14,1.062-13.022,2.989-4.084-5.235-6.885-5.235-6.885" transform="translate(-494.358 -1117.306)" fill="#163560"/>
      <path id="Trazado_36285" data-name="Trazado 36285" d="M564.192,1087.147s30.911,19.255,34.362,32.194-41.119,40.544-41.119,40.544-4.888-4.313-5.751-7.476c0,0,20.146-24.137,24.516-29.547,2.684-3.323-39.684-11.5-44.86-19.555s-3.323-14.826-3.323-14.826Z" transform="translate(-420.564 -866.441)" fill="#ee9849"/>
      <path id="Trazado_36286" data-name="Trazado 36286" d="M411.083,1208.936h63.264a2.307,2.307,0,0,1,2.3,2.3v12.653a2.307,2.307,0,0,1-2.3,2.3H411.083a2.307,2.307,0,0,1-2.3-2.3v-12.653a2.307,2.307,0,0,1,2.3-2.3" transform="translate(-325.793 -963.505)" fill="#1c468a"/>
      <path id="Trazado_36287" data-name="Trazado 36287" d="M578.283,692.473a17.443,17.443,0,0,1,4.709,4.268c-7.405,1.915-19.682-4.947-19.682-4.947a18.165,18.165,0,0,0,6.533-10.24c.089-.355.171-.719.243-1.092a22.238,22.238,0,0,0,.4-3.853l3.4,3.047,5.657,5.068a48.586,48.586,0,0,1-.836,5.72q-.185.947-.426,2.03" transform="translate(-448.95 -539.248)" fill="#e49963"/>
      <path id="Trazado_36288" data-name="Trazado 36288" d="M524.077,775.4c1.061,14.267-.723,35.956.48,39.714,1.039,3.242,13.26,1.323,17.983.241,1.748-.4,3.866-.973,6.053-1.649,6.1-1.889,12.747-4.586,13.46-6.589a1.692,1.692,0,0,0,.066-.23,1.83,1.83,0,0,0-.013-.839c-.238-1.02-1.154-2.125-1.262-4.652-.121-2.822-.1-6.144-.209-9.717-.005-.4-.011-.841-.055-1.242l0-.146-.005-.229c-.1-3.984-.311-8.174-.552-12.328-.154-2.609-.331-5.193-.536-7.669a102.542,102.542,0,0,0-2.2-15.667,25.159,25.159,0,0,0-8.083-12.477l-2.251-1.931a13.019,13.019,0,0,1-8.168-1.088c-2.907-1.381-3.911-2.37-4.418-2-6.715,5.18-11.544,21.054-10.291,38.5" transform="translate(-417.524 -587.244)" fill="#739af0"/>
      <path id="Trazado_36289" data-name="Trazado 36289" d="M601.858,981.817c6.1-1.889,12.747-4.586,13.46-6.589a1.667,1.667,0,0,0,.066-.23c0-.28-.007-.559-.013-.839-.238-1.02-1.154-2.125-1.262-4.652-.121-2.821-.1-6.144-.209-9.717-.005-.4-.011-.841-.055-1.241l0-.146c0-.077,0-.152-.005-.229L590.8,947.723s-1.328,18.571,11.061,34.094" transform="translate(-470.823 -755.322)" fill="#4a75cb"/>
      <path id="Trazado_36290" data-name="Trazado 36290" d="M603.85,696.687a48.564,48.564,0,0,1-.836,5.72c-5.523-1.785-8.029-6.774-8.866-8.89-.238-.6-.341-.967-.341-.967l.584-.124,3.8-.806Z" transform="translate(-473.255 -551.211)" fill="#d68d5d"/>
      <path id="Trazado_36291" data-name="Trazado 36291" d="M600.587,637.1s-12.135,1.369-12.871-6.2-2.8-12.492,4.919-13.687,9.506,1.548,10.366,4.015.724,15.322-2.413,15.873" transform="translate(-467.756 -491.68)" fill="#e49963"/>
      <path id="Trazado_36292" data-name="Trazado 36292" d="M575.267,612.357a12.468,12.468,0,0,1,11.816-11.09c7.566-.713,3.348-7.225,2.542-8.264,0,0-5.8.795-11.739,1.777-12.472,2.061-3.843,16.013-2.618,17.577" transform="translate(-455.255 -472.616)" fill="#2b478b"/>
      <rect id="Rectángulo_4683" data-name="Rectángulo 4683" width="29.247" height="1.117" transform="translate(178.753 212.683) rotate(-72)" fill="#4a75cb"/>
      <rect id="Rectángulo_4684" data-name="Rectángulo 4684" width="1.836" height="30.691" transform="translate(149.132 212.373) rotate(-88.776)" fill="#4a75cb"/>
      <path id="Trazado_36293" data-name="Trazado 36293" d="M739.484,1028.841s4.762,1.8,7.982,1.209,8.412,1.543,9.15,2.776.37,1.648-1.214,1.869-7.3,1.944-10.742.2a28.772,28.772,0,0,0-8.114-2.314Z" transform="translate(-587.016 -819.972)" fill="#e49963"/>
      <path id="Trazado_36294" data-name="Trazado 36294" d="M565.613,777.96s1.165,39.746,9.894,44.263c4.307,2.229,23.755,8.355,29.593,9.4,0,0,1.571-1.009,1.747-5.806,0,0-19.983-9.959-22.481-14.446-3.718-6.678,5.539-24.984.657-31.411s-13.913-9.958-19.411-2" transform="translate(-450.785 -616.369)" fill="#739af0"/>
      <path id="Trazado_36295" data-name="Trazado 36295" d="M1034.946,256.526h158.346a20.009,20.009,0,0,0,20.009-20.009V20.014A20.009,20.009,0,0,0,1193.292.005H1034.946a20.009,20.009,0,0,0-20.009,20.009v216.5a20.009,20.009,0,0,0,20.009,20.009" transform="translate(-808.89 -0.005)" fill="#d2e4ff"/>
      <rect id="Rectángulo_4685" data-name="Rectángulo 4685" width="159.706" height="203.671" transform="translate(225.539 26.884)" fill="#f3f9ff"/>
      <path id="Trazado_36296" data-name="Trazado 36296" d="M1752.98,568.1h0a8.427,8.427,0,0,1-8.426-8.427v-116.5a8.426,8.426,0,1,1,16.853,0v116.5a8.426,8.426,0,0,1-8.426,8.427" transform="translate(-1390.384 -346.49)" fill="#ee9849"/>
      <path id="Trazado_36297" data-name="Trazado 36297" d="M1616.983,422.179h0a8.427,8.427,0,0,1-8.426-8.427V260.078a8.426,8.426,0,0,1,16.853,0V413.752a8.427,8.427,0,0,1-8.427,8.427" transform="translate(-1281.995 -200.564)" fill="#ee9849"/>
      <path id="Trazado_36298" data-name="Trazado 36298" d="M1468.589,694.708h0a8.427,8.427,0,0,1-8.427-8.427V602.028a8.426,8.426,0,0,1,16.853,0v84.253a8.427,8.427,0,0,1-8.426,8.427" transform="translate(-1163.727 -473.093)" fill="#ee9849"/>
      <path id="Trazado_36299" data-name="Trazado 36299" d="M1324.191,511.554h0a8.426,8.426,0,0,1-8.426-8.427V372.22a8.426,8.426,0,1,1,16.853,0V503.128a8.427,8.427,0,0,1-8.426,8.427" transform="translate(-1048.645 -289.939)" fill="#ee9849"/>
      <path id="Trazado_36300" data-name="Trazado 36300" d="M1187.469,699.505v64.464a8.426,8.426,0,1,1-16.853,0V699.505a8.426,8.426,0,1,1,16.853,0" transform="translate(-932.964 -550.781)" fill="#ee9849"/>
      <path id="Trazado_36301" data-name="Trazado 36301" d="M1313.907,312.389h14.272a1.476,1.476,0,0,1,0,2.953h-14.272a1.476,1.476,0,1,1,0-2.953" transform="translate(-1045.987 -248.97)" fill="#a6c7f9"/>
      <path id="Trazado_36302" data-name="Trazado 36302" d="M1368.2,338.853h3.251a1.476,1.476,0,0,1,0,2.953H1368.2a1.476,1.476,0,0,1,0-2.953" transform="translate(-1089.256 -270.062)" fill="#a6c7f9"/>
      <path id="Trazado_36303" data-name="Trazado 36303" d="M1603.6,200.766h14.272a1.476,1.476,0,1,1,0,2.953H1603.6a1.476,1.476,0,0,1,0-2.953" transform="translate(-1276.865 -160.009)" fill="#a6c7f9"/>
      <path id="Trazado_36304" data-name="Trazado 36304" d="M1657.885,227.229h3.25a1.477,1.477,0,0,1,0,2.953h-3.25a1.477,1.477,0,1,1,0-2.953" transform="translate(-1320.133 -181.099)" fill="#a6c7f9"/>
      <path id="Trazado_36305" data-name="Trazado 36305" d="M1744.2,383.741h14.272a1.476,1.476,0,0,1,0,2.953H1744.2a1.476,1.476,0,0,1,0-2.953" transform="translate(-1388.924 -305.837)" fill="#a6c7f9"/>
      <path id="Trazado_36306" data-name="Trazado 36306" d="M1798.488,410.2h3.25a1.476,1.476,0,0,1,0,2.953h-3.25a1.476,1.476,0,0,1,0-2.953" transform="translate(-1432.191 -326.928)" fill="#a6c7f9"/>
      <path id="Trazado_36307" data-name="Trazado 36307" d="M1460.721,542.667h14.272a1.476,1.476,0,1,1,0,2.953h-14.272a1.476,1.476,0,0,1,0-2.953" transform="translate(-1162.996 -432.499)" fill="#a6c7f9"/>
      <path id="Trazado_36308" data-name="Trazado 36308" d="M1515.011,569.13h3.25a1.476,1.476,0,1,1,0,2.953h-3.25a1.476,1.476,0,0,1,0-2.953" transform="translate(-1206.265 -453.589)" fill="#a6c7f9"/>
      <path id="Trazado_36309" data-name="Trazado 36309" d="M1171.176,639.848h14.272a1.476,1.476,0,0,1,0,2.953h-14.272a1.476,1.476,0,1,1,0-2.953" transform="translate(-932.233 -509.95)" fill="#a6c7f9"/>
      <path id="Trazado_36310" data-name="Trazado 36310" d="M1225.467,666.312h3.251a1.476,1.476,0,0,1,0,2.953h-3.251a1.476,1.476,0,0,1,0-2.953" transform="translate(-975.502 -531.042)" fill="#a6c7f9"/>
      <path id="Trazado_36311" data-name="Trazado 36311" d="M1191.535,577.981a5.245,5.245,0,1,1,5.244-5.245,5.25,5.25,0,0,1-5.244,5.245m0-8.459a3.214,3.214,0,1,0,3.214,3.214,3.218,3.218,0,0,0-3.214-3.214" transform="translate(-945.456 -452.284)" fill="#2b478b"/>
      <path id="Trazado_36312" data-name="Trazado 36312" d="M629.787,506.483a1.013,1.013,0,0,1-.718-.3l-15.761-15.761H485.267a1.015,1.015,0,1,1,0-2.03H614.15l16.355,16.355a1.015,1.015,0,0,1-.718,1.733" transform="translate(-385.942 -389.245)" fill="#2b478b"/>
      <path id="Trazado_36313" data-name="Trazado 36313" d="M1340.093,1122.707a5.244,5.244,0,1,1,5.245-5.244,5.25,5.25,0,0,1-5.245,5.244m0-8.459a3.214,3.214,0,1,0,3.214,3.214,3.218,3.218,0,0,0-3.214-3.214" transform="translate(-1063.854 -886.422)" fill="#2b478b"/>
      <path id="Trazado_36314" data-name="Trazado 36314" d="M1510.188,1171.972H1383.335l-16.355-16.355a1.015,1.015,0,0,1,1.435-1.435l15.76,15.761h126.012a1.015,1.015,0,1,1,0,2.03" transform="translate(-1089.225 -919.63)" fill="#2b478b"/>
      <path id="Trazado_36315" data-name="Trazado 36315" d="M1625.852,139.591a5.245,5.245,0,1,1,5.245-5.245,5.251,5.251,0,0,1-5.245,5.245m0-8.459a3.214,3.214,0,1,0,3.214,3.214,3.218,3.218,0,0,0-3.214-3.214" transform="translate(-1291.6 -102.893)" fill="#2b478b"/>
      <path id="Trazado_36316" data-name="Trazado 36316" d="M1064.106,68.093a1.012,1.012,0,0,1-.718-.3l-15.761-15.761H919.585a1.015,1.015,0,0,1,0-2.03h128.883l16.355,16.355a1.015,1.015,0,0,1-.718,1.733" transform="translate(-732.087 -39.854)" fill="#2b478b"/>
      <path id="Trazado_36317" data-name="Trazado 36317" d="M570.442,456.636H486.324a2.572,2.572,0,0,1,0-5.143h84.118a2.572,2.572,0,0,1,0,5.143" transform="translate(-385.544 -359.834)" fill="#739af0"/>
      <path id="Trazado_36318" data-name="Trazado 36318" d="M697.96,416.636H646.324a2.571,2.571,0,0,1,0-5.143H697.96a2.571,2.571,0,0,1,0,5.143" transform="translate(-513.061 -327.955)" fill="#739af0"/>
      <path id="Trazado_36319" data-name="Trazado 36319" d="M697.96,376.636H646.324a2.571,2.571,0,0,1,0-5.143H697.96a2.571,2.571,0,0,1,0,5.143" transform="translate(-513.061 -296.075)" fill="#739af0"/>
      <path id="Trazado_36320" data-name="Trazado 36320" d="M1001.866,15.658H917.749a2.571,2.571,0,1,1,0-5.143h84.118a2.571,2.571,0,0,1,0,5.143" transform="translate(-729.382 -8.381)" fill="#739af0"/>
      <path id="Trazado_36321" data-name="Trazado 36321" d="M1595.332,1296.281a18.305,18.305,0,1,0-18.305,18.305,18.305,18.305,0,0,0,18.305-18.305" transform="translate(-1242.278 -1018.529)" fill="#82b378"/>
      <path id="Trazado_36322" data-name="Trazado 36322" d="M1588.146,1291.921a15.473,15.473,0,0,1,11.028,26.328l-11.028-10.854-14.459,5.519a15.484,15.484,0,0,1,14.459-20.993" transform="translate(-1253.398 -1029.643)" fill="#fff"/>
      <path id="Trazado_36323" data-name="Trazado 36323" d="M1658.18,1329.448h6.587a.47.47,0,1,1,0,.941h-6.587a.47.47,0,1,1,0-.941" transform="translate(-1321.169 -1059.551)" fill="#82b378"/>
      <path id="Trazado_36324" data-name="Trazado 36324" d="M1658.18,1336.787h6.587a.471.471,0,1,1,0,.941h-6.587a.471.471,0,1,1,0-.941" transform="translate(-1321.169 -1065.4)" fill="#82b378"/>
      <path id="Trazado_36325" data-name="Trazado 36325" d="M1677.226,1344.126h2.72a.471.471,0,1,1,0,.941h-2.72a.471.471,0,0,1,0-.941" transform="translate(-1336.349 -1071.249)" fill="#82b378"/>
      <path id="Trazado_36326" data-name="Trazado 36326" d="M1569.928,1297.4l7.241-7.241h-7.241Z" transform="translate(-1251.209 -1028.239)" fill="#82b378"/>
      <path id="Trazado_36327" data-name="Trazado 36327" d="M1899.829,1296.281a18.305,18.305,0,1,0-18.305,18.305,18.306,18.306,0,0,0,18.305-18.305" transform="translate(-1484.957 -1018.529)" fill="#82b378"/>
      <path id="Trazado_36328" data-name="Trazado 36328" d="M1877.168,1307.4a15.473,15.473,0,1,1,6.088,12.3l9.385-12.3-14.459,5.519a15.451,15.451,0,0,1-1.013-5.519" transform="translate(-1496.075 -1029.643)" fill="#fff"/>
      <path id="Trazado_36329" data-name="Trazado 36329" d="M1963.3,1329.448h6.586a.47.47,0,1,1,0,.941H1963.3a.47.47,0,1,1,0-.941" transform="translate(-1564.346 -1059.551)" fill="#82b378"/>
      <path id="Trazado_36330" data-name="Trazado 36330" d="M1963.3,1336.787h6.586a.471.471,0,0,1,0,.941H1963.3a.471.471,0,0,1,0-.941" transform="translate(-1564.346 -1065.4)" fill="#82b378"/>
      <path id="Trazado_36331" data-name="Trazado 36331" d="M1982.345,1344.126h2.72a.471.471,0,0,1,0,.941h-2.72a.471.471,0,0,1,0-.941" transform="translate(-1579.525 -1071.249)" fill="#82b378"/>
      <path id="Trazado_36332" data-name="Trazado 36332" d="M1874.928,1297.4l7.241-7.241h-7.241Z" transform="translate(-1494.29 -1028.239)" fill="#82b378"/>
    </g>
  </g>
</svg>
