<svg id="Grupo_17634" data-name="Grupo 17634" xmlns="http://www.w3.org/2000/svg" xmlns:xlink="http://www.w3.org/1999/xlink" width="441.223" height="336.762" viewBox="0 0 441.223 336.762">
  <defs>
    <clipPath id="clip-path">
      <rect id="Rectángulo_4833" data-name="Rectángulo 4833" width="441.223" height="336.762" fill="none"/>
    </clipPath>
    <clipPath id="clip-path-3">
      <rect id="Rectángulo_4800" data-name="Rectángulo 4800" width="425.026" height="278.469" transform="translate(11.421)" fill="none"/>
    </clipPath>
    <clipPath id="clip-path-4">
      <rect id="Rectángulo_4801" data-name="Rectángulo 4801" width="396.444" height="39.962" transform="translate(30.641 296.8)" fill="none"/>
    </clipPath>
    <clipPath id="clip-path-11">
      <rect id="Rectángulo_4830" data-name="Rectángulo 4830" width="52.787" height="62.596" transform="translate(374.324 145.2)" fill="none"/>
    </clipPath>
    <clipPath id="clip-path-12">
      <rect id="Rectángulo_4831" data-name="Rectángulo 4831" width="44.531" height="57.209" transform="translate(387.005 139.609)" fill="none"/>
    </clipPath>
  </defs>
  <g id="Grupo_17633" data-name="Grupo 17633" clip-path="url(#clip-path)">
    <g id="Grupo_17614" data-name="Grupo 17614">
      <g id="Grupo_17613" data-name="Grupo 17613" clip-path="url(#clip-path)">
        <g id="Grupo_17609" data-name="Grupo 17609" opacity="0.8">
          <g id="Grupo_17608" data-name="Grupo 17608">
            <g id="Grupo_17607" data-name="Grupo 17607" clip-path="url(#clip-path-3)">
              <path id="Trazado_36437" data-name="Trazado 36437" d="M114.376,255.516l2.353-5.634,2.353,5.634,4.3,2.354-4.3,2.352-2.353,5.634-2.353-5.634-4.3-2.352Z" fill="#fff"/>
              <path id="Trazado_36438" data-name="Trazado 36438" d="M166.681,55.051l2.045-4.9,2.046,4.9,3.741,2.046-3.741,2.046-2.045,4.9-2.046-4.9L162.94,57.1Z" fill="#fff"/>
              <path id="Trazado_36439" data-name="Trazado 36439" d="M17.624,202.561l1.462-3.5,1.462,3.5,2.673,1.462-2.673,1.462-1.462,3.5-1.462-3.5-2.673-1.462Z" fill="#fff"/>
              <path id="Trazado_36440" data-name="Trazado 36440" d="M430.85,272.044l1.462-3.5,1.462,3.5,2.673,1.462-2.673,1.462-1.462,3.5-1.462-3.5-2.674-1.462Z" fill="#fff"/>
              <path id="Trazado_36441" data-name="Trazado 36441" d="M206.346,135.933l1.924-4.607,1.925,4.607,3.518,1.924-3.518,1.925-1.924,4.607-1.925-4.607-3.519-1.925Z" fill="#fff"/>
              <path id="Trazado_36442" data-name="Trazado 36442" d="M343.076,48.811l1.829-4.378,1.829,4.378,3.344,1.829-3.345,1.829L344.9,56.848l-1.829-4.379-3.344-1.829Z" fill="#fff"/>
              <path id="Trazado_36443" data-name="Trazado 36443" d="M241.229,4.378,243.059,0l1.828,4.379,3.345,1.829-3.345,1.829-1.829,4.379-1.829-4.379-3.344-1.829Z" fill="#fff"/>
              <path id="Trazado_36444" data-name="Trazado 36444" d="M13.637,83.275l1.212-2.9,1.212,2.9,2.216,1.211L16.061,85.7l-1.213,2.9-1.211-2.9-2.216-1.212Z" fill="#fff"/>
              <path id="Trazado_36445" data-name="Trazado 36445" d="M102.874,9.108l1.212-2.9,1.212,2.9,2.216,1.212L105.3,11.531l-1.212,2.9-1.212-2.9-2.216-1.212Z" fill="#fff"/>
              <path id="Trazado_36446" data-name="Trazado 36446" d="M343.015,214.859l1.212-2.9,1.212,2.9,2.216,1.211-2.216,1.212-1.212,2.9-1.212-2.9L340.8,216.07Z" fill="#fff"/>
            </g>
          </g>
        </g>
        <g id="Grupo_17612" data-name="Grupo 17612" opacity="0.41" style="mix-blend-mode: multiply;isolation: isolate">
          <g id="Grupo_17611" data-name="Grupo 17611">
            <g id="Grupo_17610" data-name="Grupo 17610" clip-path="url(#clip-path-4)">
              <path id="Trazado_36447" data-name="Trazado 36447" d="M427.086,310.12c0-7.357-88.747-13.321-198.223-13.321S30.642,302.763,30.642,310.12c0,4.794,37.691,9,94.239,11.342-1.073.645-1.635,1.306-1.635,1.978,0,7.358,66.55,13.322,148.644,13.322S420.532,330.8,420.532,323.44c0-2.427-7.256-4.705-19.925-6.665,16.838-1.958,26.479-4.231,26.479-6.655" fill="#7dc1fa"/>
            </g>
          </g>
        </g>
      </g>
    </g>
    <g id="Grupo_17616" data-name="Grupo 17616">
      <g id="Grupo_17615" data-name="Grupo 17615" clip-path="url(#clip-path)">
        <path id="Trazado_36448" data-name="Trazado 36448" d="M359.12,163.4V160.01a3.23,3.23,0,0,0-3.23-3.23H352.3a2.555,2.555,0,0,1-2.482-1.956,27.835,27.835,0,0,0-3.037-7.518,2.556,2.556,0,0,1,.394-3.1l2.339-2.339a3.231,3.231,0,0,0,0-4.568l-2.4-2.4a3.231,3.231,0,0,0-4.568,0l-2.246,2.246a2.553,2.553,0,0,1-3.14.37,27.873,27.873,0,0,0-7.739-3.248,2.55,2.55,0,0,1-1.93-2.474v-2.93a3.23,3.23,0,0,0-3.23-3.23h-3.392a3.229,3.229,0,0,0-3.229,3.23v2.929a2.563,2.563,0,0,1-1.947,2.48,27.856,27.856,0,0,0-7.822,3.3,2.565,2.565,0,0,1-3.167-.357l-1.978-1.978a3.23,3.23,0,0,0-4.569,0l-2.4,2.4a3.231,3.231,0,0,0,0,4.568l3.558,3.558a27.937,27.937,0,0,0-4.115,9.5,2.551,2.551,0,0,1-2.489,1.994h-2.989a3.231,3.231,0,0,0-3.231,3.23v3.392a3.231,3.231,0,0,0,3.231,3.23h3.35a2.548,2.548,0,0,1,2.458,1.868,27.967,27.967,0,0,0,3.315,7.462,2.558,2.558,0,0,1-.345,3.182l-2.4,2.4a3.23,3.23,0,0,0,0,4.569l2.4,2.4a3.231,3.231,0,0,0,4.568,0l2.67-2.671a2.558,2.558,0,0,1,3.067-.415,27.8,27.8,0,0,0,7.337,2.865,2.559,2.559,0,0,1,1.981,2.489v3.767a3.231,3.231,0,0,0,3.231,3.231h3.391a3.231,3.231,0,0,0,3.23-3.231v-4.011a2.554,2.554,0,0,1,1.9-2.467,27.911,27.911,0,0,0,7.124-3.033,2.558,2.558,0,0,1,3.134.375l2.76,2.759a3.231,3.231,0,0,0,4.568,0l2.4-2.4a3.231,3.231,0,0,0,0-4.568l-2.785-2.785a2.557,2.557,0,0,1-.382-3.121,27.848,27.848,0,0,0,3.019-7.232,2.556,2.556,0,0,1,2.473-1.917h3.711a3.23,3.23,0,0,0,3.23-3.23m-34.782,15.35a17.376,17.376,0,1,1,15.512-15.513,17.38,17.38,0,0,1-15.512,15.513" fill="#5196d4"/>
        <path id="Trazado_36449" data-name="Trazado 36449" d="M220.858,64.242H200.915a4.074,4.074,0,0,1-4.074-4.074V40.225a4.075,4.075,0,0,1,4.074-4.074h19.943a4.074,4.074,0,0,1,4.074,4.074V60.168a4.074,4.074,0,0,1-4.074,4.074" fill="#d75947"/>
      </g>
    </g>
    <text id="PHP" transform="translate(201.881 53.287)" fill="#fff" font-size="8.812" font-family="Helvetica"><tspan x="0" y="0">PHP</tspan></text>
    <g id="Grupo_17618" data-name="Grupo 17618">
      <g id="Grupo_17617" data-name="Grupo 17617" clip-path="url(#clip-path)">
        <path id="Trazado_36450" data-name="Trazado 36450" d="M218.525,109.306H204.109a4.074,4.074,0,0,1-4.074-4.074V90.816a4.074,4.074,0,0,1,4.074-4.074h14.416a4.074,4.074,0,0,1,4.074,4.074v14.416a4.074,4.074,0,0,1-4.074,4.074" fill="#5196d4"/>
      </g>
    </g>
    <text id="JAVA" transform="translate(202.741 100.335)" fill="#fff" font-size="6.531" font-family="Helvetica"><tspan x="0" y="0">J</tspan><tspan y="0" letter-spacing="-0.052em">A</tspan><tspan y="0" letter-spacing="-0.057em">V</tspan><tspan y="0">A</tspan></text>
    <g id="Grupo_17620" data-name="Grupo 17620">
      <g id="Grupo_17619" data-name="Grupo 17619" clip-path="url(#clip-path)">
        <path id="Trazado_36451" data-name="Trazado 36451" d="M264.958,142.491H250.542a4.074,4.074,0,0,1-4.074-4.074V124a4.074,4.074,0,0,1,4.074-4.074h14.416A4.074,4.074,0,0,1,269.032,124v14.416a4.074,4.074,0,0,1-4.074,4.074" fill="#e4f3fe"/>
      </g>
    </g>
    <text id="CSS" transform="translate(250.876 133.672)" fill="#5196d4" font-size="7.078" font-family="Helvetica"><tspan x="0" y="0">CSS</tspan></text>
    <g id="Grupo_17622" data-name="Grupo 17622">
      <g id="Grupo_17621" data-name="Grupo 17621" clip-path="url(#clip-path)">
        <path id="Trazado_36452" data-name="Trazado 36452" d="M260.69,86.8H242.132a4.074,4.074,0,0,1-4.074-4.074V64.171a4.074,4.074,0,0,1,4.074-4.074H260.69a4.074,4.074,0,0,1,4.074,4.074V82.729A4.074,4.074,0,0,1,260.69,86.8" fill="#e4f3fe"/>
      </g>
    </g>
    <text id="JS" transform="translate(246.515 76.366)" fill="#5196d4" font-size="8.378" font-family="Helvetica"><tspan x="0" y="0">JS</tspan></text>
    <g id="Grupo_17624" data-name="Grupo 17624">
      <g id="Grupo_17623" data-name="Grupo 17623" clip-path="url(#clip-path)">
        <path id="Trazado_36453" data-name="Trazado 36453" d="M303.275,103.183H280.65a4.074,4.074,0,0,1-4.074-4.074V76.484a4.074,4.074,0,0,1,4.074-4.074h22.625a4.074,4.074,0,0,1,4.074,4.074V99.109a4.074,4.074,0,0,1-4.074,4.074" fill="#5196d4"/>
      </g>
    </g>
    <text id="HTML" transform="translate(280.121 90.949)" fill="#fff" font-size="8.907" font-family="Helvetica"><tspan x="0" y="0">HTML</tspan></text>
    <g id="Grupo_17632" data-name="Grupo 17632">
      <g id="Grupo_17631" data-name="Grupo 17631" clip-path="url(#clip-path)">
        <path id="Trazado_36454" data-name="Trazado 36454" d="M319.182,286.865H141.622a3.241,3.241,0,0,1-3.241-3.241V164.834a3.241,3.241,0,0,1,3.241-3.241h177.56a3.241,3.241,0,0,1,3.241,3.241v118.79a3.241,3.241,0,0,1-3.241,3.241" fill="#2b3847"/>
        <path id="Trazado_36455" data-name="Trazado 36455" d="M310.67,277.734H150.135a3.241,3.241,0,0,1-3.241-3.241V172.1a3.242,3.242,0,0,1,3.241-3.242H310.67a3.242,3.242,0,0,1,3.242,3.242V274.493a3.241,3.241,0,0,1-3.242,3.241" fill="#cae9fc"/>
        <path id="Trazado_36456" data-name="Trazado 36456" d="M184,277.734H150.065a3.171,3.171,0,0,1-3.171-3.171V172.031a3.171,3.171,0,0,1,3.171-3.172H307.8" fill="#e4f3fe"/>
        <path id="Trazado_36457" data-name="Trazado 36457" d="M360.114,316.546H100.69l37.691-34.838H322.424Z" fill="#2b3847"/>
        <path id="Trazado_36458" data-name="Trazado 36458" d="M358.364,324.8H102.441a1.75,1.75,0,0,1-1.751-1.75v-6.509H360.114v6.509a1.749,1.749,0,0,1-1.75,1.75" fill="#171e24"/>
        <path id="Trazado_36459" data-name="Trazado 36459" d="M158.861,290.1l-7.917.006c-.714,0-.687-.439.062-.98l4.443-3.215a5.326,5.326,0,0,1,2.542-.982l7.262-.007c.655,0,.654.438,0,.98l-3.9,3.217a4.619,4.619,0,0,1-2.484.981" fill="#171e24"/>
        <path id="Trazado_36460" data-name="Trazado 36460" d="M172.765,290.086l-7.917.006c-.715,0-.785-.439-.157-.981l3.73-3.216a4.252,4.252,0,0,1,2.323-.983l7.263-.007c.655,0,.751.439.214.981l-3.19,3.218a3.69,3.69,0,0,1-2.266.982" fill="#171e24"/>
        <path id="Trazado_36461" data-name="Trazado 36461" d="M186.67,290.076l-7.917.006c-.715,0-.883-.44-.375-.982l3.015-3.218a3.361,3.361,0,0,1,2.106-.983l7.263-.007c.655,0,.849.439.432.981l-2.476,3.221a2.9,2.9,0,0,1-2.048.982" fill="#171e24"/>
        <path id="Trazado_36462" data-name="Trazado 36462" d="M200.575,290.067l-7.918.005c-.715,0-.98-.439-.593-.981l2.3-3.22a2.61,2.61,0,0,1,1.888-.983l7.263-.008c.656,0,.947.44.65.982l-1.76,3.222a2.255,2.255,0,0,1-1.831.983" fill="#171e24"/>
        <path id="Trazado_36463" data-name="Trazado 36463" d="M214.481,290.056l-7.918.006c-.715,0-1.078-.439-.811-.982l1.586-3.221a2.008,2.008,0,0,1,1.67-.984l7.264-.007c.655,0,1.044.439.868.982l-1.046,3.223a1.731,1.731,0,0,1-1.613.983" fill="#171e24"/>
        <path id="Trazado_36464" data-name="Trazado 36464" d="M228.387,290.046l-7.919.006c-.715,0-1.176-.44-1.029-.983l.872-3.223a1.533,1.533,0,0,1,1.452-.984l7.264-.006a.973.973,0,0,1,1.087.982l-.332,3.225a1.324,1.324,0,0,1-1.4.983" fill="#171e24"/>
        <path id="Trazado_36465" data-name="Trazado 36465" d="M242.295,290.036l-7.92.006c-.715,0-1.272-.44-1.246-.983l.156-3.225a1.169,1.169,0,0,1,1.236-.985l7.263-.006a1.269,1.269,0,0,1,1.305.982l.383,3.227c.064.543-.462.984-1.177.984" fill="#171e24"/>
        <path id="Trazado_36466" data-name="Trazado 36466" d="M256.2,290.027l-7.92.006a1.443,1.443,0,0,1-1.465-.984l-.557-3.226c-.1-.544.361-.984,1.016-.985l7.265-.007a1.667,1.667,0,0,1,1.522.983l1.1,3.228c.185.544-.245.985-.959.985" fill="#171e24"/>
        <path id="Trazado_36467" data-name="Trazado 36467" d="M270.111,290.017l-7.92.006a1.884,1.884,0,0,1-1.683-.985l-1.272-3.228c-.215-.543.143-.984.8-.985l7.264-.007a2.184,2.184,0,0,1,1.741.983l1.812,3.231c.306.544-.026.984-.741.985" fill="#171e24"/>
        <path id="Trazado_36468" data-name="Trazado 36468" d="M284.02,290.007l-7.921.005a2.438,2.438,0,0,1-1.9-.984l-1.988-3.23c-.335-.544-.074-.985.581-.985l7.266-.008a2.828,2.828,0,0,1,1.959.984l2.526,3.232c.426.544.192.985-.523.986" fill="#171e24"/>
        <path id="Trazado_36469" data-name="Trazado 36469" d="M297.929,290l-7.921.006a3.121,3.121,0,0,1-2.118-.985l-2.7-3.231c-.455-.544-.292-.986.364-.986l7.266-.008a3.606,3.606,0,0,1,2.176.985l3.242,3.233c.546.545.408.986-.307.986" fill="#171e24"/>
        <path id="Trazado_36470" data-name="Trazado 36470" d="M311.841,289.987l-7.923.006a3.954,3.954,0,0,1-2.336-.985l-3.415-3.233c-.576-.545-.512-.986.146-.987l7.265-.007a4.541,4.541,0,0,1,2.395.985L311.928,289c.667.544.628.986-.087.986" fill="#171e24"/>
        <path id="Trazado_36471" data-name="Trazado 36471" d="M150.72,297.178l-8.813,0c-.795,0-.837-.439-.093-.98l4.417-3.215a5.448,5.448,0,0,1,2.679-.981l8.158-.006c.736,0,.8.439.151.981l-3.877,3.217a4.8,4.8,0,0,1-2.622.981" fill="#171e24"/>
        <path id="Trazado_36472" data-name="Trazado 36472" d="M166.2,297.171l-8.813,0c-.8,0-.935-.439-.312-.981l3.7-3.217a4.406,4.406,0,0,1,2.461-.982l8.159-.005c.736,0,.9.439.369.981L168.6,296.19a3.85,3.85,0,0,1-2.4.981" fill="#171e24"/>
        <path id="Trazado_36473" data-name="Trazado 36473" d="M181.675,297.165l-8.814,0c-.795,0-1.032-.439-.529-.981l2.988-3.218a3.5,3.5,0,0,1,2.244-.983l8.158-.005c.737,0,1,.439.587.982l-2.448,3.22a3.061,3.061,0,0,1-2.186.982" fill="#171e24"/>
        <path id="Trazado_36474" data-name="Trazado 36474" d="M197.154,297.159l-8.815,0c-.795,0-1.129-.44-.748-.982l2.274-3.22a2.749,2.749,0,0,1,2.026-.983l8.159-.005c.736,0,1.1.439.8.982l-1.733,3.222a2.4,2.4,0,0,1-1.968.982" fill="#171e24"/>
        <path id="Trazado_36475" data-name="Trazado 36475" d="M212.633,297.153l-8.815,0c-.795,0-1.228-.44-.965-.982l1.558-3.222a2.137,2.137,0,0,1,1.808-.983l8.16-.005c.736,0,1.194.439,1.023.982l-1.019,3.224a1.856,1.856,0,0,1-1.75.983" fill="#171e24"/>
        <path id="Trazado_36476" data-name="Trazado 36476" d="M228.113,297.146l-8.815,0c-.8,0-1.326-.44-1.184-.983l.844-3.223a1.641,1.641,0,0,1,1.591-.984l8.16-.005c.736,0,1.292.439,1.241.983l-.3,3.225c-.051.543-.737.983-1.532.983" fill="#171e24"/>
        <path id="Trazado_36477" data-name="Trazado 36477" d="M243.594,297.14l-8.815,0c-.8,0-1.424-.44-1.4-.982l.129-3.226c.022-.543.638-.983,1.373-.984l8.16,0a1.4,1.4,0,0,1,1.459.983l.411,3.227c.069.543-.519.983-1.314.984" fill="#171e24"/>
        <path id="Trazado_36478" data-name="Trazado 36478" d="M259.074,297.133l-8.815,0a1.587,1.587,0,0,1-1.62-.983l-.586-3.228c-.1-.543.419-.983,1.156-.984l8.161,0a1.823,1.823,0,0,1,1.677.983l1.125,3.229c.189.543-.3.984-1.1.984" fill="#171e24"/>
        <path id="Trazado_36479" data-name="Trazado 36479" d="M274.556,297.127l-8.816,0a2.05,2.05,0,0,1-1.837-.983l-1.3-3.229c-.219-.544.2-.984.936-.985l8.162-.005a2.357,2.357,0,0,1,1.9.984l1.839,3.23c.31.544-.084.984-.879.985" fill="#171e24"/>
        <path id="Trazado_36480" data-name="Trazado 36480" d="M290.039,297.12l-8.816,0a2.643,2.643,0,0,1-2.056-.984l-2.015-3.231c-.339-.544-.016-.985.72-.985l8.161-.005a3.022,3.022,0,0,1,2.113.984l2.555,3.232c.43.544.134.985-.662.985" fill="#171e24"/>
        <path id="Trazado_36481" data-name="Trazado 36481" d="M305.522,297.115l-8.817,0a3.346,3.346,0,0,1-2.274-.984L291.7,292.9c-.46-.544-.236-.985.5-.985l8.162-.006a3.832,3.832,0,0,1,2.331.985l3.268,3.234c.551.544.352.985-.443.986" fill="#171e24"/>
        <path id="Trazado_36482" data-name="Trazado 36482" d="M321.006,297.108l-8.817,0a4.2,4.2,0,0,1-2.492-.985l-3.443-3.234c-.58-.545-.453-.986.283-.987l8.162-.005a4.773,4.773,0,0,1,2.55.986l3.984,3.235c.67.545.569.986-.227.986" fill="#171e24"/>
        <path id="Trazado_36483" data-name="Trazado 36483" d="M142.7,304.26h-9.709c-.876,0-.988-.438-.249-.98l4.39-3.215a5.62,5.62,0,0,1,2.818-.982l9.053,0c.818,0,.954.439.306.981l-3.849,3.217a4.989,4.989,0,0,1-2.76.981" fill="#171e24"/>
        <path id="Trazado_36484" data-name="Trazado 36484" d="M159.751,304.257h-9.71c-.876,0-1.085-.438-.466-.98l3.675-3.218a4.577,4.577,0,0,1,2.6-.981l9.053,0c.818,0,1.053.44.524.982l-3.134,3.219a4.041,4.041,0,0,1-2.542.981" fill="#171e24"/>
        <path id="Trazado_36485" data-name="Trazado 36485" d="M176.8,304.254h-9.709c-.877,0-1.183-.438-.685-.98l2.96-3.219a3.669,3.669,0,0,1,2.382-.983l9.055,0c.817,0,1.149.44.742.982l-2.421,3.22a3.224,3.224,0,0,1-2.324.982" fill="#171e24"/>
        <path id="Trazado_36486" data-name="Trazado 36486" d="M193.854,304.251l-9.71,0c-.876,0-1.28-.439-.9-.982l2.245-3.221a2.912,2.912,0,0,1,2.164-.983l9.056,0c.817,0,1.247.439.96.982l-1.706,3.222a2.55,2.55,0,0,1-2.107.982" fill="#171e24"/>
        <path id="Trazado_36487" data-name="Trazado 36487" d="M210.906,304.248l-9.71,0c-.877,0-1.378-.44-1.121-.982l1.531-3.223a2.277,2.277,0,0,1,1.946-.983l9.056,0c.818,0,1.345.439,1.178.982l-.991,3.224a1.993,1.993,0,0,1-1.889.982" fill="#171e24"/>
        <path id="Trazado_36488" data-name="Trazado 36488" d="M227.96,304.245l-9.711,0c-.876,0-1.476-.439-1.338-.983l.817-3.224a1.763,1.763,0,0,1,1.728-.983l9.056,0c.817,0,1.442.44,1.4.983l-.276,3.225c-.047.543-.795.983-1.671.983" fill="#171e24"/>
        <path id="Trazado_36489" data-name="Trazado 36489" d="M245.013,304.242l-9.711,0c-.877,0-1.573-.44-1.557-.983l.1-3.226c.017-.543.693-.983,1.51-.983l9.056,0c.818,0,1.54.439,1.615.983l.437,3.227c.074.543-.577.983-1.453.983" fill="#171e24"/>
        <path id="Trazado_36490" data-name="Trazado 36490" d="M262.068,304.241h-9.712c-.877,0-1.671-.44-1.774-.983l-.613-3.228c-.1-.543.476-.983,1.293-.984l9.057,0a1.99,1.99,0,0,1,1.832.984l1.152,3.229c.195.543-.359.983-1.235.984" fill="#171e24"/>
        <path id="Trazado_36491" data-name="Trazado 36491" d="M279.123,304.238h-9.712a2.24,2.24,0,0,1-1.992-.984l-1.327-3.229c-.224-.543.258-.984,1.075-.984l9.057,0a2.549,2.549,0,0,1,2.049.984l1.868,3.23c.314.544-.141.985-1.018.985" fill="#171e24"/>
        <path id="Trazado_36492" data-name="Trazado 36492" d="M296.179,304.235h-9.713a2.847,2.847,0,0,1-2.21-.984l-2.042-3.231c-.344-.544.04-.984.858-.985l9.056,0a3.244,3.244,0,0,1,2.269.985l2.582,3.232c.434.544.077.985-.8.985" fill="#171e24"/>
        <path id="Trazado_36493" data-name="Trazado 36493" d="M313.236,304.232l-9.713,0a3.591,3.591,0,0,1-2.429-.985l-2.756-3.233c-.464-.544-.178-.985.639-.985l9.058,0a4.058,4.058,0,0,1,2.486.985l3.3,3.233c.555.545.294.986-.582.986" fill="#171e24"/>
        <path id="Trazado_36494" data-name="Trazado 36494" d="M330.293,304.229l-9.713,0a4.451,4.451,0,0,1-2.646-.986l-3.471-3.234c-.585-.544-.4-.985.421-.986l9.058,0a5.032,5.032,0,0,1,2.705.986l4.01,3.235c.676.545.513.986-.364.986" fill="#171e24"/>
        <path id="Trazado_36495" data-name="Trazado 36495" d="M268.816,312.8l-76.847-.006c-3.371,0-5.522-.99-4.8-2.212s3.894-2.212,7.09-2.212l72.868,0c3.2,0,6.239.993,6.794,2.217s-1.731,2.217-5.1,2.216" fill="#171e24"/>
        <path id="Trazado_36496" data-name="Trazado 36496" d="M158.861,289.1l-7.917.006c-.714,0-.687-.439.062-.98l4.443-3.215a5.326,5.326,0,0,1,2.542-.982l7.262-.007c.655,0,.654.439,0,.98l-3.9,3.217a4.619,4.619,0,0,1-2.484.981" fill="#626e7f"/>
        <path id="Trazado_36497" data-name="Trazado 36497" d="M172.765,289.091l-7.917.006c-.715,0-.785-.439-.157-.981l3.73-3.216a4.252,4.252,0,0,1,2.323-.983l7.263-.007c.655,0,.751.439.214.981l-3.19,3.218a3.684,3.684,0,0,1-2.266.982" fill="#626e7f"/>
        <path id="Trazado_36498" data-name="Trazado 36498" d="M186.67,289.081l-7.917.006c-.715,0-.883-.439-.375-.982l3.015-3.217a3.35,3.35,0,0,1,2.106-.983l7.262-.008c.656,0,.85.439.433.982l-2.476,3.22a2.9,2.9,0,0,1-2.048.982" fill="#626e7f"/>
        <path id="Trazado_36499" data-name="Trazado 36499" d="M200.575,289.072l-7.918.006c-.715,0-.98-.44-.593-.982l2.3-3.22a2.61,2.61,0,0,1,1.888-.983l7.263-.008c.656,0,.947.44.65.982l-1.76,3.222a2.255,2.255,0,0,1-1.831.983" fill="#626e7f"/>
        <path id="Trazado_36500" data-name="Trazado 36500" d="M214.481,289.062l-7.918,0c-.715,0-1.078-.439-.811-.982l1.586-3.221a2.008,2.008,0,0,1,1.67-.984l7.264-.006c.655,0,1.044.438.868.981l-1.046,3.224a1.734,1.734,0,0,1-1.613.983" fill="#626e7f"/>
        <path id="Trazado_36501" data-name="Trazado 36501" d="M228.387,289.051l-7.919.006c-.715,0-1.176-.439-1.029-.982l.872-3.224a1.533,1.533,0,0,1,1.452-.984l7.264-.006a.974.974,0,0,1,1.087.982l-.332,3.225a1.324,1.324,0,0,1-1.4.983" fill="#626e7f"/>
        <path id="Trazado_36502" data-name="Trazado 36502" d="M242.295,289.041l-7.92.006c-.715,0-1.272-.44-1.246-.983l.156-3.225a1.169,1.169,0,0,1,1.236-.985l7.263-.006a1.269,1.269,0,0,1,1.305.982l.383,3.227c.064.543-.462.984-1.177.984" fill="#626e7f"/>
        <path id="Trazado_36503" data-name="Trazado 36503" d="M256.2,289.032l-7.92.006a1.442,1.442,0,0,1-1.465-.984l-.557-3.226c-.1-.543.361-.984,1.016-.985l7.265-.007a1.667,1.667,0,0,1,1.522.983l1.1,3.229c.185.543-.245.984-.959.984" fill="#626e7f"/>
        <path id="Trazado_36504" data-name="Trazado 36504" d="M270.111,289.022l-7.92.006a1.884,1.884,0,0,1-1.683-.985l-1.272-3.227c-.215-.544.143-.985.8-.985l7.264-.008a2.182,2.182,0,0,1,1.741.984l1.812,3.23c.306.544-.026.985-.741.985" fill="#626e7f"/>
        <path id="Trazado_36505" data-name="Trazado 36505" d="M284.02,289.012l-7.921.006a2.442,2.442,0,0,1-1.9-.985l-1.988-3.23c-.335-.544-.074-.985.581-.985l7.266-.008a2.828,2.828,0,0,1,1.959.984l2.526,3.232c.426.544.192.985-.523.986" fill="#626e7f"/>
        <path id="Trazado_36506" data-name="Trazado 36506" d="M297.929,289l-7.92.006a3.13,3.13,0,0,1-2.119-.985l-2.7-3.232c-.455-.544-.292-.986.364-.986l7.266-.007a3.594,3.594,0,0,1,2.175.984l3.243,3.234c.546.544.408.985-.307.986" fill="#626e7f"/>
        <path id="Trazado_36507" data-name="Trazado 36507" d="M311.841,288.992l-7.923.005a3.954,3.954,0,0,1-2.336-.985l-3.415-3.233c-.576-.545-.512-.986.146-.987l7.265-.007a4.541,4.541,0,0,1,2.395.985l3.955,3.235c.667.545.628.986-.087.987" fill="#626e7f"/>
        <path id="Trazado_36508" data-name="Trazado 36508" d="M150.72,296.183l-8.813,0c-.795,0-.837-.439-.093-.981l4.417-3.215a5.448,5.448,0,0,1,2.679-.981l8.158-.006c.736,0,.8.439.151.981l-3.877,3.217a4.79,4.79,0,0,1-2.622.981" fill="#626e7f"/>
        <path id="Trazado_36509" data-name="Trazado 36509" d="M166.2,296.176l-8.813,0c-.8,0-.935-.439-.312-.981l3.7-3.216a4.4,4.4,0,0,1,2.462-.983l8.158-.005c.736,0,.9.439.369.981L168.6,295.2a3.85,3.85,0,0,1-2.4.981" fill="#626e7f"/>
        <path id="Trazado_36510" data-name="Trazado 36510" d="M181.675,296.17l-8.814,0c-.795,0-1.032-.44-.529-.982l2.988-3.218a3.5,3.5,0,0,1,2.244-.983l8.158-.005c.737,0,1,.439.587.982l-2.448,3.22a3.057,3.057,0,0,1-2.186.982" fill="#626e7f"/>
        <path id="Trazado_36511" data-name="Trazado 36511" d="M197.154,296.163l-8.815,0c-.795,0-1.129-.44-.748-.982l2.274-3.22a2.749,2.749,0,0,1,2.026-.983l8.159-.005c.736,0,1.1.44.8.982l-1.733,3.222a2.4,2.4,0,0,1-1.968.982" fill="#626e7f"/>
        <path id="Trazado_36512" data-name="Trazado 36512" d="M212.633,296.158l-8.815,0c-.795,0-1.228-.439-.965-.982l1.558-3.221a2.135,2.135,0,0,1,1.808-.984l8.16,0c.736,0,1.194.438,1.023.981l-1.019,3.224a1.854,1.854,0,0,1-1.75.983" fill="#626e7f"/>
        <path id="Trazado_36513" data-name="Trazado 36513" d="M228.113,296.151l-8.815,0c-.8,0-1.326-.44-1.184-.983l.844-3.223a1.641,1.641,0,0,1,1.591-.984l8.16,0c.736,0,1.292.439,1.241.982l-.3,3.225c-.051.543-.737.983-1.532.983" fill="#626e7f"/>
        <path id="Trazado_36514" data-name="Trazado 36514" d="M243.594,296.145l-8.815,0c-.8,0-1.424-.44-1.4-.982l.129-3.226c.022-.543.638-.983,1.373-.984l8.16-.005a1.4,1.4,0,0,1,1.459.983l.411,3.227c.069.543-.519.983-1.314.984" fill="#626e7f"/>
        <path id="Trazado_36515" data-name="Trazado 36515" d="M259.074,296.138l-8.815,0a1.587,1.587,0,0,1-1.62-.983l-.586-3.227c-.1-.544.419-.984,1.156-.985l8.161-.005a1.823,1.823,0,0,1,1.677.983l1.125,3.229c.189.543-.3.984-1.1.984" fill="#626e7f"/>
        <path id="Trazado_36516" data-name="Trazado 36516" d="M274.556,296.132l-8.816,0a2.053,2.053,0,0,1-1.837-.984l-1.3-3.229c-.219-.544.2-.984.936-.985l8.162,0a2.36,2.36,0,0,1,1.9.984l1.839,3.23c.31.544-.084.984-.879.985" fill="#626e7f"/>
        <path id="Trazado_36517" data-name="Trazado 36517" d="M290.039,296.125l-8.816,0a2.643,2.643,0,0,1-2.056-.984l-2.015-3.231c-.339-.544-.016-.984.72-.985l8.161,0a3.022,3.022,0,0,1,2.113.984l2.555,3.232c.43.544.134.985-.662.985" fill="#626e7f"/>
        <path id="Trazado_36518" data-name="Trazado 36518" d="M305.522,296.119l-8.817,0a3.346,3.346,0,0,1-2.274-.984l-2.728-3.232c-.46-.545-.236-.986.5-.986l8.162-.005a3.825,3.825,0,0,1,2.331.984l3.268,3.234c.551.544.352.985-.443.986" fill="#626e7f"/>
        <path id="Trazado_36519" data-name="Trazado 36519" d="M321.006,296.113l-8.817,0a4.2,4.2,0,0,1-2.492-.985l-3.443-3.234c-.58-.545-.453-.986.283-.986l8.162-.006a4.773,4.773,0,0,1,2.55.986l3.984,3.235c.67.545.569.986-.227.986" fill="#626e7f"/>
        <path id="Trazado_36520" data-name="Trazado 36520" d="M142.7,303.265h-9.709c-.876,0-.988-.438-.249-.98l4.39-3.215a5.629,5.629,0,0,1,2.818-.982l9.053,0c.818,0,.954.439.306.981l-3.849,3.217a4.982,4.982,0,0,1-2.76.981" fill="#626e7f"/>
        <path id="Trazado_36521" data-name="Trazado 36521" d="M159.751,303.262l-9.71,0c-.876,0-1.085-.439-.466-.981l3.675-3.217a4.57,4.57,0,0,1,2.6-.982l9.054,0c.817,0,1.052.439.523.981l-3.134,3.219a4.036,4.036,0,0,1-2.542.981" fill="#626e7f"/>
        <path id="Trazado_36522" data-name="Trazado 36522" d="M176.8,303.259l-9.709,0c-.877,0-1.183-.439-.685-.981l2.96-3.219a3.674,3.674,0,0,1,2.382-.983l9.055,0c.817,0,1.149.44.742.982l-2.42,3.221a3.231,3.231,0,0,1-2.325.981" fill="#626e7f"/>
        <path id="Trazado_36523" data-name="Trazado 36523" d="M193.854,303.256l-9.71,0c-.876,0-1.28-.439-.9-.982l2.245-3.22a2.9,2.9,0,0,1,2.164-.983l9.056,0c.817,0,1.247.44.96.982l-1.706,3.222a2.55,2.55,0,0,1-2.107.982" fill="#626e7f"/>
        <path id="Trazado_36524" data-name="Trazado 36524" d="M210.906,303.253l-9.71,0c-.877,0-1.378-.439-1.121-.982l1.531-3.222a2.275,2.275,0,0,1,1.946-.984l9.056,0c.818,0,1.345.439,1.178.982l-.991,3.224a1.991,1.991,0,0,1-1.889.982" fill="#626e7f"/>
        <path id="Trazado_36525" data-name="Trazado 36525" d="M227.96,303.25l-9.711,0c-.876,0-1.476-.439-1.338-.982l.817-3.224a1.762,1.762,0,0,1,1.728-.983l9.056,0c.817,0,1.442.439,1.4.982l-.276,3.225c-.047.543-.795.983-1.671.983" fill="#626e7f"/>
        <path id="Trazado_36526" data-name="Trazado 36526" d="M245.013,303.247l-9.711,0c-.877,0-1.573-.439-1.557-.983l.1-3.225c.017-.544.693-.983,1.51-.984l9.056,0c.818,0,1.54.44,1.615.983l.437,3.227c.074.543-.577.983-1.453.983" fill="#626e7f"/>
        <path id="Trazado_36527" data-name="Trazado 36527" d="M262.068,303.245h-9.712c-.877,0-1.671-.44-1.774-.983l-.613-3.228c-.1-.543.476-.983,1.293-.983l9.057,0a1.99,1.99,0,0,1,1.832.984l1.152,3.229c.195.543-.359.984-1.235.984" fill="#626e7f"/>
        <path id="Trazado_36528" data-name="Trazado 36528" d="M279.123,303.242h-9.712a2.238,2.238,0,0,1-1.992-.984l-1.327-3.229c-.224-.543.258-.984,1.075-.984l9.057,0a2.552,2.552,0,0,1,2.049.984l1.868,3.23c.314.544-.141.985-1.018.985" fill="#626e7f"/>
        <path id="Trazado_36529" data-name="Trazado 36529" d="M296.179,303.24l-9.713,0a2.851,2.851,0,0,1-2.21-.985l-2.042-3.231c-.344-.544.04-.984.858-.985l9.056,0a3.25,3.25,0,0,1,2.269.985l2.582,3.232c.434.544.077.985-.8.985" fill="#626e7f"/>
        <path id="Trazado_36530" data-name="Trazado 36530" d="M313.236,303.237l-9.713,0a3.591,3.591,0,0,1-2.429-.985l-2.756-3.233c-.464-.544-.178-.985.639-.985l9.058,0a4.064,4.064,0,0,1,2.486.985l3.3,3.233c.556.545.3.986-.581.986" fill="#626e7f"/>
        <path id="Trazado_36531" data-name="Trazado 36531" d="M330.293,303.234l-9.713,0a4.451,4.451,0,0,1-2.646-.986l-3.471-3.234c-.585-.544-.4-.985.421-.986l9.058,0a5.032,5.032,0,0,1,2.705.986l4.01,3.235c.676.545.513.986-.364.986" fill="#626e7f"/>
        <path id="Trazado_36532" data-name="Trazado 36532" d="M268.816,311.8l-76.847-.007c-3.371,0-5.522-.99-4.8-2.212s3.894-2.211,7.09-2.212l72.868,0c3.2,0,6.239.993,6.794,2.217s-1.731,2.217-5.1,2.217" fill="#626e7f"/>
        <path id="Trazado_36533" data-name="Trazado 36533" d="M231.58,165.135a1.177,1.177,0,1,1-1.178-1.178,1.178,1.178,0,0,1,1.178,1.178" fill="#4984c7"/>
        <rect id="Rectángulo_4808" data-name="Rectángulo 4808" width="60.878" height="3.095" transform="translate(162.521 182.021)" fill="#b3e0ff"/>
        <rect id="Rectángulo_4809" data-name="Rectángulo 4809" width="60.878" height="3.096" transform="translate(162.521 198.523)" fill="#b3e0ff"/>
        <rect id="Rectángulo_4810" data-name="Rectángulo 4810" width="35.502" height="3.096" transform="translate(162.521 187.521)" fill="#b3e0ff"/>
        <rect id="Rectángulo_4811" data-name="Rectángulo 4811" width="68.156" height="3.096" transform="translate(162.52 193.022)" fill="#b3e0ff"/>
        <rect id="Rectángulo_4812" data-name="Rectángulo 4812" width="11.012" height="3.096" transform="translate(231.804 193.022)" fill="#b3e0ff"/>
        <rect id="Rectángulo_4813" data-name="Rectángulo 4813" width="5.964" height="3.096" transform="translate(244.563 193.022)" fill="#b3e0ff"/>
        <rect id="Rectángulo_4814" data-name="Rectángulo 4814" width="38.833" height="3.096" transform="translate(162.52 204.023)" fill="#b3e0ff"/>
        <rect id="Rectángulo_4815" data-name="Rectángulo 4815" width="6.274" height="3.096" transform="translate(201.996 204.023)" fill="#b3e0ff"/>
        <rect id="Rectángulo_4816" data-name="Rectángulo 4816" width="3.397" height="3.096" transform="translate(209.266 204.023)" fill="#b3e0ff"/>
        <rect id="Rectángulo_4817" data-name="Rectángulo 4817" width="22.365" height="3.096" transform="translate(162.368 246.592)" fill="#b3e0ff"/>
        <rect id="Rectángulo_4818" data-name="Rectángulo 4818" width="13.042" height="3.096" transform="translate(162.368 252.093)" fill="#b3e0ff"/>
        <rect id="Rectángulo_4819" data-name="Rectángulo 4819" width="41.779" height="3.096" transform="translate(261.642 246.867)" fill="#b3e0ff"/>
        <rect id="Rectángulo_4820" data-name="Rectángulo 4820" width="24.364" height="3.096" transform="translate(279.057 252.368)" fill="#b3e0ff"/>
        <rect id="Rectángulo_4821" data-name="Rectángulo 4821" width="46.774" height="3.096" transform="translate(256.647 257.869)" fill="#b3e0ff"/>
        <rect id="Rectángulo_4822" data-name="Rectángulo 4822" width="7.558" height="3.096" transform="translate(248.316 257.869)" fill="#b3e0ff"/>
        <rect id="Rectángulo_4823" data-name="Rectángulo 4823" width="4.093" height="3.096" transform="translate(243.024 257.869)" fill="#b3e0ff"/>
        <rect id="Rectángulo_4824" data-name="Rectángulo 4824" width="0.827" height="33.092" transform="translate(162.52 210.51)" fill="#b3e0ff"/>
        <path id="Trazado_36534" data-name="Trazado 36534" d="M102.079,324.7c0-.008,2.318-8.526.553-13.7-.071-.208-.357-.355-.447-.219a11.975,11.975,0,0,0-1.437,6.173,34.6,34.6,0,0,0,.167,5.1Q99.733,319.5,98.347,317l0-.008c-.434-4.153-3.645-8.643-7.7-10.871-.189-.105-.382.02-.305.217a35.912,35.912,0,0,0,2.178,4.931,17.59,17.59,0,0,0,5.452,5.931q1.314,2.367,2.439,4.785a13.394,13.394,0,0,0-3.745-3.592,15.141,15.141,0,0,0-7.864-2.759.209.209,0,0,0-.141.358c3.515,4.193,8.337,6.918,13,8.813Z" fill="#2b3847"/>
        <path id="Trazado_36535" data-name="Trazado 36535" d="M330.742,291.3c-.006-.007-2.318-8.526-.554-13.694.071-.209.358-.356.448-.22a11.969,11.969,0,0,1,1.436,6.174,34.581,34.581,0,0,1-.167,5.1q1.182-2.556,2.568-5.061l0-.009c.434-4.152,3.645-8.643,7.7-10.871.189-.1.382.02.3.217a35.975,35.975,0,0,1-2.178,4.932,17.588,17.588,0,0,1-5.452,5.931q-1.314,2.365-2.438,4.784a13.391,13.391,0,0,1,3.744-3.592,15.144,15.144,0,0,1,7.864-2.759.21.21,0,0,1,.142.358c-3.516,4.193-8.337,6.919-13,8.813Z" fill="#2b3847"/>
        <path id="Trazado_36536" data-name="Trazado 36536" d="M94.341,259.814a17.651,17.651,0,0,0-33.133-11.837A14.114,14.114,0,0,0,38.926,259.27a12.851,12.851,0,0,0,3.854,25.109h46.3a12.844,12.844,0,0,0,5.259-24.565Z" fill="none" stroke="#e4f3fe" stroke-miterlimit="10" stroke-width="1"/>
        <path id="Trazado_36537" data-name="Trazado 36537" d="M48.454,139.173V136.91a2.155,2.155,0,0,0-2.156-2.155H43.9a1.7,1.7,0,0,1-1.655-1.305,18.631,18.631,0,0,0-2.027-5.016,1.7,1.7,0,0,1,.263-2.068l1.56-1.56a2.156,2.156,0,0,0,0-3.048l-1.6-1.6a2.155,2.155,0,0,0-3.048,0l-1.5,1.5a1.7,1.7,0,0,1-2.095.247,18.613,18.613,0,0,0-5.163-2.167,1.7,1.7,0,0,1-1.288-1.651v-1.954a2.155,2.155,0,0,0-2.155-2.155H22.934a2.155,2.155,0,0,0-2.155,2.155v1.953a1.709,1.709,0,0,1-1.3,1.655,18.587,18.587,0,0,0-5.219,2.2,1.712,1.712,0,0,1-2.113-.237l-1.319-1.32a2.155,2.155,0,0,0-3.048,0l-1.6,1.6a2.153,2.153,0,0,0,0,3.047l2.373,2.374a18.61,18.61,0,0,0-2.744,6.34,1.7,1.7,0,0,1-1.662,1.331H2.155A2.154,2.154,0,0,0,0,137.232v2.263a2.155,2.155,0,0,0,2.155,2.155H4.39A1.7,1.7,0,0,1,6.031,142.9a18.568,18.568,0,0,0,2.211,4.979A1.707,1.707,0,0,1,8.012,150l-1.6,1.6a2.155,2.155,0,0,0,0,3.048l1.6,1.6a2.155,2.155,0,0,0,3.048,0l1.782-1.781a1.7,1.7,0,0,1,2.046-.277,18.569,18.569,0,0,0,4.9,1.912,1.707,1.707,0,0,1,1.322,1.66v2.514a2.154,2.154,0,0,0,2.154,2.155h2.263a2.155,2.155,0,0,0,2.155-2.155V157.6a1.705,1.705,0,0,1,1.265-1.646,18.616,18.616,0,0,0,4.753-2.023,1.706,1.706,0,0,1,2.091.25l1.841,1.841a2.155,2.155,0,0,0,3.047,0l1.6-1.6a2.155,2.155,0,0,0,0-3.048l-1.857-1.858a1.7,1.7,0,0,1-.255-2.082,18.6,18.6,0,0,0,2.014-4.825,1.7,1.7,0,0,1,1.649-1.279H46.3a2.155,2.155,0,0,0,2.156-2.155M25.248,149.414A11.592,11.592,0,1,1,35.6,139.065a11.595,11.595,0,0,1-10.35,10.349" fill="#fff"/>
        <path id="Trazado_36538" data-name="Trazado 36538" d="M106.351,84.334V81.221a2.965,2.965,0,0,0-2.964-2.965h-3.295a2.344,2.344,0,0,1-2.278-1.795,25.589,25.589,0,0,0-2.787-6.9,2.343,2.343,0,0,1,.361-2.846l2.146-2.146a2.963,2.963,0,0,0,0-4.192l-2.2-2.2a2.966,2.966,0,0,0-4.193,0l-2.061,2.062a2.344,2.344,0,0,1-2.882.34,25.58,25.58,0,0,0-7.1-2.981,2.342,2.342,0,0,1-1.771-2.272V52.636a2.965,2.965,0,0,0-2.964-2.965H71.246a2.966,2.966,0,0,0-2.965,2.965v2.687A2.35,2.35,0,0,1,66.5,57.6a25.581,25.581,0,0,0-7.179,3.033,2.353,2.353,0,0,1-2.906-.327l-1.816-1.816a2.965,2.965,0,0,0-4.193,0l-2.2,2.2a2.963,2.963,0,0,0,0,4.192l3.265,3.266a25.605,25.605,0,0,0-3.776,8.721A2.342,2.342,0,0,1,45.4,78.7H42.66A2.964,2.964,0,0,0,39.7,81.664v3.113a2.964,2.964,0,0,0,2.964,2.964h3.076a2.34,2.34,0,0,1,2.256,1.715,25.6,25.6,0,0,0,3.042,6.849,2.347,2.347,0,0,1-.316,2.92l-2.2,2.2a2.966,2.966,0,0,0,0,4.193l2.2,2.2a2.963,2.963,0,0,0,4.192,0l2.451-2.451a2.346,2.346,0,0,1,2.815-.38,25.591,25.591,0,0,0,6.733,2.63,2.346,2.346,0,0,1,1.818,2.283v3.458a2.965,2.965,0,0,0,2.965,2.965H74.8a2.964,2.964,0,0,0,2.964-2.965V109.68a2.347,2.347,0,0,1,1.741-2.264,25.583,25.583,0,0,0,6.538-2.784,2.348,2.348,0,0,1,2.876.345l2.533,2.532a2.963,2.963,0,0,0,4.192,0l2.2-2.2a2.963,2.963,0,0,0,0-4.192L95.291,98.56A2.348,2.348,0,0,1,94.94,95.7a25.574,25.574,0,0,0,2.772-6.638,2.346,2.346,0,0,1,2.269-1.76h3.406a2.964,2.964,0,0,0,2.964-2.964M74.429,98.422A15.947,15.947,0,1,1,88.666,84.185,15.952,15.952,0,0,1,74.429,98.422" fill="#5196d4"/>
        <path id="Trazado_36539" data-name="Trazado 36539" d="M149.106,191.935H103.3a5.253,5.253,0,0,1-5.253-5.253V86.764a5.253,5.253,0,0,1,5.253-5.253h45.8a5.253,5.253,0,0,1,5.253,5.253v99.918a5.253,5.253,0,0,1-5.253,5.253" fill="#626e7f"/>
        <path id="Trazado_36540" data-name="Trazado 36540" d="M129.7,186.182a3.494,3.494,0,1,1-3.494-3.494,3.494,3.494,0,0,1,3.494,3.494" fill="#2b3847"/>
        <path id="Trazado_36541" data-name="Trazado 36541" d="M131.033,88.953h-6.964a.512.512,0,1,1,0-1.024h6.964a.512.512,0,0,1,0,1.024" fill="#2b3847"/>
        <path id="Trazado_36542" data-name="Trazado 36542" d="M121.985,88.441a.561.561,0,1,1-.561-.561.561.561,0,0,1,.561.561" fill="#2b3847"/>
        <path id="Trazado_36543" data-name="Trazado 36543" d="M126.986,86.182a.342.342,0,1,1-.343-.343.343.343,0,0,1,.343.343" fill="#2b3847"/>
        <path id="Trazado_36544" data-name="Trazado 36544" d="M149.377,180.514H103.031a1.986,1.986,0,0,1-1.986-1.985V93.084a1.986,1.986,0,0,1,1.986-1.986h46.346a1.986,1.986,0,0,1,1.986,1.986v85.445a1.986,1.986,0,0,1-1.986,1.985" fill="#2b3847"/>
        <path id="Trazado_36545" data-name="Trazado 36545" d="M147.013,178.635H106.129a2.288,2.288,0,1,1,0-4.577h40.884a2.288,2.288,0,0,1,0,4.577Z" fill="none" stroke="#c8d4f8" stroke-miterlimit="10" stroke-width="0.5"/>
        <path id="Trazado_36546" data-name="Trazado 36546" d="M146.415,177.674h-3.552a1.227,1.227,0,1,1,0-2.454h3.552a1.227,1.227,0,1,1,0,2.454" fill="#c8d4f8"/>
        <path id="Trazado_36547" data-name="Trazado 36547" d="M144.639,177.389h0a.2.2,0,0,1-.2-.2V175.7a.2.2,0,1,1,.39,0v1.493a.2.2,0,0,1-.195.2" fill="#5196d4"/>
        <path id="Trazado_36548" data-name="Trazado 36548" d="M145.235,177.185h0a.2.2,0,0,1-.2-.195v-1.084a.2.2,0,1,1,.39,0v1.084a.2.2,0,0,1-.195.195" fill="#5196d4"/>
        <path id="Trazado_36549" data-name="Trazado 36549" d="M145.832,177.087h0a.2.2,0,0,1-.2-.2V176a.195.195,0,1,1,.39,0v.889a.2.2,0,0,1-.195.2" fill="#5196d4"/>
        <path id="Trazado_36550" data-name="Trazado 36550" d="M146.428,177.009h0a.2.2,0,0,1-.195-.2v-.734a.195.195,0,1,1,.39,0v.734a.2.2,0,0,1-.2.2" fill="#5196d4"/>
        <path id="Trazado_36551" data-name="Trazado 36551" d="M144.042,177.185h0a.2.2,0,0,0,.195-.195v-1.084a.2.2,0,1,0-.39,0v1.084a.2.2,0,0,0,.2.195" fill="#5196d4"/>
        <path id="Trazado_36552" data-name="Trazado 36552" d="M143.446,177.087h0a.2.2,0,0,0,.2-.2V176a.195.195,0,1,0-.39,0v.889a.2.2,0,0,0,.195.2" fill="#5196d4"/>
        <path id="Trazado_36553" data-name="Trazado 36553" d="M142.849,177.009h0a.2.2,0,0,0,.2-.2v-.734a.195.195,0,1,0-.39,0v.734a.2.2,0,0,0,.195.2" fill="#5196d4"/>
        <path id="Trazado_36554" data-name="Trazado 36554" d="M114.838,158.851H67.963a2.033,2.033,0,0,1-2.033-2.032V74.01a2.033,2.033,0,0,1,2.033-2.032h46.875a2.032,2.032,0,0,1,2.032,2.032v82.809a2.032,2.032,0,0,1-2.032,2.032" fill="#e4f3fe"/>
        <path id="Trazado_36555" data-name="Trazado 36555" d="M112.762,81.318H70.038a.192.192,0,0,1-.192-.193V77.762a.192.192,0,0,1,.192-.193h42.724a.193.193,0,0,1,.193.193v3.363a.193.193,0,0,1-.193.193" fill="#5196d4"/>
        <path id="Trazado_36556" data-name="Trazado 36556" d="M81.726,81.318H70.038a.192.192,0,0,1-.192-.193V77.762a.192.192,0,0,1,.192-.193H81.726a.193.193,0,0,1,.193.193v3.363a.193.193,0,0,1-.193.193" fill="#7dc1fa"/>
        <rect id="Rectángulo_4825" data-name="Rectángulo 4825" width="20.481" height="28.019" transform="translate(91.937 85.719)" fill="#d75947"/>
        <rect id="Rectángulo_4826" data-name="Rectángulo 4826" width="20.481" height="28.019" transform="translate(70.383 85.719)" fill="#d75947"/>
        <rect id="Rectángulo_4827" data-name="Rectángulo 4827" width="20.481" height="28.02" transform="translate(91.937 115.215)" fill="#d75947"/>
        <rect id="Rectángulo_4828" data-name="Rectángulo 4828" width="20.481" height="28.02" transform="translate(70.383 115.215)" fill="#af4c3b"/>
        <path id="Trazado_36557" data-name="Trazado 36557" d="M74.887,154.312a1.863,1.863,0,1,1-1.863-1.863,1.863,1.863,0,0,1,1.863,1.863" fill="#5196d4"/>
        <path id="Trazado_36558" data-name="Trazado 36558" d="M84.349,154.312a1.863,1.863,0,1,1-1.863-1.863,1.863,1.863,0,0,1,1.863,1.863" fill="#5196d4"/>
        <path id="Trazado_36559" data-name="Trazado 36559" d="M93.811,154.312a1.863,1.863,0,1,1-1.863-1.863,1.863,1.863,0,0,1,1.863,1.863" fill="#5196d4"/>
        <path id="Trazado_36560" data-name="Trazado 36560" d="M103.273,154.312a1.863,1.863,0,1,1-1.863-1.863,1.863,1.863,0,0,1,1.863,1.863" fill="#5196d4"/>
        <path id="Trazado_36561" data-name="Trazado 36561" d="M112.736,154.312a1.863,1.863,0,1,1-1.863-1.863,1.863,1.863,0,0,1,1.863,1.863" fill="#5196d4"/>
        <rect id="Rectángulo_4829" data-name="Rectángulo 4829" width="42.036" height="3.179" transform="translate(70.382 146.878)" fill="#7dc1fa"/>
        <path id="Trazado_36562" data-name="Trazado 36562" d="M78.09,139.795v65.962h60.3" fill="none" stroke="#5196d4" stroke-linejoin="round" stroke-width="1"/>
        <path id="Trazado_36563" data-name="Trazado 36563" d="M67.867,186.182V217.26h70.521" fill="none" stroke="#5196d4" stroke-linejoin="round" stroke-width="1"/>
        <path id="Trazado_36564" data-name="Trazado 36564" d="M78.09,243.048V231.425h60.3" fill="none" stroke="#5196d4" stroke-linejoin="round" stroke-width="1"/>
        <path id="Trazado_36565" data-name="Trazado 36565" d="M80.027,244.681a1.937,1.937,0,1,1-1.937-1.937A1.937,1.937,0,0,1,80.027,244.681Z" fill="none" stroke="#5196d4" stroke-linecap="round" stroke-linejoin="round" stroke-width="1"/>
        <path id="Trazado_36566" data-name="Trazado 36566" d="M69.8,184.246a1.937,1.937,0,1,1-1.936-1.937A1.936,1.936,0,0,1,69.8,184.246Z" fill="none" stroke="#5196d4" stroke-linecap="round" stroke-linejoin="round" stroke-width="1"/>
        <path id="Trazado_36567" data-name="Trazado 36567" d="M79.915,138.2a1.937,1.937,0,1,1-1.936-1.936A1.937,1.937,0,0,1,79.915,138.2Z" fill="none" stroke="#5196d4" stroke-linecap="round" stroke-linejoin="round" stroke-width="1"/>
        <path id="Trazado_36568" data-name="Trazado 36568" d="M386.716,102.185A14.994,14.994,0,0,0,358.57,92.13a11.987,11.987,0,0,0-18.926,9.593,10.915,10.915,0,0,0,3.273,21.328h39.331a10.91,10.91,0,0,0,4.468-20.866Z" fill="none" stroke="#e4f3fe" stroke-miterlimit="10" stroke-width="1"/>
        <path id="Trazado_36569" data-name="Trazado 36569" d="M322.424,248.558h40.16V115.832" fill="none" stroke="#5196d4" stroke-linejoin="round" stroke-width="1"/>
        <path id="Trazado_36570" data-name="Trazado 36570" d="M322.424,262.024h53.088V223.788" fill="none" stroke="#5196d4" stroke-linejoin="round" stroke-width="1"/>
        <path id="Trazado_36571" data-name="Trazado 36571" d="M377.448,221.851a1.936,1.936,0,1,1-1.937-1.937A1.937,1.937,0,0,1,377.448,221.851Z" fill="none" stroke="#5196d4" stroke-linecap="round" stroke-linejoin="round" stroke-width="1"/>
        <path id="Trazado_36572" data-name="Trazado 36572" d="M364.386,113.483a1.936,1.936,0,1,1-1.937-1.937A1.936,1.936,0,0,1,364.386,113.483Z" fill="none" stroke="#5196d4" stroke-linecap="round" stroke-linejoin="round" stroke-width="1"/>
        <path id="Trazado_36573" data-name="Trazado 36573" d="M362.584,262.024v22.965h46.394" fill="none" stroke="#5196d4" stroke-linecap="round" stroke-linejoin="round" stroke-width="1"/>
        <path id="Trazado_36574" data-name="Trazado 36574" d="M412.849,284.989a1.936,1.936,0,1,1-1.937-1.937A1.937,1.937,0,0,1,412.849,284.989Z" fill="none" stroke="#5196d4" stroke-linecap="round" stroke-linejoin="round" stroke-width="1"/>
        <path id="Trazado_36575" data-name="Trazado 36575" d="M437.335,237.385V235.6a1.705,1.705,0,0,0-1.7-1.705h-1.9a1.348,1.348,0,0,1-1.31-1.032,14.71,14.71,0,0,0-1.6-3.969,1.346,1.346,0,0,1,.208-1.636l1.234-1.235a1.7,1.7,0,0,0,0-2.411L431,222.342a1.7,1.7,0,0,0-2.411,0l-1.185,1.185a1.349,1.349,0,0,1-1.658.2,14.719,14.719,0,0,0-4.085-1.714,1.348,1.348,0,0,1-1.019-1.307v-1.546a1.706,1.706,0,0,0-1.705-1.705h-1.79a1.706,1.706,0,0,0-1.7,1.705V220.7a1.35,1.35,0,0,1-1.027,1.308,14.72,14.72,0,0,0-4.129,1.745,1.353,1.353,0,0,1-1.671-.188l-1.045-1.045a1.7,1.7,0,0,0-2.411,0l-1.266,1.266a1.7,1.7,0,0,0,0,2.411l1.878,1.878a14.706,14.706,0,0,0-2.172,5.016,1.347,1.347,0,0,1-1.314,1.053H400.7A1.706,1.706,0,0,0,399,235.85v1.79a1.705,1.705,0,0,0,1.706,1.705h1.768a1.346,1.346,0,0,1,1.3.987,14.748,14.748,0,0,0,1.75,3.938,1.349,1.349,0,0,1-.183,1.68l-1.267,1.267a1.706,1.706,0,0,0,0,2.412l1.265,1.265a1.706,1.706,0,0,0,2.412,0l1.41-1.409a1.347,1.347,0,0,1,1.619-.219,14.724,14.724,0,0,0,3.872,1.513,1.349,1.349,0,0,1,1.046,1.313v1.989a1.705,1.705,0,0,0,1.7,1.705h1.79a1.706,1.706,0,0,0,1.7-1.705v-2.118a1.349,1.349,0,0,1,1-1.3,14.735,14.735,0,0,0,3.761-1.6,1.349,1.349,0,0,1,1.654.2l1.456,1.457a1.7,1.7,0,0,0,2.411,0l1.267-1.266a1.706,1.706,0,0,0,0-2.411l-1.471-1.471a1.347,1.347,0,0,1-.2-1.646,14.782,14.782,0,0,0,1.594-3.819,1.347,1.347,0,0,1,1.3-1.011h1.959a1.705,1.705,0,0,0,1.7-1.706m-18.359,8.1a9.172,9.172,0,1,1,8.188-8.188,9.175,9.175,0,0,1-8.188,8.188" fill="#fff"/>
        <g id="Grupo_17627" data-name="Grupo 17627" style="mix-blend-mode: multiply;isolation: isolate">
          <g id="Grupo_17626" data-name="Grupo 17626">
            <g id="Grupo_17625" data-name="Grupo 17625" clip-path="url(#clip-path-11)">
              <path id="Trazado_36576" data-name="Trazado 36576" d="M410.07,146.01c.027.073.062.142.083.219a2.212,2.212,0,0,1-4.273,1.149c-.021-.077-.026-.155-.039-.231l-1.506.4a2.292,2.292,0,0,1,.083.219,2.212,2.212,0,1,1-4.273,1.148,2.022,2.022,0,0,1-.038-.231l-1.507.4a2.309,2.309,0,0,1,.083.219,2.212,2.212,0,0,1-4.273,1.149,2.058,2.058,0,0,1-.038-.231l-1.507.4a2.291,2.291,0,0,1,.083.219A2.212,2.212,0,0,1,388.675,152a2.059,2.059,0,0,1-.038-.231l-1.507.4c.028.073.062.142.084.219a2.213,2.213,0,0,1-4.274,1.149c-.02-.077-.025-.154-.038-.231l-1.507.4a1.856,1.856,0,0,1,.083.219,2.212,2.212,0,0,1-4.273,1.149,1.878,1.878,0,0,1-.037-.231l-2.844.764L388.351,207.8l38.76-10.42L413.084,145.2Z" fill="#f2efe9"/>
            </g>
          </g>
        </g>
        <path id="Trazado_36577" data-name="Trazado 36577" d="M410.768,144.939a2.308,2.308,0,0,1,.083.219,2.212,2.212,0,1,1-4.272,1.149,1.856,1.856,0,0,1-.039-.231l-1.507.4c.028.073.062.142.084.219a2.213,2.213,0,0,1-4.274,1.149c-.02-.077-.025-.155-.038-.232l-1.507.4a1.935,1.935,0,0,1,.083.219,2.212,2.212,0,0,1-4.273,1.149,1.848,1.848,0,0,1-.037-.231l-1.508.4c.028.073.062.142.084.219a2.213,2.213,0,0,1-4.274,1.149c-.02-.077-.025-.154-.038-.231l-1.506.4a2.3,2.3,0,0,1,.083.219,2.213,2.213,0,0,1-4.274,1.149,2.311,2.311,0,0,1-.037-.231l-1.508.4a2.055,2.055,0,0,1,.084.219,2.212,2.212,0,0,1-4.273,1.149,2.059,2.059,0,0,1-.038-.231l-2.843.764,14.027,52.176,38.759-10.42-14.027-52.176Z" fill="#fff"/>
        <g id="Grupo_17630" data-name="Grupo 17630" style="mix-blend-mode: multiply;isolation: isolate">
          <g id="Grupo_17629" data-name="Grupo 17629">
            <g id="Grupo_17628" data-name="Grupo 17628" clip-path="url(#clip-path-12)">
              <path id="Trazado_36578" data-name="Trazado 36578" d="M423.888,139.871a2.182,2.182,0,0,1,.043.231,2.212,2.212,0,0,1-4.409.371,2,2,0,0,1,0-.233l-1.555.13a2.18,2.18,0,0,1,.043.23,2.212,2.212,0,0,1-4.409.371,2,2,0,0,1,0-.233l-1.556.13a2.207,2.207,0,1,1-4.366.6,2.033,2.033,0,0,1,0-.235l-1.556.131a1.81,1.81,0,0,1,.043.231,2.212,2.212,0,1,1-4.408.371,2.254,2.254,0,0,1,0-.233l-1.555.131a2.1,2.1,0,0,1,.043.229,2.212,2.212,0,1,1-4.409.371,2.016,2.016,0,0,1,0-.233l-1.556.131a2.136,2.136,0,0,1,.043.231,2.212,2.212,0,1,1-4.409.37c-.006-.079,0-.155,0-.234l-2.934.247,4.537,53.838,39.994-3.37L427,139.609Z" fill="#f2efe9"/>
            </g>
          </g>
        </g>
        <path id="Trazado_36579" data-name="Trazado 36579" d="M424.665,139.092a2.207,2.207,0,1,1-4.366.6,2.015,2.015,0,0,1,0-.234l-1.555.131a2.118,2.118,0,0,1,.043.23,2.212,2.212,0,0,1-4.409.372,2.047,2.047,0,0,1,0-.235l-1.556.132a2.118,2.118,0,0,1,.043.23,2.212,2.212,0,1,1-4.409.371,2.033,2.033,0,0,1,0-.234l-1.556.131a1.768,1.768,0,0,1,.043.231,2.212,2.212,0,1,1-4.409.371c-.006-.079,0-.156,0-.234l-1.555.131a2.207,2.207,0,1,1-4.366.6,2.046,2.046,0,0,1,0-.235l-1.556.132a2.118,2.118,0,0,1,.043.23,2.212,2.212,0,1,1-4.409.371,2.033,2.033,0,0,1,0-.234l-2.934.247,4.537,53.838,39.994-3.37-4.537-53.838Z" fill="#fff"/>
        <path id="Trazado_36580" data-name="Trazado 36580" d="M393.441,151.769a.664.664,0,0,1-.041-1.326l30.36-1.892a.652.652,0,0,1,.7.621.661.661,0,0,1-.62.7l-30.36,1.893h-.042" fill="#d75947"/>
        <path id="Trazado_36581" data-name="Trazado 36581" d="M393.441,155.087a.664.664,0,0,1-.041-1.326l30.36-1.892a.651.651,0,0,1,.7.621.661.661,0,0,1-.62.7l-30.36,1.893h-.042" fill="#d75947"/>
        <path id="Trazado_36582" data-name="Trazado 36582" d="M439.516,148a2.5,2.5,0,0,1,1.051,3.369L426.4,178.393c-.321.611-4.372,2.964-4.372,2.964" fill="#2b3847"/>
        <path id="Trazado_36583" data-name="Trazado 36583" d="M422.028,181.357s-.369-4.672-.049-5.282l14.167-27.02A2.5,2.5,0,0,1,439.515,148" fill="#626e7f"/>
        <path id="Trazado_36584" data-name="Trazado 36584" d="M441.222,153.839c0-.027,0-.054,0-.081a1.263,1.263,0,1,0-1.847,1.168c.028.015.057.022.084.034l-4.009,7.649a.54.54,0,0,0,.956.5l4.371-8.337.391-.747a.541.541,0,0,0,.055-.187" fill="#2b3847"/>
        <path id="Trazado_36585" data-name="Trazado 36585" d="M336.217,237.212a19.381,19.381,0,1,1-19.381-19.381,19.381,19.381,0,0,1,19.381,19.381" fill="#d75947"/>
      </g>
    </g>
    <text id="_" data-name="&lt;/&gt;" transform="translate(303.103 241.96)" fill="#fff" font-size="16.459" font-family="Helvetica"><tspan x="0" y="0">&lt;/&gt;</tspan></text>
  </g>
</svg>
