<svg id="Grupo_17666" data-name="Grupo 17666" xmlns="http://www.w3.org/2000/svg" xmlns:xlink="http://www.w3.org/1999/xlink" width="370.073" height="319.203" viewBox="0 0 370.073 319.203">
  <defs>
    <clipPath id="clip-path">
      <rect id="Rectángulo_4848" data-name="Rectángulo 4848" width="370.073" height="319.203" fill="none"/>
    </clipPath>
    <clipPath id="clip-path-3">
      <rect id="Rectángulo_4838" data-name="Rectángulo 4838" width="252.074" height="146.94" fill="none"/>
    </clipPath>
    <clipPath id="clip-path-4">
      <rect id="Rectángulo_4839" data-name="Rectángulo 4839" width="126.322" height="67.596" fill="none"/>
    </clipPath>
    <clipPath id="clip-path-5">
      <rect id="Rectángulo_4840" data-name="Rectángulo 4840" width="54.473" height="30.78" fill="none"/>
    </clipPath>
    <clipPath id="clip-path-6">
      <rect id="Rectángulo_4841" data-name="Rectángulo 4841" width="29.183" height="39.788" fill="none"/>
    </clipPath>
    <clipPath id="clip-path-7">
      <path id="Trazado_36703" data-name="Trazado 36703" d="M28.1,72.409c0,12.241,8.648,27.155,19.315,33.314s19.314,1.228,19.314-11.012S58.086,67.555,47.419,61.4a17.61,17.61,0,0,0-8.669-2.652c-6.314,0-10.646,5-10.646,13.664" transform="translate(-28.104 -58.745)" fill="none"/>
    </clipPath>
    <linearGradient id="linear-gradient" x1="-0.849" y1="2.792" x2="-0.819" y2="2.792" gradientUnits="objectBoundingBox">
      <stop offset="0" stop-color="#311b61"/>
      <stop offset="0.215" stop-color="#280d51"/>
      <stop offset="0.495" stop-color="#200041"/>
      <stop offset="1" stop-color="#0f001f"/>
    </linearGradient>
    <clipPath id="clip-path-9">
      <rect id="Rectángulo_4843" data-name="Rectángulo 4843" width="0.634" height="0.816" fill="none"/>
    </clipPath>
    <clipPath id="clip-path-10">
      <rect id="Rectángulo_4844" data-name="Rectángulo 4844" width="9.995" height="4.395" fill="none"/>
    </clipPath>
    <clipPath id="clip-path-11">
      <rect id="Rectángulo_4845" data-name="Rectángulo 4845" width="9.198" height="5.145" fill="none"/>
    </clipPath>
    <clipPath id="clip-path-12">
      <rect id="Rectángulo_4846" data-name="Rectángulo 4846" width="8.024" height="6.917" fill="none"/>
    </clipPath>
  </defs>
  <g id="Grupo_17665" data-name="Grupo 17665" clip-path="url(#clip-path)">
    <path id="Trazado_36586" data-name="Trazado 36586" d="M293.46,89.762l.407-.084,1.486-4.1h.479l1.419,4.1.454.088V90H296.2v-.242l.472-.088-.307-.917h-1.71l-.308.917.476.088V90H293.46Zm2.794-1.338-.464-1.391-.272-.859-.752,2.25Z" transform="translate(49.171 14.339)" fill="#a8cff0"/>
    <g id="Grupo_17648" data-name="Grupo 17648">
      <g id="Grupo_17647" data-name="Grupo 17647" clip-path="url(#clip-path)">
        <path id="Trazado_36587" data-name="Trazado 36587" d="M297.692,85.854l-.488-.1V85.5l.921-.1.114.048v1.665c.05-.043.107-.088.169-.132a1.32,1.32,0,0,1,.2-.118,1.288,1.288,0,0,1,.552-.118,1.336,1.336,0,0,1,.467.084,1.055,1.055,0,0,1,.405.271,1.358,1.358,0,0,1,.285.482,2.126,2.126,0,0,1,.109.725,2.044,2.044,0,0,1-.117.692,1.8,1.8,0,0,1-.329.574,1.556,1.556,0,0,1-.51.391,1.464,1.464,0,0,1-.657.146,3.58,3.58,0,0,1-.392-.022c-.126-.015-.241-.035-.342-.057a1.962,1.962,0,0,1-.257-.074.365.365,0,0,1-.134-.069Zm.548,3.728a.316.316,0,0,0,.219.175,1.413,1.413,0,0,0,.424.056.854.854,0,0,0,.363-.083.9.9,0,0,0,.32-.255,1.308,1.308,0,0,0,.228-.435,2.112,2.112,0,0,0,.092-.629,1.725,1.725,0,0,0-.075-.585,1.116,1.116,0,0,0-.215-.393.824.824,0,0,0-.307-.221.957.957,0,0,0-.585-.043,1.019,1.019,0,0,0-.194.064,1.148,1.148,0,0,0-.155.088.8.8,0,0,0-.116.09Z" transform="translate(49.798 14.309)" fill="#a8cff0"/>
        <path id="Trazado_36588" data-name="Trazado 36588" d="M300.488,88.18a1.8,1.8,0,0,1,.133-.683,1.558,1.558,0,0,1,.335-.509,1.415,1.415,0,0,1,.48-.319,1.544,1.544,0,0,1,.569-.114,1.415,1.415,0,0,1,.629.126,1.232,1.232,0,0,1,.444.353,1.5,1.5,0,0,1,.262.525,2.317,2.317,0,0,1,.082.647,1.99,1.99,0,0,1-.121.692,1.689,1.689,0,0,1-.319.537,1.415,1.415,0,0,1-.47.348,1.362,1.362,0,0,1-.577.124,1.453,1.453,0,0,1-.67-.142,1.249,1.249,0,0,1-.451-.382,1.59,1.59,0,0,1-.252-.551,2.448,2.448,0,0,1-.072-.651m1.471,1.408a.844.844,0,0,0,.409-.082.7.7,0,0,0,.271-.262,1.243,1.243,0,0,0,.151-.427,3.253,3.253,0,0,0,.048-.586,2.792,2.792,0,0,0-.05-.537,1.364,1.364,0,0,0-.158-.434.818.818,0,0,0-.27-.293.742.742,0,0,0-.389-.113.894.894,0,0,0-.413.084.738.738,0,0,0-.278.256,1.2,1.2,0,0,0-.158.411,2.773,2.773,0,0,0-.05.549,2.58,2.58,0,0,0,.055.535,1.617,1.617,0,0,0,.162.454.953.953,0,0,0,.274.32.686.686,0,0,0,.4.126" transform="translate(50.349 14.503)" fill="#a8cff0"/>
        <path id="Trazado_36589" data-name="Trazado 36589" d="M303.832,87.049l-.293-.086v-.219l.732-.156.1.051V88.6a2.892,2.892,0,0,0,.025.406.747.747,0,0,0,.093.279.433.433,0,0,0,.19.163.768.768,0,0,0,.307.053.884.884,0,0,0,.252-.036,1.566,1.566,0,0,0,.23-.085,1.108,1.108,0,0,0,.187-.106.681.681,0,0,0,.118-.095V87.074l-.357-.091v-.234l.816-.162.079.049v2.956h.342v.216a.609.609,0,0,1-.105.043,1.33,1.33,0,0,1-.135.04c-.049.011-.1.02-.148.028a.906.906,0,0,1-.145.012.355.355,0,0,1-.215-.058.217.217,0,0,1-.078-.187v-.234a1.912,1.912,0,0,1-.52.329,1.4,1.4,0,0,1-.532.112,1.106,1.106,0,0,1-.525-.1.678.678,0,0,1-.28-.287,1.189,1.189,0,0,1-.113-.434c-.014-.168-.022-.35-.025-.548Z" transform="translate(50.86 14.508)" fill="#a8cff0"/>
        <path id="Trazado_36590" data-name="Trazado 36590" d="M307.153,89.188c0-.35,0-.7,0-1.043s0-.691,0-1.04h-.435V86.89l.21-.05a.733.733,0,0,0,.139-.042.3.3,0,0,0,.093-.062.371.371,0,0,0,.068-.107c.013-.033.03-.081.049-.142s.04-.127.057-.193.035-.127.047-.186.023-.1.027-.124h.281v.76h.957V87.1h-.957v1.436c0,.221,0,.4.009.537a1.387,1.387,0,0,0,.043.323.26.26,0,0,0,.1.158.336.336,0,0,0,.182.042,1.01,1.01,0,0,0,.159-.014c.058-.009.113-.021.167-.035a1.347,1.347,0,0,0,.149-.044.432.432,0,0,0,.1-.047l.089.251a.614.614,0,0,1-.173.126,1.568,1.568,0,0,1-.236.091,1.969,1.969,0,0,1-.253.056,1.666,1.666,0,0,1-.224.018.612.612,0,0,1-.482-.191.926.926,0,0,1-.17-.623" transform="translate(51.393 14.407)" fill="#a8cff0"/>
        <rect id="Rectángulo_4837" data-name="Rectángulo 4837" width="1.168" height="165.237" transform="translate(365.745 70.468)" fill="#a8cff0"/>
        <path id="Trazado_36591" data-name="Trazado 36591" d="M317.372,58.746a3.161,3.161,0,1,1-3.162-3.161,3.162,3.162,0,0,1,3.162,3.161" transform="translate(52.118 9.314)" fill="#fff"/>
        <path id="Trazado_36592" data-name="Trazado 36592" d="M314.294,62.575a3.745,3.745,0,1,1,3.744-3.746,3.749,3.749,0,0,1-3.744,3.746m0-6.322a2.577,2.577,0,1,0,2.577,2.577,2.58,2.58,0,0,0-2.577-2.577" transform="translate(52.035 9.23)" fill="#a8cff0"/>
        <path id="Trazado_36593" data-name="Trazado 36593" d="M317.372,88.219a3.161,3.161,0,1,1-3.162-3.162,3.163,3.163,0,0,1,3.162,3.162" transform="translate(52.118 14.252)" fill="#a8cff0"/>
        <path id="Trazado_36594" data-name="Trazado 36594" d="M314.127,121.577A2.577,2.577,0,1,1,316.7,119a2.58,2.58,0,0,1-2.577,2.577" transform="translate(52.202 19.507)" fill="#fff"/>
        <path id="Trazado_36595" data-name="Trazado 36595" d="M314.211,117.09a1.994,1.994,0,1,1-1.993,1.994,2,2,0,0,1,1.993-1.994m0-1.168a3.161,3.161,0,1,0,3.162,3.162,3.161,3.161,0,0,0-3.162-3.162" transform="translate(52.118 19.423)" fill="#a8cff0"/>
        <path id="Trazado_36596" data-name="Trazado 36596" d="M314.127,149.477A2.577,2.577,0,1,1,316.7,146.9a2.58,2.58,0,0,1-2.577,2.578" transform="translate(52.202 24.182)" fill="#fff"/>
        <path id="Trazado_36597" data-name="Trazado 36597" d="M314.211,144.99a1.994,1.994,0,1,1-1.993,1.994,2,2,0,0,1,1.993-1.994m0-1.168a3.161,3.161,0,1,0,3.162,3.162,3.161,3.161,0,0,0-3.162-3.162" transform="translate(52.118 24.098)" fill="#a8cff0"/>
        <path id="Trazado_36598" data-name="Trazado 36598" d="M314.127,177.325a2.577,2.577,0,1,1,2.577-2.577,2.58,2.58,0,0,1-2.577,2.577" transform="translate(52.202 28.848)" fill="#fff"/>
        <path id="Trazado_36599" data-name="Trazado 36599" d="M314.211,172.837a1.994,1.994,0,1,1-1.993,1.994,2,2,0,0,1,1.993-1.994m0-1.168a3.161,3.161,0,1,0,3.162,3.162,3.162,3.162,0,0,0-3.162-3.162" transform="translate(52.118 28.764)" fill="#a8cff0"/>
        <path id="Trazado_36600" data-name="Trazado 36600" d="M314.127,205.174A2.577,2.577,0,1,1,316.7,202.6a2.58,2.58,0,0,1-2.577,2.577" transform="translate(52.202 33.514)" fill="#fff"/>
        <path id="Trazado_36601" data-name="Trazado 36601" d="M314.211,200.688a1.994,1.994,0,1,1-1.993,1.993,2,2,0,0,1,1.993-1.993m0-1.168a3.161,3.161,0,1,0,3.162,3.161,3.161,3.161,0,0,0-3.162-3.161" transform="translate(52.118 33.431)" fill="#a8cff0"/>
        <path id="Trazado_36602" data-name="Trazado 36602" d="M288.249,270.025a.584.584,0,0,1,0-1.168c.766,0,1.534-.031,2.3-.076a.584.584,0,1,1,.069,1.165q-1.187.07-2.364.078Zm-3.5-.106h-.042c-.793-.056-1.58-.134-2.356-.232a.584.584,0,1,1,.146-1.158q1.133.144,2.293.225a.584.584,0,0,1-.041,1.166m9.323-.3a.584.584,0,0,1-.075-1.163q1.142-.151,2.278-.358a.593.593,0,0,1,.68.471.585.585,0,0,1-.471.68q-1.161.21-2.335.367a.561.561,0,0,1-.077,0m-15.1-.529a.6.6,0,0,1-.127-.014c-.779-.175-1.552-.377-2.3-.6a.583.583,0,0,1,.335-1.117c.72.216,1.468.411,2.22.58a.584.584,0,0,1-.128,1.154m20.822-.59a.583.583,0,0,1-.147-1.148q1.121-.292,2.213-.642a.584.584,0,1,1,.356,1.113q-1.123.357-2.274.657a.538.538,0,0,1-.147.02m-26.362-1.218a.58.58,0,0,1-.238-.051,23.486,23.486,0,0,1-2.111-1.073l-2.022-1.169a.583.583,0,1,1,.584-1.01l2.022,1.168c.632.363,1.306.706,2,1.019a.584.584,0,0,1-.238,1.116m31.893-.637a.584.584,0,0,1-.225-1.122q1.068-.447,2.09-.952a.584.584,0,1,1,.518,1.046q-1.056.522-2.159.982a.583.583,0,0,1-.224.046m5.235-2.572a.584.584,0,0,1-.255-1.109l.478-.232c.487-.283.989-.592,1.469-.908a.584.584,0,1,1,.643.974q-.748.494-1.566.966l-.515.252a.587.587,0,0,1-.255.058m-44.241-.757a.58.58,0,0,1-.292-.078l-2.022-1.168a.583.583,0,1,1,.584-1.01l2.022,1.168a.583.583,0,0,1-.292,1.088m49.037-2.543a.584.584,0,0,1-.386-1.022,19.4,19.4,0,0,0,1.608-1.594.584.584,0,1,1,.871.778,20.318,20.318,0,0,1-1.706,1.692.576.576,0,0,1-.386.146m-54.093-.376a.577.577,0,0,1-.292-.078l-2.022-1.168a.583.583,0,1,1,.584-1.01l2.022,1.168a.583.583,0,0,1-.292,1.088m-5.056-2.919a.577.577,0,0,1-.292-.078l-2.022-1.168a.583.583,0,1,1,.584-1.01l2.022,1.168a.583.583,0,0,1-.292,1.088m62.829-1.2a.592.592,0,0,1-.277-.069.584.584,0,0,1-.238-.79,10.878,10.878,0,0,0,.851-2.041.584.584,0,0,1,1.12.333,12.076,12.076,0,0,1-.942,2.259.583.583,0,0,1-.514.308m-67.884-1.721a.577.577,0,0,1-.292-.078l-2.022-1.168a.583.583,0,1,1,.584-1.01l2.022,1.168a.583.583,0,0,1-.292,1.088m-5.056-2.919a.577.577,0,0,1-.292-.078l-2.022-1.168a.583.583,0,1,1,.584-1.01l2.022,1.168a.583.583,0,0,1-.292,1.088m74.2-.973a.583.583,0,0,1-.58-.532,8.3,8.3,0,0,0-.478-2.119.583.583,0,1,1,1.094-.4,9.393,9.393,0,0,1,.546,2.42.584.584,0,0,1-.53.633l-.053,0m-79.26-1.946a.577.577,0,0,1-.292-.078l-2.022-1.168a.583.583,0,1,1,.584-1.01l2.022,1.168a.583.583,0,0,1-.292,1.088m-5.056-2.919a.577.577,0,0,1-.292-.078l-2.022-1.168a.583.583,0,1,1,.584-1.01l2.022,1.168a.583.583,0,0,1-.292,1.088m82.04-.409a.581.581,0,0,1-.45-.211A12.633,12.633,0,0,0,316,243.6a.584.584,0,1,1,.758-.89,14.119,14.119,0,0,1,1.714,1.724.583.583,0,0,1-.448.956m-87.1-2.51a.577.577,0,0,1-.292-.078l-2.023-1.168a.583.583,0,0,1,.584-1.01l2.023,1.168a.583.583,0,0,1-.292,1.088m82.567-1.121a.577.577,0,0,1-.291-.079l-2.023-1.168a.583.583,0,0,1,.584-1.01l2.023,1.168a.584.584,0,0,1-.293,1.089m-87.623-1.8a.577.577,0,0,1-.292-.078l-2.023-1.168a.583.583,0,0,1,.584-1.01l2.023,1.168a.584.584,0,0,1-.292,1.088m82.568-1.121a.578.578,0,0,1-.292-.079L306.13,237.6a.583.583,0,1,1,.584-1.01l2.023,1.168a.584.584,0,0,1-.292,1.089m-87.624-1.8a.577.577,0,0,1-.292-.078l-2.023-1.168a.583.583,0,0,1,.584-1.01l2.023,1.168a.583.583,0,0,1-.292,1.088m82.565-1.121a.583.583,0,0,1-.291-.079l-2.021-1.168a.583.583,0,1,1,.584-1.01l2.021,1.168a.584.584,0,0,1-.293,1.089m-87.622-1.8a.577.577,0,0,1-.292-.078l-2.022-1.168a.583.583,0,0,1,.584-1.01l2.022,1.168a.583.583,0,0,1-.292,1.088M298.332,233a.578.578,0,0,1-.292-.079l-2.021-1.168a.583.583,0,1,1,.584-1.01l2.021,1.168a.584.584,0,0,1-.292,1.089m-87.623-1.8a.577.577,0,0,1-.292-.078l-2.022-1.168a.583.583,0,0,1,.584-1.01L211,230.118a.583.583,0,0,1-.292,1.088m82.567-1.121a.578.578,0,0,1-.292-.079l-2.021-1.168a.583.583,0,1,1,.584-1.01L293.569,229a.584.584,0,0,1-.292,1.089m-87.624-1.8a.583.583,0,0,1-.292-.078l-2.021-1.168a.583.583,0,1,1,.584-1.01l2.021,1.168a.583.583,0,0,1-.292,1.088m82.568-1.121a.578.578,0,0,1-.292-.079l-2.021-1.168a.583.583,0,1,1,.584-1.01l2.021,1.168a.584.584,0,0,1-.292,1.089m-87.624-1.8a.58.58,0,0,1-.292-.078l-2.021-1.168a.583.583,0,1,1,.584-1.01l2.021,1.168a.583.583,0,0,1-.292,1.088m82.568-1.121a.578.578,0,0,1-.292-.079L280.853,223a.583.583,0,1,1,.584-1.01l2.021,1.168a.584.584,0,0,1-.292,1.089m-87.624-1.8a.577.577,0,0,1-.292-.078l-2.021-1.168a.583.583,0,1,1,.584-1.01l2.021,1.168a.583.583,0,0,1-.292,1.088m82.568-1.121a.578.578,0,0,1-.292-.079l-2.021-1.168a.583.583,0,1,1,.584-1.01l2.021,1.168a.584.584,0,0,1-.292,1.089m-87.624-1.8a.577.577,0,0,1-.292-.078l-2.021-1.168a.583.583,0,1,1,.584-1.01l2.021,1.168a.583.583,0,0,1-.292,1.088m82.568-1.121a.578.578,0,0,1-.292-.079l-2.021-1.168a.583.583,0,1,1,.584-1.01l2.021,1.168a.584.584,0,0,1-.292,1.089m-87.624-1.8a.577.577,0,0,1-.292-.078l-2.021-1.168a.583.583,0,1,1,.584-1.01l2.021,1.168a.583.583,0,0,1-.292,1.088M268,215.491a.578.578,0,0,1-.292-.079l-2.022-1.168a.583.583,0,0,1,.584-1.01l2.022,1.168a.584.584,0,0,1-.292,1.089m-87.624-1.8a.577.577,0,0,1-.292-.078l-2.021-1.168a.583.583,0,1,1,.584-1.01l2.021,1.168a.583.583,0,0,1-.292,1.088m82.568-1.121a.578.578,0,0,1-.292-.079l-2.022-1.168a.583.583,0,0,1,.584-1.01l2.022,1.168a.584.584,0,0,1-.292,1.089m-87.624-1.8a.577.577,0,0,1-.292-.078l-2.021-1.168a.583.583,0,1,1,.584-1.01l2.021,1.168a.583.583,0,0,1-.292,1.088m82.568-1.121a.578.578,0,0,1-.292-.079l-2.022-1.168a.583.583,0,0,1,.584-1.01l2.022,1.168a.584.584,0,0,1-.292,1.089m-87.624-1.8a.577.577,0,0,1-.292-.078l-2.022-1.168a.583.583,0,1,1,.584-1.01l2.022,1.168a.583.583,0,0,1-.292,1.088m82.568-1.121a.578.578,0,0,1-.292-.079l-2.022-1.168a.583.583,0,0,1,.584-1.01l2.022,1.168a.584.584,0,0,1-.292,1.089m-87.624-1.8a.577.577,0,0,1-.292-.078l-2.023-1.168a.583.583,0,0,1,.584-1.01l2.023,1.168a.584.584,0,0,1-.292,1.088m82.568-1.121a.578.578,0,0,1-.292-.079l-2.023-1.168a.583.583,0,0,1,.584-1.01l2.023,1.168a.584.584,0,0,1-.292,1.089m-87.624-1.8a.577.577,0,0,1-.292-.078l-2.023-1.168a.583.583,0,0,1,.584-1.01l2.023,1.168a.583.583,0,0,1-.292,1.088m82.568-1.121a.578.578,0,0,1-.292-.079l-2.023-1.168a.583.583,0,1,1,.584-1.01l2.023,1.168a.584.584,0,0,1-.292,1.089M155.1,199.1a.577.577,0,0,1-.292-.078l-2.023-1.168a.583.583,0,0,1,.584-1.01l2.023,1.168a.583.583,0,0,1-.292,1.088m82.567-1.121a.581.581,0,0,1-.292-.079l-2.022-1.168a.583.583,0,1,1,.584-1.01l2.022,1.168a.584.584,0,0,1-.292,1.089m-87.623-1.8a.577.577,0,0,1-.292-.078l-2.023-1.168a.583.583,0,0,1,.584-1.01l2.023,1.168a.583.583,0,0,1-.292,1.088m82.567-1.121a.578.578,0,0,1-.292-.079l-2.022-1.168a.583.583,0,1,1,.584-1.01l2.022,1.168a.584.584,0,0,1-.292,1.089m-87.623-1.8a.577.577,0,0,1-.292-.078l-2.023-1.168a.583.583,0,0,1,.584-1.01l2.023,1.168a.583.583,0,0,1-.292,1.088m82.567-1.121a.578.578,0,0,1-.292-.079l-2.022-1.168a.583.583,0,1,1,.584-1.01l2.022,1.168a.584.584,0,0,1-.292,1.089m-87.624-1.8a.583.583,0,0,1-.292-.078l-2.022-1.168a.583.583,0,1,1,.584-1.01l2.022,1.168a.583.583,0,0,1-.292,1.088m82.568-1.121a.578.578,0,0,1-.292-.079l-2.022-1.168a.583.583,0,1,1,.584-1.01l2.022,1.168a.584.584,0,0,1-.292,1.089m-87.624-1.8a.58.58,0,0,1-.292-.078l-2.022-1.168a.583.583,0,1,1,.584-1.01l2.022,1.168a.583.583,0,0,1-.292,1.088m82.568-1.121a.578.578,0,0,1-.292-.079l-2.022-1.168a.583.583,0,1,1,.584-1.01l2.022,1.168a.584.584,0,0,1-.292,1.089m-87.624-1.8a.577.577,0,0,1-.292-.078l-2.022-1.168a.583.583,0,1,1,.584-1.01l2.022,1.168a.583.583,0,0,1-.292,1.088m82.568-1.121a.578.578,0,0,1-.292-.079l-2.022-1.168a.583.583,0,1,1,.584-1.01l2.022,1.168a.584.584,0,0,1-.292,1.089m-87.625-1.8a.576.576,0,0,1-.291-.078l-2.022-1.168a.583.583,0,1,1,.584-1.01l2.022,1.168a.583.583,0,0,1-.293,1.088m82.57-1.121a.578.578,0,0,1-.292-.079l-2.022-1.168a.583.583,0,1,1,.584-1.01l2.022,1.168a.584.584,0,0,1-.292,1.089m-87.624-1.8a.577.577,0,0,1-.292-.078l-2.022-1.168a.583.583,0,1,1,.584-1.01L120,177.578a.583.583,0,0,1-.292,1.088m82.568-1.121a.578.578,0,0,1-.292-.079l-2.023-1.168a.583.583,0,0,1,.584-1.01l2.023,1.168a.584.584,0,0,1-.292,1.089m-87.624-1.8a.577.577,0,0,1-.292-.078l-2.022-1.168a.583.583,0,1,1,.584-1.01l2.022,1.168a.583.583,0,0,1-.292,1.088m82.568-1.121a.578.578,0,0,1-.292-.079l-2.023-1.168a.583.583,0,0,1,.584-1.01l2.023,1.168a.584.584,0,0,1-.292,1.089m-87.625-1.8a.577.577,0,0,1-.292-.078l-2.021-1.168a.583.583,0,1,1,.584-1.01l2.021,1.168a.583.583,0,0,1-.292,1.088m82.57-1.121a.578.578,0,0,1-.292-.079l-2.023-1.168a.583.583,0,0,1,.584-1.01l2.023,1.168a.584.584,0,0,1-.292,1.089m-87.625-1.8a.577.577,0,0,1-.292-.078l-2.021-1.168a.583.583,0,1,1,.584-1.01l2.021,1.168a.583.583,0,0,1-.292,1.088m82.57-1.121a.578.578,0,0,1-.292-.079l-2.023-1.168a.583.583,0,0,1,.584-1.01L187.4,167.7a.584.584,0,0,1-.292,1.089m-87.625-1.8a.577.577,0,0,1-.292-.078l-2.022-1.168a.583.583,0,0,1,.584-1.01l2.022,1.168a.583.583,0,0,1-.292,1.088m82.57-1.121a.578.578,0,0,1-.292-.079l-2.023-1.168a.583.583,0,0,1,.584-1.01l2.023,1.168a.584.584,0,0,1-.292,1.089m-87.625-1.8a.577.577,0,0,1-.292-.078l-2.022-1.168a.583.583,0,0,1,.584-1.01l2.022,1.168a.583.583,0,0,1-.292,1.088M177,162.951a.578.578,0,0,1-.292-.079l-2.023-1.168a.583.583,0,1,1,.584-1.01l2.023,1.168a.584.584,0,0,1-.292,1.089m-87.625-1.8a.577.577,0,0,1-.292-.078l-2.022-1.168a.583.583,0,0,1,.584-1.01l2.022,1.168a.583.583,0,0,1-.292,1.088m82.568-1.121a.581.581,0,0,1-.292-.079l-2.022-1.168a.583.583,0,1,1,.584-1.01l2.022,1.168a.584.584,0,0,1-.292,1.089m-87.624-1.8a.577.577,0,0,1-.292-.078L82,156.988a.583.583,0,0,1,.584-1.01l2.022,1.168a.583.583,0,0,1-.292,1.088m82.567-1.121a.578.578,0,0,1-.292-.079l-2.021-1.168a.583.583,0,1,1,.584-1.01l2.021,1.168a.584.584,0,0,1-.292,1.089m-87.623-1.8a.577.577,0,0,1-.292-.078l-2.023-1.168a.583.583,0,0,1,.584-1.01l2.023,1.168a.583.583,0,0,1-.292,1.088m82.566-1.121a.577.577,0,0,1-.291-.079l-2.021-1.168a.583.583,0,1,1,.584-1.01l2.021,1.168a.584.584,0,0,1-.293,1.089m-87.623-1.8a.583.583,0,0,1-.292-.078l-2.022-1.168a.583.583,0,1,1,.584-1.01l2.022,1.168a.583.583,0,0,1-.292,1.088m82.568-1.121a.578.578,0,0,1-.292-.079l-2.021-1.168a.583.583,0,1,1,.584-1.01l2.021,1.168a.584.584,0,0,1-.292,1.089m-87.624-1.8a.58.58,0,0,1-.292-.078l-2.022-1.168a.583.583,0,1,1,.584-1.01l2.022,1.168a.583.583,0,0,1-.292,1.088m82.568-1.121a.578.578,0,0,1-.292-.079l-2.021-1.168a.583.583,0,1,1,.584-1.01l2.021,1.168a.584.584,0,0,1-.292,1.089m-87.624-1.8a.577.577,0,0,1-.292-.078l-2.022-1.168a.583.583,0,1,1,.584-1.01l2.022,1.168a.583.583,0,0,1-.292,1.088m82.567-1.121a.577.577,0,0,1-.291-.079l-2.021-1.168a.583.583,0,1,1,.584-1.01l2.021,1.168a.584.584,0,0,1-.293,1.089m-87.623-1.8a.577.577,0,0,1-.292-.078l-2.022-1.168a.583.583,0,1,1,.584-1.01l2.022,1.168a.583.583,0,0,1-.292,1.088m82.568-1.121a.578.578,0,0,1-.292-.079l-2.021-1.168a.583.583,0,1,1,.584-1.01l2.021,1.168a.584.584,0,0,1-.292,1.089m-87.624-1.8a.577.577,0,0,1-.292-.078l-2.022-1.168a.583.583,0,1,1,.584-1.01l2.022,1.168a.583.583,0,0,1-.292,1.088m82.568-1.121a.578.578,0,0,1-.292-.079l-2.022-1.168a.583.583,0,0,1,.584-1.01l2.022,1.168a.584.584,0,0,1-.292,1.089m-87.624-1.8a.577.577,0,0,1-.292-.078l-2.022-1.168a.583.583,0,1,1,.584-1.01l2.022,1.168a.583.583,0,0,1-.292,1.088m82.567-1.121a.577.577,0,0,1-.291-.079l-2.022-1.168a.583.583,0,0,1,.584-1.01l2.022,1.168a.584.584,0,0,1-.293,1.089m-87.623-1.8a.577.577,0,0,1-.292-.078l-2.022-1.168a.583.583,0,1,1,.584-1.01l2.022,1.168a.583.583,0,0,1-.292,1.088m82.568-1.121a.578.578,0,0,1-.292-.079l-2.022-1.168a.583.583,0,0,1,.584-1.01l2.022,1.168a.584.584,0,0,1-.292,1.089m-87.624-1.8a.577.577,0,0,1-.292-.078L36.5,130.718a.583.583,0,1,1,.584-1.01l2.022,1.168a.583.583,0,0,1-.292,1.088m82.568-1.121a.578.578,0,0,1-.292-.079L119.07,129.6a.584.584,0,0,1,.584-1.011l2.023,1.169a.584.584,0,0,1-.292,1.089m-87.624-1.8a.589.589,0,0,1-.292-.078L31.446,127.8a.584.584,0,0,1,.584-1.011l2.023,1.168a.584.584,0,0,1-.292,1.089m82.568-1.122a.577.577,0,0,1-.292-.078l-2.023-1.168a.584.584,0,0,1,.584-1.011l2.023,1.168a.584.584,0,0,1-.292,1.089m-87.624-1.8a.589.589,0,0,1-.292-.078l-2.023-1.168a.584.584,0,0,1,.584-1.011L29,125.037a.584.584,0,0,1-.292,1.089M111.274,125a.577.577,0,0,1-.292-.078l-2.023-1.168a.584.584,0,0,1,.584-1.011l2.023,1.168a.584.584,0,0,1-.292,1.089m-87.6-1.841a.576.576,0,0,1-.328-.1,17.135,17.135,0,0,1-1.9-1.5.584.584,0,0,1,.789-.86,15.634,15.634,0,0,0,1.767,1.391.583.583,0,0,1-.329,1.066m82.542-1.078a.58.58,0,0,1-.292-.078L103.9,120.84a.584.584,0,1,1,.584-1.011L106.51,121a.584.584,0,0,1-.292,1.089m-5.056-2.919a.577.577,0,0,1-.292-.078l-2.022-1.168a.584.584,0,0,1,.584-1.011l2.022,1.168a.584.584,0,0,1-.292,1.089m-81.54-.138a.585.585,0,0,1-.5-.285,10.043,10.043,0,0,1-1-2.263.584.584,0,1,1,1.12-.333,8.844,8.844,0,0,0,.882,2,.583.583,0,0,1-.2.8.576.576,0,0,1-.3.082m76.484-2.781a.577.577,0,0,1-.292-.078L93.793,115a.584.584,0,1,1,.584-1.011l2.022,1.168a.584.584,0,0,1-.292,1.089m-77.736-2.813a.571.571,0,0,1-.063,0,.583.583,0,0,1-.517-.642,10.5,10.5,0,0,1,.558-2.4.584.584,0,0,1,1.1.392,9.345,9.345,0,0,0-.5,2.135.585.585,0,0,1-.58.521m72.68-.106a.577.577,0,0,1-.292-.078l-2.022-1.168a.584.584,0,0,1,.584-1.011l2.022,1.168a.584.584,0,0,1-.292,1.089M86,110.41a.577.577,0,0,1-.292-.078l-2.022-1.168a.584.584,0,0,1,.584-1.011l2.022,1.168A.584.584,0,0,1,86,110.41m-65.458-2.325a.583.583,0,0,1-.475-.922A17.429,17.429,0,0,1,21.6,105.3a.583.583,0,0,1,.846.8,16.26,16.26,0,0,0-1.436,1.735.58.58,0,0,1-.475.244m60.4-.594a.577.577,0,0,1-.292-.078l-2.022-1.168a.584.584,0,1,1,.584-1.011l2.022,1.168a.584.584,0,0,1-.292,1.089m-5.056-2.919a.577.577,0,0,1-.292-.078l-2.022-1.168a.584.584,0,0,1,.584-1.011l2.022,1.168a.584.584,0,0,1-.292,1.089m-51.243-.607a.583.583,0,0,1-.354-1.048c.615-.468,1.275-.925,1.96-1.357a.584.584,0,1,1,.622.988c-.656.414-1.288.851-1.876,1.3a.579.579,0,0,1-.353.119m46.187-2.312a.577.577,0,0,1-.292-.078l-2.023-1.168A.584.584,0,0,1,69.1,99.4l2.023,1.168a.584.584,0,0,1-.292,1.089m-41.184-.669a.584.584,0,0,1-.286-1.093c.682-.382,1.393-.748,2.112-1.089a.583.583,0,1,1,.5,1.054c-.695.33-1.381.684-2.039,1.053a.586.586,0,0,1-.287.075m36.1-2.189a.578.578,0,0,1-.251-.056c-.671-.32-1.379-.616-2.1-.884a.584.584,0,1,1,.4-1.1c.758.279,1.5.59,2.2.925a.583.583,0,0,1-.25,1.11m-30.793-.234a.583.583,0,0,1-.2-1.131c.736-.271,1.485-.521,2.243-.752a.583.583,0,1,1,.34,1.116q-1.105.338-2.182.731a.57.57,0,0,1-.2.036m5.6-1.631a.584.584,0,0,1-.126-1.154q1.152-.256,2.321-.453a.6.6,0,0,1,.673.478.584.584,0,0,1-.479.674c-.758.128-1.514.276-2.262.441a.6.6,0,0,1-.127.014m19.687-.051a.633.633,0,0,1-.138-.016c-.734-.179-1.485-.334-2.248-.466a.584.584,0,1,1,.2-1.15c.785.135,1.567.3,2.323.481a.584.584,0,0,1-.137,1.151m-13.924-.855a.584.584,0,0,1-.055-1.165q1.182-.112,2.358-.167a.584.584,0,0,1,.054,1.166c-.765.035-1.533.09-2.3.162a.485.485,0,0,1-.057,0m8.167-.062a.362.362,0,0,1-.05,0c-.759-.064-1.527-.107-2.3-.13a.585.585,0,0,1-.566-.6.61.61,0,0,1,.6-.566q1.193.035,2.363.134a.584.584,0,0,1-.048,1.165" transform="translate(2.98 15.861)" fill="#a8cff0"/>
        <path id="Trazado_36603" data-name="Trazado 36603" d="M69.471,210.184a.584.584,0,0,1-.318-1.074l1.963-1.266a.584.584,0,0,1,.634.981l-1.963,1.266a.581.581,0,0,1-.316.093m4.906-3.163a.584.584,0,0,1-.315-1.074l1.963-1.266a.583.583,0,1,1,.632.981l-1.963,1.266a.581.581,0,0,1-.316.093m4.907-3.163a.584.584,0,0,1-.316-1.074l1.961-1.266a.584.584,0,1,1,.634.981L79.6,203.765a.585.585,0,0,1-.318.093M84.19,200.7a.584.584,0,0,1-.316-1.074l1.961-1.266a.584.584,0,1,1,.634.981L84.508,200.6a.584.584,0,0,1-.318.093m4.906-3.163a.584.584,0,0,1-.315-1.074l1.964-1.266a.583.583,0,0,1,.632.981l-1.964,1.266a.571.571,0,0,1-.316.093m1.52-3.157a.584.584,0,0,1-.314-.092l-1.968-1.257a.584.584,0,0,1,.629-.983l1.969,1.257a.584.584,0,0,1-.315,1.075M85.7,191.23a.577.577,0,0,1-.314-.092l-1.967-1.257a.584.584,0,0,1,.629-.983l1.967,1.259a.583.583,0,0,1-.315,1.074m-4.919-3.144a.577.577,0,0,1-.314-.092L78.5,186.736a.584.584,0,0,1,.629-.983l1.967,1.257a.584.584,0,0,1-.315,1.075m-4.917-3.144a.588.588,0,0,1-.315-.092l-1.624-1.039,1.916-1.193a.584.584,0,0,1,.618.991l-.347.216.067.042a.584.584,0,0,1-.314,1.075m3.26-3.1a.583.583,0,0,1-.308-1.079l1.983-1.234a.584.584,0,1,1,.615.992l-1.982,1.233a.579.579,0,0,1-.307.088m4.956-3.085a.584.584,0,0,1-.308-1.08l1.983-1.234a.584.584,0,1,1,.616.992l-1.984,1.234a.59.59,0,0,1-.307.088m4.956-3.085a.584.584,0,0,1-.309-1.08l1.981-1.233a.584.584,0,1,1,.619.991l-1.983,1.234a.583.583,0,0,1-.308.088m4.955-3.085a.584.584,0,0,1-.308-1.08l1.982-1.234a.584.584,0,1,1,.616.992L94.3,172.5a.581.581,0,0,1-.308.089m4.956-3.085a.584.584,0,0,1-.309-1.08l1.984-1.234a.584.584,0,0,1,.618.991l-1.982,1.235a.587.587,0,0,1-.309.088" transform="translate(11.542 28)" fill="#a8cff0"/>
        <path id="Trazado_36604" data-name="Trazado 36604" d="M39.8,162.738a.583.583,0,0,1-.288-1.09l2.029-1.154a.584.584,0,0,1,.577,1.015l-2.029,1.154a.573.573,0,0,1-.288.076m5.074-2.885a.584.584,0,0,1-.288-1.092l2.029-1.154a.584.584,0,1,1,.578,1.015l-2.03,1.154a.575.575,0,0,1-.288.077m5.075-2.886a.584.584,0,0,1-.288-1.092l2.029-1.154a.584.584,0,1,1,.577,1.015l-2.029,1.155a.573.573,0,0,1-.288.076m5.074-2.885a.583.583,0,0,1-.288-1.091l2.03-1.155a.584.584,0,0,1,.577,1.015l-2.03,1.155a.585.585,0,0,1-.288.076M60.1,151.2a.584.584,0,0,1-.288-1.092l2.03-1.155a.584.584,0,0,1,.577,1.015l-2.03,1.155a.587.587,0,0,1-.288.077m5.075-2.886a.584.584,0,0,1-.288-1.092l2.029-1.154a.584.584,0,1,1,.577,1.015l-2.029,1.155a.586.586,0,0,1-.288.076" transform="translate(6.572 24.461)" fill="#a8cff0"/>
        <path id="Trazado_36605" data-name="Trazado 36605" d="M62.149,231.826c-.381,0-.758,0-1.136-.015a.583.583,0,0,1-.567-.6.6.6,0,0,1,.6-.567c.764.021,1.54.02,2.3,0h.016a.584.584,0,0,1,.016,1.168q-.611.018-1.233.018m-4.612-.258a.654.654,0,0,1-.068,0c-.8-.09-1.579-.2-2.346-.339a.583.583,0,1,1,.2-1.149q1.117.2,2.277.327a.584.584,0,0,1-.065,1.164m9.318-.009a.584.584,0,0,1-.065-1.164q1.159-.133,2.276-.333a.584.584,0,0,1,.205,1.149c-.767.138-1.548.251-2.347.344a.676.676,0,0,1-.069,0m-15.046-1.09a.563.563,0,0,1-.156-.022c-.773-.215-1.535-.457-2.266-.718a.583.583,0,0,1,.392-1.1c.706.251,1.442.486,2.186.692a.584.584,0,0,1-.155,1.147m20.773-.027a.584.584,0,0,1-.159-1.145c.743-.209,1.478-.445,2.185-.7a.585.585,0,1,1,.4,1.1c-.734.264-1.5.508-2.265.725a.616.616,0,0,1-.158.021m-26.217-2.056a.58.58,0,0,1-.265-.064,23.237,23.237,0,0,1-2.077-1.186.584.584,0,1,1,.629-.983,22.641,22.641,0,0,0,1.977,1.129.584.584,0,0,1-.264,1.1m31.657-.044a.585.585,0,0,1-.266-1.1,22.166,22.166,0,0,0,1.97-1.134.583.583,0,1,1,.636.977,22.948,22.948,0,0,1-2.075,1.2.583.583,0,0,1-.265.064m-36.441-3.264a.581.581,0,0,1-.405-.163,14.3,14.3,0,0,1-1.609-1.824.584.584,0,1,1,.942-.69,12.947,12.947,0,0,0,1.477,1.672.585.585,0,0,1-.405,1.005m41.205-.068a.583.583,0,0,1-.407-1,12.836,12.836,0,0,0,1.464-1.684.584.584,0,0,1,.947.684,14.084,14.084,0,0,1-1.6,1.835.582.582,0,0,1-.407.166m-44.322-4.786a.585.585,0,0,1-.56-.418,8.945,8.945,0,0,1-.372-2.458.583.583,0,0,1,.578-.588h.006a.583.583,0,0,1,.584.578,7.825,7.825,0,0,0,.325,2.138.581.581,0,0,1-.559.748m47.4-.092a.617.617,0,0,1-.159-.021.583.583,0,0,1-.4-.72,7.865,7.865,0,0,0,.3-2.142.584.584,0,1,1,1.168,0,9.059,9.059,0,0,1-.344,2.459.583.583,0,0,1-.562.425m-.055-4.786a.585.585,0,0,1-.558-.411,9.193,9.193,0,0,0-.9-2,.583.583,0,0,1,1-.6,10.366,10.366,0,0,1,1.012,2.249.583.583,0,0,1-.384.731.561.561,0,0,1-.173.027m-47.019-.824a.608.608,0,0,1-.224-.044.587.587,0,0,1-.315-.765,11.167,11.167,0,0,1,1.2-2.145.584.584,0,1,1,.953.675,9.948,9.948,0,0,0-1.073,1.919.586.586,0,0,1-.539.36m43.86-4a.585.585,0,0,1-.4-.16,16.561,16.561,0,0,0-1.741-1.431.584.584,0,1,1,.682-.949,18.1,18.1,0,0,1,1.861,1.533.583.583,0,0,1-.4,1.008M42.3,209.932a.584.584,0,0,1-.378-1.029,19.256,19.256,0,0,1,1.929-1.437.584.584,0,1,1,.641.976,18.071,18.071,0,0,0-1.813,1.351.583.583,0,0,1-.378.139m35.543-2.7a.566.566,0,0,1-.262-.062c-.661-.332-1.361-.647-2.084-.934a.585.585,0,1,1,.433-1.086c.752.3,1.484.629,2.175.977a.583.583,0,0,1-.263,1.1m-30.605-.382A.583.583,0,0,1,47,205.735c.705-.326,1.447-.63,2.2-.9a.583.583,0,1,1,.4,1.1c-.726.265-1.437.557-2.116.869a.561.561,0,0,1-.243.054M72.4,205.166a.59.59,0,0,1-.154-.021c-.724-.2-1.475-.378-2.232-.534a.584.584,0,1,1,.232-1.144c.786.161,1.562.347,2.309.551a.584.584,0,0,1-.155,1.148m-19.645-.223a.584.584,0,0,1-.14-1.15q1.133-.28,2.319-.5a.6.6,0,0,1,.68.472.585.585,0,0,1-.472.678c-.766.138-1.517.3-2.246.479a.58.58,0,0,1-.14.016m13.917-.864a.6.6,0,0,1-.064,0q-1.13-.124-2.294-.187a.583.583,0,1,1,.061-1.165c.8.041,1.588.106,2.361.191a.584.584,0,0,1-.063,1.164m-8.164-.086a.584.584,0,0,1-.05-1.165q1.166-.1,2.363-.141a.584.584,0,0,1,.037,1.168c-.775.023-1.544.07-2.3.137l-.053,0" transform="translate(6.289 33.961)" fill="#a8cff0"/>
        <path id="Trazado_36606" data-name="Trazado 36606" d="M99.971,257.179a.584.584,0,0,1-.318-1.074l1.963-1.266a.584.584,0,0,1,.634.981l-1.963,1.266a.574.574,0,0,1-.316.093m4.906-3.163a.584.584,0,0,1-.316-1.074l1.964-1.266a.583.583,0,0,1,.632.981l-1.964,1.266a.567.567,0,0,1-.315.093m4.907-3.163a.584.584,0,0,1-.318-1.074l1.963-1.266a.584.584,0,0,1,.634.981L110.1,250.76a.571.571,0,0,1-.316.093m4.906-3.163a.583.583,0,0,1-.316-1.074l1.961-1.266a.584.584,0,1,1,.634.981l-1.962,1.266a.575.575,0,0,1-.318.093m4.906-3.163a.583.583,0,0,1-.315-1.074l1.963-1.266a.583.583,0,1,1,.632.981l-1.963,1.266a.571.571,0,0,1-.316.093m1.565-3.222a.591.591,0,0,1-.334-.105l-1.917-1.336a.584.584,0,1,1,.669-.957l1.916,1.335a.584.584,0,0,1-.334,1.064m-4.79-3.338a.586.586,0,0,1-.335-.105l-1.915-1.333a.584.584,0,0,1,.668-.959L116.7,236.9a.584.584,0,0,1-.334,1.062m-4.79-3.337a.591.591,0,0,1-.334-.105l-1.916-1.335a.584.584,0,1,1,.669-.957l1.915,1.335a.584.584,0,0,1-.334,1.063m-4.79-3.337a.58.58,0,0,1-.334-.105l-1.354-.945,1.848-1.375a.584.584,0,0,1,.7.938l-.549.409.026.016a.584.584,0,0,1-.335,1.063m3.319-3.463a.585.585,0,0,1-.349-1.053l1.874-1.393a.584.584,0,0,1,.7.938l-1.874,1.393a.588.588,0,0,1-.349.116m40.665-2.757-2.095-1.21a.583.583,0,0,1,.584-1.01l1.487.857a.584.584,0,0,1,.551,1.026Zm-35.981-.727a.584.584,0,0,1-.349-1.052l1.874-1.4a.584.584,0,1,1,.7.938l-1.873,1.4a.589.589,0,0,1-.349.114m39.149-1.4a.584.584,0,0,1-.313-1.076l1.97-1.254a.584.584,0,1,1,.627.985l-1.97,1.254a.591.591,0,0,1-.314.091m-8-.758a.574.574,0,0,1-.292-.078l-2.022-1.169a.583.583,0,0,1,.584-1.01l2.022,1.169a.583.583,0,0,1-.292,1.088m-26.462-1.329a.584.584,0,0,1-.349-1.053L121,218.415a.584.584,0,1,1,.7.938l-1.874,1.394a.576.576,0,0,1-.348.116m39.391-1.048a.584.584,0,0,1-.314-1.076l1.971-1.253a.584.584,0,0,1,.627.985l-1.97,1.253a.583.583,0,0,1-.314.091m-17.985-.543a.577.577,0,0,1-.292-.078l-2.022-1.168a.583.583,0,0,1,.584-1.01l2.022,1.168a.584.584,0,0,1-.292,1.088m-16.723-1.894a.583.583,0,0,1-.348-1.052l1.873-1.394a.584.584,0,1,1,.7.936l-1.874,1.4a.586.586,0,0,1-.349.114m39.634-.7a.584.584,0,0,1-.314-1.076l1.97-1.253a.583.583,0,0,1,.627.984l-1.97,1.254a.59.59,0,0,1-.313.091m-27.965-.328a.577.577,0,0,1-.292-.078l-2.023-1.168a.583.583,0,0,1,.584-1.01l2.023,1.168a.584.584,0,0,1-.292,1.088m-6.984-2.459a.584.584,0,0,1-.349-1.052l1.5-1.115,1.071.616a.584.584,0,1,1-.584,1.012l-.4-.234-.883.656a.58.58,0,0,1-.349.116m39.873-.347a.584.584,0,0,1-.313-1.077l1.97-1.254a.584.584,0,0,1,.628.985l-1.971,1.254a.58.58,0,0,1-.314.091m4.926-3.134a.584.584,0,0,1-.313-1.076l1.969-1.255a.584.584,0,1,1,.627.985l-1.969,1.254a.582.582,0,0,1-.314.092m4.925-3.135a.584.584,0,0,1-.314-1.077l1.088-.692a.584.584,0,1,1,.627.985l-1.087.692a.58.58,0,0,1-.314.091" transform="translate(16.653 34.419)" fill="#a8cff0"/>
        <path id="Trazado_36607" data-name="Trazado 36607" d="M92.649,277.576c-.381,0-.758,0-1.136-.015a.584.584,0,0,1-.567-.6.605.605,0,0,1,.6-.567c.764.022,1.54.02,2.3,0h.016a.584.584,0,0,1,.016,1.168q-.611.018-1.233.018m-4.612-.258a.662.662,0,0,1-.068,0c-.8-.09-1.579-.2-2.346-.339a.583.583,0,1,1,.2-1.149q1.117.2,2.277.327a.584.584,0,0,1-.065,1.164m9.318-.009a.584.584,0,0,1-.065-1.164q1.159-.133,2.276-.333a.584.584,0,0,1,.205,1.149c-.767.138-1.548.251-2.347.344a.676.676,0,0,1-.069,0m-15.046-1.091a.563.563,0,0,1-.156-.022c-.773-.215-1.535-.457-2.266-.718a.583.583,0,0,1,.392-1.1c.706.251,1.442.486,2.186.692a.584.584,0,0,1-.155,1.147m20.773-.027a.584.584,0,0,1-.159-1.145c.743-.209,1.478-.445,2.185-.7a.585.585,0,1,1,.4,1.1c-.734.264-1.5.508-2.265.725a.616.616,0,0,1-.158.021m-26.217-2.056a.58.58,0,0,1-.265-.064,23.244,23.244,0,0,1-2.077-1.186.584.584,0,1,1,.629-.983,22.649,22.649,0,0,0,1.977,1.129.584.584,0,0,1-.264,1.1m31.657-.044a.585.585,0,0,1-.266-1.1,22.173,22.173,0,0,0,1.97-1.134.583.583,0,0,1,.636.977,22.955,22.955,0,0,1-2.075,1.2.583.583,0,0,1-.265.064m-36.441-3.264a.581.581,0,0,1-.405-.163,14.3,14.3,0,0,1-1.609-1.824.584.584,0,1,1,.942-.69,12.949,12.949,0,0,0,1.477,1.672.585.585,0,0,1-.405,1.005m41.205-.068a.583.583,0,0,1-.407-1,12.834,12.834,0,0,0,1.464-1.684.584.584,0,0,1,.947.684,14.082,14.082,0,0,1-1.6,1.835.582.582,0,0,1-.407.166m-44.322-4.786a.585.585,0,0,1-.56-.418,8.945,8.945,0,0,1-.372-2.458.583.583,0,0,1,.578-.588.629.629,0,0,1,.59.578,7.825,7.825,0,0,0,.325,2.138.581.581,0,0,1-.559.748m47.4-.092a.62.62,0,0,1-.159-.021.583.583,0,0,1-.4-.72,7.865,7.865,0,0,0,.3-2.142.584.584,0,0,1,1.168,0,9.059,9.059,0,0,1-.344,2.459.583.583,0,0,1-.562.425m-.055-4.786a.585.585,0,0,1-.558-.411,9.192,9.192,0,0,0-.9-2,.583.583,0,0,1,1-.6,10.367,10.367,0,0,1,1.012,2.249.583.583,0,0,1-.384.731.562.562,0,0,1-.173.027m-47.019-.824a.609.609,0,0,1-.224-.044.587.587,0,0,1-.315-.765,11.166,11.166,0,0,1,1.2-2.145.584.584,0,1,1,.953.675,9.948,9.948,0,0,0-1.073,1.919.586.586,0,0,1-.539.36m43.86-4a.585.585,0,0,1-.4-.16,16.558,16.558,0,0,0-1.741-1.431.584.584,0,1,1,.682-.949,18.1,18.1,0,0,1,1.861,1.533.583.583,0,0,1-.4,1.008M72.8,255.682a.584.584,0,0,1-.378-1.029,19.252,19.252,0,0,1,1.929-1.437.584.584,0,1,1,.641.976,18.067,18.067,0,0,0-1.813,1.351.583.583,0,0,1-.378.139m35.543-2.7a.566.566,0,0,1-.262-.062c-.661-.332-1.361-.647-2.084-.934a.585.585,0,1,1,.433-1.086c.752.3,1.484.629,2.175.977a.583.583,0,0,1-.263,1.1M77.743,252.6a.583.583,0,0,1-.244-1.114c.705-.326,1.447-.63,2.2-.9a.583.583,0,1,1,.4,1.1c-.726.265-1.437.557-2.116.869a.56.56,0,0,1-.243.054m25.154-1.682a.59.59,0,0,1-.154-.021c-.724-.2-1.475-.378-2.232-.534a.584.584,0,1,1,.232-1.144c.786.161,1.562.347,2.309.551a.584.584,0,0,1-.155,1.148m-19.645-.223a.584.584,0,0,1-.14-1.15q1.133-.28,2.319-.5a.592.592,0,0,1,.68.472.585.585,0,0,1-.472.678c-.766.138-1.517.3-2.246.479a.58.58,0,0,1-.14.016m13.917-.864a.6.6,0,0,1-.064,0q-1.13-.124-2.294-.187a.583.583,0,0,1,.061-1.165c.8.041,1.588.106,2.361.191a.584.584,0,0,1-.063,1.164M89,249.743a.584.584,0,0,1-.05-1.165q1.166-.1,2.363-.141a.591.591,0,0,1,.6.565.584.584,0,0,1-.565.6c-.775.023-1.544.07-2.3.137l-.053,0" transform="translate(11.399 41.627)" fill="#a8cff0"/>
        <path id="Trazado_36608" data-name="Trazado 36608" d="M30.149,186.66c-.381,0-.758,0-1.135-.015a.584.584,0,0,1-.567-.6.6.6,0,0,1,.6-.567c.761.021,1.538.02,2.3,0h.016a.584.584,0,0,1,.016,1.168q-.613.018-1.234.018m-4.611-.258a.635.635,0,0,1-.067,0q-1.2-.135-2.347-.339a.582.582,0,0,1-.473-.676.576.576,0,0,1,.676-.473q1.116.2,2.276.327a.584.584,0,0,1-.065,1.164m9.318-.011a.584.584,0,0,1-.065-1.164q1.159-.133,2.276-.333a.584.584,0,1,1,.205,1.149c-.767.138-1.549.251-2.347.344a.681.681,0,0,1-.069,0M19.81,185.3a.565.565,0,0,1-.158-.022c-.769-.214-1.532-.455-2.266-.718a.583.583,0,1,1,.393-1.1c.708.252,1.443.486,2.186.692a.584.584,0,0,1-.155,1.147m20.774-.026a.584.584,0,0,1-.159-1.145c.743-.21,1.477-.445,2.183-.7a.585.585,0,1,1,.4,1.1c-.733.263-1.494.507-2.264.725a.616.616,0,0,1-.158.021m-26.22-2.056a.588.588,0,0,1-.264-.063,23.81,23.81,0,0,1-2.078-1.187.584.584,0,0,1,.63-.983,22.7,22.7,0,0,0,1.976,1.128.584.584,0,0,1-.264,1.106m31.657-.047a.584.584,0,0,1-.266-1.1,22.158,22.158,0,0,0,1.97-1.134.583.583,0,1,1,.636.977,23.107,23.107,0,0,1-2.075,1.2.583.583,0,0,1-.265.064M9.581,179.91a.575.575,0,0,1-.4-.163,14.147,14.147,0,0,1-1.609-1.824.583.583,0,1,1,.941-.69,13.137,13.137,0,0,0,1.476,1.672.584.584,0,0,1-.4,1.005m41.205-.069a.583.583,0,0,1-.407-1,12.835,12.835,0,0,0,1.464-1.684.584.584,0,0,1,.947.684,14.007,14.007,0,0,1-1.6,1.835.577.577,0,0,1-.406.166M6.464,175.057a.585.585,0,0,1-.56-.418,9.028,9.028,0,0,1-.374-2.457.583.583,0,0,1,.577-.59.609.609,0,0,1,.591.577,7.859,7.859,0,0,0,.326,2.139.581.581,0,0,1-.559.748m47.4-.093a.618.618,0,0,1-.159-.021.583.583,0,0,1-.4-.72,7.865,7.865,0,0,0,.3-2.142.584.584,0,1,1,1.168,0,9.059,9.059,0,0,1-.344,2.459.583.583,0,0,1-.562.425m-.056-4.787a.585.585,0,0,1-.558-.412,9.191,9.191,0,0,0-.9-1.994.583.583,0,0,1,1-.6,10.3,10.3,0,0,1,1.012,2.25.582.582,0,0,1-.385.73.549.549,0,0,1-.172.027M6.79,169.355a.585.585,0,0,1-.539-.809,11.111,11.111,0,0,1,1.2-2.145.583.583,0,1,1,.952.675,10.088,10.088,0,0,0-1.074,1.919.583.583,0,0,1-.538.36m43.857-4.006a.585.585,0,0,1-.4-.16,16.559,16.559,0,0,0-1.741-1.431.584.584,0,0,1,.682-.949,18.1,18.1,0,0,1,1.861,1.533.583.583,0,0,1-.4,1.008M10.3,164.765a.584.584,0,0,1-.378-1.029,19.448,19.448,0,0,1,1.929-1.438.584.584,0,0,1,.641.976,18.533,18.533,0,0,0-1.813,1.352.581.581,0,0,1-.378.139m35.544-2.7a.566.566,0,0,1-.262-.062c-.661-.332-1.361-.647-2.084-.934a.585.585,0,1,1,.433-1.086c.752.3,1.484.629,2.175.977a.583.583,0,0,1-.263,1.1m-30.606-.378A.584.584,0,0,1,15,160.57c.706-.326,1.448-.63,2.2-.9a.583.583,0,1,1,.4,1.1c-.726.265-1.437.557-2.114.869a.569.569,0,0,1-.244.054M40.4,160a.59.59,0,0,1-.154-.021c-.724-.2-1.475-.378-2.232-.534a.584.584,0,1,1,.232-1.144c.786.161,1.562.347,2.309.551A.584.584,0,0,1,40.4,160m-19.646-.222a.584.584,0,0,1-.14-1.15q1.133-.28,2.321-.5a.584.584,0,0,1,.207,1.15c-.767.138-1.517.3-2.248.479a.581.581,0,0,1-.14.016m13.917-.864a.592.592,0,0,1-.064,0q-1.13-.124-2.294-.187a.582.582,0,0,1-.552-.613.57.57,0,0,1,.613-.552c.8.041,1.588.106,2.361.191a.584.584,0,0,1-.063,1.164m-8.162-.086a.584.584,0,0,1-.05-1.165q1.165-.1,2.362-.141a.584.584,0,0,1,.037,1.168c-.775.023-1.544.07-2.3.137l-.051,0" transform="translate(0.927 26.393)" fill="#a8cff0"/>
        <path id="Trazado_36609" data-name="Trazado 36609" d="M178.3,242.988a.583.583,0,0,1-.288-1.091l2.029-1.154a.584.584,0,0,1,.577,1.015l-2.029,1.154a.573.573,0,0,1-.288.076m5.074-2.885a.584.584,0,0,1-.288-1.092l2.029-1.154a.584.584,0,0,1,.578,1.015l-2.03,1.154a.575.575,0,0,1-.288.077m5.075-2.886a.584.584,0,0,1-.288-1.092l2.029-1.154a.584.584,0,1,1,.577,1.015l-2.029,1.155a.574.574,0,0,1-.288.076m5.074-2.885a.583.583,0,0,1-.288-1.091l2.03-1.155a.584.584,0,0,1,.577,1.015l-2.03,1.155a.586.586,0,0,1-.288.076m5.074-2.885a.584.584,0,0,1-.288-1.092l2.03-1.155a.584.584,0,0,1,.577,1.015l-2.03,1.155a.587.587,0,0,1-.288.077m5.075-2.886a.584.584,0,0,1-.288-1.092l2.029-1.154A.584.584,0,1,1,206,227.33l-2.029,1.155a.586.586,0,0,1-.288.076" transform="translate(29.778 37.907)" fill="#a8cff0"/>
        <path id="Trazado_36610" data-name="Trazado 36610" d="M168.649,266.91c-.381,0-.758,0-1.135-.015a.584.584,0,0,1,.033-1.168c.76.022,1.538.02,2.3,0h.016a.584.584,0,0,1,.016,1.168q-.613.017-1.233.017m-4.611-.258a.654.654,0,0,1-.068,0q-1.193-.135-2.347-.339a.583.583,0,1,1,.2-1.149q1.117.2,2.277.327a.584.584,0,0,1-.065,1.164m9.318-.011a.584.584,0,0,1-.065-1.164q1.159-.133,2.276-.333a.584.584,0,0,1,.205,1.149c-.767.138-1.549.251-2.347.344a.676.676,0,0,1-.069,0m-15.046-1.089a.562.562,0,0,1-.156-.022c-.773-.215-1.535-.457-2.266-.718a.583.583,0,0,1,.392-1.1c.706.251,1.442.486,2.186.692a.584.584,0,0,1-.155,1.147m20.774-.026a.584.584,0,0,1-.159-1.145c.743-.21,1.477-.445,2.183-.7a.585.585,0,0,1,.4,1.1c-.733.263-1.494.507-2.264.725a.616.616,0,0,1-.158.021m-26.219-2.057a.58.58,0,0,1-.265-.064,23.541,23.541,0,0,1-2.077-1.186.584.584,0,1,1,.629-.983,22.64,22.64,0,0,0,1.977,1.129.584.584,0,0,1-.264,1.1m31.656-.046a.584.584,0,0,1-.266-1.1,22.157,22.157,0,0,0,1.97-1.134.583.583,0,0,1,.636.977,23.11,23.11,0,0,1-2.075,1.2.583.583,0,0,1-.265.064m-36.439-3.263a.581.581,0,0,1-.405-.163,14.3,14.3,0,0,1-1.609-1.824.584.584,0,1,1,.942-.69,12.946,12.946,0,0,0,1.477,1.672.585.585,0,0,1-.405,1.005m41.2-.069a.583.583,0,0,1-.407-1,12.834,12.834,0,0,0,1.464-1.684.584.584,0,0,1,.947.684,14,14,0,0,1-1.6,1.835.577.577,0,0,1-.406.166m-44.323-4.785a.584.584,0,0,1-.56-.418,8.945,8.945,0,0,1-.372-2.458.583.583,0,0,1,.578-.588h.006a.584.584,0,0,1,.584.578,7.825,7.825,0,0,0,.325,2.138.581.581,0,0,1-.559.748m47.4-.093a.618.618,0,0,1-.159-.021.583.583,0,0,1-.4-.72,7.865,7.865,0,0,0,.3-2.142.584.584,0,0,1,1.168,0,9.059,9.059,0,0,1-.344,2.459.583.583,0,0,1-.562.425m-.055-4.787a.585.585,0,0,1-.558-.412,9.247,9.247,0,0,0-.9-1.994.583.583,0,0,1,1-.6,10.3,10.3,0,0,1,1.012,2.25.582.582,0,0,1-.385.73.548.548,0,0,1-.172.027m-47.019-.821a.586.586,0,0,1-.539-.809,11.169,11.169,0,0,1,1.2-2.145.584.584,0,1,1,.953.675,9.946,9.946,0,0,0-1.073,1.919.586.586,0,0,1-.539.36m43.857-4.007a.585.585,0,0,1-.4-.16A16.557,16.557,0,0,0,187,244.007a.584.584,0,0,1,.682-.949,18.1,18.1,0,0,1,1.861,1.533.583.583,0,0,1-.4,1.008m-40.344-.585a.584.584,0,0,1-.378-1.029,19.438,19.438,0,0,1,1.929-1.438.584.584,0,1,1,.641.976,18.072,18.072,0,0,0-1.813,1.352.581.581,0,0,1-.378.139m35.544-2.7a.566.566,0,0,1-.262-.062c-.661-.332-1.361-.647-2.084-.934a.585.585,0,1,1,.433-1.086c.752.3,1.484.629,2.175.977a.583.583,0,0,1-.263,1.1m-30.605-.378a.583.583,0,0,1-.244-1.114c.705-.326,1.447-.63,2.2-.9a.583.583,0,1,1,.4,1.1c-.726.265-1.437.557-2.116.869a.56.56,0,0,1-.243.054m25.154-1.686a.589.589,0,0,1-.154-.021c-.724-.2-1.475-.378-2.232-.534a.584.584,0,1,1,.232-1.144c.786.161,1.562.347,2.309.551a.584.584,0,0,1-.155,1.148m-19.645-.222a.584.584,0,0,1-.14-1.15q1.133-.28,2.319-.5a.594.594,0,0,1,.68.472.585.585,0,0,1-.472.678c-.766.138-1.517.3-2.246.479a.582.582,0,0,1-.14.016m13.916-.864a.6.6,0,0,1-.064,0q-1.13-.124-2.294-.187a.582.582,0,0,1-.552-.613.57.57,0,0,1,.613-.552c.8.041,1.588.106,2.361.191a.584.584,0,0,1-.063,1.164M165,239.076a.584.584,0,0,1-.05-1.165q1.166-.1,2.363-.141a.6.6,0,0,1,.6.565.584.584,0,0,1-.565.6c-.775.023-1.544.07-2.3.137l-.053,0" transform="translate(24.133 39.84)" fill="#a8cff0"/>
        <g id="Grupo_17637" data-name="Grupo 17637" transform="translate(100.883 132.867)" opacity="0.2">
          <g id="Grupo_17636" data-name="Grupo 17636">
            <g id="Grupo_17635" data-name="Grupo 17635" clip-path="url(#clip-path-3)">
              <path id="Trazado_36611" data-name="Trazado 36611" d="M251.446,171.84l-17.209,35.27.376.217,58.377-11.5,33.382,18.691-64.921,39.191L238.026,240.2l59.035-34.084L217.63,228.428l-17.548-9.569,38.079-45.245-58.223,33.615-21.275-12.284,64.92-39.191Z" transform="translate(-74.298 -106.769)" fill="#92b4d1"/>
              <path id="Trazado_36612" data-name="Trazado 36612" d="M107.679,165,142,145.182l14.622,8.443q6.65,3.839,6.673,7.812t-6.464,7.719l-20.974,12.11L157,193.474l21.1-12.182q8.233-4.753,10.081-10.057t-4.193-11.53a62.883,62.883,0,0,0,19.246,1.605c5.856-.508-14.746,11.115-10.048,8.4q12.659-7.308,10.669-16.883t-17.869-18.743L150.847,113.8,86.4,152.714Z" transform="translate(-86.405 -113.799)" fill="#92b4d1"/>
            </g>
          </g>
        </g>
        <g id="Grupo_17640" data-name="Grupo 17640" transform="translate(28.579 91.722)" opacity="0.2">
          <g id="Grupo_17639" data-name="Grupo 17639">
            <g id="Grupo_17638" data-name="Grupo 17638" clip-path="url(#clip-path-4)">
              <path id="Trazado_36613" data-name="Trazado 36613" d="M62.484,124.43c-15.16-8.752-16.186-21.252-2.294-27.92s37.442-4.977,52.6,3.775c11.353,6.556,14.778,15.212,9.945,21.947l27.692-.321a18.414,18.414,0,0,0-.834-10.154l-11.343-1.817a22.411,22.411,0,0,0-1.292-2.291l8.486-3.229a46.352,46.352,0,0,0-10.293-9.479l-10.53,1.347c-.509-.314-1.019-.628-1.553-.935s-1.079-.6-1.626-.9l3.52-5.4a100.266,100.266,0,0,0-16.983-6.269l-6.892,4.151q-2.093-.49-4.214-.889l-2.391-6.112a120.713,120.713,0,0,0-19.133-1.374L73.943,84.4q-2.079.1-4.117.291L62.168,79.5a77.473,77.473,0,0,0-16.151,3.89l4.454,5.967c-.506.22-1.008.441-1.5.676s-.954.478-1.415.723L36.68,87.873a29.362,29.362,0,0,0-8.849,8.106l9.12,4.493a15.633,15.633,0,0,0-.928,2.132l-11.177.2a18.393,18.393,0,0,0,.835,10.154l11.34,1.817a22.878,22.878,0,0,0,1.294,2.291L29.829,120.3a46.324,46.324,0,0,0,10.293,9.479l10.53-1.347c.509.314,1.02.627,1.553.935s1.079.6,1.626.9l-3.52,5.4a100.466,100.466,0,0,0,16.983,6.269l6.891-4.151q2.093.49,4.215.89l2.392,6.111a120.554,120.554,0,0,0,19.13,1.374L103.5,131.6c-13.261,2.028-29.539-.546-41.012-7.17" transform="translate(-24.477 -78.559)" fill="#92b4d1"/>
            </g>
          </g>
        </g>
        <path id="Trazado_36614" data-name="Trazado 36614" d="M95.056,105.671c-4.138,9.182-14.048,11.611-25.622,4.929-15.293-8.829-27.69-30.213-27.69-47.761s5.907-21.119,21.2-12.29c7.114,4.107,2.012,12.076,6.914,19.966C72.849,75.328,83.4,82.638,94.929,81.13L107.3,68.791A115.073,115.073,0,0,0,97.232,51.419l-6.926,1.656q-1.356-1.767-2.779-3.449l.8-9.247A86.932,86.932,0,0,0,74.573,28.209l-7.1,3.895-3.185-9.83a40.658,40.658,0,0,0-13.757-3.718l-6.779,3.721-2.121-2.957a22.738,22.738,0,0,0-5.373,2.19l-.234.095L17.2,31.8l5.528-2.167s6.166,11.175,5.667,11.978L19.929,35.8a39.847,39.847,0,0,0-3.682,13.662l7.734,8.523c-.022.6-.041,1.2-.041,1.816s.019,1.24.041,1.863l-7.734-.407a85.845,85.845,0,0,0,3.682,17.914l5.144,13.184a115.017,115.017,0,0,0,10.071,17.372l8.9,11.042A86.939,86.939,0,0,0,57.8,132.94l3.537-6.834c.532.333,1.066.662,1.6.973s1.071.6,1.6.879l3.537,10.917a40.732,40.732,0,0,0,13.758,3.717l-.8-10.175a22.391,22.391,0,0,0,2.779-.242l4.132,5.758-3.572,3.423-1.059,5.29L102.5,136.215l-.007-.015a22.513,22.513,0,0,0,4.808-3.611Z" transform="translate(2.722 3.109)" fill="#d1ebff"/>
        <path id="Trazado_36615" data-name="Trazado 36615" d="M67.44,84.235,86.35,73.921,98.726,61.582,79.815,71.9Z" transform="translate(11.3 10.318)" fill="#72b5e8"/>
        <path id="Trazado_36616" data-name="Trazado 36616" d="M70.407,57.017,89.318,46.7l-6.926,1.654L63.48,58.672Z" transform="translate(10.637 7.825)" fill="#a8cff0"/>
        <path id="Trazado_36617" data-name="Trazado 36617" d="M61.1,56.808l18.91-10.314.8-9.247L61.9,47.561Z" transform="translate(10.238 6.241)" fill="#72b5e8"/>
        <path id="Trazado_36618" data-name="Trazado 36618" d="M60.112,21.74,41.2,32.054l3.535,10.917,5.834-3.2.94-1.828,11.793-6.392Z" transform="translate(6.904 3.643)" fill="#72b5e8"/>
        <path id="Trazado_36619" data-name="Trazado 36619" d="M8.763,40.145l12.42-6.817,8.464,5.809-12.42,6.819Z" transform="translate(1.468 5.584)" fill="#72b5e8"/>
        <path id="Trazado_36620" data-name="Trazado 36620" d="M5.608,61.949,18.03,55.131l7.733.406-12.42,6.819Z" transform="translate(0.94 9.238)" fill="#72b5e8"/>
        <path id="Trazado_36621" data-name="Trazado 36621" d="M41.2,124.323l12.42-6.817,3.537-6.834-12.422,6.817Z" transform="translate(6.904 18.544)" fill="#3f92d1"/>
        <path id="Trazado_36622" data-name="Trazado 36622" d="M61.905,133.069l12.42-6.817-.8-10.175L61.1,122.895Z" transform="translate(10.238 19.449)" fill="#3f92d1"/>
        <path id="Trazado_36623" data-name="Trazado 36623" d="M79.8,130.4l18.911-10.314L86.46,93.168,67.549,103.483Z" transform="translate(11.318 15.611)" fill="#72b5e8"/>
        <path id="Trazado_36624" data-name="Trazado 36624" d="M69.413,55.537,79.484,72.909,98.4,62.594l-18.651,9.3Z" transform="translate(11.631 9.306)" fill="#f0f8ff"/>
        <path id="Trazado_36625" data-name="Trazado 36625" d="M50.006,35.658,63.764,47.827l18.91-10.314L64.024,46.762Z" transform="translate(8.379 5.975)" fill="#f0f8ff"/>
        <path id="Trazado_36626" data-name="Trazado 36626" d="M29.418,28.338l13.758,3.718L62.086,21.74,43.1,31.215Z" transform="translate(4.929 3.643)" fill="#f0f8ff"/>
        <path id="Trazado_36627" data-name="Trazado 36627" d="M52.8,118.918c-15.293-8.829-27.689-30.212-27.689-47.76S37.508,46.541,52.8,55.37c11.455,6.613,21.282,20.268,25.5,34.077L90.671,77.109A115.032,115.032,0,0,0,80.6,59.737l-6.927,1.656q-1.354-1.767-2.778-3.449l.8-9.247A86.467,86.467,0,0,0,57.583,36.9L54.4,43.36c-.532-.333-1.066-.662-1.6-.973s-1.071-.6-1.6-.879L47.662,30.593a40.794,40.794,0,0,0-14.088-3.175l1.133,9.632a22.152,22.152,0,0,0-2.778.242L25,27.639a22.464,22.464,0,0,0-10.071,5.742l4.927,10.794a21.49,21.49,0,0,0-1.608,2.259l-8.9-5.3C7.461,44.97,6.632,49.029,6.1,54.286l7.734,8.523c-.022.6-.041,1.2-.041,1.817s.019,1.239.041,1.862L5.7,66.6c.528,5.867,2.2,11.379,4.088,17.391l8.462,3.965q.748,2.067,1.609,4.116l-4.927,5.1A114.861,114.861,0,0,0,25,114.55l6.927-1.654q1.352,1.767,2.778,3.449l-.8,9.247c4.29,4.642,8.325,9.121,13.172,12.524l4.123-7.187c.532.332,1.066.662,1.6.973s1.072.6,1.6.879L57.94,143.7c4.848,2.193,9.072,3.962,13.362,4.272l-.406-10.73A22.392,22.392,0,0,0,73.673,137l6.927,9.652a22.431,22.431,0,0,0,10.071-5.742L78.015,114.4c-4.138,9.182-13.639,11.2-25.215,4.517" transform="translate(0.955 4.594)" fill="#f0f8ff"/>
        <path id="Trazado_36628" data-name="Trazado 36628" d="M52.305,119.434C37.013,110.6,24.617,89.222,24.617,71.674s12.4-24.617,27.689-15.788C63.759,62.5,73.588,76.154,77.8,89.964L90.175,77.625A114.934,114.934,0,0,0,80.1,60.253l-6.927,1.656Q71.825,60.141,70.4,58.46l.806-9.247A86.886,86.886,0,0,0,57.444,37.044l-3.535,6.831c-.532-.333-1.066-.662-1.6-.973s-1.072-.6-1.6-.879L47.166,31.108a40.707,40.707,0,0,0-13.76-3.716l.806,10.174a22.132,22.132,0,0,0-2.778.242l-6.927-9.653A22.461,22.461,0,0,0,14.435,33.9l4.928,10.794a21.49,21.49,0,0,0-1.608,2.259L9.291,41.14A39.835,39.835,0,0,0,5.609,54.8l7.734,8.523c-.022.6-.041,1.2-.041,1.817s.019,1.239.041,1.862L5.609,66.6A85.76,85.76,0,0,0,9.291,84.51l8.461,3.965q.75,2.067,1.61,4.116l-4.928,5.1a114.769,114.769,0,0,0,10.073,17.372l6.927-1.654q1.352,1.767,2.778,3.449l-.806,9.247a86.9,86.9,0,0,0,13.76,12.169l3.535-6.833c.532.332,1.066.662,1.6.973s1.071.6,1.6.879l3.535,10.915A40.71,40.71,0,0,0,71.2,147.929L70.4,137.754a22.356,22.356,0,0,0,2.778-.242l6.927,9.652a22.425,22.425,0,0,0,10.071-5.742L77.927,114.5c-4.139,9.182-14.048,11.611-25.622,4.929" transform="translate(0.94 4.59)" fill="#a8cff0"/>
        <path id="Trazado_36629" data-name="Trazado 36629" d="M31.5,38.936l-2.778.243-6.927-9.655L40.707,19.211l2.121,2.957L30.7,28.762Z" transform="translate(3.652 3.219)" fill="#72b5e8"/>
        <path id="Trazado_36630" data-name="Trazado 36630" d="M165.977,87.134a.584.584,0,0,1-.476-.246q-.669-.946-1.367-1.872a.584.584,0,1,1,.933-.7q.708.94,1.387,1.9a.584.584,0,0,1-.476.921M162.428,82.5a.587.587,0,0,1-.451-.211q-.736-.891-1.5-1.762a.584.584,0,0,1,.876-.772q.779.884,1.528,1.79a.585.585,0,0,1-.079.822.578.578,0,0,1-.371.133m-3.889-4.351a.58.58,0,0,1-.42-.18q-.8-.832-1.631-1.645a.584.584,0,1,1,.816-.835q.844.827,1.656,1.672a.583.583,0,0,1-.015.825.59.59,0,0,1-.405.162m-4.2-4.057a.579.579,0,0,1-.39-.149q-.86-.772-1.747-1.526a.584.584,0,1,1,.758-.89q.9.764,1.769,1.548a.583.583,0,0,1-.39,1.017m-4.473-3.749a.577.577,0,0,1-.36-.124q-.911-.711-1.847-1.4a.584.584,0,1,1,.694-.939q.949.7,1.873,1.422a.584.584,0,0,1-.36,1.044M145.148,66.9a.583.583,0,0,1-.328-.1q-.956-.652-1.936-1.282a.584.584,0,1,1,.634-.982q.99.639,1.958,1.3a.584.584,0,0,1-.328,1.067m-4.928-3.133a.583.583,0,0,1-.3-.082q-.5-.3-1.008-.588l-1.009-.583a.584.584,0,0,1,.584-1.012l1.009.583q.513.3,1.018.6a.584.584,0,0,1-.3,1.086m-5.054-2.927a.587.587,0,0,1-.292-.077L132.851,59.6a.584.584,0,0,1,.584-1.012l2.022,1.168a.584.584,0,0,1-.292,1.089m-5.056-2.919a.587.587,0,0,1-.292-.077L127.8,56.678a.584.584,0,0,1,.584-1.012l2.022,1.168a.584.584,0,0,1-.292,1.089M125.054,55a.577.577,0,0,1-.292-.078l-2.022-1.168a.584.584,0,1,1,.584-1.011l2.022,1.168A.584.584,0,0,1,125.054,55M120,52.085a.577.577,0,0,1-.292-.078l-2.022-1.168a.584.584,0,0,1,.584-1.011L120.291,51A.584.584,0,0,1,120,52.085m-5.056-2.919a.577.577,0,0,1-.292-.078l-2.022-1.168a.584.584,0,1,1,.584-1.011l2.022,1.168a.584.584,0,0,1-.292,1.089" transform="translate(18.823 7.847)" fill="#a8cff0"/>
        <path id="Trazado_36631" data-name="Trazado 36631" d="M173.148,91.9a.582.582,0,0,1-.525-.33,68.484,68.484,0,0,0-4.906-8.517,82.278,82.278,0,0,0-27.542-25.176.584.584,0,0,1,.584-1.011A83.433,83.433,0,0,1,168.685,82.4a69.425,69.425,0,0,1,4.988,8.662.584.584,0,0,1-.272.78.6.6,0,0,1-.253.057" transform="translate(23.438 9.515)" fill="#0fbab8"/>
        <path id="Trazado_36632" data-name="Trazado 36632" d="M172.866,150.228a44.914,44.914,0,0,0-9.828-13.921l5.287-2.991a10.239,10.239,0,0,0,3.479-2.224q3.715-3.659,3.715-11.756,0-14.547-9.241-28.267a74.421,74.421,0,0,0-25.043-22.842L106.265,48.036l-19.5,10.59,34.969,20.191a74.409,74.409,0,0,1,25.043,22.842q9.242,13.718,9.241,28.267,0,8.1-3.715,11.757t-10.96,3.13a46.949,46.949,0,0,1,12.022,16,44.656,44.656,0,0,1,3.652,17.91v24.807l19.5-10.589V168.138a44.652,44.652,0,0,0-3.652-17.91" transform="translate(14.538 8.049)" fill="#72b5e8"/>
        <path id="Trazado_36633" data-name="Trazado 36633" d="M146.933,161.492V186.3l19.5-10.589V150.9Z" transform="translate(24.619 25.285)" fill="#3f92d1"/>
        <path id="Trazado_36634" data-name="Trazado 36634" d="M104.894,164.137l19.134-10.612V114.041l-19.134,10.1Z" transform="translate(17.576 19.108)" fill="#3f92d1"/>
        <path id="Trazado_36635" data-name="Trazado 36635" d="M107.922,173.559l.95-39.892,14.551,8.4a26.76,26.76,0,0,1,10.054,9.746,26.178,26.178,0,0,1,3.435,13.378v24.665L157,201.727l.954-24.529a44.66,44.66,0,0,0-3.652-17.91,46.945,46.945,0,0,0-12.021-16q7.242.529,10.959-3.13t3.715-11.757q0-14.547-9.241-28.267a74.409,74.409,0,0,0-25.043-22.842L86.949,57.168,87.7,161.445Z" transform="translate(14.569 9.579)" fill="#f0f8ff"/>
        <g id="Grupo_17643" data-name="Grupo 17643" transform="translate(101.299 56.085)" opacity="0.5">
          <g id="Grupo_17642" data-name="Grupo 17642">
            <g id="Grupo_17641" data-name="Grupo 17641" clip-path="url(#clip-path-5)">
              <path id="Trazado_36636" data-name="Trazado 36636" d="M141.234,68.226,106.265,48.037l-19.5,10.59,34.969,20.189Z" transform="translate(-86.762 -48.036)" fill="#a8cff0"/>
            </g>
          </g>
        </g>
        <path id="Trazado_36637" data-name="Trazado 36637" d="M107.932,173.677v-40l14.551,8.4a26.75,26.75,0,0,1,10.051,9.744,26.179,26.179,0,0,1,3.437,13.378v24.665l21.043,12.148V177.208a44.65,44.65,0,0,0-3.652-17.909,46.912,46.912,0,0,0-12.022-16q7.245.527,10.96-3.131t3.716-11.757q0-14.547-9.241-28.265A74.439,74.439,0,0,0,121.731,77.3L86.762,57.107V161.455Z" transform="translate(14.538 9.569)" fill="#a8cff0"/>
        <path id="Trazado_36638" data-name="Trazado 36638" d="M136.421,102.416V123.5L104,105.162V84.1Z" transform="translate(17.425 14.091)" fill="#2672ab"/>
        <path id="Trazado_36639" data-name="Trazado 36639" d="M136.925,124.364l-33.307-18.835V83.45l33.307,18.818ZM104.5,105.014l31.543,17.837V102.782L104.5,84.963Z" transform="translate(17.362 13.983)" fill="#3f92d1"/>
        <path id="Trazado_36640" data-name="Trazado 36640" d="M93.954,99.266v17.409l34.735-19.569-15.446-8.712Z" transform="translate(15.743 14.811)" fill="#3f92d1"/>
        <path id="Trazado_36641" data-name="Trazado 36641" d="M92.441,98.39l1.791,1.027L113.5,88.545l-1.84-1.054Z" transform="translate(15.489 14.66)" fill="#a8cff0"/>
        <path id="Trazado_36642" data-name="Trazado 36642" d="M118.491,94.026v1.928l-12.942-7.472a.687.687,0,0,0-1.03.6v20.366L129.214,123.8a1.812,1.812,0,0,0,1.865-.027l.527-.327a1.653,1.653,0,0,0,.782-1.4v-20.1a1.866,1.866,0,0,0-.933-1.616L119.52,93.432a.686.686,0,0,0-1.029.594" transform="translate(17.513 14.81)" fill="#d62d69"/>
        <path id="Trazado_36643" data-name="Trazado 36643" d="M105.247,88.717l12.944,7.472v-.4l-12.66-7.309a.683.683,0,0,0-.907.21.672.672,0,0,1,.623.026" transform="translate(17.53 14.81)" fill="#f76195"/>
        <path id="Trazado_36644" data-name="Trazado 36644" d="M129.432,99.611,117.5,92.721a.684.684,0,0,0-.907.209.671.671,0,0,1,.625.027l11.934,6.89a1.868,1.868,0,0,1,.934,1.617v20.1a1.653,1.653,0,0,1-.452,1.135,1.649,1.649,0,0,0,.736-1.371v-20.1a1.869,1.869,0,0,0-.934-1.617" transform="translate(19.535 15.521)" fill="#f76195"/>
        <path id="Trazado_36645" data-name="Trazado 36645" d="M103.431,107.145,131.3,123.234v-17.7l-27.867-16.09Z" transform="translate(17.33 14.986)" fill="#fff"/>
        <path id="Trazado_36646" data-name="Trazado 36646" d="M103.789,108.332l25.795,14.892a1.79,1.79,0,0,0,1.745.026l.168-.09-.175.067a.643.643,0,0,1-.873-.6V108.362a1.868,1.868,0,0,0-.933-1.617L103.611,91.788a.685.685,0,0,0-1.029.593V106.24a2.415,2.415,0,0,0,1.207,2.091" transform="translate(17.188 15.364)" fill="#d62d69"/>
        <path id="Trazado_36647" data-name="Trazado 36647" d="M131.3,123.226a.644.644,0,0,1-.873-.6V108.362a1.87,1.87,0,0,0-.933-1.618L103.586,91.787a.683.683,0,0,0-.856.144.67.67,0,0,1,.608.034l25.9,14.956a1.867,1.867,0,0,1,.934,1.617V122.8a.645.645,0,0,0,.555.637,1.784,1.784,0,0,0,.573-.19l.168-.091Z" transform="translate(17.213 15.364)" fill="#f76195"/>
        <path id="Trazado_36648" data-name="Trazado 36648" d="M113.758,96.853v1.928l-12.942-7.472a.686.686,0,0,0-1.029.594v20.367l24.694,14.354a1.812,1.812,0,0,0,1.865-.027l.528-.327a1.652,1.652,0,0,0,.781-1.4v-20.1a1.867,1.867,0,0,0-.933-1.617l-11.934-6.89a.686.686,0,0,0-1.03.594" transform="translate(16.72 15.284)" fill="#0ba19f"/>
        <path id="Trazado_36649" data-name="Trazado 36649" d="M100.516,91.545l12.942,7.472v-.4L100.8,91.309a.683.683,0,0,0-.907.21.671.671,0,0,1,.625.026" transform="translate(16.737 15.284)" fill="#3ecfcd"/>
        <path id="Trazado_36650" data-name="Trazado 36650" d="M124.7,102.439l-11.934-6.89a.683.683,0,0,0-.907.21.672.672,0,0,1,.623.026l11.935,6.89a1.868,1.868,0,0,1,.934,1.617v20.1a1.653,1.653,0,0,1-.452,1.135,1.651,1.651,0,0,0,.734-1.37v-20.1a1.868,1.868,0,0,0-.934-1.617" transform="translate(18.742 15.994)" fill="#3ecfcd"/>
        <path id="Trazado_36651" data-name="Trazado 36651" d="M98.7,109.973l27.868,16.089v-17.7L98.7,92.268Z" transform="translate(16.537 15.46)" fill="#fff"/>
        <path id="Trazado_36652" data-name="Trazado 36652" d="M99.056,111.16l25.8,14.892a1.79,1.79,0,0,0,1.745.026l.167-.09-.175.067a.643.643,0,0,1-.872-.6V111.189a1.865,1.865,0,0,0-.934-1.616l-25.9-14.956a.686.686,0,0,0-1.03.593v13.859a2.415,2.415,0,0,0,1.207,2.091" transform="translate(16.395 15.838)" fill="#0ba19f"/>
        <path id="Trazado_36653" data-name="Trazado 36653" d="M126.565,126.054a.643.643,0,0,1-.872-.6V111.189a1.868,1.868,0,0,0-.934-1.617l-25.9-14.956a.683.683,0,0,0-.856.144.67.67,0,0,1,.608.034l25.9,14.956a1.869,1.869,0,0,1,.934,1.617V125.63a.644.644,0,0,0,.555.637,1.8,1.8,0,0,0,.573-.19l.167-.091Z" transform="translate(16.42 15.838)" fill="#3ecfcd"/>
        <path id="Trazado_36654" data-name="Trazado 36654" d="M115.607,116.225v13.092l18.377-10.427V105.8Z" transform="translate(19.371 17.727)" fill="#3f92d1"/>
        <path id="Trazado_36655" data-name="Trazado 36655" d="M107.053,120.194l1.792,1.027,26.574-15.114,0-2.156Z" transform="translate(17.937 17.418)" fill="#a8cff0"/>
        <path id="Trazado_36656" data-name="Trazado 36656" d="M118.511,110.149v22.056l2-1.142V109.007Z" transform="translate(19.857 18.265)" fill="#2672ab"/>
        <path id="Trazado_36657" data-name="Trazado 36657" d="M123.752,113.027v22.056l-36.4-21.218V91.832Z" transform="translate(14.637 15.387)" fill="#3f92d1"/>
        <path id="Trazado_36658" data-name="Trazado 36658" d="M88.362,112.9V93.585l34.044,19.826v19.33Z" transform="translate(14.806 15.681)" fill="#72b5e8"/>
        <path id="Trazado_36659" data-name="Trazado 36659" d="M87.355,92l36.4,21.195,1.98-1.142L89.3,90.834Z" transform="translate(14.637 15.22)" fill="#72b5e8"/>
        <path id="Trazado_36660" data-name="Trazado 36660" d="M87.355,91.832l36.4,21.195,1.98-1.142-2.146.406Z" transform="translate(14.637 15.387)" fill="#d1ebff"/>
        <path id="Trazado_36661" data-name="Trazado 36661" d="M105.672,107.22a1.118,1.118,0,0,1-.469,1.017l-.892.507c-.367.205-.584-.008-1.184-.354a4.154,4.154,0,0,1-2-3.159c0-.543-.148-.719.2-.878.027-.012.961-.537.988-.546a1.691,1.691,0,0,1,1.354.255,4.157,4.157,0,0,1,2,3.159" transform="translate(16.939 17.384)" fill="#2672ab"/>
        <path id="Trazado_36662" data-name="Trazado 36662" d="M105.521,107.951a1.344,1.344,0,0,1-.563,1.22l-1.069.607c-.44.246-.7-.009-1.419-.424a4.981,4.981,0,0,1-2.4-3.789c0-.651-.179-.863.243-1.052.03-.015,1.15-.646,1.185-.657a2.027,2.027,0,0,1,1.623.306,4.984,4.984,0,0,1,2.4,3.789" transform="translate(16.761 17.391)" fill="#3f92d1"/>
        <path id="Trazado_36663" data-name="Trazado 36663" d="M104.534,108.459c0,1.326-1.075,1.781-2.4,1.016a4.984,4.984,0,0,1-2.4-3.789c0-1.328,1.075-1.782,2.4-1.016a4.982,4.982,0,0,1,2.4,3.789" transform="translate(16.711 17.476)" fill="#a8cff0"/>
        <path id="Trazado_36664" data-name="Trazado 36664" d="M103.974,108.068c0,1.048-.851,1.408-1.9.8a3.935,3.935,0,0,1-1.9-2.994c0-1.048.85-1.408,1.9-.8a3.938,3.938,0,0,1,1.9,2.994" transform="translate(16.785 17.557)" fill="#2672ab"/>
        <path id="Trazado_36665" data-name="Trazado 36665" d="M100.771,104.847a1.062,1.062,0,0,0-.412.926,3.937,3.937,0,0,0,1.9,2.995,1.567,1.567,0,0,0,1.285.227.032.032,0,0,1,.015,0,1.4,1.4,0,0,1-1.483-.138,3.937,3.937,0,0,1-1.9-2.994.989.989,0,0,1,.594-1.018" transform="translate(16.785 17.568)" fill="#084c94"/>
        <path id="Trazado_36666" data-name="Trazado 36666" d="M209.827,228.765l18.849-10.217,32.869-67.811L242.7,160.954Z" transform="translate(35.158 25.257)" fill="#3f92d1"/>
        <path id="Trazado_36667" data-name="Trazado 36667" d="M177.207,149.3v59.378l18.849-10.217V139.08Z" transform="translate(29.692 23.304)" fill="#3f92d1"/>
        <path id="Trazado_36668" data-name="Trazado 36668" d="M182.822,114.034l21.812,81.215,18.848-10.216-21.811-81.216Z" transform="translate(30.633 17.395)" fill="#72b5e8"/>
        <path id="Trazado_36669" data-name="Trazado 36669" d="M246.742,151V255.336l18.939-10.406V140.6Z" transform="translate(41.343 23.558)" fill="#3f92d1"/>
        <path id="Trazado_36670" data-name="Trazado 36670" d="M248.2,148.568l-19.513,39.81v53.21l21.17,12.222V149.475Z" transform="translate(38.318 24.894)" fill="#72b5e8"/>
        <g id="Grupo_17646" data-name="Grupo 17646" transform="translate(277.855 158.212)" opacity="0.2">
          <g id="Grupo_17645" data-name="Grupo 17645">
            <g id="Grupo_17644" data-name="Grupo 17644" clip-path="url(#clip-path-6)">
              <path id="Trazado_36671" data-name="Trazado 36671" d="M237.98,163.506v4.783l10.108,7.005,19.076-10.249V135.508Z" transform="translate(-237.98 -135.507)" fill="#084c94"/>
            </g>
          </g>
        </g>
        <path id="Trazado_36672" data-name="Trazado 36672" d="M266.452,198a.583.583,0,0,1-.584-.584v-2.335a.584.584,0,0,1,1.168,0v2.335a.583.583,0,0,1-.584.584m0-5.838a.583.583,0,0,1-.584-.584v-2.335a.584.584,0,0,1,1.168,0v2.335a.583.583,0,0,1-.584.584m0-5.838a.583.583,0,0,1-.584-.584v-2.335a.584.584,0,0,1,1.168,0v2.335a.583.583,0,0,1-.584.584m4.151-.076a.586.586,0,0,1-.341-.11l-1.9-1.364a.584.584,0,1,1,.682-.948l1.9,1.364a.584.584,0,0,1-.341,1.058m1.751-.085a.584.584,0,0,1-.584-.584v-2.335a.584.584,0,1,1,1.168,0v2.335a.584.584,0,0,1-.584.584m0-5.838a.584.584,0,0,1-.584-.584v-2.335a.584.584,0,1,1,1.168,0v2.335a.584.584,0,0,1-.584.584m0-5.838a.584.584,0,0,1-.584-.584v-2.335a.584.584,0,0,1,1.168,0V173.9a.584.584,0,0,1-.584.584m0-5.838a.584.584,0,0,1-.584-.584v-2.335a.584.584,0,1,1,1.168,0v2.335a.584.584,0,0,1-.584.584m0-5.838a.584.584,0,0,1-.584-.584v-2.335a.584.584,0,0,1,1.168,0v2.335a.584.584,0,0,1-.584.584m0-5.838a.584.584,0,0,1-.584-.584v-2.335a.584.584,0,0,1,1.168,0v2.335a.584.584,0,0,1-.584.584m0-5.838a.584.584,0,0,1-.584-.584v-2.335a.584.584,0,1,1,1.168,0v2.335a.584.584,0,0,1-.584.584m0-5.838a.583.583,0,0,1-.584-.584V142.38a.584.584,0,0,1,1.168,0v2.335a.583.583,0,0,1-.584.584m0-5.838a.583.583,0,0,1-.584-.584v-2.335a.584.584,0,1,1,1.168,0v2.335a.583.583,0,0,1-.584.584m0-5.838a.583.583,0,0,1-.584-.584V130.7a.584.584,0,1,1,1.168,0v2.335a.583.583,0,0,1-.584.584m0-5.838a.584.584,0,0,1-.584-.584v-2.335a.584.584,0,1,1,1.168,0V127.2a.584.584,0,0,1-.584.584m0-5.838a.584.584,0,0,1-.584-.584v-2.335a.584.584,0,1,1,1.168,0v2.335a.584.584,0,0,1-.584.584m0-5.838a.584.584,0,0,1-.584-.584v-2.335a.584.584,0,1,1,1.168,0v2.335a.584.584,0,0,1-.584.584m0-5.838a.584.584,0,0,1-.584-.584v-2.335a.584.584,0,1,1,1.168,0v2.335a.584.584,0,0,1-.584.584m0-5.838a.584.584,0,0,1-.584-.584v-2.335a.584.584,0,1,1,1.168,0v2.335a.584.584,0,0,1-.584.584m0-5.838a.584.584,0,0,1-.584-.584V95.677a.584.584,0,1,1,1.168,0v2.335a.584.584,0,0,1-.584.584m0-5.838a.584.584,0,0,1-.584-.584V89.84a.584.584,0,1,1,1.168,0v2.335a.584.584,0,0,1-.584.584m0-5.838a.584.584,0,0,1-.584-.584V84a.584.584,0,1,1,1.168,0v2.335a.584.584,0,0,1-.584.584" transform="translate(44.548 13.977)" fill="#a8cff0"/>
        <path id="Trazado_36673" data-name="Trazado 36673" d="M264.138,103.049l-47.32,41.864,11.551,8.309L208.613,196.08,186.8,114.865,159.075,98.856V203.19l21.17,12.224v-59.38l20.045,70.952,18.042,10.471L251.2,169.648l12.938,9.305Z" transform="translate(26.654 16.564)" fill="#a8cff0"/>
        <path id="Trazado_36674" data-name="Trazado 36674" d="M203.6,222.737l-19.531-69.131a4.67,4.67,0,0,0-9.164,1.27v51.29l-11.832-6.831V105.785l19.049,11,21.31,79.349a4.671,4.671,0,0,0,4.116,3.442c.133.012.265.018.4.018a4.673,4.673,0,0,0,4.241-2.715l19.755-42.859a4.671,4.671,0,0,0-1.513-5.747l-6.806-4.9,35.176-31.12v56.426l-5.54-3.986a4.669,4.669,0,0,0-6.929,1.754l-30.675,63.283Z" transform="translate(27.324 17.725)" fill="#72b5e8"/>
        <path id="Trazado_36675" data-name="Trazado 36675" d="M164.971,198.021V106.88l-1.9-1.1v93.55l11.832,6.831v-2.41Z" transform="translate(27.324 17.725)" fill="#3f92d1"/>
        <path id="Trazado_36676" data-name="Trazado 36676" d="M205.238,195.947a4.673,4.673,0,0,1-.705,1.093,4.663,4.663,0,0,0,2.6-2.406l19.756-42.859a4.67,4.67,0,0,0-1.514-5.747l-6.8-4.894,33.279-29.443v-.364l-35.176,31.121,6.8,4.894a4.67,4.67,0,0,1,1.514,5.747Z" transform="translate(34.271 18.653)" fill="#3f92d1"/>
        <path id="Trazado_36677" data-name="Trazado 36677" d="M242.839,155.242a4.634,4.634,0,0,0-6.258.759,4.51,4.51,0,0,1,.488-.182,4.672,4.672,0,0,1,3.873.737l5.54,3.986v-2.68Z" transform="translate(39.641 25.865)" fill="#3f92d1"/>
        <path id="Trazado_36678" data-name="Trazado 36678" d="M203.364,215.237l-19.531-69.131a4.667,4.667,0,0,0-8.03-1.776,4.573,4.573,0,0,1,1-.266,4.668,4.668,0,0,1,5.135,3.356l19.531,69.131,12.053,6.995.913-1.884Z" transform="translate(29.457 23.911)" fill="#3f92d1"/>
        <path id="Trazado_36679" data-name="Trazado 36679" d="M249.061,103.913,267.91,93.7v75.9l-18.849,10.216Z" transform="translate(41.732 15.7)" fill="#72b5e8"/>
        <path id="Trazado_36680" data-name="Trazado 36680" d="M249.061,102.544l1.227-.674-1.227,76.578Z" transform="translate(41.732 17.069)" fill="#f0f8ff"/>
        <path id="Trazado_36681" data-name="Trazado 36681" d="M177.922,90.106l27.728,16.008L186.8,116.331l-27.727-16.01Z" transform="translate(26.654 15.098)" fill="#d1ebff"/>
        <path id="Trazado_36682" data-name="Trazado 36682" d="M186.585,113.523l19.065-8.876L186.8,114.864,159.075,98.856Z" transform="translate(26.654 16.564)" fill="#f0f8ff"/>
        <path id="Trazado_36683" data-name="Trazado 36683" d="M38.7,149.74a4.442,4.442,0,0,1-1.56-2.988c-.027-.627.878-1.126,1.964-1.128a19.11,19.11,0,0,0,4.238-.462,3.9,3.9,0,0,0,2.731-.05c.716-.412.946-.968.608-1.335,2.843-1.809,4.178-3.973.114-6.319s-7.812-1.576-10.944.065a3.2,3.2,0,0,0-2.314.351.944.944,0,0,0-.086,1.576,4.307,4.307,0,0,0-.8,2.447c0,.627-.869,1.15-1.953,1.134a16.335,16.335,0,0,1-5.176-.9,8.679,8.679,0,0,0-6.724.45L15.644,144.4a.677.677,0,0,0,.007,1.282l16.9,9.756a2.455,2.455,0,0,0,2.222,0l3.155-1.823c1.82-1.05,2.077-2.662.778-3.882" transform="translate(2.545 22.784)" fill="#d1ebff"/>
        <path id="Trazado_36684" data-name="Trazado 36684" d="M73.547,169.721a4.437,4.437,0,0,1-1.56-2.989c-.027-.626.877-1.126,1.964-1.127a19.118,19.118,0,0,0,4.238-.464,3.906,3.906,0,0,0,2.73-.049c.716-.413.947-.968.609-1.336,2.843-1.809,4.176-3.972.113-6.319s-7.812-1.575-10.942.065a3.205,3.205,0,0,0-2.314.353.943.943,0,0,0-.086,1.575,4.309,4.309,0,0,0-.8,2.448c0,.626-.867,1.15-1.952,1.133a16.36,16.36,0,0,1-5.176-.9,8.677,8.677,0,0,0-6.725.45l-3.155,1.821a.677.677,0,0,0,.007,1.282l16.9,9.756a2.458,2.458,0,0,0,2.222,0l3.155-1.823c1.82-1.05,2.077-2.663.778-3.882" transform="translate(8.383 26.132)" fill="#d1ebff"/>
        <path id="Trazado_36685" data-name="Trazado 36685" d="M108.39,189.7a4.431,4.431,0,0,1-1.559-2.988c-.028-.627.877-1.126,1.963-1.127a19.19,19.19,0,0,0,4.239-.464,3.9,3.9,0,0,0,2.73-.05c.716-.412.946-.967.608-1.335,2.843-1.809,4.178-3.973.114-6.319s-7.812-1.576-10.944.065a3.2,3.2,0,0,0-2.314.351.944.944,0,0,0-.086,1.576,4.307,4.307,0,0,0-.8,2.447c0,.627-.867,1.15-1.953,1.134a16.353,16.353,0,0,1-5.175-.9,8.677,8.677,0,0,0-6.725.448l-3.155,1.823a.676.676,0,0,0,.007,1.281l16.9,9.757a2.458,2.458,0,0,0,2.222,0l3.155-1.821c1.82-1.051,2.076-2.663.776-3.883" transform="translate(14.221 29.48)" fill="#d1ebff"/>
        <path id="Trazado_36686" data-name="Trazado 36686" d="M143.233,209.681a4.437,4.437,0,0,1-1.56-2.988c-.027-.627.878-1.126,1.964-1.128a19.187,19.187,0,0,0,4.238-.462,3.9,3.9,0,0,0,2.73-.05c.717-.412.947-.968.609-1.336,2.843-1.807,4.176-3.972.113-6.319s-7.811-1.575-10.942.067a3.2,3.2,0,0,0-2.314.351.944.944,0,0,0-.086,1.576,4.309,4.309,0,0,0-.8,2.447c0,.627-.867,1.15-1.952,1.134a16.334,16.334,0,0,1-5.176-.9,8.677,8.677,0,0,0-6.725.45l-3.155,1.821a.677.677,0,0,0,.007,1.282l16.9,9.756a2.458,2.458,0,0,0,2.222,0l3.155-1.823c1.82-1.05,2.077-2.663.778-3.882" transform="translate(20.06 32.828)" fill="#d1ebff"/>
        <path id="Trazado_36687" data-name="Trazado 36687" d="M178.077,229.661a4.437,4.437,0,0,1-1.56-2.989c-.027-.627.877-1.126,1.964-1.127a19.119,19.119,0,0,0,4.238-.464,3.9,3.9,0,0,0,2.73-.05c.716-.412.947-.967.609-1.335,2.843-1.809,4.176-3.972.113-6.319s-7.812-1.575-10.944.065a3.2,3.2,0,0,0-2.313.351.944.944,0,0,0-.086,1.576,4.308,4.308,0,0,0-.8,2.447c0,.627-.868,1.15-1.952,1.134a16.356,16.356,0,0,1-5.176-.9,8.682,8.682,0,0,0-6.725.448l-3.155,1.823a.676.676,0,0,0,.007,1.282l16.9,9.756a2.455,2.455,0,0,0,2.222,0l3.155-1.821c1.82-1.051,2.076-2.663.778-3.882" transform="translate(25.898 36.175)" fill="#d1ebff"/>
        <path id="Trazado_36688" data-name="Trazado 36688" d="M212.92,249.641a4.44,4.44,0,0,1-1.56-2.988c-.027-.627.878-1.126,1.964-1.127a19.18,19.18,0,0,0,4.238-.464,3.9,3.9,0,0,0,2.731-.05c.716-.412.946-.968.608-1.335,2.843-1.809,4.178-3.973.114-6.319s-7.812-1.576-10.944.065a3.2,3.2,0,0,0-2.314.351.944.944,0,0,0-.086,1.576,4.307,4.307,0,0,0-.8,2.447c0,.627-.869,1.15-1.953,1.134a16.334,16.334,0,0,1-5.176-.9,8.682,8.682,0,0,0-6.725.45l-3.155,1.823a.676.676,0,0,0,.008,1.281l16.9,9.757a2.458,2.458,0,0,0,2.222,0l3.155-1.821c1.82-1.051,2.077-2.663.778-3.883" transform="translate(31.736 39.523)" fill="#d1ebff"/>
        <path id="Trazado_36689" data-name="Trazado 36689" d="M34.44,175.934a4.432,4.432,0,0,1-1.56-2.988c-.028-.627.876-1.126,1.963-1.127a19.206,19.206,0,0,0,4.239-.464,3.9,3.9,0,0,0,2.729-.05c.717-.412.947-.968.609-1.335,2.843-1.809,4.178-3.973.113-6.319s-7.812-1.576-10.942.065a3.2,3.2,0,0,0-2.314.351.944.944,0,0,0-.086,1.576,4.317,4.317,0,0,0-.8,2.447c0,.627-.867,1.15-1.951,1.134a16.323,16.323,0,0,1-5.176-.9,8.686,8.686,0,0,0-6.726.449L11.381,170.6a.677.677,0,0,0,.007,1.282l16.9,9.756a2.455,2.455,0,0,0,2.222,0l3.155-1.821c1.82-1.051,2.076-2.663.778-3.883" transform="translate(1.831 27.173)" fill="#d1ebff"/>
        <path id="Trazado_36690" data-name="Trazado 36690" d="M69.282,195.914a4.435,4.435,0,0,1-1.559-2.989c-.028-.626.877-1.126,1.963-1.127a19.19,19.19,0,0,0,4.239-.462,3.9,3.9,0,0,0,2.73-.05c.716-.412.946-.968.609-1.336,2.842-1.809,4.176-3.972.113-6.319s-7.812-1.575-10.944.067a3.2,3.2,0,0,0-2.314.351.944.944,0,0,0-.086,1.576,4.3,4.3,0,0,0-.8,2.447c0,.626-.867,1.15-1.953,1.134a16.387,16.387,0,0,1-5.175-.9,8.677,8.677,0,0,0-6.725.45l-3.155,1.821a.676.676,0,0,0,.007,1.282l16.9,9.756a2.461,2.461,0,0,0,2.223,0l3.155-1.823c1.82-1.05,2.076-2.663.776-3.882" transform="translate(7.669 30.521)" fill="#d1ebff"/>
        <path id="Trazado_36691" data-name="Trazado 36691" d="M104.126,215.894a4.437,4.437,0,0,1-1.56-2.989c-.027-.627.878-1.126,1.964-1.127a19.188,19.188,0,0,0,4.238-.464,3.9,3.9,0,0,0,2.73-.05c.717-.412.947-.967.609-1.335,2.843-1.809,4.176-3.972.113-6.319s-7.811-1.576-10.942.065a3.2,3.2,0,0,0-2.314.351.944.944,0,0,0-.086,1.576,4.309,4.309,0,0,0-.8,2.447c0,.627-.867,1.15-1.952,1.134a16.366,16.366,0,0,1-5.176-.9,8.682,8.682,0,0,0-6.725.448l-3.155,1.823a.676.676,0,0,0,.007,1.281l16.9,9.757a2.458,2.458,0,0,0,2.222,0l3.155-1.821c1.82-1.051,2.077-2.663.778-3.882" transform="translate(13.507 33.869)" fill="#d1ebff"/>
        <path id="Trazado_36692" data-name="Trazado 36692" d="M138.97,235.874a4.437,4.437,0,0,1-1.56-2.988c-.027-.627.877-1.125,1.964-1.128a19.116,19.116,0,0,0,4.238-.462,3.9,3.9,0,0,0,2.73-.05c.716-.412.947-.968.609-1.335,2.843-1.809,4.176-3.973.113-6.32s-7.812-1.575-10.944.067a3.2,3.2,0,0,0-2.313.351.944.944,0,0,0-.086,1.576,4.309,4.309,0,0,0-.8,2.447c0,.627-.867,1.15-1.952,1.134a16.323,16.323,0,0,1-5.176-.9,8.677,8.677,0,0,0-6.725.449l-3.155,1.821a.676.676,0,0,0,.007,1.282l16.9,9.756a2.458,2.458,0,0,0,2.222,0l3.155-1.823c1.82-1.05,2.076-2.662.778-3.882" transform="translate(19.345 37.217)" fill="#d1ebff"/>
        <path id="Trazado_36693" data-name="Trazado 36693" d="M173.813,255.854a4.432,4.432,0,0,1-1.56-2.989c-.028-.626.877-1.126,1.963-1.127a19.111,19.111,0,0,0,4.238-.464,3.909,3.909,0,0,0,2.731-.049c.716-.413.947-.968.608-1.336,2.843-1.809,4.178-3.972.114-6.319s-7.812-1.575-10.944.065a3.193,3.193,0,0,0-2.314.353.943.943,0,0,0-.086,1.575,4.307,4.307,0,0,0-.8,2.448c0,.626-.869,1.15-1.953,1.134a16.4,16.4,0,0,1-5.176-.9,8.677,8.677,0,0,0-6.725.449l-3.155,1.821a.677.677,0,0,0,.008,1.282l16.9,9.756a2.458,2.458,0,0,0,2.222,0l3.155-1.823c1.82-1.05,2.077-2.663.779-3.882" transform="translate(25.183 40.564)" fill="#d1ebff"/>
        <path id="Trazado_36694" data-name="Trazado 36694" d="M31.516,200.787a4.437,4.437,0,0,1-1.56-2.988c-.027-.627.877-1.126,1.964-1.128a19.188,19.188,0,0,0,4.238-.462,3.9,3.9,0,0,0,2.73-.05c.716-.412.947-.968.609-1.336,2.843-1.807,4.176-3.972.113-6.319s-7.812-1.575-10.942.067a3.2,3.2,0,0,0-2.314.351.944.944,0,0,0-.086,1.576,4.309,4.309,0,0,0-.8,2.447c0,.627-.867,1.15-1.953,1.134a16.333,16.333,0,0,1-5.175-.9,8.677,8.677,0,0,0-6.725.45l-3.155,1.821a.677.677,0,0,0,.007,1.282l16.9,9.756a2.458,2.458,0,0,0,2.222,0l3.155-1.823c1.82-1.05,2.077-2.663.778-3.882" transform="translate(1.341 31.337)" fill="#d1ebff"/>
        <path id="Trazado_36695" data-name="Trazado 36695" d="M66.358,220.768a4.435,4.435,0,0,1-1.559-2.989c-.028-.627.877-1.126,1.963-1.127A19.173,19.173,0,0,0,71,216.189a3.9,3.9,0,0,0,2.731-.05c.716-.412.946-.967.608-1.335,2.843-1.809,4.178-3.972.114-6.319s-7.812-1.575-10.944.065a3.2,3.2,0,0,0-2.314.351.944.944,0,0,0-.086,1.576,4.307,4.307,0,0,0-.8,2.447c0,.627-.869,1.15-1.953,1.134a16.367,16.367,0,0,1-5.176-.9,8.682,8.682,0,0,0-6.725.448L43.3,215.43a.676.676,0,0,0,.007,1.282l16.9,9.756a2.461,2.461,0,0,0,2.223,0l3.154-1.821c1.821-1.05,2.077-2.663.778-3.882" transform="translate(7.179 34.685)" fill="#d1ebff"/>
        <path id="Trazado_36696" data-name="Trazado 36696" d="M101.2,240.747a4.437,4.437,0,0,1-1.56-2.988c-.027-.627.878-1.126,1.964-1.127a19.188,19.188,0,0,0,4.238-.464,3.9,3.9,0,0,0,2.73-.05c.716-.412.947-.968.609-1.335,2.843-1.809,4.176-3.973.113-6.319s-7.811-1.576-10.942.065a3.2,3.2,0,0,0-2.314.351.944.944,0,0,0-.086,1.576,4.309,4.309,0,0,0-.8,2.447c0,.627-.867,1.15-1.952,1.134a16.333,16.333,0,0,1-5.176-.9,8.682,8.682,0,0,0-6.725.45l-3.155,1.823a.676.676,0,0,0,.007,1.281l16.9,9.757a2.458,2.458,0,0,0,2.222,0l3.155-1.821c1.82-1.051,2.077-2.663.778-3.883" transform="translate(13.017 38.033)" fill="#d1ebff"/>
        <path id="Trazado_36697" data-name="Trazado 36697" d="M136.045,260.727a4.435,4.435,0,0,1-1.559-2.989c-.027-.626.877-1.126,1.964-1.127a19.185,19.185,0,0,0,4.238-.462,3.9,3.9,0,0,0,2.73-.05c.716-.412.947-.968.609-1.336,2.842-1.809,4.176-3.972.113-6.319s-7.812-1.575-10.943.067a3.2,3.2,0,0,0-2.313.351.943.943,0,0,0-.086,1.576,4.294,4.294,0,0,0-.8,2.447c0,.626-.867,1.15-1.953,1.134a16.322,16.322,0,0,1-5.175-.9,8.677,8.677,0,0,0-6.725.449l-3.155,1.821a.676.676,0,0,0,.007,1.282l16.9,9.756a2.458,2.458,0,0,0,2.222,0l3.155-1.823c1.82-1.05,2.076-2.663.776-3.882" transform="translate(18.855 41.381)" fill="#d1ebff"/>
        <path id="Trazado_36698" data-name="Trazado 36698" d="M27.251,226.98a4.442,4.442,0,0,1-1.56-2.988c-.027-.627.878-1.126,1.963-1.128a19.181,19.181,0,0,0,4.239-.462,3.9,3.9,0,0,0,2.731-.05c.715-.412.946-.968.607-1.335,2.844-1.809,4.179-3.973.114-6.32s-7.811-1.575-10.944.067a3.2,3.2,0,0,0-2.313.351A.944.944,0,0,0,22,216.691a4.309,4.309,0,0,0-.8,2.447c0,.627-.867,1.15-1.952,1.134a16.335,16.335,0,0,1-5.176-.9,8.677,8.677,0,0,0-6.725.45l-3.155,1.821a.677.677,0,0,0,.007,1.282l16.9,9.756a2.458,2.458,0,0,0,2.222,0l3.155-1.823c1.82-1.05,2.077-2.663.778-3.882" transform="translate(0.626 35.726)" fill="#d1ebff"/>
        <path id="Trazado_36699" data-name="Trazado 36699" d="M62.095,246.961a4.437,4.437,0,0,1-1.56-2.989c-.027-.626.878-1.126,1.964-1.127a19.117,19.117,0,0,0,4.238-.464,3.905,3.905,0,0,0,2.73-.049c.716-.413.947-.968.609-1.336,2.843-1.809,4.176-3.972.113-6.319s-7.811-1.575-10.942.065a3.2,3.2,0,0,0-2.314.351.944.944,0,0,0-.086,1.576,4.309,4.309,0,0,0-.8,2.447c0,.627-.867,1.15-1.952,1.134a16.366,16.366,0,0,1-5.176-.9,8.682,8.682,0,0,0-6.725.448l-3.155,1.823a.677.677,0,0,0,.007,1.282l16.9,9.756a2.458,2.458,0,0,0,2.222,0l3.155-1.823c1.82-1.05,2.077-2.663.778-3.882" transform="translate(6.464 39.074)" fill="#d1ebff"/>
        <path id="Trazado_36700" data-name="Trazado 36700" d="M96.938,266.94a4.432,4.432,0,0,1-1.56-2.988c-.027-.627.877-1.126,1.963-1.127a19.193,19.193,0,0,0,4.239-.464,3.9,3.9,0,0,0,2.73-.05c.716-.412.947-.967.609-1.335,2.842-1.809,4.176-3.973.113-6.319s-7.812-1.576-10.944.065a3.2,3.2,0,0,0-2.313.351.943.943,0,0,0-.086,1.576,4.3,4.3,0,0,0-.8,2.447c0,.627-.867,1.15-1.953,1.134a16.322,16.322,0,0,1-5.175-.9,8.682,8.682,0,0,0-6.725.45L73.88,261.6a.676.676,0,0,0,.007,1.281l16.9,9.757a2.458,2.458,0,0,0,2.222,0l3.155-1.821c1.82-1.051,2.076-2.663.778-3.883" transform="translate(12.302 42.422)" fill="#d1ebff"/>
        <path id="Trazado_36701" data-name="Trazado 36701" d="M49.337,60.018c-5.029-2.9-9.607-3.342-13.043-1.713L33.529,59.87v.014c3.428-1.594,7.983-1.142,12.98,1.743C57.177,67.787,65.824,82.7,65.824,94.942c0,5.942-2.037,10.16-5.354,12.224l1.854-1.082c3.887-1.81,6.327-6.25,6.327-12.752,0-12.241-8.647-27.156-19.314-33.314" transform="translate(5.618 9.612)" fill="#001a46"/>
      </g>
    </g>
    <g id="Grupo_17650" data-name="Grupo 17650" transform="translate(32.813 68.588)">
      <g id="Grupo_17649" data-name="Grupo 17649" clip-path="url(#clip-path-7)">
        <path id="Trazado_36702" data-name="Trazado 36702" d="M28.1,39.642l38.629,22.3v75.44L28.1,115.081Z" transform="translate(-28.104 -61.946)" fill="url(#linear-gradient)"/>
      </g>
    </g>
    <g id="Grupo_17664" data-name="Grupo 17664">
      <g id="Grupo_17663" data-name="Grupo 17663" clip-path="url(#clip-path)">
        <path id="Trazado_36704" data-name="Trazado 36704" d="M46.874,61.257c-5.41-3.123-10.3-3.393-13.805-1.305,3.484-1.907,8.255-1.569,13.519,1.47C57.255,67.579,65.9,82.494,65.9,94.734c0,6.033-2.1,10.289-5.509,12.318,3.576-1.958,5.795-6.281,5.795-12.481,0-12.239-8.647-27.155-19.314-33.314" transform="translate(5.541 9.82)" fill="#084c94"/>
        <path id="Trazado_36705" data-name="Trazado 36705" d="M66.733,94.711c0,12.241-8.647,17.171-19.314,11.012S28.1,84.649,28.1,72.408,36.751,55.238,47.419,61.4,66.733,82.471,66.733,94.711" transform="translate(4.709 9.843)" fill="#03336e"/>
        <path id="Trazado_36706" data-name="Trazado 36706" d="M65.537,93.914c0,11.577-8.179,16.241-18.268,10.416S29,84.4,29,72.82,37.18,56.579,47.27,62.4s18.268,19.933,18.268,31.51" transform="translate(4.859 10.036)" fill="#e3f3ff"/>
        <path id="Trazado_36707" data-name="Trazado 36707" d="M62.527,91.908c0,9.909-7,13.9-15.636,8.914S31.256,83.764,31.256,73.854s7-13.9,15.635-8.914S62.527,82,62.527,91.908" transform="translate(5.237 10.521)" fill="#72b5e8"/>
        <path id="Trazado_36708" data-name="Trazado 36708" d="M59.138,89.652c0,8.032-5.673,11.266-12.673,7.225S33.793,83.05,33.793,75.019s5.673-11.266,12.673-7.226S59.138,81.621,59.138,89.652" transform="translate(5.662 11.068)" fill="#e3f3ff"/>
        <path id="Trazado_36709" data-name="Trazado 36709" d="M55.939,87.521c0,6.258-4.422,8.779-9.875,5.63s-9.875-10.774-9.875-17.032,4.422-8.779,9.875-5.63,9.875,10.774,9.875,17.032" transform="translate(6.064 11.584)" fill="#72b5e8"/>
        <path id="Trazado_36710" data-name="Trazado 36710" d="M52.928,85.515c0,4.59-3.241,6.438-7.241,4.128a15.953,15.953,0,0,1-7.241-12.491c0-4.589,3.241-6.438,7.241-4.128a15.954,15.954,0,0,1,7.241,12.491" transform="translate(6.442 12.069)" fill="#e3f3ff"/>
        <path id="Trazado_36711" data-name="Trazado 36711" d="M47.551,103.969c-10.09-5.825-18.268-19.933-18.268-31.51,0-5.527,1.865-9.477,4.911-11.464C30.982,62.919,29,66.94,29,72.636c0,11.577,8.179,25.685,18.269,31.51,5.272,3.044,10.022,3.222,13.357,1.047-3.318,1.987-7.949,1.736-13.075-1.224" transform="translate(4.859 10.22)" fill="#a8cff0"/>
        <path id="Trazado_36712" data-name="Trazado 36712" d="M46.748,96.583c-7-4.041-12.673-13.827-12.673-21.859,0-3.848,1.305-6.592,3.433-7.964-2.3,1.306-3.715,4.123-3.715,8.14,0,8.032,5.674,17.818,12.674,21.859,3.645,2.1,6.927,2.232,9.24.74-2.293,1.305-5.461,1.1-8.959-.917" transform="translate(5.662 11.186)" fill="#a8cff0"/>
        <path id="Trazado_36713" data-name="Trazado 36713" d="M45.969,89.4a15.956,15.956,0,0,1-7.241-12.491c0-2.14.7-3.682,1.863-4.488-1.325.743-2.145,2.356-2.145,4.664a15.954,15.954,0,0,0,7.241,12.491c2.134,1.233,4.053,1.28,5.378.358-1.308.732-3.108.613-5.1-.535" transform="translate(6.442 12.135)" fill="#a8cff0"/>
        <path id="Trazado_36714" data-name="Trazado 36714" d="M49.255,83.068c0,2.555-1.8,3.582-4.029,2.3a8.88,8.88,0,0,1-4.029-6.95c0-2.553,1.8-3.582,4.029-2.3a8.879,8.879,0,0,1,4.029,6.95" transform="translate(6.903 12.661)" fill="#eb4680"/>
        <g id="Grupo_17653" data-name="Grupo 17653" transform="translate(51.924 92.904)" opacity="0.5">
          <g id="Grupo_17652" data-name="Grupo 17652">
            <g id="Grupo_17651" data-name="Grupo 17651" clip-path="url(#clip-path-9)">
              <path id="Trazado_36715" data-name="Trazado 36715" d="M45.107,80.162c0,.2-.141.283-.316.181a.7.7,0,0,1-.318-.546c0-.2.141-.283.318-.181a.7.7,0,0,1,.316.546" transform="translate(-44.472 -79.571)" fill="#231f20"/>
            </g>
          </g>
        </g>
        <path id="Trazado_36716" data-name="Trazado 36716" d="M45.025,76.117a3,3,0,0,0-2.633-.395,3.2,3.2,0,0,1,2.365.485,8.877,8.877,0,0,1,4.029,6.95,2.669,2.669,0,0,1-1.4,2.692c1.009-.258,1.665-1.242,1.665-2.782a8.88,8.88,0,0,0-4.029-6.95" transform="translate(7.103 12.661)" fill="#d62d69"/>
        <path id="Trazado_36717" data-name="Trazado 36717" d="M10.68,100.727l-1.73-.234a.877.877,0,0,1-.114-1.714l9.7-2.652Z" transform="translate(1.372 16.107)" fill="#0ba19f"/>
        <path id="Trazado_36718" data-name="Trazado 36718" d="M10.748,100.557l-1.73-.234a.87.87,0,0,1-.726-1.113.876.876,0,0,0,.659,1.282l1.73.235,7.855-4.6-.416.113Z" transform="translate(1.373 16.107)" fill="#3ecfcd"/>
        <g id="Grupo_17656" data-name="Grupo 17656" transform="translate(9.608 112.319)" opacity="0.7">
          <g id="Grupo_17655" data-name="Grupo 17655">
            <g id="Grupo_17654" data-name="Grupo 17654" clip-path="url(#clip-path-10)">
              <path id="Trazado_36719" data-name="Trazado 36719" d="M8.986,100.361l1.73.234L18.225,96.2l-.11.029-7.373,4.315-1.73-.232A.87.87,0,0,1,8.286,99.2c-.011.02-.019.04-.028.061a.868.868,0,0,0,.727,1.1" transform="translate(-8.229 -96.2)" fill="#fff"/>
            </g>
          </g>
        </g>
        <path id="Trazado_36720" data-name="Trazado 36720" d="M46.038,80.011A.089.089,0,0,1,46,80.09a11.659,11.659,0,0,1-3.392,2.734,27.493,27.493,0,0,1-3.991,2.126c-.092.051-.034-.063-.172-.144a1.111,1.111,0,0,1-.5-.869c0-.158-.146-.16-.056-.213a31.751,31.751,0,0,1,3.842-2.382,11.287,11.287,0,0,1,4.092-1.56.092.092,0,0,1,.09.009.278.278,0,0,1,.125.217" transform="translate(6.344 13.367)" fill="#0fbab8"/>
        <path id="Trazado_36721" data-name="Trazado 36721" d="M38.766,84.073c0,.319-.225.448-.5.287a1.109,1.109,0,0,1-.5-.87c0-.319.224-.447.5-.287a1.11,1.11,0,0,1,.5.87" transform="translate(6.327 13.93)" fill="#0ba19f"/>
        <path id="Trazado_36722" data-name="Trazado 36722" d="M43.442,84.077a.341.341,0,0,1-.134.306L9.971,103.909c-.088.049-.032-.062-.163-.138a1.061,1.061,0,0,1-.481-.83c0-.151-.14-.152-.055-.2l33.354-19.53a.344.344,0,0,1,.335.037,1.062,1.062,0,0,1,.481.83" transform="translate(1.549 13.937)" fill="#2672ab"/>
        <path id="Trazado_36723" data-name="Trazado 36723" d="M10.11,100.8c0,.3-.216.428-.481.274a1.057,1.057,0,0,1-.481-.83c0-.3.215-.427.481-.273a1.06,1.06,0,0,1,.481.829" transform="translate(1.533 16.74)" fill="#3f92d1"/>
        <path id="Trazado_36724" data-name="Trazado 36724" d="M10.245,100.261l8.023-4.622-6.262-.513a2.709,2.709,0,0,0-2.365,4.355Z" transform="translate(1.52 15.937)" fill="#3ecfcd"/>
        <path id="Trazado_36725" data-name="Trazado 36725" d="M10.354,100.239l8.023-4.622L12.115,95.1a2.708,2.708,0,0,0-2.364,4.355Z" transform="translate(1.538 15.934)" fill="#0ba19f"/>
        <g id="Grupo_17659" data-name="Grupo 17659" transform="translate(10.717 111.028)" opacity="0.7">
          <g id="Grupo_17658" data-name="Grupo 17658">
            <g id="Grupo_17657" data-name="Grupo 17657" clip-path="url(#clip-path-11)">
              <path id="Trazado_36726" data-name="Trazado 36726" d="M9.869,99.51a2.708,2.708,0,0,1,2.364-4.355l6.081.5.063-.035L12.114,95.1A2.708,2.708,0,0,0,9.75,99.459l.6.78.055-.032Z" transform="translate(-9.179 -95.094)" fill="#fff"/>
            </g>
          </g>
        </g>
        <path id="Trazado_36727" data-name="Trazado 36727" d="M10.511,100.982l.2.708a2.265,2.265,0,0,0,4.093.609l3.734-5.867Z" transform="translate(1.761 16.158)" fill="#3ecfcd"/>
        <path id="Trazado_36728" data-name="Trazado 36728" d="M10.618,100.895l.2.708a2.265,2.265,0,0,0,4.093.609l3.734-5.867Z" transform="translate(1.779 16.143)" fill="#0ba19f"/>
        <g id="Grupo_17662" data-name="Grupo 17662" transform="translate(12.396 112.488)" opacity="0.7">
          <g id="Grupo_17661" data-name="Grupo 17661">
            <g id="Grupo_17660" data-name="Grupo 17660" clip-path="url(#clip-path-12)">
              <path id="Trazado_36729" data-name="Trazado 36729" d="M14.975,102.094a2.264,2.264,0,0,1-4.092-.608l-.179-.64-.086.05.2.708a2.264,2.264,0,0,0,4.092.609l3.734-5.868-.013.007Z" transform="translate(-10.617 -96.345)" fill="#fff"/>
            </g>
          </g>
        </g>
        <path id="Trazado_36730" data-name="Trazado 36730" d="M238.755,146.11c0,2.555-1.8,3.582-4.029,2.3a8.881,8.881,0,0,1-4.029-6.95c0-2.553,1.8-3.582,4.029-2.3a8.877,8.877,0,0,1,4.029,6.95" transform="translate(38.655 23.224)" fill="#d62d69"/>
        <path id="Trazado_36731" data-name="Trazado 36731" d="M231.791,158.2c0,2.19-1.547,3.073-3.457,1.97a7.612,7.612,0,0,1-3.456-5.96c0-2.19,1.547-3.073,3.456-1.971a7.614,7.614,0,0,1,3.457,5.962" transform="translate(37.68 25.429)" fill="#d62d69"/>
        <path id="Trazado_36732" data-name="Trazado 36732" d="M224.827,170.292c0,1.826-1.291,2.563-2.884,1.643a6.349,6.349,0,0,1-2.883-4.973c0-1.827,1.29-2.563,2.883-1.644a6.356,6.356,0,0,1,2.884,4.974" transform="translate(36.705 27.634)" fill="#d62d69"/>
        <path id="Trazado_36733" data-name="Trazado 36733" d="M217.861,182.382c0,1.464-1.034,2.054-2.311,1.317a5.094,5.094,0,0,1-2.308-3.985c0-1.464,1.034-2.054,2.308-1.317a5.09,5.09,0,0,1,2.311,3.985" transform="translate(35.73 29.838)" fill="#d62d69"/>
        <path id="Trazado_36734" data-name="Trazado 36734" d="M210.9,194.472c0,1.1-.778,1.545-1.736.991a3.827,3.827,0,0,1-1.737-3c0-1.1.778-1.545,1.737-.99a3.827,3.827,0,0,1,1.736,2.995" transform="translate(34.755 32.043)" fill="#d62d69"/>
        <path id="Trazado_36735" data-name="Trazado 36735" d="M237.755,146.235c0,2.555-1.8,3.582-4.029,2.3a8.88,8.88,0,0,1-4.029-6.95c0-2.553,1.8-3.582,4.029-2.3a8.877,8.877,0,0,1,4.029,6.95" transform="translate(38.487 23.245)" fill="#eb4680"/>
        <path id="Trazado_36736" data-name="Trazado 36736" d="M230.936,158.326c0,2.19-1.547,3.073-3.456,1.97a7.613,7.613,0,0,1-3.457-5.96c0-2.19,1.548-3.073,3.457-1.971a7.615,7.615,0,0,1,3.456,5.962" transform="translate(37.536 25.45)" fill="#eb4680"/>
        <path id="Trazado_36737" data-name="Trazado 36737" d="M224.117,170.417c0,1.826-1.29,2.563-2.883,1.643a6.349,6.349,0,0,1-2.883-4.973c0-1.827,1.29-2.563,2.883-1.644a6.354,6.354,0,0,1,2.883,4.974" transform="translate(36.586 27.655)" fill="#eb4680"/>
        <path id="Trazado_36738" data-name="Trazado 36738" d="M217.3,182.507c0,1.464-1.034,2.054-2.311,1.317a5.094,5.094,0,0,1-2.308-3.985c0-1.464,1.034-2.054,2.308-1.317a5.091,5.091,0,0,1,2.311,3.985" transform="translate(35.636 29.859)" fill="#eb4680"/>
        <path id="Trazado_36739" data-name="Trazado 36739" d="M210.481,194.6c0,1.1-.778,1.545-1.737.991a3.827,3.827,0,0,1-1.737-3c0-1.1.778-1.545,1.737-.99a3.825,3.825,0,0,1,1.737,2.995" transform="translate(34.685 32.064)" fill="#eb4680"/>
        <path id="Trazado_36740" data-name="Trazado 36740" d="M103.863,51.939a.584.584,0,0,1-.492-.269C91.841,33.709,77.157,19,62.025,10.267c-10.458-6.039-20.575-9.1-30.069-9.1a.584.584,0,1,1,0-1.168c9.7,0,20.015,3.114,30.653,9.256C77.9,18.085,92.725,32.924,104.355,51.04a.583.583,0,0,1-.492.9" transform="translate(5.257)" fill="#0fbab8"/>
        <path id="Trazado_36741" data-name="Trazado 36741" d="M11.205,99.581a.578.578,0,0,1-.535-.351q-.468-1.079-.915-2.16a.584.584,0,1,1,1.079-.447q.445,1.074.907,2.144a.584.584,0,0,1-.536.815M9,94.176A.586.586,0,0,1,8.45,93.8c-.28-.731-.558-1.463-.828-2.195a.584.584,0,1,1,1.1-.4q.4,1.089.821,2.177A.584.584,0,0,1,9,94.176M7,88.687a.584.584,0,0,1-.553-.4q-.377-1.114-.736-2.229a.584.584,0,1,1,1.112-.356q.354,1.105.73,2.21A.582.582,0,0,1,7,88.687m-1.76-5.568a.585.585,0,0,1-.562-.42q-.331-1.13-.639-2.259a.584.584,0,1,1,1.127-.307q.3,1.119.633,2.238a.583.583,0,0,1-.4.725.614.614,0,0,1-.163.023M3.728,77.477a.586.586,0,0,1-.566-.446q-.278-1.144-.534-2.287a.583.583,0,1,1,1.138-.255q.256,1.133.529,2.266a.584.584,0,0,1-.427.705.646.646,0,0,1-.14.016M2.482,71.77a.586.586,0,0,1-.573-.474q-.222-1.156-.42-2.311a.584.584,0,1,1,1.15-.2q.2,1.144.418,2.288a.586.586,0,0,1-.464.684.6.6,0,0,1-.111.011m-.956-5.763a.582.582,0,0,1-.577-.5q-.163-1.168-.3-2.33a.584.584,0,1,1,1.159-.134q.133,1.149.294,2.306a.582.582,0,0,1-.5.657.468.468,0,0,1-.081.006M.887,60.2a.584.584,0,0,1-.581-.537C.244,58.879.189,58.1.146,57.317A.582.582,0,0,1,.7,56.7a.594.594,0,0,1,.615.55q.065,1.156.159,2.318a.584.584,0,0,1-.535.629H.887M.6,54.366a.583.583,0,0,1-.584-.572C0,53.263,0,52.732,0,52.2l0-.761a.567.567,0,0,1,.59-.579.584.584,0,0,1,.578.59l0,.751c0,.522,0,1.044.014,1.568a.584.584,0,0,1-.573.594Zm.093-5.834H.661a.585.585,0,0,1-.553-.613q.061-1.189.159-2.348A.568.568,0,0,1,.9,45.038a.583.583,0,0,1,.534.629c-.064.76-.114,1.531-.155,2.312a.584.584,0,0,1-.583.553m.53-5.811a.571.571,0,0,1-.077-.006.583.583,0,0,1-.5-.655Q.8,40.878.994,39.731a.584.584,0,1,1,1.151.195q-.191,1.126-.344,2.288a.586.586,0,0,1-.579.507M94.744,41.64a.581.581,0,0,1-.445-.205q-.755-.886-1.52-1.76a.584.584,0,0,1,.877-.771q.772.879,1.533,1.775a.583.583,0,0,1-.445.961m-3.869-4.368a.583.583,0,0,1-.43-.188q-.79-.856-1.59-1.694a.584.584,0,1,1,.844-.807q.807.844,1.605,1.708a.585.585,0,0,1-.43.981M2.25,36.979a.572.572,0,0,1-.132-.015.583.583,0,0,1-.438-.7q.266-1.165.574-2.287a.584.584,0,1,1,1.127.308q-.3,1.1-.563,2.241a.585.585,0,0,1-.569.453m84.571-3.905a.589.589,0,0,1-.412-.169q-.825-.821-1.664-1.622a.584.584,0,1,1,.807-.844q.846.809,1.681,1.637a.584.584,0,0,1-.412,1m-82.969-1.7A.584.584,0,0,1,3.3,30.6q.392-1.131.829-2.213a.584.584,0,0,1,1.082.437q-.424,1.054-.808,2.159a.585.585,0,0,1-.552.392m78.733-2.309a.579.579,0,0,1-.391-.152q-.865-.781-1.739-1.54a.584.584,0,1,1,.765-.882q.883.765,1.756,1.556a.584.584,0,0,1-.391,1.017M6.106,25.995a.585.585,0,0,1-.522-.845q.534-1.072,1.115-2.086a.584.584,0,0,1,1.013.579q-.562.988-1.085,2.029a.583.583,0,0,1-.522.323m72.053-.737a.585.585,0,0,1-.37-.132q-.9-.737-1.813-1.449a.584.584,0,0,1,.718-.92q.923.72,1.834,1.465a.583.583,0,0,1-.369,1.036M73.544,21.69a.586.586,0,0,1-.344-.112q-.942-.687-1.89-1.349a.583.583,0,1,1,.667-.957q.96.667,1.912,1.363a.584.584,0,0,1-.344,1.055M9.082,20.984a.584.584,0,0,1-.478-.92q.69-.979,1.426-1.895a.585.585,0,0,1,.912.732q-.716.886-1.382,1.834a.584.584,0,0,1-.478.249m59.652-2.6a.575.575,0,0,1-.318-.093c-.649-.42-1.306-.83-1.963-1.231a.583.583,0,1,1,.6-1q1,.608,1.992,1.247a.584.584,0,0,1-.316,1.074M12.821,16.513a.584.584,0,0,1-.414-1c.563-.563,1.147-1.108,1.738-1.621a.584.584,0,0,1,.764.883c-.57.493-1.133,1.019-1.674,1.562a.583.583,0,0,1-.413.172m50.908-1.127a.586.586,0,0,1-.285-.074q-1.025-.569-2.041-1.1a.584.584,0,0,1,.538-1.037q1.032.536,2.071,1.114a.584.584,0,0,1-.284,1.094m-46.435-2.6a.584.584,0,0,1-.33-1.066c.65-.446,1.328-.873,2.011-1.268a.584.584,0,0,1,.585,1.01c-.659.381-1.309.792-1.936,1.221a.583.583,0,0,1-.329.1m41.236-.049a.576.576,0,0,1-.245-.055q-1.063-.492-2.117-.939a.584.584,0,1,1,.457-1.075q1.07.454,2.151.955a.584.584,0,0,1-.245,1.114M53.138,10.5a.578.578,0,0,1-.2-.036q-1.1-.4-2.188-.751A.584.584,0,0,1,51.109,8.6q1.109.357,2.229.766a.584.584,0,0,1-.2,1.133M22.389,9.962a.583.583,0,0,1-.232-1.119c.722-.314,1.466-.606,2.213-.866a.584.584,0,0,1,.384,1.1c-.719.25-1.436.53-2.132.834a.583.583,0,0,1-.232.048M47.567,8.769a.567.567,0,0,1-.145-.019c-.757-.193-1.5-.368-2.25-.523a.584.584,0,0,1,.239-1.143q1.14.238,2.3.536a.584.584,0,0,1-.145,1.149M27.922,8.142a.584.584,0,0,1-.132-1.152c.761-.175,1.545-.328,2.329-.453a.584.584,0,1,1,.186,1.152c-.76.121-1.517.269-2.251.439a.57.57,0,0,1-.132.014m13.92-.5a.62.62,0,0,1-.079-.006q-1.154-.156-2.291-.251a.583.583,0,0,1-.532-.629.591.591,0,0,1,.63-.534q1.163.1,2.35.257a.584.584,0,0,1-.078,1.163M33.69,7.315a.584.584,0,0,1-.035-1.166q1.17-.072,2.367-.074h0a.584.584,0,0,1,0,1.168q-1.163,0-2.3.071H33.69" transform="translate(0 1.018)" fill="#a8cff0"/>
        <path id="Trazado_36742" data-name="Trazado 36742" d="M137.534,56.124c.074-1.562,1.147-2.243,2.4-1.522a4.9,4.9,0,0,1,2.127,4.134c-.074,1.562-1.147,2.244-2.4,1.522a4.907,4.907,0,0,1-2.127-4.134" transform="translate(23.044 9.101)" fill="#0fbab8"/>
        <path id="Trazado_36743" data-name="Trazado 36743" d="M224.659,113.935c.074-1.562,1.147-2.244,2.4-1.522a4.9,4.9,0,0,1,2.126,4.134c-.074,1.562-1.147,2.243-2.4,1.522a4.907,4.907,0,0,1-2.127-4.134" transform="translate(37.642 18.787)" fill="#0fbab8"/>
        <path id="Trazado_36744" data-name="Trazado 36744" d="M95.221,46.669,89.481,43.71a.583.583,0,1,1,.534-1.037l3.891,2-.362-4.945a.584.584,0,0,1,.539-.626.6.6,0,0,1,.626.539Z" transform="translate(14.94 6.552)" fill="#0fbab8"/>
        <path id="Trazado_36745" data-name="Trazado 36745" d="M170.388,89.035l-5.741-2.959a.583.583,0,1,1,.534-1.037l3.891,2-.362-4.945a.584.584,0,0,1,.539-.626.606.606,0,0,1,.626.539Z" transform="translate(27.535 13.651)" fill="#0fbab8"/>
        <path id="Trazado_36746" data-name="Trazado 36746" d="M257.557,92.195a.583.583,0,0,1-.51-.866l2.34-4.237-4.272,1.424a.583.583,0,1,1-.369-1.107l7.112-2.37-3.79,6.855a.58.58,0,0,1-.51.3" transform="translate(42.617 14.249)" fill="#0fbab8"/>
        <path id="Trazado_36747" data-name="Trazado 36747" d="M227.055,119.666a.584.584,0,0,1-.384-1.024l36.583-31.913a.584.584,0,1,1,.768.88l-36.583,31.913a.586.586,0,0,1-.384.144" transform="translate(37.947 14.508)" fill="#0fbab8"/>
      </g>
    </g>
  </g>
</svg>
