<svg xmlns="http://www.w3.org/2000/svg" width="1004" height="765" viewBox="0 0 1004 765">
  <g id="Grupo_17675" data-name="Grupo 17675" transform="translate(-465 -6083)">
    <path id="Trazado_36814" data-name="Trazado 36814" d="M0,0H240V70H0Z" transform="translate(840 6083)" fill="#472ea6"/>
    <path id="Trazado_36817" data-name="Trazado 36817" d="M2.374,0V-15.125H7.251a7.232,7.232,0,0,1,3.851.978,5.963,5.963,0,0,1,2.363,2.659,9.34,9.34,0,0,1,.768,3.916,9.906,9.906,0,0,1-.446,3.056,6.923,6.923,0,0,1-1.305,2.39,5.726,5.726,0,0,1-2.2,1.568A7.811,7.811,0,0,1,7.251,0ZM4.3-1.751h2.89A4.606,4.606,0,0,0,10.962-3.3a6.539,6.539,0,0,0,1.273-4.275,6.484,6.484,0,0,0-1.278-4.254,4.609,4.609,0,0,0-3.771-1.547H4.3ZM19.927.2a3.593,3.593,0,0,1-2.315-.725A2.6,2.6,0,0,1,16.7-2.686a3.076,3.076,0,0,1,.29-1.38,2.433,2.433,0,0,1,.859-.961,5.155,5.155,0,0,1,1.241-.6A11.469,11.469,0,0,1,20.7-6l1.708-.279q.935-.172.935-.978a1.845,1.845,0,0,0-.661-1.574,2.692,2.692,0,0,0-1.67-.5,2.742,2.742,0,0,0-1.654.483,2.023,2.023,0,0,0-.784,1.482L16.9-7.724a3.225,3.225,0,0,1,1.321-2.261,4.937,4.937,0,0,1,2.879-.757,5.839,5.839,0,0,1,1.531.188,4.16,4.16,0,0,1,1.278.591,2.65,2.65,0,0,1,.913,1.139,4.237,4.237,0,0,1,.328,1.735v4.361a1.784,1.784,0,0,0,.242,1.1,1.043,1.043,0,0,0,.833.285h.172V0H25.47a1.762,1.762,0,0,1-2-1.429h-.086A4.035,4.035,0,0,1,19.927.2Zm.43-1.5A2.818,2.818,0,0,0,22.623-2.32a4.2,4.2,0,0,0,.859-2.793l-2.793.537a3.76,3.76,0,0,0-1.638.585,1.362,1.362,0,0,0-.532,1.155,1.346,1.346,0,0,0,.51,1.16A2.181,2.181,0,0,0,20.356-1.3ZM32.323,0a2.776,2.776,0,0,1-2.062-.757,2.865,2.865,0,0,1-.752-2.111V-9.077H27.35V-10.56h.795a1.526,1.526,0,0,0,1.166-.371,1.824,1.824,0,0,0,.338-1.241v-1.912h1.729v3.523h2.428v1.482H31.378v6.016a1.6,1.6,0,0,0,.4,1.166,1.411,1.411,0,0,0,1.058.414h.967V0ZM40.81.2A5.566,5.566,0,0,1,38.1-.451,4.771,4.771,0,0,1,36.2-2.369a5.89,5.89,0,0,1-.7-2.917,5.38,5.38,0,0,1,1.5-3.98,5.173,5.173,0,0,1,3.819-1.5,5.168,5.168,0,0,1,3.824,1.5,5.39,5.39,0,0,1,1.493,3.98,5.394,5.394,0,0,1-1.5,3.991A5.173,5.173,0,0,1,40.81.2ZM40.8-1.343a3.243,3.243,0,0,0,2.5-1.085,4.065,4.065,0,0,0,.994-2.857A4.05,4.05,0,0,0,43.3-8.132a3.243,3.243,0,0,0-2.5-1.085,3.2,3.2,0,0,0-2.476,1.085,4.077,4.077,0,0,0-.983,2.847,4.092,4.092,0,0,0,.983,2.857A3.2,3.2,0,0,0,40.8-1.343ZM52.379.2a5.006,5.006,0,0,1-2.847-.763,3.155,3.155,0,0,1-1.386-2.17l1.622-.462a2.262,2.262,0,0,0,.865,1.466,2.805,2.805,0,0,0,1.735.521,3.462,3.462,0,0,0,1.015-.14,1.627,1.627,0,0,0,.779-.521,1.4,1.4,0,0,0,.312-.961,1.4,1.4,0,0,0-.086-.435,1.865,1.865,0,0,0-.172-.349,1.064,1.064,0,0,0-.3-.29,3.966,3.966,0,0,0-.365-.226,3.749,3.749,0,0,0-.478-.2q-.317-.113-.51-.172t-.591-.172q-.4-.113-.612-.177a11.454,11.454,0,0,1-1.1-.387,4.805,4.805,0,0,1-.892-.51,2.053,2.053,0,0,1-.693-.833,2.817,2.817,0,0,1-.231-1.182,2.731,2.731,0,0,1,.516-1.687,2.9,2.9,0,0,1,1.337-.994,5.346,5.346,0,0,1,1.875-.306,4.588,4.588,0,0,1,2.573.688,2.934,2.934,0,0,1,1.284,2.063l-1.525.387A2.022,2.022,0,0,0,53.7-8.943a2.565,2.565,0,0,0-1.515-.446,2.614,2.614,0,0,0-1.418.371,1.246,1.246,0,0,0-.591,1.133,1.128,1.128,0,0,0,.156.585,1.859,1.859,0,0,0,.317.414,1.948,1.948,0,0,0,.58.317q.419.167.623.226t.773.2q.107.032.161.043.623.161,1.015.285a6.24,6.24,0,0,1,.913.387,3.036,3.036,0,0,1,.822.575,2.663,2.663,0,0,1,.516.816A2.882,2.882,0,0,1,56.268-2.9a3.075,3.075,0,0,1-.317,1.423,2.479,2.479,0,0,1-.865.972,4.182,4.182,0,0,1-1.23.532A5.86,5.86,0,0,1,52.379.2ZM71.113-15.125a4.478,4.478,0,0,1,2.369.628,4.245,4.245,0,0,1,1.59,1.681,4.933,4.933,0,0,1,.553,2.331,4.59,4.59,0,0,1-1.251,3.292,4.3,4.3,0,0,1-3.26,1.316h-3.8V0H65.388V-15.125Zm-.279,7.573a2.75,2.75,0,0,0,2.105-.811,3,3,0,0,0,.763-2.143,3.01,3.01,0,0,0-.763-2.132,2.731,2.731,0,0,0-2.105-.822H67.311v5.908ZM80.33-8.7a3.192,3.192,0,0,1,1.311-1.418,3.947,3.947,0,0,1,2.03-.559v1.751a3.479,3.479,0,0,0-2.455.784,3.276,3.276,0,0,0-.843,2.5V0H78.515V-10.56H80.33Zm6.467-4.34a1.209,1.209,0,0,1-.886-.371,1.209,1.209,0,0,1-.371-.886,1.192,1.192,0,0,1,.371-.881,1.218,1.218,0,0,1,.886-.365,1.206,1.206,0,0,1,.875.365,1.192,1.192,0,0,1,.371.881,1.209,1.209,0,0,1-.371.886A1.2,1.2,0,0,1,86.8-13.041ZM85.852,0V-10.56h1.869V0ZM102.3-10.764a3.4,3.4,0,0,1,2.46.9,3.327,3.327,0,0,1,.935,2.519V0h-1.858V-6.864a2.386,2.386,0,0,0-.58-1.74,1.975,1.975,0,0,0-1.472-.591,2.085,2.085,0,0,0-1.611.666,2.864,2.864,0,0,0-.612,2V0H97.668V-6.789a2.5,2.5,0,0,0-.585-1.8,1.991,1.991,0,0,0-1.5-.607,2.066,2.066,0,0,0-1.606.682,2.963,2.963,0,0,0-.618,2.046V0H91.5V-10.56H93.36V-9.2a3.208,3.208,0,0,1,1.208-1.16,3.446,3.446,0,0,1,1.681-.408,3.587,3.587,0,0,1,1.8.446,2.775,2.775,0,0,1,1.171,1.284,3.286,3.286,0,0,1,1.268-1.284A3.626,3.626,0,0,1,102.3-10.764ZM111.729.2a3.593,3.593,0,0,1-2.315-.725,2.6,2.6,0,0,1-.908-2.165,3.076,3.076,0,0,1,.29-1.38,2.434,2.434,0,0,1,.859-.961,5.155,5.155,0,0,1,1.241-.6A11.469,11.469,0,0,1,112.5-6l1.708-.279q.935-.172.935-.978a1.845,1.845,0,0,0-.661-1.574,2.692,2.692,0,0,0-1.67-.5,2.742,2.742,0,0,0-1.654.483,2.023,2.023,0,0,0-.784,1.482L108.7-7.724a3.225,3.225,0,0,1,1.321-2.261,4.937,4.937,0,0,1,2.879-.757,5.839,5.839,0,0,1,1.531.188,4.16,4.16,0,0,1,1.278.591,2.65,2.65,0,0,1,.913,1.139,4.237,4.237,0,0,1,.328,1.735v4.361a1.784,1.784,0,0,0,.242,1.1,1.043,1.043,0,0,0,.833.285h.172V0h-.924a1.762,1.762,0,0,1-2-1.429h-.086A4.035,4.035,0,0,1,111.729.2Zm.43-1.5a2.818,2.818,0,0,0,2.267-1.021,4.2,4.2,0,0,0,.859-2.793l-2.793.537a3.76,3.76,0,0,0-1.638.585,1.362,1.362,0,0,0-.532,1.155,1.346,1.346,0,0,0,.51,1.16A2.181,2.181,0,0,0,112.159-1.3Zm10.474-7.4a3.192,3.192,0,0,1,1.311-1.418,3.947,3.947,0,0,1,2.03-.559v1.751a3.479,3.479,0,0,0-2.455.784,3.276,3.276,0,0,0-.843,2.5V0h-1.858V-10.56h1.815Zm6.467-4.34a1.209,1.209,0,0,1-.886-.371,1.209,1.209,0,0,1-.371-.886,1.192,1.192,0,0,1,.371-.881,1.218,1.218,0,0,1,.886-.365,1.206,1.206,0,0,1,.875.365,1.192,1.192,0,0,1,.371.881,1.209,1.209,0,0,1-.371.886A1.2,1.2,0,0,1,129.1-13.041ZM128.154,0V-10.56h1.869V0Zm10.1.2a5.566,5.566,0,0,1-2.707-.655,4.771,4.771,0,0,1-1.907-1.917,5.89,5.89,0,0,1-.7-2.917,5.38,5.38,0,0,1,1.5-3.98,5.173,5.173,0,0,1,3.819-1.5,5.168,5.168,0,0,1,3.824,1.5,5.39,5.39,0,0,1,1.493,3.98,5.394,5.394,0,0,1-1.5,3.991A5.173,5.173,0,0,1,138.252.2Zm-.011-1.547a3.243,3.243,0,0,0,2.5-1.085,4.065,4.065,0,0,0,.994-2.857,4.05,4.05,0,0,0-.994-2.847,3.243,3.243,0,0,0-2.5-1.085,3.2,3.2,0,0,0-2.476,1.085,4.077,4.077,0,0,0-.983,2.847,4.092,4.092,0,0,0,.983,2.857A3.2,3.2,0,0,0,138.241-1.343ZM149.821.2a5.006,5.006,0,0,1-2.847-.763,3.155,3.155,0,0,1-1.386-2.17l1.622-.462a2.262,2.262,0,0,0,.865,1.466,2.805,2.805,0,0,0,1.735.521,3.462,3.462,0,0,0,1.015-.14,1.627,1.627,0,0,0,.779-.521,1.4,1.4,0,0,0,.312-.961,1.4,1.4,0,0,0-.086-.435,1.865,1.865,0,0,0-.172-.349,1.064,1.064,0,0,0-.3-.29,3.965,3.965,0,0,0-.365-.226,3.749,3.749,0,0,0-.478-.2Q150.2-4.437,150-4.5t-.591-.172q-.4-.113-.612-.177a11.453,11.453,0,0,1-1.1-.387,4.805,4.805,0,0,1-.892-.51,2.053,2.053,0,0,1-.693-.833,2.817,2.817,0,0,1-.231-1.182,2.731,2.731,0,0,1,.516-1.687,2.9,2.9,0,0,1,1.337-.994,5.346,5.346,0,0,1,1.875-.306,4.588,4.588,0,0,1,2.573.688,2.934,2.934,0,0,1,1.284,2.063l-1.525.387a2.022,2.022,0,0,0-.806-1.337,2.565,2.565,0,0,0-1.515-.446,2.614,2.614,0,0,0-1.418.371,1.246,1.246,0,0,0-.591,1.133,1.128,1.128,0,0,0,.156.585,1.859,1.859,0,0,0,.317.414,1.948,1.948,0,0,0,.58.317q.419.167.623.226t.773.2q.107.032.161.043.623.161,1.015.285a6.24,6.24,0,0,1,.913.387,3.035,3.035,0,0,1,.822.575,2.663,2.663,0,0,1,.516.816A2.882,2.882,0,0,1,153.71-2.9a3.075,3.075,0,0,1-.317,1.423,2.479,2.479,0,0,1-.865.972,4.182,4.182,0,0,1-1.23.532A5.86,5.86,0,0,1,149.821.2Z" transform="translate(883 6124)" fill="#fff"/>
    <path id="Trazado_35899" data-name="Trazado 35899" d="M2272.917,4823l-314,117.412" transform="translate(-1312.917 1330)" fill="none" stroke="#ff8f00" stroke-width="2"/>
    <path id="Trazado_35900" data-name="Trazado 35900" d="M1958.917,4823l293.729,117.412" transform="translate(-999 1330)" fill="none" stroke="#ff8f00" stroke-width="2"/>
    <path id="Trazado_36815" data-name="Trazado 36815" d="M0,0H240V70H0Z" transform="translate(465 6270)" fill="#35d9c7"/>
    <path id="Trazado_36816" data-name="Trazado 36816" d="M8.852.2A8.035,8.035,0,0,1,5.876-.338a7.186,7.186,0,0,1-2.39-1.525A6.8,6.8,0,0,1,1.9-4.318a8.877,8.877,0,0,1-.575-3.255,8.732,8.732,0,0,1,.58-3.239,6.964,6.964,0,0,1,1.59-2.455,7.017,7.017,0,0,1,2.385-1.525,8.107,8.107,0,0,1,2.976-.537,7.684,7.684,0,0,1,4.023,1.063,6.626,6.626,0,0,1,2.659,2.954l-1.772.73a4.98,4.98,0,0,0-1.982-2.154,5.688,5.688,0,0,0-2.927-.757,6.015,6.015,0,0,0-2.2.4,5.277,5.277,0,0,0-1.783,1.139,5.141,5.141,0,0,0-1.2,1.869,6.935,6.935,0,0,0-.435,2.514,6.978,6.978,0,0,0,.435,2.519,5.133,5.133,0,0,0,1.2,1.875A5.346,5.346,0,0,0,6.649-2.036a5.944,5.944,0,0,0,2.2.4,5.688,5.688,0,0,0,2.927-.757,4.993,4.993,0,0,0,1.982-2.143l1.772.72A6.592,6.592,0,0,1,12.88-.854,7.706,7.706,0,0,1,8.852.2ZM24.922-10.56H26.78V0H25l-.043-1.4A3.3,3.3,0,0,1,23.644-.209,4.031,4.031,0,0,1,21.8.2a3.673,3.673,0,0,1-2.659-.956,3.566,3.566,0,0,1-.994-2.7V-10.56H20v6.692a2.506,2.506,0,0,0,.65,1.891,2.3,2.3,0,0,0,1.66.623,2.527,2.527,0,0,0,1.875-.73,2.975,2.975,0,0,0,.736-2.159ZM33,.2a3.593,3.593,0,0,1-2.315-.725,2.6,2.6,0,0,1-.908-2.165,3.076,3.076,0,0,1,.29-1.38,2.433,2.433,0,0,1,.859-.961,5.155,5.155,0,0,1,1.241-.6A11.469,11.469,0,0,1,33.773-6l1.708-.279q.935-.172.935-.978a1.845,1.845,0,0,0-.661-1.574,2.692,2.692,0,0,0-1.67-.5,2.742,2.742,0,0,0-1.654.483,2.023,2.023,0,0,0-.784,1.482l-1.676-.354a3.225,3.225,0,0,1,1.321-2.261,4.937,4.937,0,0,1,2.879-.757,5.839,5.839,0,0,1,1.531.188,4.16,4.16,0,0,1,1.278.591,2.65,2.65,0,0,1,.913,1.139,4.237,4.237,0,0,1,.328,1.735v4.361a1.784,1.784,0,0,0,.242,1.1,1.043,1.043,0,0,0,.833.285h.172V0h-.924a1.762,1.762,0,0,1-2-1.429h-.086A4.035,4.035,0,0,1,33,.2Zm.43-1.5A2.818,2.818,0,0,0,35.7-2.32a4.2,4.2,0,0,0,.859-2.793l-2.793.537a3.76,3.76,0,0,0-1.638.585,1.362,1.362,0,0,0-.532,1.155,1.346,1.346,0,0,0,.51,1.16A2.181,2.181,0,0,0,33.43-1.3Zm13.643-9.464a3.673,3.673,0,0,1,2.659.956,3.566,3.566,0,0,1,.994,2.7V0H48.866V-6.692a2.5,2.5,0,0,0-.645-1.891A2.3,2.3,0,0,0,46.567-9.2a2.555,2.555,0,0,0-1.88.725,2.942,2.942,0,0,0-.741,2.154V0H42.088V-10.56h1.858v1.354A3.526,3.526,0,0,1,47.072-10.764ZM57.686,0a2.776,2.776,0,0,1-2.062-.757,2.865,2.865,0,0,1-.752-2.111V-9.077H52.712V-10.56h.795a1.526,1.526,0,0,0,1.166-.371,1.824,1.824,0,0,0,.338-1.241v-1.912H56.74v3.523h2.428v1.482H56.74v6.016a1.6,1.6,0,0,0,.4,1.166,1.411,1.411,0,0,0,1.058.414h.967V0ZM62.8-13.041a1.209,1.209,0,0,1-.886-.371,1.209,1.209,0,0,1-.371-.886,1.192,1.192,0,0,1,.371-.881,1.218,1.218,0,0,1,.886-.365,1.206,1.206,0,0,1,.875.365,1.192,1.192,0,0,1,.371.881,1.209,1.209,0,0,1-.371.886A1.2,1.2,0,0,1,62.8-13.041ZM61.854,0V-10.56h1.869V0Zm9.023,0a2.776,2.776,0,0,1-2.062-.757,2.865,2.865,0,0,1-.752-2.111V-9.077H65.9V-10.56H66.7a1.526,1.526,0,0,0,1.166-.371,1.824,1.824,0,0,0,.338-1.241v-1.912h1.729v3.523h2.428v1.482H69.932v6.016a1.6,1.6,0,0,0,.4,1.166,1.411,1.411,0,0,0,1.058.414h.967V0Zm6.478.2A3.593,3.593,0,0,1,75.04-.521a2.6,2.6,0,0,1-.908-2.165,3.076,3.076,0,0,1,.29-1.38,2.434,2.434,0,0,1,.859-.961,5.155,5.155,0,0,1,1.241-.6A11.469,11.469,0,0,1,78.128-6l1.708-.279q.935-.172.935-.978a1.845,1.845,0,0,0-.661-1.574,2.692,2.692,0,0,0-1.67-.5,2.742,2.742,0,0,0-1.654.483A2.023,2.023,0,0,0,76-7.369l-1.676-.354a3.225,3.225,0,0,1,1.321-2.261,4.937,4.937,0,0,1,2.879-.757,5.839,5.839,0,0,1,1.531.188,4.16,4.16,0,0,1,1.278.591,2.65,2.65,0,0,1,.913,1.139,4.237,4.237,0,0,1,.328,1.735v4.361a1.784,1.784,0,0,0,.242,1.1,1.043,1.043,0,0,0,.833.285h.172V0H82.9a1.762,1.762,0,0,1-2-1.429h-.086A4.035,4.035,0,0,1,77.354.2Zm.43-1.5A2.818,2.818,0,0,0,80.051-2.32a4.2,4.2,0,0,0,.859-2.793l-2.793.537a3.76,3.76,0,0,0-1.638.585,1.362,1.362,0,0,0-.532,1.155,1.346,1.346,0,0,0,.51,1.16A2.181,2.181,0,0,0,77.784-1.3ZM89.751,0a2.776,2.776,0,0,1-2.062-.757,2.865,2.865,0,0,1-.752-2.111V-9.077H84.777V-10.56h.795a1.526,1.526,0,0,0,1.166-.371,1.824,1.824,0,0,0,.338-1.241v-1.912h1.729v3.523h2.428v1.482H88.806v6.016a1.6,1.6,0,0,0,.4,1.166,1.411,1.411,0,0,0,1.058.414h.967V0Zm5.113-13.041a1.209,1.209,0,0,1-.886-.371,1.209,1.209,0,0,1-.371-.886,1.192,1.192,0,0,1,.371-.881,1.218,1.218,0,0,1,.886-.365,1.206,1.206,0,0,1,.875.365,1.192,1.192,0,0,1,.371.881,1.209,1.209,0,0,1-.371.886A1.2,1.2,0,0,1,94.864-13.041ZM93.919,0V-10.56h1.869V0Zm12.235-10.56h1.987L103.845,0h-1.579L97.99-10.56h1.977l3.094,8.4ZM114.372.2a5.566,5.566,0,0,1-2.707-.655,4.771,4.771,0,0,1-1.907-1.917,5.89,5.89,0,0,1-.7-2.917,5.38,5.38,0,0,1,1.5-3.98,5.173,5.173,0,0,1,3.819-1.5,5.168,5.168,0,0,1,3.824,1.5,5.39,5.39,0,0,1,1.493,3.98,5.394,5.394,0,0,1-1.5,3.991A5.173,5.173,0,0,1,114.372.2Zm-.011-1.547a3.243,3.243,0,0,0,2.5-1.085,4.065,4.065,0,0,0,.994-2.857,4.05,4.05,0,0,0-.994-2.847,3.243,3.243,0,0,0-2.5-1.085,3.2,3.2,0,0,0-2.476,1.085,4.077,4.077,0,0,0-.983,2.847,4.092,4.092,0,0,0,.983,2.857A3.2,3.2,0,0,0,114.361-1.343ZM125.941.2a5.006,5.006,0,0,1-2.847-.763,3.155,3.155,0,0,1-1.386-2.17l1.622-.462a2.262,2.262,0,0,0,.865,1.466,2.805,2.805,0,0,0,1.735.521,3.462,3.462,0,0,0,1.015-.14,1.627,1.627,0,0,0,.779-.521,1.4,1.4,0,0,0,.312-.961,1.4,1.4,0,0,0-.086-.435,1.865,1.865,0,0,0-.172-.349,1.064,1.064,0,0,0-.3-.29,3.966,3.966,0,0,0-.365-.226,3.749,3.749,0,0,0-.478-.2q-.317-.113-.51-.172t-.591-.172q-.4-.113-.612-.177a11.455,11.455,0,0,1-1.1-.387,4.805,4.805,0,0,1-.892-.51,2.053,2.053,0,0,1-.693-.833,2.817,2.817,0,0,1-.231-1.182,2.731,2.731,0,0,1,.516-1.687,2.9,2.9,0,0,1,1.337-.994,5.346,5.346,0,0,1,1.875-.306,4.588,4.588,0,0,1,2.573.688,2.934,2.934,0,0,1,1.284,2.063l-1.525.387a2.022,2.022,0,0,0-.806-1.337,2.565,2.565,0,0,0-1.515-.446,2.614,2.614,0,0,0-1.418.371,1.246,1.246,0,0,0-.591,1.133,1.128,1.128,0,0,0,.156.585,1.859,1.859,0,0,0,.317.414,1.948,1.948,0,0,0,.58.317q.419.167.623.226t.773.2q.107.032.161.043.623.161,1.015.285a6.24,6.24,0,0,1,.913.387,3.035,3.035,0,0,1,.822.575,2.663,2.663,0,0,1,.516.816A2.882,2.882,0,0,1,129.83-2.9a3.075,3.075,0,0,1-.317,1.423,2.479,2.479,0,0,1-.865.972,4.182,4.182,0,0,1-1.23.532A5.86,5.86,0,0,1,125.941.2Z" transform="translate(520 6311)" fill="#fff"/>
    <path id="Trazado_36821" data-name="Trazado 36821" d="M0,0H240V70H0Z" transform="translate(1101 6270)" fill="#ff8f00"/>
    <path id="Trazado_36823" data-name="Trazado 36823" d="M8.852.2A8.035,8.035,0,0,1,5.876-.338a7.186,7.186,0,0,1-2.39-1.525A6.8,6.8,0,0,1,1.9-4.318a8.877,8.877,0,0,1-.575-3.255,8.732,8.732,0,0,1,.58-3.239,6.964,6.964,0,0,1,1.59-2.455,7.017,7.017,0,0,1,2.385-1.525,8.107,8.107,0,0,1,2.976-.537,7.684,7.684,0,0,1,4.023,1.063,6.626,6.626,0,0,1,2.659,2.954l-1.772.73a4.98,4.98,0,0,0-1.982-2.154,5.688,5.688,0,0,0-2.927-.757,6.015,6.015,0,0,0-2.2.4,5.277,5.277,0,0,0-1.783,1.139,5.141,5.141,0,0,0-1.2,1.869,6.935,6.935,0,0,0-.435,2.514,6.978,6.978,0,0,0,.435,2.519,5.133,5.133,0,0,0,1.2,1.875A5.346,5.346,0,0,0,6.649-2.036a5.944,5.944,0,0,0,2.2.4,5.688,5.688,0,0,0,2.927-.757,4.993,4.993,0,0,0,1.982-2.143l1.772.72A6.592,6.592,0,0,1,12.88-.854,7.706,7.706,0,0,1,8.852.2ZM24.922-10.56H26.78V0H25l-.043-1.4A3.3,3.3,0,0,1,23.644-.209,4.031,4.031,0,0,1,21.8.2a3.673,3.673,0,0,1-2.659-.956,3.566,3.566,0,0,1-.994-2.7V-10.56H20v6.692a2.506,2.506,0,0,0,.65,1.891,2.3,2.3,0,0,0,1.66.623,2.527,2.527,0,0,0,1.875-.73,2.975,2.975,0,0,0,.736-2.159ZM33,.2a3.593,3.593,0,0,1-2.315-.725,2.6,2.6,0,0,1-.908-2.165,3.076,3.076,0,0,1,.29-1.38,2.433,2.433,0,0,1,.859-.961,5.155,5.155,0,0,1,1.241-.6A11.469,11.469,0,0,1,33.773-6l1.708-.279q.935-.172.935-.978a1.845,1.845,0,0,0-.661-1.574,2.692,2.692,0,0,0-1.67-.5,2.742,2.742,0,0,0-1.654.483,2.023,2.023,0,0,0-.784,1.482l-1.676-.354a3.225,3.225,0,0,1,1.321-2.261,4.937,4.937,0,0,1,2.879-.757,5.839,5.839,0,0,1,1.531.188,4.16,4.16,0,0,1,1.278.591,2.65,2.65,0,0,1,.913,1.139,4.237,4.237,0,0,1,.328,1.735v4.361a1.784,1.784,0,0,0,.242,1.1,1.043,1.043,0,0,0,.833.285h.172V0h-.924a1.762,1.762,0,0,1-2-1.429h-.086A4.035,4.035,0,0,1,33,.2Zm.43-1.5A2.818,2.818,0,0,0,35.7-2.32a4.2,4.2,0,0,0,.859-2.793l-2.793.537a3.76,3.76,0,0,0-1.638.585,1.362,1.362,0,0,0-.532,1.155,1.346,1.346,0,0,0,.51,1.16A2.181,2.181,0,0,0,33.43-1.3ZM42.088,0V-16.5h1.88V0Zm6.606-13.041a1.209,1.209,0,0,1-.886-.371,1.209,1.209,0,0,1-.371-.886,1.192,1.192,0,0,1,.371-.881,1.218,1.218,0,0,1,.886-.365,1.206,1.206,0,0,1,.875.365,1.192,1.192,0,0,1,.371.881,1.209,1.209,0,0,1-.371.886A1.2,1.2,0,0,1,48.694-13.041ZM47.749,0V-10.56h1.869V0Zm9.023,0A2.776,2.776,0,0,1,54.71-.757a2.865,2.865,0,0,1-.752-2.111V-9.077H51.8V-10.56h.795a1.526,1.526,0,0,0,1.166-.371,1.824,1.824,0,0,0,.338-1.241v-1.912h1.729v3.523h2.428v1.482H55.827v6.016a1.6,1.6,0,0,0,.4,1.166,1.411,1.411,0,0,0,1.058.414h.967V0ZM63.25.2a3.593,3.593,0,0,1-2.315-.725,2.6,2.6,0,0,1-.908-2.165,3.076,3.076,0,0,1,.29-1.38,2.433,2.433,0,0,1,.859-.961,5.155,5.155,0,0,1,1.241-.6A11.469,11.469,0,0,1,64.023-6l1.708-.279q.935-.172.935-.978a1.845,1.845,0,0,0-.661-1.574,2.692,2.692,0,0,0-1.67-.5,2.742,2.742,0,0,0-1.654.483A2.023,2.023,0,0,0,61.9-7.369l-1.676-.354a3.225,3.225,0,0,1,1.321-2.261,4.937,4.937,0,0,1,2.879-.757,5.839,5.839,0,0,1,1.531.188,4.16,4.16,0,0,1,1.278.591,2.65,2.65,0,0,1,.913,1.139,4.237,4.237,0,0,1,.328,1.735v4.361a1.784,1.784,0,0,0,.242,1.1,1.043,1.043,0,0,0,.833.285h.172V0h-.924a1.762,1.762,0,0,1-2-1.429h-.086A4.035,4.035,0,0,1,63.25.2Zm.43-1.5A2.818,2.818,0,0,0,65.946-2.32a4.2,4.2,0,0,0,.859-2.793l-2.793.537a3.76,3.76,0,0,0-1.638.585,1.362,1.362,0,0,0-.532,1.155,1.346,1.346,0,0,0,.51,1.16A2.181,2.181,0,0,0,63.68-1.3ZM75.646,0a2.776,2.776,0,0,1-2.062-.757,2.865,2.865,0,0,1-.752-2.111V-9.077H70.673V-10.56h.795a1.526,1.526,0,0,0,1.166-.371,1.824,1.824,0,0,0,.338-1.241v-1.912H74.7v3.523h2.428v1.482H74.7v6.016A1.6,1.6,0,0,0,75.1-1.9a1.411,1.411,0,0,0,1.058.414h.967V0ZM80.76-13.041a1.209,1.209,0,0,1-.886-.371A1.209,1.209,0,0,1,79.5-14.3a1.192,1.192,0,0,1,.371-.881,1.218,1.218,0,0,1,.886-.365,1.206,1.206,0,0,1,.875.365,1.192,1.192,0,0,1,.371.881,1.209,1.209,0,0,1-.371.886A1.2,1.2,0,0,1,80.76-13.041ZM79.814,0V-10.56h1.869V0ZM92.05-10.56h1.987L89.74,0H88.161L83.886-10.56h1.977l3.094,8.4ZM100.268.2a5.566,5.566,0,0,1-2.707-.655,4.771,4.771,0,0,1-1.907-1.917,5.89,5.89,0,0,1-.7-2.917,5.38,5.38,0,0,1,1.5-3.98,5.173,5.173,0,0,1,3.819-1.5,5.168,5.168,0,0,1,3.824,1.5,5.39,5.39,0,0,1,1.493,3.98,5.394,5.394,0,0,1-1.5,3.991A5.173,5.173,0,0,1,100.268.2Zm-.011-1.547a3.243,3.243,0,0,0,2.5-1.085,4.065,4.065,0,0,0,.994-2.857,4.05,4.05,0,0,0-.994-2.847,3.243,3.243,0,0,0-2.5-1.085,3.2,3.2,0,0,0-2.476,1.085A4.077,4.077,0,0,0,96.8-5.285a4.092,4.092,0,0,0,.983,2.857A3.2,3.2,0,0,0,100.257-1.343ZM111.837.2a5.006,5.006,0,0,1-2.847-.763,3.155,3.155,0,0,1-1.386-2.17l1.622-.462a2.262,2.262,0,0,0,.865,1.466,2.805,2.805,0,0,0,1.735.521,3.462,3.462,0,0,0,1.015-.14,1.627,1.627,0,0,0,.779-.521,1.4,1.4,0,0,0,.312-.961,1.4,1.4,0,0,0-.086-.435,1.865,1.865,0,0,0-.172-.349,1.064,1.064,0,0,0-.3-.29,3.966,3.966,0,0,0-.365-.226,3.749,3.749,0,0,0-.478-.2q-.317-.113-.51-.172t-.591-.172q-.4-.113-.612-.177a11.455,11.455,0,0,1-1.1-.387,4.805,4.805,0,0,1-.892-.51,2.053,2.053,0,0,1-.693-.833,2.817,2.817,0,0,1-.231-1.182,2.731,2.731,0,0,1,.516-1.687,2.9,2.9,0,0,1,1.337-.994,5.346,5.346,0,0,1,1.875-.306,4.588,4.588,0,0,1,2.573.688,2.934,2.934,0,0,1,1.284,2.063l-1.525.387a2.022,2.022,0,0,0-.806-1.337,2.565,2.565,0,0,0-1.515-.446,2.614,2.614,0,0,0-1.418.371,1.246,1.246,0,0,0-.591,1.133,1.128,1.128,0,0,0,.156.585,1.859,1.859,0,0,0,.317.414,1.948,1.948,0,0,0,.58.317q.419.167.623.226t.773.2q.107.032.161.043.623.161,1.015.285a6.24,6.24,0,0,1,.913.387,3.036,3.036,0,0,1,.822.575,2.662,2.662,0,0,1,.516.816,2.882,2.882,0,0,1,.215,1.139,3.075,3.075,0,0,1-.317,1.423,2.479,2.479,0,0,1-.865.972,4.182,4.182,0,0,1-1.23.532A5.86,5.86,0,0,1,111.837.2Z" transform="translate(1163 6311)" fill="#fff"/>
    <path id="Trazado_35901" data-name="Trazado 35901" d="M1958.917,5010v456.188" transform="translate(-1452 1330)" fill="none" stroke="#ff8f00" stroke-width="2"/>
    <path id="Trazado_36818" data-name="Trazado 36818" d="M0,0H240V70H0Z" transform="translate(555 6422)" fill="#96e5dc"/>
    <path id="Trazado_36819" data-name="Trazado 36819" d="M10.484-13.374H4.34v4.952H9.754v1.729H4.34v4.941h6.145V0H2.374V-15.125h8.11Zm8.186,2.61a3.673,3.673,0,0,1,2.659.956,3.566,3.566,0,0,1,.994,2.7V0H20.464V-6.692a2.5,2.5,0,0,0-.645-1.891A2.3,2.3,0,0,0,18.165-9.2a2.555,2.555,0,0,0-1.88.725,2.942,2.942,0,0,0-.741,2.154V0H13.686V-10.56h1.858v1.354A3.526,3.526,0,0,1,18.67-10.764ZM30.293.193a5.086,5.086,0,0,1-3.781-1.515,5.4,5.4,0,0,1-1.493-3.964,5.414,5.414,0,0,1,1.488-3.964,5.081,5.081,0,0,1,3.787-1.515,5.123,5.123,0,0,1,3.056.924,4.662,4.662,0,0,1,1.778,2.567l-1.74.279a3.214,3.214,0,0,0-1.192-1.644,3.247,3.247,0,0,0-1.912-.58,3.122,3.122,0,0,0-2.444,1.085,4.133,4.133,0,0,0-.961,2.847,4.113,4.113,0,0,0,.961,2.841,3.129,3.129,0,0,0,2.444,1.08,3.247,3.247,0,0,0,1.912-.58,3.214,3.214,0,0,0,1.192-1.644l1.74.29A4.668,4.668,0,0,1,33.338-.736,5.115,5.115,0,0,1,30.293.193ZM44.44-10.56H46.3V0H44.516l-.043-1.4A3.3,3.3,0,0,1,43.162-.209,4.031,4.031,0,0,1,41.314.2a3.673,3.673,0,0,1-2.659-.956,3.566,3.566,0,0,1-.994-2.7V-10.56h1.858v6.692a2.506,2.506,0,0,0,.65,1.891,2.3,2.3,0,0,0,1.66.623,2.527,2.527,0,0,0,1.875-.73,2.975,2.975,0,0,0,.736-2.159Zm14.878,5.07-.021.5h-8.25a3.731,3.731,0,0,0,1.01,2.7,3.315,3.315,0,0,0,2.406.94,3.166,3.166,0,0,0,1.751-.5,3.276,3.276,0,0,0,1.2-1.4l1.676.354a4.763,4.763,0,0,1-1.8,2.267,4.924,4.924,0,0,1-2.8.827,5.1,5.1,0,0,1-3.8-1.472,5.475,5.475,0,0,1-1.45-4.018,5.448,5.448,0,0,1,1.456-4.007,5.038,5.038,0,0,1,3.744-1.472,4.767,4.767,0,0,1,3.55,1.354A5.348,5.348,0,0,1,59.318-5.489ZM54.431-9.335a3.293,3.293,0,0,0-2.2.747,3.42,3.42,0,0,0-1.112,2.175h6.327a3.138,3.138,0,0,0-.924-2.175A2.983,2.983,0,0,0,54.431-9.335ZM65.57.2a5.006,5.006,0,0,1-2.847-.763,3.155,3.155,0,0,1-1.386-2.17L62.96-3.19a2.262,2.262,0,0,0,.865,1.466A2.805,2.805,0,0,0,65.56-1.2a3.462,3.462,0,0,0,1.015-.14,1.627,1.627,0,0,0,.779-.521,1.4,1.4,0,0,0,.312-.961,1.4,1.4,0,0,0-.086-.435,1.865,1.865,0,0,0-.172-.349,1.064,1.064,0,0,0-.3-.29,3.966,3.966,0,0,0-.365-.226,3.749,3.749,0,0,0-.478-.2q-.317-.113-.51-.172t-.591-.172q-.4-.113-.612-.177a11.455,11.455,0,0,1-1.1-.387,4.805,4.805,0,0,1-.892-.51,2.053,2.053,0,0,1-.693-.833,2.817,2.817,0,0,1-.231-1.182,2.731,2.731,0,0,1,.516-1.687,2.9,2.9,0,0,1,1.337-.994,5.346,5.346,0,0,1,1.875-.306,4.588,4.588,0,0,1,2.573.688,2.934,2.934,0,0,1,1.284,2.063L67.7-7.605a2.022,2.022,0,0,0-.806-1.337,2.565,2.565,0,0,0-1.515-.446,2.614,2.614,0,0,0-1.418.371,1.246,1.246,0,0,0-.591,1.133,1.128,1.128,0,0,0,.156.585,1.859,1.859,0,0,0,.317.414,1.948,1.948,0,0,0,.58.317q.419.167.623.226t.773.2q.107.032.161.043.623.161,1.015.285a6.24,6.24,0,0,1,.913.387,3.036,3.036,0,0,1,.822.575,2.662,2.662,0,0,1,.516.816A2.882,2.882,0,0,1,69.459-2.9a3.075,3.075,0,0,1-.317,1.423,2.479,2.479,0,0,1-.865.972,4.182,4.182,0,0,1-1.23.532A5.86,5.86,0,0,1,65.57.2ZM75.754,0a2.776,2.776,0,0,1-2.062-.757,2.865,2.865,0,0,1-.752-2.111V-9.077H70.78V-10.56h.795a1.526,1.526,0,0,0,1.166-.371,1.824,1.824,0,0,0,.338-1.241v-1.912h1.729v3.523h2.428v1.482H74.809v6.016a1.6,1.6,0,0,0,.4,1.166,1.411,1.411,0,0,0,1.058.414h.967V0Zm6.478.2a3.593,3.593,0,0,1-2.315-.725,2.6,2.6,0,0,1-.908-2.165,3.076,3.076,0,0,1,.29-1.38,2.434,2.434,0,0,1,.859-.961,5.155,5.155,0,0,1,1.241-.6A11.469,11.469,0,0,1,83-6l1.708-.279q.935-.172.935-.978a1.845,1.845,0,0,0-.661-1.574,2.692,2.692,0,0,0-1.67-.5,2.742,2.742,0,0,0-1.654.483,2.023,2.023,0,0,0-.784,1.482L79.2-7.724a3.225,3.225,0,0,1,1.321-2.261,4.937,4.937,0,0,1,2.879-.757,5.839,5.839,0,0,1,1.531.188,4.16,4.16,0,0,1,1.278.591,2.65,2.65,0,0,1,.913,1.139,4.237,4.237,0,0,1,.328,1.735v4.361a1.784,1.784,0,0,0,.242,1.1,1.043,1.043,0,0,0,.833.285H88.7V0h-.924a1.762,1.762,0,0,1-2-1.429H85.69A4.035,4.035,0,0,1,82.231.2Zm.43-1.5A2.818,2.818,0,0,0,84.928-2.32a4.2,4.2,0,0,0,.859-2.793l-2.793.537a3.76,3.76,0,0,0-1.638.585,1.362,1.362,0,0,0-.532,1.155,1.346,1.346,0,0,0,.51,1.16A2.181,2.181,0,0,0,82.661-1.3Z" transform="translate(627 6463)" fill="#00223d"/>
    <path id="Trazado_36820" data-name="Trazado 36820" d="M0,0H240V70H0Z" transform="translate(555 6511)" fill="#96e5dc"/>
    <path id="Trazado_36822" data-name="Trazado 36822" d="M8.1-15.125a4.478,4.478,0,0,1,2.369.628,4.245,4.245,0,0,1,1.59,1.681,4.933,4.933,0,0,1,.553,2.331A4.59,4.59,0,0,1,11.36-7.192,4.3,4.3,0,0,1,8.1-5.876H4.3V0H2.374V-15.125ZM7.82-7.552a2.75,2.75,0,0,0,2.105-.811,3,3,0,0,0,.763-2.143,3.01,3.01,0,0,0-.763-2.132A2.731,2.731,0,0,0,7.82-13.46H4.3v5.908ZM16.994.2a3.593,3.593,0,0,1-2.315-.725,2.6,2.6,0,0,1-.908-2.165,3.076,3.076,0,0,1,.29-1.38,2.433,2.433,0,0,1,.859-.961,5.155,5.155,0,0,1,1.241-.6A11.469,11.469,0,0,1,17.768-6l1.708-.279q.935-.172.935-.978a1.845,1.845,0,0,0-.661-1.574,2.692,2.692,0,0,0-1.67-.5,2.742,2.742,0,0,0-1.654.483,2.023,2.023,0,0,0-.784,1.482l-1.676-.354a3.225,3.225,0,0,1,1.321-2.261,4.937,4.937,0,0,1,2.879-.757,5.839,5.839,0,0,1,1.531.188,4.16,4.16,0,0,1,1.278.591,2.65,2.65,0,0,1,.913,1.139,4.237,4.237,0,0,1,.328,1.735v4.361a1.784,1.784,0,0,0,.242,1.1,1.043,1.043,0,0,0,.833.285h.172V0h-.924a1.762,1.762,0,0,1-2-1.429h-.086A4.035,4.035,0,0,1,16.994.2Zm.43-1.5A2.818,2.818,0,0,0,19.69-2.32a4.2,4.2,0,0,0,.859-2.793l-2.793.537a3.76,3.76,0,0,0-1.638.585,1.362,1.362,0,0,0-.532,1.155,1.346,1.346,0,0,0,.51,1.16A2.181,2.181,0,0,0,17.424-1.3Zm13.643-9.464a3.673,3.673,0,0,1,2.659.956,3.566,3.566,0,0,1,.994,2.7V0H32.86V-6.692a2.5,2.5,0,0,0-.645-1.891A2.3,2.3,0,0,0,30.562-9.2a2.555,2.555,0,0,0-1.88.725,2.942,2.942,0,0,0-.741,2.154V0H26.082V-10.56H27.94v1.354A3.526,3.526,0,0,1,31.066-10.764ZM47.545-5.489l-.021.5h-8.25a3.731,3.731,0,0,0,1.01,2.7,3.315,3.315,0,0,0,2.406.94,3.166,3.166,0,0,0,1.751-.5,3.276,3.276,0,0,0,1.2-1.4l1.676.354a4.763,4.763,0,0,1-1.8,2.267,4.924,4.924,0,0,1-2.8.827,5.1,5.1,0,0,1-3.8-1.472,5.475,5.475,0,0,1-1.45-4.018,5.448,5.448,0,0,1,1.456-4.007,5.038,5.038,0,0,1,3.744-1.472,4.767,4.767,0,0,1,3.55,1.354A5.348,5.348,0,0,1,47.545-5.489ZM42.657-9.335a3.293,3.293,0,0,0-2.2.747,3.42,3.42,0,0,0-1.112,2.175h6.327a3.138,3.138,0,0,0-.924-2.175A2.983,2.983,0,0,0,42.657-9.335ZM50.456,0V-16.5h1.88V0Zm14.9-5.489-.021.5h-8.25a3.731,3.731,0,0,0,1.01,2.7,3.315,3.315,0,0,0,2.406.94,3.166,3.166,0,0,0,1.751-.5,3.276,3.276,0,0,0,1.2-1.4l1.676.354a4.763,4.763,0,0,1-1.8,2.267,4.924,4.924,0,0,1-2.8.827,5.1,5.1,0,0,1-3.8-1.472,5.475,5.475,0,0,1-1.45-4.018,5.448,5.448,0,0,1,1.456-4.007,5.038,5.038,0,0,1,3.744-1.472,4.767,4.767,0,0,1,3.55,1.354A5.348,5.348,0,0,1,65.355-5.489ZM60.468-9.335a3.293,3.293,0,0,0-2.2.747,3.42,3.42,0,0,0-1.112,2.175h6.327a3.138,3.138,0,0,0-.924-2.175A2.983,2.983,0,0,0,60.468-9.335ZM71.607.2a5.006,5.006,0,0,1-2.847-.763,3.155,3.155,0,0,1-1.386-2.17L69-3.19a2.262,2.262,0,0,0,.865,1.466A2.805,2.805,0,0,0,71.6-1.2a3.462,3.462,0,0,0,1.015-.14,1.627,1.627,0,0,0,.779-.521,1.4,1.4,0,0,0,.312-.961,1.4,1.4,0,0,0-.086-.435,1.865,1.865,0,0,0-.172-.349,1.064,1.064,0,0,0-.3-.29,3.966,3.966,0,0,0-.365-.226,3.749,3.749,0,0,0-.478-.2q-.317-.113-.51-.172T71.2-4.667q-.4-.113-.612-.177a11.455,11.455,0,0,1-1.1-.387,4.805,4.805,0,0,1-.892-.51,2.053,2.053,0,0,1-.693-.833,2.817,2.817,0,0,1-.231-1.182,2.731,2.731,0,0,1,.516-1.687,2.9,2.9,0,0,1,1.337-.994,5.346,5.346,0,0,1,1.875-.306,4.588,4.588,0,0,1,2.573.688A2.934,2.934,0,0,1,75.26-7.992l-1.525.387a2.022,2.022,0,0,0-.806-1.337,2.565,2.565,0,0,0-1.515-.446A2.614,2.614,0,0,0,70-9.018a1.246,1.246,0,0,0-.591,1.133,1.128,1.128,0,0,0,.156.585,1.859,1.859,0,0,0,.317.414,1.948,1.948,0,0,0,.58.317q.419.167.623.226t.773.2q.107.032.161.043.623.161,1.015.285a6.24,6.24,0,0,1,.913.387,3.036,3.036,0,0,1,.822.575,2.662,2.662,0,0,1,.516.816A2.882,2.882,0,0,1,75.5-2.9a3.075,3.075,0,0,1-.317,1.423,2.479,2.479,0,0,1-.865.972,4.182,4.182,0,0,1-1.23.532A5.86,5.86,0,0,1,71.607.2Z" transform="translate(633 6552)" fill="#00223d"/>
    <path id="Trazado_36824" data-name="Trazado 36824" d="M0,0H240V70H0Z" transform="translate(555 6600)" fill="#96e5dc"/>
    <path id="Trazado_36825" data-name="Trazado 36825" d="M9.55-7.9A4.058,4.058,0,0,1,11.736-6.58a3.741,3.741,0,0,1,.8,2.476,3.961,3.961,0,0,1-1.166,2.965A4.259,4.259,0,0,1,8.261,0H2.374V-15.125H6.961A4.645,4.645,0,0,1,10.2-14.013a3.72,3.72,0,0,1,1.23,2.9,3.825,3.825,0,0,1-.489,1.944A3.107,3.107,0,0,1,9.55-7.9ZM9.625-11A2.308,2.308,0,0,0,8.9-12.751a2.717,2.717,0,0,0-1.95-.687H4.232V-8.5H7.3a2.141,2.141,0,0,0,1.67-.725A2.568,2.568,0,0,0,9.625-11ZM7.938-1.708a2.671,2.671,0,0,0,1.993-.747A2.522,2.522,0,0,0,10.667-4.3,2.483,2.483,0,0,0,9.9-6.171a2.91,2.91,0,0,0-2.1-.736H4.232v5.2ZM23.289-7.9A4.058,4.058,0,0,1,25.475-6.58a3.741,3.741,0,0,1,.8,2.476A3.961,3.961,0,0,1,25.11-1.139,4.259,4.259,0,0,1,22,0H16.113V-15.125H20.7a4.645,4.645,0,0,1,3.239,1.112,3.72,3.72,0,0,1,1.23,2.9,3.825,3.825,0,0,1-.489,1.944A3.107,3.107,0,0,1,23.289-7.9Zm.075-3.1a2.308,2.308,0,0,0-.725-1.751,2.717,2.717,0,0,0-1.95-.687H17.972V-8.5h3.072a2.141,2.141,0,0,0,1.67-.725A2.568,2.568,0,0,0,23.364-11ZM21.678-1.708a2.671,2.671,0,0,0,1.993-.747A2.522,2.522,0,0,0,24.406-4.3a2.483,2.483,0,0,0-.768-1.875,2.91,2.91,0,0,0-2.1-.736H17.972v5.2ZM29.853,0V-15.125h4.877a7.232,7.232,0,0,1,3.851.978,5.963,5.963,0,0,1,2.363,2.659,9.34,9.34,0,0,1,.768,3.916,9.906,9.906,0,0,1-.446,3.056,6.923,6.923,0,0,1-1.305,2.39,5.726,5.726,0,0,1-2.2,1.568A7.811,7.811,0,0,1,34.729,0Zm1.923-1.751h2.89A4.606,4.606,0,0,0,38.441-3.3a6.539,6.539,0,0,0,1.273-4.275,6.484,6.484,0,0,0-1.278-4.254,4.609,4.609,0,0,0-3.771-1.547h-2.89ZM45.45,0V-15.125h4.877a7.232,7.232,0,0,1,3.851.978,5.963,5.963,0,0,1,2.363,2.659,9.34,9.34,0,0,1,.768,3.916,9.906,9.906,0,0,1-.446,3.056,6.923,6.923,0,0,1-1.305,2.39,5.726,5.726,0,0,1-2.2,1.568A7.811,7.811,0,0,1,50.327,0Zm1.923-1.751h2.89A4.606,4.606,0,0,0,54.039-3.3a6.539,6.539,0,0,0,1.273-4.275,6.484,6.484,0,0,0-1.278-4.254,4.609,4.609,0,0,0-3.771-1.547h-2.89Z" transform="translate(646 6641)" fill="#00223d"/>
    <path id="Trazado_36829" data-name="Trazado 36829" d="M0,0H240V70H0Z" transform="translate(555 6689)" fill="#96e5dc"/>
    <path id="Trazado_36831" data-name="Trazado 36831" d="M10.484-13.374H4.34v4.952H9.754v1.729H4.34v4.941h6.145V0H2.374V-15.125h8.11ZM12.192,0l4.061-5.285L12.192-10.56H14.48L17.4-6.521l2.922-4.039H22.58L18.509-5.285,22.58,0H20.313l-2.9-4.018L14.48,0ZM30.443-10.764a4.8,4.8,0,0,1,1.912.387,4.7,4.7,0,0,1,1.568,1.085,5.071,5.071,0,0,1,1.058,1.74,6.417,6.417,0,0,1,.392,2.277,5.583,5.583,0,0,1-1.423,3.985A4.623,4.623,0,0,1,30.443.226a4.18,4.18,0,0,1-2.208-.6A3.943,3.943,0,0,1,26.727-2V5.317H24.868V-10.56h1.794l.043,2.052a3.865,3.865,0,0,1,1.5-1.649A4.219,4.219,0,0,1,30.443-10.764Zm-.365,9.378a3.206,3.206,0,0,0,2.444-1.069,3.976,3.976,0,0,0,.994-2.82,3.956,3.956,0,0,0-.994-2.814,3.214,3.214,0,0,0-2.444-1.063A3.222,3.222,0,0,0,27.6-8.041a3.96,3.96,0,0,0-1.01,2.766A3.975,3.975,0,0,0,27.6-2.5,3.222,3.222,0,0,0,30.078-1.386Zm17.467-4.1-.021.5h-8.25a3.731,3.731,0,0,0,1.01,2.7,3.315,3.315,0,0,0,2.406.94,3.166,3.166,0,0,0,1.751-.5,3.276,3.276,0,0,0,1.2-1.4l1.676.354a4.763,4.763,0,0,1-1.8,2.267,4.924,4.924,0,0,1-2.8.827,5.1,5.1,0,0,1-3.8-1.472,5.475,5.475,0,0,1-1.45-4.018,5.448,5.448,0,0,1,1.456-4.007,5.038,5.038,0,0,1,3.744-1.472,4.767,4.767,0,0,1,3.55,1.354A5.348,5.348,0,0,1,47.545-5.489ZM42.657-9.335a3.293,3.293,0,0,0-2.2.747,3.42,3.42,0,0,0-1.112,2.175h6.327a3.138,3.138,0,0,0-.924-2.175A2.983,2.983,0,0,0,42.657-9.335Zm9.614.634a3.192,3.192,0,0,1,1.311-1.418,3.947,3.947,0,0,1,2.03-.559v1.751a3.479,3.479,0,0,0-2.455.784,3.276,3.276,0,0,0-.843,2.5V0H50.456V-10.56h1.815Zm6.467-4.34a1.209,1.209,0,0,1-.886-.371,1.209,1.209,0,0,1-.371-.886,1.192,1.192,0,0,1,.371-.881,1.218,1.218,0,0,1,.886-.365,1.206,1.206,0,0,1,.875.365,1.192,1.192,0,0,1,.371.881,1.209,1.209,0,0,1-.371.886A1.2,1.2,0,0,1,58.738-13.041ZM57.793,0V-10.56h1.869V0ZM74.239-10.764a3.4,3.4,0,0,1,2.46.9,3.327,3.327,0,0,1,.935,2.519V0H75.775V-6.864A2.386,2.386,0,0,0,75.2-8.6,1.975,1.975,0,0,0,73.724-9.2a2.085,2.085,0,0,0-1.611.666,2.864,2.864,0,0,0-.612,2V0H69.609V-6.789a2.5,2.5,0,0,0-.585-1.8,1.991,1.991,0,0,0-1.5-.607,2.066,2.066,0,0,0-1.606.682A2.963,2.963,0,0,0,65.3-6.467V0H63.443V-10.56H65.3V-9.2a3.208,3.208,0,0,1,1.208-1.16,3.446,3.446,0,0,1,1.681-.408,3.587,3.587,0,0,1,1.8.446,2.775,2.775,0,0,1,1.171,1.284,3.286,3.286,0,0,1,1.268-1.284A3.626,3.626,0,0,1,74.239-10.764ZM90.471-5.489l-.021.5H82.2a3.731,3.731,0,0,0,1.01,2.7,3.315,3.315,0,0,0,2.406.94,3.166,3.166,0,0,0,1.751-.5,3.276,3.276,0,0,0,1.2-1.4l1.676.354a4.763,4.763,0,0,1-1.8,2.267,4.924,4.924,0,0,1-2.8.827,5.1,5.1,0,0,1-3.8-1.472,5.475,5.475,0,0,1-1.45-4.018,5.448,5.448,0,0,1,1.456-4.007,5.038,5.038,0,0,1,3.744-1.472,4.767,4.767,0,0,1,3.55,1.354A5.348,5.348,0,0,1,90.471-5.489ZM85.583-9.335a3.293,3.293,0,0,0-2.2.747,3.42,3.42,0,0,0-1.112,2.175H88.6a3.138,3.138,0,0,0-.924-2.175A2.983,2.983,0,0,0,85.583-9.335Zm12.783-1.429a3.673,3.673,0,0,1,2.659.956,3.566,3.566,0,0,1,.994,2.7V0H100.16V-6.692a2.5,2.5,0,0,0-.645-1.891A2.3,2.3,0,0,0,97.861-9.2a2.555,2.555,0,0,0-1.88.725,2.942,2.942,0,0,0-.741,2.154V0H93.382V-10.56H95.24v1.354A3.526,3.526,0,0,1,98.366-10.764ZM108.979,0a2.776,2.776,0,0,1-2.062-.757,2.865,2.865,0,0,1-.752-2.111V-9.077h-2.159V-10.56h.795a1.526,1.526,0,0,0,1.166-.371,1.824,1.824,0,0,0,.338-1.241v-1.912h1.729v3.523h2.428v1.482h-2.428v6.016a1.6,1.6,0,0,0,.4,1.166,1.411,1.411,0,0,0,1.058.414h.967V0Zm8.486.2a5.566,5.566,0,0,1-2.707-.655,4.771,4.771,0,0,1-1.907-1.917,5.89,5.89,0,0,1-.7-2.917,5.38,5.38,0,0,1,1.5-3.98,5.173,5.173,0,0,1,3.819-1.5,5.168,5.168,0,0,1,3.824,1.5,5.39,5.39,0,0,1,1.493,3.98,5.394,5.394,0,0,1-1.5,3.991A5.173,5.173,0,0,1,117.466.2Zm-.011-1.547a3.243,3.243,0,0,0,2.5-1.085,4.065,4.065,0,0,0,.994-2.857,4.05,4.05,0,0,0-.994-2.847,3.243,3.243,0,0,0-2.5-1.085,3.2,3.2,0,0,0-2.476,1.085A4.077,4.077,0,0,0,114-5.285a4.092,4.092,0,0,0,.983,2.857A3.2,3.2,0,0,0,117.455-1.343ZM129.035.2a5.006,5.006,0,0,1-2.847-.763,3.155,3.155,0,0,1-1.386-2.17l1.622-.462a2.262,2.262,0,0,0,.865,1.466,2.805,2.805,0,0,0,1.735.521,3.462,3.462,0,0,0,1.015-.14,1.627,1.627,0,0,0,.779-.521,1.4,1.4,0,0,0,.312-.961,1.4,1.4,0,0,0-.086-.435,1.865,1.865,0,0,0-.172-.349,1.064,1.064,0,0,0-.3-.29,3.965,3.965,0,0,0-.365-.226,3.749,3.749,0,0,0-.478-.2q-.317-.113-.51-.172t-.591-.172q-.4-.113-.612-.177a11.455,11.455,0,0,1-1.1-.387,4.805,4.805,0,0,1-.892-.51,2.053,2.053,0,0,1-.693-.833,2.817,2.817,0,0,1-.231-1.182,2.731,2.731,0,0,1,.516-1.687,2.9,2.9,0,0,1,1.337-.994,5.346,5.346,0,0,1,1.875-.306,4.588,4.588,0,0,1,2.573.688,2.934,2.934,0,0,1,1.284,2.063l-1.525.387a2.022,2.022,0,0,0-.806-1.337,2.565,2.565,0,0,0-1.515-.446,2.614,2.614,0,0,0-1.418.371,1.246,1.246,0,0,0-.591,1.133,1.128,1.128,0,0,0,.156.585,1.859,1.859,0,0,0,.317.414,1.948,1.948,0,0,0,.58.317q.419.167.623.226t.773.2q.107.032.161.043.623.161,1.015.285a6.24,6.24,0,0,1,.913.387,3.035,3.035,0,0,1,.822.575,2.663,2.663,0,0,1,.516.816,2.882,2.882,0,0,1,.215,1.139,3.075,3.075,0,0,1-.317,1.423,2.479,2.479,0,0,1-.865.972,4.182,4.182,0,0,1-1.23.532A5.86,5.86,0,0,1,129.035.2Z" transform="translate(609 6730)" fill="#00223d"/>
    <path id="Trazado_35902" data-name="Trazado 35902" d="M1959.5,5126h47.344" transform="translate(-1452 1330)" fill="none" stroke="#ff8f00" stroke-width="2"/>
    <path id="Trazado_35903" data-name="Trazado 35903" d="M1959.5,5126h47.344" transform="translate(-1452 1420)" fill="none" stroke="#ff8f00" stroke-width="2"/>
    <path id="Trazado_35904" data-name="Trazado 35904" d="M1959.5,5126h47.344" transform="translate(-1452 1510)" fill="none" stroke="#ff8f00" stroke-width="2"/>
    <path id="Trazado_35905" data-name="Trazado 35905" d="M1959.5,5126h47.344" transform="translate(-1452 1600)" fill="none" stroke="#ff8f00" stroke-width="2"/>
    <path id="Trazado_35906" data-name="Trazado 35906" d="M1958.917,5010v473" transform="translate(-778 1330)" fill="none" stroke="#ff8f00" stroke-width="2"/>
    <path id="Trazado_36826" data-name="Trazado 36826" d="M0,0H240V70H0Z" transform="translate(1229 6422)" fill="#ffd7a3"/>
    <path id="Trazado_36832" data-name="Trazado 36832" d="M10.484-13.374H4.34v4.952H9.754v1.729H4.34v4.941h6.145V0H2.374V-15.125h8.11Zm8.186,2.61a3.673,3.673,0,0,1,2.659.956,3.566,3.566,0,0,1,.994,2.7V0H20.464V-6.692a2.5,2.5,0,0,0-.645-1.891A2.3,2.3,0,0,0,18.165-9.2a2.555,2.555,0,0,0-1.88.725,2.942,2.942,0,0,0-.741,2.154V0H13.686V-10.56h1.858v1.354A3.526,3.526,0,0,1,18.67-10.764ZM29.283,0a2.776,2.776,0,0,1-2.062-.757,2.865,2.865,0,0,1-.752-2.111V-9.077H24.31V-10.56H25.1a1.526,1.526,0,0,0,1.166-.371,1.824,1.824,0,0,0,.338-1.241v-1.912h1.729v3.523h2.428v1.482H28.338v6.016a1.6,1.6,0,0,0,.4,1.166,1.411,1.411,0,0,0,1.058.414h.967V0Zm5.983-8.7a3.192,3.192,0,0,1,1.311-1.418,3.947,3.947,0,0,1,2.03-.559v1.751a3.479,3.479,0,0,0-2.455.784,3.276,3.276,0,0,0-.843,2.5V0H33.451V-10.56h1.815ZM49.9-5.489l-.021.5h-8.25a3.731,3.731,0,0,0,1.01,2.7,3.315,3.315,0,0,0,2.406.94,3.166,3.166,0,0,0,1.751-.5,3.276,3.276,0,0,0,1.2-1.4l1.676.354a4.763,4.763,0,0,1-1.8,2.267,4.924,4.924,0,0,1-2.8.827,5.1,5.1,0,0,1-3.8-1.472,5.475,5.475,0,0,1-1.45-4.018,5.448,5.448,0,0,1,1.456-4.007,5.038,5.038,0,0,1,3.744-1.472A4.767,4.767,0,0,1,48.56-9.41,5.348,5.348,0,0,1,49.9-5.489ZM45.01-9.335a3.293,3.293,0,0,0-2.2.747A3.42,3.42,0,0,0,41.7-6.413h6.327A3.138,3.138,0,0,0,47.1-8.588,2.983,2.983,0,0,0,45.01-9.335ZM58.975-10.56h1.987L56.665,0H55.086L50.811-10.56h1.977l3.094,8.4Zm5.135-2.481a1.209,1.209,0,0,1-.886-.371,1.209,1.209,0,0,1-.371-.886,1.192,1.192,0,0,1,.371-.881,1.218,1.218,0,0,1,.886-.365,1.206,1.206,0,0,1,.875.365,1.192,1.192,0,0,1,.371.881,1.209,1.209,0,0,1-.371.886A1.2,1.2,0,0,1,64.109-13.041ZM63.164,0V-10.56h1.869V0Zm8.991.2a5.006,5.006,0,0,1-2.847-.763,3.155,3.155,0,0,1-1.386-2.17l1.622-.462a2.262,2.262,0,0,0,.865,1.466,2.805,2.805,0,0,0,1.735.521,3.462,3.462,0,0,0,1.015-.14,1.627,1.627,0,0,0,.779-.521,1.4,1.4,0,0,0,.312-.961,1.4,1.4,0,0,0-.086-.435,1.865,1.865,0,0,0-.172-.349,1.064,1.064,0,0,0-.3-.29,3.966,3.966,0,0,0-.365-.226,3.749,3.749,0,0,0-.478-.2q-.317-.113-.51-.172t-.591-.172q-.4-.113-.612-.177a11.455,11.455,0,0,1-1.1-.387,4.805,4.805,0,0,1-.892-.51,2.053,2.053,0,0,1-.693-.833,2.817,2.817,0,0,1-.231-1.182,2.731,2.731,0,0,1,.516-1.687,2.9,2.9,0,0,1,1.337-.994,5.346,5.346,0,0,1,1.875-.306,4.588,4.588,0,0,1,2.573.688,2.934,2.934,0,0,1,1.284,2.063l-1.525.387a2.022,2.022,0,0,0-.806-1.337,2.565,2.565,0,0,0-1.515-.446,2.614,2.614,0,0,0-1.418.371,1.246,1.246,0,0,0-.591,1.133,1.128,1.128,0,0,0,.156.585,1.859,1.859,0,0,0,.317.414,1.948,1.948,0,0,0,.58.317q.419.167.623.226t.773.2q.107.032.161.043.623.161,1.015.285a6.24,6.24,0,0,1,.913.387,3.036,3.036,0,0,1,.822.575,2.662,2.662,0,0,1,.516.816A2.882,2.882,0,0,1,76.044-2.9a3.075,3.075,0,0,1-.317,1.423,2.479,2.479,0,0,1-.865.972,4.182,4.182,0,0,1-1.23.532A5.86,5.86,0,0,1,72.155.2ZM82.339,0a2.776,2.776,0,0,1-2.062-.757,2.865,2.865,0,0,1-.752-2.111V-9.077H77.365V-10.56h.795a1.526,1.526,0,0,0,1.166-.371,1.824,1.824,0,0,0,.338-1.241v-1.912h1.729v3.523h2.428v1.482H81.394v6.016A1.6,1.6,0,0,0,81.8-1.9a1.411,1.411,0,0,0,1.058.414h.967V0Zm6.478.2A3.593,3.593,0,0,1,86.5-.521a2.6,2.6,0,0,1-.908-2.165,3.076,3.076,0,0,1,.29-1.38,2.434,2.434,0,0,1,.859-.961,5.155,5.155,0,0,1,1.241-.6A11.469,11.469,0,0,1,89.59-6L91.3-6.284q.935-.172.935-.978a1.845,1.845,0,0,0-.661-1.574,2.692,2.692,0,0,0-1.67-.5,2.742,2.742,0,0,0-1.654.483,2.023,2.023,0,0,0-.784,1.482l-1.676-.354a3.225,3.225,0,0,1,1.321-2.261,4.937,4.937,0,0,1,2.879-.757,5.839,5.839,0,0,1,1.531.188,4.16,4.16,0,0,1,1.278.591,2.65,2.65,0,0,1,.913,1.139,4.237,4.237,0,0,1,.328,1.735v4.361a1.784,1.784,0,0,0,.242,1.1,1.043,1.043,0,0,0,.833.285h.172V0h-.924a1.762,1.762,0,0,1-2-1.429h-.086A4.035,4.035,0,0,1,88.816.2Zm.43-1.5A2.818,2.818,0,0,0,91.513-2.32a4.2,4.2,0,0,0,.859-2.793l-2.793.537a3.76,3.76,0,0,0-1.638.585,1.362,1.362,0,0,0-.532,1.155,1.346,1.346,0,0,0,.51,1.16A2.181,2.181,0,0,0,89.246-1.3Zm12,1.5A5.006,5.006,0,0,1,98.4-.559a3.155,3.155,0,0,1-1.386-2.17l1.622-.462A2.262,2.262,0,0,0,99.5-1.724a2.805,2.805,0,0,0,1.735.521,3.462,3.462,0,0,0,1.015-.14,1.627,1.627,0,0,0,.779-.521,1.4,1.4,0,0,0,.312-.961,1.4,1.4,0,0,0-.086-.435,1.865,1.865,0,0,0-.172-.349,1.064,1.064,0,0,0-.3-.29,3.966,3.966,0,0,0-.365-.226,3.749,3.749,0,0,0-.478-.2q-.317-.113-.51-.172t-.591-.172q-.4-.113-.612-.177a11.455,11.455,0,0,1-1.1-.387,4.805,4.805,0,0,1-.892-.51,2.053,2.053,0,0,1-.693-.833,2.817,2.817,0,0,1-.231-1.182,2.731,2.731,0,0,1,.516-1.687,2.9,2.9,0,0,1,1.337-.994,5.346,5.346,0,0,1,1.875-.306,4.588,4.588,0,0,1,2.573.688A2.934,2.934,0,0,1,104.9-7.992l-1.525.387a2.022,2.022,0,0,0-.806-1.337,2.565,2.565,0,0,0-1.515-.446,2.614,2.614,0,0,0-1.418.371,1.246,1.246,0,0,0-.591,1.133A1.128,1.128,0,0,0,99.2-7.3a1.859,1.859,0,0,0,.317.414,1.948,1.948,0,0,0,.58.317q.419.167.623.226t.773.2q.107.032.161.043.623.161,1.015.285a6.24,6.24,0,0,1,.913.387,3.036,3.036,0,0,1,.822.575,2.662,2.662,0,0,1,.516.816,2.882,2.882,0,0,1,.215,1.139,3.075,3.075,0,0,1-.317,1.423,2.479,2.479,0,0,1-.865.972,4.182,4.182,0,0,1-1.23.532A5.86,5.86,0,0,1,101.245.2Z" transform="translate(1267 6463)" fill="#00223d"/>
    <path id="Trazado_36827" data-name="Trazado 36827" d="M0,0H240V70H0Z" transform="translate(1229 6511)" fill="#ffd7a3"/>
    <path id="Trazado_36833" data-name="Trazado 36833" d="M10.549-13.374H4.34v4.941H9.754v1.74H4.34V0H2.374V-15.125h8.175ZM17.316.2a5.566,5.566,0,0,1-2.707-.655A4.771,4.771,0,0,1,12.7-2.369,5.89,5.89,0,0,1,12-5.285a5.38,5.38,0,0,1,1.5-3.98,5.173,5.173,0,0,1,3.819-1.5,5.168,5.168,0,0,1,3.824,1.5,5.39,5.39,0,0,1,1.493,3.98,5.394,5.394,0,0,1-1.5,3.991A5.173,5.173,0,0,1,17.316.2Zm-.011-1.547a3.243,3.243,0,0,0,2.5-1.085A4.065,4.065,0,0,0,20.8-5.285,4.05,4.05,0,0,0,19.8-8.132a3.243,3.243,0,0,0-2.5-1.085A3.2,3.2,0,0,0,14.83-8.132a4.077,4.077,0,0,0-.983,2.847,4.092,4.092,0,0,0,.983,2.857A3.2,3.2,0,0,0,17.306-1.343ZM29.928.193a5.086,5.086,0,0,1-3.781-1.515,5.4,5.4,0,0,1-1.493-3.964,5.414,5.414,0,0,1,1.488-3.964,5.081,5.081,0,0,1,3.787-1.515,5.123,5.123,0,0,1,3.056.924,4.662,4.662,0,0,1,1.778,2.567l-1.74.279a3.214,3.214,0,0,0-1.192-1.644,3.247,3.247,0,0,0-1.912-.58,3.122,3.122,0,0,0-2.444,1.085,4.133,4.133,0,0,0-.961,2.847,4.113,4.113,0,0,0,.961,2.841,3.129,3.129,0,0,0,2.444,1.08,3.247,3.247,0,0,0,1.912-.58,3.214,3.214,0,0,0,1.192-1.644l1.74.29A4.668,4.668,0,0,1,32.973-.736,5.115,5.115,0,0,1,29.928.193ZM44.075-10.56h1.858V0H44.15l-.043-1.4A3.3,3.3,0,0,1,42.8-.209,4.031,4.031,0,0,1,40.949.2a3.673,3.673,0,0,1-2.659-.956,3.566,3.566,0,0,1-.994-2.7V-10.56h1.858v6.692a2.506,2.506,0,0,0,.65,1.891,2.3,2.3,0,0,0,1.66.623,2.527,2.527,0,0,0,1.875-.73,2.975,2.975,0,0,0,.736-2.159ZM53.056.2a5.006,5.006,0,0,1-2.847-.763,3.155,3.155,0,0,1-1.386-2.17l1.622-.462a2.262,2.262,0,0,0,.865,1.466,2.805,2.805,0,0,0,1.735.521,3.462,3.462,0,0,0,1.015-.14,1.627,1.627,0,0,0,.779-.521,1.4,1.4,0,0,0,.312-.961,1.4,1.4,0,0,0-.086-.435,1.865,1.865,0,0,0-.172-.349,1.064,1.064,0,0,0-.3-.29,3.966,3.966,0,0,0-.365-.226,3.749,3.749,0,0,0-.478-.2q-.317-.113-.51-.172t-.591-.172q-.4-.113-.612-.177a11.454,11.454,0,0,1-1.1-.387,4.805,4.805,0,0,1-.892-.51,2.053,2.053,0,0,1-.693-.833,2.817,2.817,0,0,1-.231-1.182,2.731,2.731,0,0,1,.516-1.687,2.9,2.9,0,0,1,1.337-.994,5.346,5.346,0,0,1,1.875-.306,4.588,4.588,0,0,1,2.573.688,2.934,2.934,0,0,1,1.284,2.063l-1.525.387a2.022,2.022,0,0,0-.806-1.337,2.565,2.565,0,0,0-1.515-.446,2.614,2.614,0,0,0-1.418.371,1.246,1.246,0,0,0-.591,1.133,1.128,1.128,0,0,0,.156.585,1.859,1.859,0,0,0,.317.414,1.948,1.948,0,0,0,.58.317q.419.167.623.226t.773.2q.107.032.161.043.623.161,1.015.285a6.24,6.24,0,0,1,.913.387,3.036,3.036,0,0,1,.822.575,2.663,2.663,0,0,1,.516.816A2.882,2.882,0,0,1,56.944-2.9a3.075,3.075,0,0,1-.317,1.423,2.479,2.479,0,0,1-.865.972,4.182,4.182,0,0,1-1.23.532A5.86,5.86,0,0,1,53.056.2ZM72.488.2A8.076,8.076,0,0,1,69.54-.328a7.028,7.028,0,0,1-2.374-1.5A6.778,6.778,0,0,1,65.586-4.27a8.835,8.835,0,0,1-.575-3.25,8.448,8.448,0,0,1,1-4.179,6.712,6.712,0,0,1,2.7-2.712,7.927,7.927,0,0,1,3.835-.918,7.865,7.865,0,0,1,3.771.9,6.536,6.536,0,0,1,2.653,2.621l-1.7.913a4.835,4.835,0,0,0-1.955-1.993,5.709,5.709,0,0,0-2.771-.671,6.015,6.015,0,0,0-2.2.4,5.18,5.18,0,0,0-1.778,1.144,5.145,5.145,0,0,0-1.187,1.9,7.286,7.286,0,0,0-.43,2.567,7.247,7.247,0,0,0,.424,2.546,5.208,5.208,0,0,0,1.182,1.9,5.135,5.135,0,0,0,1.794,1.16,6.16,6.16,0,0,0,2.25.4A5.155,5.155,0,0,0,76.06-2.723,4.942,4.942,0,0,0,77.688-6.08h-5.1V-7.713h6.982V0H77.988V-2.836a5.3,5.3,0,0,1-2.165,2.25A6.728,6.728,0,0,1,72.488.2ZM84.906-8.7a3.192,3.192,0,0,1,1.311-1.418,3.947,3.947,0,0,1,2.03-.559v1.751a3.479,3.479,0,0,0-2.455.784,3.276,3.276,0,0,0-.843,2.5V0H83.091V-10.56h1.815ZM94.746.2a5.566,5.566,0,0,1-2.707-.655,4.771,4.771,0,0,1-1.907-1.917,5.89,5.89,0,0,1-.7-2.917,5.38,5.38,0,0,1,1.5-3.98,5.173,5.173,0,0,1,3.819-1.5,5.168,5.168,0,0,1,3.824,1.5,5.39,5.39,0,0,1,1.493,3.98,5.394,5.394,0,0,1-1.5,3.991A5.173,5.173,0,0,1,94.746.2Zm-.011-1.547a3.243,3.243,0,0,0,2.5-1.085,4.065,4.065,0,0,0,.994-2.857,4.05,4.05,0,0,0-.994-2.847,3.243,3.243,0,0,0-2.5-1.085,3.2,3.2,0,0,0-2.476,1.085,4.077,4.077,0,0,0-.983,2.847,4.092,4.092,0,0,0,.983,2.857A3.2,3.2,0,0,0,94.735-1.343Zm14.813-9.217h1.858V0h-1.783l-.043-1.4a3.3,3.3,0,0,1-1.311,1.187A4.031,4.031,0,0,1,106.423.2a3.673,3.673,0,0,1-2.659-.956,3.566,3.566,0,0,1-.994-2.7V-10.56h1.858v6.692a2.506,2.506,0,0,0,.65,1.891,2.3,2.3,0,0,0,1.66.623,2.527,2.527,0,0,0,1.875-.73,2.975,2.975,0,0,0,.736-2.159Zm11.215-.2a4.8,4.8,0,0,1,1.912.387,4.7,4.7,0,0,1,1.568,1.085,5.071,5.071,0,0,1,1.058,1.74,6.417,6.417,0,0,1,.392,2.277,5.583,5.583,0,0,1-1.423,3.985A4.623,4.623,0,0,1,120.764.226a4.18,4.18,0,0,1-2.208-.6A3.943,3.943,0,0,1,117.047-2V5.317h-1.858V-10.56h1.794l.043,2.052a3.865,3.865,0,0,1,1.5-1.649A4.219,4.219,0,0,1,120.764-10.764ZM120.4-1.386a3.206,3.206,0,0,0,2.444-1.069,3.976,3.976,0,0,0,.994-2.82,3.956,3.956,0,0,0-.994-2.814A3.214,3.214,0,0,0,120.4-9.152a3.222,3.222,0,0,0-2.481,1.112,3.96,3.96,0,0,0-1.01,2.766,3.975,3.975,0,0,0,1.01,2.777A3.222,3.222,0,0,0,120.4-1.386Z" transform="translate(1267 6552)" fill="#00223d"/>
    <path id="Trazado_36828" data-name="Trazado 36828" d="M0,0H240V70H0Z" transform="translate(1229 6600)" fill="#ffd7a3"/>
    <path id="Trazado_36834" data-name="Trazado 36834" d="M8.852.2A8.035,8.035,0,0,1,5.876-.338a7.186,7.186,0,0,1-2.39-1.525A6.8,6.8,0,0,1,1.9-4.318a8.877,8.877,0,0,1-.575-3.255,8.732,8.732,0,0,1,.58-3.239,6.964,6.964,0,0,1,1.59-2.455,7.017,7.017,0,0,1,2.385-1.525,8.107,8.107,0,0,1,2.976-.537,7.976,7.976,0,0,1,2.954.542,7.127,7.127,0,0,1,2.385,1.525,6.908,6.908,0,0,1,1.59,2.449,8.732,8.732,0,0,1,.58,3.239,8.816,8.816,0,0,1-.58,3.25,6.891,6.891,0,0,1-1.59,2.46A7.127,7.127,0,0,1,11.806-.338,7.976,7.976,0,0,1,8.852.2Zm0-1.815a5.4,5.4,0,0,0,4-1.6,5.924,5.924,0,0,0,1.584-4.367A6.935,6.935,0,0,0,14-10.087a5.178,5.178,0,0,0-1.192-1.869,5.231,5.231,0,0,0-1.772-1.139,5.943,5.943,0,0,0-2.186-.4,6.015,6.015,0,0,0-2.2.4,5.277,5.277,0,0,0-1.783,1.139,5.141,5.141,0,0,0-1.2,1.869,6.935,6.935,0,0,0-.435,2.514,7.053,7.053,0,0,0,.435,2.535,5.126,5.126,0,0,0,1.2,1.88A5.346,5.346,0,0,0,6.649-2.014,5.944,5.944,0,0,0,8.852-1.611Zm16.317-9.152A4.6,4.6,0,0,1,28.66-9.238a5.565,5.565,0,0,1,1.429,3.964A5.6,5.6,0,0,1,28.671-1.3a4.591,4.591,0,0,1-3.5,1.525,4.238,4.238,0,0,1-2.25-.612,3.875,3.875,0,0,1-1.509-1.665L21.366,0H19.572V-16.5H21.42l.011,7.96a3.892,3.892,0,0,1,1.509-1.627A4.248,4.248,0,0,1,25.169-10.764Zm-.408,9.378a3.232,3.232,0,0,0,2.471-1.08,3.972,3.972,0,0,0,1-2.809,3.972,3.972,0,0,0-1-2.809,3.232,3.232,0,0,0-2.471-1.08,3.16,3.16,0,0,0-2.449,1.117,4.005,4.005,0,0,0-1,2.771A4.013,4.013,0,0,0,22.306-2.5,3.162,3.162,0,0,0,24.761-1.386ZM36.352.2A5.006,5.006,0,0,1,33.5-.559a3.155,3.155,0,0,1-1.386-2.17l1.622-.462a2.262,2.262,0,0,0,.865,1.466,2.805,2.805,0,0,0,1.735.521,3.462,3.462,0,0,0,1.015-.14,1.627,1.627,0,0,0,.779-.521,1.4,1.4,0,0,0,.312-.961,1.4,1.4,0,0,0-.086-.435,1.865,1.865,0,0,0-.172-.349,1.064,1.064,0,0,0-.3-.29,3.966,3.966,0,0,0-.365-.226,3.749,3.749,0,0,0-.478-.2q-.317-.113-.51-.172t-.591-.172q-.4-.113-.612-.177a11.454,11.454,0,0,1-1.1-.387,4.805,4.805,0,0,1-.892-.51,2.053,2.053,0,0,1-.693-.833,2.817,2.817,0,0,1-.231-1.182,2.731,2.731,0,0,1,.516-1.687,2.9,2.9,0,0,1,1.337-.994,5.346,5.346,0,0,1,1.875-.306,4.588,4.588,0,0,1,2.573.688A2.934,2.934,0,0,1,40-7.992l-1.525.387a2.022,2.022,0,0,0-.806-1.337,2.565,2.565,0,0,0-1.515-.446,2.614,2.614,0,0,0-1.418.371,1.246,1.246,0,0,0-.591,1.133,1.128,1.128,0,0,0,.156.585,1.859,1.859,0,0,0,.317.414,1.948,1.948,0,0,0,.58.317q.419.167.623.226t.773.2q.107.032.161.043.623.161,1.015.285a6.24,6.24,0,0,1,.913.387,3.036,3.036,0,0,1,.822.575,2.663,2.663,0,0,1,.516.816A2.882,2.882,0,0,1,40.24-2.9a3.075,3.075,0,0,1-.317,1.423,2.479,2.479,0,0,1-.865.972,4.182,4.182,0,0,1-1.23.532A5.86,5.86,0,0,1,36.352.2ZM52.4-5.489l-.021.5h-8.25a3.731,3.731,0,0,0,1.01,2.7,3.315,3.315,0,0,0,2.406.94,3.166,3.166,0,0,0,1.751-.5,3.276,3.276,0,0,0,1.2-1.4l1.676.354a4.763,4.763,0,0,1-1.8,2.267,4.924,4.924,0,0,1-2.8.827,5.1,5.1,0,0,1-3.8-1.472,5.475,5.475,0,0,1-1.45-4.018,5.448,5.448,0,0,1,1.456-4.007,5.038,5.038,0,0,1,3.744-1.472,4.767,4.767,0,0,1,3.55,1.354A5.348,5.348,0,0,1,52.4-5.489ZM47.513-9.335a3.293,3.293,0,0,0-2.2.747A3.42,3.42,0,0,0,44.2-6.413h6.327a3.138,3.138,0,0,0-.924-2.175A2.983,2.983,0,0,0,47.513-9.335Zm9.614.634a3.192,3.192,0,0,1,1.311-1.418,3.947,3.947,0,0,1,2.03-.559v1.751a3.479,3.479,0,0,0-2.455.784,3.276,3.276,0,0,0-.843,2.5V0H55.312V-10.56h1.815ZM69.448-10.56h1.987L67.139,0H65.56L61.284-10.56h1.977l3.094,8.4ZM75.657.2a3.593,3.593,0,0,1-2.315-.725,2.6,2.6,0,0,1-.908-2.165,3.076,3.076,0,0,1,.29-1.38,2.434,2.434,0,0,1,.859-.961,5.155,5.155,0,0,1,1.241-.6A11.469,11.469,0,0,1,76.431-6l1.708-.279q.935-.172.935-.978a1.845,1.845,0,0,0-.661-1.574,2.692,2.692,0,0,0-1.67-.5,2.742,2.742,0,0,0-1.654.483A2.023,2.023,0,0,0,74.3-7.369l-1.676-.354a3.225,3.225,0,0,1,1.321-2.261,4.937,4.937,0,0,1,2.879-.757,5.839,5.839,0,0,1,1.531.188,4.16,4.16,0,0,1,1.278.591,2.65,2.65,0,0,1,.913,1.139,4.237,4.237,0,0,1,.328,1.735v4.361a1.784,1.784,0,0,0,.242,1.1,1.043,1.043,0,0,0,.833.285h.172V0H81.2a1.762,1.762,0,0,1-2-1.429h-.086A4.035,4.035,0,0,1,75.657.2Zm.43-1.5A2.818,2.818,0,0,0,78.354-2.32a4.2,4.2,0,0,0,.859-2.793l-2.793.537a3.76,3.76,0,0,0-1.638.585,1.362,1.362,0,0,0-.532,1.155,1.346,1.346,0,0,0,.51,1.16A2.181,2.181,0,0,0,76.087-1.3ZM88.913.193a5.086,5.086,0,0,1-3.781-1.515,5.4,5.4,0,0,1-1.493-3.964,5.414,5.414,0,0,1,1.488-3.964,5.081,5.081,0,0,1,3.787-1.515,5.123,5.123,0,0,1,3.056.924,4.662,4.662,0,0,1,1.778,2.567l-1.74.279a3.214,3.214,0,0,0-1.192-1.644,3.247,3.247,0,0,0-1.912-.58,3.122,3.122,0,0,0-2.444,1.085A4.133,4.133,0,0,0,85.5-5.285a4.113,4.113,0,0,0,.961,2.841A3.129,3.129,0,0,0,88.9-1.364a3.247,3.247,0,0,0,1.912-.58,3.214,3.214,0,0,0,1.192-1.644l1.74.29A4.668,4.668,0,0,1,91.958-.736,5.115,5.115,0,0,1,88.913.193Zm8.519-13.234a1.209,1.209,0,0,1-.886-.371,1.209,1.209,0,0,1-.371-.886,1.192,1.192,0,0,1,.371-.881,1.218,1.218,0,0,1,.886-.365,1.206,1.206,0,0,1,.875.365,1.192,1.192,0,0,1,.371.881,1.209,1.209,0,0,1-.371.886A1.2,1.2,0,0,1,97.432-13.041ZM96.486,0V-10.56h1.869V0Zm10.1.2a5.566,5.566,0,0,1-2.707-.655,4.771,4.771,0,0,1-1.907-1.917,5.89,5.89,0,0,1-.7-2.917,5.38,5.38,0,0,1,1.5-3.98,5.173,5.173,0,0,1,3.819-1.5,5.168,5.168,0,0,1,3.824,1.5,5.39,5.39,0,0,1,1.493,3.98,5.394,5.394,0,0,1-1.5,3.991A5.173,5.173,0,0,1,106.584.2Zm-.011-1.547a3.243,3.243,0,0,0,2.5-1.085,4.065,4.065,0,0,0,.994-2.857,4.05,4.05,0,0,0-.994-2.847,3.243,3.243,0,0,0-2.5-1.085A3.2,3.2,0,0,0,104.1-8.132a4.077,4.077,0,0,0-.983,2.847,4.092,4.092,0,0,0,.983,2.857A3.2,3.2,0,0,0,106.573-1.343ZM119.8-10.764a3.673,3.673,0,0,1,2.659.956,3.566,3.566,0,0,1,.994,2.7V0h-1.858V-6.692a2.5,2.5,0,0,0-.645-1.891,2.3,2.3,0,0,0-1.654-.612,2.555,2.555,0,0,0-1.88.725,2.942,2.942,0,0,0-.741,2.154V0h-1.858V-10.56h1.858v1.354A3.526,3.526,0,0,1,119.8-10.764Zm16.479,5.274-.021.5H128a3.731,3.731,0,0,0,1.01,2.7,3.315,3.315,0,0,0,2.406.94,3.166,3.166,0,0,0,1.751-.5,3.276,3.276,0,0,0,1.2-1.4l1.676.354a4.763,4.763,0,0,1-1.8,2.267,4.924,4.924,0,0,1-2.8.827,5.1,5.1,0,0,1-3.8-1.472,5.475,5.475,0,0,1-1.45-4.018,5.448,5.448,0,0,1,1.456-4.007,5.038,5.038,0,0,1,3.744-1.472,4.767,4.767,0,0,1,3.55,1.354A5.348,5.348,0,0,1,136.275-5.489Zm-4.888-3.846a3.293,3.293,0,0,0-2.2.747,3.42,3.42,0,0,0-1.112,2.175h6.327a3.138,3.138,0,0,0-.924-2.175A2.983,2.983,0,0,0,131.388-9.335ZM142.527.2a5.006,5.006,0,0,1-2.847-.763,3.155,3.155,0,0,1-1.386-2.17l1.622-.462a2.262,2.262,0,0,0,.865,1.466,2.805,2.805,0,0,0,1.735.521,3.462,3.462,0,0,0,1.015-.14,1.627,1.627,0,0,0,.779-.521,1.4,1.4,0,0,0,.312-.961,1.4,1.4,0,0,0-.086-.435,1.865,1.865,0,0,0-.172-.349,1.064,1.064,0,0,0-.3-.29,3.965,3.965,0,0,0-.365-.226,3.749,3.749,0,0,0-.478-.2q-.317-.113-.51-.172t-.591-.172q-.4-.113-.612-.177a11.453,11.453,0,0,1-1.1-.387,4.805,4.805,0,0,1-.892-.51,2.053,2.053,0,0,1-.693-.833,2.817,2.817,0,0,1-.231-1.182,2.731,2.731,0,0,1,.516-1.687,2.9,2.9,0,0,1,1.337-.994,5.346,5.346,0,0,1,1.875-.306,4.588,4.588,0,0,1,2.573.688,2.934,2.934,0,0,1,1.284,2.063l-1.525.387a2.022,2.022,0,0,0-.806-1.337,2.565,2.565,0,0,0-1.515-.446,2.614,2.614,0,0,0-1.418.371,1.246,1.246,0,0,0-.591,1.133,1.128,1.128,0,0,0,.156.585,1.859,1.859,0,0,0,.317.414,1.948,1.948,0,0,0,.58.317q.419.167.623.226t.773.2q.107.032.161.043.623.161,1.015.285a6.24,6.24,0,0,1,.913.387,3.035,3.035,0,0,1,.822.575,2.663,2.663,0,0,1,.516.816,2.882,2.882,0,0,1,.215,1.139,3.075,3.075,0,0,1-.317,1.423,2.479,2.479,0,0,1-.865.972A4.182,4.182,0,0,1,144,.027,5.86,5.86,0,0,1,142.527.2Z" transform="translate(1267 6641)" fill="#00223d"/>
    <path id="Trazado_36830" data-name="Trazado 36830" d="M0,0H240V70H0Z" transform="translate(1229 6689)" fill="#ffd7a3"/>
    <path id="Trazado_36835" data-name="Trazado 36835" d="M10.28-15.125v1.751H6.4V0H4.49V-13.374H.6v-1.751ZM11.763.215a1.206,1.206,0,0,1-.875-.365,1.192,1.192,0,0,1-.371-.881,1.2,1.2,0,0,1,.371-.875,1.2,1.2,0,0,1,.875-.371,1.215,1.215,0,0,1,.881.371,1.189,1.189,0,0,1,.376.875,1.192,1.192,0,0,1-.371.881A1.218,1.218,0,0,1,11.763.215Zm17.37-15.34A4.478,4.478,0,0,1,31.5-14.5a4.245,4.245,0,0,1,1.59,1.681,4.933,4.933,0,0,1,.553,2.331,4.59,4.59,0,0,1-1.251,3.292,4.3,4.3,0,0,1-3.26,1.316h-3.8V0H23.407V-15.125Zm-.279,7.573a2.75,2.75,0,0,0,2.105-.811,3,3,0,0,0,.763-2.143,3.01,3.01,0,0,0-.763-2.132,2.731,2.731,0,0,0-2.105-.822H25.33v5.908ZM38.35-8.7a3.192,3.192,0,0,1,1.311-1.418,3.947,3.947,0,0,1,2.03-.559v1.751a3.479,3.479,0,0,0-2.455.784,3.276,3.276,0,0,0-.843,2.5V0H36.534V-10.56H38.35ZM48.189.2a5.566,5.566,0,0,1-2.707-.655,4.771,4.771,0,0,1-1.907-1.917,5.89,5.89,0,0,1-.7-2.917,5.38,5.38,0,0,1,1.5-3.98,5.173,5.173,0,0,1,3.819-1.5,5.168,5.168,0,0,1,3.824,1.5,5.39,5.39,0,0,1,1.493,3.98,5.394,5.394,0,0,1-1.5,3.991A5.173,5.173,0,0,1,48.189.2Zm-.011-1.547a3.243,3.243,0,0,0,2.5-1.085,4.065,4.065,0,0,0,.994-2.857,4.05,4.05,0,0,0-.994-2.847,3.243,3.243,0,0,0-2.5-1.085A3.2,3.2,0,0,0,45.7-8.132a4.077,4.077,0,0,0-.983,2.847A4.092,4.092,0,0,0,45.7-2.428,3.2,3.2,0,0,0,48.179-1.343Zm14.33-9.217h1.966L58.362,4.974H56.439L58.556-.258l-4.1-10.3h2.063L59.49-2.342Zm13.02,5.07-.021.5h-8.25a3.731,3.731,0,0,0,1.01,2.7,3.315,3.315,0,0,0,2.406.94,3.166,3.166,0,0,0,1.751-.5,3.276,3.276,0,0,0,1.2-1.4L75.3-2.89A4.763,4.763,0,0,1,73.5-.623a4.924,4.924,0,0,1-2.8.827,5.1,5.1,0,0,1-3.8-1.472,5.475,5.475,0,0,1-1.45-4.018A5.448,5.448,0,0,1,66.9-9.292a5.038,5.038,0,0,1,3.744-1.472,4.767,4.767,0,0,1,3.55,1.354A5.348,5.348,0,0,1,75.528-5.489ZM70.641-9.335a3.293,3.293,0,0,0-2.2.747,3.42,3.42,0,0,0-1.112,2.175h6.327a3.138,3.138,0,0,0-.924-2.175A2.983,2.983,0,0,0,70.641-9.335ZM82.822.193a5.086,5.086,0,0,1-3.781-1.515,5.4,5.4,0,0,1-1.493-3.964,5.414,5.414,0,0,1,1.488-3.964,5.081,5.081,0,0,1,3.787-1.515,5.123,5.123,0,0,1,3.056.924,4.662,4.662,0,0,1,1.778,2.567l-1.74.279a3.214,3.214,0,0,0-1.192-1.644,3.247,3.247,0,0,0-1.912-.58,3.122,3.122,0,0,0-2.444,1.085,4.133,4.133,0,0,0-.961,2.847,4.113,4.113,0,0,0,.961,2.841,3.129,3.129,0,0,0,2.444,1.08,3.247,3.247,0,0,0,1.912-.58,3.214,3.214,0,0,0,1.192-1.644l1.74.29A4.668,4.668,0,0,1,85.868-.736,5.115,5.115,0,0,1,82.822.193ZM93.769,0a2.776,2.776,0,0,1-2.062-.757,2.865,2.865,0,0,1-.752-2.111V-9.077H88.795V-10.56h.795a1.526,1.526,0,0,0,1.166-.371,1.824,1.824,0,0,0,.338-1.241v-1.912h1.729v3.523h2.428v1.482H92.823v6.016a1.6,1.6,0,0,0,.4,1.166,1.411,1.411,0,0,0,1.058.414h.967V0Zm5.113-13.041A1.209,1.209,0,0,1,98-13.412a1.209,1.209,0,0,1-.371-.886A1.192,1.192,0,0,1,98-15.179a1.218,1.218,0,0,1,.886-.365,1.206,1.206,0,0,1,.875.365,1.192,1.192,0,0,1,.371.881,1.209,1.209,0,0,1-.371.886A1.2,1.2,0,0,1,98.882-13.041ZM97.937,0V-10.56h1.869V0Zm5.65,0V-16.5h1.88V0Zm14.9-5.489-.021.5h-8.25a3.731,3.731,0,0,0,1.01,2.7,3.315,3.315,0,0,0,2.406.94,3.166,3.166,0,0,0,1.751-.5,3.276,3.276,0,0,0,1.2-1.4l1.676.354a4.763,4.763,0,0,1-1.8,2.267,4.924,4.924,0,0,1-2.8.827,5.1,5.1,0,0,1-3.8-1.472,5.475,5.475,0,0,1-1.45-4.018,5.448,5.448,0,0,1,1.456-4.007,5.038,5.038,0,0,1,3.744-1.472,4.767,4.767,0,0,1,3.55,1.354A5.348,5.348,0,0,1,118.486-5.489ZM113.6-9.335a3.293,3.293,0,0,0-2.2.747,3.42,3.42,0,0,0-1.112,2.175h6.327a3.138,3.138,0,0,0-.924-2.175A2.983,2.983,0,0,0,113.6-9.335ZM124.738.2a5.006,5.006,0,0,1-2.847-.763,3.155,3.155,0,0,1-1.386-2.17l1.622-.462a2.262,2.262,0,0,0,.865,1.466,2.805,2.805,0,0,0,1.735.521,3.462,3.462,0,0,0,1.015-.14,1.627,1.627,0,0,0,.779-.521,1.4,1.4,0,0,0,.312-.961,1.4,1.4,0,0,0-.086-.435,1.865,1.865,0,0,0-.172-.349,1.064,1.064,0,0,0-.3-.29,3.966,3.966,0,0,0-.365-.226,3.749,3.749,0,0,0-.478-.2q-.317-.113-.51-.172t-.591-.172q-.4-.113-.612-.177a11.455,11.455,0,0,1-1.1-.387,4.805,4.805,0,0,1-.892-.51,2.053,2.053,0,0,1-.693-.833,2.817,2.817,0,0,1-.231-1.182,2.731,2.731,0,0,1,.516-1.687,2.9,2.9,0,0,1,1.337-.994,5.346,5.346,0,0,1,1.875-.306,4.588,4.588,0,0,1,2.573.688,2.934,2.934,0,0,1,1.284,2.063l-1.525.387a2.022,2.022,0,0,0-.806-1.337,2.565,2.565,0,0,0-1.515-.446,2.614,2.614,0,0,0-1.418.371,1.246,1.246,0,0,0-.591,1.133,1.128,1.128,0,0,0,.156.585,1.859,1.859,0,0,0,.317.414,1.948,1.948,0,0,0,.58.317q.419.167.623.226t.773.2q.107.032.161.043.623.161,1.015.285a6.24,6.24,0,0,1,.913.387,3.036,3.036,0,0,1,.822.575,2.663,2.663,0,0,1,.516.816,2.882,2.882,0,0,1,.215,1.139,3.075,3.075,0,0,1-.317,1.423,2.479,2.479,0,0,1-.865.972,4.182,4.182,0,0,1-1.23.532A5.86,5.86,0,0,1,124.738.2Z" transform="translate(1283 6730)" fill="#00223d"/>
    <path id="Trazado_35907" data-name="Trazado 35907" d="M1959.5,5126h47.344" transform="translate(-778 1330)" fill="none" stroke="#ff8f00" stroke-width="2"/>
    <path id="Trazado_35908" data-name="Trazado 35908" d="M1959.5,5126h47.344" transform="translate(-778 1420)" fill="none" stroke="#ff8f00" stroke-width="2"/>
    <path id="Trazado_35909" data-name="Trazado 35909" d="M1959.5,5126h47.344" transform="translate(-778 1510)" fill="none" stroke="#ff8f00" stroke-width="2"/>
    <path id="Trazado_35910" data-name="Trazado 35910" d="M1959.5,5126h47.344" transform="translate(-778 1600)" fill="none" stroke="#ff8f00" stroke-width="2"/>
    <path id="Trazado_36836" data-name="Trazado 36836" d="M0,0H240V70H0Z" transform="translate(1229 6778)" fill="#ffd7a3"/>
    <path id="Trazado_36837" data-name="Trazado 36837" d="M10.28-15.125v1.751H6.4V0H4.49V-13.374H.6v-1.751Zm9.969,9.636-.021.5h-8.25a3.731,3.731,0,0,0,1.01,2.7,3.315,3.315,0,0,0,2.406.94,3.166,3.166,0,0,0,1.751-.5,3.276,3.276,0,0,0,1.2-1.4l1.676.354a4.763,4.763,0,0,1-1.8,2.267,4.924,4.924,0,0,1-2.8.827,5.1,5.1,0,0,1-3.8-1.472,5.475,5.475,0,0,1-1.45-4.018,5.448,5.448,0,0,1,1.456-4.007,5.038,5.038,0,0,1,3.744-1.472,4.767,4.767,0,0,1,3.55,1.354A5.348,5.348,0,0,1,20.249-5.489ZM15.361-9.335a3.293,3.293,0,0,0-2.2.747,3.42,3.42,0,0,0-1.112,2.175H18.38a3.138,3.138,0,0,0-.924-2.175A2.983,2.983,0,0,0,15.361-9.335ZM26.5.2a5.006,5.006,0,0,1-2.847-.763,3.155,3.155,0,0,1-1.386-2.17l1.622-.462a2.262,2.262,0,0,0,.865,1.466A2.805,2.805,0,0,0,26.49-1.2a3.462,3.462,0,0,0,1.015-.14,1.627,1.627,0,0,0,.779-.521,1.4,1.4,0,0,0,.312-.961,1.4,1.4,0,0,0-.086-.435,1.865,1.865,0,0,0-.172-.349,1.064,1.064,0,0,0-.3-.29,3.966,3.966,0,0,0-.365-.226,3.749,3.749,0,0,0-.478-.2q-.317-.113-.51-.172t-.591-.172q-.4-.113-.612-.177a11.455,11.455,0,0,1-1.1-.387,4.805,4.805,0,0,1-.892-.51,2.053,2.053,0,0,1-.693-.833,2.817,2.817,0,0,1-.231-1.182,2.731,2.731,0,0,1,.516-1.687,2.9,2.9,0,0,1,1.337-.994,5.346,5.346,0,0,1,1.875-.306,4.588,4.588,0,0,1,2.573.688,2.934,2.934,0,0,1,1.284,2.063l-1.525.387a2.022,2.022,0,0,0-.806-1.337,2.565,2.565,0,0,0-1.515-.446,2.614,2.614,0,0,0-1.418.371A1.246,1.246,0,0,0,24.3-7.885a1.128,1.128,0,0,0,.156.585,1.859,1.859,0,0,0,.317.414,1.948,1.948,0,0,0,.58.317q.419.167.623.226t.773.2q.107.032.161.043.623.161,1.015.285a6.24,6.24,0,0,1,.913.387,3.036,3.036,0,0,1,.822.575,2.662,2.662,0,0,1,.516.816A2.882,2.882,0,0,1,30.39-2.9a3.075,3.075,0,0,1-.317,1.423,2.479,2.479,0,0,1-.865.972,4.182,4.182,0,0,1-1.23.532A5.86,5.86,0,0,1,26.5.2ZM36.685,0a2.776,2.776,0,0,1-2.062-.757,2.865,2.865,0,0,1-.752-2.111V-9.077H31.711V-10.56h.795a1.526,1.526,0,0,0,1.166-.371,1.824,1.824,0,0,0,.338-1.241v-1.912h1.729v3.523h2.428v1.482H35.739v6.016a1.6,1.6,0,0,0,.4,1.166,1.411,1.411,0,0,0,1.058.414h.967V0ZM57.363-10.764a3.4,3.4,0,0,1,2.46.9,3.327,3.327,0,0,1,.935,2.519V0H58.9V-6.864a2.386,2.386,0,0,0-.58-1.74A1.975,1.975,0,0,0,56.848-9.2a2.085,2.085,0,0,0-1.611.666,2.864,2.864,0,0,0-.612,2V0H52.733V-6.789a2.5,2.5,0,0,0-.585-1.8,1.991,1.991,0,0,0-1.5-.607,2.066,2.066,0,0,0-1.606.682,2.963,2.963,0,0,0-.618,2.046V0H46.567V-10.56h1.858V-9.2a3.208,3.208,0,0,1,1.208-1.16,3.446,3.446,0,0,1,1.681-.408,3.587,3.587,0,0,1,1.8.446,2.775,2.775,0,0,1,1.171,1.284,3.286,3.286,0,0,1,1.268-1.284A3.626,3.626,0,0,1,57.363-10.764ZM73.595-5.489l-.021.5h-8.25a3.731,3.731,0,0,0,1.01,2.7,3.315,3.315,0,0,0,2.406.94,3.166,3.166,0,0,0,1.751-.5,3.276,3.276,0,0,0,1.2-1.4l1.676.354a4.763,4.763,0,0,1-1.8,2.267,4.924,4.924,0,0,1-2.8.827,5.1,5.1,0,0,1-3.8-1.472,5.475,5.475,0,0,1-1.45-4.018,5.448,5.448,0,0,1,1.456-4.007,5.038,5.038,0,0,1,3.744-1.472,4.767,4.767,0,0,1,3.55,1.354A5.348,5.348,0,0,1,73.595-5.489ZM68.707-9.335a3.293,3.293,0,0,0-2.2.747A3.42,3.42,0,0,0,65.4-6.413h6.327A3.138,3.138,0,0,0,70.8-8.588,2.983,2.983,0,0,0,68.707-9.335Zm9.614.634a3.192,3.192,0,0,1,1.311-1.418,3.947,3.947,0,0,1,2.03-.559v1.751a3.479,3.479,0,0,0-2.455.784,3.276,3.276,0,0,0-.843,2.5V0H76.506V-10.56h1.815ZM88.1.193a5.086,5.086,0,0,1-3.781-1.515,5.4,5.4,0,0,1-1.493-3.964A5.414,5.414,0,0,1,84.31-9.249,5.081,5.081,0,0,1,88.1-10.764a5.123,5.123,0,0,1,3.056.924,4.662,4.662,0,0,1,1.778,2.567l-1.74.279A3.214,3.214,0,0,0,90-8.637a3.247,3.247,0,0,0-1.912-.58,3.122,3.122,0,0,0-2.444,1.085,4.133,4.133,0,0,0-.961,2.847,4.113,4.113,0,0,0,.961,2.841,3.129,3.129,0,0,0,2.444,1.08A3.247,3.247,0,0,0,90-1.944,3.214,3.214,0,0,0,91.19-3.588l1.74.29A4.668,4.668,0,0,1,91.142-.736,5.115,5.115,0,0,1,88.1.193ZM98.108.2a3.593,3.593,0,0,1-2.315-.725,2.6,2.6,0,0,1-.908-2.165,3.076,3.076,0,0,1,.29-1.38,2.434,2.434,0,0,1,.859-.961,5.155,5.155,0,0,1,1.241-.6A11.469,11.469,0,0,1,98.882-6l1.708-.279q.935-.172.935-.978a1.845,1.845,0,0,0-.661-1.574,2.692,2.692,0,0,0-1.67-.5,2.742,2.742,0,0,0-1.654.483,2.023,2.023,0,0,0-.784,1.482l-1.676-.354A3.225,3.225,0,0,1,96.4-9.985a4.937,4.937,0,0,1,2.879-.757,5.839,5.839,0,0,1,1.531.188,4.16,4.16,0,0,1,1.278.591A2.65,2.65,0,0,1,103-8.825a4.237,4.237,0,0,1,.328,1.735v4.361a1.784,1.784,0,0,0,.242,1.1,1.043,1.043,0,0,0,.833.285h.172V0h-.924a1.762,1.762,0,0,1-2-1.429h-.086A4.035,4.035,0,0,1,98.108.2Zm.43-1.5A2.818,2.818,0,0,0,100.8-2.32a4.2,4.2,0,0,0,.859-2.793l-2.793.537a3.76,3.76,0,0,0-1.638.585A1.362,1.362,0,0,0,96.7-2.836a1.346,1.346,0,0,0,.51,1.16A2.181,2.181,0,0,0,98.538-1.3ZM114.78-16.5h1.858V0h-1.794L114.8-2.052a3.885,3.885,0,0,1-1.5,1.665,4.191,4.191,0,0,1-2.234.612,4.746,4.746,0,0,1-1.912-.392,4.792,4.792,0,0,1-1.574-1.1,5.085,5.085,0,0,1-1.063-1.746,6.386,6.386,0,0,1-.392-2.267,5.553,5.553,0,0,1,1.434-3.964,4.629,4.629,0,0,1,3.507-1.525,4.209,4.209,0,0,1,2.208.6,3.907,3.907,0,0,1,1.509,1.617ZM111.45-1.386A3.162,3.162,0,0,0,113.9-2.5a4.013,4.013,0,0,0,.994-2.777,4.005,4.005,0,0,0-1-2.771,3.16,3.16,0,0,0-2.449-1.117,3.232,3.232,0,0,0-2.471,1.08,3.972,3.972,0,0,0-1,2.809,3.972,3.972,0,0,0,1,2.809A3.232,3.232,0,0,0,111.45-1.386ZM124.867.2a5.566,5.566,0,0,1-2.707-.655,4.771,4.771,0,0,1-1.907-1.917,5.89,5.89,0,0,1-.7-2.917,5.38,5.38,0,0,1,1.5-3.98,5.173,5.173,0,0,1,3.819-1.5,5.168,5.168,0,0,1,3.824,1.5,5.39,5.39,0,0,1,1.493,3.98,5.394,5.394,0,0,1-1.5,3.991A5.173,5.173,0,0,1,124.867.2Zm-.011-1.547a3.243,3.243,0,0,0,2.5-1.085,4.065,4.065,0,0,0,.994-2.857,4.05,4.05,0,0,0-.994-2.847,3.243,3.243,0,0,0-2.5-1.085,3.2,3.2,0,0,0-2.476,1.085,4.077,4.077,0,0,0-.983,2.847,4.092,4.092,0,0,0,.983,2.857A3.2,3.2,0,0,0,124.856-1.343Z" transform="translate(1283 6819)" fill="#00223d"/>
    <path id="Trazado_35911" data-name="Trazado 35911" d="M1959.5,5126h47.344" transform="translate(-778 1687)" fill="none" stroke="#ff8f00" stroke-width="2"/>
  </g>
</svg>
