<svg xmlns="http://www.w3.org/2000/svg" width="516" height="432" viewBox="0 0 516 432">
  <g id="Grupo_18892" data-name="Grupo 18892" transform="translate(-422 -2126)">
    <g id="Grupo_18864" data-name="Grupo 18864">
      <path id="Trazado_34017" data-name="Trazado 34017" d="M0,0H257V432H0Z" transform="translate(422 2126)" fill="#ffe9d8"/>
      <path id="Trazado_34021" data-name="Trazado 34021" d="M0,0H257V432H0Z" transform="translate(681 2126)" fill="#caf8f2"/>
      <path id="Trazado_34018" data-name="Trazado 34018" d="M0,0H257V100H0Z" transform="translate(422 2126)" fill="#ffbe8d"/>
      <path id="Trazado_34022" data-name="Trazado 34022" d="M0,0H257V100H0Z" transform="translate(681 2126)" fill="#7ff7e7"/>
      <path id="Trazado_34019" data-name="Trazado 34019" d="M6.926-12.7a3.822,3.822,0,0,1,2.927,1.182A4.112,4.112,0,0,1,10.96-8.6a4.011,4.011,0,0,1-1.1,2.9A3.891,3.891,0,0,1,6.926-4.553H4.28V0H1.644V-12.7ZM6.486-6.759a1.938,1.938,0,0,0,1.45-.5A1.888,1.888,0,0,0,8.42-8.631a1.873,1.873,0,0,0-.488-1.358,1.92,1.92,0,0,0-1.446-.505H4.28v3.735Zm8.78-.844a2.933,2.933,0,0,1,1.187-1.085,3.62,3.62,0,0,1,1.767-.453v2.259a3.423,3.423,0,0,0-2.162.545A2.379,2.379,0,0,0,15.39-4.4V0H12.841V-9.035h2.426ZM28.151-4.649l-.026.606h-6.7a2.339,2.339,0,0,0,.721,1.652,2.3,2.3,0,0,0,1.591.571,2.221,2.221,0,0,0,1.191-.312,1.918,1.918,0,0,0,.76-.91l2.32.343A3.945,3.945,0,0,1,26.429-.58a4.7,4.7,0,0,1-2.672.756,4.891,4.891,0,0,1-3.52-1.244,4.538,4.538,0,0,1-1.305-3.45,4.565,4.565,0,0,1,1.31-3.45,4.746,4.746,0,0,1,3.437-1.261,4.536,4.536,0,0,1,3.243,1.151A4.517,4.517,0,0,1,28.151-4.649ZM23.7-7.436A2,2,0,0,0,21.5-5.7h4.148a1.9,1.9,0,0,0-.624-1.292A1.978,1.978,0,0,0,23.7-7.436ZM34.163.167a4.827,4.827,0,0,1-3.489-1.3A4.493,4.493,0,0,1,29.32-4.526a4.483,4.483,0,0,1,1.349-3.393,4.842,4.842,0,0,1,3.494-1.292,4.814,4.814,0,0,1,2.927.87A3.885,3.885,0,0,1,38.6-5.889l-2.338.255a2,2,0,0,0-.756-1.187,2.3,2.3,0,0,0-1.371-.4,2.072,2.072,0,0,0-1.652.738,2.894,2.894,0,0,0-.633,1.951,2.9,2.9,0,0,0,.633,1.947,2.067,2.067,0,0,0,1.652.743,2.278,2.278,0,0,0,1.367-.4,2.05,2.05,0,0,0,.76-1.187l2.338.255A3.9,3.9,0,0,1,37.077-.712,4.8,4.8,0,0,1,34.163.167ZM41.7-10.389a1.421,1.421,0,0,1-1.037-.426,1.4,1.4,0,0,1-.431-1.033,1.382,1.382,0,0,1,.435-1.024A1.425,1.425,0,0,1,41.7-13.3a1.4,1.4,0,0,1,1.02.426,1.389,1.389,0,0,1,.431,1.024,1.4,1.4,0,0,1-.431,1.033A1.4,1.4,0,0,1,41.7-10.389ZM40.4,0V-9.035h2.549V0Zm9.378.176a5.681,5.681,0,0,1-2.558-.554A4.138,4.138,0,0,1,45.47-2a4.846,4.846,0,0,1-.637-2.522A4.42,4.42,0,0,1,46.2-7.954a5.086,5.086,0,0,1,3.577-1.257,5.1,5.1,0,0,1,3.586,1.257,4.42,4.42,0,0,1,1.371,3.428,4.444,4.444,0,0,1-1.371,3.441A5.088,5.088,0,0,1,49.781.176Zm-.026-2.013a2.319,2.319,0,0,0,1.789-.738,2.764,2.764,0,0,0,.681-1.951,2.764,2.764,0,0,0-.681-1.951,2.319,2.319,0,0,0-1.789-.738,2.234,2.234,0,0,0-1.736.743,2.789,2.789,0,0,0-.672,1.947,2.789,2.789,0,0,0,.672,1.947A2.234,2.234,0,0,0,49.755-1.837ZM64.521,4.219A8.412,8.412,0,0,1,61.739.308a16.493,16.493,0,0,1-1.015-5.977,16.5,16.5,0,0,1,1.015-5.972,8.411,8.411,0,0,1,2.782-3.916l1.441,1.714a6.236,6.236,0,0,0-2.131,3.125,14.715,14.715,0,0,0-.8,5.049,14.668,14.668,0,0,0,.8,5.049A6.234,6.234,0,0,0,65.962,2.5Zm12.9-13.43a4.394,4.394,0,0,1,1.688.325,4.223,4.223,0,0,1,1.384.914,4.135,4.135,0,0,1,.936,1.49A5.531,5.531,0,0,1,81.773-4.5a5.531,5.531,0,0,1-.343,1.982,4.135,4.135,0,0,1-.936,1.49,4.223,4.223,0,0,1-1.384.914,4.394,4.394,0,0,1-1.687.325,3.921,3.921,0,0,1-1.635-.334,2.562,2.562,0,0,1-1.134-.949V4.395H72.123V-9.035h2.4l.07,1.213a2.475,2.475,0,0,1,1.129-1.024A3.881,3.881,0,0,1,77.423-9.211ZM76.852-1.89A2.274,2.274,0,0,0,78.561-2.6a2.628,2.628,0,0,0,.681-1.9,2.628,2.628,0,0,0-.681-1.9,2.274,2.274,0,0,0-1.709-.708,2.278,2.278,0,0,0-1.723.721,2.629,2.629,0,0,0-.686,1.89,2.629,2.629,0,0,0,.686,1.89A2.278,2.278,0,0,0,76.852-1.89ZM87.891.176a5.681,5.681,0,0,1-2.558-.554A4.138,4.138,0,0,1,83.58-2a4.846,4.846,0,0,1-.637-2.522,4.42,4.42,0,0,1,1.371-3.428,5.086,5.086,0,0,1,3.577-1.257,5.1,5.1,0,0,1,3.586,1.257,4.42,4.42,0,0,1,1.371,3.428,4.444,4.444,0,0,1-1.371,3.441A5.088,5.088,0,0,1,87.891.176Zm-.026-2.013a2.319,2.319,0,0,0,1.789-.738,2.764,2.764,0,0,0,.681-1.951,2.764,2.764,0,0,0-.681-1.951,2.319,2.319,0,0,0-1.789-.738,2.234,2.234,0,0,0-1.736.743,2.789,2.789,0,0,0-.672,1.947,2.789,2.789,0,0,0,.672,1.947A2.234,2.234,0,0,0,87.864-1.837ZM97.154-7.6a2.933,2.933,0,0,1,1.187-1.085,3.62,3.62,0,0,1,1.767-.453v2.259a3.423,3.423,0,0,0-2.162.545A2.379,2.379,0,0,0,97.277-4.4V0H94.729V-9.035h2.426Zm15.337-1.433H114.9V-.677a6.759,6.759,0,0,1-.338,2.25,3.711,3.711,0,0,1-.98,1.542,4.085,4.085,0,0,1-1.5.866,6.336,6.336,0,0,1-1.969.281q-3.577,0-4.658-2.8l2.1-.9a3.065,3.065,0,0,0,.976,1.31,2.487,2.487,0,0,0,1.485.422q2.347,0,2.347-2.786V-1.547a2.846,2.846,0,0,1-1.138.892,3.784,3.784,0,0,1-1.6.338,4,4,0,0,1-1.586-.321,4.03,4.03,0,0,1-1.314-.9,4.174,4.174,0,0,1-.892-1.419,4.981,4.981,0,0,1-.33-1.828,4.971,4.971,0,0,1,.33-1.833,4.006,4.006,0,0,1,.9-1.4,4.125,4.125,0,0,1,1.318-.879,4.069,4.069,0,0,1,1.6-.316,3.674,3.674,0,0,1,1.674.374,2.67,2.67,0,0,1,1.121,1Zm-3.885,5.977a2.229,2.229,0,0,0,1.661.694,2.216,2.216,0,0,0,1.661-.7,2.379,2.379,0,0,0,.677-1.714,2.4,2.4,0,0,0-.672-1.723,2.212,2.212,0,0,0-1.666-.7,2.214,2.214,0,0,0-1.666.69,2.4,2.4,0,0,0-.664,1.736A2.388,2.388,0,0,0,108.606-3.059Zm16.33.606a8.453,8.453,0,0,0,.22,2.206V0h-2.364l-.2-.984a2.938,2.938,0,0,1-1.266.87,4.664,4.664,0,0,1-1.635.29A4.3,4.3,0,0,1,118.846.1a2.868,2.868,0,0,1-.76-.268,2.307,2.307,0,0,1-.628-.47,2.062,2.062,0,0,1-.422-.716,2.853,2.853,0,0,1-.158-.98,2.718,2.718,0,0,1,.167-.98,2.3,2.3,0,0,1,.439-.734,2.666,2.666,0,0,1,.712-.536,5.447,5.447,0,0,1,.9-.387,10.712,10.712,0,0,1,1.072-.281l1.485-.334a1.638,1.638,0,0,0,.672-.286.57.57,0,0,0,.2-.453.932.932,0,0,0-.444-.87A2.072,2.072,0,0,0,121-7.462a1.549,1.549,0,0,0-1.767,1.38l-2.241-.4a3.034,3.034,0,0,1,1.31-2.061,5.2,5.2,0,0,1,2.839-.664q3.8,0,3.8,3.261Zm-4.456.914a2.036,2.036,0,0,0,1.564-.655,2.759,2.759,0,0,0,.606-1.938l-2.145.606a2.534,2.534,0,0,0-.9.369.758.758,0,0,0-.312.65.842.842,0,0,0,.334.716A1.382,1.382,0,0,0,120.48-1.538ZM127.4,0V-13.5h2.558V0ZM136-10.266l2.3-3.234,1.248.879-2,2.355ZM136.784.176a5.681,5.681,0,0,1-2.558-.554A4.138,4.138,0,0,1,132.473-2a4.846,4.846,0,0,1-.637-2.522,4.42,4.42,0,0,1,1.371-3.428,5.086,5.086,0,0,1,3.577-1.257,5.1,5.1,0,0,1,3.586,1.257,4.42,4.42,0,0,1,1.371,3.428,4.444,4.444,0,0,1-1.371,3.441A5.088,5.088,0,0,1,136.784.176Zm-.026-2.013a2.319,2.319,0,0,0,1.789-.738,2.764,2.764,0,0,0,.681-1.951,2.764,2.764,0,0,0-.681-1.951,2.319,2.319,0,0,0-1.789-.738,2.234,2.234,0,0,0-1.736.743,2.789,2.789,0,0,0-.672,1.947,2.789,2.789,0,0,0,.672,1.947A2.234,2.234,0,0,0,136.758-1.837Zm12.2-7.374a3.522,3.522,0,0,1,2.5.813,3.014,3.014,0,0,1,.87,2.316V0h-2.54V-5.537a1.574,1.574,0,0,0-.453-1.248,1.705,1.705,0,0,0-1.165-.4,2.379,2.379,0,0,0-.756.114,1.942,1.942,0,0,0-.633.356,1.573,1.573,0,0,0-.453.681,3.15,3.15,0,0,0-.171,1.046V0h-2.531V-9.035h2.531v1A3.481,3.481,0,0,1,148.957-9.211Zm6.126,13.43L153.642,2.5A6.234,6.234,0,0,0,155.773-.62a14.668,14.668,0,0,0,.8-5.049,14.715,14.715,0,0,0-.8-5.049,6.236,6.236,0,0,0-2.131-3.125l1.441-1.714a8.411,8.411,0,0,1,2.782,3.916,16.5,16.5,0,0,1,1.015,5.972A16.493,16.493,0,0,1,157.865.308,8.412,8.412,0,0,1,155.083,4.219Z" transform="translate(466 2175)" fill="#00223d"/>
      <path id="Trazado_34023" data-name="Trazado 34023" d="M7.269,17.176A7.089,7.089,0,0,1,4.68,16.71a6.087,6.087,0,0,1-2.061-1.3,5.864,5.864,0,0,1-1.354-2.065,7.2,7.2,0,0,1-.492-2.7A6.879,6.879,0,0,1,1.617,7.2,5.744,5.744,0,0,1,3.933,4.915a6.935,6.935,0,0,1,3.335-.791A6.739,6.739,0,0,1,11,5.152a5.629,5.629,0,0,1,2.276,2.83l-2.461.9A3.479,3.479,0,0,0,9.448,7.165a3.891,3.891,0,0,0-2.18-.615A3.73,3.73,0,0,0,4.491,7.657,4.075,4.075,0,0,0,3.4,10.646,4.081,4.081,0,0,0,4.5,13.638,3.726,3.726,0,0,0,7.269,14.75a3.876,3.876,0,0,0,2.175-.62,3.5,3.5,0,0,0,1.367-1.718l2.461.9A5.652,5.652,0,0,1,11,16.143,6.718,6.718,0,0,1,7.269,17.176Zm15.24-2.628a8.453,8.453,0,0,0,.22,2.206V17H20.364l-.2-.984a2.938,2.938,0,0,1-1.266.87,4.664,4.664,0,0,1-1.635.29,4.3,4.3,0,0,1-.844-.079,2.868,2.868,0,0,1-.76-.268,2.307,2.307,0,0,1-.628-.47,2.062,2.062,0,0,1-.422-.716,2.853,2.853,0,0,1-.158-.98,2.718,2.718,0,0,1,.167-.98,2.3,2.3,0,0,1,.439-.734,2.666,2.666,0,0,1,.712-.536,5.447,5.447,0,0,1,.9-.387,10.712,10.712,0,0,1,1.072-.281l1.485-.334a1.638,1.638,0,0,0,.672-.286.57.57,0,0,0,.2-.453.932.932,0,0,0-.444-.87,2.072,2.072,0,0,0-1.077-.264,1.549,1.549,0,0,0-1.767,1.38l-2.241-.4a3.034,3.034,0,0,1,1.31-2.061,5.2,5.2,0,0,1,2.839-.664q3.8,0,3.8,3.261Zm-4.456.914a2.036,2.036,0,0,0,1.564-.655,2.759,2.759,0,0,0,.606-1.938l-2.145.606a2.534,2.534,0,0,0-.9.369.758.758,0,0,0-.312.65.842.842,0,0,0,.334.716A1.382,1.382,0,0,0,18.053,15.462ZM30.3,7.789a3.522,3.522,0,0,1,2.5.813,3.014,3.014,0,0,1,.87,2.316V17h-2.54V11.463a1.574,1.574,0,0,0-.453-1.248,1.705,1.705,0,0,0-1.165-.4,2.379,2.379,0,0,0-.756.114,1.942,1.942,0,0,0-.633.356,1.573,1.573,0,0,0-.453.681,3.15,3.15,0,0,0-.171,1.046V17H24.97V7.965H27.5v1A3.481,3.481,0,0,1,30.3,7.789ZM39.489,17a2.729,2.729,0,0,1-2.039-.734,2.854,2.854,0,0,1-.721-2.087V9.907H34.954V7.965h.571a1.491,1.491,0,0,0,1.125-.378,1.946,1.946,0,0,0,.36-1.345v-1.2H39.3V7.965h1.863V9.907H39.3v4q0,1.169,1.046,1.169h.817V17ZM44.411,6.611a1.421,1.421,0,0,1-1.037-.426,1.4,1.4,0,0,1-.431-1.033,1.382,1.382,0,0,1,.435-1.024A1.425,1.425,0,0,1,44.411,3.7a1.463,1.463,0,0,1,1.45,1.45,1.463,1.463,0,0,1-1.45,1.459ZM43.119,17V7.965h2.549V17ZM54.694,3.5h2.531V17h-2.4l-.062-1.178a2.58,2.58,0,0,1-1.147,1.024,3.861,3.861,0,0,1-1.692.365,4.394,4.394,0,0,1-1.687-.325,4.064,4.064,0,0,1-2.32-2.408,5.5,5.5,0,0,1-.343-1.978,5.137,5.137,0,0,1,.6-2.518A4.1,4.1,0,0,1,49.75,8.343a4.345,4.345,0,0,1,2.175-.554,3.957,3.957,0,0,1,1.639.33,2.559,2.559,0,0,1,1.129.936ZM52.506,15.11a2.253,2.253,0,0,0,1.709-.721A2.638,2.638,0,0,0,54.9,12.5a2.644,2.644,0,0,0-.686-1.894,2.251,2.251,0,0,0-1.705-.725,2.277,2.277,0,0,0-1.718.712,2.644,2.644,0,0,0-.681,1.907,2.631,2.631,0,0,0,.681,1.9A2.277,2.277,0,0,0,52.506,15.11Zm14.748-.562a8.453,8.453,0,0,0,.22,2.206V17H65.109l-.2-.984a2.938,2.938,0,0,1-1.266.87,4.664,4.664,0,0,1-1.635.29,4.3,4.3,0,0,1-.844-.079,2.868,2.868,0,0,1-.76-.268,2.307,2.307,0,0,1-.628-.47,2.062,2.062,0,0,1-.422-.716,2.853,2.853,0,0,1-.158-.98,2.718,2.718,0,0,1,.167-.98,2.3,2.3,0,0,1,.439-.734,2.666,2.666,0,0,1,.712-.536,5.447,5.447,0,0,1,.9-.387,10.712,10.712,0,0,1,1.072-.281l1.485-.334a1.638,1.638,0,0,0,.672-.286.57.57,0,0,0,.2-.453.932.932,0,0,0-.444-.87,2.072,2.072,0,0,0-1.077-.264,1.549,1.549,0,0,0-1.767,1.38l-2.241-.4a3.034,3.034,0,0,1,1.31-2.061,5.2,5.2,0,0,1,2.839-.664q3.8,0,3.8,3.261Zm-4.456.914a2.036,2.036,0,0,0,1.564-.655,2.759,2.759,0,0,0,.606-1.938l-2.145.606a2.534,2.534,0,0,0-.9.369.758.758,0,0,0-.312.65.842.842,0,0,0,.334.716A1.382,1.382,0,0,0,62.8,15.462ZM75.92,3.5h2.531V17h-2.4l-.062-1.178a2.58,2.58,0,0,1-1.147,1.024,3.861,3.861,0,0,1-1.692.365,4.394,4.394,0,0,1-1.687-.325,4.064,4.064,0,0,1-2.32-2.408A5.5,5.5,0,0,1,68.8,12.5a5.137,5.137,0,0,1,.6-2.518,4.1,4.1,0,0,1,1.578-1.639,4.345,4.345,0,0,1,2.175-.554,3.957,3.957,0,0,1,1.639.33,2.559,2.559,0,0,1,1.129.936ZM73.731,15.11a2.253,2.253,0,0,0,1.709-.721,2.638,2.638,0,0,0,.681-1.89,2.644,2.644,0,0,0-.686-1.894,2.251,2.251,0,0,0-1.705-.725,2.277,2.277,0,0,0-1.718.712,2.644,2.644,0,0,0-.681,1.907,2.631,2.631,0,0,0,.681,1.9A2.277,2.277,0,0,0,73.731,15.11Zm16.225,2.065a5.681,5.681,0,0,1-2.558-.554A4.138,4.138,0,0,1,85.645,15a4.846,4.846,0,0,1-.637-2.522,4.42,4.42,0,0,1,1.371-3.428,5.731,5.731,0,0,1,7.163,0,4.42,4.42,0,0,1,1.371,3.428,4.444,4.444,0,0,1-1.371,3.441A5.088,5.088,0,0,1,89.956,17.176Zm-.026-2.013a2.319,2.319,0,0,0,1.789-.738,2.764,2.764,0,0,0,.681-1.951,2.764,2.764,0,0,0-.681-1.951,2.319,2.319,0,0,0-1.789-.738,2.234,2.234,0,0,0-1.736.743,2.789,2.789,0,0,0-.672,1.947,2.789,2.789,0,0,0,.672,1.947A2.234,2.234,0,0,0,89.93,15.163Zm11.962-9.642h-.053q-.246,0-.374,0t-.36.031a1.459,1.459,0,0,0-.365.079,1.859,1.859,0,0,0-.3.163.809.809,0,0,0-.264.264,1.593,1.593,0,0,0-.158.391A2.042,2.042,0,0,0,99.949,7v.967h1.942V9.907H99.949V17H97.427V9.907H95.66V7.965h1.767V6.989a5.284,5.284,0,0,1,.114-1.151,3.5,3.5,0,0,1,.308-.875,2.047,2.047,0,0,1,.514-.628,3.034,3.034,0,0,1,.668-.422,3.817,3.817,0,0,1,.831-.255,7.285,7.285,0,0,1,.954-.127q.47-.031,1.077-.031ZM105.75,9.4a2.933,2.933,0,0,1,1.187-1.085,3.62,3.62,0,0,1,1.767-.453v2.259a3.423,3.423,0,0,0-2.162.545,2.379,2.379,0,0,0-.668,1.934V17h-2.549V7.965h2.426Zm12.885,2.953-.026.606h-6.7a2.339,2.339,0,0,0,.721,1.652,2.3,2.3,0,0,0,1.591.571,2.221,2.221,0,0,0,1.191-.312,1.918,1.918,0,0,0,.76-.91l2.32.343a3.945,3.945,0,0,1-1.582,2.118,4.7,4.7,0,0,1-2.672.756,4.891,4.891,0,0,1-3.52-1.244,4.538,4.538,0,0,1-1.305-3.45,4.565,4.565,0,0,1,1.31-3.45,4.746,4.746,0,0,1,3.437-1.261A4.536,4.536,0,0,1,117.4,8.923,4.517,4.517,0,0,1,118.635,12.351Zm-4.456-2.786a2,2,0,0,0-2.2,1.74h4.148a1.9,1.9,0,0,0-.624-1.292A1.978,1.978,0,0,0,114.179,9.564Zm10.468,7.6a4.827,4.827,0,0,1-3.489-1.3,4.493,4.493,0,0,1-1.354-3.393,4.483,4.483,0,0,1,1.349-3.393,5.364,5.364,0,0,1,6.42-.422,3.885,3.885,0,0,1,1.512,2.452l-2.338.255a2,2,0,0,0-.756-1.187,2.3,2.3,0,0,0-1.371-.4,2.072,2.072,0,0,0-1.652.738,2.894,2.894,0,0,0-.633,1.951,2.9,2.9,0,0,0,.633,1.947,2.067,2.067,0,0,0,1.652.743,2.278,2.278,0,0,0,1.367-.4,2.05,2.05,0,0,0,.76-1.187l2.338.255a3.9,3.9,0,0,1-1.525,2.452A4.8,4.8,0,0,1,124.646,17.167Zm7.532-10.556a1.421,1.421,0,0,1-1.037-.426,1.4,1.4,0,0,1-.431-1.033,1.382,1.382,0,0,1,.435-1.024,1.425,1.425,0,0,1,1.033-.426,1.463,1.463,0,0,1,1.45,1.45,1.463,1.463,0,0,1-1.45,1.459ZM130.887,17V7.965h2.549V17ZM142.462,3.5h2.531V17h-2.4l-.062-1.178a2.58,2.58,0,0,1-1.147,1.024,3.861,3.861,0,0,1-1.692.365,4.394,4.394,0,0,1-1.687-.325,4.064,4.064,0,0,1-2.32-2.408,5.5,5.5,0,0,1-.343-1.978,5.137,5.137,0,0,1,.6-2.518,4.1,4.1,0,0,1,1.578-1.639,4.345,4.345,0,0,1,2.175-.554,3.957,3.957,0,0,1,1.639.33,2.559,2.559,0,0,1,1.129.936Zm-2.188,11.61a2.253,2.253,0,0,0,1.709-.721,2.638,2.638,0,0,0,.681-1.89,2.644,2.644,0,0,0-.686-1.894,2.251,2.251,0,0,0-1.705-.725,2.277,2.277,0,0,0-1.718.712,2.644,2.644,0,0,0-.681,1.907,2.631,2.631,0,0,0,.681,1.9A2.277,2.277,0,0,0,140.273,15.11Zm14.748-.562a8.453,8.453,0,0,0,.22,2.206V17h-2.364l-.2-.984a2.938,2.938,0,0,1-1.266.87,4.664,4.664,0,0,1-1.635.29,4.3,4.3,0,0,1-.844-.079,2.868,2.868,0,0,1-.76-.268,2.307,2.307,0,0,1-.628-.47,2.062,2.062,0,0,1-.422-.716,2.853,2.853,0,0,1-.158-.98,2.718,2.718,0,0,1,.167-.98,2.3,2.3,0,0,1,.439-.734,2.666,2.666,0,0,1,.712-.536,5.447,5.447,0,0,1,.9-.387,10.712,10.712,0,0,1,1.072-.281l1.485-.334a1.638,1.638,0,0,0,.672-.286.57.57,0,0,0,.2-.453.932.932,0,0,0-.444-.87,2.072,2.072,0,0,0-1.077-.264,1.549,1.549,0,0,0-1.767,1.38l-2.241-.4a3.034,3.034,0,0,1,1.31-2.061,5.2,5.2,0,0,1,2.839-.664q3.8,0,3.8,3.261Zm-4.456.914a2.036,2.036,0,0,0,1.564-.655,2.759,2.759,0,0,0,.606-1.938l-2.145.606a2.534,2.534,0,0,0-.9.369.758.758,0,0,0-.312.65.842.842,0,0,0,.334.716A1.382,1.382,0,0,0,150.565,15.462ZM4.535,51.219a8.412,8.412,0,0,1-2.782-3.911A16.493,16.493,0,0,1,.738,41.331a16.5,16.5,0,0,1,1.015-5.972,8.411,8.411,0,0,1,2.782-3.916l1.441,1.714a6.236,6.236,0,0,0-2.131,3.125,14.715,14.715,0,0,0-.8,5.049,14.668,14.668,0,0,0,.8,5.049A6.234,6.234,0,0,0,5.977,49.5Zm18.308-13.43a3.452,3.452,0,0,1,2.329.734,2.626,2.626,0,0,1,.853,2.1V47H23.493V41.349a1.509,1.509,0,0,0-.4-1.143,1.416,1.416,0,0,0-1.02-.387,1.633,1.633,0,0,0-1.23.492,2.235,2.235,0,0,0-.475,1.591V47H17.807V41.375a1.549,1.549,0,0,0-.4-1.165,1.441,1.441,0,0,0-1.046-.391,1.581,1.581,0,0,0-1.222.519,2.476,2.476,0,0,0-.475,1.7V47H12.138V37.965H14.66v1.063a3.072,3.072,0,0,1,2.619-1.239,3.863,3.863,0,0,1,1.7.347,2.315,2.315,0,0,1,1.068,1.006A3.2,3.2,0,0,1,22.843,37.789Zm6.935-1.178a1.421,1.421,0,0,1-1.037-.426,1.4,1.4,0,0,1-.431-1.033,1.382,1.382,0,0,1,.435-1.024,1.425,1.425,0,0,1,1.033-.426,1.455,1.455,0,0,1,0,2.909ZM28.485,47V37.965h2.549V47Zm5.168,0V33.5h2.558V47Zm5.177,0V33.5h2.558V47Zm9.387.176a5.681,5.681,0,0,1-2.558-.554A4.138,4.138,0,0,1,43.906,45a4.846,4.846,0,0,1-.637-2.522,4.42,4.42,0,0,1,1.371-3.428,5.731,5.731,0,0,1,7.163,0,4.42,4.42,0,0,1,1.371,3.428A4.444,4.444,0,0,1,51.8,45.915,5.088,5.088,0,0,1,48.217,47.176Zm-.026-2.013a2.319,2.319,0,0,0,1.789-.738,3.135,3.135,0,0,0,0-3.9,2.319,2.319,0,0,0-1.789-.738,2.234,2.234,0,0,0-1.736.743,3.155,3.155,0,0,0,0,3.894A2.234,2.234,0,0,0,48.19,45.163Zm12.2-7.374a3.522,3.522,0,0,1,2.5.813,3.014,3.014,0,0,1,.87,2.316V47h-2.54V41.463a1.574,1.574,0,0,0-.453-1.248,1.705,1.705,0,0,0-1.165-.4,2.379,2.379,0,0,0-.756.114,1.942,1.942,0,0,0-.633.356,1.573,1.573,0,0,0-.453.681,3.15,3.15,0,0,0-.171,1.046V47H55.055V37.965h2.531v1A3.481,3.481,0,0,1,60.39,37.789Zm14.317,4.562-.026.606h-6.7a2.339,2.339,0,0,0,.721,1.652,2.3,2.3,0,0,0,1.591.571,2.221,2.221,0,0,0,1.191-.312,1.918,1.918,0,0,0,.76-.91l2.32.343a3.945,3.945,0,0,1-1.582,2.118,4.7,4.7,0,0,1-2.672.756,4.891,4.891,0,0,1-3.52-1.244,4.538,4.538,0,0,1-1.305-3.45,4.565,4.565,0,0,1,1.31-3.45,4.746,4.746,0,0,1,3.437-1.261,4.136,4.136,0,0,1,4.474,4.579Zm-4.456-2.786a2,2,0,0,0-2.2,1.74H72.2a1.9,1.9,0,0,0-.624-1.292A1.978,1.978,0,0,0,70.251,39.564Zm9.563,7.611a5.049,5.049,0,0,1-2.637-.633,2.675,2.675,0,0,1-1.292-1.881l2.118-.6a1.7,1.7,0,0,0,1.811,1.345,1.87,1.87,0,0,0,.923-.207.719.719,0,0,0,.36-.7.739.739,0,0,0-.149-.466,1.183,1.183,0,0,0-.461-.334,5.749,5.749,0,0,0-.615-.237q-.3-.1-.8-.233t-.835-.259a5.593,5.593,0,0,1-.8-.338,3.393,3.393,0,0,1-.659-.466,1.878,1.878,0,0,1-.492-.708,2.552,2.552,0,0,1-.171-.967,2.308,2.308,0,0,1,.98-2.021,4.379,4.379,0,0,1,2.562-.686,4.489,4.489,0,0,1,2.364.58,2.625,2.625,0,0,1,1.213,1.811l-1.96.439a1.535,1.535,0,0,0-1.608-1.143,1.761,1.761,0,0,0-.888.2.649.649,0,0,0-.352.6.685.685,0,0,0,.053.272.539.539,0,0,0,.185.22,2.692,2.692,0,0,0,.255.167,1.923,1.923,0,0,0,.36.145q.237.075.4.114l.461.119.47.123q.483.132.848.264a4.967,4.967,0,0,1,.778.369,2.792,2.792,0,0,1,.681.532,2.372,2.372,0,0,1,.444.747,2.759,2.759,0,0,1,.176,1.006,2.718,2.718,0,0,1-.3,1.31,2.276,2.276,0,0,1-.831.883,4.043,4.043,0,0,1-1.173.475A6.087,6.087,0,0,1,79.813,47.176ZM96.434,33.5h2.531V47h-2.4L96.5,45.822a2.58,2.58,0,0,1-1.147,1.024,3.861,3.861,0,0,1-1.692.365,4.394,4.394,0,0,1-1.687-.325,4.064,4.064,0,0,1-2.32-2.408,5.5,5.5,0,0,1-.343-1.978,5.137,5.137,0,0,1,.6-2.518,4.1,4.1,0,0,1,1.578-1.639,4.345,4.345,0,0,1,2.175-.554,3.957,3.957,0,0,1,1.639.33,2.559,2.559,0,0,1,1.129.936ZM94.245,45.11a2.253,2.253,0,0,0,1.709-.721,2.96,2.96,0,0,0,0-3.784,2.251,2.251,0,0,0-1.705-.725,2.277,2.277,0,0,0-1.718.712,3,3,0,0,0,0,3.806A2.277,2.277,0,0,0,94.245,45.11Zm15.838-2.76-.026.606h-6.7a2.339,2.339,0,0,0,.721,1.652,2.3,2.3,0,0,0,1.591.571,2.221,2.221,0,0,0,1.191-.312,1.918,1.918,0,0,0,.76-.91l2.32.343a3.945,3.945,0,0,1-1.582,2.118,4.7,4.7,0,0,1-2.672.756,4.891,4.891,0,0,1-3.52-1.244,4.538,4.538,0,0,1-1.305-3.45,4.565,4.565,0,0,1,1.31-3.45,4.746,4.746,0,0,1,3.437-1.261,4.136,4.136,0,0,1,4.474,4.579Zm-4.456-2.786a2,2,0,0,0-2.2,1.74h4.148a1.9,1.9,0,0,0-.624-1.292A1.978,1.978,0,0,0,105.627,39.564Zm17.279-1.6h2.408v8.358a6.759,6.759,0,0,1-.338,2.25,3.711,3.711,0,0,1-.98,1.542,4.085,4.085,0,0,1-1.5.866,6.336,6.336,0,0,1-1.969.281q-3.577,0-4.658-2.8l2.1-.9a3.065,3.065,0,0,0,.976,1.31,2.487,2.487,0,0,0,1.485.422q2.347,0,2.347-2.786V45.453a2.846,2.846,0,0,1-1.138.892,3.784,3.784,0,0,1-1.6.338,4.046,4.046,0,0,1-2.9-1.217,4.174,4.174,0,0,1-.892-1.419,5.247,5.247,0,0,1,0-3.661,4.006,4.006,0,0,1,.9-1.4,4.125,4.125,0,0,1,1.318-.879,4.069,4.069,0,0,1,1.6-.316,3.674,3.674,0,0,1,1.674.374,2.67,2.67,0,0,1,1.121,1Zm-3.885,5.977a2.324,2.324,0,0,0,3.322-.009,2.526,2.526,0,0,0,0-3.437,2.34,2.34,0,0,0-3.331-.013,2.579,2.579,0,0,0,0,3.458Zm16.33.606a8.453,8.453,0,0,0,.22,2.206V47h-2.364l-.2-.984a2.938,2.938,0,0,1-1.266.87,4.664,4.664,0,0,1-1.635.29,4.3,4.3,0,0,1-.844-.079,2.868,2.868,0,0,1-.76-.268,2.307,2.307,0,0,1-.628-.47,2.062,2.062,0,0,1-.422-.716,2.853,2.853,0,0,1-.158-.98,2.718,2.718,0,0,1,.167-.98,2.3,2.3,0,0,1,.439-.734,2.666,2.666,0,0,1,.712-.536,5.447,5.447,0,0,1,.9-.387,10.712,10.712,0,0,1,1.072-.281l1.485-.334a1.638,1.638,0,0,0,.672-.286.57.57,0,0,0,.2-.453.932.932,0,0,0-.444-.87,2.072,2.072,0,0,0-1.077-.264,1.549,1.549,0,0,0-1.767,1.38l-2.241-.4a3.034,3.034,0,0,1,1.31-2.061,5.2,5.2,0,0,1,2.839-.664q3.8,0,3.8,3.261Zm-4.456.914a2.036,2.036,0,0,0,1.564-.655,2.759,2.759,0,0,0,.606-1.938l-2.145.606a2.534,2.534,0,0,0-.9.369.758.758,0,0,0-.312.65.842.842,0,0,0,.334.716A1.382,1.382,0,0,0,130.9,45.462ZM137.813,47V33.5h2.558V47Zm9.387.176a5.681,5.681,0,0,1-2.558-.554A4.138,4.138,0,0,1,142.888,45a4.846,4.846,0,0,1-.637-2.522,4.42,4.42,0,0,1,1.371-3.428,5.731,5.731,0,0,1,7.163,0,4.42,4.42,0,0,1,1.371,3.428,4.444,4.444,0,0,1-1.371,3.441A5.088,5.088,0,0,1,147.2,47.176Zm-.026-2.013a2.319,2.319,0,0,0,1.789-.738,3.135,3.135,0,0,0,0-3.9,2.319,2.319,0,0,0-1.789-.738,2.234,2.234,0,0,0-1.736.743,3.155,3.155,0,0,0,0,3.894A2.234,2.234,0,0,0,147.173,45.163Zm12.2-7.374a3.522,3.522,0,0,1,2.5.813,3.014,3.014,0,0,1,.87,2.316V47H160.2V41.463a1.574,1.574,0,0,0-.453-1.248,1.705,1.705,0,0,0-1.165-.4,2.379,2.379,0,0,0-.756.114,1.942,1.942,0,0,0-.633.356,1.573,1.573,0,0,0-.453.681,3.15,3.15,0,0,0-.171,1.046V47h-2.531V37.965h2.531v1A3.481,3.481,0,0,1,159.372,37.789Zm14.317,4.562-.026.606h-6.7a2.339,2.339,0,0,0,.721,1.652,2.3,2.3,0,0,0,1.591.571,2.221,2.221,0,0,0,1.191-.312,1.918,1.918,0,0,0,.76-.91l2.32.343a3.945,3.945,0,0,1-1.582,2.118,4.7,4.7,0,0,1-2.672.756,4.891,4.891,0,0,1-3.52-1.244,4.538,4.538,0,0,1-1.305-3.45,4.565,4.565,0,0,1,1.31-3.45,4.746,4.746,0,0,1,3.437-1.261,4.136,4.136,0,0,1,4.474,4.579Zm-4.456-2.786a2,2,0,0,0-2.2,1.74h4.148a1.9,1.9,0,0,0-.624-1.292A1.978,1.978,0,0,0,169.233,39.564Zm9.563,7.611a5.049,5.049,0,0,1-2.637-.633,2.675,2.675,0,0,1-1.292-1.881l2.118-.6a1.7,1.7,0,0,0,1.811,1.345,1.87,1.87,0,0,0,.923-.207.719.719,0,0,0,.36-.7.739.739,0,0,0-.149-.466,1.183,1.183,0,0,0-.461-.334,5.749,5.749,0,0,0-.615-.237q-.3-.1-.8-.233t-.835-.259a5.593,5.593,0,0,1-.8-.338,3.393,3.393,0,0,1-.659-.466,1.878,1.878,0,0,1-.492-.708,2.552,2.552,0,0,1-.171-.967,2.308,2.308,0,0,1,.98-2.021,4.379,4.379,0,0,1,2.562-.686,4.489,4.489,0,0,1,2.364.58,2.625,2.625,0,0,1,1.213,1.811l-1.96.439a1.535,1.535,0,0,0-1.608-1.143,1.761,1.761,0,0,0-.888.2.649.649,0,0,0-.352.6.685.685,0,0,0,.053.272.539.539,0,0,0,.185.22,2.692,2.692,0,0,0,.255.167,1.923,1.923,0,0,0,.36.145q.237.075.4.114l.461.119.47.123q.483.132.848.264a4.967,4.967,0,0,1,.778.369,2.792,2.792,0,0,1,.681.532,2.372,2.372,0,0,1,.444.747,2.759,2.759,0,0,1,.176,1.006,2.718,2.718,0,0,1-.3,1.31,2.276,2.276,0,0,1-.831.883,4.043,4.043,0,0,1-1.173.475A6.087,6.087,0,0,1,178.8,47.176Zm10.521,4.043L187.875,49.5a6.234,6.234,0,0,0,2.131-3.116,14.668,14.668,0,0,0,.8-5.049,14.715,14.715,0,0,0-.8-5.049,6.236,6.236,0,0,0-2.131-3.125l1.441-1.714a8.411,8.411,0,0,1,2.782,3.916,16.5,16.5,0,0,1,1.015,5.972,16.493,16.493,0,0,1-1.015,5.977A8.412,8.412,0,0,1,189.316,51.219Z" transform="translate(697 2146)" fill="#00223d"/>
      <path id="Trazado_34020" data-name="Trazado 34020" d="M10.556-3.357a3.482,3.482,0,0,1-.316,1.516A2.866,2.866,0,0,1,9.356-.756a4.319,4.319,0,0,1-1.292.65A6.34,6.34,0,0,1,6.478.167V1.292H5.651V.167A5.154,5.154,0,0,1,2.791-.8,3.7,3.7,0,0,1,1.336-3.1l1.6-.387a2.6,2.6,0,0,0,.932,1.564,3.345,3.345,0,0,0,1.784.712V-5.7l-.088-.026q-.51-.141-.831-.237t-.773-.268a4.781,4.781,0,0,1-.734-.338,5.472,5.472,0,0,1-.6-.422,2.129,2.129,0,0,1-.5-.549,2.915,2.915,0,0,1-.3-.694,3.064,3.064,0,0,1-.119-.875,3.34,3.34,0,0,1,.316-1.472,2.9,2.9,0,0,1,.861-1.068,4.181,4.181,0,0,1,1.252-.642,5.282,5.282,0,0,1,1.516-.246V-13.7h.826v1.2a5.107,5.107,0,0,1,2.54.888,3.363,3.363,0,0,1,1.345,2.083l-1.521.4a2.389,2.389,0,0,0-.826-1.371,3.053,3.053,0,0,0-1.538-.624v4.219q.4.105.659.18t.637.2a5.953,5.953,0,0,1,.633.237q.25.114.571.286a2.835,2.835,0,0,1,.523.347,4.765,4.765,0,0,1,.422.422,2.109,2.109,0,0,1,.347.523,3.181,3.181,0,0,1,.207.624A3.337,3.337,0,0,1,10.556-3.357ZM3.287-9.123a1.546,1.546,0,0,0,.176.747,1.53,1.53,0,0,0,.527.554,4.108,4.108,0,0,0,.729.378q.378.149.932.308v-4.034a3,3,0,0,0-1.683.563A1.741,1.741,0,0,0,3.287-9.123ZM6.478-1.2a3.263,3.263,0,0,0,1.8-.589,1.756,1.756,0,0,0,.668-1.529,1.79,1.79,0,0,0-.193-.809,1.662,1.662,0,0,0-.554-.6,4.427,4.427,0,0,0-.765-.417,9.313,9.313,0,0,0-.958-.334Zm10.661-11.18h1.424V0h-1.5V-10.714L14.089-8.139V-9.765ZM25,.176a.987.987,0,0,1-.716-.3.975.975,0,0,1-.3-.721.979.979,0,0,1,.3-.716.979.979,0,0,1,.716-.3.994.994,0,0,1,.721.3.973.973,0,0,1,.308.716.975.975,0,0,1-.3.721A1,1,0,0,1,25,.176Zm7.98-.009a3.447,3.447,0,0,1-3.05-1.617A8.623,8.623,0,0,1,28.854-6.2a8.662,8.662,0,0,1,1.059-4.737,3.444,3.444,0,0,1,3.063-1.608,3.436,3.436,0,0,1,3.05,1.613A8.637,8.637,0,0,1,37.09-6.2a8.6,8.6,0,0,1-1.077,4.742A3.44,3.44,0,0,1,32.977.167Zm0-1.406A2.093,2.093,0,0,0,34.9-2.479,8.08,8.08,0,0,0,35.569-6.2a7.851,7.851,0,0,0-.681-3.713,2.105,2.105,0,0,0-1.912-1.217,2.1,2.1,0,0,0-1.916,1.213A7.891,7.891,0,0,0,30.384-6.2a8.122,8.122,0,0,0,.664,3.722A2.091,2.091,0,0,0,32.977-1.239ZM43.11.167a3.447,3.447,0,0,1-3.05-1.617A8.623,8.623,0,0,1,38.988-6.2a8.662,8.662,0,0,1,1.059-4.737,3.444,3.444,0,0,1,3.063-1.608,3.436,3.436,0,0,1,3.05,1.613A8.637,8.637,0,0,1,47.224-6.2a8.6,8.6,0,0,1-1.077,4.742A3.44,3.44,0,0,1,43.11.167Zm0-1.406a2.093,2.093,0,0,0,1.925-1.239A8.08,8.08,0,0,0,45.7-6.2a7.851,7.851,0,0,0-.681-3.713,2.105,2.105,0,0,0-1.912-1.217,2.1,2.1,0,0,0-1.916,1.213A7.891,7.891,0,0,0,40.518-6.2a8.122,8.122,0,0,0,.664,3.722A2.091,2.091,0,0,0,43.11-1.239ZM10.556,41.643a3.482,3.482,0,0,1-.316,1.516,2.866,2.866,0,0,1-.883,1.085,4.319,4.319,0,0,1-1.292.65,6.34,6.34,0,0,1-1.586.272v1.125H5.651V45.167A5.154,5.154,0,0,1,2.791,44.2a3.7,3.7,0,0,1-1.455-2.3l1.6-.387a2.6,2.6,0,0,0,.932,1.564,3.345,3.345,0,0,0,1.784.712V39.3l-.088-.026q-.51-.141-.831-.237t-.773-.268a4.781,4.781,0,0,1-.734-.338,5.472,5.472,0,0,1-.6-.422,2.129,2.129,0,0,1-.5-.549,2.915,2.915,0,0,1-.3-.694,3.064,3.064,0,0,1-.119-.875,3.34,3.34,0,0,1,.316-1.472,2.9,2.9,0,0,1,.861-1.068,4.181,4.181,0,0,1,1.252-.642,5.282,5.282,0,0,1,1.516-.246V31.3h.826v1.2a5.107,5.107,0,0,1,2.54.888,3.363,3.363,0,0,1,1.345,2.083l-1.521.4a2.389,2.389,0,0,0-.826-1.371,3.053,3.053,0,0,0-1.538-.624v4.219q.4.105.659.18t.637.2a5.953,5.953,0,0,1,.633.237q.25.114.571.286a2.835,2.835,0,0,1,.523.347,4.765,4.765,0,0,1,.422.422,2.109,2.109,0,0,1,.347.523,3.181,3.181,0,0,1,.207.624A3.337,3.337,0,0,1,10.556,41.643ZM3.287,35.877a1.546,1.546,0,0,0,.176.747,1.53,1.53,0,0,0,.527.554,4.108,4.108,0,0,0,.729.378q.378.149.932.308V33.829a3,3,0,0,0-1.683.563A1.741,1.741,0,0,0,3.287,35.877ZM6.478,43.8a3.263,3.263,0,0,0,1.8-.589,1.756,1.756,0,0,0,.668-1.529,1.79,1.79,0,0,0-.193-.809,1.662,1.662,0,0,0-.554-.6,4.427,4.427,0,0,0-.765-.417,9.313,9.313,0,0,0-.958-.334Zm10.661-11.18h1.424V45h-1.5V34.286l-2.971,2.575V35.235ZM25,45.176a.987.987,0,0,1-.716-.3A1.022,1.022,0,0,1,25,43.137a.994.994,0,0,1,.721.3,1,1,0,0,1,0,1.437A1,1,0,0,1,25,45.176ZM30.973,43.6h6.161V45h-8.35V43.849l4.957-5.124a5.872,5.872,0,0,0,1.116-1.468,2.928,2.928,0,0,0,.308-1.274,2.136,2.136,0,0,0-.624-1.639,2.548,2.548,0,0,0-3.309.053,2.741,2.741,0,0,0-.628,1.991V37.3l-1.521-.141V36.4a3.912,3.912,0,0,1,1.046-2.94,3.842,3.842,0,0,1,2.795-1.015,3.873,3.873,0,0,1,2.685.94,3.27,3.27,0,0,1,1.05,2.566,3.892,3.892,0,0,1-.417,1.789,7.689,7.689,0,0,1-1.34,1.78ZM43.11,45.167a3.447,3.447,0,0,1-3.05-1.617A8.623,8.623,0,0,1,38.988,38.8a8.662,8.662,0,0,1,1.059-4.737,3.705,3.705,0,0,1,6.113,0A8.637,8.637,0,0,1,47.224,38.8a8.6,8.6,0,0,1-1.077,4.742A3.44,3.44,0,0,1,43.11,45.167Zm0-1.406a2.093,2.093,0,0,0,1.925-1.239A8.08,8.08,0,0,0,45.7,38.8a7.851,7.851,0,0,0-.681-3.713,2.115,2.115,0,0,0-3.828,0,7.891,7.891,0,0,0-.677,3.718,8.122,8.122,0,0,0,.664,3.722A2.091,2.091,0,0,0,43.11,43.761ZM10.556,86.643a3.482,3.482,0,0,1-.316,1.516,2.866,2.866,0,0,1-.883,1.085,4.319,4.319,0,0,1-1.292.65,6.34,6.34,0,0,1-1.586.272v1.125H5.651V90.167A5.154,5.154,0,0,1,2.791,89.2a3.7,3.7,0,0,1-1.455-2.3l1.6-.387a2.6,2.6,0,0,0,.932,1.564,3.345,3.345,0,0,0,1.784.712V84.3l-.088-.026q-.51-.141-.831-.237t-.773-.268a4.781,4.781,0,0,1-.734-.338,5.472,5.472,0,0,1-.6-.422,2.129,2.129,0,0,1-.5-.549,2.915,2.915,0,0,1-.3-.694,3.064,3.064,0,0,1-.119-.875,3.34,3.34,0,0,1,.316-1.472,2.9,2.9,0,0,1,.861-1.068,4.181,4.181,0,0,1,1.252-.642,5.282,5.282,0,0,1,1.516-.246V76.3h.826v1.2a5.107,5.107,0,0,1,2.54.888,3.363,3.363,0,0,1,1.345,2.083l-1.521.4a2.389,2.389,0,0,0-.826-1.371,3.053,3.053,0,0,0-1.538-.624v4.219q.4.105.659.18t.637.2a5.953,5.953,0,0,1,.633.237q.25.114.571.286a2.835,2.835,0,0,1,.523.347,4.765,4.765,0,0,1,.422.422,2.109,2.109,0,0,1,.347.523,3.181,3.181,0,0,1,.207.624A3.337,3.337,0,0,1,10.556,86.643ZM3.287,80.877a1.546,1.546,0,0,0,.176.747,1.53,1.53,0,0,0,.527.554,4.108,4.108,0,0,0,.729.378q.378.149.932.308V78.829a3,3,0,0,0-1.683.563A1.741,1.741,0,0,0,3.287,80.877ZM6.478,88.8a3.263,3.263,0,0,0,1.8-.589,1.756,1.756,0,0,0,.668-1.529,1.79,1.79,0,0,0-.193-.809,1.662,1.662,0,0,0-.554-.6,4.427,4.427,0,0,0-.765-.417,9.313,9.313,0,0,0-.958-.334Zm10.661-11.18h1.424V90h-1.5V79.286l-2.971,2.575V80.235ZM25,90.176a.987.987,0,0,1-.716-.3A1.022,1.022,0,0,1,25,88.137a.994.994,0,0,1,.721.3,1,1,0,0,1,0,1.437A1,1,0,0,1,25,90.176Zm12.665-4.061v1.4H35.754V90H34.233V87.513H28.31V86.106l5.15-8.481h2.294v8.49Zm-7.778,0h4.351V78.741ZM43.11,90.167a3.447,3.447,0,0,1-3.05-1.617A8.623,8.623,0,0,1,38.988,83.8a8.662,8.662,0,0,1,1.059-4.737,3.705,3.705,0,0,1,6.113,0A8.637,8.637,0,0,1,47.224,83.8a8.6,8.6,0,0,1-1.077,4.742A3.44,3.44,0,0,1,43.11,90.167Zm0-1.406a2.093,2.093,0,0,0,1.925-1.239A8.08,8.08,0,0,0,45.7,83.8a7.851,7.851,0,0,0-.681-3.713,2.115,2.115,0,0,0-3.828,0,7.891,7.891,0,0,0-.677,3.718,8.122,8.122,0,0,0,.664,3.722A2.091,2.091,0,0,0,43.11,88.761ZM10.556,131.643a3.482,3.482,0,0,1-.316,1.516,2.866,2.866,0,0,1-.883,1.085,4.319,4.319,0,0,1-1.292.65,6.34,6.34,0,0,1-1.586.272v1.125H5.651v-1.125a5.154,5.154,0,0,1-2.861-.967,3.7,3.7,0,0,1-1.455-2.3l1.6-.387a2.6,2.6,0,0,0,.932,1.564,3.345,3.345,0,0,0,1.784.712V129.3l-.088-.026q-.51-.141-.831-.237t-.773-.268a4.781,4.781,0,0,1-.734-.338,5.472,5.472,0,0,1-.6-.422,2.129,2.129,0,0,1-.5-.549,2.915,2.915,0,0,1-.3-.694,3.064,3.064,0,0,1-.119-.875,3.34,3.34,0,0,1,.316-1.472,2.9,2.9,0,0,1,.861-1.068,4.181,4.181,0,0,1,1.252-.642,5.282,5.282,0,0,1,1.516-.246V121.3h.826v1.2a5.107,5.107,0,0,1,2.54.888,3.363,3.363,0,0,1,1.345,2.083l-1.521.4a2.389,2.389,0,0,0-.826-1.371,3.053,3.053,0,0,0-1.538-.624v4.219q.4.105.659.18t.637.2a5.953,5.953,0,0,1,.633.237q.25.114.571.286a2.835,2.835,0,0,1,.523.347,4.765,4.765,0,0,1,.422.422,2.109,2.109,0,0,1,.347.523,3.181,3.181,0,0,1,.207.624A3.337,3.337,0,0,1,10.556,131.643Zm-7.269-5.766a1.546,1.546,0,0,0,.176.747,1.53,1.53,0,0,0,.527.554,4.108,4.108,0,0,0,.729.378q.378.149.932.308v-4.034a3,3,0,0,0-1.683.563A1.741,1.741,0,0,0,3.287,125.877Zm3.19,7.928a3.263,3.263,0,0,0,1.8-.589,1.756,1.756,0,0,0,.668-1.529,1.79,1.79,0,0,0-.193-.809,1.662,1.662,0,0,0-.554-.6,4.427,4.427,0,0,0-.765-.417,9.313,9.313,0,0,0-.958-.334Zm10.661-11.18h1.424V135h-1.5V124.286l-2.971,2.575v-1.626ZM25,135.176a.987.987,0,0,1-.716-.3,1.022,1.022,0,0,1,.716-1.74.994.994,0,0,1,.721.3,1,1,0,0,1,0,1.437A1,1,0,0,1,25,135.176Zm12.252-4.3a4.176,4.176,0,0,1-.562,2.224,3.974,3.974,0,0,1-1.556,1.512,4.437,4.437,0,0,1-2.145.527,4.32,4.32,0,0,1-3.076-1.165,3.934,3.934,0,0,1-1.239-3A4.873,4.873,0,0,1,29.742,128l4.14-5.379h1.793l-3.437,4.333a3.853,3.853,0,0,1,1.072-.149,3.933,3.933,0,0,1,1.9.475,3.8,3.8,0,0,1,1.45,1.419A4.242,4.242,0,0,1,37.248,130.878Zm-4.3,2.848a2.688,2.688,0,0,0,2.813-2.874A2.719,2.719,0,0,0,32.924,128a2.66,2.66,0,0,0-2.021.848,2.842,2.842,0,0,0-.782,2.07,2.739,2.739,0,0,0,.8,2.065A2.834,2.834,0,0,0,32.95,133.726Zm10.16,1.441a3.447,3.447,0,0,1-3.05-1.617,11.082,11.082,0,0,1-.013-9.483,3.705,3.705,0,0,1,6.113,0,11.021,11.021,0,0,1-.013,9.475A3.44,3.44,0,0,1,43.11,135.167Zm0-1.406a2.093,2.093,0,0,0,1.925-1.239A8.08,8.08,0,0,0,45.7,128.8a7.851,7.851,0,0,0-.681-3.713,2.115,2.115,0,0,0-3.828,0,7.891,7.891,0,0,0-.677,3.718,8.122,8.122,0,0,0,.664,3.722A2.091,2.091,0,0,0,43.11,133.761ZM10.556,176.643a3.482,3.482,0,0,1-.316,1.516,2.866,2.866,0,0,1-.883,1.085,4.319,4.319,0,0,1-1.292.65,6.34,6.34,0,0,1-1.586.272v1.125H5.651v-1.125a5.154,5.154,0,0,1-2.861-.967,3.7,3.7,0,0,1-1.455-2.3l1.6-.387a2.6,2.6,0,0,0,.932,1.564,3.345,3.345,0,0,0,1.784.712V174.3l-.088-.026q-.51-.141-.831-.237t-.773-.268a4.781,4.781,0,0,1-.734-.338,5.472,5.472,0,0,1-.6-.422,2.129,2.129,0,0,1-.5-.549,2.915,2.915,0,0,1-.3-.694,3.064,3.064,0,0,1-.119-.875,3.34,3.34,0,0,1,.316-1.472,2.9,2.9,0,0,1,.861-1.068,4.181,4.181,0,0,1,1.252-.642,5.282,5.282,0,0,1,1.516-.246V166.3h.826v1.2a5.107,5.107,0,0,1,2.54.888,3.363,3.363,0,0,1,1.345,2.083l-1.521.4a2.389,2.389,0,0,0-.826-1.371,3.053,3.053,0,0,0-1.538-.624v4.219q.4.105.659.18t.637.2a5.953,5.953,0,0,1,.633.237q.25.114.571.286a2.835,2.835,0,0,1,.523.347,4.765,4.765,0,0,1,.422.422,2.109,2.109,0,0,1,.347.523,3.181,3.181,0,0,1,.207.624A3.337,3.337,0,0,1,10.556,176.643Zm-7.269-5.766a1.546,1.546,0,0,0,.176.747,1.53,1.53,0,0,0,.527.554,4.108,4.108,0,0,0,.729.378q.378.149.932.308v-4.034a3,3,0,0,0-1.683.563A1.741,1.741,0,0,0,3.287,170.877Zm3.19,7.928a3.263,3.263,0,0,0,1.8-.589,1.756,1.756,0,0,0,.668-1.529,1.79,1.79,0,0,0-.193-.809,1.662,1.662,0,0,0-.554-.6,4.427,4.427,0,0,0-.765-.417,9.313,9.313,0,0,0-.958-.334Zm10.661-11.18h1.424V180h-1.5V169.286l-2.971,2.575v-1.626ZM25,180.176a.987.987,0,0,1-.716-.3,1.022,1.022,0,0,1,.716-1.74.994.994,0,0,1,.721.3,1,1,0,0,1,0,1.437A1,1,0,0,1,25,180.176Zm10.986-1.028a4.913,4.913,0,0,1-6,0,3.369,3.369,0,0,1-1.2-2.694,3.329,3.329,0,0,1,.624-2.021,3.577,3.577,0,0,1,1.7-1.248,3.056,3.056,0,0,1-1.217-1.059,2.694,2.694,0,0,1-.453-1.525,2.861,2.861,0,0,1,1.011-2.254,3.72,3.72,0,0,1,2.54-.883,3.655,3.655,0,0,1,2.509.888A2.87,2.87,0,0,1,36.5,170.6a2.753,2.753,0,0,1-.439,1.525,2.974,2.974,0,0,1-1.2,1.059,3.647,3.647,0,0,1,1.688,1.252,3.31,3.31,0,0,1,.624,2.017A3.371,3.371,0,0,1,35.982,179.147Zm-3-6.469a2.094,2.094,0,0,0,1.5-.58,1.887,1.887,0,0,0,.611-1.424,1.826,1.826,0,0,0-.611-1.393,2.288,2.288,0,0,0-3.01,0,1.829,1.829,0,0,0-.606,1.4,1.887,1.887,0,0,0,.611,1.424A2.105,2.105,0,0,0,32.985,172.679Zm0,6.082a2.756,2.756,0,0,0,1.9-.677,2.283,2.283,0,0,0,.76-1.793,2.237,2.237,0,0,0-.76-1.767,2.778,2.778,0,0,0-1.9-.668,2.807,2.807,0,0,0-1.916.668,2.231,2.231,0,0,0-.765,1.767,2.277,2.277,0,0,0,.765,1.793A2.785,2.785,0,0,0,32.985,178.761Zm10.125,1.406a3.447,3.447,0,0,1-3.05-1.617,11.082,11.082,0,0,1-.013-9.483,3.705,3.705,0,0,1,6.113,0,11.021,11.021,0,0,1-.013,9.475A3.44,3.44,0,0,1,43.11,180.167Zm0-1.406a2.093,2.093,0,0,0,1.925-1.239A8.08,8.08,0,0,0,45.7,173.8a7.851,7.851,0,0,0-.681-3.713,2.115,2.115,0,0,0-3.828,0,7.891,7.891,0,0,0-.677,3.718,8.122,8.122,0,0,0,.664,3.722A2.091,2.091,0,0,0,43.11,178.761ZM10.556,221.643a3.482,3.482,0,0,1-.316,1.516,2.866,2.866,0,0,1-.883,1.085,4.319,4.319,0,0,1-1.292.65,6.34,6.34,0,0,1-1.586.272v1.125H5.651v-1.125a5.154,5.154,0,0,1-2.861-.967,3.7,3.7,0,0,1-1.455-2.3l1.6-.387a2.6,2.6,0,0,0,.932,1.564,3.345,3.345,0,0,0,1.784.712V219.3l-.088-.026q-.51-.141-.831-.237t-.773-.268a4.781,4.781,0,0,1-.734-.338,5.472,5.472,0,0,1-.6-.422,2.129,2.129,0,0,1-.5-.549,2.915,2.915,0,0,1-.3-.694,3.064,3.064,0,0,1-.119-.875,3.34,3.34,0,0,1,.316-1.472,2.9,2.9,0,0,1,.861-1.068,4.181,4.181,0,0,1,1.252-.642,5.282,5.282,0,0,1,1.516-.246V211.3h.826v1.2a5.107,5.107,0,0,1,2.54.888,3.363,3.363,0,0,1,1.345,2.083l-1.521.4a2.389,2.389,0,0,0-.826-1.371,3.053,3.053,0,0,0-1.538-.624v4.219q.4.105.659.18t.637.2a5.953,5.953,0,0,1,.633.237q.25.114.571.286a2.835,2.835,0,0,1,.523.347,4.765,4.765,0,0,1,.422.422,2.109,2.109,0,0,1,.347.523,3.181,3.181,0,0,1,.207.624A3.337,3.337,0,0,1,10.556,221.643Zm-7.269-5.766a1.546,1.546,0,0,0,.176.747,1.53,1.53,0,0,0,.527.554,4.108,4.108,0,0,0,.729.378q.378.149.932.308v-4.034a3,3,0,0,0-1.683.563A1.741,1.741,0,0,0,3.287,215.877Zm3.19,7.928a3.263,3.263,0,0,0,1.8-.589,1.756,1.756,0,0,0,.668-1.529,1.79,1.79,0,0,0-.193-.809,1.662,1.662,0,0,0-.554-.6,4.427,4.427,0,0,0-.765-.417,9.313,9.313,0,0,0-.958-.334Zm8.569-.2h6.161V225h-8.35v-1.151l4.957-5.124a5.872,5.872,0,0,0,1.116-1.468,2.928,2.928,0,0,0,.308-1.274,2.136,2.136,0,0,0-.624-1.639A2.27,2.27,0,0,0,17,213.759a2.269,2.269,0,0,0-1.692.637,2.741,2.741,0,0,0-.628,1.991v.914l-1.521-.141V216.4a3.912,3.912,0,0,1,1.046-2.94A3.842,3.842,0,0,1,17,212.44a3.873,3.873,0,0,1,2.685.94,3.27,3.27,0,0,1,1.05,2.566,3.892,3.892,0,0,1-.417,1.789,7.689,7.689,0,0,1-1.34,1.78ZM25,225.176a.987.987,0,0,1-.716-.3,1.022,1.022,0,0,1,.716-1.74.994.994,0,0,1,.721.3,1,1,0,0,1,0,1.437A1,1,0,0,1,25,225.176Zm7.98-.009a3.447,3.447,0,0,1-3.05-1.617,11.082,11.082,0,0,1-.013-9.483,3.705,3.705,0,0,1,6.113,0,11.021,11.021,0,0,1-.013,9.475A3.44,3.44,0,0,1,32.977,225.167Zm0-1.406a2.093,2.093,0,0,0,1.925-1.239,8.08,8.08,0,0,0,.668-3.718,7.851,7.851,0,0,0-.681-3.713,2.115,2.115,0,0,0-3.828,0,7.891,7.891,0,0,0-.677,3.718,8.122,8.122,0,0,0,.664,3.722A2.091,2.091,0,0,0,32.977,223.761Zm10.134,1.406a3.447,3.447,0,0,1-3.05-1.617,11.082,11.082,0,0,1-.013-9.483,3.705,3.705,0,0,1,6.113,0,11.021,11.021,0,0,1-.013,9.475A3.44,3.44,0,0,1,43.11,225.167Zm0-1.406a2.093,2.093,0,0,0,1.925-1.239A8.08,8.08,0,0,0,45.7,218.8a7.851,7.851,0,0,0-.681-3.713,2.115,2.115,0,0,0-3.828,0,7.891,7.891,0,0,0-.677,3.718,8.122,8.122,0,0,0,.664,3.722A2.091,2.091,0,0,0,43.11,223.761ZM10.556,266.643a3.482,3.482,0,0,1-.316,1.516,2.866,2.866,0,0,1-.883,1.085,4.319,4.319,0,0,1-1.292.65,6.34,6.34,0,0,1-1.586.272v1.125H5.651v-1.125a5.154,5.154,0,0,1-2.861-.967,3.7,3.7,0,0,1-1.455-2.3l1.6-.387a2.6,2.6,0,0,0,.932,1.564,3.345,3.345,0,0,0,1.784.712V264.3l-.088-.026q-.51-.141-.831-.237t-.773-.268a4.781,4.781,0,0,1-.734-.338,5.472,5.472,0,0,1-.6-.422,2.129,2.129,0,0,1-.5-.549,2.915,2.915,0,0,1-.3-.694,3.064,3.064,0,0,1-.119-.875,3.34,3.34,0,0,1,.316-1.472,2.9,2.9,0,0,1,.861-1.068,4.181,4.181,0,0,1,1.252-.642,5.282,5.282,0,0,1,1.516-.246V256.3h.826v1.2a5.107,5.107,0,0,1,2.54.888,3.363,3.363,0,0,1,1.345,2.083l-1.521.4a2.389,2.389,0,0,0-.826-1.371,3.053,3.053,0,0,0-1.538-.624v4.219q.4.105.659.18t.637.2a5.953,5.953,0,0,1,.633.237q.25.114.571.286a2.835,2.835,0,0,1,.523.347,4.765,4.765,0,0,1,.422.422,2.109,2.109,0,0,1,.347.523,3.181,3.181,0,0,1,.207.624A3.337,3.337,0,0,1,10.556,266.643Zm-7.269-5.766a1.546,1.546,0,0,0,.176.747,1.53,1.53,0,0,0,.527.554,4.108,4.108,0,0,0,.729.378q.378.149.932.308v-4.034a3,3,0,0,0-1.683.563A1.741,1.741,0,0,0,3.287,260.877Zm3.19,7.928a3.263,3.263,0,0,0,1.8-.589,1.756,1.756,0,0,0,.668-1.529,1.79,1.79,0,0,0-.193-.809,1.662,1.662,0,0,0-.554-.6,4.427,4.427,0,0,0-.765-.417,9.313,9.313,0,0,0-.958-.334Zm8.569-.2h6.161V270h-8.35v-1.151l4.957-5.124a5.872,5.872,0,0,0,1.116-1.468,2.928,2.928,0,0,0,.308-1.274,2.136,2.136,0,0,0-.624-1.639A2.27,2.27,0,0,0,17,258.759a2.269,2.269,0,0,0-1.692.637,2.741,2.741,0,0,0-.628,1.991v.914l-1.521-.141V261.4a3.912,3.912,0,0,1,1.046-2.94A3.842,3.842,0,0,1,17,257.44a3.873,3.873,0,0,1,2.685.94,3.27,3.27,0,0,1,1.05,2.566,3.892,3.892,0,0,1-.417,1.789,7.689,7.689,0,0,1-1.34,1.78ZM25,270.176a.987.987,0,0,1-.716-.3,1.022,1.022,0,0,1,.716-1.74.994.994,0,0,1,.721.3,1,1,0,0,1,0,1.437A1,1,0,0,1,25,270.176Zm5.977-1.573h6.161V270h-8.35v-1.151l4.957-5.124a5.872,5.872,0,0,0,1.116-1.468,2.928,2.928,0,0,0,.308-1.274,2.136,2.136,0,0,0-.624-1.639,2.548,2.548,0,0,0-3.309.053,2.741,2.741,0,0,0-.628,1.991v.914l-1.521-.141V261.4a3.912,3.912,0,0,1,1.046-2.94,3.842,3.842,0,0,1,2.795-1.015,3.873,3.873,0,0,1,2.685.94,3.27,3.27,0,0,1,1.05,2.566,3.892,3.892,0,0,1-.417,1.789,7.689,7.689,0,0,1-1.34,1.78Zm12.138,1.564a3.447,3.447,0,0,1-3.05-1.617,11.082,11.082,0,0,1-.013-9.483,3.705,3.705,0,0,1,6.113,0,11.021,11.021,0,0,1-.013,9.475A3.44,3.44,0,0,1,43.11,270.167Zm0-1.406a2.093,2.093,0,0,0,1.925-1.239A8.08,8.08,0,0,0,45.7,263.8a7.851,7.851,0,0,0-.681-3.713,2.115,2.115,0,0,0-3.828,0,7.891,7.891,0,0,0-.677,3.718,8.122,8.122,0,0,0,.664,3.722A2.091,2.091,0,0,0,43.11,268.761Z" transform="translate(509 2267)" fill="#00223d"/>
      <path id="Trazado_34024" data-name="Trazado 34024" d="M4.781-7.963A4.8,4.8,0,0,1,8.156-6.921a3.778,3.778,0,0,1,1.116,2.9,4.107,4.107,0,0,1-1.147,3.01,4.026,4.026,0,0,1-3,1.165,4.769,4.769,0,0,1-1.551-.25,4.19,4.19,0,0,1-1.31-.721A3.3,3.3,0,0,1,1.349-2.03,4,4,0,0,1,1.011-3.7a5.645,5.645,0,0,1,.044-.633L2.61-4.465a6.186,6.186,0,0,0-.07.694,2.794,2.794,0,0,0,.224,1.151,1.968,1.968,0,0,0,.6.787,2.738,2.738,0,0,0,.813.426,2.968,2.968,0,0,0,.918.141,2.538,2.538,0,0,0,1.92-.756,2.69,2.69,0,0,0,.725-1.942,2.559,2.559,0,0,0-.751-1.951,3.368,3.368,0,0,0-2.377-.712H1.485l.765-5.73H8.736v1.415h-5.2l-.4,2.979ZM15.205.167a3.447,3.447,0,0,1-3.05-1.617A8.623,8.623,0,0,1,11.083-6.2a8.662,8.662,0,0,1,1.059-4.737,3.444,3.444,0,0,1,3.063-1.608,3.436,3.436,0,0,1,3.05,1.613A8.637,8.637,0,0,1,19.318-6.2a8.6,8.6,0,0,1-1.077,4.742A3.44,3.44,0,0,1,15.205.167Zm0-1.406A2.093,2.093,0,0,0,17.13-2.479,8.08,8.08,0,0,0,17.8-6.2a7.851,7.851,0,0,0-.681-3.713,2.105,2.105,0,0,0-1.912-1.217,2.1,2.1,0,0,0-1.916,1.213A7.891,7.891,0,0,0,12.612-6.2a8.122,8.122,0,0,0,.664,3.722A2.091,2.091,0,0,0,15.205-1.239ZM25.339.167a3.447,3.447,0,0,1-3.05-1.617A8.623,8.623,0,0,1,21.217-6.2a8.662,8.662,0,0,1,1.059-4.737,3.444,3.444,0,0,1,3.063-1.608,3.436,3.436,0,0,1,3.05,1.613A8.637,8.637,0,0,1,29.452-6.2a8.6,8.6,0,0,1-1.077,4.742A3.44,3.44,0,0,1,25.339.167Zm0-1.406a2.093,2.093,0,0,0,1.925-1.239A8.08,8.08,0,0,0,27.932-6.2,7.851,7.851,0,0,0,27.25-9.91a2.105,2.105,0,0,0-1.912-1.217,2.1,2.1,0,0,0-1.916,1.213A7.891,7.891,0,0,0,22.746-6.2a8.122,8.122,0,0,0,.664,3.722A2.091,2.091,0,0,0,25.339-1.239ZM4.781,37.037a4.8,4.8,0,0,1,3.375,1.042,3.778,3.778,0,0,1,1.116,2.9,4.107,4.107,0,0,1-1.147,3.01,4.026,4.026,0,0,1-3,1.165,4.769,4.769,0,0,1-1.551-.25,4.19,4.19,0,0,1-1.31-.721,3.3,3.3,0,0,1-.914-1.217,4,4,0,0,1-.338-1.67,5.645,5.645,0,0,1,.044-.633l1.556-.132a6.186,6.186,0,0,0-.07.694,2.794,2.794,0,0,0,.224,1.151,1.968,1.968,0,0,0,.6.787,2.738,2.738,0,0,0,.813.426,2.968,2.968,0,0,0,.918.141,2.538,2.538,0,0,0,1.92-.756,2.69,2.69,0,0,0,.725-1.942,2.559,2.559,0,0,0-.751-1.951,3.368,3.368,0,0,0-2.377-.712H1.485l.765-5.73H8.736v1.415h-5.2l-.4,2.979Zm10.134,0a4.8,4.8,0,0,1,3.375,1.042,3.778,3.778,0,0,1,1.116,2.9,4.107,4.107,0,0,1-1.147,3.01,4.026,4.026,0,0,1-3,1.165,4.769,4.769,0,0,1-1.551-.25,4.19,4.19,0,0,1-1.31-.721,3.3,3.3,0,0,1-.914-1.217,4,4,0,0,1-.338-1.67,5.645,5.645,0,0,1,.044-.633l1.556-.132a6.186,6.186,0,0,0-.07.694,2.794,2.794,0,0,0,.224,1.151,1.968,1.968,0,0,0,.6.787,2.738,2.738,0,0,0,.813.426,2.968,2.968,0,0,0,.918.141,2.538,2.538,0,0,0,1.92-.756,2.69,2.69,0,0,0,.725-1.942,2.559,2.559,0,0,0-.751-1.951,3.368,3.368,0,0,0-2.377-.712H11.619l.765-5.73H18.87v1.415h-5.2l-.4,2.979Zm10.424,8.13a3.447,3.447,0,0,1-3.05-1.617A8.623,8.623,0,0,1,21.217,38.8a8.662,8.662,0,0,1,1.059-4.737,3.444,3.444,0,0,1,3.063-1.608,3.436,3.436,0,0,1,3.05,1.613A8.637,8.637,0,0,1,29.452,38.8a8.6,8.6,0,0,1-1.077,4.742A3.44,3.44,0,0,1,25.339,45.167Zm0-1.406a2.093,2.093,0,0,0,1.925-1.239,8.08,8.08,0,0,0,.668-3.718,7.851,7.851,0,0,0-.681-3.713,2.115,2.115,0,0,0-3.828,0,7.891,7.891,0,0,0-.677,3.718,8.122,8.122,0,0,0,.664,3.722A2.091,2.091,0,0,0,25.339,43.761Zm-16,42.117A4.176,4.176,0,0,1,8.78,88.1a3.974,3.974,0,0,1-1.556,1.512,4.437,4.437,0,0,1-2.145.527A4.32,4.32,0,0,1,2,88.976a3.934,3.934,0,0,1-1.239-3A4.873,4.873,0,0,1,1.837,83l4.14-5.379H7.77L4.333,81.958a3.853,3.853,0,0,1,1.072-.149,3.933,3.933,0,0,1,1.9.475A3.8,3.8,0,0,1,8.754,83.7,4.242,4.242,0,0,1,9.343,85.878Zm-4.3,2.848a2.688,2.688,0,0,0,2.813-2.874,2.815,2.815,0,0,0-.817-2.087A2.8,2.8,0,0,0,5.019,83,2.66,2.66,0,0,0,3,83.843a2.842,2.842,0,0,0-.782,2.07,2.739,2.739,0,0,0,.8,2.065A2.834,2.834,0,0,0,5.045,88.726Zm10.16,1.441a3.447,3.447,0,0,1-3.05-1.617A8.623,8.623,0,0,1,11.083,83.8a8.662,8.662,0,0,1,1.059-4.737,3.444,3.444,0,0,1,3.063-1.608,3.436,3.436,0,0,1,3.05,1.613A8.637,8.637,0,0,1,19.318,83.8a8.6,8.6,0,0,1-1.077,4.742A3.44,3.44,0,0,1,15.205,90.167Zm0-1.406a2.093,2.093,0,0,0,1.925-1.239A8.08,8.08,0,0,0,17.8,83.8a7.851,7.851,0,0,0-.681-3.713,2.115,2.115,0,0,0-3.828,0,7.891,7.891,0,0,0-.677,3.718,8.122,8.122,0,0,0,.664,3.722A2.091,2.091,0,0,0,15.205,88.761Zm10.134,1.406a3.447,3.447,0,0,1-3.05-1.617A8.623,8.623,0,0,1,21.217,83.8a8.662,8.662,0,0,1,1.059-4.737,3.444,3.444,0,0,1,3.063-1.608,3.436,3.436,0,0,1,3.05,1.613A8.637,8.637,0,0,1,29.452,83.8a8.6,8.6,0,0,1-1.077,4.742A3.44,3.44,0,0,1,25.339,90.167Zm0-1.406a2.093,2.093,0,0,0,1.925-1.239,8.08,8.08,0,0,0,.668-3.718,7.851,7.851,0,0,0-.681-3.713,2.115,2.115,0,0,0-3.828,0,7.891,7.891,0,0,0-.677,3.718,8.122,8.122,0,0,0,.664,3.722A2.091,2.091,0,0,0,25.339,88.761Zm-16,42.117A4.176,4.176,0,0,1,8.78,133.1a3.974,3.974,0,0,1-1.556,1.512,4.437,4.437,0,0,1-2.145.527A4.32,4.32,0,0,1,2,133.976a3.934,3.934,0,0,1-1.239-3A4.873,4.873,0,0,1,1.837,128l4.14-5.379H7.77l-3.437,4.333a3.853,3.853,0,0,1,1.072-.149,3.933,3.933,0,0,1,1.9.475,3.8,3.8,0,0,1,1.45,1.419A4.242,4.242,0,0,1,9.343,130.878Zm-4.3,2.848a2.688,2.688,0,0,0,2.813-2.874,2.815,2.815,0,0,0-.817-2.087A2.8,2.8,0,0,0,5.019,128,2.66,2.66,0,0,0,3,128.843a2.842,2.842,0,0,0-.782,2.07,2.739,2.739,0,0,0,.8,2.065A2.834,2.834,0,0,0,5.045,133.726Zm14.845-2.61v1.4H17.982V135H16.462v-2.487H10.538v-1.406l5.15-8.481h2.294v8.49Zm-7.778,0h4.351v-7.374Zm13.228,4.052a3.447,3.447,0,0,1-3.05-1.617,11.082,11.082,0,0,1-.013-9.483,3.444,3.444,0,0,1,3.063-1.608,3.436,3.436,0,0,1,3.05,1.613,11.021,11.021,0,0,1-.013,9.475A3.44,3.44,0,0,1,25.339,135.167Zm0-1.406a2.093,2.093,0,0,0,1.925-1.239,8.08,8.08,0,0,0,.668-3.718,7.851,7.851,0,0,0-.681-3.713,2.115,2.115,0,0,0-3.828,0,7.891,7.891,0,0,0-.677,3.718,8.122,8.122,0,0,0,.664,3.722A2.091,2.091,0,0,0,25.339,133.761Zm-16,42.117A4.176,4.176,0,0,1,8.78,178.1a3.974,3.974,0,0,1-1.556,1.512,4.437,4.437,0,0,1-2.145.527A4.32,4.32,0,0,1,2,178.976a3.934,3.934,0,0,1-1.239-3A4.873,4.873,0,0,1,1.837,173l4.14-5.379H7.77l-3.437,4.333a3.853,3.853,0,0,1,1.072-.149,3.933,3.933,0,0,1,1.9.475,3.8,3.8,0,0,1,1.45,1.419A4.242,4.242,0,0,1,9.343,175.878Zm-4.3,2.848a2.688,2.688,0,0,0,2.813-2.874,2.815,2.815,0,0,0-.817-2.087A2.8,2.8,0,0,0,5.019,173,2.66,2.66,0,0,0,3,173.843a2.842,2.842,0,0,0-.782,2.07,2.739,2.739,0,0,0,.8,2.065A2.834,2.834,0,0,0,5.045,178.726Zm13.166.422a4.457,4.457,0,0,1-3,1.02,4.462,4.462,0,0,1-3-1.024,3.369,3.369,0,0,1-1.2-2.694,3.329,3.329,0,0,1,.624-2.021,3.577,3.577,0,0,1,1.7-1.248,3.056,3.056,0,0,1-1.217-1.059,2.694,2.694,0,0,1-.453-1.525,2.861,2.861,0,0,1,1.011-2.254,3.72,3.72,0,0,1,2.54-.883,3.655,3.655,0,0,1,2.509.888,2.87,2.87,0,0,1,1.006,2.25,2.753,2.753,0,0,1-.439,1.525,2.974,2.974,0,0,1-1.2,1.059,3.647,3.647,0,0,1,1.688,1.252,3.31,3.31,0,0,1,.624,2.017A3.371,3.371,0,0,1,18.211,179.147Zm-3-6.469a2.094,2.094,0,0,0,1.5-.58,1.887,1.887,0,0,0,.611-1.424,1.826,1.826,0,0,0-.611-1.393,2.288,2.288,0,0,0-3.01,0,1.829,1.829,0,0,0-.606,1.4,1.887,1.887,0,0,0,.611,1.424A2.105,2.105,0,0,0,15.214,172.679Zm0,6.082a2.756,2.756,0,0,0,1.9-.677,2.283,2.283,0,0,0,.76-1.793,2.237,2.237,0,0,0-.76-1.767,2.778,2.778,0,0,0-1.9-.668,2.807,2.807,0,0,0-1.916.668,2.231,2.231,0,0,0-.765,1.767,2.277,2.277,0,0,0,.765,1.793A2.785,2.785,0,0,0,15.214,178.761Zm10.125,1.406a3.447,3.447,0,0,1-3.05-1.617,11.082,11.082,0,0,1-.013-9.483,3.444,3.444,0,0,1,3.063-1.608,3.436,3.436,0,0,1,3.05,1.613,11.021,11.021,0,0,1-.013,9.475A3.44,3.44,0,0,1,25.339,180.167Zm0-1.406a2.093,2.093,0,0,0,1.925-1.239,8.08,8.08,0,0,0,.668-3.718,7.851,7.851,0,0,0-.681-3.713,2.115,2.115,0,0,0-3.828,0,7.891,7.891,0,0,0-.677,3.718,8.122,8.122,0,0,0,.664,3.722A2.091,2.091,0,0,0,25.339,178.761ZM.861,212.625H9.325V213.9L3.278,225H1.538l6.1-10.969H.861Zm14.344,12.542a3.447,3.447,0,0,1-3.05-1.617,11.082,11.082,0,0,1-.013-9.483,3.444,3.444,0,0,1,3.063-1.608,3.436,3.436,0,0,1,3.05,1.613,11.021,11.021,0,0,1-.013,9.475A3.44,3.44,0,0,1,15.205,225.167Zm0-1.406a2.093,2.093,0,0,0,1.925-1.239A8.08,8.08,0,0,0,17.8,218.8a7.851,7.851,0,0,0-.681-3.713,2.115,2.115,0,0,0-3.828,0,7.891,7.891,0,0,0-.677,3.718,8.122,8.122,0,0,0,.664,3.722A2.091,2.091,0,0,0,15.205,223.761Zm10.134,1.406a3.447,3.447,0,0,1-3.05-1.617,11.082,11.082,0,0,1-.013-9.483,3.444,3.444,0,0,1,3.063-1.608,3.436,3.436,0,0,1,3.05,1.613,11.021,11.021,0,0,1-.013,9.475A3.44,3.44,0,0,1,25.339,225.167Zm0-1.406a2.093,2.093,0,0,0,1.925-1.239,8.08,8.08,0,0,0,.668-3.718,7.851,7.851,0,0,0-.681-3.713,2.115,2.115,0,0,0-3.828,0,7.891,7.891,0,0,0-.677,3.718,8.122,8.122,0,0,0,.664,3.722A2.091,2.091,0,0,0,25.339,223.761ZM.861,257.625H9.325V258.9L3.278,270H1.538l6.1-10.969H.861ZM13.2,268.6h6.161V270h-8.35v-1.151l4.957-5.124a5.872,5.872,0,0,0,1.116-1.468,2.928,2.928,0,0,0,.308-1.274,2.136,2.136,0,0,0-.624-1.639,2.27,2.27,0,0,0-1.617-.584,2.269,2.269,0,0,0-1.692.637,2.741,2.741,0,0,0-.628,1.991v.914l-1.521-.141V261.4a3.912,3.912,0,0,1,1.046-2.94,3.842,3.842,0,0,1,2.795-1.015,3.873,3.873,0,0,1,2.685.94,3.27,3.27,0,0,1,1.05,2.566,3.892,3.892,0,0,1-.417,1.789,7.689,7.689,0,0,1-1.34,1.78Zm12.138,1.564a3.447,3.447,0,0,1-3.05-1.617,11.082,11.082,0,0,1-.013-9.483,3.444,3.444,0,0,1,3.063-1.608,3.436,3.436,0,0,1,3.05,1.613,11.021,11.021,0,0,1-.013,9.475A3.44,3.44,0,0,1,25.339,270.167Zm0-1.406a2.093,2.093,0,0,0,1.925-1.239,8.08,8.08,0,0,0,.668-3.718,7.851,7.851,0,0,0-.681-3.713,2.115,2.115,0,0,0-3.828,0,7.891,7.891,0,0,0-.677,3.718,8.122,8.122,0,0,0,.664,3.722A2.091,2.091,0,0,0,25.339,268.761Z" transform="translate(780 2267)" fill="#00223d"/>
      <path id="Trazado_34005" data-name="Trazado 34005" d="M6189,988.5h257" transform="translate(-5767 1295)" fill="none" stroke="#fd8f25" stroke-width="1"/>
      <path id="Trazado_34006" data-name="Trazado 34006" d="M6189,988.5h257" transform="translate(-5510 1295)" fill="none" stroke="#21867b" stroke-width="1"/>
      <path id="Trazado_34007" data-name="Trazado 34007" d="M6189,988.5h257" transform="translate(-5767 1342)" fill="none" stroke="#fd8f25" stroke-width="1"/>
      <path id="Trazado_34008" data-name="Trazado 34008" d="M6189,988.5h257" transform="translate(-5510 1342)" fill="none" stroke="#21867b" stroke-width="1"/>
      <path id="Trazado_34009" data-name="Trazado 34009" d="M6189,988.5h257" transform="translate(-5767 1385)" fill="none" stroke="#fd8f25" stroke-width="1"/>
      <path id="Trazado_34010" data-name="Trazado 34010" d="M6189,988.5h257" transform="translate(-5510 1385)" fill="none" stroke="#21867b" stroke-width="1"/>
      <path id="Trazado_34011" data-name="Trazado 34011" d="M6189,988.5h257" transform="translate(-5767 1432)" fill="none" stroke="#fd8f25" stroke-width="1"/>
      <path id="Trazado_34012" data-name="Trazado 34012" d="M6189,988.5h257" transform="translate(-5510 1432)" fill="none" stroke="#21867b" stroke-width="1"/>
      <path id="Trazado_34013" data-name="Trazado 34013" d="M6189,988.5h257" transform="translate(-5767 1475)" fill="none" stroke="#fd8f25" stroke-width="1"/>
      <path id="Trazado_34014" data-name="Trazado 34014" d="M6189,988.5h257" transform="translate(-5510 1475)" fill="none" stroke="#21867b" stroke-width="1"/>
      <path id="Trazado_34015" data-name="Trazado 34015" d="M6189,988.5h257" transform="translate(-5767 1522)" fill="none" stroke="#fd8f25" stroke-width="1"/>
      <path id="Trazado_34016" data-name="Trazado 34016" d="M6189,988.5h257" transform="translate(-5510 1522)" fill="none" stroke="#21867b" stroke-width="1"/>
    </g>
  </g>
</svg>
